G04 (created by PCBNEW-RS274X (2012-01-19 BZR 3256)-stable) date 1/15/2013 11:21:01 AM*
G01*
G70*
G90*
%MOMM*%
G04 Gerber Fmt 3.4, Leading zero omitted, Abs format*
%FSLAX34Y34*%
G04 APERTURE LIST*
%ADD10C,0.006000*%
%ADD11C,0.055000*%
%ADD12R,0.055000X0.055000*%
%ADD13R,0.060000X0.060000*%
%ADD14C,0.060000*%
%ADD15C,0.150000*%
%ADD16R,0.150000X0.150000*%
%ADD17R,0.100000X0.100000*%
%ADD18C,0.100000*%
%ADD19C,0.015000*%
%ADD20C,0.030000*%
%ADD21C,0.010000*%
G04 APERTURE END LIST*
G54D10*
G54D11*
X38000Y-33500D03*
X38000Y-35500D03*
X35000Y-33500D03*
X35000Y-35500D03*
G54D12*
X36500Y-18500D03*
G54D11*
X35500Y-18500D03*
X34500Y-18500D03*
X33500Y-18500D03*
X32500Y-18500D03*
X31500Y-18500D03*
X30500Y-18500D03*
X29500Y-18500D03*
G54D12*
X45500Y-18500D03*
G54D11*
X44500Y-18500D03*
X43500Y-18500D03*
X42500Y-18500D03*
X41500Y-18500D03*
X40500Y-18500D03*
X39500Y-18500D03*
X38500Y-18500D03*
G54D12*
X45500Y-37500D03*
G54D11*
X44500Y-37500D03*
X43500Y-37500D03*
X42500Y-37500D03*
X41500Y-37500D03*
X40500Y-37500D03*
G54D12*
X38500Y-37500D03*
G54D11*
X37500Y-37500D03*
X36500Y-37500D03*
X35500Y-37500D03*
X34500Y-37500D03*
X33500Y-37500D03*
G54D13*
X38000Y-30000D03*
G54D14*
X39000Y-30000D03*
X38000Y-31000D03*
X39000Y-31000D03*
X38000Y-32000D03*
X39000Y-32000D03*
G54D13*
X32500Y-35000D03*
G54D14*
X31500Y-35000D03*
X32500Y-34000D03*
X31500Y-34000D03*
X32500Y-33000D03*
X31500Y-33000D03*
G54D13*
X32500Y-26500D03*
G54D14*
X31500Y-26500D03*
X32500Y-25500D03*
X31500Y-25500D03*
X32500Y-24500D03*
X31500Y-24500D03*
G54D13*
X38000Y-21500D03*
G54D14*
X39000Y-21500D03*
X38000Y-22500D03*
X39000Y-22500D03*
X38000Y-23500D03*
X39000Y-23500D03*
G54D15*
X50500Y-31500D03*
X50500Y-33500D03*
G54D16*
X50500Y-29500D03*
G54D15*
X50500Y-35500D03*
X19500Y-33500D03*
X19500Y-31500D03*
G54D16*
X19500Y-35500D03*
G54D15*
X19500Y-29500D03*
X19500Y-24000D03*
X19500Y-22000D03*
G54D16*
X19500Y-26000D03*
G54D15*
X19500Y-20000D03*
X50500Y-22500D03*
X50500Y-24500D03*
G54D16*
X50500Y-20500D03*
G54D15*
X50500Y-26500D03*
G54D17*
X19000Y-39000D03*
G54D18*
X21000Y-39000D03*
G54D14*
X45500Y-27500D03*
X45500Y-26500D03*
X45500Y-25500D03*
X45500Y-24500D03*
X45500Y-23500D03*
X45500Y-22500D03*
X45500Y-21500D03*
X45500Y-20500D03*
X40500Y-20500D03*
X40500Y-21500D03*
X40500Y-22500D03*
X40500Y-23500D03*
X40500Y-24500D03*
X40500Y-25500D03*
X40500Y-26500D03*
X40500Y-27500D03*
X25000Y-20500D03*
X25000Y-21500D03*
X25000Y-22500D03*
X25000Y-23500D03*
X25000Y-24500D03*
X25000Y-25500D03*
X25000Y-26500D03*
X25000Y-27500D03*
X30000Y-27500D03*
X30000Y-26500D03*
X30000Y-25500D03*
X30000Y-24500D03*
X30000Y-23500D03*
X30000Y-22500D03*
X30000Y-21500D03*
X30000Y-20500D03*
X45500Y-36000D03*
X45500Y-35000D03*
X45500Y-34000D03*
X45500Y-33000D03*
X45500Y-32000D03*
X45500Y-31000D03*
X45500Y-30000D03*
X45500Y-29000D03*
X40500Y-29000D03*
X40500Y-30000D03*
X40500Y-31000D03*
X40500Y-32000D03*
X40500Y-33000D03*
X40500Y-34000D03*
X40500Y-35000D03*
X40500Y-36000D03*
X25000Y-29000D03*
X25000Y-30000D03*
X25000Y-31000D03*
X25000Y-32000D03*
X25000Y-33000D03*
X25000Y-34000D03*
X25000Y-35000D03*
X25000Y-36000D03*
X30000Y-36000D03*
X30000Y-35000D03*
X30000Y-34000D03*
X30000Y-33000D03*
X30000Y-32000D03*
X30000Y-31000D03*
X30000Y-30000D03*
X30000Y-29000D03*
G54D11*
X34000Y-28000D03*
X37000Y-28000D03*
G54D13*
X47500Y-20500D03*
G54D14*
X47500Y-21500D03*
G54D13*
X23000Y-27500D03*
G54D14*
X23000Y-26500D03*
G54D13*
X47500Y-29000D03*
G54D14*
X47500Y-30000D03*
G54D13*
X23000Y-36000D03*
G54D14*
X23000Y-35000D03*
G54D13*
X47500Y-26500D03*
G54D14*
X47500Y-27500D03*
G54D13*
X23000Y-21500D03*
G54D14*
X23000Y-20500D03*
G54D13*
X47500Y-35000D03*
G54D14*
X47500Y-36000D03*
G54D13*
X23000Y-30000D03*
G54D14*
X23000Y-29000D03*
G54D13*
X32000Y-21500D03*
G54D14*
X32000Y-20500D03*
X33000Y-21500D03*
X33000Y-20500D03*
G54D19*
X43500Y-36500D02*
X45000Y-35000D01*
X38000Y-30000D02*
X38000Y-23500D01*
X45500Y-26500D02*
X45000Y-26500D01*
X44500Y-34500D02*
X45000Y-35000D01*
X44500Y-27000D02*
X44500Y-34500D01*
X45000Y-26500D02*
X44500Y-27000D01*
X43500Y-37500D02*
X43500Y-36500D01*
X45000Y-35000D02*
X45500Y-35000D01*
X42000Y-37000D02*
X42500Y-37500D01*
X40500Y-37000D02*
X42000Y-37000D01*
X38500Y-35000D02*
X40500Y-37000D01*
X38500Y-34000D02*
X38500Y-35000D01*
X38500Y-33000D02*
X38500Y-34000D01*
X38000Y-33000D02*
X38500Y-33000D01*
X38000Y-32000D02*
X38000Y-33000D01*
X42500Y-37500D02*
X43500Y-37500D01*
X25000Y-30000D02*
X25500Y-30000D01*
X34000Y-26500D02*
X32500Y-26500D01*
X34500Y-27000D02*
X34000Y-26500D01*
X34500Y-33000D02*
X34500Y-27000D01*
X34000Y-33500D02*
X34500Y-33000D01*
X34000Y-35000D02*
X34000Y-33500D01*
X33500Y-35500D02*
X34000Y-35000D01*
X33500Y-36000D02*
X33500Y-35500D01*
X32500Y-37000D02*
X33500Y-36000D01*
X29000Y-37000D02*
X32500Y-37000D01*
X28000Y-36000D02*
X29000Y-37000D01*
X22500Y-21500D02*
X23000Y-21500D01*
X22000Y-21000D02*
X22500Y-21500D01*
X22000Y-20000D02*
X22000Y-21000D01*
X22500Y-19500D02*
X22000Y-20000D01*
X25500Y-19500D02*
X22500Y-19500D01*
X26500Y-20500D02*
X25500Y-19500D01*
X26500Y-28500D02*
X26500Y-20500D01*
X45500Y-26500D02*
X47500Y-26500D01*
X25500Y-30000D02*
X28000Y-32500D01*
X32500Y-24500D02*
X37000Y-24500D01*
X37000Y-24500D02*
X38000Y-23500D01*
X32500Y-33000D02*
X32500Y-26500D01*
X25000Y-30000D02*
X26500Y-28500D01*
X38000Y-32000D02*
X38000Y-31000D01*
X28000Y-32500D02*
X28000Y-36000D01*
X38000Y-22500D02*
X38000Y-21500D01*
X38000Y-31000D02*
X38000Y-30000D01*
X32500Y-26500D02*
X32500Y-25500D01*
X32500Y-25500D02*
X32500Y-24500D01*
X32500Y-35000D02*
X32500Y-34000D01*
X32500Y-34000D02*
X32500Y-33000D01*
X23000Y-30000D02*
X25000Y-30000D01*
X45500Y-35000D02*
X47500Y-35000D01*
X23000Y-21500D02*
X25000Y-21500D01*
X38000Y-23500D02*
X38000Y-22500D01*
X36500Y-18500D02*
X36500Y-18000D01*
X40000Y-29000D02*
X39000Y-28000D01*
X36500Y-18000D02*
X37000Y-17500D01*
X39000Y-25000D02*
X40000Y-24000D01*
X38500Y-17500D02*
X39000Y-18000D01*
X37000Y-17500D02*
X38500Y-17500D01*
X40500Y-29000D02*
X40000Y-29000D01*
X39000Y-19500D02*
X40000Y-20500D01*
X41500Y-23500D02*
X41500Y-21500D01*
X41000Y-24000D02*
X41500Y-23500D01*
X40000Y-24000D02*
X41000Y-24000D01*
X41500Y-21500D02*
X40500Y-20500D01*
X40000Y-20500D02*
X40500Y-20500D01*
X39000Y-28000D02*
X39000Y-25000D01*
X39000Y-18000D02*
X39000Y-19500D01*
X30500Y-27500D02*
X32000Y-29000D01*
X35000Y-23500D02*
X32500Y-23500D01*
X36500Y-22000D02*
X35000Y-23500D01*
X36500Y-18500D02*
X36500Y-22000D01*
X32500Y-23500D02*
X32000Y-24000D01*
X32000Y-24000D02*
X32000Y-29000D01*
X30000Y-27500D02*
X30500Y-27500D01*
X32000Y-29000D02*
X32000Y-36000D01*
X32000Y-36000D02*
X32500Y-36000D01*
X30000Y-36000D02*
X32000Y-36000D01*
X32500Y-36000D02*
X33500Y-35000D01*
X33500Y-35000D02*
X33500Y-33500D01*
X34000Y-33000D02*
X34000Y-28000D01*
X33500Y-33500D02*
X34000Y-33000D01*
G54D20*
X51000Y-40500D02*
X53000Y-38500D01*
X22000Y-37000D02*
X22000Y-38000D01*
X19500Y-39000D02*
X21500Y-37000D01*
X23000Y-36000D02*
X25000Y-36000D01*
X45500Y-20500D02*
X47500Y-20500D01*
X45500Y-29000D02*
X47500Y-29000D01*
X47500Y-20500D02*
X47500Y-20000D01*
X51500Y-19000D02*
X53000Y-20500D01*
X48500Y-19000D02*
X51500Y-19000D01*
X53000Y-20500D02*
X53000Y-29000D01*
X17500Y-28000D02*
X18000Y-27500D01*
X18000Y-27500D02*
X23000Y-27500D01*
X22000Y-40500D02*
X51000Y-40500D01*
X19000Y-39000D02*
X19500Y-39000D01*
X22000Y-38000D02*
X22000Y-40500D01*
X22000Y-40500D02*
X17500Y-40500D01*
X17500Y-40500D02*
X17500Y-34000D01*
X17500Y-34000D02*
X17500Y-28000D01*
X23000Y-27500D02*
X25000Y-27500D01*
X47500Y-20000D02*
X48500Y-19000D01*
X52000Y-28000D02*
X48500Y-28000D01*
X53000Y-29000D02*
X52000Y-28000D01*
X48500Y-28000D02*
X47500Y-29000D01*
X53000Y-38500D02*
X53000Y-29000D01*
X21500Y-37000D02*
X22000Y-37000D01*
X22000Y-37000D02*
X23000Y-36000D01*
G54D19*
X29500Y-22000D02*
X27500Y-24000D01*
X31000Y-22000D02*
X29500Y-22000D01*
X31500Y-21500D02*
X31000Y-22000D01*
X27500Y-24000D02*
X27500Y-28000D01*
X28500Y-29000D02*
X30000Y-29000D01*
X32000Y-21500D02*
X31500Y-21500D01*
X27500Y-28000D02*
X28500Y-29000D01*
X30000Y-30000D02*
X30500Y-30000D01*
X33000Y-22000D02*
X33000Y-21500D01*
X32500Y-22500D02*
X33000Y-22000D01*
X32000Y-22500D02*
X32500Y-22500D01*
X30500Y-24000D02*
X32000Y-22500D01*
X29000Y-24000D02*
X30500Y-24000D01*
X28500Y-24500D02*
X29000Y-24000D01*
X28500Y-27500D02*
X28500Y-24500D01*
X29000Y-28000D02*
X28500Y-27500D01*
X30000Y-28000D02*
X29000Y-28000D01*
X31000Y-29000D02*
X30000Y-28000D01*
X31000Y-29500D02*
X31000Y-29000D01*
X30500Y-30000D02*
X31000Y-29500D01*
X41000Y-19500D02*
X41500Y-19500D01*
X39500Y-26500D02*
X39500Y-27000D01*
X39500Y-27000D02*
X40000Y-27500D01*
X40500Y-19000D02*
X41000Y-19500D01*
X40500Y-18500D02*
X40500Y-19000D01*
X40000Y-27500D02*
X40500Y-27500D01*
X41500Y-19500D02*
X43000Y-21000D01*
X42000Y-26000D02*
X40000Y-26000D01*
X40000Y-26000D02*
X39500Y-26500D01*
X43000Y-25000D02*
X42000Y-26000D01*
X43000Y-21000D02*
X43000Y-25000D01*
X42000Y-26500D02*
X40500Y-26500D01*
X43500Y-25000D02*
X42000Y-26500D01*
X43500Y-18500D02*
X43500Y-25000D01*
X39500Y-17500D02*
X39000Y-17000D01*
X39000Y-17000D02*
X28500Y-17000D01*
X28500Y-17000D02*
X28000Y-17500D01*
X39500Y-18500D02*
X39500Y-17500D01*
X30000Y-20500D02*
X32000Y-20500D01*
X28000Y-17500D02*
X28000Y-20000D01*
X28000Y-20000D02*
X28500Y-20500D01*
X28500Y-20500D02*
X30000Y-20500D01*
X30000Y-21500D02*
X31000Y-21500D01*
X32500Y-21000D02*
X33000Y-20500D01*
X31500Y-21000D02*
X32500Y-21000D01*
X31000Y-21500D02*
X31500Y-21000D01*
X27500Y-16500D02*
X27500Y-21000D01*
X42500Y-18500D02*
X42500Y-17000D01*
X28000Y-21500D02*
X30000Y-21500D01*
X42000Y-16500D02*
X27500Y-16500D01*
X42500Y-17000D02*
X42000Y-16500D01*
X27500Y-21000D02*
X28000Y-21500D01*
X40500Y-36000D02*
X40000Y-36000D01*
X40000Y-36000D02*
X39000Y-35000D01*
X38500Y-32500D02*
X38500Y-18500D01*
X39000Y-33000D02*
X38500Y-32500D01*
X39000Y-35000D02*
X39000Y-33000D01*
X44000Y-18000D02*
X44000Y-19500D01*
X43000Y-18500D02*
X43000Y-18000D01*
X43000Y-18000D02*
X43500Y-18000D01*
X42500Y-19000D02*
X43000Y-19000D01*
X43000Y-19000D02*
X43000Y-18500D01*
X42000Y-19000D02*
X42500Y-19000D01*
X43500Y-18000D02*
X44000Y-18000D01*
X41500Y-18500D02*
X42000Y-19000D01*
X42500Y-35000D02*
X40500Y-35000D01*
X44000Y-19500D02*
X44000Y-33500D01*
X44000Y-33500D02*
X42500Y-35000D01*
X48500Y-35500D02*
X48000Y-36000D01*
X34000Y-36000D02*
X34000Y-35500D01*
X33500Y-38000D02*
X34000Y-38500D01*
X45500Y-30000D02*
X47500Y-30000D01*
X45000Y-34500D02*
X48000Y-34500D01*
X48500Y-35000D02*
X48500Y-35500D01*
X44500Y-37500D02*
X44500Y-37000D01*
X22000Y-29500D02*
X22500Y-29000D01*
X22500Y-29000D02*
X23000Y-29000D01*
X37000Y-30000D02*
X35000Y-32000D01*
X25000Y-35000D02*
X25500Y-35000D01*
X32000Y-38000D02*
X33500Y-38000D01*
X43500Y-38500D02*
X44500Y-37500D01*
X25500Y-35000D02*
X25500Y-30500D01*
X37000Y-28000D02*
X37000Y-30000D01*
X45000Y-30000D02*
X45000Y-34500D01*
X34000Y-38500D02*
X43500Y-38500D01*
X25500Y-30500D02*
X25000Y-30500D01*
X28500Y-38000D02*
X32000Y-38000D01*
X25500Y-35000D02*
X28500Y-38000D01*
X22000Y-30000D02*
X22000Y-29500D01*
X32000Y-38000D02*
X34000Y-36000D01*
X34000Y-35500D02*
X35000Y-34500D01*
X35000Y-34500D02*
X35000Y-33500D01*
X48000Y-34500D02*
X48500Y-35000D01*
X44500Y-37000D02*
X45500Y-36000D01*
X25000Y-30500D02*
X22500Y-30500D01*
X22500Y-30500D02*
X22000Y-30000D01*
X45000Y-30000D02*
X45500Y-30000D01*
X45000Y-28000D02*
X45000Y-30000D01*
X48000Y-36000D02*
X47500Y-36000D01*
X45500Y-27500D02*
X45000Y-28000D01*
X48500Y-27000D02*
X48000Y-27500D01*
X18500Y-40000D02*
X18000Y-39500D01*
X25000Y-29000D02*
X26000Y-28000D01*
X44500Y-22500D02*
X44500Y-25500D01*
X45500Y-21500D02*
X47500Y-21500D01*
X45500Y-27500D02*
X47500Y-27500D01*
X20000Y-40000D02*
X18500Y-40000D01*
X35000Y-32000D02*
X35000Y-33500D01*
X45500Y-36000D02*
X47500Y-36000D01*
X48500Y-26500D02*
X48500Y-27000D01*
X48000Y-27500D02*
X47500Y-27500D01*
X45500Y-21500D02*
X44500Y-22500D01*
X19500Y-38000D02*
X22500Y-35000D01*
X48000Y-26000D02*
X48500Y-26500D01*
X26000Y-28000D02*
X26000Y-27500D01*
X26000Y-27500D02*
X25000Y-26500D01*
X45000Y-26000D02*
X48000Y-26000D01*
X25000Y-20500D02*
X25500Y-20500D01*
X23000Y-29000D02*
X25000Y-29000D01*
X23000Y-20500D02*
X25000Y-20500D01*
X25500Y-20500D02*
X26000Y-21000D01*
X44500Y-25500D02*
X45000Y-26000D01*
X18000Y-39500D02*
X18000Y-38500D01*
X23000Y-35000D02*
X25000Y-35000D01*
X21000Y-39000D02*
X20000Y-40000D01*
X22500Y-35000D02*
X23000Y-35000D01*
X26000Y-25500D02*
X25000Y-26500D01*
X26000Y-21000D02*
X26000Y-25500D01*
X18000Y-38500D02*
X18500Y-38000D01*
X35000Y-33500D02*
X38000Y-33500D01*
X23000Y-26500D02*
X25000Y-26500D01*
X18500Y-38000D02*
X19500Y-38000D01*
G54D20*
X45500Y-23500D02*
X49500Y-23500D01*
X49500Y-23500D02*
X50500Y-22500D01*
X45500Y-22500D02*
X48500Y-22500D01*
X48500Y-22500D02*
X50500Y-20500D01*
X45500Y-24500D02*
X50500Y-24500D01*
G54D19*
X40500Y-25500D02*
X40500Y-24500D01*
X39000Y-23500D02*
X40500Y-23500D01*
X39000Y-22500D02*
X40500Y-22500D01*
X39000Y-21500D02*
X40500Y-21500D01*
X38500Y-35500D02*
X40500Y-37500D01*
X38000Y-35500D02*
X35000Y-35500D01*
X38000Y-35500D02*
X38500Y-35500D01*
G54D20*
X45500Y-32000D02*
X50000Y-32000D01*
X50000Y-32000D02*
X50500Y-31500D01*
G54D19*
X30000Y-31000D02*
X30000Y-32000D01*
X30000Y-33000D02*
X31500Y-33000D01*
X30000Y-34000D02*
X31500Y-34000D01*
X30000Y-35000D02*
X31500Y-35000D01*
X30000Y-26500D02*
X31500Y-26500D01*
G54D20*
X49000Y-34000D02*
X50500Y-35500D01*
X45500Y-34000D02*
X49000Y-34000D01*
G54D19*
X40500Y-34000D02*
X40500Y-33000D01*
X39000Y-32000D02*
X40500Y-32000D01*
X39000Y-31000D02*
X40500Y-31000D01*
X39000Y-30000D02*
X40500Y-30000D01*
G54D20*
X45500Y-25500D02*
X49500Y-25500D01*
X49500Y-25500D02*
X50500Y-26500D01*
X20000Y-25500D02*
X19500Y-26000D01*
X25000Y-25500D02*
X20000Y-25500D01*
X25000Y-24500D02*
X20000Y-24500D01*
X20000Y-24500D02*
X19500Y-24000D01*
X21000Y-23500D02*
X19500Y-22000D01*
X25000Y-23500D02*
X21000Y-23500D01*
X22000Y-22500D02*
X19500Y-20000D01*
X25000Y-22500D02*
X22000Y-22500D01*
G54D19*
X30000Y-22500D02*
X30000Y-23500D01*
X30000Y-24500D02*
X31500Y-24500D01*
X30000Y-25500D02*
X31500Y-25500D01*
G54D20*
X25000Y-32000D02*
X20000Y-32000D01*
X20000Y-32000D02*
X19500Y-31500D01*
X45500Y-33000D02*
X50000Y-33000D01*
X50000Y-33000D02*
X50500Y-33500D01*
X49000Y-31000D02*
X50500Y-29500D01*
X45500Y-31000D02*
X49000Y-31000D01*
X25000Y-31000D02*
X21000Y-31000D01*
X21000Y-31000D02*
X19500Y-29500D01*
X25000Y-33000D02*
X20000Y-33000D01*
X20000Y-33000D02*
X19500Y-33500D01*
X25000Y-34000D02*
X21000Y-34000D01*
X21000Y-34000D02*
X19500Y-35500D01*
G54D10*
G36*
X54450Y-41450D02*
X53400Y-41450D01*
X53400Y-38500D01*
X53400Y-29000D01*
X53400Y-20500D01*
X53370Y-20347D01*
X53370Y-20346D01*
X53283Y-20217D01*
X51783Y-18717D01*
X51653Y-18630D01*
X51500Y-18600D01*
X48500Y-18600D01*
X48346Y-18630D01*
X48217Y-18717D01*
X47217Y-19717D01*
X47130Y-19847D01*
X47105Y-19969D01*
X47059Y-19989D01*
X46989Y-20059D01*
X46971Y-20100D01*
X45876Y-20100D01*
X45811Y-20035D01*
X45609Y-19951D01*
X45391Y-19951D01*
X45189Y-20035D01*
X45035Y-20189D01*
X44951Y-20391D01*
X44951Y-20609D01*
X45035Y-20811D01*
X45189Y-20965D01*
X45280Y-21002D01*
X45219Y-21028D01*
X45192Y-21122D01*
X45500Y-21429D01*
X45808Y-21122D01*
X45781Y-21028D01*
X45715Y-21004D01*
X45811Y-20965D01*
X45876Y-20900D01*
X46972Y-20900D01*
X46989Y-20941D01*
X47059Y-21011D01*
X47150Y-21049D01*
X47212Y-21049D01*
X47192Y-21122D01*
X47500Y-21429D01*
X47808Y-21122D01*
X47787Y-21049D01*
X47849Y-21049D01*
X47941Y-21011D01*
X48011Y-20941D01*
X48049Y-20850D01*
X48049Y-20751D01*
X48049Y-20151D01*
X48011Y-20059D01*
X48009Y-20057D01*
X48666Y-19400D01*
X51334Y-19400D01*
X52600Y-20666D01*
X52600Y-28034D01*
X52283Y-27717D01*
X52153Y-27630D01*
X52000Y-27600D01*
X48500Y-27600D01*
X48346Y-27630D01*
X48217Y-27717D01*
X48043Y-27891D01*
X48043Y-27579D01*
X48032Y-27366D01*
X47972Y-27219D01*
X47878Y-27192D01*
X47571Y-27500D01*
X47878Y-27808D01*
X47972Y-27781D01*
X48043Y-27579D01*
X48043Y-27891D01*
X47808Y-28126D01*
X47808Y-27878D01*
X47500Y-27571D01*
X47429Y-27641D01*
X47429Y-27500D01*
X47122Y-27192D01*
X47028Y-27219D01*
X46957Y-27421D01*
X46968Y-27634D01*
X47028Y-27781D01*
X47122Y-27808D01*
X47429Y-27500D01*
X47429Y-27641D01*
X47192Y-27878D01*
X47219Y-27972D01*
X47421Y-28043D01*
X47634Y-28032D01*
X47781Y-27972D01*
X47808Y-27878D01*
X47808Y-28126D01*
X47483Y-28451D01*
X47151Y-28451D01*
X47059Y-28489D01*
X46989Y-28559D01*
X46971Y-28600D01*
X46043Y-28600D01*
X46043Y-27579D01*
X46032Y-27366D01*
X45972Y-27219D01*
X45878Y-27192D01*
X45571Y-27500D01*
X45878Y-27808D01*
X45972Y-27781D01*
X46043Y-27579D01*
X46043Y-28600D01*
X45876Y-28600D01*
X45811Y-28535D01*
X45808Y-28533D01*
X45808Y-27878D01*
X45500Y-27571D01*
X45429Y-27641D01*
X45429Y-27500D01*
X45122Y-27192D01*
X45028Y-27219D01*
X44957Y-27421D01*
X44968Y-27634D01*
X45028Y-27781D01*
X45122Y-27808D01*
X45429Y-27500D01*
X45429Y-27641D01*
X45192Y-27878D01*
X45219Y-27972D01*
X45421Y-28043D01*
X45634Y-28032D01*
X45781Y-27972D01*
X45808Y-27878D01*
X45808Y-28533D01*
X45609Y-28451D01*
X45391Y-28451D01*
X45189Y-28535D01*
X45035Y-28689D01*
X44951Y-28891D01*
X44951Y-29109D01*
X45035Y-29311D01*
X45189Y-29465D01*
X45280Y-29502D01*
X45219Y-29528D01*
X45192Y-29622D01*
X45500Y-29929D01*
X45808Y-29622D01*
X45781Y-29528D01*
X45715Y-29504D01*
X45811Y-29465D01*
X45876Y-29400D01*
X46972Y-29400D01*
X46989Y-29441D01*
X47059Y-29511D01*
X47150Y-29549D01*
X47212Y-29549D01*
X47192Y-29622D01*
X47500Y-29929D01*
X47808Y-29622D01*
X47787Y-29549D01*
X47849Y-29549D01*
X47941Y-29511D01*
X48011Y-29441D01*
X48049Y-29350D01*
X48049Y-29251D01*
X48049Y-29017D01*
X48666Y-28400D01*
X51834Y-28400D01*
X52600Y-29166D01*
X52600Y-38334D01*
X51500Y-39434D01*
X51500Y-35700D01*
X51500Y-35302D01*
X51348Y-34934D01*
X51067Y-34653D01*
X50700Y-34500D01*
X50698Y-34500D01*
X51066Y-34348D01*
X51347Y-34067D01*
X51500Y-33700D01*
X51500Y-33302D01*
X51348Y-32934D01*
X51067Y-32653D01*
X50700Y-32500D01*
X50698Y-32500D01*
X51066Y-32348D01*
X51347Y-32067D01*
X51500Y-31700D01*
X51500Y-31302D01*
X51348Y-30934D01*
X51067Y-30653D01*
X50700Y-30500D01*
X50302Y-30500D01*
X49934Y-30652D01*
X49653Y-30933D01*
X49500Y-31300D01*
X49500Y-31600D01*
X45876Y-31600D01*
X45811Y-31535D01*
X45726Y-31500D01*
X45811Y-31465D01*
X45876Y-31400D01*
X49000Y-31400D01*
X49153Y-31370D01*
X49283Y-31283D01*
X50067Y-30499D01*
X51299Y-30499D01*
X51391Y-30461D01*
X51461Y-30391D01*
X51499Y-30300D01*
X51499Y-30201D01*
X51499Y-28701D01*
X51461Y-28609D01*
X51391Y-28539D01*
X51300Y-28501D01*
X51201Y-28501D01*
X49701Y-28501D01*
X49609Y-28539D01*
X49539Y-28609D01*
X49501Y-28700D01*
X49501Y-28799D01*
X49501Y-29933D01*
X48834Y-30600D01*
X48043Y-30600D01*
X48043Y-30079D01*
X48032Y-29866D01*
X47972Y-29719D01*
X47878Y-29692D01*
X47571Y-30000D01*
X47878Y-30308D01*
X47972Y-30281D01*
X48043Y-30079D01*
X48043Y-30600D01*
X47808Y-30600D01*
X47808Y-30378D01*
X47500Y-30071D01*
X47429Y-30141D01*
X47429Y-30000D01*
X47122Y-29692D01*
X47028Y-29719D01*
X46957Y-29921D01*
X46968Y-30134D01*
X47028Y-30281D01*
X47122Y-30308D01*
X47429Y-30000D01*
X47429Y-30141D01*
X47192Y-30378D01*
X47219Y-30472D01*
X47421Y-30543D01*
X47634Y-30532D01*
X47781Y-30472D01*
X47808Y-30378D01*
X47808Y-30600D01*
X46043Y-30600D01*
X46043Y-30079D01*
X46032Y-29866D01*
X45972Y-29719D01*
X45878Y-29692D01*
X45571Y-30000D01*
X45878Y-30308D01*
X45972Y-30281D01*
X46043Y-30079D01*
X46043Y-30600D01*
X45876Y-30600D01*
X45811Y-30535D01*
X45719Y-30497D01*
X45781Y-30472D01*
X45808Y-30378D01*
X45500Y-30071D01*
X45429Y-30141D01*
X45429Y-30000D01*
X45122Y-29692D01*
X45028Y-29719D01*
X44957Y-29921D01*
X44968Y-30134D01*
X45028Y-30281D01*
X45122Y-30308D01*
X45429Y-30000D01*
X45429Y-30141D01*
X45192Y-30378D01*
X45219Y-30472D01*
X45284Y-30495D01*
X45189Y-30535D01*
X45035Y-30689D01*
X44951Y-30891D01*
X44951Y-31109D01*
X45035Y-31311D01*
X45189Y-31465D01*
X45273Y-31500D01*
X45189Y-31535D01*
X45035Y-31689D01*
X44951Y-31891D01*
X44951Y-32109D01*
X45035Y-32311D01*
X45189Y-32465D01*
X45273Y-32500D01*
X45189Y-32535D01*
X45035Y-32689D01*
X44951Y-32891D01*
X44951Y-33109D01*
X45035Y-33311D01*
X45189Y-33465D01*
X45273Y-33500D01*
X45189Y-33535D01*
X45035Y-33689D01*
X44951Y-33891D01*
X44951Y-34109D01*
X45035Y-34311D01*
X45189Y-34465D01*
X45273Y-34500D01*
X45189Y-34535D01*
X45092Y-34632D01*
X44825Y-34365D01*
X44825Y-27135D01*
X45092Y-26868D01*
X45189Y-26965D01*
X45280Y-27002D01*
X45219Y-27028D01*
X45192Y-27122D01*
X45500Y-27429D01*
X45808Y-27122D01*
X45781Y-27028D01*
X45715Y-27004D01*
X45811Y-26965D01*
X45951Y-26825D01*
X46951Y-26825D01*
X46951Y-26849D01*
X46989Y-26941D01*
X47059Y-27011D01*
X47150Y-27049D01*
X47212Y-27049D01*
X47192Y-27122D01*
X47500Y-27429D01*
X47808Y-27122D01*
X47787Y-27049D01*
X47849Y-27049D01*
X47941Y-27011D01*
X48011Y-26941D01*
X48049Y-26850D01*
X48049Y-26751D01*
X48049Y-26151D01*
X48011Y-26059D01*
X47941Y-25989D01*
X47850Y-25951D01*
X47751Y-25951D01*
X47151Y-25951D01*
X47059Y-25989D01*
X46989Y-26059D01*
X46951Y-26150D01*
X46951Y-26175D01*
X45951Y-26175D01*
X45811Y-26035D01*
X45726Y-26000D01*
X45811Y-25965D01*
X45876Y-25900D01*
X49334Y-25900D01*
X49568Y-26134D01*
X49500Y-26300D01*
X49500Y-26698D01*
X49652Y-27066D01*
X49933Y-27347D01*
X50300Y-27500D01*
X50698Y-27500D01*
X51066Y-27348D01*
X51347Y-27067D01*
X51500Y-26700D01*
X51500Y-26302D01*
X51348Y-25934D01*
X51067Y-25653D01*
X50700Y-25500D01*
X50698Y-25500D01*
X51066Y-25348D01*
X51347Y-25067D01*
X51500Y-24700D01*
X51500Y-24302D01*
X51348Y-23934D01*
X51067Y-23653D01*
X50700Y-23500D01*
X50698Y-23500D01*
X51066Y-23348D01*
X51347Y-23067D01*
X51500Y-22700D01*
X51500Y-22302D01*
X51348Y-21934D01*
X51067Y-21653D01*
X50700Y-21500D01*
X50302Y-21500D01*
X49934Y-21652D01*
X49653Y-21933D01*
X49500Y-22300D01*
X49500Y-22698D01*
X49568Y-22865D01*
X49334Y-23100D01*
X45876Y-23100D01*
X45811Y-23035D01*
X45726Y-23000D01*
X45811Y-22965D01*
X45876Y-22900D01*
X48500Y-22900D01*
X48653Y-22870D01*
X48783Y-22783D01*
X50067Y-21499D01*
X51299Y-21499D01*
X51391Y-21461D01*
X51461Y-21391D01*
X51499Y-21300D01*
X51499Y-21201D01*
X51499Y-19701D01*
X51461Y-19609D01*
X51391Y-19539D01*
X51300Y-19501D01*
X51201Y-19501D01*
X49701Y-19501D01*
X49609Y-19539D01*
X49539Y-19609D01*
X49501Y-19700D01*
X49501Y-19799D01*
X49501Y-20933D01*
X48334Y-22100D01*
X48043Y-22100D01*
X48043Y-21579D01*
X48032Y-21366D01*
X47972Y-21219D01*
X47878Y-21192D01*
X47571Y-21500D01*
X47878Y-21808D01*
X47972Y-21781D01*
X48043Y-21579D01*
X48043Y-22100D01*
X47808Y-22100D01*
X47808Y-21878D01*
X47500Y-21571D01*
X47429Y-21641D01*
X47429Y-21500D01*
X47122Y-21192D01*
X47028Y-21219D01*
X46957Y-21421D01*
X46968Y-21634D01*
X47028Y-21781D01*
X47122Y-21808D01*
X47429Y-21500D01*
X47429Y-21641D01*
X47192Y-21878D01*
X47219Y-21972D01*
X47421Y-22043D01*
X47634Y-22032D01*
X47781Y-21972D01*
X47808Y-21878D01*
X47808Y-22100D01*
X46043Y-22100D01*
X46043Y-21579D01*
X46032Y-21366D01*
X45972Y-21219D01*
X45878Y-21192D01*
X45571Y-21500D01*
X45878Y-21808D01*
X45972Y-21781D01*
X46043Y-21579D01*
X46043Y-22100D01*
X45876Y-22100D01*
X45811Y-22035D01*
X45719Y-21997D01*
X45781Y-21972D01*
X45808Y-21878D01*
X45500Y-21571D01*
X45429Y-21641D01*
X45429Y-21500D01*
X45122Y-21192D01*
X45028Y-21219D01*
X44957Y-21421D01*
X44968Y-21634D01*
X45028Y-21781D01*
X45122Y-21808D01*
X45429Y-21500D01*
X45429Y-21641D01*
X45192Y-21878D01*
X45219Y-21972D01*
X45284Y-21995D01*
X45189Y-22035D01*
X45035Y-22189D01*
X44951Y-22391D01*
X44951Y-22609D01*
X45035Y-22811D01*
X45189Y-22965D01*
X45273Y-23000D01*
X45189Y-23035D01*
X45035Y-23189D01*
X44951Y-23391D01*
X44951Y-23609D01*
X45035Y-23811D01*
X45189Y-23965D01*
X45273Y-24000D01*
X45189Y-24035D01*
X45035Y-24189D01*
X44951Y-24391D01*
X44951Y-24609D01*
X45035Y-24811D01*
X45189Y-24965D01*
X45273Y-25000D01*
X45189Y-25035D01*
X45035Y-25189D01*
X44951Y-25391D01*
X44951Y-25609D01*
X45035Y-25811D01*
X45189Y-25965D01*
X45273Y-26000D01*
X45189Y-26035D01*
X45049Y-26175D01*
X45000Y-26175D01*
X44875Y-26200D01*
X44770Y-26270D01*
X44325Y-26715D01*
X44325Y-19500D01*
X44325Y-18995D01*
X44395Y-19025D01*
X44604Y-19025D01*
X44797Y-18945D01*
X44945Y-18798D01*
X44976Y-18723D01*
X44976Y-18824D01*
X45014Y-18916D01*
X45084Y-18986D01*
X45175Y-19024D01*
X45274Y-19024D01*
X45824Y-19024D01*
X45916Y-18986D01*
X45986Y-18916D01*
X46024Y-18825D01*
X46024Y-18726D01*
X46024Y-18176D01*
X45986Y-18084D01*
X45916Y-18014D01*
X45825Y-17976D01*
X45726Y-17976D01*
X45176Y-17976D01*
X45084Y-18014D01*
X45014Y-18084D01*
X44976Y-18175D01*
X44976Y-18274D01*
X44976Y-18277D01*
X44945Y-18203D01*
X44798Y-18055D01*
X44605Y-17975D01*
X44396Y-17975D01*
X44325Y-18004D01*
X44325Y-18000D01*
X44300Y-17876D01*
X44230Y-17770D01*
X44124Y-17700D01*
X44000Y-17675D01*
X43500Y-17675D01*
X43000Y-17675D01*
X42876Y-17700D01*
X42825Y-17733D01*
X42825Y-17000D01*
X42800Y-16876D01*
X42800Y-16875D01*
X42730Y-16770D01*
X42230Y-16270D01*
X42124Y-16200D01*
X42000Y-16175D01*
X27500Y-16175D01*
X27376Y-16200D01*
X27270Y-16270D01*
X27200Y-16376D01*
X27175Y-16500D01*
X27175Y-21000D01*
X27200Y-21124D01*
X27270Y-21230D01*
X27770Y-21730D01*
X27875Y-21800D01*
X27876Y-21800D01*
X28000Y-21825D01*
X29215Y-21825D01*
X27270Y-23770D01*
X27200Y-23876D01*
X27175Y-24000D01*
X27175Y-28000D01*
X27200Y-28124D01*
X27270Y-28230D01*
X28270Y-29230D01*
X28375Y-29300D01*
X28376Y-29300D01*
X28500Y-29325D01*
X29549Y-29325D01*
X29689Y-29465D01*
X29773Y-29500D01*
X29689Y-29535D01*
X29535Y-29689D01*
X29451Y-29891D01*
X29451Y-30109D01*
X29535Y-30311D01*
X29689Y-30465D01*
X29773Y-30500D01*
X29689Y-30535D01*
X29535Y-30689D01*
X29451Y-30891D01*
X29451Y-31109D01*
X29535Y-31311D01*
X29675Y-31451D01*
X29675Y-31549D01*
X29535Y-31689D01*
X29451Y-31891D01*
X29451Y-32109D01*
X29535Y-32311D01*
X29689Y-32465D01*
X29773Y-32500D01*
X29689Y-32535D01*
X29535Y-32689D01*
X29451Y-32891D01*
X29451Y-33109D01*
X29535Y-33311D01*
X29689Y-33465D01*
X29773Y-33500D01*
X29689Y-33535D01*
X29535Y-33689D01*
X29451Y-33891D01*
X29451Y-34109D01*
X29535Y-34311D01*
X29689Y-34465D01*
X29773Y-34500D01*
X29689Y-34535D01*
X29535Y-34689D01*
X29451Y-34891D01*
X29451Y-35109D01*
X29535Y-35311D01*
X29689Y-35465D01*
X29773Y-35500D01*
X29689Y-35535D01*
X29535Y-35689D01*
X29451Y-35891D01*
X29451Y-36109D01*
X29535Y-36311D01*
X29689Y-36465D01*
X29891Y-36549D01*
X30109Y-36549D01*
X30311Y-36465D01*
X30451Y-36325D01*
X32000Y-36325D01*
X32500Y-36325D01*
X32624Y-36300D01*
X32730Y-36230D01*
X33175Y-35785D01*
X33175Y-35865D01*
X32365Y-36675D01*
X29135Y-36675D01*
X28325Y-35865D01*
X28325Y-32500D01*
X28300Y-32376D01*
X28299Y-32375D01*
X28230Y-32270D01*
X28227Y-32268D01*
X25730Y-29770D01*
X25705Y-29754D01*
X26730Y-28730D01*
X26800Y-28625D01*
X26800Y-28624D01*
X26825Y-28500D01*
X26825Y-20500D01*
X26800Y-20376D01*
X26800Y-20375D01*
X26730Y-20270D01*
X25730Y-19270D01*
X25624Y-19200D01*
X25500Y-19175D01*
X22500Y-19175D01*
X22375Y-19200D01*
X22270Y-19270D01*
X21770Y-19770D01*
X21700Y-19876D01*
X21675Y-20000D01*
X21675Y-21000D01*
X21700Y-21124D01*
X21770Y-21230D01*
X22270Y-21730D01*
X22375Y-21800D01*
X22376Y-21800D01*
X22451Y-21815D01*
X22451Y-21849D01*
X22489Y-21941D01*
X22559Y-22011D01*
X22650Y-22049D01*
X22749Y-22049D01*
X23349Y-22049D01*
X23441Y-22011D01*
X23511Y-21941D01*
X23549Y-21850D01*
X23549Y-21825D01*
X24549Y-21825D01*
X24689Y-21965D01*
X24773Y-22000D01*
X24689Y-22035D01*
X24624Y-22100D01*
X22165Y-22100D01*
X20431Y-20365D01*
X20500Y-20200D01*
X20500Y-19802D01*
X20348Y-19434D01*
X20067Y-19153D01*
X19700Y-19000D01*
X19302Y-19000D01*
X18934Y-19152D01*
X18653Y-19433D01*
X18500Y-19800D01*
X18500Y-20198D01*
X18652Y-20566D01*
X18933Y-20847D01*
X19300Y-21000D01*
X18934Y-21152D01*
X18653Y-21433D01*
X18500Y-21800D01*
X18500Y-22198D01*
X18652Y-22566D01*
X18933Y-22847D01*
X19300Y-23000D01*
X18934Y-23152D01*
X18653Y-23433D01*
X18500Y-23800D01*
X18500Y-24198D01*
X18652Y-24566D01*
X18933Y-24847D01*
X19300Y-25000D01*
X19698Y-25000D01*
X19959Y-24892D01*
X20000Y-24900D01*
X24624Y-24900D01*
X24689Y-24965D01*
X24773Y-25000D01*
X24689Y-25035D01*
X24624Y-25100D01*
X20452Y-25100D01*
X20391Y-25039D01*
X20300Y-25001D01*
X20201Y-25001D01*
X18701Y-25001D01*
X18609Y-25039D01*
X18539Y-25109D01*
X18501Y-25200D01*
X18501Y-25299D01*
X18501Y-26799D01*
X18539Y-26891D01*
X18609Y-26961D01*
X18700Y-26999D01*
X18799Y-26999D01*
X20299Y-26999D01*
X20391Y-26961D01*
X20461Y-26891D01*
X20499Y-26800D01*
X20499Y-26701D01*
X20499Y-25900D01*
X24624Y-25900D01*
X24689Y-25965D01*
X24780Y-26002D01*
X24719Y-26028D01*
X24692Y-26122D01*
X25000Y-26429D01*
X25308Y-26122D01*
X25281Y-26028D01*
X25215Y-26004D01*
X25311Y-25965D01*
X25465Y-25811D01*
X25549Y-25609D01*
X25549Y-25391D01*
X25465Y-25189D01*
X25311Y-25035D01*
X25226Y-25000D01*
X25311Y-24965D01*
X25465Y-24811D01*
X25549Y-24609D01*
X25549Y-24391D01*
X25465Y-24189D01*
X25311Y-24035D01*
X25226Y-24000D01*
X25311Y-23965D01*
X25465Y-23811D01*
X25549Y-23609D01*
X25549Y-23391D01*
X25465Y-23189D01*
X25311Y-23035D01*
X25226Y-23000D01*
X25311Y-22965D01*
X25465Y-22811D01*
X25549Y-22609D01*
X25549Y-22391D01*
X25465Y-22189D01*
X25311Y-22035D01*
X25226Y-22000D01*
X25311Y-21965D01*
X25465Y-21811D01*
X25549Y-21609D01*
X25549Y-21391D01*
X25543Y-21376D01*
X25543Y-20579D01*
X25532Y-20366D01*
X25472Y-20219D01*
X25378Y-20192D01*
X25308Y-20262D01*
X25308Y-20122D01*
X25281Y-20028D01*
X25079Y-19957D01*
X24866Y-19968D01*
X24719Y-20028D01*
X24692Y-20122D01*
X25000Y-20429D01*
X25308Y-20122D01*
X25308Y-20262D01*
X25071Y-20500D01*
X25378Y-20808D01*
X25472Y-20781D01*
X25543Y-20579D01*
X25543Y-21376D01*
X25465Y-21189D01*
X25311Y-21035D01*
X25219Y-20997D01*
X25281Y-20972D01*
X25308Y-20878D01*
X25000Y-20571D01*
X24929Y-20641D01*
X24929Y-20500D01*
X24622Y-20192D01*
X24528Y-20219D01*
X24457Y-20421D01*
X24468Y-20634D01*
X24528Y-20781D01*
X24622Y-20808D01*
X24929Y-20500D01*
X24929Y-20641D01*
X24692Y-20878D01*
X24719Y-20972D01*
X24784Y-20995D01*
X24689Y-21035D01*
X24549Y-21175D01*
X23549Y-21175D01*
X23549Y-21151D01*
X23543Y-21136D01*
X23543Y-20579D01*
X23532Y-20366D01*
X23472Y-20219D01*
X23378Y-20192D01*
X23308Y-20262D01*
X23308Y-20122D01*
X23281Y-20028D01*
X23079Y-19957D01*
X22866Y-19968D01*
X22719Y-20028D01*
X22692Y-20122D01*
X23000Y-20429D01*
X23308Y-20122D01*
X23308Y-20262D01*
X23071Y-20500D01*
X23378Y-20808D01*
X23472Y-20781D01*
X23543Y-20579D01*
X23543Y-21136D01*
X23511Y-21059D01*
X23441Y-20989D01*
X23350Y-20951D01*
X23287Y-20951D01*
X23308Y-20878D01*
X23000Y-20571D01*
X22929Y-20641D01*
X22929Y-20500D01*
X22622Y-20192D01*
X22528Y-20219D01*
X22457Y-20421D01*
X22468Y-20634D01*
X22528Y-20781D01*
X22622Y-20808D01*
X22929Y-20500D01*
X22929Y-20641D01*
X22692Y-20878D01*
X22712Y-20951D01*
X22651Y-20951D01*
X22559Y-20989D01*
X22504Y-21044D01*
X22325Y-20865D01*
X22325Y-20135D01*
X22635Y-19825D01*
X25365Y-19825D01*
X26175Y-20635D01*
X26175Y-28365D01*
X25538Y-29001D01*
X25532Y-28866D01*
X25472Y-28719D01*
X25378Y-28692D01*
X25308Y-28762D01*
X25308Y-28622D01*
X25281Y-28528D01*
X25079Y-28457D01*
X24866Y-28468D01*
X24719Y-28528D01*
X24692Y-28622D01*
X25000Y-28929D01*
X25308Y-28622D01*
X25308Y-28762D01*
X25071Y-29000D01*
X25000Y-29071D01*
X24929Y-29141D01*
X24929Y-29000D01*
X24622Y-28692D01*
X24528Y-28719D01*
X24457Y-28921D01*
X24468Y-29134D01*
X24528Y-29281D01*
X24622Y-29308D01*
X24929Y-29000D01*
X24929Y-29141D01*
X24692Y-29378D01*
X24719Y-29472D01*
X24784Y-29495D01*
X24689Y-29535D01*
X24549Y-29675D01*
X23549Y-29675D01*
X23549Y-29651D01*
X23543Y-29636D01*
X23543Y-29079D01*
X23532Y-28866D01*
X23472Y-28719D01*
X23378Y-28692D01*
X23308Y-28762D01*
X23308Y-28622D01*
X23281Y-28528D01*
X23079Y-28457D01*
X22866Y-28468D01*
X22719Y-28528D01*
X22692Y-28622D01*
X23000Y-28929D01*
X23308Y-28622D01*
X23308Y-28762D01*
X23071Y-29000D01*
X23378Y-29308D01*
X23472Y-29281D01*
X23543Y-29079D01*
X23543Y-29636D01*
X23511Y-29559D01*
X23441Y-29489D01*
X23350Y-29451D01*
X23287Y-29451D01*
X23308Y-29378D01*
X23000Y-29071D01*
X22929Y-29141D01*
X22929Y-29000D01*
X22622Y-28692D01*
X22528Y-28719D01*
X22457Y-28921D01*
X22468Y-29134D01*
X22528Y-29281D01*
X22622Y-29308D01*
X22929Y-29000D01*
X22929Y-29141D01*
X22692Y-29378D01*
X22712Y-29451D01*
X22651Y-29451D01*
X22559Y-29489D01*
X22489Y-29559D01*
X22451Y-29650D01*
X22451Y-29749D01*
X22451Y-30349D01*
X22489Y-30441D01*
X22559Y-30511D01*
X22650Y-30549D01*
X22749Y-30549D01*
X23349Y-30549D01*
X23441Y-30511D01*
X23511Y-30441D01*
X23549Y-30350D01*
X23549Y-30325D01*
X24549Y-30325D01*
X24689Y-30465D01*
X24773Y-30500D01*
X24689Y-30535D01*
X24624Y-30600D01*
X21166Y-30600D01*
X20431Y-29865D01*
X20500Y-29700D01*
X20500Y-29302D01*
X20348Y-28934D01*
X20067Y-28653D01*
X19700Y-28500D01*
X19302Y-28500D01*
X18934Y-28652D01*
X18653Y-28933D01*
X18500Y-29300D01*
X18500Y-29698D01*
X18652Y-30066D01*
X18933Y-30347D01*
X19300Y-30500D01*
X18934Y-30652D01*
X18653Y-30933D01*
X18500Y-31300D01*
X18500Y-31698D01*
X18652Y-32066D01*
X18933Y-32347D01*
X19300Y-32500D01*
X18934Y-32652D01*
X18653Y-32933D01*
X18500Y-33300D01*
X18500Y-33698D01*
X18652Y-34066D01*
X18933Y-34347D01*
X19300Y-34500D01*
X19698Y-34500D01*
X20066Y-34348D01*
X20347Y-34067D01*
X20500Y-33700D01*
X20500Y-33400D01*
X24624Y-33400D01*
X24689Y-33465D01*
X24773Y-33500D01*
X24689Y-33535D01*
X24624Y-33600D01*
X21000Y-33600D01*
X20846Y-33630D01*
X20717Y-33717D01*
X19933Y-34501D01*
X18701Y-34501D01*
X18609Y-34539D01*
X18539Y-34609D01*
X18501Y-34700D01*
X18501Y-34799D01*
X18501Y-36299D01*
X18539Y-36391D01*
X18609Y-36461D01*
X18700Y-36499D01*
X18799Y-36499D01*
X20299Y-36499D01*
X20391Y-36461D01*
X20461Y-36391D01*
X20499Y-36300D01*
X20499Y-36201D01*
X20499Y-35067D01*
X21166Y-34400D01*
X24624Y-34400D01*
X24689Y-34465D01*
X24780Y-34502D01*
X24719Y-34528D01*
X24692Y-34622D01*
X25000Y-34929D01*
X25308Y-34622D01*
X25281Y-34528D01*
X25215Y-34504D01*
X25311Y-34465D01*
X25465Y-34311D01*
X25549Y-34109D01*
X25549Y-33891D01*
X25465Y-33689D01*
X25311Y-33535D01*
X25226Y-33500D01*
X25311Y-33465D01*
X25465Y-33311D01*
X25549Y-33109D01*
X25549Y-32891D01*
X25465Y-32689D01*
X25311Y-32535D01*
X25226Y-32500D01*
X25311Y-32465D01*
X25465Y-32311D01*
X25549Y-32109D01*
X25549Y-31891D01*
X25465Y-31689D01*
X25311Y-31535D01*
X25226Y-31500D01*
X25311Y-31465D01*
X25465Y-31311D01*
X25549Y-31109D01*
X25549Y-30891D01*
X25465Y-30689D01*
X25311Y-30535D01*
X25226Y-30500D01*
X25311Y-30465D01*
X25408Y-30367D01*
X27675Y-32634D01*
X27675Y-36000D01*
X27700Y-36124D01*
X27770Y-36230D01*
X28770Y-37230D01*
X28875Y-37300D01*
X28876Y-37300D01*
X29000Y-37325D01*
X32500Y-37325D01*
X32624Y-37300D01*
X32730Y-37230D01*
X33730Y-36230D01*
X33800Y-36125D01*
X33800Y-36124D01*
X33825Y-36000D01*
X33825Y-35635D01*
X34230Y-35230D01*
X34300Y-35125D01*
X34300Y-35124D01*
X34325Y-35000D01*
X34325Y-33635D01*
X34483Y-33476D01*
X34492Y-33630D01*
X34548Y-33767D01*
X34639Y-33790D01*
X34894Y-33535D01*
X34929Y-33500D01*
X35000Y-33429D01*
X35035Y-33394D01*
X35290Y-33139D01*
X35267Y-33048D01*
X35074Y-32981D01*
X34870Y-32992D01*
X34822Y-33011D01*
X34825Y-33000D01*
X34825Y-27000D01*
X34800Y-26876D01*
X34800Y-26875D01*
X34730Y-26770D01*
X34230Y-26270D01*
X34124Y-26200D01*
X34000Y-26175D01*
X33049Y-26175D01*
X33049Y-26151D01*
X33011Y-26059D01*
X32941Y-25989D01*
X32850Y-25951D01*
X32825Y-25951D01*
X32965Y-25811D01*
X33049Y-25609D01*
X33049Y-25391D01*
X32965Y-25189D01*
X32825Y-25049D01*
X32825Y-24951D01*
X32951Y-24825D01*
X37000Y-24825D01*
X37124Y-24800D01*
X37230Y-24730D01*
X37675Y-24285D01*
X37675Y-29451D01*
X37651Y-29451D01*
X37559Y-29489D01*
X37519Y-29529D01*
X37519Y-28074D01*
X37508Y-27870D01*
X37452Y-27733D01*
X37361Y-27710D01*
X37290Y-27781D01*
X37290Y-27639D01*
X37267Y-27548D01*
X37074Y-27481D01*
X36870Y-27492D01*
X36733Y-27548D01*
X36710Y-27639D01*
X37000Y-27929D01*
X37290Y-27639D01*
X37290Y-27781D01*
X37071Y-28000D01*
X37361Y-28290D01*
X37452Y-28267D01*
X37519Y-28074D01*
X37519Y-29529D01*
X37489Y-29559D01*
X37451Y-29650D01*
X37451Y-29749D01*
X37451Y-30349D01*
X37489Y-30441D01*
X37559Y-30511D01*
X37650Y-30549D01*
X37675Y-30549D01*
X37535Y-30689D01*
X37451Y-30891D01*
X37451Y-31109D01*
X37535Y-31311D01*
X37675Y-31451D01*
X37675Y-31549D01*
X37535Y-31689D01*
X37451Y-31891D01*
X37451Y-32109D01*
X37535Y-32311D01*
X37675Y-32451D01*
X37675Y-33000D01*
X37700Y-33124D01*
X37710Y-33139D01*
X37770Y-33230D01*
X37861Y-33290D01*
X37965Y-33394D01*
X38000Y-33429D01*
X38071Y-33500D01*
X38000Y-33571D01*
X37965Y-33606D01*
X37929Y-33642D01*
X37929Y-33500D01*
X37639Y-33210D01*
X37548Y-33233D01*
X37481Y-33426D01*
X37492Y-33630D01*
X37548Y-33767D01*
X37639Y-33790D01*
X37929Y-33500D01*
X37929Y-33642D01*
X37710Y-33861D01*
X37733Y-33952D01*
X37926Y-34019D01*
X38130Y-34008D01*
X38175Y-33989D01*
X38175Y-34000D01*
X38175Y-35000D01*
X38175Y-35004D01*
X38105Y-34975D01*
X37896Y-34975D01*
X37703Y-35055D01*
X37582Y-35175D01*
X37290Y-35175D01*
X37290Y-28361D01*
X37000Y-28071D01*
X36929Y-28142D01*
X36929Y-28000D01*
X36639Y-27710D01*
X36548Y-27733D01*
X36481Y-27926D01*
X36492Y-28130D01*
X36548Y-28267D01*
X36639Y-28290D01*
X36929Y-28000D01*
X36929Y-28142D01*
X36710Y-28361D01*
X36733Y-28452D01*
X36926Y-28519D01*
X37130Y-28508D01*
X37267Y-28452D01*
X37290Y-28361D01*
X37290Y-35175D01*
X35519Y-35175D01*
X35519Y-33574D01*
X35508Y-33370D01*
X35452Y-33233D01*
X35361Y-33210D01*
X35071Y-33500D01*
X35361Y-33790D01*
X35452Y-33767D01*
X35519Y-33574D01*
X35519Y-35175D01*
X35417Y-35175D01*
X35298Y-35055D01*
X35290Y-35051D01*
X35290Y-33861D01*
X35000Y-33571D01*
X34710Y-33861D01*
X34733Y-33952D01*
X34926Y-34019D01*
X35130Y-34008D01*
X35267Y-33952D01*
X35290Y-33861D01*
X35290Y-35051D01*
X35105Y-34975D01*
X34896Y-34975D01*
X34703Y-35055D01*
X34555Y-35202D01*
X34475Y-35395D01*
X34475Y-35604D01*
X34555Y-35797D01*
X34702Y-35945D01*
X34895Y-36025D01*
X35104Y-36025D01*
X35297Y-35945D01*
X35417Y-35825D01*
X37582Y-35825D01*
X37702Y-35945D01*
X37895Y-36025D01*
X38104Y-36025D01*
X38297Y-35945D01*
X38391Y-35851D01*
X39975Y-37435D01*
X39975Y-37604D01*
X40055Y-37797D01*
X40202Y-37945D01*
X40395Y-38025D01*
X40604Y-38025D01*
X40797Y-37945D01*
X40945Y-37798D01*
X41000Y-37664D01*
X41055Y-37797D01*
X41202Y-37945D01*
X41395Y-38025D01*
X41604Y-38025D01*
X41797Y-37945D01*
X41945Y-37798D01*
X42000Y-37664D01*
X42055Y-37797D01*
X42202Y-37945D01*
X42395Y-38025D01*
X42604Y-38025D01*
X42797Y-37945D01*
X42917Y-37825D01*
X43082Y-37825D01*
X43202Y-37945D01*
X43395Y-38025D01*
X43604Y-38025D01*
X43797Y-37945D01*
X43945Y-37798D01*
X44003Y-37657D01*
X44048Y-37767D01*
X44139Y-37790D01*
X44429Y-37500D01*
X44139Y-37210D01*
X44048Y-37233D01*
X44006Y-37351D01*
X43945Y-37203D01*
X43825Y-37082D01*
X43825Y-36635D01*
X45071Y-35389D01*
X45092Y-35368D01*
X45189Y-35465D01*
X45280Y-35502D01*
X45219Y-35528D01*
X45192Y-35622D01*
X45500Y-35929D01*
X45808Y-35622D01*
X45781Y-35528D01*
X45715Y-35504D01*
X45811Y-35465D01*
X45951Y-35325D01*
X46951Y-35325D01*
X46951Y-35349D01*
X46989Y-35441D01*
X47059Y-35511D01*
X47150Y-35549D01*
X47212Y-35549D01*
X47192Y-35622D01*
X47500Y-35929D01*
X47808Y-35622D01*
X47787Y-35549D01*
X47849Y-35549D01*
X47941Y-35511D01*
X48011Y-35441D01*
X48049Y-35350D01*
X48049Y-35251D01*
X48049Y-34651D01*
X48011Y-34559D01*
X47941Y-34489D01*
X47850Y-34451D01*
X47751Y-34451D01*
X47151Y-34451D01*
X47059Y-34489D01*
X46989Y-34559D01*
X46951Y-34650D01*
X46951Y-34675D01*
X45951Y-34675D01*
X45811Y-34535D01*
X45726Y-34500D01*
X45811Y-34465D01*
X45876Y-34400D01*
X48834Y-34400D01*
X49568Y-35134D01*
X49500Y-35300D01*
X49500Y-35698D01*
X49652Y-36066D01*
X49933Y-36347D01*
X50300Y-36500D01*
X50698Y-36500D01*
X51066Y-36348D01*
X51347Y-36067D01*
X51500Y-35700D01*
X51500Y-39434D01*
X50834Y-40100D01*
X48043Y-40100D01*
X48043Y-36079D01*
X48032Y-35866D01*
X47972Y-35719D01*
X47878Y-35692D01*
X47571Y-36000D01*
X47878Y-36308D01*
X47972Y-36281D01*
X48043Y-36079D01*
X48043Y-40100D01*
X47808Y-40100D01*
X47808Y-36378D01*
X47500Y-36071D01*
X47429Y-36141D01*
X47429Y-36000D01*
X47122Y-35692D01*
X47028Y-35719D01*
X46957Y-35921D01*
X46968Y-36134D01*
X47028Y-36281D01*
X47122Y-36308D01*
X47429Y-36000D01*
X47429Y-36141D01*
X47192Y-36378D01*
X47219Y-36472D01*
X47421Y-36543D01*
X47634Y-36532D01*
X47781Y-36472D01*
X47808Y-36378D01*
X47808Y-40100D01*
X46043Y-40100D01*
X46043Y-36079D01*
X46032Y-35866D01*
X45972Y-35719D01*
X45878Y-35692D01*
X45571Y-36000D01*
X45878Y-36308D01*
X45972Y-36281D01*
X46043Y-36079D01*
X46043Y-40100D01*
X46024Y-40100D01*
X46024Y-37825D01*
X46024Y-37726D01*
X46024Y-37176D01*
X45986Y-37084D01*
X45916Y-37014D01*
X45825Y-36976D01*
X45808Y-36976D01*
X45808Y-36378D01*
X45500Y-36071D01*
X45429Y-36141D01*
X45429Y-36000D01*
X45122Y-35692D01*
X45071Y-35706D01*
X45028Y-35719D01*
X44957Y-35921D01*
X44968Y-36134D01*
X45028Y-36281D01*
X45071Y-36293D01*
X45122Y-36308D01*
X45429Y-36000D01*
X45429Y-36141D01*
X45192Y-36378D01*
X45219Y-36472D01*
X45421Y-36543D01*
X45634Y-36532D01*
X45781Y-36472D01*
X45808Y-36378D01*
X45808Y-36976D01*
X45726Y-36976D01*
X45176Y-36976D01*
X45084Y-37014D01*
X45071Y-37027D01*
X45014Y-37084D01*
X44976Y-37175D01*
X44976Y-37274D01*
X44976Y-37291D01*
X44952Y-37233D01*
X44861Y-37210D01*
X44790Y-37281D01*
X44790Y-37139D01*
X44767Y-37048D01*
X44574Y-36981D01*
X44370Y-36992D01*
X44233Y-37048D01*
X44210Y-37139D01*
X44500Y-37429D01*
X44790Y-37139D01*
X44790Y-37281D01*
X44571Y-37500D01*
X44861Y-37790D01*
X44952Y-37767D01*
X44976Y-37697D01*
X44976Y-37824D01*
X45014Y-37916D01*
X45071Y-37973D01*
X45084Y-37986D01*
X45175Y-38024D01*
X45274Y-38024D01*
X45824Y-38024D01*
X45916Y-37986D01*
X45986Y-37916D01*
X46024Y-37825D01*
X46024Y-40100D01*
X45071Y-40100D01*
X44790Y-40100D01*
X44790Y-37861D01*
X44500Y-37571D01*
X44210Y-37861D01*
X44233Y-37952D01*
X44426Y-38019D01*
X44630Y-38008D01*
X44767Y-37952D01*
X44790Y-37861D01*
X44790Y-40100D01*
X39024Y-40100D01*
X39024Y-37825D01*
X39024Y-37726D01*
X39024Y-37176D01*
X38986Y-37084D01*
X38916Y-37014D01*
X38825Y-36976D01*
X38726Y-36976D01*
X38176Y-36976D01*
X38084Y-37014D01*
X38014Y-37084D01*
X37976Y-37175D01*
X37976Y-37274D01*
X37976Y-37277D01*
X37945Y-37203D01*
X37798Y-37055D01*
X37605Y-36975D01*
X37396Y-36975D01*
X37203Y-37055D01*
X37055Y-37202D01*
X36999Y-37335D01*
X36945Y-37203D01*
X36798Y-37055D01*
X36605Y-36975D01*
X36396Y-36975D01*
X36203Y-37055D01*
X36055Y-37202D01*
X35999Y-37335D01*
X35945Y-37203D01*
X35798Y-37055D01*
X35605Y-36975D01*
X35396Y-36975D01*
X35203Y-37055D01*
X35055Y-37202D01*
X34999Y-37335D01*
X34945Y-37203D01*
X34798Y-37055D01*
X34605Y-36975D01*
X34396Y-36975D01*
X34203Y-37055D01*
X34055Y-37202D01*
X33999Y-37335D01*
X33945Y-37203D01*
X33798Y-37055D01*
X33605Y-36975D01*
X33396Y-36975D01*
X33203Y-37055D01*
X33055Y-37202D01*
X32975Y-37395D01*
X32975Y-37604D01*
X33055Y-37797D01*
X33202Y-37945D01*
X33395Y-38025D01*
X33604Y-38025D01*
X33797Y-37945D01*
X33945Y-37798D01*
X34000Y-37664D01*
X34055Y-37797D01*
X34202Y-37945D01*
X34395Y-38025D01*
X34604Y-38025D01*
X34797Y-37945D01*
X34945Y-37798D01*
X35000Y-37664D01*
X35055Y-37797D01*
X35202Y-37945D01*
X35395Y-38025D01*
X35604Y-38025D01*
X35797Y-37945D01*
X35945Y-37798D01*
X36000Y-37664D01*
X36055Y-37797D01*
X36202Y-37945D01*
X36395Y-38025D01*
X36604Y-38025D01*
X36797Y-37945D01*
X36945Y-37798D01*
X37000Y-37664D01*
X37055Y-37797D01*
X37202Y-37945D01*
X37395Y-38025D01*
X37604Y-38025D01*
X37797Y-37945D01*
X37945Y-37798D01*
X37976Y-37723D01*
X37976Y-37824D01*
X38014Y-37916D01*
X38084Y-37986D01*
X38175Y-38024D01*
X38274Y-38024D01*
X38824Y-38024D01*
X38916Y-37986D01*
X38986Y-37916D01*
X39024Y-37825D01*
X39024Y-40100D01*
X22400Y-40100D01*
X22400Y-38000D01*
X22400Y-37166D01*
X23017Y-36549D01*
X23349Y-36549D01*
X23441Y-36511D01*
X23511Y-36441D01*
X23528Y-36400D01*
X24624Y-36400D01*
X24689Y-36465D01*
X24891Y-36549D01*
X25109Y-36549D01*
X25311Y-36465D01*
X25465Y-36311D01*
X25549Y-36109D01*
X25549Y-35891D01*
X25543Y-35876D01*
X25543Y-35079D01*
X25532Y-34866D01*
X25472Y-34719D01*
X25378Y-34692D01*
X25071Y-35000D01*
X25378Y-35308D01*
X25472Y-35281D01*
X25543Y-35079D01*
X25543Y-35876D01*
X25465Y-35689D01*
X25311Y-35535D01*
X25219Y-35497D01*
X25281Y-35472D01*
X25308Y-35378D01*
X25000Y-35071D01*
X24929Y-35141D01*
X24929Y-35000D01*
X24622Y-34692D01*
X24528Y-34719D01*
X24457Y-34921D01*
X24468Y-35134D01*
X24528Y-35281D01*
X24622Y-35308D01*
X24929Y-35000D01*
X24929Y-35141D01*
X24692Y-35378D01*
X24719Y-35472D01*
X24784Y-35495D01*
X24689Y-35535D01*
X24624Y-35600D01*
X23543Y-35600D01*
X23543Y-35079D01*
X23532Y-34866D01*
X23472Y-34719D01*
X23378Y-34692D01*
X23308Y-34762D01*
X23308Y-34622D01*
X23281Y-34528D01*
X23079Y-34457D01*
X22866Y-34468D01*
X22719Y-34528D01*
X22692Y-34622D01*
X23000Y-34929D01*
X23308Y-34622D01*
X23308Y-34762D01*
X23071Y-35000D01*
X23378Y-35308D01*
X23472Y-35281D01*
X23543Y-35079D01*
X23543Y-35600D01*
X23527Y-35600D01*
X23511Y-35559D01*
X23441Y-35489D01*
X23350Y-35451D01*
X23287Y-35451D01*
X23308Y-35378D01*
X23000Y-35071D01*
X22929Y-35141D01*
X22929Y-35000D01*
X22622Y-34692D01*
X22528Y-34719D01*
X22457Y-34921D01*
X22468Y-35134D01*
X22528Y-35281D01*
X22622Y-35308D01*
X22929Y-35000D01*
X22929Y-35141D01*
X22692Y-35378D01*
X22712Y-35451D01*
X22651Y-35451D01*
X22559Y-35489D01*
X22489Y-35559D01*
X22451Y-35650D01*
X22451Y-35749D01*
X22451Y-35983D01*
X21834Y-36600D01*
X21500Y-36600D01*
X21346Y-36630D01*
X21217Y-36717D01*
X19643Y-38291D01*
X19641Y-38289D01*
X19550Y-38251D01*
X19451Y-38251D01*
X18451Y-38251D01*
X18359Y-38289D01*
X18289Y-38359D01*
X18251Y-38450D01*
X18251Y-38549D01*
X18251Y-39549D01*
X18289Y-39641D01*
X18359Y-39711D01*
X18450Y-39749D01*
X18549Y-39749D01*
X19549Y-39749D01*
X19641Y-39711D01*
X19711Y-39641D01*
X19749Y-39550D01*
X19749Y-39451D01*
X19749Y-39305D01*
X19783Y-39283D01*
X20303Y-38762D01*
X20261Y-38873D01*
X20269Y-39165D01*
X20366Y-39400D01*
X20480Y-39450D01*
X20894Y-39035D01*
X20929Y-39000D01*
X21000Y-38929D01*
X21035Y-38894D01*
X21450Y-38480D01*
X21400Y-38366D01*
X21127Y-38261D01*
X20835Y-38269D01*
X20770Y-38295D01*
X21600Y-37466D01*
X21600Y-38000D01*
X21600Y-38585D01*
X21520Y-38550D01*
X21071Y-39000D01*
X21520Y-39450D01*
X21600Y-39414D01*
X21600Y-40100D01*
X21450Y-40100D01*
X21450Y-39520D01*
X21000Y-39071D01*
X20550Y-39520D01*
X20600Y-39634D01*
X20873Y-39739D01*
X21165Y-39731D01*
X21400Y-39634D01*
X21450Y-39520D01*
X21450Y-40100D01*
X17900Y-40100D01*
X17900Y-34000D01*
X17900Y-28166D01*
X18166Y-27900D01*
X22472Y-27900D01*
X22489Y-27941D01*
X22559Y-28011D01*
X22650Y-28049D01*
X22749Y-28049D01*
X23349Y-28049D01*
X23441Y-28011D01*
X23511Y-27941D01*
X23528Y-27900D01*
X24624Y-27900D01*
X24689Y-27965D01*
X24891Y-28049D01*
X25109Y-28049D01*
X25311Y-27965D01*
X25465Y-27811D01*
X25549Y-27609D01*
X25549Y-27391D01*
X25543Y-27376D01*
X25543Y-26579D01*
X25532Y-26366D01*
X25472Y-26219D01*
X25378Y-26192D01*
X25071Y-26500D01*
X25378Y-26808D01*
X25472Y-26781D01*
X25543Y-26579D01*
X25543Y-27376D01*
X25465Y-27189D01*
X25311Y-27035D01*
X25219Y-26997D01*
X25281Y-26972D01*
X25308Y-26878D01*
X25000Y-26571D01*
X24929Y-26641D01*
X24929Y-26500D01*
X24622Y-26192D01*
X24528Y-26219D01*
X24457Y-26421D01*
X24468Y-26634D01*
X24528Y-26781D01*
X24622Y-26808D01*
X24929Y-26500D01*
X24929Y-26641D01*
X24692Y-26878D01*
X24719Y-26972D01*
X24784Y-26995D01*
X24689Y-27035D01*
X24624Y-27100D01*
X23543Y-27100D01*
X23543Y-26579D01*
X23532Y-26366D01*
X23472Y-26219D01*
X23378Y-26192D01*
X23308Y-26262D01*
X23308Y-26122D01*
X23281Y-26028D01*
X23079Y-25957D01*
X22866Y-25968D01*
X22719Y-26028D01*
X22692Y-26122D01*
X23000Y-26429D01*
X23308Y-26122D01*
X23308Y-26262D01*
X23071Y-26500D01*
X23378Y-26808D01*
X23472Y-26781D01*
X23543Y-26579D01*
X23543Y-27100D01*
X23527Y-27100D01*
X23511Y-27059D01*
X23441Y-26989D01*
X23350Y-26951D01*
X23287Y-26951D01*
X23308Y-26878D01*
X23000Y-26571D01*
X22929Y-26641D01*
X22929Y-26500D01*
X22622Y-26192D01*
X22528Y-26219D01*
X22457Y-26421D01*
X22468Y-26634D01*
X22528Y-26781D01*
X22622Y-26808D01*
X22929Y-26500D01*
X22929Y-26641D01*
X22692Y-26878D01*
X22712Y-26951D01*
X22651Y-26951D01*
X22559Y-26989D01*
X22489Y-27059D01*
X22471Y-27100D01*
X18000Y-27100D01*
X17846Y-27130D01*
X17717Y-27217D01*
X17217Y-27717D01*
X17130Y-27847D01*
X17100Y-28000D01*
X17100Y-34000D01*
X17100Y-40500D01*
X17130Y-40653D01*
X17217Y-40783D01*
X17347Y-40870D01*
X17500Y-40900D01*
X22000Y-40900D01*
X45071Y-40900D01*
X51000Y-40900D01*
X51153Y-40870D01*
X51283Y-40783D01*
X53283Y-38783D01*
X53370Y-38654D01*
X53370Y-38653D01*
X53400Y-38500D01*
X53400Y-41450D01*
X45071Y-41450D01*
X40500Y-41450D01*
X16050Y-41450D01*
X16050Y-16050D01*
X54450Y-16050D01*
X54450Y-41450D01*
X54450Y-41450D01*
G37*
G54D21*
X54450Y-41450D02*
X53400Y-41450D01*
X53400Y-38500D01*
X53400Y-29000D01*
X53400Y-20500D01*
X53370Y-20347D01*
X53370Y-20346D01*
X53283Y-20217D01*
X51783Y-18717D01*
X51653Y-18630D01*
X51500Y-18600D01*
X48500Y-18600D01*
X48346Y-18630D01*
X48217Y-18717D01*
X47217Y-19717D01*
X47130Y-19847D01*
X47105Y-19969D01*
X47059Y-19989D01*
X46989Y-20059D01*
X46971Y-20100D01*
X45876Y-20100D01*
X45811Y-20035D01*
X45609Y-19951D01*
X45391Y-19951D01*
X45189Y-20035D01*
X45035Y-20189D01*
X44951Y-20391D01*
X44951Y-20609D01*
X45035Y-20811D01*
X45189Y-20965D01*
X45280Y-21002D01*
X45219Y-21028D01*
X45192Y-21122D01*
X45500Y-21429D01*
X45808Y-21122D01*
X45781Y-21028D01*
X45715Y-21004D01*
X45811Y-20965D01*
X45876Y-20900D01*
X46972Y-20900D01*
X46989Y-20941D01*
X47059Y-21011D01*
X47150Y-21049D01*
X47212Y-21049D01*
X47192Y-21122D01*
X47500Y-21429D01*
X47808Y-21122D01*
X47787Y-21049D01*
X47849Y-21049D01*
X47941Y-21011D01*
X48011Y-20941D01*
X48049Y-20850D01*
X48049Y-20751D01*
X48049Y-20151D01*
X48011Y-20059D01*
X48009Y-20057D01*
X48666Y-19400D01*
X51334Y-19400D01*
X52600Y-20666D01*
X52600Y-28034D01*
X52283Y-27717D01*
X52153Y-27630D01*
X52000Y-27600D01*
X48500Y-27600D01*
X48346Y-27630D01*
X48217Y-27717D01*
X48043Y-27891D01*
X48043Y-27579D01*
X48032Y-27366D01*
X47972Y-27219D01*
X47878Y-27192D01*
X47571Y-27500D01*
X47878Y-27808D01*
X47972Y-27781D01*
X48043Y-27579D01*
X48043Y-27891D01*
X47808Y-28126D01*
X47808Y-27878D01*
X47500Y-27571D01*
X47429Y-27641D01*
X47429Y-27500D01*
X47122Y-27192D01*
X47028Y-27219D01*
X46957Y-27421D01*
X46968Y-27634D01*
X47028Y-27781D01*
X47122Y-27808D01*
X47429Y-27500D01*
X47429Y-27641D01*
X47192Y-27878D01*
X47219Y-27972D01*
X47421Y-28043D01*
X47634Y-28032D01*
X47781Y-27972D01*
X47808Y-27878D01*
X47808Y-28126D01*
X47483Y-28451D01*
X47151Y-28451D01*
X47059Y-28489D01*
X46989Y-28559D01*
X46971Y-28600D01*
X46043Y-28600D01*
X46043Y-27579D01*
X46032Y-27366D01*
X45972Y-27219D01*
X45878Y-27192D01*
X45571Y-27500D01*
X45878Y-27808D01*
X45972Y-27781D01*
X46043Y-27579D01*
X46043Y-28600D01*
X45876Y-28600D01*
X45811Y-28535D01*
X45808Y-28533D01*
X45808Y-27878D01*
X45500Y-27571D01*
X45429Y-27641D01*
X45429Y-27500D01*
X45122Y-27192D01*
X45028Y-27219D01*
X44957Y-27421D01*
X44968Y-27634D01*
X45028Y-27781D01*
X45122Y-27808D01*
X45429Y-27500D01*
X45429Y-27641D01*
X45192Y-27878D01*
X45219Y-27972D01*
X45421Y-28043D01*
X45634Y-28032D01*
X45781Y-27972D01*
X45808Y-27878D01*
X45808Y-28533D01*
X45609Y-28451D01*
X45391Y-28451D01*
X45189Y-28535D01*
X45035Y-28689D01*
X44951Y-28891D01*
X44951Y-29109D01*
X45035Y-29311D01*
X45189Y-29465D01*
X45280Y-29502D01*
X45219Y-29528D01*
X45192Y-29622D01*
X45500Y-29929D01*
X45808Y-29622D01*
X45781Y-29528D01*
X45715Y-29504D01*
X45811Y-29465D01*
X45876Y-29400D01*
X46972Y-29400D01*
X46989Y-29441D01*
X47059Y-29511D01*
X47150Y-29549D01*
X47212Y-29549D01*
X47192Y-29622D01*
X47500Y-29929D01*
X47808Y-29622D01*
X47787Y-29549D01*
X47849Y-29549D01*
X47941Y-29511D01*
X48011Y-29441D01*
X48049Y-29350D01*
X48049Y-29251D01*
X48049Y-29017D01*
X48666Y-28400D01*
X51834Y-28400D01*
X52600Y-29166D01*
X52600Y-38334D01*
X51500Y-39434D01*
X51500Y-35700D01*
X51500Y-35302D01*
X51348Y-34934D01*
X51067Y-34653D01*
X50700Y-34500D01*
X50698Y-34500D01*
X51066Y-34348D01*
X51347Y-34067D01*
X51500Y-33700D01*
X51500Y-33302D01*
X51348Y-32934D01*
X51067Y-32653D01*
X50700Y-32500D01*
X50698Y-32500D01*
X51066Y-32348D01*
X51347Y-32067D01*
X51500Y-31700D01*
X51500Y-31302D01*
X51348Y-30934D01*
X51067Y-30653D01*
X50700Y-30500D01*
X50302Y-30500D01*
X49934Y-30652D01*
X49653Y-30933D01*
X49500Y-31300D01*
X49500Y-31600D01*
X45876Y-31600D01*
X45811Y-31535D01*
X45726Y-31500D01*
X45811Y-31465D01*
X45876Y-31400D01*
X49000Y-31400D01*
X49153Y-31370D01*
X49283Y-31283D01*
X50067Y-30499D01*
X51299Y-30499D01*
X51391Y-30461D01*
X51461Y-30391D01*
X51499Y-30300D01*
X51499Y-30201D01*
X51499Y-28701D01*
X51461Y-28609D01*
X51391Y-28539D01*
X51300Y-28501D01*
X51201Y-28501D01*
X49701Y-28501D01*
X49609Y-28539D01*
X49539Y-28609D01*
X49501Y-28700D01*
X49501Y-28799D01*
X49501Y-29933D01*
X48834Y-30600D01*
X48043Y-30600D01*
X48043Y-30079D01*
X48032Y-29866D01*
X47972Y-29719D01*
X47878Y-29692D01*
X47571Y-30000D01*
X47878Y-30308D01*
X47972Y-30281D01*
X48043Y-30079D01*
X48043Y-30600D01*
X47808Y-30600D01*
X47808Y-30378D01*
X47500Y-30071D01*
X47429Y-30141D01*
X47429Y-30000D01*
X47122Y-29692D01*
X47028Y-29719D01*
X46957Y-29921D01*
X46968Y-30134D01*
X47028Y-30281D01*
X47122Y-30308D01*
X47429Y-30000D01*
X47429Y-30141D01*
X47192Y-30378D01*
X47219Y-30472D01*
X47421Y-30543D01*
X47634Y-30532D01*
X47781Y-30472D01*
X47808Y-30378D01*
X47808Y-30600D01*
X46043Y-30600D01*
X46043Y-30079D01*
X46032Y-29866D01*
X45972Y-29719D01*
X45878Y-29692D01*
X45571Y-30000D01*
X45878Y-30308D01*
X45972Y-30281D01*
X46043Y-30079D01*
X46043Y-30600D01*
X45876Y-30600D01*
X45811Y-30535D01*
X45719Y-30497D01*
X45781Y-30472D01*
X45808Y-30378D01*
X45500Y-30071D01*
X45429Y-30141D01*
X45429Y-30000D01*
X45122Y-29692D01*
X45028Y-29719D01*
X44957Y-29921D01*
X44968Y-30134D01*
X45028Y-30281D01*
X45122Y-30308D01*
X45429Y-30000D01*
X45429Y-30141D01*
X45192Y-30378D01*
X45219Y-30472D01*
X45284Y-30495D01*
X45189Y-30535D01*
X45035Y-30689D01*
X44951Y-30891D01*
X44951Y-31109D01*
X45035Y-31311D01*
X45189Y-31465D01*
X45273Y-31500D01*
X45189Y-31535D01*
X45035Y-31689D01*
X44951Y-31891D01*
X44951Y-32109D01*
X45035Y-32311D01*
X45189Y-32465D01*
X45273Y-32500D01*
X45189Y-32535D01*
X45035Y-32689D01*
X44951Y-32891D01*
X44951Y-33109D01*
X45035Y-33311D01*
X45189Y-33465D01*
X45273Y-33500D01*
X45189Y-33535D01*
X45035Y-33689D01*
X44951Y-33891D01*
X44951Y-34109D01*
X45035Y-34311D01*
X45189Y-34465D01*
X45273Y-34500D01*
X45189Y-34535D01*
X45092Y-34632D01*
X44825Y-34365D01*
X44825Y-27135D01*
X45092Y-26868D01*
X45189Y-26965D01*
X45280Y-27002D01*
X45219Y-27028D01*
X45192Y-27122D01*
X45500Y-27429D01*
X45808Y-27122D01*
X45781Y-27028D01*
X45715Y-27004D01*
X45811Y-26965D01*
X45951Y-26825D01*
X46951Y-26825D01*
X46951Y-26849D01*
X46989Y-26941D01*
X47059Y-27011D01*
X47150Y-27049D01*
X47212Y-27049D01*
X47192Y-27122D01*
X47500Y-27429D01*
X47808Y-27122D01*
X47787Y-27049D01*
X47849Y-27049D01*
X47941Y-27011D01*
X48011Y-26941D01*
X48049Y-26850D01*
X48049Y-26751D01*
X48049Y-26151D01*
X48011Y-26059D01*
X47941Y-25989D01*
X47850Y-25951D01*
X47751Y-25951D01*
X47151Y-25951D01*
X47059Y-25989D01*
X46989Y-26059D01*
X46951Y-26150D01*
X46951Y-26175D01*
X45951Y-26175D01*
X45811Y-26035D01*
X45726Y-26000D01*
X45811Y-25965D01*
X45876Y-25900D01*
X49334Y-25900D01*
X49568Y-26134D01*
X49500Y-26300D01*
X49500Y-26698D01*
X49652Y-27066D01*
X49933Y-27347D01*
X50300Y-27500D01*
X50698Y-27500D01*
X51066Y-27348D01*
X51347Y-27067D01*
X51500Y-26700D01*
X51500Y-26302D01*
X51348Y-25934D01*
X51067Y-25653D01*
X50700Y-25500D01*
X50698Y-25500D01*
X51066Y-25348D01*
X51347Y-25067D01*
X51500Y-24700D01*
X51500Y-24302D01*
X51348Y-23934D01*
X51067Y-23653D01*
X50700Y-23500D01*
X50698Y-23500D01*
X51066Y-23348D01*
X51347Y-23067D01*
X51500Y-22700D01*
X51500Y-22302D01*
X51348Y-21934D01*
X51067Y-21653D01*
X50700Y-21500D01*
X50302Y-21500D01*
X49934Y-21652D01*
X49653Y-21933D01*
X49500Y-22300D01*
X49500Y-22698D01*
X49568Y-22865D01*
X49334Y-23100D01*
X45876Y-23100D01*
X45811Y-23035D01*
X45726Y-23000D01*
X45811Y-22965D01*
X45876Y-22900D01*
X48500Y-22900D01*
X48653Y-22870D01*
X48783Y-22783D01*
X50067Y-21499D01*
X51299Y-21499D01*
X51391Y-21461D01*
X51461Y-21391D01*
X51499Y-21300D01*
X51499Y-21201D01*
X51499Y-19701D01*
X51461Y-19609D01*
X51391Y-19539D01*
X51300Y-19501D01*
X51201Y-19501D01*
X49701Y-19501D01*
X49609Y-19539D01*
X49539Y-19609D01*
X49501Y-19700D01*
X49501Y-19799D01*
X49501Y-20933D01*
X48334Y-22100D01*
X48043Y-22100D01*
X48043Y-21579D01*
X48032Y-21366D01*
X47972Y-21219D01*
X47878Y-21192D01*
X47571Y-21500D01*
X47878Y-21808D01*
X47972Y-21781D01*
X48043Y-21579D01*
X48043Y-22100D01*
X47808Y-22100D01*
X47808Y-21878D01*
X47500Y-21571D01*
X47429Y-21641D01*
X47429Y-21500D01*
X47122Y-21192D01*
X47028Y-21219D01*
X46957Y-21421D01*
X46968Y-21634D01*
X47028Y-21781D01*
X47122Y-21808D01*
X47429Y-21500D01*
X47429Y-21641D01*
X47192Y-21878D01*
X47219Y-21972D01*
X47421Y-22043D01*
X47634Y-22032D01*
X47781Y-21972D01*
X47808Y-21878D01*
X47808Y-22100D01*
X46043Y-22100D01*
X46043Y-21579D01*
X46032Y-21366D01*
X45972Y-21219D01*
X45878Y-21192D01*
X45571Y-21500D01*
X45878Y-21808D01*
X45972Y-21781D01*
X46043Y-21579D01*
X46043Y-22100D01*
X45876Y-22100D01*
X45811Y-22035D01*
X45719Y-21997D01*
X45781Y-21972D01*
X45808Y-21878D01*
X45500Y-21571D01*
X45429Y-21641D01*
X45429Y-21500D01*
X45122Y-21192D01*
X45028Y-21219D01*
X44957Y-21421D01*
X44968Y-21634D01*
X45028Y-21781D01*
X45122Y-21808D01*
X45429Y-21500D01*
X45429Y-21641D01*
X45192Y-21878D01*
X45219Y-21972D01*
X45284Y-21995D01*
X45189Y-22035D01*
X45035Y-22189D01*
X44951Y-22391D01*
X44951Y-22609D01*
X45035Y-22811D01*
X45189Y-22965D01*
X45273Y-23000D01*
X45189Y-23035D01*
X45035Y-23189D01*
X44951Y-23391D01*
X44951Y-23609D01*
X45035Y-23811D01*
X45189Y-23965D01*
X45273Y-24000D01*
X45189Y-24035D01*
X45035Y-24189D01*
X44951Y-24391D01*
X44951Y-24609D01*
X45035Y-24811D01*
X45189Y-24965D01*
X45273Y-25000D01*
X45189Y-25035D01*
X45035Y-25189D01*
X44951Y-25391D01*
X44951Y-25609D01*
X45035Y-25811D01*
X45189Y-25965D01*
X45273Y-26000D01*
X45189Y-26035D01*
X45049Y-26175D01*
X45000Y-26175D01*
X44875Y-26200D01*
X44770Y-26270D01*
X44325Y-26715D01*
X44325Y-19500D01*
X44325Y-18995D01*
X44395Y-19025D01*
X44604Y-19025D01*
X44797Y-18945D01*
X44945Y-18798D01*
X44976Y-18723D01*
X44976Y-18824D01*
X45014Y-18916D01*
X45084Y-18986D01*
X45175Y-19024D01*
X45274Y-19024D01*
X45824Y-19024D01*
X45916Y-18986D01*
X45986Y-18916D01*
X46024Y-18825D01*
X46024Y-18726D01*
X46024Y-18176D01*
X45986Y-18084D01*
X45916Y-18014D01*
X45825Y-17976D01*
X45726Y-17976D01*
X45176Y-17976D01*
X45084Y-18014D01*
X45014Y-18084D01*
X44976Y-18175D01*
X44976Y-18274D01*
X44976Y-18277D01*
X44945Y-18203D01*
X44798Y-18055D01*
X44605Y-17975D01*
X44396Y-17975D01*
X44325Y-18004D01*
X44325Y-18000D01*
X44300Y-17876D01*
X44230Y-17770D01*
X44124Y-17700D01*
X44000Y-17675D01*
X43500Y-17675D01*
X43000Y-17675D01*
X42876Y-17700D01*
X42825Y-17733D01*
X42825Y-17000D01*
X42800Y-16876D01*
X42800Y-16875D01*
X42730Y-16770D01*
X42230Y-16270D01*
X42124Y-16200D01*
X42000Y-16175D01*
X27500Y-16175D01*
X27376Y-16200D01*
X27270Y-16270D01*
X27200Y-16376D01*
X27175Y-16500D01*
X27175Y-21000D01*
X27200Y-21124D01*
X27270Y-21230D01*
X27770Y-21730D01*
X27875Y-21800D01*
X27876Y-21800D01*
X28000Y-21825D01*
X29215Y-21825D01*
X27270Y-23770D01*
X27200Y-23876D01*
X27175Y-24000D01*
X27175Y-28000D01*
X27200Y-28124D01*
X27270Y-28230D01*
X28270Y-29230D01*
X28375Y-29300D01*
X28376Y-29300D01*
X28500Y-29325D01*
X29549Y-29325D01*
X29689Y-29465D01*
X29773Y-29500D01*
X29689Y-29535D01*
X29535Y-29689D01*
X29451Y-29891D01*
X29451Y-30109D01*
X29535Y-30311D01*
X29689Y-30465D01*
X29773Y-30500D01*
X29689Y-30535D01*
X29535Y-30689D01*
X29451Y-30891D01*
X29451Y-31109D01*
X29535Y-31311D01*
X29675Y-31451D01*
X29675Y-31549D01*
X29535Y-31689D01*
X29451Y-31891D01*
X29451Y-32109D01*
X29535Y-32311D01*
X29689Y-32465D01*
X29773Y-32500D01*
X29689Y-32535D01*
X29535Y-32689D01*
X29451Y-32891D01*
X29451Y-33109D01*
X29535Y-33311D01*
X29689Y-33465D01*
X29773Y-33500D01*
X29689Y-33535D01*
X29535Y-33689D01*
X29451Y-33891D01*
X29451Y-34109D01*
X29535Y-34311D01*
X29689Y-34465D01*
X29773Y-34500D01*
X29689Y-34535D01*
X29535Y-34689D01*
X29451Y-34891D01*
X29451Y-35109D01*
X29535Y-35311D01*
X29689Y-35465D01*
X29773Y-35500D01*
X29689Y-35535D01*
X29535Y-35689D01*
X29451Y-35891D01*
X29451Y-36109D01*
X29535Y-36311D01*
X29689Y-36465D01*
X29891Y-36549D01*
X30109Y-36549D01*
X30311Y-36465D01*
X30451Y-36325D01*
X32000Y-36325D01*
X32500Y-36325D01*
X32624Y-36300D01*
X32730Y-36230D01*
X33175Y-35785D01*
X33175Y-35865D01*
X32365Y-36675D01*
X29135Y-36675D01*
X28325Y-35865D01*
X28325Y-32500D01*
X28300Y-32376D01*
X28299Y-32375D01*
X28230Y-32270D01*
X28227Y-32268D01*
X25730Y-29770D01*
X25705Y-29754D01*
X26730Y-28730D01*
X26800Y-28625D01*
X26800Y-28624D01*
X26825Y-28500D01*
X26825Y-20500D01*
X26800Y-20376D01*
X26800Y-20375D01*
X26730Y-20270D01*
X25730Y-19270D01*
X25624Y-19200D01*
X25500Y-19175D01*
X22500Y-19175D01*
X22375Y-19200D01*
X22270Y-19270D01*
X21770Y-19770D01*
X21700Y-19876D01*
X21675Y-20000D01*
X21675Y-21000D01*
X21700Y-21124D01*
X21770Y-21230D01*
X22270Y-21730D01*
X22375Y-21800D01*
X22376Y-21800D01*
X22451Y-21815D01*
X22451Y-21849D01*
X22489Y-21941D01*
X22559Y-22011D01*
X22650Y-22049D01*
X22749Y-22049D01*
X23349Y-22049D01*
X23441Y-22011D01*
X23511Y-21941D01*
X23549Y-21850D01*
X23549Y-21825D01*
X24549Y-21825D01*
X24689Y-21965D01*
X24773Y-22000D01*
X24689Y-22035D01*
X24624Y-22100D01*
X22165Y-22100D01*
X20431Y-20365D01*
X20500Y-20200D01*
X20500Y-19802D01*
X20348Y-19434D01*
X20067Y-19153D01*
X19700Y-19000D01*
X19302Y-19000D01*
X18934Y-19152D01*
X18653Y-19433D01*
X18500Y-19800D01*
X18500Y-20198D01*
X18652Y-20566D01*
X18933Y-20847D01*
X19300Y-21000D01*
X18934Y-21152D01*
X18653Y-21433D01*
X18500Y-21800D01*
X18500Y-22198D01*
X18652Y-22566D01*
X18933Y-22847D01*
X19300Y-23000D01*
X18934Y-23152D01*
X18653Y-23433D01*
X18500Y-23800D01*
X18500Y-24198D01*
X18652Y-24566D01*
X18933Y-24847D01*
X19300Y-25000D01*
X19698Y-25000D01*
X19959Y-24892D01*
X20000Y-24900D01*
X24624Y-24900D01*
X24689Y-24965D01*
X24773Y-25000D01*
X24689Y-25035D01*
X24624Y-25100D01*
X20452Y-25100D01*
X20391Y-25039D01*
X20300Y-25001D01*
X20201Y-25001D01*
X18701Y-25001D01*
X18609Y-25039D01*
X18539Y-25109D01*
X18501Y-25200D01*
X18501Y-25299D01*
X18501Y-26799D01*
X18539Y-26891D01*
X18609Y-26961D01*
X18700Y-26999D01*
X18799Y-26999D01*
X20299Y-26999D01*
X20391Y-26961D01*
X20461Y-26891D01*
X20499Y-26800D01*
X20499Y-26701D01*
X20499Y-25900D01*
X24624Y-25900D01*
X24689Y-25965D01*
X24780Y-26002D01*
X24719Y-26028D01*
X24692Y-26122D01*
X25000Y-26429D01*
X25308Y-26122D01*
X25281Y-26028D01*
X25215Y-26004D01*
X25311Y-25965D01*
X25465Y-25811D01*
X25549Y-25609D01*
X25549Y-25391D01*
X25465Y-25189D01*
X25311Y-25035D01*
X25226Y-25000D01*
X25311Y-24965D01*
X25465Y-24811D01*
X25549Y-24609D01*
X25549Y-24391D01*
X25465Y-24189D01*
X25311Y-24035D01*
X25226Y-24000D01*
X25311Y-23965D01*
X25465Y-23811D01*
X25549Y-23609D01*
X25549Y-23391D01*
X25465Y-23189D01*
X25311Y-23035D01*
X25226Y-23000D01*
X25311Y-22965D01*
X25465Y-22811D01*
X25549Y-22609D01*
X25549Y-22391D01*
X25465Y-22189D01*
X25311Y-22035D01*
X25226Y-22000D01*
X25311Y-21965D01*
X25465Y-21811D01*
X25549Y-21609D01*
X25549Y-21391D01*
X25543Y-21376D01*
X25543Y-20579D01*
X25532Y-20366D01*
X25472Y-20219D01*
X25378Y-20192D01*
X25308Y-20262D01*
X25308Y-20122D01*
X25281Y-20028D01*
X25079Y-19957D01*
X24866Y-19968D01*
X24719Y-20028D01*
X24692Y-20122D01*
X25000Y-20429D01*
X25308Y-20122D01*
X25308Y-20262D01*
X25071Y-20500D01*
X25378Y-20808D01*
X25472Y-20781D01*
X25543Y-20579D01*
X25543Y-21376D01*
X25465Y-21189D01*
X25311Y-21035D01*
X25219Y-20997D01*
X25281Y-20972D01*
X25308Y-20878D01*
X25000Y-20571D01*
X24929Y-20641D01*
X24929Y-20500D01*
X24622Y-20192D01*
X24528Y-20219D01*
X24457Y-20421D01*
X24468Y-20634D01*
X24528Y-20781D01*
X24622Y-20808D01*
X24929Y-20500D01*
X24929Y-20641D01*
X24692Y-20878D01*
X24719Y-20972D01*
X24784Y-20995D01*
X24689Y-21035D01*
X24549Y-21175D01*
X23549Y-21175D01*
X23549Y-21151D01*
X23543Y-21136D01*
X23543Y-20579D01*
X23532Y-20366D01*
X23472Y-20219D01*
X23378Y-20192D01*
X23308Y-20262D01*
X23308Y-20122D01*
X23281Y-20028D01*
X23079Y-19957D01*
X22866Y-19968D01*
X22719Y-20028D01*
X22692Y-20122D01*
X23000Y-20429D01*
X23308Y-20122D01*
X23308Y-20262D01*
X23071Y-20500D01*
X23378Y-20808D01*
X23472Y-20781D01*
X23543Y-20579D01*
X23543Y-21136D01*
X23511Y-21059D01*
X23441Y-20989D01*
X23350Y-20951D01*
X23287Y-20951D01*
X23308Y-20878D01*
X23000Y-20571D01*
X22929Y-20641D01*
X22929Y-20500D01*
X22622Y-20192D01*
X22528Y-20219D01*
X22457Y-20421D01*
X22468Y-20634D01*
X22528Y-20781D01*
X22622Y-20808D01*
X22929Y-20500D01*
X22929Y-20641D01*
X22692Y-20878D01*
X22712Y-20951D01*
X22651Y-20951D01*
X22559Y-20989D01*
X22504Y-21044D01*
X22325Y-20865D01*
X22325Y-20135D01*
X22635Y-19825D01*
X25365Y-19825D01*
X26175Y-20635D01*
X26175Y-28365D01*
X25538Y-29001D01*
X25532Y-28866D01*
X25472Y-28719D01*
X25378Y-28692D01*
X25308Y-28762D01*
X25308Y-28622D01*
X25281Y-28528D01*
X25079Y-28457D01*
X24866Y-28468D01*
X24719Y-28528D01*
X24692Y-28622D01*
X25000Y-28929D01*
X25308Y-28622D01*
X25308Y-28762D01*
X25071Y-29000D01*
X25000Y-29071D01*
X24929Y-29141D01*
X24929Y-29000D01*
X24622Y-28692D01*
X24528Y-28719D01*
X24457Y-28921D01*
X24468Y-29134D01*
X24528Y-29281D01*
X24622Y-29308D01*
X24929Y-29000D01*
X24929Y-29141D01*
X24692Y-29378D01*
X24719Y-29472D01*
X24784Y-29495D01*
X24689Y-29535D01*
X24549Y-29675D01*
X23549Y-29675D01*
X23549Y-29651D01*
X23543Y-29636D01*
X23543Y-29079D01*
X23532Y-28866D01*
X23472Y-28719D01*
X23378Y-28692D01*
X23308Y-28762D01*
X23308Y-28622D01*
X23281Y-28528D01*
X23079Y-28457D01*
X22866Y-28468D01*
X22719Y-28528D01*
X22692Y-28622D01*
X23000Y-28929D01*
X23308Y-28622D01*
X23308Y-28762D01*
X23071Y-29000D01*
X23378Y-29308D01*
X23472Y-29281D01*
X23543Y-29079D01*
X23543Y-29636D01*
X23511Y-29559D01*
X23441Y-29489D01*
X23350Y-29451D01*
X23287Y-29451D01*
X23308Y-29378D01*
X23000Y-29071D01*
X22929Y-29141D01*
X22929Y-29000D01*
X22622Y-28692D01*
X22528Y-28719D01*
X22457Y-28921D01*
X22468Y-29134D01*
X22528Y-29281D01*
X22622Y-29308D01*
X22929Y-29000D01*
X22929Y-29141D01*
X22692Y-29378D01*
X22712Y-29451D01*
X22651Y-29451D01*
X22559Y-29489D01*
X22489Y-29559D01*
X22451Y-29650D01*
X22451Y-29749D01*
X22451Y-30349D01*
X22489Y-30441D01*
X22559Y-30511D01*
X22650Y-30549D01*
X22749Y-30549D01*
X23349Y-30549D01*
X23441Y-30511D01*
X23511Y-30441D01*
X23549Y-30350D01*
X23549Y-30325D01*
X24549Y-30325D01*
X24689Y-30465D01*
X24773Y-30500D01*
X24689Y-30535D01*
X24624Y-30600D01*
X21166Y-30600D01*
X20431Y-29865D01*
X20500Y-29700D01*
X20500Y-29302D01*
X20348Y-28934D01*
X20067Y-28653D01*
X19700Y-28500D01*
X19302Y-28500D01*
X18934Y-28652D01*
X18653Y-28933D01*
X18500Y-29300D01*
X18500Y-29698D01*
X18652Y-30066D01*
X18933Y-30347D01*
X19300Y-30500D01*
X18934Y-30652D01*
X18653Y-30933D01*
X18500Y-31300D01*
X18500Y-31698D01*
X18652Y-32066D01*
X18933Y-32347D01*
X19300Y-32500D01*
X18934Y-32652D01*
X18653Y-32933D01*
X18500Y-33300D01*
X18500Y-33698D01*
X18652Y-34066D01*
X18933Y-34347D01*
X19300Y-34500D01*
X19698Y-34500D01*
X20066Y-34348D01*
X20347Y-34067D01*
X20500Y-33700D01*
X20500Y-33400D01*
X24624Y-33400D01*
X24689Y-33465D01*
X24773Y-33500D01*
X24689Y-33535D01*
X24624Y-33600D01*
X21000Y-33600D01*
X20846Y-33630D01*
X20717Y-33717D01*
X19933Y-34501D01*
X18701Y-34501D01*
X18609Y-34539D01*
X18539Y-34609D01*
X18501Y-34700D01*
X18501Y-34799D01*
X18501Y-36299D01*
X18539Y-36391D01*
X18609Y-36461D01*
X18700Y-36499D01*
X18799Y-36499D01*
X20299Y-36499D01*
X20391Y-36461D01*
X20461Y-36391D01*
X20499Y-36300D01*
X20499Y-36201D01*
X20499Y-35067D01*
X21166Y-34400D01*
X24624Y-34400D01*
X24689Y-34465D01*
X24780Y-34502D01*
X24719Y-34528D01*
X24692Y-34622D01*
X25000Y-34929D01*
X25308Y-34622D01*
X25281Y-34528D01*
X25215Y-34504D01*
X25311Y-34465D01*
X25465Y-34311D01*
X25549Y-34109D01*
X25549Y-33891D01*
X25465Y-33689D01*
X25311Y-33535D01*
X25226Y-33500D01*
X25311Y-33465D01*
X25465Y-33311D01*
X25549Y-33109D01*
X25549Y-32891D01*
X25465Y-32689D01*
X25311Y-32535D01*
X25226Y-32500D01*
X25311Y-32465D01*
X25465Y-32311D01*
X25549Y-32109D01*
X25549Y-31891D01*
X25465Y-31689D01*
X25311Y-31535D01*
X25226Y-31500D01*
X25311Y-31465D01*
X25465Y-31311D01*
X25549Y-31109D01*
X25549Y-30891D01*
X25465Y-30689D01*
X25311Y-30535D01*
X25226Y-30500D01*
X25311Y-30465D01*
X25408Y-30367D01*
X27675Y-32634D01*
X27675Y-36000D01*
X27700Y-36124D01*
X27770Y-36230D01*
X28770Y-37230D01*
X28875Y-37300D01*
X28876Y-37300D01*
X29000Y-37325D01*
X32500Y-37325D01*
X32624Y-37300D01*
X32730Y-37230D01*
X33730Y-36230D01*
X33800Y-36125D01*
X33800Y-36124D01*
X33825Y-36000D01*
X33825Y-35635D01*
X34230Y-35230D01*
X34300Y-35125D01*
X34300Y-35124D01*
X34325Y-35000D01*
X34325Y-33635D01*
X34483Y-33476D01*
X34492Y-33630D01*
X34548Y-33767D01*
X34639Y-33790D01*
X34894Y-33535D01*
X34929Y-33500D01*
X35000Y-33429D01*
X35035Y-33394D01*
X35290Y-33139D01*
X35267Y-33048D01*
X35074Y-32981D01*
X34870Y-32992D01*
X34822Y-33011D01*
X34825Y-33000D01*
X34825Y-27000D01*
X34800Y-26876D01*
X34800Y-26875D01*
X34730Y-26770D01*
X34230Y-26270D01*
X34124Y-26200D01*
X34000Y-26175D01*
X33049Y-26175D01*
X33049Y-26151D01*
X33011Y-26059D01*
X32941Y-25989D01*
X32850Y-25951D01*
X32825Y-25951D01*
X32965Y-25811D01*
X33049Y-25609D01*
X33049Y-25391D01*
X32965Y-25189D01*
X32825Y-25049D01*
X32825Y-24951D01*
X32951Y-24825D01*
X37000Y-24825D01*
X37124Y-24800D01*
X37230Y-24730D01*
X37675Y-24285D01*
X37675Y-29451D01*
X37651Y-29451D01*
X37559Y-29489D01*
X37519Y-29529D01*
X37519Y-28074D01*
X37508Y-27870D01*
X37452Y-27733D01*
X37361Y-27710D01*
X37290Y-27781D01*
X37290Y-27639D01*
X37267Y-27548D01*
X37074Y-27481D01*
X36870Y-27492D01*
X36733Y-27548D01*
X36710Y-27639D01*
X37000Y-27929D01*
X37290Y-27639D01*
X37290Y-27781D01*
X37071Y-28000D01*
X37361Y-28290D01*
X37452Y-28267D01*
X37519Y-28074D01*
X37519Y-29529D01*
X37489Y-29559D01*
X37451Y-29650D01*
X37451Y-29749D01*
X37451Y-30349D01*
X37489Y-30441D01*
X37559Y-30511D01*
X37650Y-30549D01*
X37675Y-30549D01*
X37535Y-30689D01*
X37451Y-30891D01*
X37451Y-31109D01*
X37535Y-31311D01*
X37675Y-31451D01*
X37675Y-31549D01*
X37535Y-31689D01*
X37451Y-31891D01*
X37451Y-32109D01*
X37535Y-32311D01*
X37675Y-32451D01*
X37675Y-33000D01*
X37700Y-33124D01*
X37710Y-33139D01*
X37770Y-33230D01*
X37861Y-33290D01*
X37965Y-33394D01*
X38000Y-33429D01*
X38071Y-33500D01*
X38000Y-33571D01*
X37965Y-33606D01*
X37929Y-33642D01*
X37929Y-33500D01*
X37639Y-33210D01*
X37548Y-33233D01*
X37481Y-33426D01*
X37492Y-33630D01*
X37548Y-33767D01*
X37639Y-33790D01*
X37929Y-33500D01*
X37929Y-33642D01*
X37710Y-33861D01*
X37733Y-33952D01*
X37926Y-34019D01*
X38130Y-34008D01*
X38175Y-33989D01*
X38175Y-34000D01*
X38175Y-35000D01*
X38175Y-35004D01*
X38105Y-34975D01*
X37896Y-34975D01*
X37703Y-35055D01*
X37582Y-35175D01*
X37290Y-35175D01*
X37290Y-28361D01*
X37000Y-28071D01*
X36929Y-28142D01*
X36929Y-28000D01*
X36639Y-27710D01*
X36548Y-27733D01*
X36481Y-27926D01*
X36492Y-28130D01*
X36548Y-28267D01*
X36639Y-28290D01*
X36929Y-28000D01*
X36929Y-28142D01*
X36710Y-28361D01*
X36733Y-28452D01*
X36926Y-28519D01*
X37130Y-28508D01*
X37267Y-28452D01*
X37290Y-28361D01*
X37290Y-35175D01*
X35519Y-35175D01*
X35519Y-33574D01*
X35508Y-33370D01*
X35452Y-33233D01*
X35361Y-33210D01*
X35071Y-33500D01*
X35361Y-33790D01*
X35452Y-33767D01*
X35519Y-33574D01*
X35519Y-35175D01*
X35417Y-35175D01*
X35298Y-35055D01*
X35290Y-35051D01*
X35290Y-33861D01*
X35000Y-33571D01*
X34710Y-33861D01*
X34733Y-33952D01*
X34926Y-34019D01*
X35130Y-34008D01*
X35267Y-33952D01*
X35290Y-33861D01*
X35290Y-35051D01*
X35105Y-34975D01*
X34896Y-34975D01*
X34703Y-35055D01*
X34555Y-35202D01*
X34475Y-35395D01*
X34475Y-35604D01*
X34555Y-35797D01*
X34702Y-35945D01*
X34895Y-36025D01*
X35104Y-36025D01*
X35297Y-35945D01*
X35417Y-35825D01*
X37582Y-35825D01*
X37702Y-35945D01*
X37895Y-36025D01*
X38104Y-36025D01*
X38297Y-35945D01*
X38391Y-35851D01*
X39975Y-37435D01*
X39975Y-37604D01*
X40055Y-37797D01*
X40202Y-37945D01*
X40395Y-38025D01*
X40604Y-38025D01*
X40797Y-37945D01*
X40945Y-37798D01*
X41000Y-37664D01*
X41055Y-37797D01*
X41202Y-37945D01*
X41395Y-38025D01*
X41604Y-38025D01*
X41797Y-37945D01*
X41945Y-37798D01*
X42000Y-37664D01*
X42055Y-37797D01*
X42202Y-37945D01*
X42395Y-38025D01*
X42604Y-38025D01*
X42797Y-37945D01*
X42917Y-37825D01*
X43082Y-37825D01*
X43202Y-37945D01*
X43395Y-38025D01*
X43604Y-38025D01*
X43797Y-37945D01*
X43945Y-37798D01*
X44003Y-37657D01*
X44048Y-37767D01*
X44139Y-37790D01*
X44429Y-37500D01*
X44139Y-37210D01*
X44048Y-37233D01*
X44006Y-37351D01*
X43945Y-37203D01*
X43825Y-37082D01*
X43825Y-36635D01*
X45071Y-35389D01*
X45092Y-35368D01*
X45189Y-35465D01*
X45280Y-35502D01*
X45219Y-35528D01*
X45192Y-35622D01*
X45500Y-35929D01*
X45808Y-35622D01*
X45781Y-35528D01*
X45715Y-35504D01*
X45811Y-35465D01*
X45951Y-35325D01*
X46951Y-35325D01*
X46951Y-35349D01*
X46989Y-35441D01*
X47059Y-35511D01*
X47150Y-35549D01*
X47212Y-35549D01*
X47192Y-35622D01*
X47500Y-35929D01*
X47808Y-35622D01*
X47787Y-35549D01*
X47849Y-35549D01*
X47941Y-35511D01*
X48011Y-35441D01*
X48049Y-35350D01*
X48049Y-35251D01*
X48049Y-34651D01*
X48011Y-34559D01*
X47941Y-34489D01*
X47850Y-34451D01*
X47751Y-34451D01*
X47151Y-34451D01*
X47059Y-34489D01*
X46989Y-34559D01*
X46951Y-34650D01*
X46951Y-34675D01*
X45951Y-34675D01*
X45811Y-34535D01*
X45726Y-34500D01*
X45811Y-34465D01*
X45876Y-34400D01*
X48834Y-34400D01*
X49568Y-35134D01*
X49500Y-35300D01*
X49500Y-35698D01*
X49652Y-36066D01*
X49933Y-36347D01*
X50300Y-36500D01*
X50698Y-36500D01*
X51066Y-36348D01*
X51347Y-36067D01*
X51500Y-35700D01*
X51500Y-39434D01*
X50834Y-40100D01*
X48043Y-40100D01*
X48043Y-36079D01*
X48032Y-35866D01*
X47972Y-35719D01*
X47878Y-35692D01*
X47571Y-36000D01*
X47878Y-36308D01*
X47972Y-36281D01*
X48043Y-36079D01*
X48043Y-40100D01*
X47808Y-40100D01*
X47808Y-36378D01*
X47500Y-36071D01*
X47429Y-36141D01*
X47429Y-36000D01*
X47122Y-35692D01*
X47028Y-35719D01*
X46957Y-35921D01*
X46968Y-36134D01*
X47028Y-36281D01*
X47122Y-36308D01*
X47429Y-36000D01*
X47429Y-36141D01*
X47192Y-36378D01*
X47219Y-36472D01*
X47421Y-36543D01*
X47634Y-36532D01*
X47781Y-36472D01*
X47808Y-36378D01*
X47808Y-40100D01*
X46043Y-40100D01*
X46043Y-36079D01*
X46032Y-35866D01*
X45972Y-35719D01*
X45878Y-35692D01*
X45571Y-36000D01*
X45878Y-36308D01*
X45972Y-36281D01*
X46043Y-36079D01*
X46043Y-40100D01*
X46024Y-40100D01*
X46024Y-37825D01*
X46024Y-37726D01*
X46024Y-37176D01*
X45986Y-37084D01*
X45916Y-37014D01*
X45825Y-36976D01*
X45808Y-36976D01*
X45808Y-36378D01*
X45500Y-36071D01*
X45429Y-36141D01*
X45429Y-36000D01*
X45122Y-35692D01*
X45071Y-35706D01*
X45028Y-35719D01*
X44957Y-35921D01*
X44968Y-36134D01*
X45028Y-36281D01*
X45071Y-36293D01*
X45122Y-36308D01*
X45429Y-36000D01*
X45429Y-36141D01*
X45192Y-36378D01*
X45219Y-36472D01*
X45421Y-36543D01*
X45634Y-36532D01*
X45781Y-36472D01*
X45808Y-36378D01*
X45808Y-36976D01*
X45726Y-36976D01*
X45176Y-36976D01*
X45084Y-37014D01*
X45071Y-37027D01*
X45014Y-37084D01*
X44976Y-37175D01*
X44976Y-37274D01*
X44976Y-37291D01*
X44952Y-37233D01*
X44861Y-37210D01*
X44790Y-37281D01*
X44790Y-37139D01*
X44767Y-37048D01*
X44574Y-36981D01*
X44370Y-36992D01*
X44233Y-37048D01*
X44210Y-37139D01*
X44500Y-37429D01*
X44790Y-37139D01*
X44790Y-37281D01*
X44571Y-37500D01*
X44861Y-37790D01*
X44952Y-37767D01*
X44976Y-37697D01*
X44976Y-37824D01*
X45014Y-37916D01*
X45071Y-37973D01*
X45084Y-37986D01*
X45175Y-38024D01*
X45274Y-38024D01*
X45824Y-38024D01*
X45916Y-37986D01*
X45986Y-37916D01*
X46024Y-37825D01*
X46024Y-40100D01*
X45071Y-40100D01*
X44790Y-40100D01*
X44790Y-37861D01*
X44500Y-37571D01*
X44210Y-37861D01*
X44233Y-37952D01*
X44426Y-38019D01*
X44630Y-38008D01*
X44767Y-37952D01*
X44790Y-37861D01*
X44790Y-40100D01*
X39024Y-40100D01*
X39024Y-37825D01*
X39024Y-37726D01*
X39024Y-37176D01*
X38986Y-37084D01*
X38916Y-37014D01*
X38825Y-36976D01*
X38726Y-36976D01*
X38176Y-36976D01*
X38084Y-37014D01*
X38014Y-37084D01*
X37976Y-37175D01*
X37976Y-37274D01*
X37976Y-37277D01*
X37945Y-37203D01*
X37798Y-37055D01*
X37605Y-36975D01*
X37396Y-36975D01*
X37203Y-37055D01*
X37055Y-37202D01*
X36999Y-37335D01*
X36945Y-37203D01*
X36798Y-37055D01*
X36605Y-36975D01*
X36396Y-36975D01*
X36203Y-37055D01*
X36055Y-37202D01*
X35999Y-37335D01*
X35945Y-37203D01*
X35798Y-37055D01*
X35605Y-36975D01*
X35396Y-36975D01*
X35203Y-37055D01*
X35055Y-37202D01*
X34999Y-37335D01*
X34945Y-37203D01*
X34798Y-37055D01*
X34605Y-36975D01*
X34396Y-36975D01*
X34203Y-37055D01*
X34055Y-37202D01*
X33999Y-37335D01*
X33945Y-37203D01*
X33798Y-37055D01*
X33605Y-36975D01*
X33396Y-36975D01*
X33203Y-37055D01*
X33055Y-37202D01*
X32975Y-37395D01*
X32975Y-37604D01*
X33055Y-37797D01*
X33202Y-37945D01*
X33395Y-38025D01*
X33604Y-38025D01*
X33797Y-37945D01*
X33945Y-37798D01*
X34000Y-37664D01*
X34055Y-37797D01*
X34202Y-37945D01*
X34395Y-38025D01*
X34604Y-38025D01*
X34797Y-37945D01*
X34945Y-37798D01*
X35000Y-37664D01*
X35055Y-37797D01*
X35202Y-37945D01*
X35395Y-38025D01*
X35604Y-38025D01*
X35797Y-37945D01*
X35945Y-37798D01*
X36000Y-37664D01*
X36055Y-37797D01*
X36202Y-37945D01*
X36395Y-38025D01*
X36604Y-38025D01*
X36797Y-37945D01*
X36945Y-37798D01*
X37000Y-37664D01*
X37055Y-37797D01*
X37202Y-37945D01*
X37395Y-38025D01*
X37604Y-38025D01*
X37797Y-37945D01*
X37945Y-37798D01*
X37976Y-37723D01*
X37976Y-37824D01*
X38014Y-37916D01*
X38084Y-37986D01*
X38175Y-38024D01*
X38274Y-38024D01*
X38824Y-38024D01*
X38916Y-37986D01*
X38986Y-37916D01*
X39024Y-37825D01*
X39024Y-40100D01*
X22400Y-40100D01*
X22400Y-38000D01*
X22400Y-37166D01*
X23017Y-36549D01*
X23349Y-36549D01*
X23441Y-36511D01*
X23511Y-36441D01*
X23528Y-36400D01*
X24624Y-36400D01*
X24689Y-36465D01*
X24891Y-36549D01*
X25109Y-36549D01*
X25311Y-36465D01*
X25465Y-36311D01*
X25549Y-36109D01*
X25549Y-35891D01*
X25543Y-35876D01*
X25543Y-35079D01*
X25532Y-34866D01*
X25472Y-34719D01*
X25378Y-34692D01*
X25071Y-35000D01*
X25378Y-35308D01*
X25472Y-35281D01*
X25543Y-35079D01*
X25543Y-35876D01*
X25465Y-35689D01*
X25311Y-35535D01*
X25219Y-35497D01*
X25281Y-35472D01*
X25308Y-35378D01*
X25000Y-35071D01*
X24929Y-35141D01*
X24929Y-35000D01*
X24622Y-34692D01*
X24528Y-34719D01*
X24457Y-34921D01*
X24468Y-35134D01*
X24528Y-35281D01*
X24622Y-35308D01*
X24929Y-35000D01*
X24929Y-35141D01*
X24692Y-35378D01*
X24719Y-35472D01*
X24784Y-35495D01*
X24689Y-35535D01*
X24624Y-35600D01*
X23543Y-35600D01*
X23543Y-35079D01*
X23532Y-34866D01*
X23472Y-34719D01*
X23378Y-34692D01*
X23308Y-34762D01*
X23308Y-34622D01*
X23281Y-34528D01*
X23079Y-34457D01*
X22866Y-34468D01*
X22719Y-34528D01*
X22692Y-34622D01*
X23000Y-34929D01*
X23308Y-34622D01*
X23308Y-34762D01*
X23071Y-35000D01*
X23378Y-35308D01*
X23472Y-35281D01*
X23543Y-35079D01*
X23543Y-35600D01*
X23527Y-35600D01*
X23511Y-35559D01*
X23441Y-35489D01*
X23350Y-35451D01*
X23287Y-35451D01*
X23308Y-35378D01*
X23000Y-35071D01*
X22929Y-35141D01*
X22929Y-35000D01*
X22622Y-34692D01*
X22528Y-34719D01*
X22457Y-34921D01*
X22468Y-35134D01*
X22528Y-35281D01*
X22622Y-35308D01*
X22929Y-35000D01*
X22929Y-35141D01*
X22692Y-35378D01*
X22712Y-35451D01*
X22651Y-35451D01*
X22559Y-35489D01*
X22489Y-35559D01*
X22451Y-35650D01*
X22451Y-35749D01*
X22451Y-35983D01*
X21834Y-36600D01*
X21500Y-36600D01*
X21346Y-36630D01*
X21217Y-36717D01*
X19643Y-38291D01*
X19641Y-38289D01*
X19550Y-38251D01*
X19451Y-38251D01*
X18451Y-38251D01*
X18359Y-38289D01*
X18289Y-38359D01*
X18251Y-38450D01*
X18251Y-38549D01*
X18251Y-39549D01*
X18289Y-39641D01*
X18359Y-39711D01*
X18450Y-39749D01*
X18549Y-39749D01*
X19549Y-39749D01*
X19641Y-39711D01*
X19711Y-39641D01*
X19749Y-39550D01*
X19749Y-39451D01*
X19749Y-39305D01*
X19783Y-39283D01*
X20303Y-38762D01*
X20261Y-38873D01*
X20269Y-39165D01*
X20366Y-39400D01*
X20480Y-39450D01*
X20894Y-39035D01*
X20929Y-39000D01*
X21000Y-38929D01*
X21035Y-38894D01*
X21450Y-38480D01*
X21400Y-38366D01*
X21127Y-38261D01*
X20835Y-38269D01*
X20770Y-38295D01*
X21600Y-37466D01*
X21600Y-38000D01*
X21600Y-38585D01*
X21520Y-38550D01*
X21071Y-39000D01*
X21520Y-39450D01*
X21600Y-39414D01*
X21600Y-40100D01*
X21450Y-40100D01*
X21450Y-39520D01*
X21000Y-39071D01*
X20550Y-39520D01*
X20600Y-39634D01*
X20873Y-39739D01*
X21165Y-39731D01*
X21400Y-39634D01*
X21450Y-39520D01*
X21450Y-40100D01*
X17900Y-40100D01*
X17900Y-34000D01*
X17900Y-28166D01*
X18166Y-27900D01*
X22472Y-27900D01*
X22489Y-27941D01*
X22559Y-28011D01*
X22650Y-28049D01*
X22749Y-28049D01*
X23349Y-28049D01*
X23441Y-28011D01*
X23511Y-27941D01*
X23528Y-27900D01*
X24624Y-27900D01*
X24689Y-27965D01*
X24891Y-28049D01*
X25109Y-28049D01*
X25311Y-27965D01*
X25465Y-27811D01*
X25549Y-27609D01*
X25549Y-27391D01*
X25543Y-27376D01*
X25543Y-26579D01*
X25532Y-26366D01*
X25472Y-26219D01*
X25378Y-26192D01*
X25071Y-26500D01*
X25378Y-26808D01*
X25472Y-26781D01*
X25543Y-26579D01*
X25543Y-27376D01*
X25465Y-27189D01*
X25311Y-27035D01*
X25219Y-26997D01*
X25281Y-26972D01*
X25308Y-26878D01*
X25000Y-26571D01*
X24929Y-26641D01*
X24929Y-26500D01*
X24622Y-26192D01*
X24528Y-26219D01*
X24457Y-26421D01*
X24468Y-26634D01*
X24528Y-26781D01*
X24622Y-26808D01*
X24929Y-26500D01*
X24929Y-26641D01*
X24692Y-26878D01*
X24719Y-26972D01*
X24784Y-26995D01*
X24689Y-27035D01*
X24624Y-27100D01*
X23543Y-27100D01*
X23543Y-26579D01*
X23532Y-26366D01*
X23472Y-26219D01*
X23378Y-26192D01*
X23308Y-26262D01*
X23308Y-26122D01*
X23281Y-26028D01*
X23079Y-25957D01*
X22866Y-25968D01*
X22719Y-26028D01*
X22692Y-26122D01*
X23000Y-26429D01*
X23308Y-26122D01*
X23308Y-26262D01*
X23071Y-26500D01*
X23378Y-26808D01*
X23472Y-26781D01*
X23543Y-26579D01*
X23543Y-27100D01*
X23527Y-27100D01*
X23511Y-27059D01*
X23441Y-26989D01*
X23350Y-26951D01*
X23287Y-26951D01*
X23308Y-26878D01*
X23000Y-26571D01*
X22929Y-26641D01*
X22929Y-26500D01*
X22622Y-26192D01*
X22528Y-26219D01*
X22457Y-26421D01*
X22468Y-26634D01*
X22528Y-26781D01*
X22622Y-26808D01*
X22929Y-26500D01*
X22929Y-26641D01*
X22692Y-26878D01*
X22712Y-26951D01*
X22651Y-26951D01*
X22559Y-26989D01*
X22489Y-27059D01*
X22471Y-27100D01*
X18000Y-27100D01*
X17846Y-27130D01*
X17717Y-27217D01*
X17217Y-27717D01*
X17130Y-27847D01*
X17100Y-28000D01*
X17100Y-34000D01*
X17100Y-40500D01*
X17130Y-40653D01*
X17217Y-40783D01*
X17347Y-40870D01*
X17500Y-40900D01*
X22000Y-40900D01*
X45071Y-40900D01*
X51000Y-40900D01*
X51153Y-40870D01*
X51283Y-40783D01*
X53283Y-38783D01*
X53370Y-38654D01*
X53370Y-38653D01*
X53400Y-38500D01*
X53400Y-41450D01*
X45071Y-41450D01*
X40500Y-41450D01*
X16050Y-41450D01*
X16050Y-16050D01*
X54450Y-16050D01*
X54450Y-41450D01*
M02*
