G04 #@! TF.FileFunction,Copper,L1,Top,Signal*
%FSLAX46Y46*%
G04 Gerber Fmt 4.6, Leading zero omitted, Abs format (unit mm)*
G04 Created by KiCad (PCBNEW 4.0.2-4+6225~38~ubuntu15.10.1-stable) date Sun 01 May 2016 02:16:50 AM PDT*
%MOMM*%
G01*
G04 APERTURE LIST*
%ADD10C,0.100000*%
%ADD11R,1.800860X2.400860*%
%ADD12R,0.599440X1.000760*%
%ADD13C,4.500880*%
%ADD14R,1.700000X2.000000*%
%ADD15R,2.000000X1.700000*%
%ADD16C,0.500000*%
G04 APERTURE END LIST*
D10*
D11*
X16101120Y-24400000D03*
X16101120Y-17200000D03*
D12*
X18439760Y-19617710D03*
X19740240Y-19617710D03*
X19090000Y-21517630D03*
D10*
G36*
X17699150Y-25081180D02*
X17168820Y-24550850D01*
X18017348Y-23702322D01*
X18547678Y-24232652D01*
X17699150Y-25081180D01*
X17699150Y-25081180D01*
G37*
G36*
X19042652Y-23737678D02*
X18512322Y-23207348D01*
X19360850Y-22358820D01*
X19891180Y-22889150D01*
X19042652Y-23737678D01*
X19042652Y-23737678D01*
G37*
D13*
X28170000Y-16000000D03*
X28170000Y-20930000D03*
X28170000Y-25800000D03*
D14*
X21360000Y-18805000D03*
X21360000Y-22805000D03*
D15*
X24420000Y-25110000D03*
X20420000Y-25110000D03*
D14*
X24210000Y-22840000D03*
X24210000Y-18840000D03*
D16*
X22420000Y-26090000D02*
X22420000Y-24449998D01*
X22420000Y-24449998D02*
X21360000Y-23389998D01*
X21360000Y-23389998D02*
X21360000Y-22805000D01*
X22975000Y-26645000D02*
X22420000Y-26090000D01*
X28170000Y-26645000D02*
X22975000Y-26645000D01*
X17790000Y-22540000D02*
X17790000Y-20267470D01*
X17790000Y-20267470D02*
X18439760Y-19617710D01*
X18404315Y-23154315D02*
X17790000Y-22540000D01*
X17790000Y-22540000D02*
X17770000Y-22520000D01*
X19095685Y-23154315D02*
X18404315Y-23154315D01*
X19095685Y-23154315D02*
X20865685Y-23154315D01*
X20865685Y-23154315D02*
X21360000Y-22660000D01*
X16101120Y-24200000D02*
X17878630Y-24200000D01*
X17878630Y-24200000D02*
X17964315Y-24285685D01*
X20570000Y-25110000D02*
X18788630Y-25110000D01*
X18788630Y-25110000D02*
X17964315Y-24285685D01*
X19740240Y-19617710D02*
X20697290Y-19617710D01*
X20697290Y-19617710D02*
X21360000Y-18955000D01*
X16101120Y-17200000D02*
X17523190Y-17200000D01*
X17523190Y-17200000D02*
X19740240Y-19417050D01*
X19740240Y-19417050D02*
X19740240Y-19617710D01*
X24210000Y-18840000D02*
X24210000Y-18690000D01*
X27685000Y-15215000D02*
X28170000Y-15215000D01*
X24210000Y-18690000D02*
X27685000Y-15215000D01*
X19090000Y-21517630D02*
X19852370Y-21517630D01*
X19852370Y-21517630D02*
X21114999Y-20255001D01*
X21114999Y-20255001D02*
X22944999Y-20255001D01*
X22944999Y-20255001D02*
X24210000Y-18990000D01*
X27930000Y-20930000D02*
X26020000Y-22840000D01*
X26020000Y-22840000D02*
X24210000Y-22840000D01*
X28170000Y-20930000D02*
X27930000Y-20930000D01*
X24210000Y-22690000D02*
X24210000Y-25050000D01*
X24210000Y-25050000D02*
X24270000Y-25110000D01*
M02*