G04 Gerber PCB Fabrication Data in Gerber – Example 2, created by Karel Tavernier, Filip Vermeire and Thomas Weyn*
G04 Ucamco copyright*
%TF.GenerationSoftware,Ucamco,UcamX,1.1.0-1400509*%
%TF.CreationDate,2014-07-14T00:00;00+01:00*%
%FSLAX25Y25*%
%MOMM*%
%TF.FileFunction,Plated,1,10,PTH,Drill*%
%TF.FilePolarity,Positive*%
%TF.Part,Single*%
%TF.SameCoordinates*%
%TA.AperFunction,ViaDrill*%
%ADD10C,0.30000*%
%TA.AperFunction,MechanicalDrill*%
%ADD11C,3.50000*%
G01*
%LPD*%
D10*
X2050000Y685000D03*
X1685000Y430000D03*
X8604700Y3812900D03*
X2586600Y5973400D03*
X2460000Y5970000D03*
X2891400Y531200D03*
X3082000Y527900D03*
X9131000Y6527800D03*
X9141000Y4775200D03*
X2460000Y6225000D03*
X2335000D03*
X814700Y7587900D03*
X8559700Y1072900D03*
X2050000Y1135000D03*
X6044700Y8187900D03*
X6021300Y7320000D03*
X8114700Y7687900D03*
X8174700Y7212900D03*
X5144700Y8262900D03*
X5551100D03*
X5652700D03*
X5114700Y7907900D03*
X5347900Y8262900D03*
X5449500D03*
X5246300D03*
X7154700Y8252900D03*
X7865900D03*
X7764300D03*
X7662700D03*
X7561100D03*
X7459500D03*
X7357900D03*
X7256300D03*
X7119700Y3842900D03*
X9005100Y5975000D03*
X9005300Y7061200D03*
X9124700Y4478800D03*
X9000300Y5295100D03*
X509700Y2622900D03*
X510200Y2443600D03*
X1784700Y4172900D03*
X4066200Y3967600D03*
X1974700Y4172900D03*
X4828200Y3967600D03*
X2793400Y3976300D03*
X3685200Y3967600D03*
X3875700D03*
X4256700D03*
X637800Y5729000D03*
X4596700Y1772900D03*
X1272200Y5857900D03*
X1557900Y8332900D03*
X2034200Y8337900D03*
X4259700Y7337900D03*
X3949700Y7357900D03*
X850000Y7197900D03*
X1314700Y7822900D03*
X2605700Y3967600D03*
X2415200D03*
X4965000Y2835000D03*
X7773400Y7061200D03*
X3494700Y3967600D03*
X8595400Y3142200D03*
X8595200Y2983400D03*
X8594700Y2824700D03*
X8592700Y2665900D03*
X7649700Y2300000D03*
X8589700Y2507900D03*
X7642600Y2185000D03*
X7644900Y2079000D03*
X7987600Y2020000D03*
X8279700Y2302900D03*
X7794700Y1822900D03*
X7929700Y3577900D03*
X7619700Y3582900D03*
X7739700Y3497900D03*
X3324700Y7357900D03*
X1484700Y6967900D03*
X3853500Y8189100D03*
X3144700Y7577900D03*
X6694700Y8262900D03*
X6919700Y8097900D03*
X8779700Y4887900D03*
X504700Y4107900D03*
X3284700Y3807900D03*
X7064900Y5517700D03*
X7849700D03*
X8221900Y5417900D03*
X8769700Y6287900D03*
X5348200Y7159400D03*
X6809700Y8097900D03*
X2724700Y7577900D03*
X3249700Y1772900D03*
X3646800Y545000D03*
X6369700Y507900D03*
X5959700Y512900D03*
X5205000Y548200D03*
X6655000Y513200D03*
X5514700Y547900D03*
X5019700Y487900D03*
X3689700Y1207900D03*
X5159700Y1712900D03*
X3664700Y757900D03*
X7719700Y507900D03*
X1933800Y803900D03*
X2419700Y892900D03*
X7908000Y966200D03*
X1329900Y1192700D03*
X1964500D03*
X2077200Y1347900D03*
X8089000Y1237100D03*
X849700Y1742900D03*
Y2037900D03*
X1874700Y1667900D03*
X2554700Y1822900D03*
X1814700Y3017900D03*
X2596000Y2578800D03*
X6344700Y1782900D03*
X7670000Y1662900D03*
X8289700Y1692900D03*
X1454700Y1962900D03*
X8289700Y2140000D03*
X5191200Y2715700D03*
X5745300Y2627900D03*
X8156800Y2685000D03*
X509700Y2917900D03*
X1332700Y2829900D03*
X5284700Y3090400D03*
X5037800Y3445000D03*
X5872200Y3110400D03*
X7509700Y3202900D03*
X8259700Y3047900D03*
X1219700Y3667900D03*
X2244700Y3522900D03*
X3149700Y3687900D03*
X4544700Y3762900D03*
X5819700Y3677900D03*
X6959700Y3607900D03*
X8589700Y3657900D03*
X8930300Y3663500D03*
X6474700Y3797900D03*
X7839700Y3840600D03*
X8802100Y4257900D03*
X5264700Y4327900D03*
X529700Y4682900D03*
X1713400Y5047100D03*
X2294700Y5282900D03*
X3314700Y5781200D03*
X3413700Y5896900D03*
X3794700Y5897900D03*
X3540700Y5893900D03*
X3901000Y5654200D03*
X3902000Y5400200D03*
X3667700Y5895900D03*
X3904000Y5527200D03*
X3413700Y5258900D03*
X3304000Y5527200D03*
X3307000Y5400200D03*
X3667700Y5269900D03*
X3540700Y5263900D03*
X3306000Y5654200D03*
X8797100Y5285000D03*
X7574700Y5517700D03*
X8104700D03*
X8604900D03*
X934700Y5724000D03*
X1431000Y5861700D03*
X2204700Y5722900D03*
X1272200Y5957900D03*
X8684700Y6130500D03*
X1854200Y6412400D03*
X8776700Y6527800D03*
X8686000Y6908800D03*
X869700Y6922900D03*
X1557900Y6872900D03*
X1544700Y7191700D03*
X1875500Y7192900D03*
X3714700Y7197900D03*
X2399700Y7342900D03*
X3612200Y7333200D03*
X5524700Y7428400D03*
X6591300Y7321300D03*
X5754700Y7517900D03*
X7158400Y7396600D03*
X8754700Y7257900D03*
X1625000Y7592900D03*
X4940000Y7635000D03*
X8029700Y7647900D03*
X2423900Y7918600D03*
X2796200Y8012900D03*
X4124700Y7907900D03*
X6987200Y7955400D03*
X5869600Y8237800D03*
X6034700Y8087900D03*
X1875500Y8337900D03*
X2351700Y8342900D03*
X1244900Y660000D03*
X7302500Y684700D03*
X7435800Y976800D03*
X8927700Y1395900D03*
X8941700Y2665900D03*
X8932900Y2189600D03*
X8949000Y3142200D03*
X1936800Y1818500D03*
X2434700Y1822900D03*
X2915000Y1770000D03*
X5393400Y1676600D03*
X7954700Y1907900D03*
X6804700Y2082400D03*
X7114000Y2147300D03*
X8164700Y1948400D03*
X874100Y2442200D03*
X5994700Y2287900D03*
X878100Y2838400D03*
X8424700Y2762900D03*
X1342200Y3022900D03*
X894700Y3260000D03*
X1399700Y3447900D03*
X5879700Y3337900D03*
X964700Y3657900D03*
X7414700Y3662900D03*
X7577800Y3727900D03*
X2859700Y3882900D03*
X4542400Y3987600D03*
X6264700Y3797900D03*
X1834700Y4792900D03*
X1699700Y5487900D03*
X1849700Y5987900D03*
X1279800Y6621900D03*
X1159700Y7082900D03*
X2828000Y7202900D03*
X2351700Y7190900D03*
X3604700Y7202900D03*
X4199700Y7172900D03*
X1361600Y7511000D03*
X4955200Y7428400D03*
X5749700Y7402900D03*
X7129700Y7562900D03*
X1557900Y7987900D03*
X1675000Y7887900D03*
X2030800Y7986600D03*
X3139700Y8042900D03*
X3514700Y7892900D03*
X4800900Y8174100D03*
X4874700Y8292900D03*
X4439700Y3967900D03*
X3558400Y1624900D03*
X8744700Y7877900D03*
X3054700Y8277900D03*
X2869700D03*
X3414700D03*
X3599700D03*
X3779700D03*
X3959700D03*
X4139700D03*
X3234700D03*
X1907200Y7301400D03*
X2097700D03*
X2193000Y7491900D03*
X2288200Y7301400D03*
X509700Y3212900D03*
X510200Y3967600D03*
Y3777100D03*
Y3586600D03*
Y3396100D03*
X509700Y3027900D03*
Y2802900D03*
D11*
X500000Y500000D03*
Y8250000D03*
X9000000D03*
Y500000D03*
M02*