G04 Gerber PCB Fabrication Data in Gerber – Example 2, created by Karel Tavernier, Filip Vermeire and Thomas Weyn*
G04 Ucamco copyright*
%TF.GenerationSoftware,Ucamco,UcamX,1.1.0-1400509*%
%TF.CreationDate,2014-07-14T00:00;00+01:00*%
%FSLAX25Y25*%
%MOMM*%
%TF.FileFunction,Copper,L6,Inr,Signal*%
%TF.FilePolarity,Positive*%
%TF.Part,Single*%
%TF.SameCoordinates*%
%TA.AperFunction,Conductor*%
%ADD10C,0.15000*%
%TA.AperFunction,NonConductor*%
%ADD11C,0.20000*%
%TA.AperFunction,ViaPad*%
%ADD12C,0.65000*%
%TA.AperFunction,WasherPad*%
%ADD13C,6.00000*%
G01*
%LPD*%
D10*
X509700Y2802900D02*
Y2804700D01*
X744700Y3039700D01*
Y4182900D01*
X610200Y4317400D01*
Y4737390D01*
X550000Y4797600D01*
Y5641250D01*
X610250Y5701500D01*
X1410810Y6387900D02*
X1067900D01*
X519700Y5839700D01*
Y4770690D01*
X584700Y4705690D01*
Y4242900D01*
X644700Y4182900D01*
Y3462900D01*
X577950Y3396150D01*
X510200D01*
X1410810Y6492900D02*
X1122900D01*
X477200Y5847200D01*
Y4307970D01*
X584700Y4200470D01*
Y3661150D01*
X510200Y3586650D01*
X1414700Y6697900D02*
X1395850Y6679050D01*
X1254050D01*
X953610Y6378610D01*
Y6377900D01*
X924340Y6348630D01*
Y6348620D01*
X449690Y5873970D01*
Y5853270D01*
X449700Y5853260D01*
Y4028150D01*
X510200Y3967650D01*
X637200Y5140400D02*
X609700D01*
X637200Y5140400D02*
X609700Y5167900D01*
X637200Y5275400D02*
X609700D01*
X637200Y5275400D02*
X609700Y5302900D01*
X610250Y5701500D02*
Y5729000D01*
X610250Y5701500D02*
X637750D01*
X610250Y5701500D02*
X637750Y5729000D01*
X652200Y4870400D02*
X635200Y4853400D01*
Y4362490D01*
X779700Y4217850D01*
Y2491790D01*
X799150Y2472350D01*
X779700Y2491790D02*
X760250Y2472350D01*
X779700Y2491790D02*
Y2452900D01*
X844700Y4309010D02*
Y3677900D01*
X964700Y3557900D01*
Y3097910D01*
X1049700Y3012900D01*
X1154700D01*
X1229700Y2937900D01*
Y1932900D01*
X1249700Y1912900D01*
Y1815400D01*
X1357200Y1707900D01*
X1704700D01*
X1817610Y1820810D01*
X684700Y4729010D02*
Y4608260D01*
X894200Y4398760D01*
Y3802650D01*
X1017200Y3679650D01*
X1017950D01*
X1169700Y3527900D01*
Y3404920D01*
X1255200Y3319420D01*
Y1952400D01*
X1289700Y1917900D01*
Y1847900D01*
X1369700Y1767900D01*
X1425810D01*
X844700Y4309010D02*
X825250Y4328450D01*
X844700Y4309010D02*
X864150Y4328450D01*
X844700Y4347900D02*
Y4309010D01*
X637200Y5140400D02*
X739700Y5037900D01*
Y4612900D01*
X920200Y4432400D01*
Y4314800D01*
X965000Y4270000D01*
X1062600D01*
X1075200Y4257400D01*
X1075210D01*
X1155000Y4177610D01*
Y3917600D01*
X1289700Y3782900D01*
Y3652900D01*
X1459700Y3482900D01*
Y3425110D01*
X1434700Y3400110D01*
Y2900300D01*
X1459700Y2875300D01*
Y2581790D01*
X637200Y5275400D02*
X774700Y5137900D01*
Y4628640D01*
X1579200Y3824140D01*
Y3194650D01*
X1510200Y3125650D01*
Y2924800D01*
X1544690Y2890310D01*
Y2515310D01*
X1584700Y2475300D01*
Y2131790D01*
X684700Y4729010D02*
X665250Y4748450D01*
X684700Y4729010D02*
X704150Y4748450D01*
X684700Y4767900D02*
Y4729010D01*
X652200Y4870400D02*
Y4897900D01*
X652200Y4870400D02*
X679700D01*
X679700Y4897900D02*
X652200Y4870400D01*
X637200Y5140400D02*
Y5167900D01*
X637200Y5275400D02*
Y5302900D01*
X1322200Y1930400D02*
X1280200Y1972400D01*
Y3462400D01*
X992930Y3749670D01*
Y4084010D01*
X1452200Y2100400D02*
X1394700Y2157900D01*
Y2978650D01*
X1394710Y2978660D01*
Y3022160D01*
X1394700Y3022170D01*
Y3032900D01*
X1394690Y3032910D01*
Y3044650D01*
X1363940Y3075400D01*
X1352200D01*
X1325200Y3102400D01*
Y3482400D01*
X1109200Y3698400D01*
Y4148400D01*
X1082200Y4175400D01*
X992930Y4084010D02*
X973480Y4103450D01*
X992930Y4084010D02*
X1012380Y4103450D01*
X992930Y4084010D02*
Y4122900D01*
X1082200Y4175400D02*
X1054700Y4180400D01*
X1082200Y4175400D02*
Y4207900D01*
X1082200Y4175400D02*
X1054700Y4202900D01*
Y4207900D01*
X1008590Y4347900D02*
X1020080D01*
X1100210Y4267770D01*
Y4267760D01*
X1194700Y4173270D01*
Y3972900D01*
X1457200Y3710400D01*
X1652200Y2842800D02*
X1619690Y2875310D01*
Y2935310D01*
X1585200Y2969800D01*
Y3094570D01*
X1654200Y3163570D01*
Y3855230D01*
X1187730Y4321700D01*
X1145200Y4364240D01*
Y4822400D01*
X974700Y4992900D01*
Y5337910D01*
X1114690Y5477900D01*
X1184700D01*
X1207200Y5500400D01*
X1703130Y2553970D02*
Y2569480D01*
X1594690Y2677920D01*
Y2920310D01*
X1560200Y2954800D01*
Y3104930D01*
X1629200Y3173930D01*
Y3844860D01*
X1108100Y4365960D01*
Y4804500D01*
X944700Y4967900D01*
Y5343270D01*
X1101830Y5500400D01*
X1629700Y2596790D02*
Y2600480D01*
X1569690Y2660490D01*
Y2905310D01*
X1535200Y2939800D01*
Y3115290D01*
X1604200Y3184290D01*
Y3834500D01*
X914700Y4524000D01*
Y5377910D01*
X1114190Y5577400D01*
X1285200D01*
X1307200Y5555400D01*
X1008590Y4347900D02*
X989150Y4328450D01*
X1008590Y4347900D02*
X989150Y4367350D01*
X969700Y4347900D02*
X1008590D01*
X1159930Y5357670D02*
Y5330170D01*
X1159930Y5357670D02*
X1132430Y5330170D01*
X1101830Y5500400D02*
X1107200Y5527900D01*
X1101830Y5500400D02*
X1129330Y5527900D01*
X1134700D01*
X1159930Y5357670D02*
X1132430D01*
X1159930Y5357670D02*
X1179660Y5377400D01*
X1355210D01*
X1424700Y5307910D01*
Y5277900D01*
X1494700Y5207900D01*
X1524700D01*
X1580790Y5151810D01*
Y4955790D01*
X1555200Y4930200D01*
Y4539800D01*
X1629700Y4465300D01*
Y4170820D01*
X1629690Y4170810D01*
Y4108670D01*
X1688240Y4050120D01*
X1688250D01*
X1890210Y3848160D01*
Y3733120D01*
X1914690Y3708640D01*
Y3508050D01*
X1974200Y3448540D01*
Y2832400D01*
X1960000Y2818200D01*
Y2767600D01*
X1985000Y2742600D01*
Y2539530D01*
X2026630Y2497900D01*
Y2289830D01*
X1992200Y2255400D01*
X1062200Y5665400D02*
Y5637900D01*
X1062200Y5665400D02*
X1034700D01*
X1062200Y5665400D02*
X1034700Y5637900D01*
X2089200Y2742290D02*
Y2848410D01*
X2055200Y2882410D01*
Y3522010D01*
X2039690Y3537520D01*
Y3689720D01*
X1965210Y3764200D01*
Y3879240D01*
X1704700Y4139750D01*
Y4525300D01*
X1679200Y4550800D01*
Y4965250D01*
X1630810Y5013640D01*
Y5181790D01*
X1554700Y5257900D01*
X1524700D01*
X1484200Y5298400D01*
Y5508400D01*
X1305200Y5687400D01*
X1084200D01*
X1062200Y5665400D01*
X1173590Y5637900D02*
X1154150Y5618450D01*
X1173590Y5637900D02*
X1154150Y5657350D01*
X1134700Y5637900D02*
X1173590D01*
X1425810Y1767900D02*
X1464700D01*
X1425810Y1767900D02*
X1445250Y1748450D01*
X1425810Y1767900D02*
X1445250Y1787350D01*
X1322200Y1930400D02*
X1349700D01*
X1322200Y1930400D02*
Y1902900D01*
X1349700Y1902900D02*
X1322200Y1930400D01*
X1322200Y4005400D02*
X1294700D01*
X1322200Y4005400D02*
Y4032900D01*
X1322200Y4005400D02*
X1294700Y4032900D01*
X1322200Y4005400D02*
X1554200Y3773400D01*
Y3259230D01*
X1485200Y3190230D01*
Y2904800D01*
X1509200Y2880800D01*
Y2487400D01*
X1489700Y2467900D01*
Y2461790D01*
X1199700Y4369010D02*
Y4361860D01*
X1679200Y3882360D01*
Y3153210D01*
X1610200Y3084210D01*
Y2984800D01*
X1644700Y2950300D01*
Y2935300D01*
X1729200Y2850800D01*
Y2764840D01*
X1705200Y2740840D01*
Y2632040D01*
X1705190Y2632030D01*
Y2614810D01*
X1752630Y2567370D01*
Y2477630D01*
X1655200Y2380200D01*
Y2003400D01*
X1602200Y1950400D01*
X1362200Y5200400D02*
X1429690Y5132900D01*
Y4417910D01*
X1467200Y4380400D01*
X1199700Y4369010D02*
X1175250Y4393450D01*
X1199700Y4369010D02*
X1214150Y4393450D01*
X1199700Y4369010D02*
Y4407900D01*
X1194700Y4412900D01*
X1362200Y5300400D02*
X1334700D01*
X1362200Y5300400D02*
Y5327900D01*
X1362200Y5300400D02*
X1334700Y5327900D01*
X1764700Y3511790D02*
Y3580300D01*
X1734700Y3610300D01*
Y3897590D01*
X1657180Y3975110D01*
X1657170D01*
X1554690Y4077590D01*
Y4201890D01*
X1554700Y4201900D01*
Y4204290D01*
X1554690Y4204300D01*
Y4307880D01*
X1554700Y4307890D01*
Y4407920D01*
X1554690Y4407930D01*
Y4410310D01*
X1454690Y4510310D01*
Y5207910D01*
X1362200Y5300400D01*
X1362200Y5200400D02*
X1334700D01*
X1362200Y5200400D02*
Y5227900D01*
X1334700Y5227900D02*
X1362200Y5200400D01*
X1173590Y5637900D02*
X1309700D01*
X1449700Y5497900D01*
Y5292900D01*
X1509700Y5232900D01*
X1540770D01*
X1605800Y5167870D01*
Y5134630D01*
X1605790Y5134620D01*
Y4940790D01*
X1580200Y4915200D01*
Y4559800D01*
X1654700Y4485300D01*
Y4160460D01*
X1654690Y4160450D01*
Y4119030D01*
X1698600Y4075120D01*
X1698610D01*
X1915210Y3858520D01*
Y3743480D01*
X1939690Y3719000D01*
Y3518410D01*
X2005200Y3452900D01*
Y2802400D01*
X2014700Y2792900D01*
X1207200Y5500400D02*
X1234700Y5527900D01*
X1207200Y5500400D02*
X1234700D01*
X1207200Y5500400D02*
Y5527900D01*
X1307200Y5555400D02*
X1334700D01*
X1307200Y5555400D02*
Y5527900D01*
X1307200Y5555400D02*
X1334700Y5527900D01*
X1410810Y6387900D02*
X1430250Y6407350D01*
X1410810Y6387900D02*
X1430250Y6368450D01*
X1449700Y6387900D02*
X1410810D01*
X1410810Y6492900D02*
X1430250Y6512350D01*
X1410810Y6492900D02*
X1430250Y6473450D01*
X1449700Y6492900D02*
X1410810D01*
X1452200Y2100400D02*
X1479700D01*
X1452200Y2100400D02*
Y2072900D01*
X1479700Y2072900D02*
X1452200Y2100400D01*
X1704700Y2101790D02*
X1685250Y2082350D01*
X1584700Y2131790D02*
X1604150Y2112350D01*
X1584700Y2131790D02*
X1565250Y2112350D01*
X1584700Y2131790D02*
Y2092900D01*
X1602200Y1950400D02*
Y1922900D01*
X1602200Y1950400D02*
X1574700D01*
X1602200Y1950400D02*
X1574700Y1922900D01*
X1489700Y2461790D02*
X1509150Y2442350D01*
X1489700Y2461790D02*
X1470250Y2442350D01*
X1489700Y2461790D02*
Y2422900D01*
X1703130Y2553970D02*
X1683680Y2534530D01*
X1629700Y2596790D02*
X1649150Y2577350D01*
X1629700Y2596790D02*
X1610250Y2577350D01*
X1629700Y2596790D02*
Y2557900D01*
X1459700Y2581790D02*
X1479150Y2562350D01*
X1459700Y2581790D02*
X1440250Y2562350D01*
X1459700Y2581790D02*
Y2542900D01*
X1659700Y3037900D02*
X1669700Y3027900D01*
Y2950300D01*
X1754200Y2865800D01*
Y2747400D01*
X1730200Y2723400D01*
Y2629800D01*
X1777630Y2582370D01*
Y2462630D01*
X1704700Y2389700D01*
Y2101790D01*
X1652200Y2842800D02*
X1679700Y2840400D01*
X1652200Y2842800D02*
Y2812900D01*
X1679700Y2812900D02*
Y2815300D01*
X1652200Y2842800D01*
X1509700Y3351790D02*
X1524150Y3327350D01*
X1509700Y3351790D02*
X1485250Y3327350D01*
X1509700Y3351790D02*
Y3657900D01*
X1504700Y3307900D02*
X1509700Y3312900D01*
Y3351790D01*
X1509700Y3657900D02*
X1487200D01*
X1509700Y3657900D02*
X1509690Y3680400D01*
X1509700Y3657900D02*
X1484700Y3682900D01*
X1457200Y3710400D02*
X1484700D01*
X1457200Y3710400D02*
Y3682900D01*
X1457200Y3710400D02*
X1484700Y3682900D01*
X1779700Y2704290D02*
Y2878630D01*
X1709700Y2948630D01*
Y3887220D01*
X1494700Y4102220D01*
Y4314010D01*
X1504700Y4974010D02*
Y4505300D01*
X1579700Y4430300D01*
Y4191540D01*
X1579690Y4191530D01*
Y4087950D01*
X1667530Y4000110D01*
X1667540D01*
X1840200Y3827450D01*
Y3712410D01*
X1864690Y3687920D01*
Y3487320D01*
X1924200Y3427810D01*
Y2853130D01*
X1910000Y2838930D01*
Y2746880D01*
X1935000Y2721880D01*
Y2575000D01*
X1902630Y2542630D01*
Y2113860D01*
X1531290Y5124470D02*
X1554200Y5101560D01*
Y4969200D01*
X1530200Y4945200D01*
Y4524800D01*
X1604700Y4450300D01*
Y4181180D01*
X1604690Y4181170D01*
Y4098310D01*
X1677880Y4025120D01*
X1677890D01*
X1865210Y3837800D01*
Y3722760D01*
X1889690Y3698280D01*
Y3497690D01*
X1949200Y3438180D01*
Y2842760D01*
X1935000Y2828560D01*
Y2757240D01*
X1960000Y2732240D01*
Y2560000D01*
X1927630Y2527630D01*
Y2359970D01*
X1932200Y2355400D01*
X1629700Y4839010D02*
Y4643260D01*
X1629690Y4643250D01*
Y4555310D01*
X1679700Y4505300D01*
Y4150100D01*
X1679690Y4150090D01*
Y4129390D01*
X1708960Y4100120D01*
X1708970D01*
X1940210Y3868880D01*
Y3753840D01*
X1964700Y3729350D01*
Y3727900D01*
X1989700Y3702900D01*
Y3622900D01*
X1994700Y3617900D01*
X1467200Y4380400D02*
X1494700D01*
X1467200Y4380400D02*
Y4352900D01*
X1467200Y4380400D02*
X1494700Y4352900D01*
X1494700Y4314010D02*
X1475250Y4333450D01*
X1494700Y4314010D02*
X1514150Y4333450D01*
X1494700Y4314010D02*
Y4352900D01*
X1644700Y5204010D02*
Y5203680D01*
X1658370Y5190000D01*
Y5024350D01*
X1704200Y4978520D01*
Y4565800D01*
X1705200Y4564800D01*
Y4564440D01*
X1729700Y4539940D01*
Y4150110D01*
X1771910Y4107900D01*
X1879320D01*
X2015210Y3972010D01*
Y3784920D01*
X2089700Y3710430D01*
Y3558240D01*
X2112700Y3535240D01*
Y3093090D01*
X1504700Y4974010D02*
Y5012900D01*
X1504700Y4974010D02*
X1524150Y4993450D01*
X1504700Y4974010D02*
X1485250Y4993450D01*
X1629700Y4839010D02*
X1610250Y4858450D01*
X1629700Y4839010D02*
X1649150Y4858450D01*
X1629700Y4877900D02*
Y4839010D01*
X1584700Y5524010D02*
Y5372910D01*
X1768370Y5189240D01*
Y5024350D01*
X1730200Y4986180D01*
Y4574800D01*
X1839700Y4465300D01*
Y4182880D01*
X2040210Y3982370D01*
Y3795280D01*
X2114700Y3720790D01*
Y3568610D01*
X2137700Y3545610D01*
Y3114910D01*
X2184200Y3068410D01*
Y2879000D01*
X2163740Y2858540D01*
Y2842890D01*
X1644700Y5204010D02*
X1625250Y5223450D01*
X1644700Y5204010D02*
X1664150Y5223450D01*
X1644700Y5242900D02*
Y5204010D01*
X1584700Y5524010D02*
X1565250Y5543450D01*
X1584700Y5524010D02*
X1604150Y5543450D01*
X1584700Y5562900D02*
Y5524010D01*
X1694700Y8044010D02*
Y7994700D01*
X1559700Y7859700D01*
Y7547900D01*
X1629200Y7478400D01*
Y6677400D01*
X1590450Y6638650D01*
X1585450Y6611150D01*
X1590450Y6638650D02*
X1557950D01*
X1590450Y6638650D02*
X1562950Y6611150D01*
X1557950D01*
X1694700Y8044010D02*
X1675250Y8063450D01*
X1694700Y8044010D02*
X1714150Y8063450D01*
X1694700Y8082900D02*
Y8044010D01*
X1817610Y1820810D02*
X1848350Y1851550D01*
X1845110D01*
X1817610Y1820810D02*
X1845110Y1824050D01*
X1817610Y1820810D02*
Y1851550D01*
X1754700Y1886790D02*
X1774150Y1867350D01*
X1754700Y1886790D02*
X1735250Y1867350D01*
X1754700Y1886790D02*
Y1847900D01*
X1704700Y2101790D02*
X1724150Y2082350D01*
X1704700Y2101790D02*
Y2062900D01*
X1902630Y2113860D02*
X1924150Y2092350D01*
X1902630Y2113860D02*
X1885250Y2092350D01*
X1902630Y2113860D02*
Y2074970D01*
X1904700Y2072900D01*
X1769700Y3314010D02*
Y3086050D01*
X1734700Y3051050D01*
Y2963690D01*
X1810000Y2888390D01*
Y2705430D01*
X1835000Y2680430D01*
Y2640000D01*
X1802630Y2607630D01*
Y2442630D01*
X1740200Y2380200D01*
Y2122900D01*
X1754700Y2108400D01*
Y1886790D01*
X1804700Y2106790D02*
X1824150Y2087350D01*
X1804700Y2106790D02*
X1785250Y2087350D01*
X1804700Y2106790D02*
Y2067900D01*
X1849700Y3242900D02*
X1869700Y3222900D01*
Y2869360D01*
X1860000Y2859660D01*
Y2726160D01*
X1885000Y2701160D01*
Y2610000D01*
X1852630Y2577630D01*
Y2182630D01*
X1804700Y2134700D01*
Y2106790D01*
X1864700Y1996790D02*
X1884150Y1977350D01*
X1864700Y1996790D02*
X1845250Y1977350D01*
X1864700Y1996790D02*
Y1957900D01*
X1864700Y1996790D02*
Y2042890D01*
X1855200Y2052390D01*
Y2130200D01*
X1877630Y2152630D01*
Y2557630D01*
X1910000Y2590000D01*
Y2711520D01*
X1885000Y2736520D01*
Y2849300D01*
X1899200Y2863500D01*
Y3325900D01*
X1932200Y2355400D02*
X1959700D01*
X1932200Y2355400D02*
Y2327900D01*
X1932200Y2355400D02*
X1959700Y2327900D01*
X1789700Y2246790D02*
X1809150Y2227350D01*
X1789700Y2246790D02*
X1770250Y2227350D01*
X1789700Y2246790D02*
Y2207900D01*
X1762200Y3740400D02*
X1760200Y3738400D01*
Y3627400D01*
X1825000Y3562600D01*
Y3310000D01*
X1795000Y3280000D01*
Y3075990D01*
X1759700Y3040690D01*
Y2974050D01*
X1835000Y2898750D01*
Y2715790D01*
X1860000Y2690790D01*
Y2625000D01*
X1827630Y2592630D01*
Y2422630D01*
X1789700Y2384700D01*
Y2246790D01*
X1992200Y2255400D02*
X1964700D01*
X1992200Y2255400D02*
X1964700Y2227900D01*
X1703130Y2553970D02*
X1722580Y2534530D01*
X1703130Y2553970D02*
Y2515080D01*
X1779700Y2704290D02*
Y2665400D01*
X1779700Y2704290D02*
X1760250Y2684850D01*
X1764700Y3511790D02*
Y3472900D01*
X1769700Y3314010D02*
Y3352900D01*
X1769700Y3314010D02*
X1789150Y3333450D01*
X1769700Y3314010D02*
X1750250Y3333450D01*
X1899200Y3325900D02*
X1877700D01*
X1899200Y3325900D02*
X1899190Y3347400D01*
X1899200Y3325900D02*
X1874700Y3350400D01*
X1764700Y3511790D02*
X1784150Y3492350D01*
X1764700Y3511790D02*
X1745250Y3492350D01*
X1762200Y3740400D02*
X1789700Y3767900D01*
X1985850Y3931360D02*
X1958350D01*
X1985850Y3931360D02*
X1958350Y3958860D01*
X1762200Y3740400D02*
Y3767900D01*
X1762200Y3740400D02*
X1789700D01*
X2176710Y7001780D02*
X2137200Y6962270D01*
Y5979300D01*
X2002200Y5844300D01*
Y5409300D01*
X1890200Y5297300D01*
Y4749730D01*
X1879700Y4739230D01*
Y4187900D01*
X2069700Y3997900D01*
Y3827900D01*
X2140200Y3757400D01*
Y3592030D01*
X2162700Y3569530D01*
Y3125270D01*
X2213240Y3074730D01*
Y2741440D01*
X2110800Y2639000D01*
Y2580690D01*
X2429700Y2616790D02*
Y2649400D01*
X2374100Y2705000D01*
Y3076210D01*
X2411700Y3113810D01*
Y3625000D01*
X2395200Y3641500D01*
Y3799800D01*
X2240000Y3955000D01*
Y4090000D01*
X2173800Y4156200D01*
X2120000D01*
X2089700Y4186500D01*
Y4367900D01*
X1940200Y4517400D01*
Y5205200D01*
X1962200Y5227200D01*
X2142700Y2180400D02*
X2170200Y2152900D01*
X2237900D01*
X2269200Y2184200D01*
Y2440800D01*
X2240000Y2470000D01*
Y2662110D01*
X2294710Y2716820D01*
Y3102900D01*
X2336700Y3144890D01*
Y3583300D01*
X2264700Y3655300D01*
Y3777900D01*
X2259700D01*
X2109000Y3928600D01*
Y4005640D01*
X2030000Y4084640D01*
Y4272590D01*
X1904700Y4397890D01*
Y4725330D01*
X1915200Y4735830D01*
Y5283400D01*
X2029700Y5397900D01*
Y5819700D01*
X2168200Y5958200D01*
Y6890400D01*
X1992200Y4380400D02*
X1964700D01*
X1992200Y4380400D02*
X1964700Y4407900D01*
X1779700Y4736790D02*
X1799150Y4717350D01*
X1779700Y4736790D02*
X1760250Y4717350D01*
X1779700Y4736790D02*
Y4697900D01*
X2284700Y7927900D02*
X2274700Y7917900D01*
Y7387900D01*
X2109700Y7222900D01*
Y6042900D01*
X1820200Y5753400D01*
Y4960130D01*
X1779700Y4919630D01*
Y4736790D01*
X1962200Y5227200D02*
Y5257900D01*
X1962200Y5227200D02*
X1989700Y5230400D01*
X1962200Y5227200D02*
X1989700Y5254700D01*
Y5257900D01*
X1799700Y6670200D02*
Y6709090D01*
X1744200Y6798400D02*
Y6770900D01*
X1744200Y6798400D02*
X1716700D01*
X1744200Y6798400D02*
X1754700Y6808900D01*
Y8192900D01*
X1742200Y8205400D01*
X1716700Y6770900D02*
X1744200Y6798400D01*
X1799700Y6709090D02*
X1819150Y6689650D01*
X1799700Y6709090D02*
X1780250Y6689650D01*
X1799700Y6709090D02*
Y6740000D01*
X1814700Y6755000D01*
Y8179010D01*
X1742200Y8205400D02*
X1714700D01*
X1742200Y8205400D02*
Y8232900D01*
X1742200Y8205400D02*
X1714700Y8232900D01*
X1814700Y8179010D02*
Y8217900D01*
X1814700Y8179010D02*
X1834150Y8198450D01*
X1814700Y8179010D02*
X1795250Y8198450D01*
X2504700Y852900D02*
Y919410D01*
X2414700Y1009410D01*
Y1152900D01*
X2094700Y1472900D01*
Y2137900D01*
X2054700Y2177900D01*
Y2237900D01*
X2110800Y2294000D01*
Y2502910D01*
X2200200Y1657290D02*
X2219650Y1637850D01*
X2200200Y1657290D02*
X2180750Y1637850D01*
X2200200Y1657290D02*
Y2070200D01*
X2294200Y2164200D01*
Y2460800D01*
X2265000Y2490000D01*
Y2645000D01*
X2324100Y2704100D01*
Y3096930D01*
X2361700Y3134530D01*
Y3598300D01*
X2314700Y3645300D01*
Y3684010D01*
X2200200Y1618400D02*
Y1657290D01*
X2024700Y2146790D02*
X2044150Y2127350D01*
X2024700Y2146790D02*
X2005250Y2127350D01*
X2024700Y2146790D02*
Y2107900D01*
X2319930Y2539510D02*
Y2149930D01*
X2225200Y2055200D01*
Y1957700D01*
X2270000Y1912900D01*
X2320810D01*
X2142700Y2180400D02*
X2114700D01*
X2142700Y2180400D02*
X2142200Y2207900D01*
X2142700Y2180400D02*
X2115200Y2207900D01*
X2114700D01*
X2192200Y2235400D02*
X2219700D01*
X2192200Y2235400D02*
Y2207900D01*
X2192200Y2235400D02*
X2140000Y2287600D01*
Y2480000D01*
X2165000Y2505000D01*
Y2657840D01*
X2238240Y2731080D01*
Y3085090D01*
X2187700Y3135630D01*
Y3579890D01*
X2165200Y3602390D01*
Y3682900D01*
X2200200Y3717900D01*
X2209700D01*
X2219700Y2207900D02*
X2192200Y2235400D01*
X1994700Y3617900D02*
X1989700Y3612900D01*
Y3507900D01*
X2030200Y3467400D01*
Y2872040D01*
X2064200Y2838040D01*
Y2764200D01*
X2035000Y2735000D01*
Y2679460D01*
X2051630Y2662830D01*
Y2279470D01*
X2024700Y2252540D01*
Y2146790D01*
X1992200Y2255400D02*
Y2227900D01*
X2110800Y2580690D02*
X2130250Y2561250D01*
X2110800Y2580690D02*
X2091350Y2561250D01*
X2110800Y2580690D02*
Y2541800D01*
X2110800Y2502910D02*
X2091350Y2522350D01*
X2110800Y2502910D02*
X2130250Y2522350D01*
X2110800Y2502910D02*
Y2541800D01*
X2199700Y2422900D02*
Y2461790D01*
Y2657170D01*
X2263240Y2720710D01*
Y3097360D01*
X2237700Y3122900D01*
Y3221270D01*
X2309700Y3293270D01*
Y3570300D01*
X2257100Y3622900D01*
X2253590D01*
X2199700Y2461790D02*
X2180250Y2442350D01*
X2199700Y2461790D02*
X2219150Y2442350D01*
X2163740Y2842890D02*
X2183190Y2823450D01*
X2163740Y2842890D02*
X2144290Y2823450D01*
X2163740Y2842890D02*
Y2804000D01*
X2089200Y2742290D02*
X2109150Y2722350D01*
X2089200Y2742290D02*
X2070250Y2722350D01*
X2089700Y2702900D02*
X2089200Y2703400D01*
Y2742290D01*
X2107200Y2970400D02*
X2134700D01*
X2107200Y2970400D02*
Y2942900D01*
X2107200Y2970400D02*
X2080200Y2997400D01*
Y3532370D01*
X2064700Y3547870D01*
Y3700070D01*
X1990210Y3774560D01*
Y3927000D01*
X1985850Y3931360D01*
X2134700Y2942900D02*
X2107200Y2970400D01*
X2112700Y3093090D02*
X2128810Y3079510D01*
X2112700Y3093090D02*
X2112710Y3063400D01*
X2112700Y3093090D02*
X2129700Y3076090D01*
Y3052900D01*
X1994700Y3617900D02*
X1989700D01*
X2253590Y3622900D02*
X2214700D01*
X2253590Y3622900D02*
X2234150Y3642350D01*
X2253590Y3622900D02*
X2234150Y3603450D01*
X1985850Y3931360D02*
Y3958860D01*
X2529700Y2356790D02*
Y2447910D01*
X2457610Y2520000D01*
X2410000D01*
X2375000Y2555000D01*
Y2614100D01*
X2349100Y2640000D01*
Y3086570D01*
X2386700Y3124170D01*
Y3613500D01*
X2370200Y3630000D01*
Y3779800D01*
X2055000Y4095000D01*
Y4282950D01*
X2054700Y4283250D01*
Y4317900D01*
X1992200Y4380400D01*
X2064700Y4774010D02*
Y4772250D01*
X2045000Y4752550D01*
Y4547230D01*
X2044990Y4547220D01*
Y4505010D01*
X2200000Y4350000D01*
X2240000D01*
X2525700Y4064300D01*
Y3934500D01*
X2579200Y3881000D01*
Y3207410D01*
X2440200Y3068410D01*
Y2992400D01*
X2448600Y2984000D01*
Y2970690D01*
X2179700Y4869010D02*
Y4818300D01*
X2183000Y4815000D01*
Y4487000D01*
X2235000Y4435000D01*
X2270000D01*
X2688400Y4016600D01*
Y3630460D01*
X2779700Y3539160D01*
Y3462900D01*
X2864200Y3378400D01*
Y2579200D01*
X2837200Y2552200D01*
X2131390Y4675010D02*
Y4498610D01*
X2220000Y4410000D01*
X2255000D01*
X2663400Y4001600D01*
Y3618120D01*
X2754200Y3527320D01*
Y2604200D01*
X2714700Y2564700D01*
Y2396790D01*
X1992200Y4380400D02*
Y4407900D01*
X2689700Y2196790D02*
Y2250000D01*
X2660000Y2279700D01*
Y2430000D01*
X2680000Y2450000D01*
Y2660000D01*
X2625200Y2714800D01*
Y3870360D01*
X2550700Y3944860D01*
Y4074660D01*
X2240360Y4385000D01*
X2205000D01*
X2070000Y4520000D01*
Y4735000D01*
X2114200Y4779200D01*
Y4944510D01*
X1989700Y5119010D02*
Y4515300D01*
X2235000Y4270000D01*
Y4145000D01*
X2280000Y4100000D01*
Y3965000D01*
X2500000Y3745000D01*
Y3610000D01*
X2436700Y3546700D01*
Y3103450D01*
X2399100Y3065850D01*
Y2911290D01*
X2541010Y2769380D01*
Y2555990D01*
X2605000Y2492000D01*
Y2137230D01*
X2658840Y2083390D01*
X2659210D01*
X2662200Y2080400D01*
X2064700Y4774010D02*
X2045250Y4793450D01*
X2064700Y4774010D02*
X2084150Y4793450D01*
X2064700Y4812900D02*
Y4774010D01*
X2131390Y4675010D02*
X2111940Y4694450D01*
X2131390Y4675010D02*
X2150840Y4694450D01*
X2131390Y4713900D02*
Y4675010D01*
X2825250Y3651500D02*
X2804700Y3672050D01*
Y3905690D01*
X2848400Y3949390D01*
Y4166600D01*
X2348800Y4666200D01*
X2228800D01*
X2208000Y4687000D01*
Y4793000D01*
X2229200Y4814200D01*
Y5090800D01*
X2162100Y5157900D01*
X2153590D01*
X2179700Y4869010D02*
X2160250Y4888450D01*
X2179700Y4869010D02*
X2199150Y4888450D01*
X2179700Y4907900D02*
Y4869010D01*
X2114200Y4944510D02*
X2090250Y4968450D01*
X2114200Y4944510D02*
X2129150Y4968450D01*
X2114200Y4944510D02*
Y4983400D01*
X2109700Y4987900D01*
X2292200Y6855400D02*
X2212200Y6775400D01*
Y5900400D01*
X2149700Y5837900D01*
Y5680300D01*
X2214200Y5615800D01*
Y5223400D01*
X2284700Y5152900D01*
Y4941790D01*
X1989700Y5119010D02*
X1970250Y5138450D01*
X1989700Y5119010D02*
X2009150Y5138450D01*
X1989700Y5157900D02*
Y5119010D01*
X2153590Y5157900D02*
X2134150Y5138450D01*
X2153590Y5157900D02*
X2134150Y5177350D01*
X2153590Y5157900D02*
X2114700D01*
X2168200Y6890400D02*
X2172200Y6917900D01*
X2168200Y6890400D02*
X2199700D01*
X2168200Y6890400D02*
X2195700Y6917900D01*
X2199700D01*
X1989700Y6811790D02*
X2009150Y6792350D01*
X1989700Y6811790D02*
X1970250Y6792350D01*
X1989700Y6811790D02*
Y7399700D01*
X2215000Y7625000D01*
Y8025000D01*
X2262900Y8072900D01*
X2285810D01*
X1989700Y6772900D02*
Y6811790D01*
X2176710Y7001780D02*
Y7029280D01*
X2176710Y7001780D02*
X2204210D01*
X2204210Y7029280D02*
X2176710Y7001780D01*
X2492200Y1155400D02*
X2519700D01*
X2492200Y1155400D02*
Y1127900D01*
X2492200Y1155400D02*
X2519700Y1127900D01*
X2429700Y2577900D02*
X2454700D01*
X2579200Y2453400D01*
Y1950190D01*
X2490200Y1861190D01*
Y1157400D01*
X2492200Y1155400D01*
X2412200Y2440400D02*
X2384700Y2412900D01*
Y2137900D01*
X2302200Y2055400D01*
X2274700Y2027900D01*
X2302200Y2055400D02*
X2274700D01*
X2302200Y2055400D02*
Y2027900D01*
X2320810Y1912900D02*
X2359700D01*
X2320810Y1912900D02*
X2340250Y1893450D01*
X2320810Y1912900D02*
X2340250Y1932350D01*
X2429700Y2616790D02*
X2449150Y2597350D01*
X2429700Y2616790D02*
X2410250Y2597350D01*
X2429700Y2616790D02*
Y2577900D01*
X2412200Y2440400D02*
Y2467900D01*
X2412200Y2440400D02*
X2439700D01*
X2439700Y2467900D02*
X2412200Y2440400D01*
X2319930Y2539510D02*
X2300480Y2558950D01*
X2319930Y2539510D02*
X2339380Y2558950D01*
X2319930Y2578400D02*
Y2539510D01*
X2448600Y2970690D02*
Y2931800D01*
X2487490Y2931800D02*
X2448600D01*
X2487490Y2931800D02*
X2468050Y2951250D01*
X2487490Y2931800D02*
X2468050Y2912350D01*
X2989700Y757390D02*
Y977910D01*
X2830200Y1137410D01*
Y1627390D01*
X2753200Y1704390D01*
Y1921390D01*
X2754200Y1922390D01*
Y2058410D01*
X2704210Y2108400D01*
X2669190D01*
X2635000Y2142590D01*
Y2455000D01*
X2651010Y2471010D01*
Y2631950D01*
X2574700Y2708260D01*
Y2852050D01*
X2494950Y2931800D01*
X2487490D01*
X2448600Y2970690D02*
X2429150Y2951250D01*
X2448600Y2970690D02*
X2468050Y2951250D01*
X2314700Y3684010D02*
X2295250Y3703450D01*
X2314700Y3684010D02*
X2334150Y3703450D01*
X2314700Y3684010D02*
Y3722900D01*
X2852200Y2382200D02*
X2889200Y2419200D01*
Y3388760D01*
X2804710Y3473250D01*
Y3549520D01*
X2713400Y3640830D01*
Y4034200D01*
X2267200Y4480400D01*
X2239700Y4507900D01*
X2267200Y4480400D02*
Y4507900D01*
X2267200Y4480400D02*
X2239700D01*
X2272200Y4580400D02*
X2738400Y4114200D01*
Y3651190D01*
X2829710Y3559880D01*
Y3483610D01*
X2914200Y3399120D01*
Y2334200D01*
X2860000Y2280000D01*
Y1739700D01*
X2879700Y1720000D01*
Y1536790D01*
X2364700Y6974010D02*
Y6955300D01*
X2375000Y6945000D01*
Y6855000D01*
X2259700Y6739700D01*
Y5409700D01*
X2239700Y5389700D01*
Y5237900D01*
X2334200Y5143400D01*
Y4758690D01*
X2939700Y4153190D01*
Y3657530D01*
X2964200Y3633030D01*
Y2310800D01*
X3019700Y2255300D01*
Y2141790D01*
X2939200Y2253400D02*
Y3425330D01*
X2914700Y3449830D01*
Y4135300D01*
X2873400Y4176600D01*
Y4176960D01*
X2334660Y4715700D01*
X2296390D01*
X2257500D01*
X2296390Y4715700D02*
X2276950Y4735150D01*
X2296390Y4715700D02*
X2276950Y4696250D01*
X2272200Y4580400D02*
X2244700D01*
X2272200Y4580400D02*
Y4607900D01*
X2244700Y4607900D02*
X2272200Y4580400D01*
X2284700Y4941790D02*
X2304150Y4922350D01*
X2284700Y4941790D02*
X2265250Y4922350D01*
X2284700Y4941790D02*
Y4902900D01*
X2394700Y4902900D02*
X2422200Y4930400D01*
X2459700Y4967900D01*
Y5532910D01*
X2629190Y5702400D01*
X2629200D01*
X2744700Y5817900D01*
X2829700D01*
X2879700Y5867900D01*
Y6185080D01*
X3077430Y6382810D01*
X3077440D01*
X3159700Y6465070D01*
Y6504310D01*
X2422200Y4930400D02*
X2394700D01*
X2422200Y4930400D02*
Y4902900D01*
X2389700Y5296790D02*
X2409150Y5277350D01*
X2389700Y5296790D02*
X2370250Y5277350D01*
X2389700Y5296790D02*
Y5257900D01*
X2795400Y6915400D02*
X2719700Y6839700D01*
Y6642900D01*
X2684700Y6607900D01*
X2452900D01*
X2400000Y6555000D01*
Y6040000D01*
X2325000Y5965000D01*
Y5604700D01*
X2389700Y5540000D01*
Y5296790D01*
X2426300Y5753700D02*
X2397700D01*
X2426300Y5753700D02*
X2425200Y5781200D01*
X2426300Y5753700D02*
X2398800Y5781200D01*
X2397700D01*
X2426300Y5753700D02*
X2465000Y5715000D01*
X2550000D01*
X2650000Y5815000D01*
Y6395000D01*
X3080000Y6825000D01*
Y7015000D01*
X3035200Y7059800D01*
Y7757800D01*
X3047500Y7770100D01*
X2292200Y6855400D02*
Y6882900D01*
X2292200Y6855400D02*
X2319700D01*
X2319700Y6882900D02*
X2292200Y6855400D01*
X2364700Y6974010D02*
X2345250Y6993450D01*
X2364700Y6974010D02*
X2384150Y6993450D01*
X2364700Y6974010D02*
Y7012900D01*
X2285810Y8072900D02*
X2305250Y8092350D01*
X2285810Y8072900D02*
X2305250Y8053450D01*
X2285810Y8072900D02*
X2324700D01*
X2662200Y2080400D02*
X2689700D01*
X2662200Y2080400D02*
Y2052900D01*
X2662200Y2080400D02*
X2689700Y2052900D01*
X2714700Y2396790D02*
X2734150Y2377350D01*
X2714700Y2396790D02*
X2695250Y2377350D01*
X2714700Y2396790D02*
Y2357900D01*
X2529700Y2356790D02*
X2549150Y2337350D01*
X2529700Y2356790D02*
X2510250Y2337350D01*
X2529700Y2356790D02*
Y2317900D01*
X2689700Y2196790D02*
X2709150Y2177350D01*
X2689700Y2196790D02*
X2670250Y2177350D01*
X2689700Y2157900D02*
Y2196790D01*
X2525000Y5820390D02*
X2544150Y5800650D01*
X2525000Y5820390D02*
X2505250Y5800650D01*
X2525000Y5820390D02*
Y6320000D01*
X3050000Y6845000D01*
Y6995000D01*
X2935200Y7109800D01*
Y7758100D01*
X3097500Y7920400D01*
X2524700Y5781200D02*
X2525000D01*
Y5820390D01*
X3097200Y7660400D02*
X3085200Y7648400D01*
Y7104800D01*
X3239710Y6950290D01*
Y6949560D01*
X3336200Y6853070D01*
Y6649690D01*
X3307210Y6620700D01*
X3266190D01*
X3237200Y6591710D01*
Y6471850D01*
X3098150Y6332800D01*
X3098140D01*
X2929700Y6164360D01*
Y5757190D01*
X2895410Y5722900D01*
X2719700D01*
X2677200Y5680400D01*
X2649700Y5652900D01*
X2677200Y5680400D02*
X2649700D01*
X2677200Y5680400D02*
Y5652900D01*
X2552200Y6824700D02*
Y6797200D01*
X2552200Y6824700D02*
X2524700D01*
X2552200Y6824700D02*
X2524700Y6797200D01*
X2869700Y8277900D02*
Y8274700D01*
X2614700Y8019700D01*
Y7687900D01*
X2524700Y7597900D01*
Y7292900D01*
X2569200Y7248400D01*
Y6841700D01*
X2552200Y6824700D01*
X2992200Y1305400D02*
X3019700D01*
X2992200Y1305400D02*
Y1277900D01*
X2992200Y1305400D02*
X3019700Y1277900D01*
X2992200Y1305400D02*
X2940200Y1357400D01*
Y1695610D01*
X3069200Y1824610D01*
Y2245800D01*
X2999690Y2315310D01*
Y2437560D01*
X2999680Y2437570D01*
Y2478990D01*
X2999690Y2479000D01*
Y3144690D01*
X3079200Y3224200D01*
Y3405800D01*
X3050000Y3435000D01*
Y3635800D01*
X3065000Y3650800D01*
Y3725000D01*
X3035200Y3754800D01*
Y4123400D01*
X3074200Y4162400D01*
Y4463400D01*
X3065200Y4472400D01*
Y4933390D01*
X3115000Y4983190D01*
Y6125000D01*
X3180400Y6190400D01*
X2879700Y1536790D02*
X2899150Y1517350D01*
X2879700Y1536790D02*
X2860250Y1517350D01*
X2879700Y1536790D02*
Y1497900D01*
X3114700Y3147900D02*
X3060000D01*
X3024690Y3112590D01*
Y2468640D01*
X3024680Y2468630D01*
Y2450320D01*
X3124200Y2350800D01*
Y2239200D01*
X3124130Y2239130D01*
Y2214130D01*
X3094200Y2184200D01*
Y1722400D01*
X3017200Y1645400D01*
Y1617900D01*
X3017200Y1645400D02*
X2989700D01*
X2989700Y1617900D02*
X3017200Y1645400D01*
X3019700Y2141790D02*
X3039150Y2122350D01*
X3019700Y2141790D02*
X3000250Y2122350D01*
X3019700Y2141790D02*
Y2102900D01*
X2799700Y2158290D02*
X2819150Y2138850D01*
X2799700Y2158290D02*
X2780250Y2138850D01*
X2799700Y2158290D02*
Y2119400D01*
X2782200Y2495400D02*
X2775200Y2488400D01*
Y2274500D01*
X2799700Y2250000D01*
Y2158290D01*
X2852200Y2382200D02*
Y2352900D01*
X2852200Y2382200D02*
X2824700Y2380400D01*
X2824700Y2352900D02*
Y2354700D01*
X2852200Y2382200D01*
X2939200Y2253400D02*
X2965020D01*
X2939200Y2253400D02*
X2939210Y2227580D01*
X2965860Y2226740D02*
X2939200Y2253400D01*
X2782200Y2495400D02*
Y2522900D01*
X2782200Y2495400D02*
X2809700D01*
X2837200Y2552200D02*
Y2522900D01*
X2837200Y2552200D02*
X2809700Y2550400D01*
X2837200Y2552200D02*
X2809700Y2524700D01*
Y2522900D01*
X2782200Y2495400D01*
X2814700Y2894900D02*
X2806700Y2902900D01*
Y3189900D01*
X2814700Y3197900D01*
X3002200Y3377900D02*
X3029700D01*
X3002200Y3377900D02*
Y3350400D01*
X3002200Y3377900D02*
X2989200Y3390900D01*
Y3643390D01*
X2964700Y3667890D01*
Y4177900D01*
X2950200Y4192400D01*
Y4448390D01*
X2984200Y4482390D01*
Y4893410D01*
X2885200Y4992410D01*
Y5073400D01*
X2954700Y5142900D01*
Y6154000D01*
X3108490Y6307790D01*
X3108500D01*
X3229920Y6429210D01*
X3242720D01*
X3336200Y6522690D01*
Y6601200D01*
X3365000Y6630000D01*
Y6875000D01*
X3336200Y6903800D01*
Y7056400D01*
X3187200Y7205400D01*
X3029700Y3350400D02*
X3002200Y3377900D01*
X3014700Y3722900D02*
X2999150Y3707350D01*
X3014700Y3722900D02*
Y3687900D01*
X3019700Y4957900D02*
X3002020Y4940220D01*
X3009200Y4933040D01*
Y4447400D01*
X2975200Y4413400D01*
Y4207400D01*
X2989700Y4192900D01*
Y3747900D01*
X3014700Y3722900D01*
X2825250Y3651500D02*
X2852750D01*
X2825250Y3651500D02*
Y3624000D01*
X2852750Y3624000D02*
X2825250Y3651500D01*
X2934700Y5061790D02*
X2954150Y5042350D01*
X2934700Y5061790D02*
X2915250Y5042350D01*
X2934700Y5061790D02*
Y5022900D01*
X3640200Y6510200D02*
X3610000Y6480000D01*
X3385000D01*
X3277400Y6372400D01*
X3264550D01*
X3264540Y6372410D01*
X3243840D01*
X3055000Y6183570D01*
Y5203200D01*
X2934700Y5082900D01*
Y5061790D01*
X3019700Y4957900D02*
X3085000Y5023200D01*
Y6178210D01*
X3254190Y6347400D01*
X3701000D01*
X3740000Y6386400D01*
Y6613200D01*
X3767200Y6640400D01*
X3004700Y5883590D02*
X3024150Y5864150D01*
X3004700Y5883590D02*
X2985250Y5864150D01*
X3004700Y5883590D02*
Y5844700D01*
X2904700Y5802200D02*
Y5779700D01*
X2904700Y5802200D02*
X2882200Y5802190D01*
X2904700Y5802200D02*
X2879700Y5777200D01*
X3229700Y7889010D02*
Y7869700D01*
X3060200Y7700200D01*
Y7079800D01*
X3234200Y6905800D01*
Y6642020D01*
X3209200Y6617020D01*
Y6479210D01*
X3087800Y6357810D01*
X3087790D01*
X2904700Y6174720D01*
Y5802200D01*
X3225000Y7654010D02*
Y7557600D01*
X3379700Y7402900D01*
Y6902700D01*
X3475000Y6807400D01*
Y6645000D01*
X3435000Y6605000D01*
X3395200D01*
X3361200Y6571000D01*
Y6509760D01*
X3248850Y6397410D01*
X3233480D01*
X3118860Y6282790D01*
X3118850D01*
X3104220Y6268160D01*
Y6268150D01*
X3004700Y6168630D01*
Y5883590D01*
X2795400Y6915400D02*
X2797200Y6942900D01*
X2795400Y6915400D02*
X2824700D01*
X2795400Y6915400D02*
X2822900Y6942900D01*
X2824700D01*
X3214700Y1371790D02*
Y1332900D01*
X3214700Y1371790D02*
X3234150Y1352350D01*
X3214700Y1371790D02*
X3195250Y1352350D01*
X3297200Y2260400D02*
X3304700Y2252900D01*
Y1729700D01*
X3214700Y1639700D01*
Y1371790D01*
X3102200Y1650400D02*
Y1622900D01*
X3102200Y1650400D02*
X3074700D01*
X3074700Y1622900D02*
X3102200Y1650400D01*
X3124700Y1672900D01*
Y1814700D01*
X3218950Y1908950D01*
Y2176050D01*
X3174200Y2220800D01*
Y2376160D01*
X3074690Y2475670D01*
Y2819690D01*
X3150000Y2895000D01*
X3201800D01*
X3222200Y2915400D01*
X3169450Y2178790D02*
Y2139900D01*
X3297200Y2260400D02*
X3269700D01*
X3297200Y2260400D02*
Y2287900D01*
X3297200Y2260400D02*
X3269700Y2287900D01*
X3169450Y2178790D02*
X3188900Y2159350D01*
X3169450Y2178790D02*
X3150000Y2159350D01*
X3892200Y4610400D02*
X3692200Y4410400D01*
Y4285390D01*
X3559710Y4152900D01*
X3383370D01*
X3204700Y3974230D01*
Y3167890D01*
X3130000Y3093190D01*
Y2940000D01*
X3049690Y2859690D01*
Y2465310D01*
X3149200Y2365800D01*
Y2205250D01*
X3169450Y2185000D01*
Y2178790D01*
X3332200Y1320400D02*
X3305200Y1347400D01*
Y1683040D01*
X3330200Y1708040D01*
Y2125200D01*
X3345000Y2140000D01*
Y2477600D01*
X3207200Y2615400D01*
X3179700D01*
X3207200Y2615400D02*
Y2642900D01*
X3207200Y2615400D02*
X3179700Y2642900D01*
X3222200Y2915400D02*
Y2942900D01*
X3222200Y2915400D02*
X3249700D01*
X3222200Y2915400D02*
X3249700Y2942900D01*
X3307200Y3561700D02*
X3300000Y3554500D01*
Y3145200D01*
X3349710Y3095490D01*
Y2730000D01*
X3320200Y2700490D01*
Y2579800D01*
X3385000Y2515000D01*
Y2265000D01*
X3505000Y2145000D01*
Y1690000D01*
X3394690Y1579690D01*
Y1468790D01*
X3259700Y5094010D02*
Y4982400D01*
X3235200Y4957900D01*
Y4153410D01*
X3076900Y3995110D01*
Y3954090D01*
X3134200Y3896790D01*
Y3750190D01*
X3094700Y3710690D01*
Y3665110D01*
X3159200Y3600610D01*
Y3510810D01*
X3159500Y3510510D01*
Y3469490D01*
X3159200Y3469190D01*
Y3192400D01*
X3114700Y3147900D01*
X3222200Y2970400D02*
X3249700D01*
X3222200Y2970400D02*
Y2942900D01*
X3222200Y2970400D02*
X3170200Y3022400D01*
Y3097900D01*
X3229700Y3157400D01*
Y3963870D01*
X3393730Y4127900D01*
X3570070D01*
X3722200Y4280030D01*
Y4308910D01*
X3895140Y4481850D01*
X3249700Y2942900D02*
X3222200Y2970400D01*
X3259700Y5094010D02*
X3240250Y5113450D01*
X3259700Y5094010D02*
X3279150Y5113450D01*
X3259700Y5132900D02*
Y5094010D01*
X3180400Y6190400D02*
X3187200Y6217900D01*
X3180400Y6190400D02*
X3214700D01*
X3180400Y6190400D02*
X3207900Y6217900D01*
X3214700D01*
X3159700Y6504310D02*
Y6543200D01*
X3159700Y6504310D02*
X3179150Y6523750D01*
X3159700Y6504310D02*
X3140250Y6523750D01*
X3187200Y7205400D02*
X3159700D01*
X3187200Y7205400D02*
Y7232900D01*
X3187200Y7205400D02*
X3159700Y7232900D01*
X3097200Y7660400D02*
Y7687900D01*
X3097200Y7660400D02*
X3124700D01*
X3124700Y7687900D02*
X3097200Y7660400D01*
X3225000Y7654010D02*
X3205550Y7673450D01*
X3225000Y7654010D02*
X3244450Y7673450D01*
X3225000Y7692900D02*
Y7654010D01*
X3097500Y7920400D02*
X3125000Y7947900D01*
X3097500Y7920400D02*
X3125000D01*
X3097500Y7920400D02*
Y7947900D01*
X3047500Y7770100D02*
Y7797600D01*
X3047500Y7770100D02*
X3075000D01*
X3047500Y7770100D02*
X3075000Y7797600D01*
X3229700Y7889010D02*
X3210250Y7908450D01*
X3229700Y7889010D02*
X3249150Y7908450D01*
X3229700Y7889010D02*
Y7927900D01*
X3332200Y1320400D02*
X3359700D01*
X3332200Y1320400D02*
Y1292900D01*
X3359700Y1292900D02*
X3332200Y1320400D01*
X3394690Y1468790D02*
X3414140Y1449350D01*
X3394690Y1468790D02*
X3375240Y1449350D01*
X3394690Y1468790D02*
Y1429900D01*
X3527200Y1422900D02*
X3554700D01*
X3527200Y1422900D02*
Y1395400D01*
X3527200Y1422900D02*
X3554700Y1395400D01*
X3527200Y1422900D02*
X3503350Y1446750D01*
Y1648350D01*
X3530000Y1675000D01*
Y2160000D01*
X3415000Y2275000D01*
Y2530000D01*
X3345200Y2599800D01*
Y2663410D01*
X3379690Y2697900D01*
X3379700Y2697920D01*
Y3125300D01*
X3355000Y3150000D01*
Y3286110D01*
X3452200Y3212200D02*
X3420000Y3180000D01*
Y2945200D01*
X3455200Y2910000D01*
Y2275110D01*
X3558350Y2171960D01*
Y1624900D01*
X4242200Y1220400D02*
X3680200Y1782400D01*
Y2134970D01*
X3505200Y2309970D01*
Y2595830D01*
X3569690Y2660320D01*
Y2987760D01*
X3579700Y2997770D01*
Y3104010D01*
X4877200Y980400D02*
X4856800Y960000D01*
X4545000D01*
X4345000Y1160000D01*
Y1199200D01*
X4159200Y1385000D01*
X4120000D01*
X3710200Y1794800D01*
Y2147400D01*
X3530200Y2327400D01*
Y2578400D01*
X3599700Y2647900D01*
Y2847900D01*
X3629200Y2877400D01*
Y3278400D01*
X3607200Y3300400D01*
X3507200Y3315400D02*
X3529200Y3293400D01*
Y2662260D01*
X3480200Y2613260D01*
Y2292540D01*
X3643120Y2129620D01*
Y1724980D01*
X3722450Y1645650D01*
X3579700Y3104010D02*
X3560250Y3123450D01*
X3507200Y3315400D02*
X3479700D01*
X3507200Y3315400D02*
Y3342900D01*
X3479700Y3381790D02*
X3499150Y3362350D01*
X3479700Y3381790D02*
X3460250Y3362350D01*
X3479700Y3381790D02*
Y3485000D01*
X3505000Y3510300D01*
Y3735000D01*
X3615000Y3845000D01*
X3675700D01*
X3770200Y3939500D01*
Y3988210D01*
X3999710Y4217720D01*
Y4337910D01*
X4022200Y4360400D01*
X3479700Y3342900D02*
X3507200Y3315400D01*
X3479700Y3342900D02*
Y3381790D01*
X3355000Y3363890D02*
X3374450Y3344450D01*
X3355000Y3363890D02*
X3335550Y3344450D01*
X3355000Y3363890D02*
Y3450000D01*
X3430000Y3525000D01*
Y3750000D01*
X3630200Y3950200D01*
Y3990440D01*
X3854700Y4214940D01*
Y4307900D01*
X4060200Y4513400D01*
Y4628070D01*
X4130190Y4698060D01*
Y4698070D01*
X4144820Y4712700D01*
X4217660D01*
X4260000Y4670360D01*
Y4580000D01*
X4245000Y4565000D01*
Y4475000D01*
X4285000Y4435000D01*
X4430000D01*
X4699700Y4165300D01*
Y4121790D01*
X3355000Y3286110D02*
X3335550Y3305550D01*
X3355000Y3286110D02*
X3374450Y3305550D01*
X3355000Y3286110D02*
Y3325000D01*
Y3363890D01*
X3452200Y3212200D02*
Y3242900D01*
X3452200Y3212200D02*
X3479700Y3215400D01*
X3449600Y3270400D02*
X3479700D01*
X3449600Y3270400D02*
X3452200Y3242900D01*
X3449600Y3270400D02*
X3430200Y3289800D01*
Y3480200D01*
X3470000Y3520000D01*
Y3745000D01*
X3600000Y3875000D01*
X3670340D01*
X3740200Y3944860D01*
Y4000640D01*
X3956950Y4217390D01*
Y4367720D01*
X4090000Y4500770D01*
Y4622510D01*
X4155190Y4687700D01*
X4202500D01*
X4235000Y4655200D01*
Y4600000D01*
X4220000Y4585000D01*
Y4455000D01*
X4277110Y4397890D01*
X4379710D01*
X4514950Y4262650D01*
X3479700Y3242900D02*
X3477100D01*
X3449600Y3270400D01*
X3479700Y3242900D02*
Y3239700D01*
X3452200Y3212200D01*
X4148200Y4610700D02*
X4115000Y4577500D01*
Y4455000D01*
X4140000Y4430000D01*
Y4185000D01*
X4107900Y4152900D01*
X4011640D01*
X3930700Y4071960D01*
Y3944860D01*
X3898490Y3912650D01*
X3792850D01*
X3695200Y3815000D01*
X3625000D01*
X3550000Y3740000D01*
Y3475000D01*
X3630200Y3394800D01*
Y3322390D01*
X3659190Y3293400D01*
X3659700D01*
Y3240300D01*
X3729200Y3170800D01*
Y2852900D01*
X3675200Y2798900D01*
Y2586290D01*
X3334700Y3633890D02*
X3354150Y3614450D01*
X3334700Y3633890D02*
X3315250Y3614450D01*
X3334700Y3633890D02*
Y3699700D01*
X3600200Y3965200D01*
Y3998390D01*
X3824700Y4222890D01*
Y4320330D01*
X4030200Y4525830D01*
Y4633430D01*
X4105190Y4708420D01*
Y4708430D01*
X4134460Y4737700D01*
X4207300D01*
X4207310Y4737710D01*
X4228010D01*
X4285000Y4680720D01*
Y4680000D01*
X4289700Y4675300D01*
Y4516900D01*
X4298700Y4507900D01*
X3307200Y3561700D02*
Y3595000D01*
X3307200Y3561700D02*
X3334700Y3567500D01*
X3307200Y3561700D02*
X3334700Y3589200D01*
Y3595000D01*
Y3633890D01*
X4402200Y4665700D02*
X4370000Y4697900D01*
Y4719640D01*
X4244690Y4844950D01*
Y4845310D01*
X4230000Y4860000D01*
Y5945000D01*
X3937210Y6237790D01*
Y6237900D01*
X3852210Y6322900D01*
Y6682700D01*
X3652010Y6882900D01*
X3499700D01*
X3467200Y6915400D01*
X3439700D01*
X3467200Y6915400D02*
Y6942900D01*
X3467200Y6915400D02*
X3439700Y6942900D01*
X4760810Y1012900D02*
X4532100D01*
X4370000Y1175000D01*
Y1215000D01*
X4170000Y1415000D01*
X4130000D01*
X3824700Y1720300D01*
Y2127890D01*
X3622190Y2330400D01*
Y2460550D01*
X3629200Y2467560D01*
Y2834970D01*
X3679700Y2885470D01*
Y2904010D01*
X3722450Y1645650D02*
X3749950Y1618150D01*
X3722450Y1645650D02*
Y1618150D01*
X3722450Y1645650D02*
X3749950D01*
X3779700Y3242900D02*
X3792100D01*
X3817600Y3217400D01*
X3817960D01*
X3854200Y3181160D01*
Y3180800D01*
X3929200Y3105800D01*
Y2862410D01*
X3730200Y2663410D01*
Y2622390D01*
X3759190Y2593400D01*
X3799210D01*
X3859700Y2532910D01*
Y1725300D01*
X4140000Y1445000D01*
X4185000D01*
X4407200Y1222800D01*
X3677200Y3677800D02*
X3705000Y3650000D01*
Y3430000D01*
X3842600Y3292400D01*
X3900210D01*
X4029200Y3163410D01*
Y2914200D01*
X3860000Y2745000D01*
Y2723200D01*
X3807200Y2670400D01*
X3779700Y2642900D01*
X3807200Y2670400D02*
X3779700D01*
X3807200Y2670400D02*
Y2642900D01*
X3746750Y2563400D02*
X3760260Y2549900D01*
X3746750Y2563400D02*
X3759200D01*
X3779700Y2542900D01*
X4169700Y4511200D02*
X4175700Y4505200D01*
Y4175700D01*
X4097900Y4097900D01*
X3992000D01*
X3960700Y4066600D01*
Y3932430D01*
X3910920Y3882650D01*
X3805300D01*
X3777500Y3854860D01*
X3777490D01*
X3707630Y3785000D01*
X3640000D01*
X3585000Y3730000D01*
Y3509670D01*
X3729700Y3364970D01*
Y3215340D01*
X3752640Y3192400D01*
X3807600D01*
X3829200Y3170800D01*
Y2804840D01*
X3700200Y2675840D01*
Y2609950D01*
X3746750Y2563400D01*
X3675200Y2586290D02*
X3699150Y2562350D01*
X3675200Y2586290D02*
X3660250Y2562350D01*
X3675200Y2586290D02*
Y2547400D01*
X3679700Y2542900D01*
X3679700Y2904010D02*
X3660250Y2923450D01*
X3679700Y2904010D02*
X3699150Y2923450D01*
X3679700Y2904010D02*
Y2942900D01*
X3579700Y3104010D02*
Y3142900D01*
X3579700Y3104010D02*
X3599150Y3123450D01*
X3807200Y3410400D02*
X3779700D01*
X3807200Y3410400D02*
Y3437900D01*
X3807200Y3410400D02*
X3779700Y3437900D01*
X5084700Y1579260D02*
Y1552900D01*
X5034700Y1502900D01*
X4122100D01*
X4020000Y1605000D01*
Y2315000D01*
X3925000Y2410000D01*
Y2765000D01*
X4059200Y2899200D01*
Y3175840D01*
X3912640Y3322400D01*
X3895200D01*
X3807200Y3410400D01*
X3607200Y3300400D02*
X3579700Y3315400D01*
X3607200Y3300400D02*
X3579700Y3327900D01*
Y3342900D01*
X3677200Y3677800D02*
X3649700Y3680400D01*
X3677200Y3677800D02*
Y3707900D01*
X3649700Y3707900D02*
Y3705300D01*
X3677200Y3677800D01*
X3807200Y3515400D02*
X3779700D01*
X3807200Y3515400D02*
Y3542900D01*
X3807200Y3515400D02*
X3779700Y3542900D01*
X4539880Y2240000D02*
X4512590D01*
X4430200Y2322390D01*
Y2689800D01*
X4330000Y2790000D01*
Y2862610D01*
X4229200Y2963410D01*
Y3090700D01*
X3959700Y3360200D01*
Y3442900D01*
X3889700Y3512900D01*
X3809700D01*
X3807200Y3515400D01*
X3640200Y6510200D02*
Y6543200D01*
X3640200Y6510200D02*
X3667700Y6515700D01*
X3667700Y6543200D02*
Y6537700D01*
X3640200Y6510200D01*
X3767200Y6640400D02*
Y6670200D01*
X3767200Y6640400D02*
X3794700Y6642700D01*
X3767200Y6640400D02*
X3794700Y6667900D01*
Y6670200D01*
X4104700Y1636790D02*
X4085250Y1617350D01*
X4104700Y1636790D02*
Y2134700D01*
X4129200Y2159200D01*
Y2659200D01*
X4224500Y2754500D01*
Y2895500D01*
X4115000Y3005000D01*
Y3162470D01*
X3929200Y3348270D01*
Y3393400D01*
X3907200Y3415400D01*
X3879700D01*
X3907200Y3415400D02*
Y3442900D01*
X3907200Y3415400D02*
X3879700Y3442900D01*
X4449600Y2770400D02*
X4429200Y2790800D01*
Y2870800D01*
X4407600Y2892400D01*
X4349980D01*
X4329200Y2913180D01*
Y3063410D01*
X3989700Y3402910D01*
Y3622900D01*
X3899700Y3712900D01*
X3893590D01*
X3874150Y3693450D01*
X3893590Y3712900D02*
X3874150Y3732350D01*
X3893590Y3712900D02*
X3854700D01*
X4022200Y4360400D02*
X4049700Y4387900D01*
X4022200Y4360400D02*
X4049700D01*
X4022200Y4360400D02*
Y4387900D01*
X3895140Y4481850D02*
Y4509350D01*
X3895140Y4481850D02*
X3922640D01*
X3895140Y4481850D02*
X3922640Y4509350D01*
X4549600Y2770400D02*
X4530200Y2789800D01*
Y2862410D01*
X4499210Y2893400D01*
X4451600D01*
X4429200Y2915800D01*
Y3569610D01*
X4713200Y3853610D01*
Y4018200D01*
X4755000Y4060000D01*
Y4152600D01*
X4315000Y4592600D01*
Y4689140D01*
X4226440Y4777700D01*
X4082300D01*
X4025000Y4835000D01*
Y4877610D01*
X3932210Y4970400D01*
X3892200Y4610400D02*
Y4637900D01*
X3892200Y4610400D02*
X3919700D01*
X3919700Y4637900D02*
X3892200Y4610400D01*
X3932210Y4970400D02*
X3899700D01*
X3932210Y4970400D02*
X3927200Y4997900D01*
X3932210Y4970400D02*
X3904710Y4997900D01*
X3899700D01*
X4017200Y4975400D02*
X3989700D01*
X4017200Y4975400D02*
Y5002900D01*
X4017200Y4975400D02*
X3989700Y5002900D01*
X4552200Y2880400D02*
X4530200Y2902400D01*
Y3495200D01*
X4743200Y3708200D01*
Y3998200D01*
X4780000Y4035000D01*
Y4170030D01*
X4340000Y4610030D01*
Y4699500D01*
X4231590Y4807910D01*
X4109720D01*
X4109580Y4808030D01*
X4094190Y4823400D01*
X4059700Y4857890D01*
Y4932900D01*
X4017200Y4975400D01*
X3949200Y6515700D02*
X4005000Y6459900D01*
Y6305000D01*
X4269700Y6040300D01*
Y4855300D01*
X4417100Y4707900D01*
X4454700D01*
X4484700Y4677900D01*
Y4507760D01*
X4809200Y4183260D01*
Y4026450D01*
X4792140Y4009380D01*
X4773200Y3990440D01*
Y3688200D01*
X4730000Y3645000D01*
Y3410000D01*
X4679700Y3359700D01*
Y3181790D01*
X3949200Y6642700D02*
X4055000Y6536900D01*
Y6320000D01*
X4304700Y6070300D01*
Y4893200D01*
X4372900Y4825000D01*
X4442610D01*
X4495000Y4772610D01*
Y4745000D01*
X4532100Y4707900D01*
X4832100D01*
X4944700Y4595300D01*
Y2924700D01*
X4885000Y2865000D01*
Y2705000D01*
X4630200Y2450200D01*
Y2219560D01*
X4553540Y2142900D01*
X4518590D01*
X3949200Y6515700D02*
X3921700D01*
X3949200Y6515700D02*
Y6543200D01*
X3921700Y6543200D02*
X3949200Y6515700D01*
X3949200Y6642700D02*
X3921700Y6670200D01*
X3949200Y6642700D02*
Y6670200D01*
X3949200Y6642700D02*
X3921700D01*
X4242200Y1220400D02*
X4269700D01*
X4242200Y1220400D02*
Y1192900D01*
X4269700Y1192900D02*
X4242200Y1220400D01*
X4104700Y1597900D02*
Y1636790D01*
X4124150Y1617350D01*
X4274700Y2199010D02*
Y1832900D01*
X4382200Y1725400D01*
X4379700Y2304010D02*
X4360250Y2323450D01*
X4274700Y2199010D02*
X4255250Y2218450D01*
X4274700Y2199010D02*
X4294150Y2218450D01*
X4274700Y2237900D02*
Y2199010D01*
X4148200Y4610700D02*
Y4638200D01*
X4148200Y4610700D02*
X4175700D01*
X4175700Y4638200D02*
X4148200Y4610700D01*
X4407200Y1222800D02*
X4434700Y1220400D01*
X4407200Y1222800D02*
Y1192900D01*
X4407200Y1222800D02*
X4434700Y1195300D01*
Y1192900D01*
X4695560Y1618150D02*
X4673660D01*
X4541700Y1750110D01*
Y1842010D01*
X4520250Y1863450D01*
X4541700Y1842010D02*
X4559150Y1863450D01*
X4541700Y1842010D02*
Y1880900D01*
X4539700Y1882900D01*
X4479700Y1786790D02*
X4499150Y1767350D01*
X4479700Y1786790D02*
X4460250Y1767350D01*
X4479700Y1786790D02*
Y1747900D01*
X4379700Y2304010D02*
Y2275300D01*
X4429200Y2225800D01*
Y2068400D01*
X4479700Y2017900D01*
Y1786790D01*
X4382200Y1725400D02*
X4409700Y1697900D01*
X4382200Y1725400D02*
Y1697900D01*
X4382200Y1725400D02*
X4409700D01*
X4518590Y2142900D02*
X4499150Y2123450D01*
X4379700Y2304010D02*
X4399150Y2323450D01*
X4379700Y2342900D02*
Y2304010D01*
X4518590Y2142900D02*
X4499150Y2162350D01*
X4518590Y2142900D02*
X4479700D01*
X4539880Y2240000D02*
X4578770D01*
X4579700Y2239070D01*
X4539880Y2240000D02*
X4560250Y2219620D01*
X4539880Y2240000D02*
X4560250Y2258520D01*
X4549600Y2770400D02*
X4579700D01*
X4549600Y2770400D02*
X4552200Y2742900D01*
X4549600Y2770400D02*
X4577100Y2742900D01*
X4579700D01*
X4552200Y2880400D02*
X4579700Y2852900D01*
Y2842900D01*
X4552200Y2880400D02*
X4579700Y2870400D01*
X4449600Y2770400D02*
X4472100Y2747900D01*
X4474700D01*
X4479700Y2742900D01*
X4449600Y2770400D02*
X4452200Y2742900D01*
X4449600Y2770400D02*
X4479700D01*
X4514950Y4262650D02*
X4542450D01*
X4514950Y4262650D02*
Y4235150D01*
X4514950Y4262650D02*
X4542450Y4235150D01*
X4402200Y4665700D02*
X4429700D01*
X4402200Y4665700D02*
Y4638200D01*
X4429700Y4638200D02*
X4402200Y4665700D01*
X4760810Y1012900D02*
X4780250Y1032350D01*
X4760810Y1012900D02*
X4780250Y993450D01*
X4760810Y1012900D02*
X4799700D01*
X4877200Y980400D02*
Y1007900D01*
X4877200Y980400D02*
X4904700D01*
X4877200Y980400D02*
X4904700Y1007900D01*
X4695560Y1618150D02*
X4715000Y1598700D01*
X4695560Y1618150D02*
X4715000Y1637600D01*
X4734450Y1618150D02*
X4695560D01*
X4739700Y1771790D02*
X4759150Y1752350D01*
X4739700Y1771790D02*
X4720250Y1752350D01*
X4739700Y1771790D02*
Y1732900D01*
X4722200Y2320400D02*
X4729200Y2313400D01*
Y2174000D01*
X4710200Y2155000D01*
Y2049800D01*
X4819200Y1940800D01*
Y1874200D01*
X4739700Y1794700D01*
Y1771790D01*
X4834700Y1776790D02*
X4854150Y1757350D01*
X4834700Y1776790D02*
X4815250Y1757350D01*
X4834700Y1776790D02*
Y1737900D01*
X4804600Y2415400D02*
X4844200Y2375800D01*
Y2182390D01*
X4830200Y2168390D01*
Y2075000D01*
X4850000Y2055200D01*
Y1855300D01*
X4834700Y1840000D01*
Y1776790D01*
X4722200Y2320400D02*
X4694700D01*
X4722200Y2320400D02*
Y2347900D01*
X4722200Y2320400D02*
X4694700Y2347900D01*
X4804600Y2415400D02*
X4774700D01*
X4804600Y2415400D02*
X4802200Y2442900D01*
X4804600Y2415400D02*
X4777100Y2442900D01*
X4774700D01*
X4679700Y3181790D02*
X4699150Y3162350D01*
X4679700Y3181790D02*
X4660250Y3162350D01*
X4679700Y3181790D02*
Y3142900D01*
X4764990Y3359180D02*
X4765000Y3359190D01*
Y3360000D01*
X4780000Y3345000D01*
Y3365000D01*
X4830200Y3415200D01*
Y3813400D01*
X4919700Y3902900D01*
Y4147900D01*
X4879700Y4187900D01*
Y4572900D01*
X4837200Y4615400D01*
X4699700Y4121790D02*
X4719150Y4102350D01*
X4699700Y4121790D02*
X4680250Y4102350D01*
X4699700Y4121790D02*
Y4082900D01*
X4837200Y4615400D02*
X4809700D01*
X4837200Y4615400D02*
Y4642900D01*
X4837200Y4615400D02*
X4809700Y4642900D01*
X5084700Y1579260D02*
X5065250Y1598700D01*
X5084700Y1579260D02*
X5104150Y1598700D01*
X5084700Y1579260D02*
Y1618150D01*
X4979700Y2464010D02*
Y2345300D01*
X5130000Y2195000D01*
Y1835000D01*
X5249700Y1715300D01*
Y1071790D01*
X4924450Y1834010D02*
X4905000Y1853450D01*
X4924450Y1834010D02*
X4943900Y1853450D01*
X4924450Y1834010D02*
Y1657040D01*
X4943900Y1637600D01*
X4924450Y1657040D02*
X4905000Y1637600D01*
X4924450Y1657040D02*
Y1618150D01*
X4924450Y1872900D02*
Y1834010D01*
X4979700Y2464010D02*
X4960250Y2483450D01*
X4979700Y2464010D02*
X4999150Y2483450D01*
X4979700Y2464010D02*
Y2502900D01*
X5199700Y6498290D02*
X5160810D01*
X6444550Y7061300D02*
X6277950Y7227900D01*
X5439700D01*
X5419700Y7207900D01*
Y7082900D01*
X5395700Y7058900D01*
X5215190D01*
X5205190Y7068900D01*
Y7237900D01*
X5195190Y7247900D01*
X5175190D01*
X5165190Y7237900D01*
Y7068900D01*
X5155190Y7058900D01*
X5135190D01*
X5125190Y7068900D01*
Y7237900D01*
X5115190Y7247900D01*
X5095190D01*
X5085190Y7237900D01*
Y7068900D01*
X5075190Y7058900D01*
X5036200D01*
X5033700Y7061400D01*
X4990200D01*
X4987700Y7058900D01*
X4975840D01*
X4956400Y7039450D01*
X4975840Y7058900D02*
X4956400Y7078350D01*
X4975840Y7058900D02*
X4936950D01*
X5277200Y870400D02*
Y842900D01*
X5277200Y870400D02*
X5249700D01*
X5277200Y870400D02*
X5305000Y898200D01*
Y1720000D01*
X5250000Y1775000D01*
Y2370000D01*
X5429700Y2549700D01*
Y2674010D01*
X5249700Y842900D02*
X5277200Y870400D01*
X5249700Y1071790D02*
X5269150Y1052350D01*
X5249700Y1071790D02*
X5230250Y1052350D01*
X5249700Y1071790D02*
Y1032900D01*
X5431450Y878540D02*
X5450900Y859100D01*
X5431450Y878540D02*
X5412000Y859100D01*
X5431450Y878540D02*
Y1266150D01*
X5455000Y1289700D01*
Y2478200D01*
X5527200Y2550400D01*
X5431450Y839650D02*
Y878540D01*
X5429700Y2674010D02*
X5410250Y2693450D01*
X5429700Y2674010D02*
X5449150Y2693450D01*
X5429700Y2674010D02*
Y2712900D01*
X5240840Y6423900D02*
X5221400Y6404450D01*
X6519450Y6621400D02*
X6356150Y6784700D01*
X5726500D01*
X5651200Y6709400D01*
X5438700D01*
X5428700Y6699400D01*
Y6476400D01*
X5418700Y6466400D01*
X5398700D01*
X5388700Y6476400D01*
Y6692900D01*
X5378700Y6702900D01*
X5358700D01*
X5348700Y6692900D01*
Y6476400D01*
X5338700Y6466400D01*
X5318700D01*
X5308700Y6476400D01*
Y6692900D01*
X5298700Y6702900D01*
X5278700D01*
X5268700Y6692900D01*
Y6508290D01*
X5258700Y6498290D01*
X5199700D01*
X5180260Y6478840D01*
X5199700Y6498290D02*
X5180260Y6517740D01*
X6434450Y6621400D02*
X6409450Y6646400D01*
X6301200D01*
X6209700Y6737900D01*
X5759700D01*
X5721450Y6699650D01*
Y6407900D01*
X5711450Y6397900D01*
X5593700D01*
X5583700Y6407900D01*
Y6587900D01*
X5573700Y6597900D01*
X5553700D01*
X5543700Y6587900D01*
Y6433900D01*
X5533700Y6423900D01*
X5513700D01*
X5503700Y6433900D01*
Y6587900D01*
X5493700Y6597900D01*
X5473700D01*
X5463700Y6587900D01*
Y6433900D01*
X5453700Y6423900D01*
X5240840D01*
X5221400Y6443350D01*
X5240840Y6423900D02*
X5201950D01*
X6327200Y1035400D02*
X6209700Y1152900D01*
X5759700D01*
X5634700Y1277900D01*
Y1789010D01*
X5587200Y1900400D02*
Y1872900D01*
X5587200Y1900400D02*
X5559700Y1872900D01*
X5634700Y1789010D02*
X5615250Y1808450D01*
X5634700Y1789010D02*
X5654150Y1808450D01*
X5634700Y1789010D02*
Y1827900D01*
X5594700Y2684010D02*
Y2665300D01*
X5615000Y2645000D01*
Y1928200D01*
X5587200Y1900400D01*
X5559700D01*
X5527200Y2550400D02*
Y2577900D01*
X5527200Y2550400D02*
X5554700D01*
X5527200Y2550400D02*
X5554700Y2577900D01*
X5594700Y2684010D02*
X5575250Y2703450D01*
X5594700Y2684010D02*
X5614150Y2703450D01*
X5594700Y2722900D02*
Y2684010D01*
X5646950Y6903900D02*
X5881120D01*
X5891120Y6913900D01*
Y7133900D01*
X5901120Y7143900D01*
X6032100D01*
X6042100Y7133900D01*
Y7113900D01*
X6032100Y7103900D01*
X5941120D01*
X5931120Y7093900D01*
Y7073900D01*
X5941120Y7063900D01*
X6032100D01*
X6042100Y7053900D01*
Y7033900D01*
X6032100Y7023900D01*
X5941120D01*
X5931120Y7013900D01*
Y6993900D01*
X5941120Y6983900D01*
X6032100D01*
X6042100Y6973900D01*
Y6953900D01*
X6032100Y6943900D01*
X5941120D01*
X5931120Y6933900D01*
Y6913900D01*
X5941120Y6903900D01*
X6042100D01*
X6089700Y6856300D01*
X6159350D01*
X6216950Y6913900D01*
X7103060D01*
X5576690Y7003900D02*
X5557250Y6984450D01*
X5576690Y7003900D02*
X5557250Y7023350D01*
X5576690Y7003900D02*
X5537800D01*
X6981950Y7015010D02*
Y7005000D01*
X6958250Y6981300D01*
X6444550D01*
X6237950Y7187900D01*
X5864710D01*
X5854710Y7177900D01*
Y7012900D01*
X5844710Y7002900D01*
X5824710D01*
X5814710Y7012900D01*
Y7177900D01*
X5804710Y7187900D01*
X5779710D01*
X5769710Y7177900D01*
Y7013900D01*
X5759710Y7003900D01*
X5739710D01*
X5729710Y7013900D01*
Y7177900D01*
X5719710Y7187900D01*
X5699710D01*
X5689710Y7177900D01*
Y7013900D01*
X5679710Y7003900D01*
X5659710D01*
X5649710Y7013900D01*
Y7177900D01*
X5639710Y7187900D01*
X5619710D01*
X5609710Y7177900D01*
Y7013900D01*
X5599710Y7003900D01*
X5576690D01*
X5786950Y6428900D02*
X5769700D01*
X5759700Y6438900D01*
Y6697900D01*
X5769700Y6707900D01*
X5794700D01*
X5804700Y6697900D01*
Y6537900D01*
X5814700Y6527900D01*
X5834700D01*
X5844700Y6537900D01*
Y6697900D01*
X5854700Y6707900D01*
X5874700D01*
X5884700Y6697900D01*
Y6537900D01*
X5894700Y6527900D01*
X5914700D01*
X5924700Y6537900D01*
Y6697900D01*
X5934700Y6707900D01*
X6199700D01*
X6296200Y6611400D01*
X6344450D01*
X6421700Y6534150D01*
X6769150D01*
X6819200Y6584200D01*
Y6614200D01*
X6865000Y6660000D01*
X6930850D01*
X6958080Y6632770D01*
X6887700Y714900D02*
X6924700Y751900D01*
Y1242900D01*
X6619700Y1547900D01*
X6168590D01*
X6149150Y1528450D01*
X6168590Y1547900D02*
X6149150Y1567350D01*
X6168590Y1547900D02*
X6129700D01*
X6319700Y2021790D02*
Y2185300D01*
X6019600Y2485400D01*
X5992100Y2512900D01*
X5989700D01*
X6019600Y2485400D02*
X6017200Y2512900D01*
X6019600Y2485400D02*
X5989700D01*
X6247500Y3512200D02*
X6220000Y3517500D01*
X6220000Y3545000D02*
Y3539700D01*
X6247500Y3512200D01*
X6180840Y4763900D02*
X6161400Y4744450D01*
X6180840Y4763900D02*
X6161400Y4783350D01*
X6180840Y4763900D02*
X6141950D01*
X6835440Y4926400D02*
X6739450D01*
X6685690Y4872640D01*
X6606960D01*
X6580700Y4898900D01*
X6411950D01*
X6276950Y4763900D01*
X6180840D01*
X7680460Y5022850D02*
X7253850D01*
X7203700Y4972700D01*
X7146910D01*
X7100710Y5018900D01*
X6997450D01*
X6965750Y4987200D01*
X6848650D01*
X6761460Y5074390D01*
X6567920D01*
X6563700Y5070170D01*
X6446430D01*
X6445560Y5071040D01*
X6227980D01*
X6208540Y5051590D01*
X6227980Y5071040D02*
X6208540Y5090490D01*
X6227980Y5071040D02*
X6189090D01*
X6269650Y6193520D02*
X6230760D01*
X6327200Y1035400D02*
X6354700D01*
X6327200Y1035400D02*
Y1007900D01*
X6354700Y1007900D02*
X6327200Y1035400D01*
X6319700Y1982900D02*
Y2021790D01*
X6300250Y2002350D01*
X6319700Y2021790D02*
X6339150Y2002350D01*
X6247500Y3512200D02*
X6274700Y3485000D01*
Y3171790D01*
X6294150Y3152350D01*
X6274700Y3171790D02*
X6255250Y3152350D01*
X6274700Y3171790D02*
Y3132900D01*
X6247500Y3512200D02*
Y3545000D01*
X6461950Y4834900D02*
X6478450Y4851400D01*
X6578690D01*
X6592450Y4837640D01*
X6700190D01*
X6735880Y4873330D01*
X7077520D01*
X7116950Y4833900D01*
X7574350D01*
X7587800Y4847350D01*
X7646170D01*
X6502230Y5258900D02*
X6482790Y5239450D01*
X6502230Y5258900D02*
X6482790Y5278350D01*
X6502230Y5258900D02*
X6463340D01*
X6370840Y5225200D02*
X6351400Y5205750D01*
X6370840Y5225200D02*
X6351400Y5244650D01*
X6370840Y5225200D02*
X6331950D01*
X7841900Y5244530D02*
X7800470D01*
X7667300Y5377700D01*
X6845000D01*
X6798700Y5331400D01*
X6668200D01*
X6548750Y5211950D01*
X6505000D01*
X6493050Y5200000D01*
X6410850D01*
X6385650Y5225200D01*
X6370840D01*
X7701950Y5173900D02*
Y5163900D01*
X7588150Y5277700D01*
X7045580D01*
X6974280Y5206400D01*
X6785200D01*
X6755750Y5176950D01*
X6521810D01*
X6478760Y5133900D01*
X6456950D01*
X6346950Y5358900D02*
X6361950Y5373900D01*
X6497270D01*
X6559770Y5436400D01*
X6645450D01*
X6692950Y5483900D01*
X6966950D01*
X6985650Y5465200D01*
X7739800D01*
X7841150Y5363850D01*
Y5361500D01*
X6492050Y6004780D02*
X6492000D01*
X6491950Y6004730D01*
X6530990D01*
X6269650Y6193520D02*
X6250210Y6174070D01*
X6269650Y6193520D02*
X6250210Y6212970D01*
X7501110Y6210000D02*
X7238250D01*
X7178250Y6150000D01*
X7095450D01*
X7085450Y6160000D01*
X6980000D01*
X6968900Y6148900D01*
X6800000D01*
X6792500Y6141400D01*
X6553600D01*
X6529190Y6165810D01*
X6445000D01*
X6429190Y6150000D01*
X6335000D01*
X6291480Y6193520D01*
X6269650D01*
X7663060Y6438900D02*
X7251100D01*
X7220000Y6470000D01*
X6830000D01*
X6820450Y6460450D01*
X6715250D01*
X6663700Y6408900D01*
X6274330D01*
X6264450Y6418780D01*
X6434450Y6621400D02*
X6461950D01*
X6434450Y6621400D02*
Y6593900D01*
X6461950Y6593900D02*
X6434450Y6621400D01*
X6264450Y6418780D02*
X6236950D01*
X6264450Y6418780D02*
Y6446280D01*
X6264450Y6418780D02*
X6236950Y6446280D01*
X6504450Y7061300D02*
X6476950D01*
X6444550Y7061300D02*
X6476950D01*
X6444550Y7061300D02*
X6449450Y7033800D01*
X6476950Y7033800D02*
X6504450Y7061300D01*
X6476950Y7033800D02*
X6472050D01*
X6444550Y7061300D01*
X7909450Y4794450D02*
X7898900Y4783900D01*
X7096200D01*
X7073700Y4761400D01*
X6809450D01*
X6776960Y4793890D01*
X6600850D01*
X6576400Y4779450D01*
X6600850Y4793890D02*
X6576400Y4818350D01*
X6600850Y4793890D02*
X6577960D01*
X6572950Y4798900D01*
X6556950D01*
X6502230Y5258900D02*
X6546200D01*
X6723700Y5436400D01*
X6835000D01*
X6846400Y5425000D01*
X7686190D01*
X7836190Y5275000D01*
X7891720D01*
X7919250Y5247470D01*
X6580840Y5122670D02*
X6561400Y5103220D01*
X6580840Y5122670D02*
X6561400Y5142120D01*
X6580840Y5122670D02*
X6541950D01*
X8091950Y5019200D02*
X8082080D01*
X8023430Y5077850D01*
X7700100D01*
X7688650Y5066400D01*
X7470000D01*
X7458700Y5077700D01*
X7050750D01*
X7038050Y5065000D01*
X6956400D01*
X6920000Y5101400D01*
X6785200D01*
X6763930Y5122670D01*
X6580840D01*
X6530990Y6004730D02*
X6511500Y5985330D01*
X6530990Y6004730D02*
X6511500Y6024230D01*
X6530990Y6004730D02*
X6809730D01*
X6840000Y6035000D01*
X6963600D01*
X6980000Y6051400D01*
X7688600D01*
X7715000Y6025000D01*
X7845000D01*
X7890000Y6070000D01*
X8018840D01*
X8034940Y6053900D01*
X8048060D01*
X6620840Y6193900D02*
X6601400Y6174450D01*
X6620840Y6193900D02*
X6601400Y6213350D01*
X6620840Y6193900D02*
X6581950D01*
X7914450Y6176400D02*
X7888050Y6150000D01*
X7730000D01*
X7610000Y6270000D01*
X7130000D01*
X7088900Y6228900D01*
X6961100D01*
X6928600Y6261400D01*
X6709650D01*
X6642150Y6193900D01*
X6620840D01*
X6669450Y6489450D02*
Y6461400D01*
X6669450Y6489450D02*
X6641950Y6488900D01*
X6669450Y6489450D02*
X6641950Y6461950D01*
Y6461400D01*
X7904450Y6456400D02*
X7855850Y6505000D01*
X6810000D01*
X6805000Y6500000D01*
X6680000D01*
X6669450Y6489450D01*
X6519450Y6621400D02*
X6546950D01*
X6519450Y6621400D02*
Y6593900D01*
X6571700Y6569150D02*
X6549700D01*
X6571700Y6569150D02*
X6571690Y6591150D01*
X6571700Y6569150D02*
X6546950Y6593900D01*
X6571700Y6569150D02*
X6744150D01*
X6784200Y6609200D01*
Y6629200D01*
X6846500Y6691500D01*
X7004350D01*
X7106250Y6589600D01*
X7961950D01*
X6546950Y6593900D02*
X6519450Y6621400D01*
X6754450Y6661400D02*
X6749450Y6633900D01*
X6754450Y6661400D02*
X6721950D01*
X6754450Y6661400D02*
X6824450Y6731400D01*
X7085200D01*
X7095200Y6741400D01*
X7834450D01*
X7869450Y6706400D01*
X8148200D01*
X8149000Y6705600D01*
X8229810D01*
X6721950Y6633900D02*
X6726950D01*
X6754450Y6661400D01*
X6701950Y6788900D02*
X6724450Y6766400D01*
X7070700D01*
X7080700Y6776400D01*
X7858250D01*
X7893250Y6741400D01*
X7996450D01*
X8018950Y6763900D01*
X8073060D01*
X6593090Y6813550D02*
X6573650Y6794100D01*
X6593090Y6813550D02*
X6573650Y6833000D01*
X6593090Y6813550D02*
X6554200D01*
X7946950Y6828900D02*
X7929500D01*
X7904500Y6853900D01*
X6986200D01*
X6968700Y6871400D01*
X6710200D01*
X6652350Y6813550D01*
X6593090D01*
X6504450Y7061300D02*
Y7033800D01*
X6504450Y7061300D02*
X6549550Y7106400D01*
X7728200D01*
X7745900Y7088700D01*
X6964700Y716790D02*
X6984150Y697350D01*
X6964700Y716790D02*
X6945250Y697350D01*
X6964700Y716790D02*
Y1673500D01*
X6857500Y1780700D01*
X6964700Y677900D02*
Y716790D01*
X6887700Y714900D02*
Y687400D01*
X6887700Y714900D02*
X6860200D01*
X6860200Y687400D02*
X6887700Y714900D01*
X6857500Y1780700D02*
X6830000Y1808200D01*
X6857500Y1780700D02*
Y1808200D01*
X6857500Y1780700D02*
X6830000D01*
X6835440Y4926400D02*
X6859390Y4950360D01*
X6835440Y4926400D02*
X6859390Y4911460D01*
X6878840Y4930910D02*
X6896830Y4948900D01*
X6976950D01*
X7011950Y4983900D01*
X7086200D01*
X7132400Y4937700D01*
X7133150D01*
X7201950Y4868900D01*
X7559850D01*
X7594850Y4903900D01*
X8130650D01*
X8151950Y4925200D01*
X6878840Y4930910D02*
X6876830Y4928900D01*
X6876820D01*
X6874320Y4926400D01*
X6835440D01*
X6805840Y5268900D02*
X6786400Y5249450D01*
X6805840Y5268900D02*
X6786400Y5288350D01*
X6805840Y5268900D02*
X6766950D01*
X8228060Y5233900D02*
X8088900D01*
X8019530Y5164530D01*
X7825470D01*
X7677300Y5312700D01*
X7031080D01*
X6987280Y5268900D01*
X6805840D01*
X6914450Y6576500D02*
X6886950D01*
X6914450Y6576500D02*
Y6604000D01*
X6914450Y6576500D02*
X6938180Y6552770D01*
X8015820D01*
X8081950Y6618900D01*
X8111950D01*
X6886950Y6604000D02*
X6914450Y6576500D01*
X6958080Y6632770D02*
X6986690D01*
X6958080Y6632770D02*
X6959190Y6605270D01*
X6958080Y6632770D02*
X6985580Y6605270D01*
X6986690D01*
X6985840Y6818900D02*
X6966400Y6799450D01*
X6985840Y6818900D02*
X6946950D01*
X8267900Y6807950D02*
X8259450Y6816400D01*
X8021950D01*
X7981950Y6776400D01*
X7907750D01*
X7865250Y6818900D01*
X6985840D01*
X7021940Y7055000D02*
X7001400Y7034450D01*
X7021940Y7055000D02*
X7001400Y7073350D01*
X7021940Y7055000D02*
X7665850D01*
X7714650Y7006200D01*
X7859250D01*
X7936950Y7083900D01*
X8276950D01*
X8329450Y7031400D01*
X6981950Y7015010D02*
X6962500Y7034450D01*
X6981950Y7015010D02*
X7001400Y7034450D01*
X6981950Y7053900D02*
Y7015010D01*
X6981950Y7053900D02*
X6983050Y7055000D01*
X7021940D01*
X7155840Y6688900D02*
X7136400Y6669450D01*
X7180840Y6913900D02*
X7161400Y6894450D01*
X7180840Y6913900D02*
X7161400Y6933350D01*
X7180840Y6913900D02*
X8350050D01*
X8356000Y6907950D01*
X7103060Y6913900D02*
X7122500Y6933350D01*
X7103060Y6913900D02*
X7122500Y6894450D01*
X7103060Y6913900D02*
X7141950D01*
X7180840D01*
X8330400Y6680400D02*
X8303100Y6653100D01*
X8152000D01*
X8133700Y6671400D01*
X7818600D01*
X7790000Y6700000D01*
X7490000D01*
X7478900Y6688900D01*
X7155840D01*
X7136400Y6708350D01*
X7155840Y6688900D02*
X7116950D01*
X7501110Y6210000D02*
X7540000D01*
X7501110Y6210000D02*
X7520550Y6190550D01*
X7501110Y6210000D02*
X7520550Y6229450D01*
X7680460Y5022850D02*
X7702400Y5044800D01*
X7680460Y5022850D02*
X7702400Y5005900D01*
X7721850Y5025350D02*
X7721950D01*
Y5022850D01*
X7680460D01*
X7646170Y4847350D02*
X7685060D01*
X7646170Y4847350D02*
X7665610Y4827900D01*
X7646170Y4847350D02*
X7665610Y4866800D01*
X7663060Y6438900D02*
X7682500Y6458350D01*
X7663060Y6438900D02*
X7682500Y6419450D01*
X7663060Y6438900D02*
X7701950D01*
X7745900Y7088700D02*
X7773400D01*
X7745900Y7088700D02*
Y7061200D01*
X7745900Y7088700D02*
X7773400Y7061200D01*
X7909450Y4794450D02*
Y4823900D01*
X7909450Y4794450D02*
X7936950Y4796400D01*
X7936950Y4823900D02*
X7938900D01*
X7909450Y4794450D01*
X7841150Y5361500D02*
Y5334000D01*
X7841150Y5361500D02*
X7868650Y5334000D01*
X7919250Y5247470D02*
X7954350D01*
X7919250Y5247470D02*
X7926850Y5219970D01*
X7919250Y5247470D02*
X7946750Y5219970D01*
X7954350D01*
X7841900Y5244530D02*
X7869400Y5217030D01*
X7841900Y5244530D02*
Y5217030D01*
X7841900Y5244530D02*
X7869400D01*
X7841150Y5361500D02*
X7868650D01*
X8048060Y6053900D02*
X8067500Y6073350D01*
X8048060Y6053900D02*
X8067500Y6034450D01*
X8048060Y6053900D02*
X8086950D01*
X7914450Y6176400D02*
Y6203900D01*
X7914450Y6176400D02*
X7941950D01*
X7914450Y6176400D02*
X7941950Y6203900D01*
X7904450Y6456400D02*
X7931950D01*
X7904450Y6456400D02*
Y6428900D01*
X7904450Y6456400D02*
X7931950Y6428900D01*
X7961950Y6589600D02*
Y6612100D01*
X7961950Y6589600D02*
X7984450Y6589610D01*
X7961950Y6589600D02*
X7986950Y6614600D01*
X8073060Y6763900D02*
X8092500Y6783350D01*
X8073060Y6763900D02*
X8092500Y6744450D01*
X8073060Y6763900D02*
X8111950D01*
X8228060Y5233900D02*
X8247500Y5253350D01*
X8228060Y5233900D02*
X8247500Y5214450D01*
X8228060Y5233900D02*
X8266950D01*
X8229810Y6705600D02*
X8249250Y6725050D01*
X8229810Y6705600D02*
X8249250Y6686150D01*
X8229810Y6705600D02*
X8268700D01*
X8330400Y6680400D02*
Y6707950D01*
X8330400Y6680400D02*
X8357900Y6680450D01*
X8357900Y6707950D02*
Y6707900D01*
X8330400Y6680400D01*
X8329450Y7031400D02*
X8356950D01*
X8329450Y7031400D02*
Y7003900D01*
X8329450Y7031400D02*
X8356950Y7003900D01*
X3249700Y1772900D02*
Y1769700D01*
X3170000Y1690000D01*
Y1403200D01*
X3129700Y1362900D01*
Y1062100D01*
X3646800Y545000D01*
X3265000Y1812950D02*
X3237330Y1785270D01*
X3265000Y1812950D02*
Y2185000D01*
X3210200Y2239800D01*
Y2422400D01*
X3184700Y2447900D01*
X3249700Y1772900D02*
X3265000Y1788200D01*
Y1812950D01*
X3184700Y2447900D02*
X3109700Y2522900D01*
Y2682900D01*
X3314700Y2887900D01*
Y2992900D01*
X3259700Y3047900D01*
X3219700D01*
X3264700Y3763150D02*
Y3142900D01*
X3219700Y3097900D01*
Y3047900D01*
X3264700Y3763150D02*
X3297070Y3795530D01*
X3284700Y3807900D02*
X3264700Y3787900D01*
Y3763150D01*
X3749700Y3702900D02*
Y3759700D01*
X3792900Y3802900D01*
X4124700D01*
X4224700Y3702900D01*
X4379700D01*
X4383700Y3706900D01*
X6845130Y5153900D02*
X6826040Y5134810D01*
X6845130Y5153900D02*
X6826040Y5172990D01*
X6845130Y5153900D02*
X6806950D01*
X8059470Y5120900D02*
X7669990D01*
X7618690Y5172200D01*
X7058610D01*
X7048910Y5181900D01*
X6999990D01*
X6971990Y5153900D01*
X6845130D01*
X8101950Y5125200D02*
X8097650Y5120900D01*
X8059470D01*
X8082860Y5106110D01*
X8059470Y5120900D02*
X8082860Y5144290D01*
X4659700Y4872900D02*
Y4907900D01*
X4616000Y4951600D01*
X4488400D01*
X4429700Y4892900D01*
X4494700Y4827900D01*
X4628700D01*
X4659700Y4858900D01*
Y4872900D01*
X5024700D01*
X5144700Y4752900D01*
Y4317900D01*
X5114700Y4287900D01*
Y3902900D01*
X5190000Y3827600D01*
Y3247900D01*
X5035000Y3092900D01*
X5034700D01*
X5034700Y2597900D02*
Y3092900D01*
X2856090Y531150D02*
X2691450D01*
X2504700Y717900D01*
Y852900D01*
X3056950Y552900D02*
X2989700Y620150D01*
Y757390D01*
X2856090Y531150D02*
X2873770Y548830D01*
X2856090Y531150D02*
X2873770Y513470D01*
X2891450Y531150D02*
X2856090D01*
X3081950Y527900D02*
X3056950Y552900D01*
Y527900D01*
X3056950Y552900D02*
X3081950D01*
D11*
X9038000Y1573920D02*
X9165000D01*
Y1509580D01*
X9112090Y1442810D02*
X9097270Y1431550D01*
X9088800Y1421900D01*
X9084570Y1409030D01*
X9088800Y1397770D01*
X9097270Y1389730D01*
X9109970Y1383300D01*
X9124780Y1381690D01*
X9137490Y1383300D01*
X9150190Y1389730D01*
X9160770Y1399380D01*
X9165000Y1410640D01*
X9160770Y1423510D01*
X9148070Y1434770D01*
X9129020Y1441200D01*
X9107850Y1442810D01*
X9080340Y1439590D01*
X9065510Y1434770D01*
X9050700Y1426730D01*
X9040120Y1415470D01*
X9038000Y1404210D01*
X9042230Y1392950D01*
X9052820Y1384910D01*
D12*
X509700Y1647900D03*
Y1877900D03*
X574700Y2252400D03*
X669700Y2452900D03*
X510200Y2443650D03*
X507920Y2445890D03*
X509700Y2622900D03*
Y2917900D03*
Y2802900D03*
Y3027900D03*
Y3212900D03*
X564700Y3482900D03*
X510200Y3396150D03*
Y3586650D03*
Y3777150D03*
Y3967650D03*
X504700Y4107900D03*
X529700Y4682900D03*
X605700Y5007900D03*
X609700Y5167900D03*
Y5302900D03*
X654700Y5591900D03*
X637750Y5729000D03*
X674700Y7187900D03*
X639700Y7037900D03*
X700700Y1557900D03*
X797720Y1893930D03*
X709700Y1747900D03*
X849700Y1742900D03*
X700700Y1966900D03*
Y2156900D03*
X903790Y2119030D03*
X849700Y2037900D03*
X699700Y2347900D03*
X779700Y2452900D03*
X874100Y2442190D03*
X878120Y2838420D03*
X894700Y3260000D03*
X844700Y4347900D03*
X834700Y4827900D03*
X684700Y4767900D03*
X834700Y5032900D03*
X679700Y4897900D03*
X834700Y5227900D03*
X863250Y5616450D03*
X934700Y5724000D03*
X869700Y6922900D03*
X850000Y7197900D03*
X814700Y7587900D03*
X1134700Y987900D03*
X954700Y932900D03*
X1145200Y1222400D03*
X1169700Y1772900D03*
X1194700Y1867900D03*
X1131700Y1984900D03*
X1124700Y2112900D03*
Y2244900D03*
X1154700Y2772900D03*
X1164700Y2892900D03*
Y3177900D03*
X1104700Y3107900D03*
X1139700Y3349900D03*
X1164700Y3777900D03*
X964700Y3657900D03*
X1059700Y4032900D03*
X992930Y4122900D03*
X1054700Y4207900D03*
X1194700Y4412900D03*
X969700Y4347900D03*
X1049700Y4492900D03*
X1134700Y5027900D03*
X1034700Y5227900D03*
X1132430Y5230170D03*
Y5330170D03*
X1029700Y5127900D03*
X1034700Y5637900D03*
X1134700D03*
Y5527900D03*
Y5427900D03*
X979700Y6672900D03*
X1164700D03*
X1159700Y7082900D03*
X1350950Y706650D03*
X1244900Y660000D03*
X1329900Y1192700D03*
X1349700Y1902900D03*
X1464700Y1767900D03*
X1454700Y1962900D03*
X1459700Y2542900D03*
X1332700Y2829900D03*
X1374700Y3152900D03*
X1342190Y3022900D03*
X1229700Y3414930D03*
X1399700Y3447900D03*
X1394700Y3692900D03*
X1219700Y3667900D03*
X1294700Y4032900D03*
X1324700Y4832900D03*
X1334700Y5327900D03*
Y5227900D03*
X1234700Y5527900D03*
X1334700D03*
X1272200Y5857900D03*
X1430950Y5861650D03*
X1272200Y5957900D03*
X1449700Y6387900D03*
Y6492900D03*
X1414700Y6697900D03*
X1279810Y6621950D03*
X1361650Y7510950D03*
X1314700Y7822900D03*
X1684950Y430050D03*
X1494450Y938150D03*
X1649700Y932900D03*
X1584700Y1762900D03*
X1479700Y2072900D03*
X1704700Y2062900D03*
X1584700Y2092900D03*
X1574700Y1922900D03*
X1489700Y2422900D03*
X1703130Y2515080D03*
X1629700Y2557900D03*
X1679700Y2812900D03*
X1659700Y3037900D03*
X1504700Y3307900D03*
X1484700Y3682900D03*
X1494700Y4352900D03*
X1504700Y5012900D03*
X1629700Y4877900D03*
X1713370Y5047140D03*
X1644700Y5242900D03*
X1531290Y5124470D03*
X1534860Y5328080D03*
X1584700Y5562900D03*
X1699700Y5487900D03*
X1557950Y6611150D03*
X1716700Y6770900D03*
X1484700Y6967900D03*
X1557950Y6872900D03*
X1544700Y7191700D03*
X1579700Y7332900D03*
X1625000Y7592900D03*
X1557950Y7987900D03*
X1675000Y7887900D03*
X1694700Y8082900D03*
X1714700Y8232900D03*
X1557950Y8332900D03*
X1933800Y803900D03*
X1964500Y1192700D03*
X1804700Y1517900D03*
X1845110Y1851550D03*
X1754700Y1847900D03*
X1874700Y1667900D03*
X1936850Y1818520D03*
X1904700Y2072900D03*
X1804700Y2067900D03*
X1864700Y1957900D03*
X1959700Y2327900D03*
X1789700Y2207900D03*
X1964700Y2227900D03*
X1779700Y2665400D03*
X1977130Y2462900D03*
X1849700Y3242900D03*
X1814700Y3017900D03*
X1764700Y3472900D03*
X1769700Y3352900D03*
X1874700Y3350400D03*
X1989700Y3617900D03*
X1789700Y3767900D03*
X1809700Y3672900D03*
X1958350Y3958860D03*
X1784700Y4172900D03*
X1974700D03*
X1964700Y4407900D03*
X1779700Y4697900D03*
X1834700Y4792900D03*
X1989700Y5257900D03*
Y5157900D03*
X1869700Y5397900D03*
X1751360Y5669560D03*
X1849700Y5987900D03*
X1869700Y6192900D03*
X1974700Y6317900D03*
X1854200Y6412400D03*
X1799700Y6670200D03*
X1989700Y6772900D03*
X1875450Y7192900D03*
X1919700Y7517900D03*
X1907200Y7301400D03*
X1930700Y7927900D03*
X1814700Y8217900D03*
X1875450Y8337900D03*
X2050000Y685000D03*
Y1135000D03*
X2077200Y1347900D03*
X2200200Y1618400D03*
X2024700Y2107900D03*
X2274700Y2027900D03*
X2114700Y2207900D03*
X2219700D03*
X2199700Y2422900D03*
X2110800Y2541800D03*
X2089700Y2702900D03*
X2134700Y2942900D03*
X2163740Y2804000D03*
X2014700Y2792900D03*
X2129700Y3052900D03*
X2244700Y3412900D03*
X2209700Y3717900D03*
X2214700Y3622900D03*
X2244700Y3522900D03*
X2154700Y4237900D03*
X2158500Y4081700D03*
X2239700Y4507900D03*
X2064700Y4812900D03*
X2131390Y4713900D03*
X2257500Y4715700D03*
X2244700Y4607900D03*
X2164700Y5057900D03*
X2179700Y4907900D03*
X2109700Y4987900D03*
X2144700Y5387900D03*
X2114700Y5157900D03*
X2109700Y5602900D03*
X2204700Y5722900D03*
X2199700Y6917900D03*
X2204210Y7029280D03*
X2192950Y7491900D03*
X2097700Y7301400D03*
X2139700Y7927900D03*
X2030770Y7986550D03*
X2034200Y8337900D03*
X2419700Y892900D03*
X2519700Y1127900D03*
X2539700Y1337900D03*
X2404700Y1332900D03*
X2359700Y1912900D03*
X2434700Y1822900D03*
X2529700Y2317900D03*
X2429700Y2577900D03*
X2439700Y2467900D03*
X2319930Y2578400D03*
X2439640Y2740000D03*
X2448600Y2931800D03*
X2539700Y2962900D03*
X2287200Y3165400D03*
X2489700Y3047900D03*
X2529700Y3352900D03*
X2499700Y3462900D03*
X2444700Y3672900D03*
X2314700Y3722900D03*
X2415200Y3967650D03*
X2489700Y3892900D03*
X2304700Y4167900D03*
X2419700Y4087900D03*
X2397700Y4765200D03*
X2524700D03*
X2284700Y4902900D03*
X2394700D03*
X2524700Y5019200D03*
X2389700Y5257900D03*
X2524700Y5142900D03*
X2397700Y5146200D03*
X2294700Y5282900D03*
X2397700Y5654200D03*
X2524700Y5781200D03*
X2397700D03*
X2460000Y5970000D03*
Y6225000D03*
X2335000D03*
X2524700Y6670200D03*
X2397700D03*
X2524700Y6543200D03*
X2399700Y6797900D03*
X2319700Y6882900D03*
X2524700Y6797200D03*
X2364700Y7012900D03*
X2351700Y7190900D03*
X2399700Y7342900D03*
X2288200Y7301400D03*
X2284700Y7927900D03*
X2423860Y7918620D03*
X2515900Y8081700D03*
X2324700Y8072900D03*
X2351700Y8342900D03*
X2699700Y767900D03*
X2614700Y867900D03*
X2764700Y862900D03*
X2802700Y1724900D03*
X2554700Y1822900D03*
X2799700Y2119400D03*
X2689700Y2157900D03*
Y2052900D03*
X2704700Y1942900D03*
X2714700Y2357900D03*
X2809700Y2522900D03*
X2596010Y2578780D03*
X2674700Y2832900D03*
X2704700Y2963900D03*
X2702700Y3479900D03*
X2793400Y3976310D03*
X2605700Y3967650D03*
X2794700Y4147900D03*
X2779700Y4767900D03*
X2778700Y5019200D03*
Y4892200D03*
X2649700Y5273200D03*
X2779700Y5147900D03*
X2651700Y5527200D03*
X2779700Y5527900D03*
X2649700Y5652900D03*
X2779700D03*
Y5402900D03*
X2778700Y5908200D03*
X2586630Y5973370D03*
X2778700Y6162200D03*
X2779700Y6412900D03*
X2778700Y6289200D03*
X2651700Y6670200D03*
Y6543200D03*
X2778700Y6670200D03*
X2656970Y6943510D03*
X2778700Y6797200D03*
X2651700D03*
X2589700Y7422900D03*
X2724700Y7577900D03*
X2796200Y8012900D03*
X2891450Y531150D03*
X2859700Y757900D03*
X3059700Y837900D03*
X2924700Y857900D03*
X3019700Y1277900D03*
X2989700Y1617900D03*
X3074700Y1622900D03*
X2879700Y1497900D03*
X2915000Y1770000D03*
X3019700Y2102900D03*
X2824700Y2352900D03*
X3074700Y2327900D03*
X2965860Y2226740D03*
X2814700Y2894900D03*
Y2757900D03*
Y3197900D03*
X3079700Y3042900D03*
X2814700Y3349900D03*
X3029700Y3350400D03*
X3014700Y3687900D03*
X2852750Y3624000D03*
X2859700Y3882900D03*
X3024700Y4292900D03*
X2905700Y4511200D03*
Y4638200D03*
X2934700Y5022900D03*
X3019700Y4957900D03*
X2934700Y4872900D03*
X3004700Y5844700D03*
X2879700Y5777200D03*
X2894760Y6405410D03*
X3032700Y6416200D03*
Y6670200D03*
X2824700Y6942900D03*
X2984700D03*
X2904700Y6797900D03*
X2827950Y7202900D03*
X3075000Y7797600D03*
X2869700Y8277900D03*
X3054700D03*
X3081950Y527900D03*
X3119700Y737900D03*
X3214700Y1332900D03*
X3249700Y1772900D03*
X3169450Y2139900D03*
X3269700Y2287900D03*
X3184700Y2447900D03*
X3289700Y2450480D03*
X3179700Y2642900D03*
Y2837900D03*
X3249700Y2942900D03*
X3114700Y3147900D03*
X3219700Y3047900D03*
X3110000Y3490000D03*
X3084700Y3777900D03*
X3334700Y3595000D03*
X3149700Y3687900D03*
X3126400Y3974600D03*
X3284700Y3807900D03*
X3161400Y4532900D03*
X3284700Y4512900D03*
X3159700Y4384200D03*
X3160080Y4762710D03*
X3114700Y4890000D03*
X3259700Y5132900D03*
X3304000Y5527200D03*
X3307000Y5400200D03*
X3306000Y5654200D03*
X3314700Y5781200D03*
X3171890Y5997900D03*
X3234700Y6072900D03*
X3214700Y6217900D03*
X3274700Y6297900D03*
X3159700Y6672900D03*
Y6543200D03*
X3286700D03*
Y6670200D03*
X3159700Y6797200D03*
Y7232900D03*
X3324700Y7357900D03*
X3124700Y7687900D03*
X3225000Y7692900D03*
X3144700Y7577900D03*
X3125000Y7947900D03*
X3229700Y7927900D03*
X3139700Y8042900D03*
X3234700Y8277900D03*
X3359700Y1292900D03*
X3354700Y1622900D03*
X3394690Y1429900D03*
X3554700Y1395400D03*
X3558350Y1624900D03*
X3449700Y2122900D03*
X3379700Y2042900D03*
X3394700Y2642900D03*
X3579700Y2542900D03*
Y3242900D03*
Y3142900D03*
X3479700Y3242900D03*
Y3142900D03*
X3579700Y3342900D03*
X3479700D03*
X3355000Y3325000D03*
X3494700Y3967650D03*
X3405920Y3859120D03*
X3579700Y4242900D03*
X3404700Y4247900D03*
X3539700Y4767900D03*
X3409700Y4762900D03*
X3413700Y5258900D03*
X3540700Y5263900D03*
X3413700Y5896900D03*
X3540700Y5893900D03*
X3539700Y6417900D03*
X3414700D03*
Y6667900D03*
X3413700Y6543200D03*
X3540700Y6670200D03*
X3439700Y6942900D03*
X3540700Y6797200D03*
X3604700Y7202900D03*
X3612200Y7333150D03*
X3514700Y7892900D03*
X3599700Y8277900D03*
X3414700D03*
X3646800Y545000D03*
X3664700Y757900D03*
X3864700Y1202900D03*
X3689700Y1207900D03*
X3749950Y1618150D03*
X3759700Y1873150D03*
X3671690Y2440040D03*
X3779700Y2342900D03*
Y2442900D03*
Y2642900D03*
Y2542900D03*
X3679700D03*
X3874860Y2642720D03*
X3679700Y2942900D03*
X3879700D03*
Y3242900D03*
X3779700D03*
X3679700Y3142900D03*
X3779700D03*
Y3437900D03*
X3879700Y3442900D03*
X3679700Y3342900D03*
X3649700Y3707900D03*
X3854700Y3712900D03*
X3645000Y3555000D03*
X3779700Y3542900D03*
X3749700Y3702900D03*
X3854700Y3617900D03*
X3685200Y3967650D03*
X3875700D03*
X3774700Y4242900D03*
X3794700Y4877900D03*
X3667700Y5269900D03*
X3794700Y5897900D03*
X3667700Y5895900D03*
Y6415900D03*
X3794700Y6417900D03*
X3667700Y6543200D03*
X3794700Y6670200D03*
X3614700Y6947900D03*
X3789700D03*
X3714700Y7197900D03*
X3684700Y7442900D03*
X3774700Y7472900D03*
X3853500Y8189100D03*
X3779700Y8277900D03*
X4129700Y1192700D03*
X4104700Y1597900D03*
X3964700Y2107900D03*
X3949700Y1922900D03*
X4069700Y2237900D03*
X4074860Y2342720D03*
X3939700Y2237900D03*
X3979700Y2442900D03*
X4079700D03*
X4089150Y2714210D03*
X3974700Y2642900D03*
X3979700Y2542900D03*
Y2942900D03*
X4080000Y2842900D03*
X3979700Y3042900D03*
X4066200Y3967650D03*
X3907450Y4237900D03*
X4079700Y4232900D03*
X4049700Y4387900D03*
X3922640Y4509350D03*
X3919700Y4637900D03*
X3924700Y4763900D03*
X3899700Y4997900D03*
X3989700Y5002900D03*
X4114700Y4872900D03*
X3959700D03*
X3999700Y5202900D03*
X3901000Y5654200D03*
X3902000Y5400200D03*
X3904000Y5527200D03*
X3919700Y6417900D03*
X3921700Y6543200D03*
Y6670200D03*
Y6800900D03*
X3934700Y7087900D03*
X3949700Y7357900D03*
X4124700Y7907900D03*
X4139700Y8277900D03*
X3959700D03*
X4370550Y703750D03*
X4269700Y1192900D03*
X4349700Y1627900D03*
X4409700Y1697900D03*
X4404700Y1882900D03*
X4379700Y2142900D03*
X4189700Y1932900D03*
X4379700Y2442900D03*
Y2342900D03*
X4179700Y2242900D03*
X4274700Y2237900D03*
X4179700Y2542900D03*
X4274890Y2643050D03*
X4379700Y2642900D03*
X4279700Y2542900D03*
Y2842900D03*
X4379700D03*
X4175000Y2842400D03*
X4379700Y2942900D03*
Y3142900D03*
Y3242900D03*
X4179700Y3042900D03*
X4279700D03*
X4379700Y3342900D03*
X4383700Y3706900D03*
X4256700Y3967650D03*
X4254700Y3857900D03*
X4244700Y4237900D03*
X4383700Y4238900D03*
X4298700Y4507900D03*
X4169700Y4511200D03*
X4175700Y4638200D03*
X4174700Y6417900D03*
X4304700Y6412900D03*
X4304950Y6544700D03*
Y6671700D03*
X4177950Y6544700D03*
X4319950Y6793900D03*
X4199700Y7172900D03*
X4259700Y7337900D03*
X4434700Y1192900D03*
X4554700Y1633400D03*
X4539700Y1882900D03*
X4479700Y1747900D03*
X4596700Y1772900D03*
X4674700Y1882900D03*
X4479700Y2142900D03*
X4679700Y2242900D03*
X4479700Y2342900D03*
X4571870Y2345610D03*
X4579700Y2239070D03*
X4479700Y2542900D03*
Y2642900D03*
X4579700Y2542900D03*
Y2642900D03*
X4679700D03*
X4579700Y2942900D03*
X4679700D03*
Y2842900D03*
X4479700Y2942900D03*
X4579700Y2742900D03*
Y2842900D03*
X4479700Y2742900D03*
X4679700D03*
X4479700Y2842900D03*
Y3042900D03*
X4579700D03*
X4679700Y3142900D03*
X4479700D03*
X4679700Y3042900D03*
X4479700Y3242900D03*
X4579700Y3342900D03*
X4679700Y3442900D03*
X4579700D03*
X4479700Y3342900D03*
Y3442900D03*
Y3542900D03*
X4579700Y3630000D03*
X4679700Y3542900D03*
X4544700Y3762900D03*
X4542450Y3987550D03*
X4439700Y3967900D03*
X4542450Y4235150D03*
X4429700Y4638200D03*
X4556700D03*
X4551600Y4770100D03*
X4429700Y4767900D03*
X4551600Y4897100D03*
Y5024100D03*
X4424600D03*
X4429700Y4892900D03*
X4551600Y5151100D03*
Y5278100D03*
X4424600D03*
Y5151100D03*
X4551600Y5405100D03*
Y5532100D03*
X4424600D03*
Y5405100D03*
X4551600Y5659100D03*
X4429700Y5781000D03*
X4556700D03*
Y5908000D03*
X4424600Y5659100D03*
X4429700Y5908000D03*
X4556700Y6035000D03*
X4429700D03*
X4556700Y6162000D03*
X4429700D03*
X4556700Y6289000D03*
Y6416000D03*
X4429700D03*
Y6289000D03*
Y6670000D03*
Y6543000D03*
X4556700D03*
X4461950Y6793900D03*
X4799700Y1012900D03*
X4904700Y1007900D03*
X4734450Y1618150D03*
X4924450D03*
X4739700Y1732900D03*
X4834700Y1737900D03*
X4924450Y1872900D03*
X4769700Y1907900D03*
X4759700Y2097900D03*
X4879700Y2142900D03*
X4794700Y2202900D03*
X4694700Y2347900D03*
X4774700Y2442900D03*
X4779700Y2942900D03*
X4810000Y2760000D03*
X4779700Y3042900D03*
X4795790Y3229310D03*
X4879700Y3142900D03*
Y3242900D03*
Y3442900D03*
X4764990Y3359180D03*
X4779700Y3442900D03*
Y3620000D03*
X4828200Y3967650D03*
X4699700Y4082900D03*
X4869700Y4092900D03*
X4810700Y4384200D03*
X4809700Y4642900D03*
X4931950Y5973900D03*
X4791950Y6813900D03*
X4936950Y6953900D03*
Y7058900D03*
X4940000Y7635000D03*
X4800900Y8174100D03*
X4874700Y8292900D03*
X5205000Y548200D03*
X5019700Y487900D03*
X5082200Y840400D03*
Y1025400D03*
X5084700Y1618150D03*
X5159700Y1712900D03*
X5193700Y1903900D03*
X5054700Y2142900D03*
X4974700Y2247900D03*
X5194700Y2292900D03*
X5042410Y2392160D03*
X4979700Y2502900D03*
X5034700Y2597900D03*
X5191190Y2715740D03*
X4965000Y2835000D03*
X5190000Y2931650D03*
X5114700Y3022900D03*
X5034700Y3092900D03*
Y3242900D03*
X5037750Y3445000D03*
X5039700Y3582900D03*
X5114700Y3717900D03*
X5189700Y4082900D03*
X5029700D03*
X5058700Y4446900D03*
X5196950Y6138900D03*
X5046950Y6108900D03*
X5206950Y6301960D03*
X5201950Y6423900D03*
X5131950Y6373900D03*
X5036950Y6220930D03*
X5091950Y6298900D03*
X5160810Y6498290D03*
X5091950Y6558900D03*
X5017530Y6649180D03*
X5041950Y6730600D03*
X4971950Y6785600D03*
X5006950Y6893900D03*
X5011950Y7008900D03*
X4955200Y7428400D03*
X5114700Y7907900D03*
X5144700Y8262900D03*
X5431450Y674650D03*
X5272700Y675900D03*
X5249700Y842900D03*
X5431450Y839650D03*
X5249700Y1032900D03*
X5304700Y1822900D03*
X5393350Y1676550D03*
X5429700Y2712900D03*
X5299700Y2562900D03*
X5304700Y2707900D03*
X5284700Y3090400D03*
X5309700Y3342900D03*
X5450000Y3470000D03*
X5264700Y4327900D03*
X5261950Y5213900D03*
X5446950Y5343900D03*
X5431950Y5583900D03*
X5266950Y5771750D03*
X5321950Y6023900D03*
X5246950Y5943900D03*
X5344700Y6147900D03*
X5446950Y6008900D03*
X5471950Y6763900D03*
X5476950Y6943900D03*
X5348150Y7159450D03*
X5347900Y8262900D03*
X5449500D03*
X5246300D03*
X5514700Y547900D03*
X5590200Y687400D03*
X5555000Y1007600D03*
X5669700Y1007900D03*
X5559700Y1872900D03*
X5634700Y1827900D03*
X5538200Y2221400D03*
X5519700Y2432900D03*
X5554700Y2577900D03*
X5745300Y2627900D03*
X5594700Y2722900D03*
X5536950Y6653900D03*
X5671950Y6518900D03*
X5636950Y6623900D03*
X5626950Y6758900D03*
X5646950Y6903900D03*
X5537800Y7003900D03*
X5524700Y7428400D03*
X5551100Y8262900D03*
X5652700D03*
X5829700Y512900D03*
X5959700D03*
X5748950Y677150D03*
X5907700Y674900D03*
X5754700Y837900D03*
X5809700Y2102900D03*
X5891550Y2352840D03*
X5994700Y2287900D03*
X5989700Y2512900D03*
X6004700Y2867900D03*
X6009700Y2722900D03*
X6004700Y3112900D03*
X5872200Y3110400D03*
X5879700Y3337900D03*
X5819700Y3677900D03*
X5786950Y6428900D03*
X5754700Y7517900D03*
X5749700Y7402900D03*
X5869600Y8237800D03*
X6066450Y686150D03*
X6074700Y842900D03*
X6225200Y687400D03*
X6229400Y848200D03*
X6129700Y1547900D03*
X6259700Y2587900D03*
X6244700Y2457900D03*
X6274700Y3132900D03*
X6016800Y3220000D03*
X6134700Y3312900D03*
X6220000Y3545000D03*
X6264700Y3797900D03*
X6258450Y4298900D03*
X6261950Y4183900D03*
X6226950Y4523900D03*
X6221780Y4377430D03*
X6266950Y4613900D03*
X6141950Y4763900D03*
X6189090Y5071040D03*
X6051950Y5038900D03*
X6241950Y6013900D03*
X6251950Y6111200D03*
X6242010Y6304280D03*
X6230760Y6193520D03*
X6236950Y6446280D03*
X6193020Y6547520D03*
X6016950Y6578900D03*
X6116950Y6908800D03*
X6236950Y6843900D03*
X6198600Y6965950D03*
X6021300Y7320000D03*
X6044700Y8187900D03*
X6034700Y8087900D03*
X6369700Y507900D03*
X6383950Y687150D03*
X6379700Y847900D03*
X6542700Y680900D03*
X6354700Y1007900D03*
X6412200Y1665400D03*
X6344700Y1782900D03*
X6319700Y1982900D03*
X6544700Y2157900D03*
X6319700Y2707900D03*
X6339700Y2517900D03*
X6504690Y2907890D03*
X6544700Y3107900D03*
X6474700Y3797900D03*
X6387790Y4316140D03*
X6486950Y4573900D03*
X6496350Y4364280D03*
X6361950Y4508900D03*
X6461950Y4834900D03*
X6396950Y4748350D03*
X6326950Y4978900D03*
X6476950Y5013900D03*
X6346950Y5358900D03*
X6463340Y5258900D03*
X6331950Y5225200D03*
X6456950Y5133900D03*
X6541950Y5122670D03*
X6376010Y5894360D03*
X6492050Y6004780D03*
X6501950Y6113310D03*
X6366950Y6008900D03*
X6356950Y6350900D03*
X6374450Y6208900D03*
X6461950Y6593900D03*
X6291950Y6528900D03*
X6316950Y6735200D03*
X6476950Y7033800D03*
X6655000Y513200D03*
X6701450Y679650D03*
X6599700Y1027900D03*
X6764700Y1037900D03*
X6694700Y1342900D03*
X6804700Y2177900D03*
Y2082400D03*
X6659700Y2517900D03*
X6754700Y2587900D03*
X6605660Y2631550D03*
X6745900Y2726700D03*
X6734700Y3152900D03*
X6564700Y3432900D03*
X6689700Y3412900D03*
X6584700Y3342900D03*
X6710000Y3697600D03*
X6769700Y3627900D03*
X6630000Y3647900D03*
X6568190Y4318840D03*
X6666950Y4243900D03*
X6546950Y4168900D03*
X6761950Y4188900D03*
X6556950Y4423900D03*
Y4798900D03*
X6562150Y4701120D03*
X6623810Y4931610D03*
X6612720Y5021890D03*
X6806950Y5153900D03*
X6766950Y5268900D03*
X6591950Y5378900D03*
X6776950Y5383900D03*
X6565000Y5892350D03*
X6741950Y6208900D03*
X6581950Y6193900D03*
X6656790Y6298590D03*
X6731950Y6398980D03*
X6571950Y6303900D03*
X6641950Y6461400D03*
X6546950Y6593900D03*
X6721950Y6633900D03*
X6701950Y6788900D03*
X6554200Y6813550D03*
X6571950Y7053900D03*
X6591300Y7321300D03*
X6694700Y8262900D03*
X6809700Y8097900D03*
X7018950Y838650D03*
X6862200Y845400D03*
X6964700Y677900D03*
X6860200Y687400D03*
X7079700Y1037900D03*
X6830000Y1808200D03*
X6884700Y1667900D03*
X6964700Y1857900D03*
X6939700Y2127900D03*
X7034700Y2082900D03*
X6929700Y2427900D03*
X6814700Y2282900D03*
X6933500Y2584100D03*
X6928500Y2884100D03*
X6933500Y3031700D03*
X6930900Y3184100D03*
X6829700Y3402900D03*
X6959700Y3607900D03*
X6921950Y4528900D03*
X6874800Y4325200D03*
X6864600Y4820830D03*
X7051950Y4813900D03*
X6866790Y4709080D03*
X7031950Y4623900D03*
X6878840Y4930910D03*
X6890770Y5039700D03*
X7066950Y4928900D03*
X7026950Y5128900D03*
X6956950Y5325200D03*
X7064900Y5517700D03*
X6996950Y5763900D03*
X6908540Y5865490D03*
X6871950Y5983900D03*
X6866950Y6093900D03*
X7046950Y5993900D03*
X7039460Y6109240D03*
X7052350Y6293900D03*
X6884390Y6203790D03*
X6871950Y6413900D03*
X6886950Y6604000D03*
X6986690Y6605270D03*
X6946950Y6818900D03*
X6981950Y7053900D03*
X6876950Y7048900D03*
X6987200Y7955400D03*
X6919700Y8097900D03*
X7302500Y684700D03*
X7114000Y2147320D03*
X7110000Y3403200D03*
X7284700Y3637900D03*
X7119700Y3842900D03*
X7271950Y4298900D03*
X7150000Y4180000D03*
X7081950Y4523900D03*
X7321950Y4450200D03*
X7167100Y4721700D03*
X7181950Y5025200D03*
X7081950Y5225200D03*
X7121950Y5808900D03*
X7191950Y5998900D03*
X7217180Y6109320D03*
X7166950Y6407950D03*
X7161950Y6207950D03*
X7116950Y6688900D03*
X7141950Y6913900D03*
X7158450Y7396650D03*
X7129700Y7562900D03*
X7154700Y8252900D03*
X7256300D03*
X7435800Y976800D03*
X7509700Y3202900D03*
X7414700Y3662900D03*
X7577750Y3727900D03*
X7535000Y4255000D03*
X7425000Y4525000D03*
X7471950Y4963900D03*
X7561950Y5118900D03*
X7574700Y5517700D03*
X7540000Y6210000D03*
X7571950Y6643900D03*
X7561100Y8252900D03*
X7459500D03*
X7357900D03*
X7719700Y507900D03*
X7794700Y1822900D03*
X7670000Y1662900D03*
X7642600Y2185000D03*
X7644910Y2078960D03*
X7812600Y2380000D03*
X7649700Y2300000D03*
X7812600Y2700000D03*
X7752600Y2620000D03*
X7807600Y2540000D03*
X7747600Y2460000D03*
X7751800Y2780000D03*
X7762600Y3180000D03*
X7807600Y3100000D03*
X7739700Y3497900D03*
X7619700Y3582900D03*
X7839700Y3840650D03*
X7670000Y4180000D03*
X7825000Y4270000D03*
X7670610Y4395490D03*
X7880000Y4410000D03*
X7760000Y4485000D03*
X7670650Y4625200D03*
X7685060Y4847350D03*
X7776950Y4723900D03*
X7721850Y5025350D03*
X7868650Y5022850D03*
Y5334000D03*
X7869400Y5217030D03*
X7701950Y5173900D03*
X7849700Y5517700D03*
X7781950Y5878900D03*
X7764100Y6080670D03*
X7701950Y6438900D03*
X7781950Y6323900D03*
X7761950Y6208900D03*
X7709900Y6642100D03*
X7773400Y7061200D03*
X7865900Y8252900D03*
X7764300D03*
X7662700D03*
X7907950Y966150D03*
X8088950Y1237150D03*
X7954700Y1907900D03*
X7987600Y2020000D03*
X7891800Y2100000D03*
X8104700Y2185000D03*
X7891800Y2260000D03*
X8084700Y2342100D03*
X8104700Y2502100D03*
X7891800Y2580000D03*
Y2740000D03*
X8092600Y2820000D03*
X7891800Y2900000D03*
X8094700Y2982100D03*
X7891800Y3060000D03*
X8099700Y3142100D03*
X7891800Y3220000D03*
X7929700Y3577900D03*
X8085000Y4302990D03*
X7970000Y4210000D03*
X8101950Y4538000D03*
X8024220Y4439300D03*
X7936950Y4823900D03*
X7926950Y4638900D03*
X8066950Y4743900D03*
X7953650Y5023960D03*
X8091950Y5019200D03*
X8101950Y5125200D03*
X7954350Y5219970D03*
X7956000Y5330000D03*
X8136950Y5325200D03*
X8104700Y5517700D03*
X7951950Y5863900D03*
X8086950Y6053900D03*
X7967880Y6014340D03*
X7931950Y6428900D03*
X8095000Y6210000D03*
X7941950Y6203900D03*
X8096950Y6305550D03*
X7981950Y6353900D03*
X7986950Y6614600D03*
X8111950Y6618900D03*
Y6763900D03*
X7946950Y6828900D03*
Y7013900D03*
X8114700Y7687900D03*
X8029700Y7647900D03*
X8289700Y1692900D03*
Y2140000D03*
X8164700Y1948350D03*
X8279700Y2302900D03*
X8156750Y2684950D03*
X8259700Y3047900D03*
X8155000Y4210000D03*
X8261950Y4525200D03*
X8151950Y4418900D03*
X8349950Y4525200D03*
Y4325200D03*
X8337110Y4419080D03*
X8266950Y4823900D03*
X8361950Y4832350D03*
X8155200Y4638900D03*
X8268400Y4708230D03*
X8356950Y4708900D03*
X8151950Y4925200D03*
X8271950Y5010060D03*
X8266950Y5233900D03*
X8271950Y5123900D03*
X8221950Y5417900D03*
X8268700Y5892800D03*
X8266640Y6107450D03*
X8351950Y5993900D03*
X8360150Y6103240D03*
X8271950Y6223900D03*
Y6408900D03*
X8268700Y6705600D03*
X8357900Y6707950D03*
X8267900Y6807950D03*
X8356000Y6907950D03*
X8174700Y7212900D03*
X8356950Y7003900D03*
X8268700Y7004050D03*
X8559700Y1072900D03*
X8592700Y2665900D03*
X8589700Y2507900D03*
X8595200Y2983400D03*
X8594700Y2824650D03*
X8424700Y2762900D03*
X8595450Y3142150D03*
X8589700Y3657900D03*
X8604700Y3812900D03*
X8550000Y4225200D03*
X8471210Y4701230D03*
X8604900Y5517700D03*
X8621950Y6007100D03*
X8591950Y6108700D03*
X8541950Y5923900D03*
X8433800Y6407150D03*
X8591950Y6305550D03*
X8927700Y1395900D03*
X8932950Y2189650D03*
X8941700Y2665900D03*
X8930300Y3663500D03*
X8802100Y4257900D03*
X8779700Y4887900D03*
X8797100Y5285000D03*
X8684700Y6130500D03*
X8769700Y6287900D03*
X8776700Y6527800D03*
X8686000Y6908800D03*
X8754700Y7257900D03*
X8744700Y7877900D03*
X8948950Y3142150D03*
X9124700Y4478840D03*
X9141000Y4775200D03*
X9000300Y5295100D03*
X9005100Y5975000D03*
X9131000Y6527800D03*
X9005300Y7061200D03*
D13*
X500000Y500000D03*
Y8250000D03*
X9000000Y500000D03*
Y8250000D03*
M02*