G04 Gerber PCB Fabrication Data in Gerber – Example 2, created by Karel Tavernier, Filip Vermeire and Thomas Weyn*
G04 Ucamco copyright*
%TF.GenerationSoftware,Ucamco,UcamX,1.1.0-1400509*%
%TF.CreationDate,2014-07-14T00:00;00+01:00*%
%FSLAX25Y25*%
%MOMM*%
%TF.FileFunction,Plated,2,9,Buried,Drill*%
%TF.FilePolarity,Positive*%
%TF.Part,Single*%
%TF.SameCoordinates*%
%TA.AperFunction,ViaDrill*%
%ADD10C,0.30000*%
G01*
%LPD*%
D10*
X4279700Y2842900D03*
X2439600Y2740000D03*
X3614700Y6947900D03*
X3789700D03*
X3439700Y6942900D03*
X4429700Y4638200D03*
X2399700Y6797900D03*
X2524700Y6670200D03*
X1779700Y4697900D03*
X2284700Y7927900D03*
X1351000Y706600D03*
X2814700Y3349900D03*
X2444700Y3672900D03*
X2814700Y2894900D03*
Y3197900D03*
Y2757900D03*
X4556700Y4638200D03*
X3019700Y2102900D03*
X2364700Y7012900D03*
X2389700Y5257900D03*
X2824700Y6942900D03*
X2519700Y1127900D03*
X2429700Y2577900D03*
X1989700Y5257900D03*
X2284700Y4902900D03*
X2657000Y6943500D03*
X2319700Y6882900D03*
X1958400Y3958900D03*
X2134700Y2942900D03*
X2110800Y2541800D03*
X2204200Y7029300D03*
X2984700Y6942900D03*
X3159700Y6797200D03*
X2114700Y2207900D03*
X2199700Y6917900D03*
X3019700Y1277900D03*
X3214700Y6217900D03*
X3159700Y6672900D03*
X2448600Y2931800D03*
X2394700Y4902900D03*
X3159700Y6543200D03*
X2064700Y4812900D03*
X564700Y3482900D03*
X2287200Y3165400D03*
X3879700Y3242900D03*
X3779700Y3437900D03*
X5084700Y1618200D03*
X3879700Y3442900D03*
X3354700Y1622900D03*
X4104700Y1597900D03*
X4539700Y1882900D03*
X4734400Y1618200D03*
X3179700Y2642900D03*
X3359700Y1292900D03*
X3394700Y2642900D03*
X3269700Y2287900D03*
X3214700Y1332900D03*
X6274700Y3132900D03*
X6220000Y3545000D03*
X3779700Y3242900D03*
X4434700Y1192900D03*
X4305000Y6544700D03*
Y6671700D03*
X4320000Y6793900D03*
X4429700Y6670000D03*
Y6543000D03*
X3032700Y6670200D03*
X3540700Y6797200D03*
X7079700Y1037900D03*
X7019000Y838600D03*
X2699700Y767900D03*
X5082200Y840400D03*
X2614700Y867900D03*
X2764700Y862900D03*
X2859700Y757900D03*
X2924700Y857900D03*
X3059700Y837900D03*
X3119700Y737900D03*
X4129700Y1192700D03*
X1324700Y4832900D03*
X2164700Y5057900D03*
X2702700Y3479900D03*
X2154700Y4237900D03*
X5809700Y2102900D03*
X5538200Y2221400D03*
X3159700Y7232900D03*
X3029700Y3350400D03*
X1374700Y3152900D03*
X2139700Y7927900D03*
X992900Y4122900D03*
X4759700Y2097900D03*
X1349700Y1902900D03*
X1054700Y4207900D03*
X4679700Y2242900D03*
X1479700Y2072900D03*
X2515900Y8081700D03*
X834700Y4827900D03*
X1394700Y3692900D03*
X4879700Y3442900D03*
X3110000Y3490000D03*
X1930700Y7927900D03*
X4879700Y2142900D03*
X1845100Y1851600D03*
X844700Y4347900D03*
X5559700Y1872900D03*
X1659700Y3037900D03*
X1704700Y2062900D03*
X5594700Y2722900D03*
X4379700Y2442900D03*
X1449700Y6387900D03*
X3414700Y6667900D03*
X4479700Y3042900D03*
X574700Y2252400D03*
X4479700Y2542900D03*
Y2642900D03*
X669700Y2452900D03*
X700700Y1966900D03*
X4579700Y2542900D03*
Y2642900D03*
X699700Y2347900D03*
X4379700Y2142900D03*
X797700Y1893900D03*
X509700Y1647900D03*
X4379700Y2342900D03*
X4479700Y1747900D03*
X700700Y2156900D03*
X4779700Y2942900D03*
X4579700D03*
X1154700Y2772900D03*
X709700Y1747900D03*
X4579700Y3042900D03*
X509700Y1877900D03*
X903800Y2119000D03*
X4779700Y3042900D03*
X507900Y2445900D03*
X4479700Y2342900D03*
X700700Y1557900D03*
X1489700Y2422900D03*
X3667700Y6543200D03*
X2934700Y5022900D03*
X1294700Y4032900D03*
X1164700Y3177900D03*
X3413700Y6543200D03*
X1449700Y6492900D03*
X3179700Y2837900D03*
X4579700Y3342900D03*
X2244700Y3412900D03*
X4810700Y4384200D03*
X2904700Y6797900D03*
X1414700Y6697900D03*
X2905700Y4511200D03*
X4779700Y3620000D03*
X3579700Y4242900D03*
X4795800Y3229300D03*
X3907400Y4237900D03*
X4479700Y3542900D03*
X4579700Y3630000D03*
X3024700Y4292900D03*
X4679700Y3442900D03*
X3404700Y4247900D03*
X2905700Y4638200D03*
X5114700Y3022900D03*
X4244700Y4237900D03*
X3161400Y4532900D03*
X6939700Y2127900D03*
X4379700Y3142900D03*
Y3242900D03*
Y3342900D03*
X4679700Y3542900D03*
X4579700Y3442900D03*
X2529700Y3352900D03*
X4551600Y4770100D03*
Y4897100D03*
Y5024100D03*
X4424600D03*
X4551600Y5151100D03*
Y5278100D03*
X4424600D03*
X4551600Y5405100D03*
Y5659100D03*
X4429700Y5781000D03*
X4556700D03*
Y5908000D03*
Y6035000D03*
X4429700D03*
X4556700Y6162000D03*
Y6289000D03*
X4178000Y6544700D03*
X4932000Y5973900D03*
X4462000Y6793900D03*
X4556700Y6543000D03*
X1334700Y5327900D03*
X1764700Y3472900D03*
X2499700Y3462900D03*
X2163700Y2804000D03*
X1034700Y5227900D03*
X1584700Y5562900D03*
X1034700Y5637900D03*
X2089700Y2702900D03*
X2129700Y3052900D03*
X1132400Y5230200D03*
X1644700Y5242900D03*
X2014700Y2792900D03*
X1134700Y5637900D03*
X1234700Y5527900D03*
X1679700Y2812900D03*
X1134700Y5527900D03*
X1703100Y2515100D03*
X1334700Y5527900D03*
X1629700Y2557900D03*
X1494700Y4352900D03*
X1779700Y2665400D03*
X1334700Y5227900D03*
X5555000Y1007600D03*
X5749000Y677100D03*
X5669700Y1007900D03*
X5907700Y674900D03*
X5754700Y837900D03*
X5431400Y674700D03*
X6066400Y686200D03*
X6074700Y842900D03*
X6225200Y687400D03*
X6229400Y848200D03*
X6384000Y687100D03*
X6379700Y847900D03*
X5590200Y687400D03*
X5272700Y675900D03*
X6542700Y680900D03*
X6599700Y1027900D03*
X6701400Y679600D03*
X6764700Y1037900D03*
X6862200Y845400D03*
X2209700Y3717900D03*
X4069700Y2237900D03*
X2219700Y2207900D03*
X4974700Y2247900D03*
X3964700Y2107900D03*
X2799700Y2119400D03*
X2809700Y2522900D03*
X2179700Y4907900D03*
X1904700Y2072900D03*
X1504700Y5012900D03*
X4179700Y2242900D03*
X2131400Y4713900D03*
X2714700Y2357900D03*
X1964700Y4407900D03*
X5989700Y2512900D03*
X6319700Y1982900D03*
X4074900Y2342700D03*
X2529700Y2317900D03*
X2239700Y4507900D03*
X2824700Y2352900D03*
X4179700Y2542900D03*
X2109700Y4987900D03*
X2689700Y2157900D03*
X654700Y5591900D03*
X3679700Y3142900D03*
X605700Y5007900D03*
X834700Y5032900D03*
X4765000Y3359200D03*
X4809700Y4642900D03*
X1134700Y5027900D03*
X3579700Y2542900D03*
X779700Y2452900D03*
X679700Y4897900D03*
X1959700Y2327900D03*
X1531300Y5124500D03*
X6319700Y2707900D03*
X3671700Y2440000D03*
X1459700Y2542900D03*
X609700Y5167900D03*
X2689700Y2052900D03*
X1989700Y5157900D03*
X6259700Y2587900D03*
X3074700Y2327900D03*
X2257500Y4715700D03*
X2965900Y2226700D03*
X6339700Y2517900D03*
X6244700Y2457900D03*
X3449700Y2122900D03*
X609700Y5302900D03*
X1584700Y2092900D03*
X1574700Y1922900D03*
X1194700Y4412900D03*
X1754700Y1847900D03*
X1769700Y3352900D03*
X1804700Y2067900D03*
X1849700Y3242900D03*
X1874700Y3350400D03*
X1864700Y1957900D03*
X3939700Y2237900D03*
X5194700Y2292900D03*
X2024700Y2107900D03*
X1989700Y3617900D03*
X1629700Y4877900D03*
X3979700Y2442900D03*
X5891500Y2352800D03*
X1977100Y2462900D03*
X2199700Y2422900D03*
X2214700Y3622900D03*
X4409700Y1697900D03*
X4274700Y2237900D03*
X1484700Y3682900D03*
X3579700Y3242900D03*
X1504700Y3307900D03*
X969700Y4347900D03*
X1164700Y3777900D03*
X6929700Y2427900D03*
X6814700Y2282900D03*
X6659700Y2517900D03*
X979700Y6672900D03*
X6830000Y1808200D03*
X6964700Y677900D03*
X5429700Y2712900D03*
X5249700Y842900D03*
Y1032900D03*
X4979700Y2502900D03*
X5554700Y2577900D03*
X5431400Y839600D03*
X3779700Y2342900D03*
X7284700Y3637900D03*
X3679700Y2942900D03*
X4799700Y1012900D03*
X5519700Y2432900D03*
X6745900Y2726700D03*
X6933500Y3031700D03*
X4551600Y5532100D03*
X4556700Y6416000D03*
X4424600Y5532100D03*
X4792000Y6813900D03*
X6694700Y1342900D03*
X3579700Y3142900D03*
X4269700Y1192900D03*
X1059700Y4032900D03*
X4679700Y3142900D03*
X3921700Y6543200D03*
X3579700Y3342900D03*
X4904700Y1007900D03*
X1789700Y2207900D03*
Y3767900D03*
X4794700Y2202900D03*
X1132400Y5330200D03*
X1964700Y2227900D03*
X1584700Y1762900D03*
X3794700Y6670200D03*
X3019700Y4957900D03*
X3014700Y3687900D03*
X2200200Y1618400D03*
X2314700Y3722900D03*
X3779700Y2642900D03*
X3084700Y3777900D03*
X3649700Y3707900D03*
X2794700Y4147900D03*
X4571900Y2345600D03*
X3779700Y2442900D03*
Y3142900D03*
X4479700D03*
X3864700Y1202900D03*
X4079700Y2442900D03*
X7167100Y4721700D03*
X8433800Y6407200D03*
X8471200Y4701200D03*
X7166900Y6408000D03*
X1557900Y6611200D03*
X1694700Y8082900D03*
X1751400Y5669600D03*
X2651700Y5527200D03*
X2397700Y5654200D03*
X2144700Y5387900D03*
X2779700Y5527900D03*
X3125000Y7947900D03*
X2524700Y5781200D03*
X3075000Y7797600D03*
X2397700Y5781200D03*
X2649700Y5652900D03*
X3124700Y7687900D03*
X1714700Y8232900D03*
X1716700Y6770900D03*
X2651700Y6670200D03*
X1164700Y6672900D03*
X2778700Y6797200D03*
X2651700Y6543200D03*
X2397700Y6670200D03*
X1814700Y8217900D03*
X1799700Y6670200D03*
X2524700Y6797200D03*
X2651700D03*
X2778700Y6670200D03*
X3934700Y7087900D03*
X4679700Y2942900D03*
X1139700Y3349900D03*
X4679700Y3042900D03*
X1229700Y3414900D03*
X2539700Y2962900D03*
X4679700Y2842900D03*
X1494400Y938200D03*
X1649700Y932900D03*
X2109700Y5602900D03*
X1869700Y5397900D03*
X2649700Y5273200D03*
X2524700Y6543200D03*
X3921700Y6800900D03*
X1809700Y3672900D03*
X674700Y7187900D03*
X2489700Y3047900D03*
X4479700Y2942900D03*
X3284700Y4512900D03*
X4383700Y4238900D03*
X4879700Y3142900D03*
X2524700Y5019200D03*
X3679700Y3342900D03*
X2397700Y4765200D03*
X4479700Y3242900D03*
X4879700D03*
X4079700Y4232900D03*
X3159700Y4384200D03*
X2524700Y4765200D03*
X4479700Y3342900D03*
X2778700Y5019200D03*
X3774700Y4242900D03*
X4779700Y3442900D03*
X3126400Y3974600D03*
X4739700Y1732900D03*
X4694700Y2347900D03*
X2802700Y1724900D03*
X6641900Y6461400D03*
X6557000Y4798900D03*
X7937000Y4823900D03*
X5206900Y6302000D03*
X7932000Y6428900D03*
X7987000Y6614600D03*
X5160800Y6498300D03*
X6546900Y6593900D03*
X6623800Y4931600D03*
X7471900Y4963900D03*
X8262000Y4525200D03*
X6921900Y4528900D03*
X6267000Y4613900D03*
X7670600Y4625200D03*
X8101900Y4538000D03*
X6557000Y4423900D03*
X7425000Y4525000D03*
X6227000Y4523900D03*
X6568200Y4318800D03*
X8024200Y4439300D03*
X6221800Y4377400D03*
X7670600Y4395500D03*
X6996900Y5763900D03*
X8621900Y6007100D03*
X7191900Y5998900D03*
X6666900Y4243900D03*
X8085000Y4303000D03*
X6871900Y5983900D03*
X8591900Y6108700D03*
X7217200Y6109300D03*
X6866900Y6093900D03*
X8266600Y6107400D03*
X7162000Y6208000D03*
X8095000Y6210000D03*
X6741900Y6208900D03*
X8591900Y6305500D03*
X7052400Y6293900D03*
X6242000Y6304300D03*
X7941900Y6203900D03*
X6582000Y6193900D03*
X6230800Y6193500D03*
X7540000Y6210000D03*
X6242000Y6013900D03*
X7535000Y4255000D03*
X6258400Y4298900D03*
X6252000Y6111200D03*
X8087000Y6053900D03*
X6492000Y6004800D03*
X5196900Y6138900D03*
X5046900Y6108900D03*
X6874800Y4325200D03*
X8151900Y4418900D03*
X2324700Y8072900D03*
X1989700Y6772900D03*
X6189100Y5071000D03*
X7709900Y6642100D03*
X5092000Y6558900D03*
X7721800Y5025400D03*
X5202000Y6423900D03*
X6326900Y4978900D03*
X6462000Y6593900D03*
X6864600Y4820800D03*
X8266900Y4823900D03*
X6291900Y6528900D03*
X5321900Y6023900D03*
X8112000Y6618900D03*
X5246900Y5943900D03*
X6887000Y6604000D03*
X6878800Y4930900D03*
X8151900Y4925200D03*
X6141900Y4763900D03*
X8362000Y4832400D03*
X7051900Y4813900D03*
X6193000Y6547500D03*
X5344700Y6147900D03*
X7701900Y6438900D03*
X6237000Y6446300D03*
X6462000Y4834900D03*
X7685100Y4847400D03*
X5131900Y6373900D03*
X5017500Y6649200D03*
X7953600Y5024000D03*
X6612700Y5021900D03*
X6476900Y5013900D03*
X5042000Y6730600D03*
X7868600Y5022800D03*
X6316900Y6735200D03*
X8271900Y5010100D03*
X8268700Y6705600D03*
X6721900Y6633900D03*
X5537000Y6653900D03*
X6890800Y5039700D03*
X6946900Y6818900D03*
X8267900Y6808000D03*
X5627000Y6758900D03*
X7026900Y5128900D03*
X8112000Y6763900D03*
X8101900Y5125200D03*
X6807000Y5153900D03*
X5471900Y6763900D03*
X6701900Y6788900D03*
X8356000Y6908000D03*
X7141900Y6913900D03*
X5646900Y6903900D03*
X7082000Y5225200D03*
X8266900Y5233900D03*
X6766900Y5268900D03*
X5477000Y6943900D03*
X6957000Y5325200D03*
X8357000Y7003900D03*
X6982000Y7053900D03*
X5537800Y7003900D03*
X7868600Y5334000D03*
X6346900Y5358900D03*
X4937000Y7058900D03*
X6476900Y7033800D03*
X7954400Y5220000D03*
X5012000Y7008900D03*
X6463300Y5258900D03*
X6331900Y5225200D03*
X7869400Y5217000D03*
X6116900Y6908800D03*
X4937000Y6953900D03*
X6986700Y6605300D03*
X5671900Y6518900D03*
X5787000Y6428900D03*
X7066900Y4928900D03*
X5637000Y6623900D03*
X7116900Y6688900D03*
X7182000Y5025200D03*
X8357900Y6708000D03*
X7701900Y5173900D03*
X6457000Y5133900D03*
X4971900Y6785600D03*
X6237000Y6843900D03*
X6541900Y5122700D03*
X8091900Y5019200D03*
X5007000Y6893900D03*
X6554200Y6813600D03*
X7946900Y6828900D03*
X5309700Y3342900D03*
X3750000Y1618200D03*
X4049700Y4387900D03*
X3479700Y3342900D03*
X3394700Y1429900D03*
X4298700Y4507900D03*
X3334700Y3595000D03*
X4349700Y1627900D03*
X3114700Y3147900D03*
X3259700Y5132900D03*
X2989700Y1617900D03*
X4699700Y4082900D03*
X3554700Y1395400D03*
X3355000Y3325000D03*
X4542400Y4235200D03*
X3479700Y3242900D03*
X2524700Y5142900D03*
X4579700Y2742900D03*
X3899700Y4997900D03*
X2397700Y5146200D03*
X3989700Y5002900D03*
X4579700Y2842900D03*
X3854700Y3712900D03*
X4479700Y2742900D03*
X1869700Y6192900D03*
X3171900Y5997900D03*
X1974700Y6317900D03*
X3234700Y6072900D03*
X4479700Y2142900D03*
X639700Y7037900D03*
X2589700Y7422900D03*
X3684700Y7442900D03*
X3921700Y6670200D03*
X7034700Y2082900D03*
X6710000Y3697600D03*
X5450000Y3470000D03*
X6769700Y3627900D03*
X6829700Y3402900D03*
X6754700Y2587900D03*
X6412200Y1665400D03*
X6933500Y2584100D03*
X6884700Y1667900D03*
X6605700Y2631500D03*
X6734700Y3152900D03*
X6504700Y2907900D03*
X6928500Y2884100D03*
X6930900Y3184100D03*
X6544700Y3107900D03*
X6129700Y1547900D03*
X6860200Y687400D03*
X6804700Y2177900D03*
X6544700Y2157900D03*
X6564700Y3432900D03*
X6134700Y3312900D03*
X5634700Y1827900D03*
X6354700Y1007900D03*
X6630000Y3647900D03*
X3645000Y3555000D03*
X5829700Y512900D03*
X6689700Y3412900D03*
X7110000Y3403200D03*
X6584700Y3342900D03*
X2704700Y1942900D03*
X4774700Y2442900D03*
X4834700Y1737900D03*
X2274700Y2027900D03*
X2439700Y2467900D03*
X4679700Y2642900D03*
X2359700Y1912900D03*
X2319900Y2578400D03*
X4679700Y2742900D03*
X2674700Y2832900D03*
X4479700Y2842900D03*
X4379700D03*
X2704700Y2963900D03*
X7751800Y2780000D03*
X7891800Y2740000D03*
X8092600Y2820000D03*
X7812600Y2700000D03*
X8104700Y2502100D03*
X7891800Y2580000D03*
X7752600Y2620000D03*
X7807600Y2540000D03*
X7747600Y2460000D03*
X7812600Y2380000D03*
X7891800Y2100000D03*
X8104700Y2185000D03*
X7891800Y2260000D03*
X8084700Y2342100D03*
X7891800Y2900000D03*
X8094700Y2982100D03*
X7891800Y3060000D03*
X8099700Y3142100D03*
X7891800Y3220000D03*
X7762600Y3180000D03*
X7807600Y3100000D03*
X8096900Y6305500D03*
X6656800Y6298600D03*
X5037000Y6220900D03*
X5267000Y5771800D03*
X8155200Y4638900D03*
X7926900D03*
X6487000Y4573900D03*
X5262000Y5213900D03*
X7982000Y6353900D03*
X6732000Y6399000D03*
X5092000Y6298900D03*
X8268400Y4708200D03*
X6866800Y4709100D03*
X6562200Y4701100D03*
X8066900Y4743900D03*
X1169700Y1772900D03*
X1194700Y1867900D03*
X3779700Y2542900D03*
X4169700Y4511200D03*
X3679700Y2542900D03*
X4175700Y4638200D03*
X5299700Y2562900D03*
X3922600Y4509400D03*
X3249700Y2942900D03*
X3074700Y1622900D03*
X4554700Y1633400D03*
X3169400Y2139900D03*
X3919700Y4637900D03*
X3004700Y5844700D03*
X3225000Y7692900D03*
X3286700Y6543200D03*
X3774700Y7472900D03*
X1579700Y7332900D03*
X2879700Y5777200D03*
X3229700Y7927900D03*
X1164700Y2892900D03*
X5304700Y2707900D03*
X1464700Y1767900D03*
X4924500Y1618200D03*
X684700Y4767900D03*
X4924500Y1872900D03*
X5304700Y1822900D03*
X2879700Y1497900D03*
X2244700Y4607900D03*
X3779700Y3542900D03*
X4579700Y2239100D03*
X2852800Y3624000D03*
X2114700Y5157900D03*
X5189700Y4082900D03*
X4869700Y4092900D03*
X5029700Y4082900D03*
X1134700Y987900D03*
X3160100Y4762700D03*
X3794700Y4877900D03*
X4114700Y4872900D03*
X2779700Y5147900D03*
Y5652900D03*
Y5402900D03*
X2894800Y6405400D03*
X3274700Y6297900D03*
X3539700Y6417900D03*
X3667700Y6415900D03*
X6262000Y4183900D03*
X6546900Y4168900D03*
X7271900Y4298900D03*
X7670000Y4180000D03*
X7970000Y4210000D03*
X6496400Y4364300D03*
X7082000Y4523900D03*
X7880000Y4410000D03*
X8350000Y4525200D03*
Y4325200D03*
X6396900Y4748300D03*
X7776900Y4723900D03*
X4429700Y4892900D03*
X5034700Y2597900D03*
Y3092900D03*
X3184700Y2447900D03*
X4424600Y5151100D03*
X3219700Y3047900D03*
X3749700Y3702900D03*
X4383700Y3706900D03*
X6591900Y5378900D03*
X7956000Y5330000D03*
X4424600Y5405100D03*
Y5659100D03*
X4429700Y5908000D03*
X6376000Y5894400D03*
X6565000Y5892400D03*
X7782000Y5878900D03*
X7951900Y5863900D03*
X4429700Y6162000D03*
X6571900Y6303900D03*
X6501900Y6113300D03*
X7046900Y5993900D03*
X7764100Y6080700D03*
X8351900Y5993900D03*
X3794700Y6417900D03*
X3919700D03*
X4174700D03*
X4429700Y6416000D03*
Y6289000D03*
X6356900Y6350900D03*
X6884400Y6203800D03*
X7782000Y6323900D03*
X8271900Y6223900D03*
X6571900Y7053900D03*
X7946900Y7013900D03*
X4404700Y1882900D03*
X3949700Y1922900D03*
X1919700Y7517900D03*
X954700Y932900D03*
X2539700Y1337900D03*
X1131700Y1984900D03*
X1124700Y2244900D03*
Y2112900D03*
X3079700Y3042900D03*
X4769700Y1907900D03*
X6964700Y1857900D03*
X3379700Y2042900D03*
X4189700Y1932900D03*
X5054700Y2142900D03*
X3979700Y2942900D03*
X4179700Y3042900D03*
X4175000Y2842400D03*
X4274900Y2643000D03*
X4089200Y2714200D03*
X4080000Y2842900D03*
X3974700Y2642900D03*
X4810000Y2760000D03*
X6004700Y2867900D03*
X1104700Y3107900D03*
X6004700Y3112900D03*
X3405900Y3859100D03*
X4254700Y3857900D03*
X5039700Y3582900D03*
X2304700Y4167900D03*
X6387800Y4316100D03*
X6762000Y4188900D03*
X7150000Y4180000D03*
X7825000Y4270000D03*
X8155000Y4210000D03*
X8550000Y4225200D03*
X6362000Y4508900D03*
X7321900Y4450200D03*
X7760000Y4485000D03*
X8337100Y4419100D03*
X2779700Y4767900D03*
X4429700D03*
X7032000Y4623900D03*
X8357000Y4708900D03*
X6051900Y5038900D03*
X7562000Y5118900D03*
X834700Y5227900D03*
X5446900Y5343900D03*
Y6008900D03*
X5431900Y5583900D03*
X6776900Y5383900D03*
X8137000Y5325200D03*
X8271900Y5123900D03*
X6908500Y5865500D03*
X7121900Y5808900D03*
X8268700Y5892800D03*
X6366900Y6008900D03*
X7039500Y6109200D03*
X7967900Y6014300D03*
X8360200Y6103200D03*
X8541900Y5923900D03*
X2779700Y6412900D03*
X4304700D03*
X6374400Y6208900D03*
X6871900Y6413900D03*
X7762000Y6208900D03*
X8271900Y6408900D03*
X3286700Y6670200D03*
X3540700D03*
X6016900Y6578900D03*
X7571900Y6643900D03*
X6876900Y7048900D03*
X8268700Y7004000D03*
X4370600Y703800D03*
X5082200Y1025400D03*
X1145200Y1222400D03*
X2404700Y1332900D03*
X1804700Y1517900D03*
X3759700Y1873200D03*
X4674700Y1882900D03*
X5193700Y1903900D03*
X3289700Y2450500D03*
X5042400Y2392200D03*
X3874900Y2642700D03*
X3979700Y2542900D03*
X3879700Y2942900D03*
X3979700Y3042900D03*
X4379700Y2642900D03*
X4279700Y2542900D03*
Y3042900D03*
X4379700Y2942900D03*
X5190000Y2931600D03*
X6009700Y2722900D03*
X3479700Y3142900D03*
X5034700Y3242900D03*
X6016800Y3220000D03*
X4479700Y3442900D03*
X3854700Y3617900D03*
X5114700Y3717900D03*
X2489700Y3892900D03*
X2419700Y4087900D03*
X2158500Y4081700D03*
X1049700Y4492900D03*
X5058700Y4446900D03*
X3539700Y4767900D03*
X3409700Y4762900D03*
X3924700Y4763900D03*
X2778700Y4892200D03*
X2934700Y4872900D03*
X3114700Y4890000D03*
X3959700Y4872900D03*
X1029700Y5127900D03*
X1534900Y5328100D03*
X3999700Y5202900D03*
X863200Y5616400D03*
X1134700Y5427900D03*
X2778700Y5908200D03*
Y6162200D03*
Y6289200D03*
X3032700Y6416200D03*
X3414700Y6417900D03*
X6198600Y6965900D03*
M02*