G04 Gerber PCB Fabrication Data in Gerber – Example 2, created by Karel Tavernier, Filip Vermeire and Thomas Weyn*
G04 Ucamco copyright*
%TF.GenerationSoftware,Ucamco,UcamX,1.1.0-1400509*%
%TF.CreationDate,2014-07-14T00:00;00+01:00*%
%FSLAX25Y25*%
%MOMM*%
%TF.FileFunction,Soldermask,Bot*%
%TF.FilePolarity,Negative*%
%TF.Part,Single*%
%TF.SameCoordinates*%
%TA.AperFunction,Material*%
%ADD10C,0.40000*%
%ADD12C,0.75000*%
%ADD13C,0.80000*%
%ADD14C,6.10000*%
%ADD15R,0.37000X0.90000*%
%ADD16R,0.50000X1.70000*%
%ADD17R,0.60000X0.40000*%
%ADD18R,0.60000X0.50000*%
%ADD19R,0.70000X0.50000*%
%ADD20R,0.70000X1.10000*%
%ADD21R,0.80000X1.10000*%
%ADD22R,0.90000X1.70000*%
%ADD23R,1.10000X0.70000*%
%ADD24R,1.10000X0.80000*%
%ADD25R,1.10000X1.10000*%
%ADD26R,1.10000X1.60000*%
%ADD27R,1.20000X1.90000*%
%ADD28R,1.20000X2.90000*%
%ADD29R,1.30000X2.40000*%
%ADD30R,1.60000X1.10000*%
%ADD31R,1.70000X0.60000*%
%ADD32R,1.90000X1.20000*%
%ADD33R,2.10000X0.60000*%
%ADD34R,2.10000X2.40000*%
%ADD35R,2.90000X1.20000*%
%ADD36R,9.90000X8.60000*%
%ADD37C,2.80000*%
%ADD38C,1.80000*%
%ADD39C,1.40000*%
G01*
%LPD*%
D10*
X524700Y1957900D03*
X515280Y2363810D03*
X464700Y2512900D03*
X599700Y4447900D03*
X628960Y5085570D03*
X573700Y5591900D03*
X789700Y1647900D03*
X854700Y2272900D03*
X826800Y2220000D03*
X827600Y2620000D03*
X829700Y2777900D03*
X831800Y2700000D03*
X707200Y4445400D03*
X889700Y4452900D03*
X864700Y5297900D03*
X863250Y5504350D03*
X754700Y7177900D03*
X754750Y7462950D03*
X1046750Y779950D03*
X954700Y1017900D03*
X964700Y1887900D03*
Y1742900D03*
X962600Y1820000D03*
X969700Y2372900D03*
X971800Y2300000D03*
X966800Y2460000D03*
X971800Y2620000D03*
X972600Y2540000D03*
X966800Y2700000D03*
X939700Y3017900D03*
X1049950Y3803150D03*
X1164700Y4122900D03*
Y4207900D03*
X939700Y4647900D03*
X1144700Y4562900D03*
X984700Y5067900D03*
X1074700Y5482900D03*
X979700Y6592900D03*
X1144700Y7422900D03*
X1239700Y852900D03*
X1394700Y1345100D03*
X1296800Y2140000D03*
X1307600Y2060000D03*
X1301800Y1980000D03*
X1184700Y4032900D03*
X1234700Y4742900D03*
X1264700Y6707900D03*
X1579700Y862900D03*
X1649700Y1012900D03*
X1619700Y1837900D03*
X1583800Y2480000D03*
X1555800Y2936800D03*
X1639700Y3682900D03*
X1459700Y3847900D03*
X1588950Y4123650D03*
X1669700Y4332900D03*
X1629700Y4732900D03*
X1609700Y5332900D03*
X1646450Y6287900D03*
X1557950Y6532900D03*
X1844700Y1417900D03*
X1845000Y2600000D03*
X1729700Y3282900D03*
X1783950Y3852900D03*
X1846650Y5605950D03*
X1929700Y6242900D03*
X1874700Y6317900D03*
X1869700Y6522900D03*
X1716700Y6852900D03*
X1875450Y6862150D03*
X1970700Y7683900D03*
X1930700Y8007750D03*
X2164700Y1738800D03*
X2169700Y2147900D03*
X2189700Y2541800D03*
X2224700Y2936800D03*
X2069700Y3502900D03*
X2050900Y4081700D03*
Y4139100D03*
X2159700Y4317900D03*
X2064700Y5387900D03*
X2029700Y5567900D03*
X2074700Y6847900D03*
X2129450Y7688150D03*
X1994700Y7577900D03*
X2129450Y8002650D03*
X2309500Y1192700D03*
X2307500Y1345100D03*
X2479700Y2637900D03*
X2364700Y2931800D03*
X2354700Y3547900D03*
X2485940Y4005030D03*
X2399700Y4152900D03*
X2319950Y4308150D03*
X2454700Y4572900D03*
X2354700D03*
X2249700Y5147900D03*
X2269700Y7012900D03*
X2439700D03*
X2288200Y7689400D03*
X2269700Y8007900D03*
X2274700Y8162900D03*
X2604700Y732900D03*
X2542200Y890400D03*
X2679700Y892900D03*
X2542200Y1210400D03*
X2700950Y1211650D03*
X2599700Y1252900D03*
X2574700Y2151550D03*
X2624700Y3237900D03*
X2529700Y3677900D03*
X2528120Y4578270D03*
X2709700Y4912900D03*
X2719700Y5597900D03*
X2714700Y5722900D03*
Y5972900D03*
Y6227900D03*
X2715000Y6357900D03*
X2749700Y7012900D03*
X2589700D03*
X2594700Y7537900D03*
X2609700Y8081700D03*
X2984700Y712900D03*
X2839700Y887900D03*
X2859700Y1207900D03*
X3029700D03*
X2954700Y3207900D03*
X2994700Y3047900D03*
X2959700Y3350400D03*
X2794700Y3507900D03*
X2864700Y4152900D03*
X2953700Y4312900D03*
X2939700Y4577900D03*
X2984700Y4807900D03*
X2834700Y5337900D03*
X2833450Y5209150D03*
X2969700Y6372900D03*
Y6477900D03*
X2986700Y6862900D03*
X2904700Y7012900D03*
X3024700Y7322900D03*
X3179700Y773200D03*
X3119700Y962900D03*
X3289700Y1315080D03*
X3270000Y1992900D03*
X3278930Y2517120D03*
X3114700Y2777900D03*
X3274700Y2762900D03*
X3309700Y3047900D03*
X3189700Y3412900D03*
X3150000Y4145000D03*
X3075000D03*
X3099700Y4792900D03*
X3229700Y4822900D03*
X3159700Y6417900D03*
X3304200Y6863400D03*
X3145390Y6863170D03*
X3434700Y1172900D03*
X3339700Y1942900D03*
X3464700Y2642900D03*
X3364700Y2447900D03*
X3399700Y3782900D03*
X3355000Y4165000D03*
X3354700Y4307900D03*
X3474700Y4802900D03*
X3484700Y6487900D03*
X3354700Y6462900D03*
X3464700Y6857900D03*
X3749700Y1477900D03*
X3800900Y1794100D03*
X3724700Y2392900D03*
X3779700Y3617900D03*
X3609700Y4312900D03*
X3748700Y4311900D03*
X3614700Y4802900D03*
X3724700Y6467900D03*
X3634700Y6862900D03*
X3815830Y6861310D03*
X3884700Y1847900D03*
X3904700Y2502900D03*
X3875000Y2572900D03*
X3999700Y2792900D03*
X4084700Y2942900D03*
X3929700Y2882900D03*
X3853500Y3096700D03*
X4094700Y3137900D03*
X3904700Y3042900D03*
X3929700Y3627900D03*
X4034700D03*
X3994700Y4303890D03*
X4074700Y4312900D03*
X4104700Y4777900D03*
X3849700Y4807900D03*
X3994700D03*
X4059700Y5132900D03*
X3979700Y6382900D03*
X3859700D03*
X4039530Y6864080D03*
X3859700Y7017900D03*
X4164700Y2632900D03*
X4359700Y2562900D03*
X4164700Y2712900D03*
X4140550Y2783750D03*
X4164700Y2927900D03*
X4174700Y3132900D03*
X4349700Y3027900D03*
X4359700Y3627900D03*
X4194700Y3897900D03*
X4224950Y4312650D03*
X4369700Y4502900D03*
X4379700Y5467900D03*
X4229700Y6377900D03*
X4428150Y2006350D03*
X4579700Y1997900D03*
X4527430Y2290630D03*
X4580000Y3142900D03*
X4383700Y4311900D03*
X4542450Y4310150D03*
X4489700Y4827900D03*
Y5082900D03*
Y5592900D03*
X4494700Y5842900D03*
Y6092900D03*
Y6352900D03*
Y6222900D03*
X4649700Y4157900D03*
X4819700D03*
X4866950Y4928000D03*
X4832000Y4873000D03*
X4801800Y5033000D03*
X4836950Y4978000D03*
X4786950Y5128900D03*
X4855200Y5127000D03*
X4786950Y5258900D03*
X4851700Y5232000D03*
X4801900Y5546000D03*
X4851800Y5491000D03*
X4800200Y5441000D03*
X4847500Y5386000D03*
X4804400Y5800000D03*
X4806000Y5695000D03*
X4851800Y5745000D03*
X4850100Y5640000D03*
X4821950Y6111250D03*
X4856950Y5973900D03*
X4861950Y6166250D03*
X4816950Y6216250D03*
X4861950Y6271250D03*
X4820250Y6625600D03*
X4863650Y6680600D03*
X4856950Y6953900D03*
X4863650Y6785600D03*
X4816950Y6898900D03*
X4821950Y6723900D03*
X4861950Y7058900D03*
X4816950Y7003900D03*
X5082200Y927900D03*
Y1110400D03*
X4919700Y1977900D03*
X4948200Y2094400D03*
X5088700Y1903900D03*
X5114700Y2602400D03*
Y2931650D03*
X4959700Y3057900D03*
X5037750Y3345000D03*
X5114700Y3647900D03*
X5134700Y3987900D03*
X4974700Y4157900D03*
X4983700Y4445100D03*
X5110400Y4928000D03*
X5125700Y4873000D03*
X5104200Y5033000D03*
X5130400Y4978000D03*
X5105800Y5182000D03*
X5129500Y5127000D03*
X5104200Y5287000D03*
X5130400Y5232000D03*
X5177010Y5213880D03*
X5104100Y5546000D03*
X5130400Y5491000D03*
X5105000Y5441000D03*
X5129600Y5386000D03*
X5105400Y5800000D03*
X5106950Y5695000D03*
X5130300Y5745000D03*
X5127000Y5640000D03*
X5134300Y6111250D03*
X5171950Y5969000D03*
X5104300Y6166250D03*
X5139300Y6216250D03*
X5036950Y6338900D03*
X5116950Y6625600D03*
X5106950Y6680600D03*
X5136950Y6730600D03*
X5106950Y6785600D03*
Y6898900D03*
X5131950Y7058900D03*
X5106950Y7003900D03*
X5141950Y6958900D03*
X5431450Y589650D03*
X5272700Y600900D03*
X5249700Y927900D03*
X5309700Y937900D03*
X5431450Y921150D03*
X5349700Y1102900D03*
X5354700Y1262900D03*
X5274690Y1922910D03*
X5390000Y3331450D03*
X5189100Y5771750D03*
X5590200Y593400D03*
X5614700Y922900D03*
Y1262900D03*
X5688250Y1351450D03*
X5590200Y1587400D03*
X5464700Y2182900D03*
X5526950Y5343900D03*
X5506950Y5583900D03*
X5448150Y5937700D03*
X5476950Y6073900D03*
X5521950Y6028900D03*
X5748950Y588650D03*
X5907700Y589900D03*
X5914700Y922900D03*
X5789700Y942900D03*
X5719700Y927900D03*
X5864700Y950020D03*
X5748950Y1267150D03*
X5907700Y1277900D03*
X5780700Y2211900D03*
X5904700Y2712900D03*
X6066450Y589650D03*
X6225200Y593400D03*
X6094700Y932900D03*
X6209700Y922900D03*
X6034700D03*
X6066450Y1272900D03*
X6225200Y1277400D03*
X6099700Y2867900D03*
X6111950Y4993900D03*
X6101950Y6578900D03*
X6383950Y588650D03*
X6274700Y947900D03*
X6444700Y950020D03*
X6374700Y917900D03*
X6383950Y1273650D03*
X6459700Y2527900D03*
X6309700Y3472900D03*
X6346950Y4178900D03*
X6441950Y4263900D03*
X6321950Y4333900D03*
X6436950Y4488900D03*
X6321950Y4778900D03*
X6316950Y4708900D03*
X6321950Y5838900D03*
X6326950Y6073900D03*
X6311950Y6403900D03*
X6326950Y6158900D03*
X6336950Y6448900D03*
X6542700Y600900D03*
X6701450Y589650D03*
X6604700Y937900D03*
X6764950Y948150D03*
X6701450Y926150D03*
X6542700Y914900D03*
X6574450Y1272900D03*
X6764950Y1267650D03*
X6694700Y1512900D03*
X6754700Y2327900D03*
X6579700D03*
X6669700Y2652900D03*
X6638500Y2726700D03*
X6579700Y2702900D03*
X6749700Y2962900D03*
X6616950Y4158900D03*
X6601950Y4643900D03*
X6536950Y5328900D03*
X6551950Y5818900D03*
X6561950Y6068900D03*
X6516950Y6238900D03*
X6631950Y7088900D03*
X6860200Y587400D03*
X7018950Y918650D03*
X6860200Y942400D03*
X7037130Y1894900D03*
X6909700Y2057900D03*
X7029700Y2289100D03*
X6844700Y2367900D03*
X6929700Y2507900D03*
X6834700Y2942650D03*
X6829700Y3031700D03*
Y3137900D03*
X6856950Y5338900D03*
X6981950Y6033900D03*
X6931950Y5938900D03*
X6986950Y6243900D03*
X6801950Y6358900D03*
X6996950Y6438900D03*
X6786950Y7088900D03*
X7196510Y931090D03*
X7241950Y4553900D03*
Y4428900D03*
X7266950Y4728900D03*
X7236950Y4628900D03*
X7201950Y5808900D03*
X7450750Y667900D03*
X7449700Y1237150D03*
X7341950Y4303900D03*
X7561950Y4463900D03*
X7556950Y4748900D03*
X7316950Y6407950D03*
X7646800Y2380000D03*
X7636800Y2620000D03*
X7642600Y2540000D03*
Y2460000D03*
X7641800Y2780000D03*
X7669700Y3212900D03*
Y3122900D03*
X7586950Y4163900D03*
X7766950Y4798900D03*
X7653950Y5101900D03*
X7716950Y5828900D03*
X7846950Y6088900D03*
X7716950Y6343900D03*
X7693180Y6253900D03*
X7621950Y6703900D03*
X7964700Y2100000D03*
Y2180000D03*
Y2260000D03*
Y2340000D03*
Y2500000D03*
Y2580000D03*
Y2740000D03*
Y2820000D03*
X8012600Y2700000D03*
X7964700Y2900000D03*
Y2980000D03*
Y3060000D03*
X8016800Y3140000D03*
X7964700Y3220000D03*
X8021950Y4158900D03*
X7992830Y4743900D03*
X8021950Y5848900D03*
X7906750Y6044100D03*
X7992150Y6079100D03*
X7991060Y6263010D03*
X8001950Y7063900D03*
X8191950Y4313900D03*
X8226950Y4583900D03*
X8286950Y4638900D03*
X8181950Y5123900D03*
X8201950Y6258900D03*
X8196000Y6364850D03*
X8186950Y6953900D03*
X8461950Y4163900D03*
X8431950Y4323900D03*
X8471950Y4798900D03*
X8451950Y4573900D03*
X8406950Y4608900D03*
X8541950Y5838900D03*
X8466950Y6009120D03*
X8381950Y6363900D03*
X8436950Y6258900D03*
X8542950Y6449900D03*
D12*
X5114700Y7907900D03*
X510200Y2443650D03*
X509700Y2622900D03*
Y2917900D03*
Y2802900D03*
Y3027900D03*
Y3212900D03*
X510200Y3396150D03*
Y3586650D03*
Y3777150D03*
Y3967650D03*
X504700Y4107900D03*
X529700Y4682900D03*
X637750Y5729000D03*
X849700Y1742900D03*
Y2037900D03*
X874100Y2442190D03*
X878120Y2838420D03*
X894700Y3260000D03*
X934700Y5724000D03*
X869700Y6922900D03*
X850000Y7197900D03*
X814700Y7587900D03*
X964700Y3657900D03*
X1159700Y7082900D03*
X1244900Y660000D03*
X1329900Y1192700D03*
X1454700Y1962900D03*
X1332700Y2829900D03*
X1342190Y3022900D03*
X1399700Y3447900D03*
X1219700Y3667900D03*
X1272200Y5857900D03*
X1430950Y5861650D03*
X1272200Y5957900D03*
X1279810Y6621950D03*
X1361650Y7510950D03*
X1314700Y7822900D03*
X1713370Y5047140D03*
X1699700Y5487900D03*
X1484700Y6967900D03*
X1557950Y6872900D03*
X1544700Y7191700D03*
X1625000Y7592900D03*
X1557950Y7987900D03*
X1675000Y7887900D03*
X1557950Y8332900D03*
X1933800Y803900D03*
X1964500Y1192700D03*
X1874700Y1667900D03*
X1936850Y1818520D03*
X1814700Y3017900D03*
X1784700Y4172900D03*
X1974700D03*
X1834700Y4792900D03*
X1849700Y5987900D03*
X1854200Y6412400D03*
X1875450Y7192900D03*
X1907200Y7301400D03*
X1875450Y8337900D03*
X2050000Y685000D03*
Y1135000D03*
X2077200Y1347900D03*
X2244700Y3522900D03*
X2204700Y5722900D03*
X2192950Y7491900D03*
X2097700Y7301400D03*
X2030770Y7986550D03*
X2034200Y8337900D03*
X2419700Y892900D03*
X2434700Y1822900D03*
X2415200Y3967650D03*
X2294700Y5282900D03*
X2460000Y5970000D03*
Y6225000D03*
X2335000D03*
X2351700Y7190900D03*
X2399700Y7342900D03*
X2288200Y7301400D03*
X2423860Y7918620D03*
X2351700Y8342900D03*
X2554700Y1822900D03*
X2596010Y2578780D03*
X2793400Y3976310D03*
X2605700Y3967650D03*
X2586630Y5973370D03*
X2724700Y7577900D03*
X2796200Y8012900D03*
X2891450Y531150D03*
X2915000Y1770000D03*
X2859700Y3882900D03*
X2827950Y7202900D03*
X2869700Y8277900D03*
X3054700D03*
X3081950Y527900D03*
X3249700Y1772900D03*
X3149700Y3687900D03*
X3284700Y3807900D03*
X3304000Y5527200D03*
X3307000Y5400200D03*
X3306000Y5654200D03*
X3314700Y5781200D03*
X3324700Y7357900D03*
X3144700Y7577900D03*
X3139700Y8042900D03*
X3234700Y8277900D03*
X3558350Y1624900D03*
X3494700Y3967650D03*
X3413700Y5258900D03*
X3540700Y5263900D03*
X3413700Y5896900D03*
X3540700Y5893900D03*
X3604700Y7202900D03*
X3612200Y7333150D03*
X3514700Y7892900D03*
X3599700Y8277900D03*
X3414700D03*
X3646800Y545000D03*
X3664700Y757900D03*
X3689700Y1207900D03*
X3685200Y3967650D03*
X3875700D03*
X3667700Y5269900D03*
X3794700Y5897900D03*
X3667700Y5895900D03*
X3714700Y7197900D03*
X3853500Y8189100D03*
X3779700Y8277900D03*
X4066200Y3967650D03*
X3901000Y5654200D03*
X3902000Y5400200D03*
X3904000Y5527200D03*
X3949700Y7357900D03*
X4124700Y7907900D03*
X4139700Y8277900D03*
X3959700D03*
X4256700Y3967650D03*
X4199700Y7172900D03*
X4259700Y7337900D03*
X4596700Y1772900D03*
X4544700Y3762900D03*
X4542450Y3987550D03*
X4439700Y3967900D03*
X4828200Y3967650D03*
X4940000Y7635000D03*
X4800900Y8174100D03*
X4874700Y8292900D03*
X5205000Y548200D03*
X5019700Y487900D03*
X5159700Y1712900D03*
X5191190Y2715740D03*
X4965000Y2835000D03*
X5037750Y3445000D03*
X4955200Y7428400D03*
X5144700Y8262900D03*
X5393350Y1676550D03*
X5284700Y3090400D03*
X5264700Y4327900D03*
X5348150Y7159450D03*
X5347900Y8262900D03*
X5449500D03*
X5246300D03*
X5514700Y547900D03*
X5745300Y2627900D03*
X5524700Y7428400D03*
X5551100Y8262900D03*
X5652700D03*
X5959700Y512900D03*
X5994700Y2287900D03*
X5872200Y3110400D03*
X5879700Y3337900D03*
X5819700Y3677900D03*
X5754700Y7517900D03*
X5749700Y7402900D03*
X5869600Y8237800D03*
X6264700Y3797900D03*
X6021300Y7320000D03*
X6044700Y8187900D03*
X6034700Y8087900D03*
X6369700Y507900D03*
X6344700Y1782900D03*
X6474700Y3797900D03*
X6655000Y513200D03*
X6804700Y2082400D03*
X6591300Y7321300D03*
X6809700Y8097900D03*
X6959700Y3607900D03*
X7064900Y5517700D03*
X6987200Y7955400D03*
X6919700Y8097900D03*
X7302500Y684700D03*
X7114000Y2147320D03*
X7119700Y3842900D03*
X7158450Y7396650D03*
X7129700Y7562900D03*
X7154700Y8252900D03*
X7256300D03*
X7435800Y976800D03*
X7509700Y3202900D03*
X7414700Y3662900D03*
X7577750Y3727900D03*
X7574700Y5517700D03*
X7561100Y8252900D03*
X7459500D03*
X7357900D03*
X7719700Y507900D03*
X7794700Y1822900D03*
X7670000Y1662900D03*
X7642600Y2185000D03*
X7644910Y2078960D03*
X7649700Y2300000D03*
X7739700Y3497900D03*
X7619700Y3582900D03*
X7839700Y3840650D03*
X7849700Y5517700D03*
X7773400Y7061200D03*
X7865900Y8252900D03*
X7764300D03*
X7662700D03*
X7907950Y966150D03*
X8088950Y1237150D03*
X7954700Y1907900D03*
X7987600Y2020000D03*
X7929700Y3577900D03*
X8104700Y5517700D03*
X8114700Y7687900D03*
X8029700Y7647900D03*
X8289700Y1692900D03*
Y2140000D03*
X8164700Y1948350D03*
X8279700Y2302900D03*
X8156750Y2684950D03*
X8259700Y3047900D03*
X8221950Y5417900D03*
X8174700Y7212900D03*
X8559700Y1072900D03*
X8592700Y2665900D03*
X8589700Y2507900D03*
X8595200Y2983400D03*
X8594700Y2824650D03*
X8424700Y2762900D03*
X8595450Y3142150D03*
X8589700Y3657900D03*
X8604700Y3812900D03*
X8604900Y5517700D03*
X8927700Y1395900D03*
X8932950Y2189650D03*
X8941700Y2665900D03*
X8930300Y3663500D03*
X8802100Y4257900D03*
X8779700Y4887900D03*
X8797100Y5285000D03*
X8684700Y6130500D03*
X8769700Y6287900D03*
X8776700Y6527800D03*
X8686000Y6908800D03*
X8754700Y7257900D03*
X8744700Y7877900D03*
X8948950Y3142150D03*
X9124700Y4478840D03*
X9141000Y4775200D03*
X9000300Y5295100D03*
X9005100Y5975000D03*
X9131000Y6527800D03*
X9005300Y7061200D03*
D13*
X605450Y4602650D03*
X1685000Y430000D03*
X1555000Y7800000D03*
X2002450Y7491900D03*
X5463200Y1776900D03*
X6694700Y8262900D03*
D14*
X500000Y500000D03*
Y8250000D03*
X9000000Y500000D03*
Y8250000D03*
D15*
X1696450Y6158400D03*
X1646450D03*
X1596450D03*
X1546450D03*
X1496450D03*
Y6412400D03*
X1546450D03*
X1596450D03*
X1646450D03*
X1696450D03*
X1746450Y6158400D03*
Y6412400D03*
D16*
X1393950Y3980350D03*
X1328950D03*
Y4589950D03*
X1393950D03*
X1653950Y3980350D03*
X1588950D03*
X1523950D03*
X1458950D03*
Y4589950D03*
X1523950D03*
X1588950D03*
X1653950D03*
X1913950Y3980350D03*
X1848950D03*
X1783950D03*
X1718950D03*
Y4589950D03*
X1783950D03*
X1848950D03*
X1913950D03*
D17*
X5032250Y4978000D03*
Y4928000D03*
X4937250D03*
Y4978000D03*
X5032250Y5232000D03*
Y5182000D03*
X4937250D03*
Y5232000D03*
X5030900Y5491000D03*
Y5441000D03*
X4935900D03*
Y5491000D03*
X5030900Y5745000D03*
Y5695000D03*
X4935900D03*
Y5745000D03*
X5032250Y6216250D03*
Y6166250D03*
X4937250D03*
Y6216250D03*
X5030900Y6680600D03*
X4935900D03*
X5034450Y6953900D03*
X4939450D03*
X5030900Y6730600D03*
X4935900D03*
X5034450Y7003900D03*
X4939450D03*
D18*
X5032250Y5033000D03*
Y4873000D03*
X4937250D03*
Y5033000D03*
X5032250Y5287000D03*
Y5127000D03*
X4937250D03*
Y5287000D03*
X5030900Y5546000D03*
Y5386000D03*
X4935900D03*
Y5546000D03*
X5030900Y5800000D03*
Y5640000D03*
X4935900D03*
Y5800000D03*
X5032250Y6111250D03*
X4937250D03*
X5032250Y6271250D03*
X4937250D03*
X5030900Y6625600D03*
X4935900D03*
X5034450Y6898900D03*
X4939450D03*
X5030900Y6785600D03*
X4935900D03*
X5034450Y7058900D03*
X4939450D03*
D19*
X5037750Y7965900D03*
X5190150D03*
X5037750Y8160900D03*
Y8095900D03*
Y8030900D03*
X5190150D03*
Y8095900D03*
Y8160900D03*
X7196750Y7970400D03*
Y7905400D03*
Y7840400D03*
Y7775400D03*
X7349150D03*
Y7840400D03*
Y7905400D03*
Y7970400D03*
D20*
X1585250Y1737400D03*
X1583800Y2355000D03*
Y2570000D03*
X1650900Y3122900D03*
X1498500D03*
Y3287900D03*
X1650900D03*
X1498500Y3447900D03*
X1650900D03*
X1737650Y1737400D03*
X1736200Y2355000D03*
Y2570000D03*
X1958000Y5491650D03*
Y5650400D03*
X2133500Y4477900D03*
X2110400Y5491650D03*
Y5650400D03*
X2173900Y6094900D03*
X2021500D03*
X2173900Y6412400D03*
X2021500D03*
X2173900Y6253650D03*
X2021500D03*
X2173900Y6571150D03*
X2021500D03*
X2285900Y4477900D03*
X3033500Y1992900D03*
X3037500Y2157900D03*
Y2316650D03*
Y2475400D03*
X3038500Y2792900D03*
X3037500Y2951650D03*
X3038500Y3217900D03*
Y3517900D03*
X3037500Y3904150D03*
X2912250Y5209150D03*
X3064650D03*
X2912250Y5367900D03*
X3064650D03*
X2912250Y5526650D03*
X3064650D03*
X2912250Y5685400D03*
X3064650D03*
X2912250Y5844150D03*
X3064650D03*
X2912250Y6002900D03*
X3064650D03*
X2942250Y7237900D03*
X3185900Y1992900D03*
X3189900Y2157900D03*
Y2316650D03*
Y2475400D03*
X3190900Y2792900D03*
X3189900Y2951650D03*
X3190900Y3217900D03*
Y3517900D03*
X3189900Y3904150D03*
X3094650Y7237900D03*
X3259750D03*
X3412150D03*
X3355000Y7523650D03*
X3507400D03*
X3800900Y1902900D03*
X3648500D03*
X3848500Y2187900D03*
X3853500Y2392900D03*
Y2692900D03*
Y2887900D03*
Y3197900D03*
Y3397900D03*
X3843500Y5212900D03*
X3853500Y7977900D03*
X3963500Y1902900D03*
X4115900D03*
X4000900Y2187900D03*
X4005900Y2392900D03*
Y2692900D03*
Y2887900D03*
Y3197900D03*
Y3397900D03*
X3995900Y5212900D03*
X3894750Y7237900D03*
X4047150D03*
X4005900Y7977900D03*
X4275750Y1903900D03*
X4253500Y2187900D03*
Y2397900D03*
X4248500Y2687900D03*
Y2892900D03*
X4253500Y3197900D03*
Y3392900D03*
X4294400Y5372900D03*
X4142000D03*
X4294400Y5214150D03*
X4142000D03*
X4294400Y5531650D03*
X4142000D03*
X4294400Y5690400D03*
X4142000D03*
X4294400Y5849150D03*
X4142000D03*
X4294400Y6007900D03*
X4142000D03*
X4558500Y1902900D03*
X4428150Y1903900D03*
X4405900Y2187900D03*
Y2397900D03*
X4400900Y2687900D03*
Y2892900D03*
X4405900Y3197900D03*
Y3392900D03*
X4710900Y1902900D03*
X4847250Y1903900D03*
X4999650D03*
X5190150Y2094400D03*
X5037750D03*
Y2602400D03*
X5190150D03*
X5037750Y2931650D03*
X5190150D03*
X5037750Y3249150D03*
X5190150D03*
X5037750Y3090400D03*
X5190150D03*
Y3566650D03*
X5037750D03*
X5092700Y5969000D03*
X4940300D03*
X5195750Y6623900D03*
X5190150Y7714150D03*
X5037750D03*
X5265750Y5213900D03*
X5418150D03*
X5215750Y5438900D03*
X5368150D03*
X5295750Y5773900D03*
X5448150D03*
X5215750Y6218900D03*
X5368150D03*
X5348150Y6623900D03*
X5778500Y7712900D03*
X5930900D03*
X6625250Y5301150D03*
X6777650D03*
X6968150Y1586400D03*
X6815750D03*
X6968150Y1776900D03*
X6815750D03*
Y1967400D03*
X6968150D03*
X7450750Y570400D03*
X7546000Y1237150D03*
X7603150Y570400D03*
X7698400Y1237150D03*
X8840900Y1072900D03*
X8688500D03*
X8841400Y1554650D03*
X8689000D03*
X8841400Y1395900D03*
X8689000D03*
X8841400Y1713400D03*
X8689000D03*
X8841400Y1872150D03*
X8689000D03*
X8841400Y2030900D03*
X8689000D03*
X8841400Y2189650D03*
X8689000D03*
X8841400Y2348400D03*
X8689000D03*
X8841400Y2665900D03*
X8689000D03*
X8841400Y2507150D03*
X8689000D03*
X8841400Y2983400D03*
X8689000D03*
X8841400Y2824650D03*
X8689000D03*
X8841400Y3142150D03*
X8689000D03*
X8875750Y4778900D03*
X8878300Y4618600D03*
X8875750Y4938900D03*
X8878300Y6362700D03*
Y6692900D03*
Y6527800D03*
X9028150Y4778900D03*
X9030700Y4618600D03*
X9028150Y4938900D03*
X9030700Y6362700D03*
Y6692900D03*
Y6527800D03*
D21*
X850000Y7073000D03*
X754750D03*
Y7327000D03*
X945250Y7073000D03*
Y7327000D03*
D22*
X8320700Y856150D03*
X8193700D03*
Y1237150D03*
X8320700D03*
X8447700Y856150D03*
Y1237150D03*
D23*
X615700Y3891450D03*
X510200Y4208950D03*
X615700Y4043850D03*
X510200Y4361350D03*
X573700Y4843950D03*
Y4996350D03*
Y5351950D03*
Y5504350D03*
X829700Y3896700D03*
Y4049100D03*
X891200Y4208950D03*
X700700D03*
X891200Y4361350D03*
X700700D03*
X764200Y4996350D03*
Y4843950D03*
Y5351950D03*
Y5504350D03*
Y6685450D03*
Y6837850D03*
X954700Y779950D03*
X1145200D03*
X954700Y932350D03*
X1145200D03*
X1049950Y3891450D03*
Y4208950D03*
Y4043850D03*
Y4494700D03*
Y4361350D03*
Y4647100D03*
X979700Y6676700D03*
X1169700D03*
X979700Y6829100D03*
X1169700D03*
X1335700Y779950D03*
Y932350D03*
X1430950Y5605950D03*
X1272200D03*
X1430950Y5758350D03*
X1272200D03*
Y6050450D03*
Y6202850D03*
X1399200Y6621950D03*
Y6774350D03*
X1429700Y7191700D03*
X1240450Y7193450D03*
X1429700Y7344100D03*
X1240450Y7345850D03*
Y7510950D03*
Y7663350D03*
X1494450Y779950D03*
X1653200D03*
X1494450Y932350D03*
X1653200D03*
X1494450Y1345100D03*
Y1192700D03*
X1748450Y5605950D03*
X1589700D03*
X1748450Y5758350D03*
X1589700D03*
X1716700Y6621950D03*
X1557950D03*
X1716700Y6774350D03*
X1557950D03*
X1716700Y8082450D03*
Y8234850D03*
X1557950Y8082450D03*
Y8234850D03*
X1815000Y778800D03*
Y931200D03*
X1780200Y1345100D03*
Y1192700D03*
X2002450Y4907450D03*
Y5059850D03*
X1843700Y4907450D03*
Y5059850D03*
X1794700Y5211700D03*
Y5364100D03*
X1875450Y6621950D03*
Y6774350D03*
Y6939450D03*
Y7091850D03*
X1930700Y7764950D03*
Y7917350D03*
X1875450Y8082450D03*
Y8234850D03*
X2050000Y778800D03*
Y931200D03*
X2192950Y1345100D03*
Y1192700D03*
X2197200Y3164700D03*
Y3317100D03*
X2159700Y4081700D03*
Y4234100D03*
X2161200Y4907450D03*
Y5059850D03*
X2192950Y6939450D03*
X2034200D03*
X2192950Y7091850D03*
X2034200D03*
X2129450Y7764950D03*
Y7917350D03*
X2192950Y8082450D03*
Y8234850D03*
X2034200Y8082450D03*
Y8234850D03*
X2542200Y970450D03*
Y1122850D03*
X2446950Y3605700D03*
Y3758100D03*
X2472450Y4081950D03*
Y4234350D03*
X2319950Y4079950D03*
Y4232350D03*
X2351700Y6939450D03*
X2510450D03*
X2351700Y7091850D03*
X2510450D03*
X2288200Y7764950D03*
Y7917350D03*
X2351700Y8082450D03*
Y8234850D03*
X2509700Y8081700D03*
Y8234100D03*
X2700950Y621200D03*
Y773600D03*
Y970450D03*
Y1122850D03*
X2605700Y3758100D03*
Y3605700D03*
X2759700Y3759100D03*
Y3606700D03*
X2794950Y4081950D03*
Y4234350D03*
X2631200Y4081950D03*
Y4234350D03*
X2669200Y6939450D03*
Y7091850D03*
X2796200Y7764950D03*
X2637450D03*
X2796200Y7917350D03*
X2637450D03*
X2891450Y621200D03*
Y773600D03*
X3081950Y621200D03*
Y773600D03*
X2859700Y970450D03*
X3018450D03*
X2859700Y1122850D03*
X3018450D03*
X2953700Y4081950D03*
Y4234350D03*
X3033700Y4905700D03*
Y5058100D03*
X2874950Y4905700D03*
Y5058100D03*
X3053700Y6150700D03*
X2894950D03*
X3053700Y6303100D03*
X2894950D03*
X2827950Y6939450D03*
X2986700D03*
X2827950Y7091850D03*
X2986700D03*
X3014700Y7966700D03*
Y8119100D03*
X3208950Y1097450D03*
Y1249850D03*
Y1535600D03*
Y1383200D03*
X3272450Y4081950D03*
Y4234350D03*
X3189700Y4906700D03*
Y5059100D03*
X3344700Y4906700D03*
Y5059100D03*
X3212450Y6150700D03*
Y6303100D03*
X3304200Y6939450D03*
X3145450D03*
X3304200Y7091850D03*
X3145450D03*
X3234700Y7966700D03*
Y8119100D03*
X3367700Y1097450D03*
X3526450D03*
X3367700Y1249850D03*
X3526450D03*
X3367700Y1535600D03*
Y1383200D03*
X3526450Y1535600D03*
Y1383200D03*
X3589950Y3707700D03*
X3431200D03*
X3589950Y3860100D03*
X3431200D03*
Y4081950D03*
Y4234350D03*
X3589950Y4081950D03*
Y4234350D03*
X3502950Y4905700D03*
Y5058100D03*
X3371200Y6150700D03*
X3529950D03*
X3371200Y6303100D03*
X3529950D03*
X3462950Y6939450D03*
Y7091850D03*
X3414700Y7966700D03*
Y8119100D03*
X3748700Y3707700D03*
Y3860100D03*
Y4081950D03*
Y4234350D03*
X3661700Y4905700D03*
Y5058100D03*
X3820450Y4905700D03*
Y5058100D03*
X3844700Y6151700D03*
X3688700Y6150700D03*
X3844700Y6304100D03*
X3688700Y6303100D03*
X3621700Y6939450D03*
X3780450D03*
X3621700Y7091850D03*
X3780450D03*
X3624700Y7966700D03*
Y8119100D03*
X4066200Y3707700D03*
X3907450D03*
X4066200Y3860100D03*
X3907450D03*
X4066200Y4081950D03*
Y4234350D03*
X3907450Y4081950D03*
Y4234350D03*
X4137950Y4905700D03*
Y5058100D03*
X3979200Y4905700D03*
Y5058100D03*
X4004200Y6150700D03*
Y6303100D03*
X4097950Y6939450D03*
X3939200D03*
X4097950Y7091850D03*
X3939200D03*
X4383700Y3707700D03*
Y3860100D03*
Y4081950D03*
Y4234350D03*
X4224950Y4081950D03*
Y4234350D03*
X4296700Y4905700D03*
Y5058100D03*
X4162950Y6150700D03*
X4321700D03*
X4162950Y6303100D03*
X4321700D03*
X4542450Y4081950D03*
Y4234350D03*
X4701200Y3712700D03*
X4874950Y3717700D03*
X4701200Y3865100D03*
X4874950Y3870100D03*
X4701200Y4081950D03*
Y4234350D03*
X4874950Y4081950D03*
Y4234350D03*
X5082200Y837100D03*
Y684700D03*
Y1033950D03*
Y1186350D03*
X5194700Y3711700D03*
X5033700Y3717700D03*
X5194700Y3864100D03*
X5033700Y3870100D03*
X5194700Y4081700D03*
Y4234100D03*
X5033700Y4081950D03*
Y4234350D03*
X5142450Y4520100D03*
Y4367700D03*
X4983700D03*
Y4520100D03*
X5272700Y837100D03*
Y684700D03*
X5431450Y837100D03*
Y684700D03*
X5272700Y1033950D03*
X5431450D03*
X5272700Y1186350D03*
X5431450D03*
X5463200Y1954700D03*
Y2107100D03*
X5367950Y3256450D03*
Y3408850D03*
Y3542200D03*
Y3694600D03*
X5590200Y837100D03*
Y684700D03*
X5748950Y837100D03*
Y684700D03*
X5590200Y1033950D03*
X5748950D03*
X5590200Y1351450D03*
Y1186350D03*
X5748950D03*
X5590200Y1503850D03*
X5621950Y1954700D03*
Y2107100D03*
X5685450Y3256450D03*
Y3408850D03*
X5526700Y3256450D03*
Y3408850D03*
X5685450Y3542200D03*
Y3694600D03*
X5526700Y3542200D03*
Y3694600D03*
X5907700Y837100D03*
Y684700D03*
Y1033950D03*
Y1186350D03*
X5971200Y1954700D03*
Y2107100D03*
X5780700Y1954700D03*
Y2107100D03*
X6002950Y2716700D03*
Y2869100D03*
Y3218350D03*
Y3065950D03*
X6066450Y837100D03*
Y684700D03*
X6225200Y837100D03*
Y684700D03*
X6066450Y1033950D03*
X6225200D03*
X6066450Y1186350D03*
X6225200D03*
Y3542200D03*
Y3694600D03*
X6206150Y4240700D03*
X6206950Y4527700D03*
X6206150Y4393100D03*
X6206950Y4807700D03*
Y4680100D03*
Y4960100D03*
X6231950Y5897700D03*
Y6050100D03*
Y6340100D03*
Y6187700D03*
Y6477700D03*
Y6630100D03*
X6164700Y8116700D03*
Y8269100D03*
X6383950Y837100D03*
Y684700D03*
X6542700Y837100D03*
Y684700D03*
X6383950Y1033950D03*
Y1186350D03*
Y3542200D03*
Y3694600D03*
X6542700Y3542200D03*
Y3694600D03*
X6519700Y8269100D03*
Y8116700D03*
X6344700Y8269100D03*
Y8116700D03*
X6701450Y837100D03*
Y684700D03*
X6574450Y1033950D03*
X6764950D03*
X6574450Y1351450D03*
Y1186350D03*
X6764950D03*
X6574450Y1503850D03*
X6754700Y2436700D03*
X6579700D03*
X6754700Y2589100D03*
X6579700D03*
X6754700Y2879100D03*
Y2726700D03*
X6701450Y4240700D03*
Y4526450D03*
Y4393100D03*
Y4678850D03*
X6706950Y5887700D03*
Y6040100D03*
X6701950Y6182700D03*
Y6335100D03*
Y6857700D03*
Y7010100D03*
X7018950Y684700D03*
Y837100D03*
X6860200Y684700D03*
Y837100D03*
X6929700Y2136700D03*
Y2431700D03*
Y2289100D03*
Y2584100D03*
Y2884100D03*
Y2731700D03*
Y3184100D03*
Y3031700D03*
X6987200Y7701450D03*
Y7853850D03*
X7177700Y684700D03*
Y837100D03*
X7145950Y4240700D03*
Y4526450D03*
Y4393100D03*
Y4678850D03*
X7181950Y5517700D03*
Y5670100D03*
X7186950Y5902700D03*
Y6055100D03*
Y6192700D03*
Y6345100D03*
X7456950Y5517700D03*
Y5670100D03*
X7653950Y4240700D03*
Y4526450D03*
Y4393100D03*
Y4812200D03*
Y4678850D03*
Y4964600D03*
X7726950Y5517700D03*
X7622200Y5891700D03*
X7726950Y5670100D03*
X7622200Y6044100D03*
X7621950Y6182700D03*
Y6335100D03*
Y6467700D03*
Y6620100D03*
X7907950Y716450D03*
Y868850D03*
X8096950Y4232700D03*
X8098450Y4526450D03*
X8096950Y4385100D03*
X8098450Y4812200D03*
Y4678850D03*
Y4964600D03*
X7986950Y5517700D03*
Y5670100D03*
X8093450Y5926700D03*
Y6079100D03*
Y6212450D03*
Y6364850D03*
X8098450Y6875950D03*
Y7028350D03*
X8221950Y5517700D03*
Y5670100D03*
X8288950Y7288700D03*
Y7441100D03*
Y7726850D03*
Y7574450D03*
X8257200Y7891950D03*
Y8044350D03*
X8544700Y4229950D03*
Y4382350D03*
Y4515700D03*
Y4668100D03*
X8491950Y5517700D03*
Y5670100D03*
X8541950Y6080100D03*
Y5927700D03*
X8542950Y6209200D03*
Y6361600D03*
X8765200Y7383950D03*
Y7536350D03*
D24*
X5621950Y7333150D03*
Y7523650D03*
X5875950Y7428400D03*
Y7333150D03*
Y7523650D03*
X7526950Y7333150D03*
Y7523650D03*
X7780950Y7428400D03*
Y7333150D03*
Y7523650D03*
D25*
X1661450Y2143800D03*
X1750350Y1953300D03*
X1572550D03*
X1654700Y2936800D03*
X1743600Y2746300D03*
X1565800D03*
X1977050Y1548300D03*
Y1961050D03*
X1975800Y2351300D03*
Y2746300D03*
X2008600Y3136300D03*
X1830800D03*
X1919700Y3326800D03*
X2154850Y1548300D03*
X2065950Y1738800D03*
Y2151550D03*
X2154850Y1961050D03*
X2153600Y2351300D03*
X2064700Y2541800D03*
Y2936800D03*
X2153600Y2746300D03*
X2478700Y2151550D03*
X2389800Y1961050D03*
X2390800Y2351300D03*
X2479700Y2541800D03*
Y2931800D03*
X2390800Y2741300D03*
X2385800Y3136300D03*
X2474700Y3326800D03*
X2505800Y7246300D03*
X2567600Y1961050D03*
X2568600Y2351300D03*
Y2741300D03*
X2563600Y3136300D03*
X2683600Y7246300D03*
X2594700Y7436800D03*
X7469800Y786300D03*
X7558700Y976800D03*
X7647600Y786300D03*
D26*
X1964350Y5269400D03*
Y5872650D03*
X2059600Y3681900D03*
X2262800D03*
X2167550Y5269400D03*
Y5872650D03*
X6409350Y1935650D03*
X6612550D03*
X6790350Y3808900D03*
X6993550D03*
X8930300D03*
X8727100D03*
X8802100Y4402700D03*
X8797100Y5142700D03*
X8801900Y6130500D03*
X8802100Y6908800D03*
X9005300Y4402700D03*
X9000300Y5142700D03*
X9005100Y6130500D03*
X9005300Y6908800D03*
D27*
X1532550Y3681900D03*
X1837350D03*
D28*
X5088550Y1459400D03*
Y7428400D03*
X5393350Y1459400D03*
Y7428400D03*
X6993550Y7396650D03*
X7298350D03*
D29*
X4086700Y1592750D03*
X3916700D03*
X4426700D03*
X4256700D03*
X4596700D03*
D30*
X6169700Y7524500D03*
Y7321300D03*
Y7726300D03*
Y7929500D03*
X6449700Y7321300D03*
Y7524500D03*
X8066700Y7530000D03*
Y7326800D03*
X8511200D03*
Y7530000D03*
Y7803050D03*
Y8006250D03*
D31*
X7265800Y1820000D03*
Y1740000D03*
Y2140000D03*
Y2060000D03*
Y1980000D03*
Y1900000D03*
Y2380000D03*
Y2300000D03*
Y2220000D03*
Y2540000D03*
Y2460000D03*
Y2940000D03*
Y2860000D03*
Y3180000D03*
Y3100000D03*
Y3020000D03*
Y3420000D03*
Y3340000D03*
Y3260000D03*
Y3660000D03*
Y3580000D03*
Y3500000D03*
X8434200Y1740000D03*
Y1820000D03*
Y1900000D03*
Y1980000D03*
Y2060000D03*
Y2140000D03*
Y2220000D03*
Y2300000D03*
Y2380000D03*
Y2460000D03*
Y2540000D03*
Y2860000D03*
Y2940000D03*
Y3020000D03*
Y3100000D03*
Y3180000D03*
Y3260000D03*
Y3340000D03*
Y3420000D03*
Y3500000D03*
Y3580000D03*
Y3660000D03*
D32*
X764200Y5879000D03*
Y6183800D03*
X1049950Y5879000D03*
Y6183800D03*
D33*
X680000Y1740000D03*
Y1820000D03*
Y1900000D03*
Y1980000D03*
Y2060000D03*
Y2140000D03*
Y2220000D03*
Y2300000D03*
Y2380000D03*
Y2460000D03*
Y2540000D03*
Y2620000D03*
Y2700000D03*
Y2780000D03*
Y2860000D03*
Y2940000D03*
Y3020000D03*
Y3100000D03*
Y3180000D03*
Y3260000D03*
X1120000Y1740000D03*
Y1820000D03*
Y1900000D03*
Y1980000D03*
Y2060000D03*
Y2140000D03*
Y2220000D03*
Y2300000D03*
Y2380000D03*
Y2460000D03*
Y2540000D03*
Y2620000D03*
Y2700000D03*
Y2780000D03*
Y2860000D03*
Y2940000D03*
Y3020000D03*
Y3100000D03*
Y3180000D03*
Y3260000D03*
D34*
X5437800Y8063400D03*
X5869600D03*
X7565050Y7872900D03*
X7996850D03*
D35*
X3081950Y7434750D03*
Y7739550D03*
X3812200Y7484750D03*
Y7789550D03*
X4193200Y7484750D03*
Y7789550D03*
D36*
X4256700Y957750D03*
D37*
X400000Y7250000D03*
X4300000Y400000D03*
X9100000Y7250000D03*
D38*
X900000Y1490000D03*
D39*
Y3510000D03*
M02*