G04 Gerber PCB Fabrication Data in Gerber – Example 2, created by Karel Tavernier, Filip Vermeire and Thomas Weyn*
G04 Ucamco copyright*
%TF.GenerationSoftware,Ucamco,UcamX,1.1.0-1400509*%
%TF.CreationDate,2014-07-14T00:00;00+01:00*%
%FSLAX25Y25*%
%MOMM*%
%TF.FileFunction,Copper,L10,Bot,Signal*%
%TF.FilePolarity,Positive*%
%TF.Part,Single*%
%TF.SameCoordinates*%
%TA.AperFunction,Conductor*%
%ADD10C,0.15000*%
%TA.AperFunction,NonConductor*%
%ADD11C,0.20000*%
%TA.AperFunction,ViaPad*%
%ADD12C,0.30000*%
%TA.AperFunction,ViaPad*%
%ADD13C,0.65000*%
%TA.AperFunction,TestPad*%
%ADD14C,0.70000*%
%TA.AperFunction,WasherPad*%
%ADD15C,6.00000*%
%TA.AperFunction,SMDPad,CuDef*%
%ADD16R,0.27000X0.80000*%
%ADD17R,0.40000X1.60000*%
%ADD18R,0.50000X0.30000*%
%ADD19R,0.50000X0.40000*%
%ADD20R,0.60000X0.40000*%
%ADD21R,0.60000X1.00000*%
%ADD22R,0.70000X1.00000*%
%ADD23R,0.80000X1.60000*%
%ADD24R,1.00000X0.60000*%
%ADD25R,1.00000X0.70000*%
%ADD26R,1.00000X1.00000*%
%ADD27R,1.00000X1.50000*%
%ADD28R,1.10000X1.80000*%
%ADD29R,1.10000X2.80000*%
%ADD30R,1.20000X2.30000*%
%ADD31R,1.50000X1.00000*%
%ADD32R,1.60000X0.50000*%
%ADD33R,1.80000X1.10000*%
%ADD34R,2.00000X0.50000*%
%ADD35R,2.00000X2.30000*%
%ADD36R,2.80000X1.10000*%
%ADD37R,9.80000X8.50000*%
%TA.AperFunction,Conductor*%
%ADD38C,0*%
G01*
%LPD*%
D38*
G36*
X7685060Y7737890D02*
Y8007910D01*
X7445040D01*
Y7737890D01*
X7399160D01*
Y8010410D01*
X7299140D01*
Y7777900D01*
X7246760D01*
Y8010410D01*
X7146740D01*
Y7777900D01*
X7079700D01*
Y8247900D01*
X7224700Y8392900D01*
X8134700D01*
X8324700Y8202900D01*
Y8094360D01*
X8187190D01*
Y8002900D01*
X8149700D01*
X8129700Y8022900D01*
X7874700D01*
X7859700Y8007900D01*
Y7627900D01*
X7819700Y7587900D01*
X7469700D01*
X7376660Y7680940D01*
Y7735390D01*
X7399160D01*
Y7737890D01*
X7445040D01*
X7685060D01*
G37*
G36*
X3130660Y6084690D02*
X3774710D01*
Y6085690D01*
X3918190D01*
Y6084690D01*
X4075990D01*
Y5307900D01*
X3984700D01*
X3975710Y5298910D01*
X3929890D01*
Y5124110D01*
X3909510D01*
Y5298910D01*
X3777490D01*
Y5124110D01*
X3430710D01*
Y5125110D01*
X3130660D01*
Y6084690D01*
G37*
G36*
X5557810Y7928390D02*
Y8198410D01*
X5317790D01*
Y7928390D01*
X5247620D01*
Y7943030D01*
X5247616Y7943473D01*
X5247606Y7943917D01*
X5247590Y7944360D01*
X5247560Y7945090D01*
X5247554Y7945236D01*
X5247547Y7945383D01*
X5247540Y7945530D01*
X5247180Y7952130D01*
X5247126Y7952935D01*
X5247053Y7953738D01*
X5246960Y7954540D01*
X5246710Y7956470D01*
X5246538Y7957627D01*
X5246324Y7958778D01*
X5246070Y7959920D01*
X5246000Y7960210D01*
X5244815Y7964058D01*
X5243163Y7967730D01*
X5241070Y7971170D01*
X5240160Y7972480D01*
Y8200910D01*
X5140140D01*
Y7925890D01*
X5182600D01*
Y7871660D01*
X5182610Y7870792D01*
X5182643Y7869925D01*
X5182700Y7869060D01*
X5182720Y7868860D01*
Y7862900D01*
X5077760D01*
Y7925890D01*
X5087760D01*
Y8200910D01*
X4987740D01*
Y7925890D01*
X4997740D01*
Y7862900D01*
X4979700D01*
X4879700Y7962900D01*
Y8217900D01*
X4989700Y8327900D01*
X5719700D01*
X5754700Y8292900D01*
Y8202900D01*
X5739700Y8187900D01*
Y7937900D01*
X5749700Y7927900D01*
X5829700D01*
Y7787910D01*
X5723490D01*
Y7637900D01*
X5494700D01*
X5269700Y7862900D01*
X5247740D01*
Y7869860D01*
X5247736Y7870320D01*
X5247726Y7870780D01*
X5247710Y7871240D01*
X5247670Y7872180D01*
X5247658Y7872427D01*
X5247645Y7872673D01*
X5247630Y7872920D01*
X5247620Y7873090D01*
Y7928390D01*
X5317790D01*
X5557810D01*
G37*
D10*
X680000Y1980000D02*
X672100Y1987900D01*
X559700D01*
X529700Y1957900D01*
X524700D01*
X680000Y2380000D02*
X662900Y2362900D01*
X515610D01*
X514700Y2363810D01*
X515280D01*
X680000Y2460000D02*
X662100Y2477900D01*
X564700D01*
X529700Y2512900D01*
X464700D01*
X680000Y2540000D02*
X550000D01*
X540000Y2550000D01*
X487200D01*
X445000Y2592200D01*
Y2738200D01*
X509700Y2802900D01*
X1149090Y4127900D02*
X969700D01*
X924700Y4082900D01*
Y4027900D01*
X869700Y3972900D01*
X709700D01*
X628250Y3891450D01*
X615700D01*
X510200Y4361350D02*
X533150D01*
X599700Y4427900D01*
Y4447900D01*
X1234700Y4742900D02*
X1214700Y4722900D01*
X844700D01*
X724450Y4602650D01*
X605450D01*
X628960Y5085570D02*
X596370D01*
X573700Y5062900D01*
Y4996350D01*
X573700Y5504350D02*
Y5591900D01*
X1120000Y2220000D02*
X991800D01*
X907200Y2135400D01*
Y1719080D01*
X836020Y1647900D01*
X789700D01*
X680000Y2300000D02*
X827600D01*
X854700Y2272900D01*
X680000Y2220000D02*
X826800D01*
X680000Y2620000D02*
X827600D01*
X680000Y2780000D02*
X682100Y2777900D01*
X829700D01*
X680000Y2700000D02*
X831800D01*
X829700Y3896700D02*
X812650Y3897900D01*
X909700D01*
X964700Y3952900D01*
Y3977900D01*
X1030650Y4043850D01*
X1049950D01*
X707200Y4445400D02*
Y4367850D01*
X700700Y4361350D01*
X889700Y4452900D02*
Y4362850D01*
X891200Y4361350D01*
X673110Y5729000D02*
X655430Y5711320D01*
X673110Y5729000D02*
X655430Y5746680D01*
X673110Y5729000D02*
X827750D01*
X887750Y5789000D01*
X922750D01*
X1012750Y5879000D01*
X1049950D01*
X637750Y5729000D02*
X673110D01*
X1049950Y6183800D02*
X1049700Y6183550D01*
Y6077900D01*
X984700Y6012900D01*
X804700D01*
X764200Y5972400D01*
Y5879000D01*
X764200Y6837850D02*
Y7063550D01*
X754750Y7073000D01*
Y7167850D01*
X749700Y7172900D01*
X754700Y7177900D01*
X754750Y7327000D02*
Y7462950D01*
X1046750Y779950D02*
X1044700Y782000D01*
Y857900D01*
X1119150Y932350D01*
X1145200D01*
X954700Y779950D02*
X1046750D01*
X1120000Y1740000D02*
X1117100Y1742900D01*
X964700D01*
X1120000Y1820000D02*
X962600D01*
X1120000Y1900000D02*
X976800D01*
X964700Y1887900D01*
X1120000Y2140000D02*
X1296800D01*
X1120000Y2060000D02*
X1307600D01*
X1120000Y1980000D02*
X1301800D01*
X1120000Y2380000D02*
X1112900Y2372900D01*
X969700D01*
X1120000Y2300000D02*
X971800D01*
X1120000Y2460000D02*
X966800D01*
X1120000Y2620000D02*
X971800D01*
X1120000Y2540000D02*
X1425000D01*
X1520000Y2445000D01*
X1637500D01*
X1661450Y2421050D01*
Y2143800D01*
X972600Y2540000D02*
X1120000D01*
X1120000Y2700000D02*
X966800D01*
X1049950Y3891450D02*
Y3803150D01*
X1653950Y3980350D02*
Y4137900D01*
X1618950Y4172900D01*
X1272900D01*
X1222900Y4122900D01*
X1164700D01*
X1149090Y4127900D02*
X1159400Y4128200D01*
X1149090Y4127900D02*
X1159400Y4117600D01*
X1164700Y4122900D02*
X1159700Y4127900D01*
X1149090D01*
X1718950Y3980350D02*
Y4136050D01*
X1647100Y4207900D01*
X1164700D01*
X1049950Y4208950D02*
X1163650D01*
X1164700Y4207900D01*
X1049950Y4043850D02*
X1130000D01*
X1140950Y4032900D01*
X1184700D01*
X1718950Y4589950D02*
X1719700Y4589200D01*
Y4493870D01*
X1671230Y4445400D01*
X1521230D01*
X1437180Y4361350D01*
X1049950D01*
X939700Y4647900D02*
X1049150D01*
X1049950Y4647100D01*
X979700Y6676700D02*
Y6592900D01*
X1240450Y7345850D02*
X1161750D01*
X1144700Y7362900D01*
Y7422900D01*
X1244050Y867860D02*
X1245000Y858200D01*
X1244050Y867860D02*
X1234400Y858200D01*
X1244050Y867860D02*
Y857250D01*
X1239700Y852900D01*
X1335700Y932350D02*
X1331250Y927900D01*
X1267900D01*
X1244050Y904050D01*
Y867860D01*
X1583800Y2355000D02*
X1505000D01*
X1430000Y2280000D01*
Y2115000D01*
X1375000Y2060000D01*
X1307600D01*
X1328950Y3980350D02*
X1328600Y3980000D01*
X1237600D01*
X1184700Y4032900D01*
X1272200Y5758350D02*
X1299250D01*
X1349700Y5707900D01*
Y5662900D01*
X1406650Y5605950D01*
X1430950D01*
X1272200Y5822540D02*
X1254520Y5840220D01*
X1272200Y5822540D02*
X1289880Y5840220D01*
X1272200Y5822540D02*
Y5857900D01*
X1272200Y5758350D02*
Y5822540D01*
X1169700Y6676700D02*
X1233500D01*
X1264700Y6707900D01*
X1399200Y6774350D02*
X1433250D01*
X1479700Y6727900D01*
Y6677900D01*
X1535650Y6621950D01*
X1557950D01*
X1429700Y7344100D02*
X1427950Y7345850D01*
X1240450D01*
X1720310Y430050D02*
X1702630Y412370D01*
X1720310Y430050D02*
X1702630Y447730D01*
X1720310Y430050D02*
X1684950D01*
X1494450Y932350D02*
X1510250D01*
X1579700Y862900D01*
X1649700Y1012900D02*
Y935850D01*
X1653200Y932350D01*
X1585250Y1737400D02*
Y1803450D01*
X1619700Y1837900D01*
X1583800Y2570000D02*
Y2480000D01*
X1654700Y2936800D02*
X1555800D01*
X1650900Y3287900D02*
Y3264100D01*
X1591800Y3205000D01*
X1568000D01*
X1498500Y3135500D01*
Y3122900D01*
X1919700Y3326800D02*
X1846800D01*
X1734700Y3214700D01*
Y3147900D01*
X1709700Y3122900D01*
X1650900D01*
X1729700Y3282900D02*
X1655900D01*
X1650900Y3287900D01*
Y3447900D01*
X1532550Y3681900D02*
Y3647450D01*
X1580000Y3600000D01*
Y3388200D01*
X1498500Y3306700D01*
Y3287900D01*
X1639700Y3682900D02*
X1533550D01*
X1532550Y3681900D01*
X1588950Y3980350D02*
Y3878650D01*
X1649700Y3817900D01*
X2594700D01*
X2604700Y3807900D01*
Y3759100D01*
X2605700Y3758100D01*
X1588950Y4123650D02*
Y3980350D01*
X1523950Y3980350D02*
Y3878650D01*
X1619700Y3782900D01*
X1774700D01*
X1837350Y3720250D01*
Y3681900D01*
X1458950Y3980350D02*
X1459700Y3979600D01*
Y3847900D01*
X1913950Y3980350D02*
Y4138650D01*
X1719700Y4332900D01*
X1669700D01*
X1629700Y4732900D02*
X1689700D01*
X1718950Y4703650D01*
Y4589950D01*
X1748450Y5605950D02*
X1726650D01*
X1669700Y5662900D01*
Y5697900D01*
X1609250Y5758350D01*
X1589700D01*
X1546450Y6158400D02*
Y6096150D01*
X1569700Y6072900D01*
X1914700D01*
X1939700Y6097900D01*
X2018500D01*
X2021500Y6094900D01*
X1646450Y6158400D02*
Y6287900D01*
X1696450Y6158400D02*
Y6249650D01*
X1764700Y6317900D01*
X1874700D01*
X1696450Y6412400D02*
Y6494650D01*
X1724700Y6522900D01*
X1869700D01*
X1557950Y6621950D02*
Y6532900D01*
X1716700Y8082450D02*
X1690150D01*
X1634700Y8137900D01*
Y8172900D01*
X1572750Y8234850D01*
X1557950D01*
Y8297540D01*
X1540270Y8315220D01*
X1557950Y8297540D02*
X1575630Y8315220D01*
X1557950Y8297540D02*
Y8332900D01*
X1815000Y778800D02*
Y485000D01*
X1760050Y430050D01*
X1720310D01*
X1737650Y1737400D02*
Y1837300D01*
X1750350Y1850000D01*
Y1953300D01*
X1736200Y2355000D02*
X1810000D01*
X1845000Y2390000D01*
Y2600000D01*
X1837350Y3681900D02*
X2059600D01*
X1783950Y3980350D02*
Y3852900D01*
X1958000Y5491650D02*
Y5275750D01*
X1964350Y5269400D01*
X1748450Y5605950D02*
X1846650D01*
X1958000Y5650400D02*
Y5866300D01*
X1964350Y5872650D01*
X1746450Y6158400D02*
Y6204650D01*
X1784700Y6242900D01*
X1929700D01*
X2010750D01*
X2021500Y6253650D01*
X1874700Y6317900D02*
X1969200Y6412400D01*
X2021500D01*
X2021500Y6571150D02*
X2018250Y6567900D01*
X1964700D01*
X1919700Y6522900D01*
X1869700D01*
X1716700Y6774350D02*
X1743250D01*
X1784700Y6732900D01*
Y6697900D01*
X1860650Y6621950D01*
X1875450D01*
X1716700Y6774350D02*
Y6852900D01*
X1875450Y6939450D02*
Y6862150D01*
X1930700Y7764950D02*
Y7700680D01*
X1947480Y7683900D01*
X1970700D01*
X1930700Y7917350D02*
Y8007750D01*
X1875450Y8082450D02*
X1894250D01*
X1964700Y8152900D01*
Y8177900D01*
X2021650Y8234850D01*
X2034200D01*
X2050000Y720360D02*
X2067680Y702680D01*
X2050000Y720360D02*
X2032320Y702680D01*
X2050000Y720360D02*
Y685000D01*
X2050000Y778800D02*
Y720360D01*
X2050000Y931200D02*
Y1099640D01*
X2065950Y2151550D02*
Y1869150D01*
X2008100Y1811300D01*
X2006630D01*
X1991850Y1796520D01*
Y1795730D01*
X1979700Y1783580D01*
Y1672900D01*
X2009700Y1642900D01*
X2044700D01*
X2069700Y1617900D01*
Y1457900D01*
X2019700Y1407900D01*
Y1311570D01*
X2063370Y1267900D01*
X2584700D01*
X2599700Y1252900D01*
X2050000Y1099640D02*
X2032320Y1117320D01*
X2050000Y1099640D02*
X2067680Y1117320D01*
X2050000Y1099640D02*
Y1135000D01*
X2065950Y1738800D02*
X2164700D01*
X2169700Y2147900D02*
X2069600D01*
X2065950Y2151550D01*
X2189700Y2541800D02*
X2064700D01*
X2064700Y2936800D02*
X2224700D01*
X2700950Y1211650D02*
Y1281650D01*
X2314700Y1667900D01*
Y2892900D01*
X2270800Y2936800D01*
X2224700D01*
X2197200Y3164700D02*
X2037000D01*
X2008600Y3136300D01*
X2197200Y3317100D02*
X2465000D01*
X2474700Y3326800D01*
X2069700Y3502900D02*
Y3559900D01*
X2059600Y3570000D01*
Y3681900D01*
X2159700Y4234100D02*
Y4317900D01*
X2161200Y5059850D02*
X2220650D01*
X2249700Y5088900D01*
Y5147900D01*
X2002450Y5059850D02*
X2161200D01*
X2064700Y5387900D02*
Y5427900D01*
X2110400Y5473600D01*
Y5491650D01*
X2029700Y5567900D02*
X2049700D01*
X2110400Y5628600D01*
Y5650400D01*
X2192950Y6939450D02*
X2219450D01*
X2259700Y6979700D01*
Y6992290D01*
X2074700Y6847900D02*
X2035000Y6887600D01*
Y6938650D01*
X2034200Y6939450D01*
X2129450Y7764950D02*
Y7688150D01*
X2129450Y7917350D02*
Y8002650D01*
X2034200Y8234850D02*
Y8302540D01*
X2274700Y8162900D02*
X2217100D01*
X2192950Y8187050D01*
Y8234850D01*
X2034200Y8302540D02*
X2016520Y8320220D01*
X2034200Y8302540D02*
X2051880Y8320220D01*
X2034200Y8302540D02*
Y8337900D01*
X2478700Y2151550D02*
Y1882500D01*
X2492200Y1869000D01*
Y1715400D01*
X2787200Y1420400D01*
Y690400D01*
X2718000Y621200D01*
X2700950D01*
X2478700Y2151550D02*
X2574700D01*
X2483600Y2623390D02*
X2474400Y2632600D01*
X2483600Y2623390D02*
X2485000Y2632600D01*
X2483600Y2623390D02*
Y2541800D01*
X2479700D01*
X2479700Y2637900D02*
X2483600Y2634000D01*
Y2623390D01*
X2479700Y2931800D02*
X2364700D01*
X2446950Y3758100D02*
X2469500D01*
X2529700Y3697900D01*
Y3677900D01*
X2354700Y3547900D02*
X2389700Y3582900D01*
X2424150D01*
X2446950Y3605700D01*
X2399700Y4152900D02*
Y4177900D01*
X2456150Y4234350D01*
X2472450D01*
X2354700Y4572900D02*
Y4422900D01*
X2474700Y4302900D01*
Y4236600D01*
X2472450Y4234350D01*
X2454700Y4572900D02*
Y4537900D01*
X2631200Y4361400D01*
Y4234350D01*
X2335000Y6189640D02*
Y5435000D01*
X2410000Y5360000D01*
Y4825000D01*
X2840000Y4395000D01*
X3010000D01*
X3075000Y4330000D01*
Y4145000D01*
X3150000Y4145000D02*
Y4355000D01*
X3030000Y4475000D01*
X2850000D01*
X2470000Y4855000D01*
Y5400000D01*
X2395000Y5475000D01*
Y6160000D01*
X2435000Y6200000D01*
X5526700Y3542200D02*
Y3591700D01*
X5555000Y3620000D01*
X5870000D01*
X5895000Y3645000D01*
Y3940000D01*
X5195000Y4640000D01*
X2770000D01*
X2530000Y4880000D01*
Y5425000D01*
X2460000Y5495000D01*
Y5934640D01*
X2442320Y5952320D01*
X2460000Y5934640D02*
X2477680Y5952320D01*
X2460000Y5934640D02*
Y5970000D01*
X2435000Y6200000D02*
Y6225000D01*
X2435000Y6200000D02*
X2460000D01*
X2435000Y6200000D02*
X2460000Y6225000D01*
X2335000Y6189640D02*
X2317320Y6207320D01*
X2335000Y6189640D02*
X2352680Y6207320D01*
X2335000Y6225000D02*
Y6189640D01*
X2439700Y7012900D02*
X2366250Y6939450D01*
X2351700D01*
X2259700Y6992290D02*
X2275000Y7007600D01*
X2259700Y6992290D02*
Y7002900D01*
X2269700Y7012900D01*
X2288200Y7764950D02*
Y7689400D01*
X2288200Y8007900D02*
Y7917350D01*
X2269700Y8007900D02*
X2288200D01*
X2602100D01*
X2637450Y7972550D01*
Y7917350D01*
X2351700Y8082450D02*
Y8145000D01*
X2333800Y8162900D01*
X2274700D01*
X2604700Y732900D02*
X2639700D01*
X2680400Y773600D01*
X2700950D01*
X2542200Y970450D02*
Y890400D01*
X2679700Y892900D02*
Y949200D01*
X2700950Y970450D01*
X2542200Y1122850D02*
Y1210400D01*
X2700950Y1122850D02*
Y1211650D01*
X2624700Y3237900D02*
Y3197400D01*
X2563600Y3136300D01*
X2529700Y3677900D02*
Y3657900D01*
X2581900Y3605700D01*
X2605700D01*
X2759700Y3606700D02*
Y3542900D01*
X2794700Y3507900D01*
X2641060Y3967650D02*
X2623380Y3949970D01*
X2641060Y3967650D02*
X2623380Y3985330D01*
X2641060Y3967650D02*
X2654450D01*
X2703700Y4016900D01*
Y4178900D01*
X2648250Y4234350D01*
X2631200D01*
X2605700Y3967650D02*
X2641060D01*
X2528120Y4578270D02*
X2793490Y4312900D01*
X2953700D01*
X5685450Y3542200D02*
X5872200D01*
X5945000Y3615000D01*
Y3975000D01*
X5215000Y4705000D01*
X2790000D01*
X2586630Y4908370D01*
Y5938010D01*
X2568950Y5955690D01*
X2586630Y5938010D02*
X2604310Y5955690D01*
X2586630Y5938010D02*
Y5973370D01*
X2742200Y6995400D02*
X2686250Y6939450D01*
X2669200D01*
X2582200Y6995400D02*
X2526250Y6939450D01*
X2510450D01*
X2742200Y6995400D02*
Y7012900D01*
X2749700Y7012900D02*
Y7002900D01*
X2742200Y6995400D01*
X2582200Y6995400D02*
Y7012900D01*
X2589700Y7012900D02*
Y7002900D01*
X2582200Y6995400D01*
X2683600Y7246300D02*
X2720200Y7282900D01*
X2909700D01*
X2942250Y7250350D01*
Y7237900D01*
X2594700Y7436800D02*
Y7537900D01*
X2637450Y7764950D02*
X2699950D01*
X2720000Y7785000D01*
Y8002600D01*
X2640900Y8081700D01*
X2609700D01*
X2509700Y8081700D02*
X2609700D01*
X2869700Y8277900D02*
X2829700Y8317900D01*
X2539700D01*
X2509700Y8287900D01*
Y8234100D01*
X2891450Y566510D02*
Y531150D01*
X2891450Y566510D02*
X2909130Y548830D01*
X2891450Y566510D02*
X2873770Y548830D01*
X2891450Y621200D02*
Y566510D01*
X2984700Y712900D02*
X2901450D01*
X2891450Y722900D01*
Y773600D01*
X2839700Y887900D02*
Y950450D01*
X2859700Y970450D01*
X3119700Y962900D02*
X3026000D01*
X3018450Y970450D01*
X2859700Y1122850D02*
Y1207900D01*
X3029700Y1207900D02*
Y1134100D01*
X3018450Y1122850D01*
X2954700Y3207900D02*
X3028500D01*
X3038500Y3217900D01*
X2864700Y4152900D02*
Y4132900D01*
X2813750Y4081950D01*
X2794950D01*
X2953700Y4234350D02*
Y4312900D01*
X2953700Y4234350D02*
X2794950D01*
X2939700Y4577900D02*
X3082100D01*
X3352100Y4307900D01*
X3354700D01*
X2827950Y6939450D02*
X2841250D01*
X2897200Y6995400D01*
X2986700Y6939450D02*
Y6862900D01*
X2897200Y6995400D02*
Y7012900D01*
X2897200Y6995400D02*
X2904700Y7002900D01*
Y7012900D01*
X3094650Y7237900D02*
Y7252950D01*
X3024700Y7322900D01*
X3014700Y8119100D02*
Y8237900D01*
X3054700Y8277900D01*
X3081950Y563260D02*
Y527900D01*
X3081950Y563260D02*
X3064270Y545580D01*
X3081950Y563260D02*
X3099630Y545580D01*
X3081950Y621200D02*
Y563260D01*
X3179700Y773200D02*
X3082350D01*
X3081950Y773600D01*
X3282200Y1330400D02*
Y1315080D01*
X3289700Y1315080D02*
X3282200D01*
X3282200Y1330400D02*
X3229400Y1383200D01*
X3208950D01*
X3282200Y1330400D02*
X3289700Y1322900D01*
Y1315080D01*
X3208950Y1249850D02*
X3229850D01*
X3287280Y1307280D01*
X3290000D01*
X3282200Y1315080D01*
X3189900Y2157900D02*
X3273850D01*
X3339700Y2092050D01*
Y1942900D01*
X3109700Y2762290D02*
Y2187900D01*
X3079700Y2157900D01*
X3037500D01*
X3278930Y2517120D02*
X3279700Y2516350D01*
Y2494700D01*
X3260000Y2475000D01*
X3190300D01*
X3189900Y2475400D01*
X3109700Y2762290D02*
X3109400Y2772600D01*
X3109700Y2762290D02*
X3120000Y2772600D01*
X3114700Y2777900D02*
X3109700Y2772900D01*
Y2762290D01*
X3190900Y2792900D02*
X3244700D01*
X3274700Y2762900D01*
X3189700Y3412900D02*
Y3219100D01*
X3190900Y3217900D01*
X3355000Y4165000D02*
X3292450D01*
X3272450Y4185000D01*
Y4234350D01*
X3145450Y6939450D02*
Y6863170D01*
X3145390D01*
X3259750Y7237900D02*
X3264700Y7242850D01*
Y7257900D01*
X3319700Y7312900D01*
Y7357900D01*
X3234700Y8119100D02*
Y8277900D01*
X3367700Y1249850D02*
X3387750D01*
X3434700Y1202900D01*
Y1172900D01*
X3367700Y1383200D02*
Y1249850D01*
X3526450Y1383200D02*
Y1249850D01*
X3464700Y2642900D02*
X3559700Y2547900D01*
Y1709050D01*
X3615850Y1652900D01*
Y1454050D01*
X3545000Y1383200D01*
X3526450D01*
X3354700Y4307900D02*
X3400200D01*
X3431200Y4276900D01*
Y4234350D01*
X3464700Y6857900D02*
Y6937700D01*
X3462950Y6939450D01*
X3304200Y6939450D02*
Y6863400D01*
X3414700Y8119100D02*
Y8277900D01*
X3749700Y1477900D02*
X3854700D01*
X3916700Y1539900D01*
Y1592750D01*
X3589950Y4234350D02*
Y4293150D01*
X3609700Y4312900D01*
X3748700Y4234350D02*
Y4311900D01*
X3634700Y6862900D02*
Y6926450D01*
X3621700Y6939450D01*
X3815830Y6861310D02*
X3780450Y6896690D01*
Y6939450D01*
X3624700Y8119100D02*
Y8252900D01*
X3599700Y8277900D01*
X3929700Y2882900D02*
X3858500D01*
X3853500Y2887900D01*
X3907450Y4234350D02*
Y4272890D01*
X3938450Y4303890D01*
X3994700D01*
X4074700Y4312900D02*
Y4242850D01*
X4066200Y4234350D01*
X4097950Y6939450D02*
X4081250D01*
X4039530Y6897730D01*
Y6864080D01*
X3867200Y7035400D02*
Y7017900D01*
X3867200Y7035400D02*
X3923650Y7091850D01*
X3939200D01*
X3859700Y7017900D02*
Y7027900D01*
X3867200Y7035400D01*
X4224950Y4234350D02*
Y4312650D01*
X4983700Y4520100D02*
X4831900D01*
X4759700Y4447900D01*
X4419700D01*
X4364700Y4502900D01*
X4369700D01*
X4383700Y4234350D02*
Y4311900D01*
X4542450Y4234350D02*
Y4310150D01*
X4701200Y4081950D02*
Y3865100D01*
X4874950Y3870100D02*
X4891900D01*
X4919700Y3897900D01*
Y4057900D01*
X4895650Y4081950D01*
X4874950D01*
X4649700Y4157900D02*
Y4117900D01*
X4685650Y4081950D01*
X4701200D01*
X4824700Y4142290D02*
X4814400Y4152600D01*
X4824700Y4142290D02*
X4825000Y4152600D01*
X4824700Y4142290D02*
Y4112900D01*
X4855650Y4081950D01*
X4874950D01*
X4819700Y4157900D02*
X4824700Y4152900D01*
Y4142290D01*
X5082200Y927900D02*
Y837100D01*
X5082200Y1033950D02*
Y927900D01*
X5037750Y2602400D02*
X5114700D01*
X5134700Y3987900D02*
Y3902900D01*
X5173500Y3864100D01*
X5194700D01*
X5134700Y3987900D02*
Y4042900D01*
X5173500Y4081700D01*
X5194700D01*
X5033700Y3870100D02*
X5056900D01*
X5084700Y3897900D01*
Y4047900D01*
X5050650Y4081950D01*
X5033700D01*
X4984700Y4137290D02*
X4969400Y4152600D01*
X4984700Y4137290D02*
Y4107900D01*
X5010650Y4081950D01*
X5033700D01*
X4974700Y4157900D02*
X4984700Y4147900D01*
Y4137290D01*
X4983700Y4520100D02*
X5142450D01*
X5135050Y8160900D02*
X5190150D01*
X5135050Y8095900D02*
X5190150D01*
X5135050Y8030900D02*
X5190150D01*
X5037750Y8030900D02*
X5092850D01*
X4982650Y8030900D02*
X5037750D01*
X5037750Y8095900D02*
X5092850D01*
X4982650Y8095900D02*
X5037750D01*
X5037750Y8160900D02*
X5092850D01*
X4982650Y8160900D02*
X5037750D01*
Y8206000D01*
X5431450Y684700D02*
Y589650D01*
X5272700Y684700D02*
Y600900D01*
X5590200Y684700D02*
X5577900D01*
X5503950Y758650D01*
Y973650D01*
X5443650Y1033950D01*
X5431450D01*
X5272700Y837100D02*
Y904900D01*
X5249700Y927900D01*
X5272700Y1033950D02*
Y974900D01*
X5309700Y937900D01*
X5431450Y837100D02*
Y921150D01*
X5349700Y1102900D02*
Y1132900D01*
X5296250Y1186350D01*
X5272700D01*
X5362200Y1240400D02*
Y1262900D01*
X5362200Y1240400D02*
X5354700Y1247900D01*
Y1262900D01*
X5431450Y1186350D02*
X5416250D01*
X5362200Y1240400D01*
X5367950Y3408850D02*
Y3353500D01*
X5390000Y3331450D01*
X5367950Y3408850D02*
Y3542200D01*
X5265750Y5213900D02*
X5176950D01*
Y5213880D01*
X5177010D01*
X5621950Y7523650D02*
X5595600Y7550000D01*
X5532600D01*
X5277600Y7805000D01*
X5247930D01*
X5215230Y7837700D01*
Y7869860D01*
X5215190Y7870800D01*
X5215110Y7871660D01*
Y7943030D01*
X5215080Y7943760D01*
X5214720Y7950360D01*
X5214470Y7952290D01*
X5214400Y7952580D01*
X5201080Y7965900D01*
X5190150D01*
X5190150Y8160900D02*
X5245250D01*
X5190150Y8160900D02*
Y8206000D01*
X5190150Y8095900D02*
X5245250D01*
X5190150Y8030900D02*
X5245250D01*
X5312700Y8063400D02*
X5437800D01*
X5590200Y684700D02*
Y593400D01*
X5590200Y837100D02*
Y898400D01*
X5614700Y922900D01*
X5590200Y1351450D02*
X5568750Y1330000D01*
X5521800D01*
X5504700Y1312900D01*
Y1067900D01*
X5538650Y1033950D01*
X5590200D01*
X5609700Y1247290D02*
X5609400Y1257600D01*
X5609700Y1247290D02*
X5620000Y1257600D01*
X5609700Y1247290D02*
Y1205850D01*
X5590200Y1186350D01*
X5614700Y1262900D02*
X5609700Y1257900D01*
Y1247290D01*
X5590200Y1503850D02*
Y1587400D01*
X5590200Y1351450D02*
X5688250D01*
X5464700Y2182900D02*
Y2108600D01*
X5463200Y2107100D01*
X5621950Y2107100D02*
X5645500D01*
X5709700Y2042900D01*
Y2007900D01*
X5762900Y1954700D01*
X5780700D01*
X5463200Y2107100D02*
X5621950D01*
X5685450Y3408850D02*
Y3542200D01*
X5526700Y3408850D02*
Y3542200D01*
X5437800Y7923300D02*
Y8063400D01*
X5562900D01*
X5437800Y8063400D02*
Y8203500D01*
X5748950Y684700D02*
Y588650D01*
X5907700Y684700D02*
Y589900D01*
X5907700Y837100D02*
Y905290D01*
Y915900D01*
X5914700Y922900D01*
X5907700Y905290D02*
X5920000Y917600D01*
X5748950Y1033950D02*
Y983650D01*
X5789700Y942900D01*
X5748950Y837100D02*
Y898650D01*
X5719700Y927900D01*
X5864700Y950020D02*
Y1007900D01*
X5890750Y1033950D01*
X5907700D01*
X5748950Y1186350D02*
Y1267150D01*
X5907700Y1186350D02*
Y1277900D01*
X5780700Y2107100D02*
Y2211900D01*
X5718400Y7712900D02*
X5778500D01*
Y7793000D01*
X6066450Y684700D02*
Y589650D01*
X6225200Y684700D02*
Y593400D01*
X6066450Y1033950D02*
Y961150D01*
X6094700Y932900D01*
X6225200Y1033950D02*
X6234700D01*
X6274700Y993950D01*
Y947900D01*
X6225200Y837100D02*
Y907400D01*
X6209700Y922900D01*
X6066450Y837100D02*
Y891150D01*
X6034700Y922900D01*
X6066450Y1186350D02*
Y1272900D01*
X6225200Y1186350D02*
Y1277400D01*
X7037130Y1894900D02*
X7039700Y1897470D01*
Y2142900D01*
X6959700Y2222900D01*
X6494700D01*
X6226500Y1954700D01*
X5971200D01*
X6294090Y3477900D02*
X6244700D01*
X6225200Y3497400D01*
Y3542200D01*
X6383950Y684700D02*
Y588650D01*
X6444700Y950020D02*
X6445000Y950320D01*
Y993650D01*
X6404700Y1033950D01*
X6383950D01*
X6383950Y898040D02*
X6369400Y912600D01*
X6383950Y898040D02*
Y908650D01*
X6374700Y917900D01*
X6383950Y837100D02*
Y898040D01*
X6383950Y1186350D02*
Y1273650D01*
X6459700Y2527900D02*
X6504700Y2572900D01*
X6563500D01*
X6579700Y2589100D01*
X6294090Y3477900D02*
X6304400Y3467600D01*
X6309700Y3472900D02*
X6304700Y3477900D01*
X6294090D01*
X6309700Y3472900D02*
X6359700D01*
X6383950Y3497150D01*
Y3542200D01*
X6294090Y3477900D02*
X6304400Y3478200D01*
X6542700Y684700D02*
Y600900D01*
X6701450Y684700D02*
Y589650D01*
X6574450Y1033950D02*
Y968150D01*
X6604700Y937900D01*
X6764950Y1033950D02*
Y948150D01*
X6701450Y837100D02*
Y926150D01*
X6542700Y837100D02*
Y914900D01*
X6574450Y1272900D02*
Y1351450D01*
X6574450Y1186350D02*
Y1272900D01*
X6764950Y1186350D02*
Y1267650D01*
X6694700Y1512900D02*
X6583500D01*
X6574450Y1503850D01*
X6612550Y1935650D02*
Y2085750D01*
X6669700Y2142900D01*
X6894700D01*
X6900900Y2136700D01*
X6929700D01*
X6754700Y2436700D02*
Y2327900D01*
X6579700Y2436700D02*
Y2327900D01*
X6754700Y2589100D02*
X6698500D01*
X6669700Y2617900D01*
Y2652900D01*
X6579700Y2589100D02*
Y2702900D01*
X6754700Y2726700D02*
X6638500D01*
X6749700Y2962900D02*
Y2884100D01*
X6754700Y2879100D01*
X7018950Y684700D02*
X7041500D01*
X7104700Y747900D01*
Y777900D01*
X7163900Y837100D01*
X7177700D01*
X6860200Y684700D02*
Y587400D01*
X7018950Y837100D02*
Y918650D01*
X6860200Y837100D02*
Y942400D01*
X7029700Y2289100D02*
X6929700D01*
X7029700Y2289100D02*
Y2702900D01*
X7000900Y2731700D01*
X6929700D01*
X6929700Y2431700D02*
Y2387900D01*
X6909700Y2367900D01*
X6844700D01*
X6929700Y2584100D02*
Y2507900D01*
X6834700Y2942650D02*
X6844950D01*
X6852450Y2935150D01*
X6903500Y2884100D01*
X6929700D01*
X6852450Y2935150D02*
X6834700D01*
X6929700Y3031700D02*
X6829700D01*
X6829700Y3137900D02*
Y3159100D01*
X6854700Y3184100D01*
X6929700D01*
X7084700Y3817900D02*
X7075700Y3808900D01*
X6993550D01*
X7196510Y931090D02*
Y855910D01*
X7177700Y837100D01*
X7756440Y1820000D02*
X7265800D01*
X7624700Y2272900D02*
X7411800Y2060000D01*
X7265800D01*
X7265800Y1980000D02*
X7437600D01*
X7617600Y2160000D01*
X7644700Y2078960D02*
Y2082900D01*
X7461800Y1900000D01*
X7265800D01*
X7265800Y2380000D02*
X7482600D01*
X7642600Y2540000D01*
X7265800Y2300000D02*
X7482600D01*
X7642600Y2460000D01*
X7646800Y2380000D02*
X7486800Y2220000D01*
X7265800D01*
X7265800Y2460000D02*
X7476800D01*
X7636800Y2620000D01*
X7641800Y2780000D02*
X7638900Y2782900D01*
X7604700D01*
X7367600Y3020000D01*
X7265800D01*
X7964700Y2820000D02*
X7962600Y2817900D01*
X7849700D01*
X7567600Y3100000D01*
X7265800D01*
X7265800Y3420000D02*
X7462600D01*
X7669700Y3212900D01*
X7669700Y3122900D02*
X7569700Y3222900D01*
Y3225690D01*
X7537490Y3257900D01*
X7534700D01*
X7452600Y3340000D01*
X7265800D01*
X7584340Y3582900D02*
X7268700D01*
X7265800Y3580000D01*
X7704340Y3497900D02*
X7267900D01*
X7265800Y3500000D01*
X7084700Y3817900D02*
X7094700Y3842900D01*
X7084700Y3817900D02*
X7119700D01*
X7119700Y3842900D02*
X7109700D01*
X7084700Y3817900D01*
X7196750Y7840400D02*
X7251850D01*
X7141650Y7840400D02*
X7196750D01*
X7196750Y7905400D02*
X7251850D01*
X7141650Y7905400D02*
X7196750D01*
X7196750Y7970400D02*
X7251850D01*
X7141650Y7970400D02*
X7196750D01*
Y8015500D01*
X7294050Y7970400D02*
X7349150D01*
X7294050Y7905400D02*
X7349150D01*
X7294050Y7840400D02*
X7349150D01*
X7450750Y667900D02*
X7469800Y686950D01*
Y786300D01*
X7450750Y570400D02*
Y667900D01*
X7449700Y1237150D02*
X7546000D01*
X7526950Y7523650D02*
X7497700Y7552900D01*
X7454700D01*
X7349150Y7658450D01*
Y7775400D01*
X7565050Y7732800D02*
Y7872900D01*
X7349150Y7970400D02*
X7404250D01*
X7349150Y7970400D02*
Y8015500D01*
X7349150Y7905400D02*
X7404250D01*
X7349150Y7840400D02*
X7404250D01*
X7565050Y7872900D02*
X7690150D01*
X7439950Y7872900D02*
X7565050D01*
Y8013000D01*
X7698400Y1237150D02*
Y922900D01*
X7647600Y872100D01*
Y786300D01*
X7716000Y717900D01*
X7906500D01*
X7907950Y716450D01*
X7756440Y1820000D02*
X7777020Y1840580D01*
X7756440Y1820000D02*
X7777020Y1805220D01*
X7794700Y1822900D02*
X7791800Y1820000D01*
X7756440D01*
X8689000Y1554650D02*
X8227950D01*
X7864700Y1917900D01*
Y1962900D01*
X7667600Y2160000D01*
X7644910Y2078960D02*
X7644700D01*
X8689000Y1395900D02*
X8326700D01*
X7644700Y2077900D01*
Y2078960D01*
X7624700Y2272900D02*
Y2300000D01*
X7624700Y2272900D02*
X7649700Y2275000D01*
X7649700Y2300000D02*
Y2297900D01*
X7624700Y2272900D01*
X7617600Y2160000D02*
Y2185000D01*
X7617600Y2160000D02*
X7642600D01*
X7617600Y2160000D02*
X7642600Y2185000D01*
X7667600Y2160000D02*
X7642600D01*
X7667600Y2160000D02*
Y2185000D01*
X7667600Y2160000D02*
X7642600Y2185000D01*
X7584340Y3582900D02*
X7602020Y3600580D01*
X7584340Y3582900D02*
X7602020Y3565220D01*
X7619700Y3582900D02*
X7584340D01*
X7704340Y3497900D02*
X7722020Y3515580D01*
X7704340Y3497900D02*
X7722020Y3480220D01*
X7739700Y3497900D02*
X7704340D01*
X8434200Y1820000D02*
X8432100Y1817900D01*
X8139700D01*
X7987600Y1970000D01*
Y1984640D01*
X7969920Y2002320D01*
X7987600Y1984640D02*
X8005280Y2002320D01*
X7987600Y1984640D02*
Y2020000D01*
X7964700Y2100000D02*
X7990000D01*
X8080000Y2010000D01*
Y1951720D01*
X8140870Y1890850D01*
X8198980D01*
X8208130Y1900000D01*
X8434200D01*
X7964700Y2180000D02*
X8119700Y2025000D01*
X8225000D01*
X8270000Y1980000D01*
X8434200D01*
X8434200Y2060000D02*
X8164700D01*
X7964700Y2260000D01*
X8434200Y2220000D02*
X8084700D01*
X7964700Y2340000D01*
X8434200Y2380000D02*
X8182600D01*
X8062600Y2500000D01*
X7964700D01*
X7964700Y2580000D02*
X7967600Y2582900D01*
X8049700D01*
X8172600Y2460000D01*
X8434200D01*
X8434200Y3020000D02*
X8316800D01*
X8036800Y2740000D01*
X7964700D01*
X8012600Y2700000D02*
X8056800D01*
X8296800Y2940000D01*
X8434200D01*
X7964700Y2900000D02*
X7967600Y2902900D01*
X8029700D01*
X8306800Y3180000D01*
X8434200D01*
X8434200Y3260000D02*
X8321800D01*
X8041800Y2980000D01*
X7964700D01*
X7964700Y3060000D02*
X7967600Y3062900D01*
X8014700D01*
X8291800Y3340000D01*
X8434200D01*
X8434200Y3420000D02*
X8296800D01*
X8016800Y3140000D01*
X7964700Y3220000D02*
X7966800Y3217900D01*
X8029700D01*
X8311800Y3500000D01*
X8434200D01*
X7965060Y3577900D02*
X7947380Y3560220D01*
X7965060Y3577900D02*
X7947380Y3595580D01*
X7965060Y3577900D02*
X8432100D01*
X8434200Y3580000D01*
X7929700Y3577900D02*
X7965060D01*
X8096950Y4232700D02*
Y4180000D01*
X8075850Y4158900D01*
X8021950D01*
X8320700Y1237150D02*
Y1103900D01*
X8351700Y1072900D01*
X8524340D01*
X8315060Y2302900D02*
X8297380Y2285220D01*
X8315060Y2302900D02*
X8297380Y2320580D01*
X8315060Y2302900D02*
X8431300D01*
X8434200Y2300000D01*
X8279700Y2302900D02*
X8315060D01*
X8182100Y8044350D02*
X8257200D01*
Y8099450D01*
X8524340Y1072900D02*
X8542020Y1090580D01*
X8524340Y1072900D02*
X8542020Y1055220D01*
X8595060Y1072900D02*
X8577380Y1055220D01*
X8595060Y1072900D02*
X8577380Y1090580D01*
X8595060Y1072900D02*
X8559700D01*
X8524340D01*
X8688500Y1072900D02*
X8595060D01*
X8434200Y1820000D02*
X8542600D01*
X8579700Y1782900D01*
Y1732900D01*
X8599200Y1713400D01*
X8689000D01*
X8689000Y1872150D02*
X8595450D01*
X8567600Y1900000D01*
X8434200D01*
X8689000Y2030900D02*
X8625900D01*
X8575000Y1980000D01*
X8434200D01*
X8434200Y2060000D02*
X8536800D01*
X8574700Y2097900D01*
Y2137900D01*
X8626450Y2189650D01*
X8689000D01*
X8434200Y2220000D02*
X8561800D01*
X8589700Y2247900D01*
Y2317900D01*
X8619700Y2347900D01*
X8688500D01*
X8689000Y2348400D01*
X8628060Y2665900D02*
X8610380Y2648220D01*
X8628060Y2665900D02*
X8610380Y2683580D01*
X8628060Y2665900D02*
X8592700D01*
X8689000Y2665900D02*
X8628060D01*
X8625810Y2507150D02*
X8607380Y2490220D01*
X8625810Y2507150D02*
X8607380Y2525580D01*
X8625810Y2507150D02*
X8590450D01*
X8589700Y2507900D01*
X8689000Y2507150D02*
X8625810D01*
X8689000Y2824650D02*
X8630060D01*
X8594700D01*
X8630060Y2824650D02*
X8612380Y2842330D01*
X8630060Y2824650D02*
X8612380Y2806970D01*
X8689000Y3142150D02*
X8630810D01*
X8595450D01*
X8630810Y3142150D02*
X8613130Y3159830D01*
X8630810Y3142150D02*
X8613130Y3124470D01*
X8689000Y2983400D02*
X8630560D01*
X8595200D01*
X8630560Y2983400D02*
X8612880Y3001080D01*
X8630560Y2983400D02*
X8612880Y2965720D01*
X8640060Y3812900D02*
X8622380Y3795220D01*
X8640060Y3812900D02*
X8622380Y3830580D01*
X8604700Y3812900D02*
X8640060D01*
X8723100D01*
X8727100Y3808900D01*
X9124700Y4443480D02*
X9107020Y4461160D01*
X9124700Y4443480D02*
X9142380Y4461160D01*
X9124700Y4443480D02*
Y4427700D01*
X9099700Y4402700D01*
X9005300D01*
X9124700Y4478840D02*
Y4443480D01*
X9105640Y4775200D02*
X9123320Y4792880D01*
X9105640Y4775200D02*
X9123320Y4757520D01*
X9105640Y4775200D02*
X9031850D01*
X9028150Y4778900D01*
X9141000Y4775200D02*
X9105640D01*
X556550Y2940000D02*
X522070Y2905530D01*
X556550Y2940000D02*
X531800D01*
X509700Y2917900D01*
X680000Y2940000D02*
X556550D01*
X522200Y4058580D02*
Y4107900D01*
X522200Y4058580D02*
X536930Y4043850D01*
X615700D01*
X700700Y4208950D02*
X615700D01*
X510200D01*
X504700Y4107900D02*
Y4203450D01*
X510200Y4208950D01*
X615700Y4043850D02*
X824450D01*
X829700Y4049100D01*
X504700Y4107900D02*
Y4076080D01*
X522200Y4058580D01*
X615700Y4043850D02*
Y4208950D01*
X573700Y4843950D02*
Y4726900D01*
X529700Y4682900D01*
X764200Y4843950D02*
X573700D01*
X573700Y5351950D02*
X764200D01*
X849700Y1820000D02*
X680000D01*
X849700Y1897900D02*
Y1820000D01*
X849700Y1742900D02*
Y1820000D01*
X680000Y1740000D02*
X682900Y1742900D01*
X849700D01*
X680000Y2140000D02*
X817600D01*
X849700Y2107900D01*
Y2037900D01*
X680000Y1900000D02*
X847600D01*
X849700Y1897900D01*
X849700Y2037900D02*
Y1897900D01*
X800000Y4208950D02*
X891200D01*
X800000Y4208950D02*
Y4149700D01*
X829700Y4120000D01*
Y4049100D01*
X2133500Y4477900D02*
Y4461700D01*
X2059700Y4387900D01*
X1629700D01*
X1524700Y4282900D01*
X914700D01*
X891200Y4259400D01*
Y4208950D01*
X700700Y4208950D02*
X800000D01*
X984700Y5067900D02*
Y5072900D01*
X908150Y4996350D01*
X764200D01*
X864700Y5297900D02*
X839700D01*
X785650Y5351950D01*
X764200D01*
X764200Y5504350D02*
X863250D01*
X869700Y6922900D02*
X864700Y6917900D01*
Y6712900D01*
X837250Y6685450D01*
X764200D01*
X850000Y6967350D02*
X882070Y6935270D01*
X850000Y6967350D02*
Y6942600D01*
X869700Y6922900D01*
X850000Y7073000D02*
Y6967350D01*
X1250000Y779950D02*
X1145200D01*
X954700Y932350D02*
Y1017900D01*
X1120000Y2860000D02*
X1302600D01*
X1332700Y2829900D01*
X1049950Y4494700D02*
X1076500D01*
X1144700Y4562900D01*
X1272200Y5605950D02*
X1197750D01*
X1074700Y5482900D01*
X1179700Y7038150D02*
Y6839100D01*
X1169700Y6829100D01*
X979700Y6829100D02*
X1169700D01*
X945250Y7327000D02*
Y7234750D01*
X995000Y7185000D01*
X1057600D01*
X1159700Y7082900D01*
X1179700Y7038150D02*
X1147330Y7070530D01*
X1159700Y7082900D02*
X1179700Y7062900D01*
Y7038150D01*
X1335700Y779950D02*
X1250000D01*
X1494450Y779950D02*
X1335700D01*
X1244900Y660000D02*
Y774850D01*
X1250000Y779950D01*
X1494450Y1192700D02*
X1329900D01*
X1494450Y1345100D02*
X1394700D01*
X1565800Y2746300D02*
X1416300D01*
X1332700Y2829900D01*
X1399700Y3447900D02*
X1498500D01*
X1328950Y4589950D02*
Y4847150D01*
X1539700Y5057900D01*
X1677860D01*
X1430950Y5861650D02*
X1432200Y5862900D01*
X1714700D01*
X1748450Y5829150D01*
Y5758350D01*
X1430950Y5758350D02*
Y5861650D01*
X1272200Y6050450D02*
Y5957900D01*
X3144700Y7577900D02*
X2939700D01*
X2704700Y7342900D01*
X2514700D01*
X2442600Y7415000D01*
X1766800D01*
X1614700Y7262900D01*
X1255000D01*
X1240450Y7248350D01*
Y7193450D01*
X1429700Y7191700D02*
X1544700D01*
X1240450Y7510950D02*
X1361650D01*
X1653200Y779950D02*
X1494450D01*
X1494450Y1345100D02*
X1780200D01*
X1489050Y1953300D02*
X1467070Y1950530D01*
X1489050Y1953300D02*
X1467070Y1975270D01*
X1489050Y1953300D02*
X1464300D01*
X1454700Y1962900D01*
X1572550Y1953300D02*
X1489050D01*
X1677860Y5057900D02*
X1701000Y5059510D01*
X1677860Y5057900D02*
X1701000Y5034770D01*
X1713370Y5047140D02*
X1702610Y5057900D01*
X1677860D01*
X1843700Y5059850D02*
X1809700D01*
X1792750Y5042900D01*
X1717610D01*
X1713370Y5047140D01*
Y5156570D01*
X1768500Y5211700D01*
X1794700D01*
X1794700Y5364100D02*
X1778500Y5347900D01*
X1624700D01*
X1609700Y5332900D01*
X1589700Y5605950D02*
Y5352900D01*
X1609700Y5332900D01*
X1699700Y5487900D02*
X1664700Y5522900D01*
Y5547900D01*
X1606650Y5605950D01*
X1589700D01*
X1557950Y6774350D02*
Y6872900D01*
X1607950Y6922900D01*
X1744700D01*
X1809700Y6857900D01*
Y6822900D01*
X1858250Y6774350D01*
X1875450D01*
X1555000Y7800000D02*
Y7984950D01*
X1557950Y7987900D01*
X1557950Y8082450D02*
Y7987900D01*
X1815000Y931200D02*
X1912600D01*
X1933800Y910000D01*
Y803900D01*
X1780200Y1192700D02*
X1964500D01*
X1844700Y1417900D02*
Y1382900D01*
X1806900Y1345100D01*
X1780200D01*
X1977050Y1548300D02*
X1936850Y1588500D01*
Y1641650D01*
X1937200Y1642000D01*
Y1693800D01*
X1936850Y1694150D01*
Y1818520D01*
X1977050Y1961050D02*
X1939700Y1923700D01*
Y1827900D01*
X1930320Y1818520D01*
X1936850D01*
X1975800Y2351300D02*
Y2239190D01*
X1960950Y2224340D01*
Y1977150D01*
X1977050Y1961050D01*
X1975800Y2746300D02*
X1965000Y2735500D01*
Y2362100D01*
X1975800Y2351300D01*
X1830800Y3136300D02*
X1814700Y3120200D01*
Y3017900D01*
X2385800Y3136300D02*
X2287400Y3037900D01*
X1994700D01*
X1974700Y3017900D01*
X1814700D01*
X1913950Y4589950D02*
Y4682150D01*
X1939700Y4707900D01*
X2109700D01*
X2134700Y4682900D01*
Y4479100D01*
X2133500Y4477900D01*
X1783950Y4589950D02*
Y4770000D01*
X1806850Y4792900D01*
X1834700D01*
X2161200Y4907450D02*
X2159700Y4905950D01*
Y4837900D01*
X2114700Y4792900D01*
X1834700D01*
X1848950Y4753900D02*
X1822330Y4780530D01*
X1848950Y4753900D02*
Y4778650D01*
X1834700Y4792900D01*
Y4898450D01*
X1843700Y4907450D01*
X1848950Y4589950D02*
Y4753900D01*
X2002450Y4907450D02*
X1990150D01*
X1919700Y4977900D01*
Y4997900D01*
X1857750Y5059850D01*
X1843700D01*
X2173900Y6094900D02*
Y6062100D01*
X2099700Y5987900D01*
X1849700D01*
X1746450Y6412400D02*
X1854200D01*
X2034200Y7091850D02*
X1875450D01*
Y7192900D01*
X1716700Y8234850D02*
X1875450D01*
Y8337900D01*
X2077200Y1347900D02*
Y1385400D01*
X2139700Y1447900D01*
Y1527900D01*
X2154850Y1543050D01*
Y1548300D01*
X2192950Y1192700D02*
X2309500D01*
X2192950Y1345100D02*
X2307500D01*
X2154850Y1961050D02*
X2244700Y1871200D01*
Y1637900D01*
X2155100Y1548300D01*
X2154850D01*
X2153600Y2351300D02*
X2239700Y2265200D01*
Y2042900D01*
X2157850Y1961050D01*
X2154850D01*
X2153600Y2746300D02*
X2244700Y2655200D01*
Y2442900D01*
X2153600Y2351800D01*
Y2351300D01*
X2262800Y3565750D02*
X2232330Y3535270D01*
X2244700Y3522900D02*
X2262800Y3541000D01*
Y3565750D01*
X2319950Y4079950D02*
X2161450D01*
X2159700Y4081700D01*
X2050900Y4139100D02*
Y4081700D01*
X2159700Y4081700D02*
X2050900D01*
X2256450Y5269400D02*
X2167550D01*
X2167550Y5872650D02*
Y5760050D01*
X2204700Y5722900D01*
X2173900Y6253650D02*
Y6094900D01*
X2173900Y6571150D02*
Y6412400D01*
Y6253650D01*
X2192950Y7091850D02*
X2034200D01*
X1994700Y7577900D02*
Y7499650D01*
X2002450Y7491900D01*
X2724700Y7577900D02*
X2684700Y7617900D01*
X2129700D01*
X2003700Y7491900D01*
X2002450D01*
X2030770Y7986550D02*
X2029700Y7985480D01*
Y7982900D01*
X2034200Y7987400D01*
Y8082450D01*
X2192950D01*
X2389800Y1961050D02*
Y1867800D01*
X2434700Y1822900D01*
X2389800Y1961050D02*
Y2056830D01*
X2373700Y2072930D01*
Y2334200D01*
X2390800Y2351300D01*
X2380000Y2362100D01*
Y2730500D01*
X2390800Y2741300D01*
X2385800Y3136300D02*
X2487100Y3035000D01*
X2582600D01*
X2614700Y3002900D01*
Y2792900D01*
X2568600Y2746800D01*
Y2741300D01*
X2262800Y3565750D02*
Y3681900D01*
X2472450Y4081950D02*
X2485940Y4068460D01*
Y4005030D01*
X2319950Y4232350D02*
Y4308150D01*
X2319950Y4079950D02*
X2470450D01*
X2472450Y4081950D01*
X2631200Y4081950D02*
X2472450D01*
X2285900Y4477900D02*
Y4342200D01*
X2319950Y4308150D01*
X2256450Y5269400D02*
X2282330Y5295270D01*
X2294700Y5282900D02*
X2277320Y5265520D01*
X2277080D01*
X2273200Y5269400D01*
X2256450D01*
X2351700Y7091850D02*
Y7190900D01*
X2351700Y7091850D02*
X2510450D01*
X2505800Y7246300D02*
X2496300D01*
X2399700Y7342900D01*
X2351700Y8234850D02*
Y8342900D01*
X2567600Y1860800D02*
Y1827500D01*
X2567600Y1860800D02*
Y1961050D01*
X2554700Y1822900D02*
Y1847900D01*
X2567600Y1860800D01*
X2568600Y2351300D02*
X2619700Y2300200D01*
Y2097900D01*
X2567600Y2045800D01*
Y1961050D01*
X2568600Y2351300D02*
Y2551370D01*
X2596010Y2578780D01*
X3037500Y2582900D02*
X2600130D01*
X2596010Y2578780D01*
X2568600Y2741300D02*
Y2606190D01*
X2596010Y2578780D01*
X2859700Y3882900D02*
Y3792900D01*
X2830900Y3764100D01*
X2764700D01*
X2759700Y3759100D01*
X2874950Y4905700D02*
X2716900D01*
X2709700Y4912900D01*
X2719700Y5597900D02*
Y5558900D01*
X2750700Y5527900D01*
X2911000D01*
X2912250Y5526650D01*
X2912250Y5685400D02*
X2752200D01*
X2714700Y5722900D01*
X2714700Y6227900D02*
Y6110300D01*
X2822100Y6002900D01*
X2912250D01*
X2912250Y5844150D02*
X2843450D01*
X2714700Y5972900D01*
X2715000Y6357900D02*
Y6315000D01*
X2805000Y6225000D01*
X3028700D01*
X3053700Y6250000D01*
Y6303100D01*
X2669200Y7091850D02*
X2827950D01*
X2510450Y7091850D02*
X2669200D01*
X2724700Y7577900D02*
X2812900D01*
X2890000Y7655000D01*
Y7764950D01*
X2915000Y1770000D02*
X3033500Y1888500D01*
Y1992900D01*
X3037500Y2316650D02*
Y2475400D01*
X3037500Y2582900D02*
Y2475400D01*
X3038500Y2792900D02*
X3037500Y2791900D01*
Y2582900D01*
X3038500Y2792900D02*
Y2950650D01*
X3037500Y2951650D01*
X2994700Y3047900D02*
Y3012900D01*
X3037500Y2970100D01*
Y2951650D01*
X3149700Y3687900D02*
X3148850D01*
X3037500Y3799250D01*
Y3904150D01*
X2953700Y4081950D02*
Y3976900D01*
X2859700Y3882900D01*
X2953700Y4081950D02*
X3189700D01*
X3033700Y4905700D02*
Y4856900D01*
X2984700Y4807900D01*
X3033700Y5058100D02*
X3188700D01*
X3189700Y5059100D01*
X3033700Y5058100D02*
X2874950D01*
X2912250Y5367900D02*
X2864700D01*
X2834700Y5337900D01*
X2912250Y5209150D02*
X2833450D01*
X2969700Y6372900D02*
X2912850D01*
X2894950Y6355000D01*
Y6303100D01*
X2894950Y6150700D02*
X3053700D01*
X3053700Y6303100D02*
Y6393900D01*
X2969700Y6477900D01*
X2827950Y7091850D02*
Y7202900D01*
X2827950Y7091850D02*
X2986700D01*
X3145450D01*
X2890000Y7764950D02*
Y7848200D01*
X2919700Y7877900D01*
Y8237900D01*
X3054700Y8372900D01*
X6699700D01*
X6809700Y8262900D01*
Y8097900D01*
X2796200Y7764950D02*
X2890000D01*
X2796200Y7917350D02*
Y8012900D01*
X3139700Y7966700D02*
X3014700D01*
X3367700Y1097450D02*
X3208950D01*
X3270000Y1992900D02*
X3185900D01*
X3364700Y2447900D02*
Y2349700D01*
X3331650Y2316650D01*
X3189900D01*
X3189700Y4906700D02*
Y4859700D01*
X3122900Y4792900D01*
X3099700D01*
X3229700Y4822900D02*
X3313700D01*
X3344700Y4853900D01*
Y4906700D01*
X3159700Y6417900D02*
X3162100D01*
X3212450Y6367550D01*
Y6303100D01*
X3212450Y6150700D02*
X3053700D01*
X3145450Y7091850D02*
X3304200D01*
X3139700Y8042900D02*
Y7966700D01*
X3234700Y7966700D02*
X3139700D01*
X3414700Y7966700D02*
X3234700D01*
X3526450Y1097450D02*
X3367700D01*
X3526450Y1097450D02*
X3669250D01*
X3689700Y1117900D01*
Y1207900D01*
X3431200Y3707700D02*
X3589950D01*
X3589950Y3860100D02*
X3431200D01*
X3399700Y3782900D02*
X3419700D01*
X3431200Y3794400D01*
Y3860100D01*
X3502950Y4905700D02*
Y4831150D01*
X3474700Y4802900D01*
X3529950Y6303100D02*
Y6442650D01*
X3484700Y6487900D01*
X3371200Y6303100D02*
Y6446400D01*
X3354700Y6462900D01*
X3484700Y7237900D02*
Y7172900D01*
X3462950Y7151150D01*
Y7091850D01*
X3484700Y7237900D02*
X3524700D01*
X3609700Y7322900D01*
Y7325400D01*
X3612200Y7327900D01*
Y7333150D01*
X3412150Y7237900D02*
X3484700D01*
X3612200Y7333150D02*
Y7480400D01*
X3568950Y7523650D01*
X3507400D01*
X3504700Y7966700D02*
X3414700D01*
X3624700Y7966700D02*
X3504700D01*
X3514700Y7892900D02*
Y7956700D01*
X3504700Y7966700D01*
X3664700Y757900D02*
X4119700D01*
X4256700Y894900D01*
Y957750D01*
X4154850D01*
X3899700Y1212900D01*
X3694700D01*
X3689700Y1207900D01*
X3648500Y1902900D02*
Y1702900D01*
X3664700Y1686700D01*
Y1232900D01*
X3689700Y1207900D01*
X3800900Y1794100D02*
X3812100Y1782900D01*
X4059700D01*
X4086700Y1755900D01*
Y1592750D01*
X3800900Y1902900D02*
Y1794100D01*
X3589950Y3707700D02*
Y3759950D01*
X3610000Y3780000D01*
X3885000D01*
X3907450Y3757550D01*
Y3707700D01*
X3907450Y3860100D02*
X3748700D01*
X3589950D01*
X3614700Y4802900D02*
Y4807900D01*
X3661700Y4854900D01*
Y4905700D01*
X3820450Y4905700D02*
Y4837150D01*
X3849700Y4807900D01*
X3820450Y5058100D02*
X3914700D01*
X3820450Y5058100D02*
X3661700D01*
X3724700Y6467900D02*
X3688700Y6431900D01*
Y6303100D01*
X3859700Y6382900D02*
X3854700Y6377900D01*
X3849700D01*
X3844700Y6372900D01*
Y6304100D01*
X3714700Y7197900D02*
X3755450D01*
X3780450Y7172900D01*
Y7091850D01*
X3604700Y7202900D02*
Y7154900D01*
X3621700Y7137900D01*
Y7091850D01*
X3884700Y1847900D02*
X3929700D01*
X3963500Y1881700D01*
Y1902900D01*
X4428150Y2006350D02*
X4427650Y2006850D01*
X3983650D01*
X3963500Y1986700D01*
Y1902900D01*
X4005900Y2537900D02*
Y2392900D01*
X4000900Y2187900D02*
Y2387900D01*
X4005900Y2392900D01*
X4248500Y2537900D02*
X4005900D01*
X4005900Y2692900D02*
Y2537900D01*
X3875000Y2572900D02*
X3885000D01*
X3905000Y2552900D01*
Y2503200D01*
X3904700Y2502900D01*
X3875000Y2572900D02*
X3870600D01*
X3853500Y2590000D01*
Y2692900D01*
X4005900Y3042900D02*
Y2887900D01*
X4084700Y2942900D02*
Y2902900D01*
X4069700Y2887900D01*
X4005900D01*
X4164700Y2712900D02*
X4144700Y2692900D01*
X4005900D01*
Y2786700D01*
X3999700Y2792900D01*
X4005900Y2887900D02*
Y2799100D01*
X3999700Y2792900D01*
X3904700Y3042900D02*
X3902900D01*
X3853500Y2993500D01*
Y2887900D01*
Y2692900D01*
X4253500Y3037900D02*
X4010900D01*
X4005900Y3042900D01*
X4005900Y3197900D02*
Y3042900D01*
X4094700Y3137900D02*
Y3177900D01*
X4074700Y3197900D01*
X4005900D01*
Y3397900D01*
X3929700Y3627900D02*
X3907450Y3650150D01*
Y3707700D01*
X4034700Y3627900D02*
X4066200Y3659400D01*
Y3707700D01*
X3929700Y3627900D02*
X4034700D01*
X4194700Y3897900D02*
X4156900Y3860100D01*
X4066200D01*
X3907450D01*
X4137950Y4905700D02*
Y4811150D01*
X4104700Y4777900D01*
X3994700Y4807900D02*
X3979200Y4823400D01*
Y4905700D01*
X3914700Y5137900D02*
Y5058100D01*
X4137950Y5058100D02*
X3979200D01*
X4059700Y5132900D02*
X3995900Y5196700D01*
Y5212900D01*
X4004200Y6303100D02*
Y6358400D01*
X3979700Y6382900D01*
X3939200Y6939450D02*
X3951250D01*
X4019700Y7007900D01*
Y7042900D01*
X4068650Y7091850D01*
X4097950D01*
X4118650D01*
X4199700Y7172900D01*
X4124700Y7907900D02*
Y7962900D01*
X4109700Y7977900D01*
X4005900D01*
X5019700Y487900D02*
X4779700D01*
X4314850Y952750D01*
Y957750D01*
X4256700Y1592750D02*
Y957750D01*
X5088550Y1459400D02*
X4826200D01*
X4324550Y957750D01*
X4314850D01*
X4244700Y1792900D02*
Y1604750D01*
X4256700Y1592750D01*
X4244700Y1792900D02*
X4149700D01*
X4115900Y1826700D01*
Y1902900D01*
X4275750Y1903900D02*
X4284700Y1894950D01*
Y1812900D01*
X4264700Y1792900D01*
X4244700D01*
X4253500Y2397900D02*
X4248500Y2402900D01*
Y2537900D01*
X4253500Y2397900D02*
Y2187900D01*
X4248500Y2687900D02*
Y2537900D01*
X4164700Y2632900D02*
Y2637900D01*
X4194700Y2667900D01*
X4228500D01*
X4248500Y2687900D01*
X4359700Y2562900D02*
X4400900Y2604100D01*
Y2687900D01*
X4140550Y2783750D02*
X4141400Y2782900D01*
X4248500D01*
Y2892900D01*
X4248500Y2687900D02*
Y2782900D01*
X4248500Y2892900D02*
X4253500Y2897900D01*
Y3037900D01*
X4248500Y2892900D02*
X4199700D01*
X4164700Y2927900D01*
X4253500Y3037900D02*
Y3197900D01*
X4174700Y3132900D02*
Y3182900D01*
X4189700Y3197900D01*
X4253500D01*
Y3392900D01*
X4349700Y3027900D02*
X4400900Y2976700D01*
Y2892900D01*
X4383700Y3860100D02*
X4232500D01*
X4194700Y3897900D01*
X4296700Y4905700D02*
Y4858900D01*
X4327700Y4827900D01*
X4489700D01*
X4296700Y5058100D02*
X4137950D01*
Y5210100D01*
X4142000Y5214150D01*
X4294400Y5214150D02*
X4425850D01*
X4489700Y5150300D01*
Y5082900D01*
X4142000Y5214150D02*
Y5372900D01*
X4379700Y5467900D02*
Y5403900D01*
X4348700Y5372900D01*
X4294400D01*
X4489700Y5592900D02*
X4426800Y5530000D01*
X4296050D01*
X4294400Y5531650D01*
X4142000Y5372900D02*
Y5531650D01*
X4294400Y5690400D02*
X4435100D01*
X4494700Y5750000D01*
Y5842900D01*
X4294400Y5849150D02*
X4369150D01*
X4494700Y5974700D01*
Y6092900D01*
X4494700Y6222900D02*
X4424700Y6152900D01*
Y6052900D01*
X4379700Y6007900D01*
X4294400D01*
X4162950Y6303100D02*
Y6358250D01*
X4182600Y6377900D01*
X4229700D01*
X4494700Y6352900D02*
X4492900D01*
X4443100Y6303100D01*
X4321700D01*
X4321700Y6150700D02*
X4162950D01*
X4193200Y7789550D02*
X4194700Y7791050D01*
Y7876900D01*
X4163700Y7907900D01*
X4124700D01*
X4426700Y1592750D02*
Y1902450D01*
X4428150Y1903900D01*
X4428150Y2006350D02*
Y1903900D01*
X4579700Y1997900D02*
X4558500Y1976700D01*
Y1902900D01*
X4400900Y2687900D02*
Y2892900D01*
X4544700Y3762900D02*
Y3827900D01*
X4512500Y3860100D01*
X4383700D01*
X4542450Y3987550D02*
Y4081950D01*
X4710900Y1902900D02*
X4711900Y1903900D01*
X4847250D01*
X4919700Y1977900D02*
Y1918600D01*
X4905000Y1903900D01*
X4847250D01*
X4701200Y3712700D02*
X4869950D01*
X4874950Y3717700D01*
X5033700D01*
X4701200Y4234350D02*
X4874950D01*
X5033700D01*
X5082200Y684700D02*
Y550400D01*
X5019700Y487900D01*
X5082200Y1186350D02*
Y1110400D01*
X5159700Y1712900D02*
X5088550Y1641750D01*
Y1459400D01*
X5037750Y2094400D02*
X4948200D01*
X5037750Y2094400D02*
Y2170950D01*
X5064700Y2197900D01*
X5269700D01*
X5314700Y2152900D01*
Y1995300D01*
X5355000Y1955000D01*
X5463500D01*
X5463200Y1954700D01*
X4999650Y1903900D02*
X5088700D01*
X5037750Y2931650D02*
X5114700D01*
X5190150Y3249150D02*
Y3400000D01*
X5145150Y3445000D01*
X5037750D01*
X5037750Y3566650D02*
Y3445000D01*
X5037750Y3345000D02*
Y3249150D01*
X5114700Y3717700D02*
Y3647900D01*
X5114700Y3717700D02*
X5033700D01*
X5194700Y3711700D02*
X5188700Y3717700D01*
X5114700D01*
X5033700Y4234350D02*
X5194450D01*
X5194700Y4234100D01*
X5142450Y4367700D02*
X5224900D01*
X5264700Y4327900D01*
X4983700Y4367700D02*
Y4445100D01*
X5088550Y7428400D02*
X4955200D01*
X5190150Y7714150D02*
Y7640150D01*
X5165000Y7615000D01*
X5109700D01*
X5088550Y7593850D01*
Y7428400D01*
X4940000Y7635000D02*
Y7695000D01*
X4959150Y7714150D01*
X5037750D01*
X5190150Y7714150D02*
Y7789850D01*
X5160000Y7820000D01*
X5062600D01*
X5037750Y7844850D01*
Y7965900D01*
X5393350Y1459400D02*
Y1676550D01*
X5274690Y1922910D02*
X5339700Y1857900D01*
X5599700D01*
X5621950Y1880150D01*
Y1954700D01*
X5190150Y2094400D02*
Y2007450D01*
X5274690Y1922910D01*
X5190150Y2602400D02*
Y2715740D01*
X5191190D01*
X5190150Y3090400D02*
Y2931650D01*
X5190150Y3090400D02*
X5284700D01*
X5190150Y3249150D02*
Y3090400D01*
X5367950Y3256450D02*
X5526700D01*
X5526700Y3694600D02*
X5367950D01*
X5194700Y3711700D02*
Y3571200D01*
X5190150Y3566650D01*
X5264700Y4327900D02*
Y4274700D01*
X5224100Y4234100D01*
X5194700D01*
X5418150Y5213900D02*
X5448150Y5243900D01*
Y5343900D01*
X5448150Y5593900D02*
X5458150Y5583900D01*
X5506950D01*
X5368150Y5438900D02*
X5448150D01*
X5348150Y6623900D02*
Y7159450D01*
X5524700Y7428400D02*
X5393350D01*
X5685450Y3256450D02*
X5798250D01*
X5879700Y3337900D01*
X5526700Y3256450D02*
X5685450D01*
X5526700Y3694600D02*
X5685450D01*
X5778250D01*
X5448150Y5343900D02*
X5526950D01*
X5448150Y5343900D02*
Y5438900D01*
Y5593900D01*
X5448150Y5773900D02*
Y5593900D01*
X5448150Y5773900D02*
Y5937700D01*
X5621950Y7333150D02*
X5749700D01*
X5971200Y2107100D02*
Y2264400D01*
X5994700Y2287900D01*
X6002950Y2716700D02*
X5999150Y2712900D01*
X5904700D01*
X6002950Y3065950D02*
X5916650D01*
X5872200Y3110400D01*
X6002950Y3218350D02*
Y3300000D01*
X5965050Y3337900D01*
X5879700D01*
X5778250Y3694600D02*
X5807330Y3665530D01*
X5778250Y3694600D02*
X5803000D01*
X5819700Y3677900D01*
X5875950Y7428400D02*
X6316600D01*
X6423700Y7321300D01*
X6449700D01*
X5772200Y7480400D02*
X5804700Y7447900D01*
X5856450D01*
X5875950Y7428400D01*
X5772200Y7480400D02*
Y7517900D01*
X5754700Y7517900D02*
Y7497900D01*
X5772200Y7480400D01*
X5749700Y7333150D02*
Y7402900D01*
X5749700Y7333150D02*
X5875950D01*
X5930900Y7712900D02*
Y7794100D01*
X6066300Y7929500D01*
X6169700D01*
X5875950Y7523650D02*
X5876800Y7524500D01*
X6169700D01*
X6034700Y8087900D02*
X6010200Y8063400D01*
X5869600D01*
Y8237800D01*
X5949600D01*
X5980900Y8269100D01*
X6164700D01*
X6099700Y2867900D02*
X6004150D01*
X6002950Y2869100D01*
X6225200Y3694600D02*
Y3758400D01*
X6264700Y3797900D01*
X6542700Y3542200D02*
X6544700Y3544200D01*
Y3597900D01*
X6529700Y3612900D01*
X6254700D01*
X6225200Y3642400D01*
Y3694600D01*
X6206150Y4240700D02*
X6280150D01*
X6341950Y4178900D01*
X6346950D01*
X6206150Y4393100D02*
X6290950D01*
X6321950Y4362100D01*
Y4333900D01*
X6206950Y4527700D02*
X6312300D01*
X6351100Y4488900D01*
X6436950D01*
X6206950Y4807700D02*
X6293150D01*
X6321950Y4778900D01*
X6206950Y4680100D02*
X6288150D01*
X6316950Y4708900D01*
X6111950Y4993900D02*
X6145750Y4960100D01*
X6206950D01*
X6231950Y5897700D02*
X6252300D01*
X6311100Y5838900D01*
X6321950D01*
X6231950Y6050100D02*
X6303150D01*
X6326950Y6073900D01*
X6231950Y6340100D02*
X6250100D01*
X6311950Y6401950D01*
Y6403900D01*
X6326950Y6158900D02*
X6286950D01*
X6258150Y6187700D01*
X6231950D01*
X6231950Y6477700D02*
X6308150D01*
X6336950Y6448900D01*
X6101950Y6578900D02*
Y6608900D01*
X6123150Y6630100D01*
X6231950D01*
X6021300Y7320000D02*
Y7335000D01*
X6035000Y7321300D01*
X6169700D01*
X6169700Y7524500D02*
X6449700D01*
X6259700Y8116700D02*
Y8037900D01*
X6299700Y7997900D01*
Y7832900D01*
X6193100Y7726300D01*
X6169700D01*
Y7524500D01*
X6164700Y8116700D02*
X6259700D01*
X6044700Y8187900D02*
X6049700Y8192900D01*
X6249700D01*
X6325900Y8269100D01*
X6344700D01*
X6815750Y1776900D02*
X6350700D01*
X6344700Y1782900D01*
Y1847900D01*
X6409350Y1912550D01*
Y1935650D01*
X6474700Y3797900D02*
X6404700D01*
X6383950Y3777150D01*
Y3694600D01*
X6474700Y3797900D02*
X6519700D01*
X6542700Y3774900D01*
Y3694600D01*
X6441950Y4263900D02*
X6443900D01*
X6573100Y4393100D01*
X6701450D01*
X6701450Y4526450D02*
X6576450D01*
X6538900Y4488900D01*
X6436950D01*
X6449700Y7321300D02*
X6591300D01*
X6344700Y8116700D02*
X6259700D01*
X6519700Y8116700D02*
X6344700D01*
X6344700Y8269100D02*
X6519700D01*
X6616950Y4158900D02*
X6611950D01*
X6693750Y4240700D01*
X6701450D01*
X6701450Y4678850D02*
X6636900D01*
X6601950Y4643900D01*
X6625250Y5301150D02*
X6564700D01*
X6536950Y5328900D01*
X6551950Y5818900D02*
Y5821950D01*
X6617700Y5887700D01*
X6706950D01*
X6688150Y6182700D02*
X6675750D01*
X6561950Y6068900D01*
X6931950Y5938900D02*
X6830750Y6040100D01*
X6706950D01*
X6701950Y6182700D02*
X6688150D01*
X6516950Y6238900D02*
X6631950D01*
X6688150Y6182700D01*
X6701950Y6335100D02*
X6778150D01*
X6801950Y6358900D01*
X6786950Y7088900D02*
X6801950Y7073900D01*
Y6938900D01*
X6720750Y6857700D01*
X6701950D01*
X6701950Y7010100D02*
X6680750D01*
X6631950Y7058900D01*
Y7088900D01*
X6815750Y1586400D02*
Y1776900D01*
X6968150Y1586400D02*
X7114000D01*
X6815750Y1776900D02*
Y1800750D01*
X6968150Y1953150D01*
Y1967400D01*
X7114000Y1776900D02*
X6968150D01*
X6968150Y1967400D02*
Y1999450D01*
X6909700Y2057900D01*
X6815750Y2046600D02*
X6792330Y2070030D01*
X6815750Y2046600D02*
X6817070Y2070030D01*
X6815750Y2046600D02*
Y2071350D01*
X6804700Y2082400D01*
X6815750Y1967400D02*
Y2046600D01*
X6959700Y3607900D02*
X6867100D01*
X6790350Y3684650D01*
Y3808900D01*
X6856950Y5338900D02*
Y5333900D01*
X6824200Y5301150D01*
X6777650D01*
X7186950Y6055100D02*
X7003150D01*
X6981950Y6033900D01*
X7186950Y6192700D02*
X7038150D01*
X6986950Y6243900D01*
X6996950Y6438900D02*
Y6428900D01*
X7080750Y6345100D01*
X7186950D01*
X7526950Y7210000D02*
X7087600D01*
X6993550Y7304050D01*
Y7396650D01*
X7129700Y7562900D02*
X7079700Y7512900D01*
X7019700D01*
X6993550Y7486750D01*
Y7396650D01*
X6987200Y7701450D02*
Y7627900D01*
X7012200Y7602900D01*
X7089700D01*
X7129700Y7562900D01*
X6987200Y7853850D02*
Y7955400D01*
X7114000Y1586400D02*
X7183200D01*
X7265800Y1669000D01*
Y1740000D01*
X7114000Y1586400D02*
Y1776900D01*
X7114000Y2147320D02*
Y1776900D01*
X7146070Y2140000D02*
X7126370Y2134950D01*
X7146070Y2140000D02*
X7126370Y2159690D01*
X7146070Y2140000D02*
X7121320D01*
X7114000Y2147320D01*
X7265800Y2140000D02*
X7146070D01*
X7265800Y3660000D02*
X7411800D01*
X7414700Y3662900D01*
X7145950Y4240700D02*
X7278750D01*
X7341950Y4303900D01*
X7241950Y4553900D02*
X7236950D01*
X7209500Y4526450D01*
X7145950D01*
X7241950Y4428900D02*
X7206150Y4393100D01*
X7145950D01*
X7266950Y4728900D02*
X7285950D01*
X7316950Y4759900D01*
Y5670100D01*
X7236950Y4628900D02*
X7211100D01*
X7160000Y4680000D01*
X7147100D01*
X7145950Y4678850D01*
X7064900Y5517700D02*
X7181950D01*
X7316950Y5670100D02*
X7181950D01*
X7186950Y5902700D02*
X7201950Y5887700D01*
Y5808900D01*
X7298350Y7396650D02*
X7158450D01*
X7780950Y7428400D02*
X7440200D01*
X7408450Y7396650D01*
X7298350D01*
X7129700Y7562900D02*
X7196750Y7629950D01*
Y7775400D01*
X7558700Y976800D02*
X7435800D01*
X7653950Y4526450D02*
X7586450D01*
X7561950Y4501950D01*
Y4463900D01*
Y4423050D01*
X7591900Y4393100D01*
X7653950D01*
X7653950Y4678850D02*
X7573100D01*
X7556950Y4695000D01*
Y4748900D01*
X7456950Y5517700D02*
X7574700D01*
X7456950Y5670100D02*
X7316950D01*
Y6407950D01*
X7726950Y5670100D02*
X7456950D01*
X7780950Y7333150D02*
Y7264150D01*
X7726800Y7210000D01*
X7526950D01*
X7526950Y7333150D02*
Y7210000D01*
X7719700Y507900D02*
X7644700D01*
X7603150Y549450D01*
Y570400D01*
X7586950Y4163900D02*
X7637850D01*
X7653950Y4180000D01*
Y4240700D01*
X7766950Y4798900D02*
X7753650Y4812200D01*
X7653950D01*
X7653950Y4964600D02*
Y5101900D01*
X7849700Y5517700D02*
X7726950D01*
X7726950Y5670100D02*
X7986950D01*
X7622200Y5891700D02*
X7700000D01*
X7716950Y5874750D01*
Y5828900D01*
X7621950Y6182700D02*
X7753150D01*
X7846950Y6088900D01*
X7906750Y6044100D02*
X7892650Y6030000D01*
X7815000D01*
X7800900Y6044100D01*
X7622200D01*
X7621950Y6467700D02*
X7699250D01*
X7716950Y6450000D01*
Y6343900D01*
X7693180Y6253900D02*
Y6277670D01*
X7635750Y6335100D01*
X7621950D01*
X7621950Y6620100D02*
Y6703900D01*
X7907950Y868850D02*
Y966150D01*
X8193700Y1237150D02*
X8088950D01*
X8098450Y4526450D02*
X8169500D01*
X8226950Y4583900D01*
X8096950Y4385100D02*
X8169900D01*
X8191950Y4363050D01*
Y4313900D01*
X7992830Y4743900D02*
Y4790000D01*
X8015030Y4812200D01*
X8098450D01*
X8286950Y4638900D02*
X8284950D01*
X8245000Y4678850D01*
X8098450D01*
X8098450Y4964600D02*
Y5040400D01*
X8181950Y5123900D01*
X7986950Y5517700D02*
X8104700D01*
X7986950Y5670100D02*
X8221950D01*
X8021950Y5848900D02*
X8063900D01*
X8095000Y5880000D01*
Y5925150D01*
X8093450Y5926700D01*
X8093450Y6079100D02*
X7992150D01*
X8093450Y6212450D02*
X8072550D01*
X8021990Y6263010D01*
X7991060D01*
X8093450Y6212450D02*
X8117450D01*
X8163900Y6258900D01*
X8201950D01*
X8093450Y6364850D02*
X8196000D01*
X8098450Y6875950D02*
X8155950D01*
X8186950Y6906950D01*
Y6953900D01*
X8098450Y7028350D02*
X8067900Y7058900D01*
X8006950D01*
X8001950Y7063900D01*
X8066700Y7326800D02*
Y7258000D01*
X8111800Y7212900D01*
X8174700D01*
X8288950Y7726850D02*
X8282900Y7732900D01*
X8159700D01*
X8114700Y7687900D01*
X7996850Y7872900D02*
Y7678900D01*
X8027850Y7647900D01*
X8029700D01*
X8289700Y1692900D02*
X8336800Y1740000D01*
X8434200D01*
X8434200Y2140000D02*
X8289700D01*
X8434200Y3100000D02*
X8311800D01*
X8259700Y3047900D01*
X8471950Y4798900D02*
X8356950Y4913900D01*
Y5668100D01*
X8221950Y5417900D02*
Y5517700D01*
X8356950Y5668100D02*
X8355620Y5669430D01*
X8222620D01*
X8221950Y5670100D01*
X8381950Y6363900D02*
X8356950Y6338900D01*
Y5668100D01*
X8491950Y5670100D02*
X8489950Y5668100D01*
X8356950D01*
X8288950Y7288700D02*
Y7243900D01*
X8257950Y7212900D01*
X8174700D01*
X8511200Y8006250D02*
X8468050D01*
X8359700Y7897900D01*
X8263150D01*
X8257200Y7891950D01*
X8589700Y3657900D02*
X8436300D01*
X8434200Y3660000D01*
X8544700Y4229950D02*
Y4184700D01*
X8523900Y4163900D01*
X8461950D01*
X8451950Y4573900D02*
Y4538050D01*
X8474300Y4515700D01*
X8544700D01*
X8544700Y4382350D02*
X8457350D01*
X8431950Y4356950D01*
Y4323900D01*
X8406950Y4608900D02*
Y4636950D01*
X8438100Y4668100D01*
X8544700D01*
X8491950Y5517700D02*
X8604900D01*
X8541950Y5927700D02*
Y5838900D01*
X8541950Y6080100D02*
X8525100D01*
X8466950Y6021950D01*
Y6009120D01*
X8436950Y6258900D02*
X8471100D01*
X8520800Y6209200D01*
X8542950D01*
X8542950Y6361600D02*
Y6449900D01*
X8754700Y7257900D02*
X8604700D01*
X8535800Y7326800D01*
X8511200D01*
X8840900Y1072900D02*
Y1395400D01*
X8841400Y1395900D01*
X8927700D01*
X8841400Y1395900D02*
Y1554650D01*
Y1713400D01*
Y1872150D01*
Y2030900D01*
Y2189650D01*
X8932950D01*
X8841400Y2189650D02*
Y2348400D01*
Y2507150D01*
X8841400Y2665900D02*
X8941700D01*
X8841400Y2507150D02*
Y2665900D01*
Y2824650D01*
Y2983400D01*
X8841400Y3142150D02*
X8948950D01*
X8841400Y2983400D02*
Y3142150D01*
X8802100Y4402700D02*
Y4257900D01*
X8875750Y4778900D02*
Y4621150D01*
X8878300Y4618600D01*
X8779700Y4887900D02*
X8830700Y4938900D01*
X8875750D01*
X8797100Y5142700D02*
Y5285000D01*
X8801900Y6130500D02*
X8684700D01*
X8769700Y6287900D02*
Y6332900D01*
X8799500Y6362700D01*
X8878300D01*
X8878300Y6692900D02*
Y6527800D01*
X8776700D01*
X8802100Y6908800D02*
Y6787900D01*
X8878300Y6711700D01*
Y6692900D01*
X8802100Y6908800D02*
X8686000D01*
X8765200Y7293150D02*
X8767070Y7270270D01*
X8765200Y7293150D02*
X8742330Y7270270D01*
X8765200Y7293150D02*
Y7268400D01*
X8754700Y7257900D01*
X8765200Y7383950D02*
Y7293150D01*
X8930300Y3808900D02*
Y3663500D01*
X4937250Y4928000D02*
X4866950D01*
X4937250Y4873000D02*
X4832000D01*
X4937250Y5033000D02*
X4801800D01*
X4937250Y4978000D02*
X4836950D01*
X4937250Y5182000D02*
X4840050D01*
X4786950Y5128900D01*
X4937250Y5127000D02*
X4855200D01*
X4937250Y5287000D02*
X4815050D01*
X4786950Y5258900D01*
X4937250Y5232000D02*
X4851700D01*
X4935900Y5546000D02*
X4801900D01*
X4935900Y5491000D02*
X4851800D01*
X4935900Y5441000D02*
X4800200D01*
X4935900Y5386000D02*
X4847500D01*
X4935900Y5800000D02*
X4804400D01*
X4935900Y5695000D02*
X4806000D01*
X4935900Y5745000D02*
X4851800D01*
X4935900Y5640000D02*
X4850100D01*
X4937250Y6111250D02*
X4821950D01*
X4856950Y5973900D02*
X4935400D01*
X4940300Y5969000D01*
X4937250Y6166250D02*
X4861950D01*
X4937250Y6216250D02*
X4816950D01*
X4937250Y6271250D02*
X4861950D01*
X4935900Y6625600D02*
X4820250D01*
X4935900Y6785600D02*
X4863650D01*
X4939450Y6898900D02*
X4816950D01*
X4935900Y6680600D02*
X4863650D01*
X4837140Y6730600D02*
X4826190Y6719660D01*
X4837140Y6730600D02*
X4828650D01*
X4821950Y6723900D01*
X4935900Y6730600D02*
X4837140D01*
X4939450Y7058900D02*
X4861950D01*
X4939450Y7003900D02*
X4816950D01*
X4939450Y6953900D02*
X4856950D01*
X5032250Y4928000D02*
X5110400D01*
X5032250Y4873000D02*
X5125700D01*
X5032250Y5033000D02*
X5104200D01*
X5032250Y4978000D02*
X5130400D01*
X5032250Y5182000D02*
X5105800D01*
X5032250Y5127000D02*
X5129500D01*
X5032250Y5287000D02*
X5104200D01*
X5032250Y5232000D02*
X5130400D01*
X5104100Y5546000D02*
X5030900D01*
X5130400Y5491000D02*
X5030900D01*
X5030900Y5441000D02*
X5105000D01*
X5215750Y5438900D02*
X5107100D01*
X5105000Y5441000D01*
X5030900Y5386000D02*
X5129600D01*
X5105400Y5800000D02*
X5030900D01*
X5030900Y5695000D02*
X5106950D01*
X5130300Y5745000D02*
X5030900D01*
X5030900Y5640000D02*
X5127000D01*
X5032250Y6111250D02*
X5134300D01*
X5092700Y5969000D02*
X5171950D01*
X5032250Y6166250D02*
X5104300D01*
X5215750Y6218900D02*
X5141950D01*
X5139300Y6216250D01*
X5032250Y6216250D02*
X5139300D01*
X5032250Y6271250D02*
Y6334200D01*
X5036950Y6338900D01*
X5116950Y6625600D02*
X5194050D01*
X5195750Y6623900D01*
X5030900Y6625600D02*
X5116950D01*
X5030900Y6680600D02*
X5106950D01*
X5030900Y6730600D02*
X5136950D01*
X5030900Y6785600D02*
X5106950D01*
X5106950Y6898900D02*
X5034450D01*
X5034450Y7058900D02*
X5131950D01*
X5034450Y7003900D02*
X5106950D01*
X5034450Y6953900D02*
X5136950D01*
X5141950Y6958900D01*
X5189100Y5771750D02*
X5293600D01*
X5295750Y5773900D01*
X838860Y2860000D02*
X869280Y2829580D01*
X838860Y2860000D02*
X856540D01*
X878120Y2838420D01*
X1120000Y2780000D02*
X936540D01*
X878120Y2838420D01*
X680000Y2860000D02*
X838860D01*
X894700Y3260000D02*
X680000D01*
X894700Y3260000D02*
X1120000D01*
X3189700Y4081950D02*
Y3904350D01*
X3189900Y3904150D01*
X3272450Y4081950D02*
X3189700D01*
X3431200Y4081950D02*
X3272450D01*
X3431200Y4081950D02*
X3589950D01*
X4405900Y2187900D02*
Y2099100D01*
X4374700Y2067900D01*
X3889700D01*
X3848500Y2109100D01*
Y2187900D01*
X3853500Y2392900D02*
X3848500Y2397900D01*
X3729700D01*
X3848500Y2187900D02*
Y2387900D01*
X3853500Y2392900D01*
X3853500Y3197900D02*
X3784700D01*
X3729700Y3142900D01*
Y2397900D01*
X4405900Y3392900D02*
Y3481700D01*
X4384700Y3502900D01*
X3874700D01*
X3853500Y3481700D01*
Y3397900D01*
X3748700Y4081950D02*
X3589950D01*
X3907450Y4081950D02*
X3748700D01*
X3853500Y3197900D02*
Y3096700D01*
X3853500Y3397900D02*
Y3197900D01*
X3907450Y4081950D02*
X4066200D01*
X4224950D01*
X4383700D01*
X4596700Y1592750D02*
Y1772900D01*
X4635000Y1811200D01*
Y2107600D01*
X4554700Y2187900D01*
X4405900D01*
Y2397900D01*
X4527430Y2290630D02*
Y2340170D01*
X4469700Y2397900D01*
X4405900D01*
X4405900Y3392900D02*
Y3197900D01*
X4580000Y3142900D02*
Y3145000D01*
X4532100Y3192900D01*
X4410900D01*
X4405900Y3197900D01*
X4383700Y4081950D02*
X4542450D01*
X5476950Y6073900D02*
Y6163900D01*
X5421950Y6218900D01*
X5368150D01*
X5476950Y6073900D02*
X5521950Y6028900D01*
X8802100Y4402700D02*
Y4600700D01*
X8820000Y4618600D01*
X8878300D01*
X3364700Y7739550D02*
X3081950D01*
X3144700Y7577900D02*
Y7676800D01*
X3081950Y7739550D01*
X3803050Y7789550D02*
X3584700D01*
X3534700Y7739550D01*
X3364700D01*
X3355000Y7729850D01*
Y7523650D01*
X3754700Y7972900D02*
Y7837900D01*
X3803050Y7789550D01*
X3853500Y8189100D02*
X3754700Y8090300D01*
Y7972900D01*
X3803050Y7789550D02*
X3812200D01*
X764200Y6338400D02*
X579700Y6522900D01*
Y7503600D01*
X664000Y7587900D01*
X814700D01*
X1272200Y6292900D02*
X1182200Y6382900D01*
X804200D01*
X764200Y6342900D01*
Y6338400D01*
X764200Y6183800D02*
Y6338400D01*
X1240450Y7663350D02*
X998350D01*
X850000Y7515000D01*
Y7197900D01*
X945250Y7073000D02*
Y7147350D01*
X894700Y7197900D01*
X850000D01*
X1120000Y2940000D02*
X977600D01*
X939700Y2977900D01*
Y3017900D01*
X1596450Y6158400D02*
Y6241150D01*
X1544700Y6292900D01*
X1272200D01*
X1272200Y6202850D02*
Y6292900D01*
X1399200Y6621950D02*
X1279810D01*
X1716700Y6621950D02*
X1705700D01*
X1674700Y6590950D01*
Y6547900D01*
X1619700Y6492900D01*
X1449700D01*
X1399200Y6543400D01*
Y6621950D01*
X1314700Y7822900D02*
Y7722900D01*
X1255150Y7663350D01*
X1240450D01*
X1736200Y2570000D02*
X1737650Y2571450D01*
Y2655000D01*
X1743600Y2660950D01*
Y2746300D01*
X2959700Y3350400D02*
X2892500D01*
X2892100Y3350000D01*
X2865000D01*
X2841800Y3326800D01*
X2474700D01*
X2959700Y3350400D02*
X3038500Y3429200D01*
Y3517900D01*
X3367700Y1535600D02*
X3208950D01*
X3249700Y1772900D02*
X3208950Y1732150D01*
Y1535600D01*
X3189900Y2951650D02*
X3193650Y2947900D01*
X3284700D01*
X3309700Y2972900D01*
Y3047900D01*
X3309700Y3517900D02*
X3190900D01*
X3189700Y5059100D02*
Y5130200D01*
X3064650Y5209150D02*
X3135750D01*
X3064650Y5367900D02*
X3135750D01*
X3064650Y5526650D02*
X3135750D01*
X3064650Y5844150D02*
X3135750D01*
X3064650Y5685400D02*
X3135750D01*
X3064650Y6002900D02*
X3135750D01*
X3212450Y6079600D02*
Y6150700D01*
X3319700Y7357900D02*
Y7366900D01*
X3288700Y7397900D01*
X3118800D01*
X3081950Y7434750D01*
X3526450Y1535600D02*
X3367700D01*
X3309700Y3047900D02*
Y3517900D01*
X3748700Y3617900D02*
X3367900D01*
X3309700Y3559700D01*
Y3517900D01*
X3344700Y5059100D02*
Y5130200D01*
X3502950Y5058100D02*
Y5129200D01*
X3529950Y6079600D02*
Y6150700D01*
X3371200Y6079600D02*
Y6150700D01*
X3319700Y7357900D02*
X3324700D01*
X3729700Y2397900D02*
X3724700Y2392900D01*
X3748700Y3617900D02*
Y3707700D01*
X4359700Y3627900D02*
Y3624700D01*
X4300000Y3565000D01*
X3832600D01*
X3779700Y3617900D01*
X3748700D01*
X3661700Y5058100D02*
Y5129200D01*
X3772400Y5212900D02*
X3843500D01*
X3688700Y6079600D02*
Y6150700D01*
X3949700Y7357900D02*
Y7437900D01*
X3902850Y7484750D01*
X3812200D01*
X3853500Y7977900D02*
X3759700D01*
X3754700Y7972900D01*
X3914700Y5058100D02*
X3979200D01*
X3843500Y5212900D02*
X3914600D01*
X3843500Y5212900D02*
Y5304000D01*
X4070900Y5372900D02*
X4142000D01*
X4070900Y5531650D02*
X4142000D01*
X4070900Y5849150D02*
X4142000D01*
X4070900Y5690400D02*
X4142000D01*
X3844700Y6080600D02*
Y6151700D01*
X4004200Y6079600D02*
Y6150700D01*
X4070900Y6007900D02*
X4142000D01*
X4162950Y6150700D02*
X4004200D01*
X4259700Y7337900D02*
Y7272900D01*
X4224700Y7237900D01*
X4047150D01*
X3949700Y7357900D02*
Y7312900D01*
X3894750Y7257950D01*
Y7237900D01*
X4314850Y957750D02*
X4256700D01*
X4383700Y3707700D02*
Y3651900D01*
X4359700Y3627900D01*
X4162950Y6150700D02*
X4142000Y6129750D01*
Y6007900D01*
X4259700Y7337900D02*
Y7455000D01*
X4229950Y7484750D01*
X4193200D01*
X4596700Y1592750D02*
X4810550D01*
X4994700Y1776900D01*
X5463200D01*
X4959700Y3057900D02*
X4992200Y3090400D01*
X5037750D01*
X7177700Y684700D02*
X7302500D01*
X7780950Y7523650D02*
X8060350D01*
X8066700Y7530000D01*
X8288950Y7574450D02*
X8139450D01*
X8095000Y7530000D01*
X8066700D01*
X8288950Y7441100D02*
Y7574450D01*
X8428150D01*
X8472600Y7530000D01*
X8511200D01*
X8765200Y7536350D02*
X8517550D01*
X8511200Y7530000D01*
Y7803050D01*
X9141000Y4775200D02*
Y4889850D01*
X9091950Y4938900D01*
X9028150D01*
X9030700Y4618600D02*
X9107690D01*
X9141000Y4651910D01*
Y4775200D01*
X9000300Y5295100D02*
Y5142700D01*
X9005100Y6130500D02*
Y5975000D01*
X9131000Y6527800D02*
Y6399500D01*
X9094200Y6362700D01*
X9030700D01*
X9131000Y6527800D02*
X9030700D01*
X9030700Y6692900D02*
X9094200D01*
X9131000Y6656100D01*
Y6527800D01*
X9005300Y6908800D02*
Y7061200D01*
D11*
X9033000Y4163920D02*
X9160000D01*
Y4099580D01*
X9160000Y4002250D02*
X9033000D01*
X9058400Y4021550D01*
X9160000Y4021550D02*
Y3982950D01*
X9033000Y3872750D02*
X9037230Y3885620D01*
X9047820Y3895270D01*
X9060510Y3901700D01*
X9077450Y3906530D01*
X9096500Y3908130D01*
X9115550Y3906530D01*
X9132490Y3901700D01*
X9145190Y3895270D01*
X9155770Y3885620D01*
X9160000Y3872750D01*
X9155770Y3859880D01*
X9145190Y3850230D01*
X9132490Y3843800D01*
X9115550Y3838970D01*
X9096500Y3837370D01*
X9077450Y3838970D01*
X9060510Y3843800D01*
X9047820Y3850230D01*
X9037230Y3859880D01*
X9033000Y3872750D01*
D12*
X524700Y1957900D03*
X515280Y2363810D03*
X464700Y2512900D03*
X599700Y4447900D03*
X628960Y5085570D03*
X573700Y5591900D03*
X789700Y1647900D03*
X854700Y2272900D03*
X826800Y2220000D03*
X827600Y2620000D03*
X829700Y2777900D03*
X831800Y2700000D03*
X707200Y4445400D03*
X889700Y4452900D03*
X864700Y5297900D03*
X863250Y5504350D03*
X754700Y7177900D03*
X754750Y7462950D03*
X1046750Y779950D03*
X954700Y1017900D03*
X964700Y1887900D03*
Y1742900D03*
X962600Y1820000D03*
X969700Y2372900D03*
X971800Y2300000D03*
X966800Y2460000D03*
X971800Y2620000D03*
X972600Y2540000D03*
X966800Y2700000D03*
X939700Y3017900D03*
X1049950Y3803150D03*
X1164700Y4122900D03*
Y4207900D03*
X939700Y4647900D03*
X1144700Y4562900D03*
X984700Y5067900D03*
X1074700Y5482900D03*
X979700Y6592900D03*
X1144700Y7422900D03*
X1239700Y852900D03*
X1394700Y1345100D03*
X1296800Y2140000D03*
X1307600Y2060000D03*
X1301800Y1980000D03*
X1184700Y4032900D03*
X1234700Y4742900D03*
X1264700Y6707900D03*
X1579700Y862900D03*
X1649700Y1012900D03*
X1619700Y1837900D03*
X1583800Y2480000D03*
X1555800Y2936800D03*
X1639700Y3682900D03*
X1459700Y3847900D03*
X1588950Y4123650D03*
X1669700Y4332900D03*
X1629700Y4732900D03*
X1609700Y5332900D03*
X1646450Y6287900D03*
X1557950Y6532900D03*
X1844700Y1417900D03*
X1845000Y2600000D03*
X1729700Y3282900D03*
X1783950Y3852900D03*
X1846650Y5605950D03*
X1929700Y6242900D03*
X1874700Y6317900D03*
X1869700Y6522900D03*
X1716700Y6852900D03*
X1875450Y6862150D03*
X1970700Y7683900D03*
X1930700Y8007750D03*
X2164700Y1738800D03*
X2169700Y2147900D03*
X2189700Y2541800D03*
X2224700Y2936800D03*
X2069700Y3502900D03*
X2050900Y4081700D03*
Y4139100D03*
X2159700Y4317900D03*
X2064700Y5387900D03*
X2029700Y5567900D03*
X2074700Y6847900D03*
X2129450Y7688150D03*
X1994700Y7577900D03*
X2129450Y8002650D03*
X2309500Y1192700D03*
X2307500Y1345100D03*
X2479700Y2637900D03*
X2364700Y2931800D03*
X2354700Y3547900D03*
X2485940Y4005030D03*
X2399700Y4152900D03*
X2319950Y4308150D03*
X2454700Y4572900D03*
X2354700D03*
X2249700Y5147900D03*
X2269700Y7012900D03*
X2439700D03*
X2288200Y7689400D03*
X2269700Y8007900D03*
X2274700Y8162900D03*
X2604700Y732900D03*
X2542200Y890400D03*
X2679700Y892900D03*
X2542200Y1210400D03*
X2700950Y1211650D03*
X2599700Y1252900D03*
X2574700Y2151550D03*
X2624700Y3237900D03*
X2529700Y3677900D03*
X2528120Y4578270D03*
X2709700Y4912900D03*
X2719700Y5597900D03*
X2714700Y5722900D03*
Y5972900D03*
Y6227900D03*
X2715000Y6357900D03*
X2749700Y7012900D03*
X2589700D03*
X2594700Y7537900D03*
X2609700Y8081700D03*
X2984700Y712900D03*
X2839700Y887900D03*
X2859700Y1207900D03*
X3029700D03*
X2954700Y3207900D03*
X2994700Y3047900D03*
X2959700Y3350400D03*
X2794700Y3507900D03*
X2864700Y4152900D03*
X2953700Y4312900D03*
X2939700Y4577900D03*
X2984700Y4807900D03*
X2834700Y5337900D03*
X2833450Y5209150D03*
X2969700Y6372900D03*
Y6477900D03*
X2986700Y6862900D03*
X2904700Y7012900D03*
X3024700Y7322900D03*
X3179700Y773200D03*
X3119700Y962900D03*
X3289700Y1315080D03*
X3270000Y1992900D03*
X3278930Y2517120D03*
X3114700Y2777900D03*
X3274700Y2762900D03*
X3309700Y3047900D03*
X3189700Y3412900D03*
X3150000Y4145000D03*
X3075000D03*
X3099700Y4792900D03*
X3229700Y4822900D03*
X3159700Y6417900D03*
X3304200Y6863400D03*
X3145390Y6863170D03*
X3434700Y1172900D03*
X3339700Y1942900D03*
X3464700Y2642900D03*
X3364700Y2447900D03*
X3399700Y3782900D03*
X3355000Y4165000D03*
X3354700Y4307900D03*
X3474700Y4802900D03*
X3484700Y6487900D03*
X3354700Y6462900D03*
X3464700Y6857900D03*
X3749700Y1477900D03*
X3800900Y1794100D03*
X3724700Y2392900D03*
X3779700Y3617900D03*
X3609700Y4312900D03*
X3748700Y4311900D03*
X3614700Y4802900D03*
X3724700Y6467900D03*
X3634700Y6862900D03*
X3815830Y6861310D03*
X3884700Y1847900D03*
X3904700Y2502900D03*
X3875000Y2572900D03*
X3999700Y2792900D03*
X4084700Y2942900D03*
X3929700Y2882900D03*
X3853500Y3096700D03*
X4094700Y3137900D03*
X3904700Y3042900D03*
X3929700Y3627900D03*
X4034700D03*
X3994700Y4303890D03*
X4074700Y4312900D03*
X4104700Y4777900D03*
X3849700Y4807900D03*
X3994700D03*
X4059700Y5132900D03*
X3979700Y6382900D03*
X3859700D03*
X4039530Y6864080D03*
X3859700Y7017900D03*
X4164700Y2632900D03*
X4359700Y2562900D03*
X4164700Y2712900D03*
X4140550Y2783750D03*
X4164700Y2927900D03*
X4174700Y3132900D03*
X4349700Y3027900D03*
X4359700Y3627900D03*
X4194700Y3897900D03*
X4224950Y4312650D03*
X4369700Y4502900D03*
X4379700Y5467900D03*
X4229700Y6377900D03*
X4428150Y2006350D03*
X4579700Y1997900D03*
X4527430Y2290630D03*
X4580000Y3142900D03*
X4383700Y4311900D03*
X4542450Y4310150D03*
X4489700Y4827900D03*
Y5082900D03*
Y5592900D03*
X4494700Y5842900D03*
Y6092900D03*
Y6352900D03*
Y6222900D03*
X4649700Y4157900D03*
X4819700D03*
X4866950Y4928000D03*
X4832000Y4873000D03*
X4801800Y5033000D03*
X4836950Y4978000D03*
X4786950Y5128900D03*
X4855200Y5127000D03*
X4786950Y5258900D03*
X4851700Y5232000D03*
X4801900Y5546000D03*
X4851800Y5491000D03*
X4800200Y5441000D03*
X4847500Y5386000D03*
X4804400Y5800000D03*
X4806000Y5695000D03*
X4851800Y5745000D03*
X4850100Y5640000D03*
X4821950Y6111250D03*
X4856950Y5973900D03*
X4861950Y6166250D03*
X4816950Y6216250D03*
X4861950Y6271250D03*
X4820250Y6625600D03*
X4863650Y6680600D03*
X4856950Y6953900D03*
X4863650Y6785600D03*
X4816950Y6898900D03*
X4821950Y6723900D03*
X4861950Y7058900D03*
X4816950Y7003900D03*
X5082200Y927900D03*
Y1110400D03*
X4919700Y1977900D03*
X4948200Y2094400D03*
X5088700Y1903900D03*
X5114700Y2602400D03*
Y2931650D03*
X4959700Y3057900D03*
X5037750Y3345000D03*
X5114700Y3647900D03*
X5134700Y3987900D03*
X4974700Y4157900D03*
X4983700Y4445100D03*
X5110400Y4928000D03*
X5125700Y4873000D03*
X5104200Y5033000D03*
X5130400Y4978000D03*
X5105800Y5182000D03*
X5129500Y5127000D03*
X5104200Y5287000D03*
X5130400Y5232000D03*
X5177010Y5213880D03*
X5104100Y5546000D03*
X5130400Y5491000D03*
X5105000Y5441000D03*
X5129600Y5386000D03*
X5105400Y5800000D03*
X5106950Y5695000D03*
X5130300Y5745000D03*
X5127000Y5640000D03*
X5134300Y6111250D03*
X5171950Y5969000D03*
X5104300Y6166250D03*
X5139300Y6216250D03*
X5036950Y6338900D03*
X5116950Y6625600D03*
X5106950Y6680600D03*
X5136950Y6730600D03*
X5106950Y6785600D03*
Y6898900D03*
X5131950Y7058900D03*
X5106950Y7003900D03*
X5141950Y6958900D03*
X5431450Y589650D03*
X5272700Y600900D03*
X5249700Y927900D03*
X5309700Y937900D03*
X5431450Y921150D03*
X5349700Y1102900D03*
X5354700Y1262900D03*
X5274690Y1922910D03*
X5390000Y3331450D03*
X5189100Y5771750D03*
X5590200Y593400D03*
X5614700Y922900D03*
Y1262900D03*
X5688250Y1351450D03*
X5590200Y1587400D03*
X5464700Y2182900D03*
X5526950Y5343900D03*
X5506950Y5583900D03*
X5448150Y5937700D03*
X5476950Y6073900D03*
X5521950Y6028900D03*
X5748950Y588650D03*
X5907700Y589900D03*
X5914700Y922900D03*
X5789700Y942900D03*
X5719700Y927900D03*
X5864700Y950020D03*
X5748950Y1267150D03*
X5907700Y1277900D03*
X5780700Y2211900D03*
X5904700Y2712900D03*
X6066450Y589650D03*
X6225200Y593400D03*
X6094700Y932900D03*
X6209700Y922900D03*
X6034700D03*
X6066450Y1272900D03*
X6225200Y1277400D03*
X6099700Y2867900D03*
X6111950Y4993900D03*
X6101950Y6578900D03*
X6383950Y588650D03*
X6274700Y947900D03*
X6444700Y950020D03*
X6374700Y917900D03*
X6383950Y1273650D03*
X6459700Y2527900D03*
X6309700Y3472900D03*
X6346950Y4178900D03*
X6441950Y4263900D03*
X6321950Y4333900D03*
X6436950Y4488900D03*
X6321950Y4778900D03*
X6316950Y4708900D03*
X6321950Y5838900D03*
X6326950Y6073900D03*
X6311950Y6403900D03*
X6326950Y6158900D03*
X6336950Y6448900D03*
X6542700Y600900D03*
X6701450Y589650D03*
X6604700Y937900D03*
X6764950Y948150D03*
X6701450Y926150D03*
X6542700Y914900D03*
X6574450Y1272900D03*
X6764950Y1267650D03*
X6694700Y1512900D03*
X6754700Y2327900D03*
X6579700D03*
X6669700Y2652900D03*
X6638500Y2726700D03*
X6579700Y2702900D03*
X6749700Y2962900D03*
X6616950Y4158900D03*
X6601950Y4643900D03*
X6536950Y5328900D03*
X6551950Y5818900D03*
X6561950Y6068900D03*
X6516950Y6238900D03*
X6631950Y7088900D03*
X6860200Y587400D03*
X7018950Y918650D03*
X6860200Y942400D03*
X7037130Y1894900D03*
X6909700Y2057900D03*
X7029700Y2289100D03*
X6844700Y2367900D03*
X6929700Y2507900D03*
X6834700Y2942650D03*
X6829700Y3031700D03*
Y3137900D03*
X6856950Y5338900D03*
X6981950Y6033900D03*
X6931950Y5938900D03*
X6986950Y6243900D03*
X6801950Y6358900D03*
X6996950Y6438900D03*
X6786950Y7088900D03*
X7196510Y931090D03*
X7241950Y4553900D03*
Y4428900D03*
X7266950Y4728900D03*
X7236950Y4628900D03*
X7201950Y5808900D03*
X7450750Y667900D03*
X7449700Y1237150D03*
X7341950Y4303900D03*
X7561950Y4463900D03*
X7556950Y4748900D03*
X7316950Y6407950D03*
X7646800Y2380000D03*
X7636800Y2620000D03*
X7642600Y2540000D03*
Y2460000D03*
X7641800Y2780000D03*
X7669700Y3212900D03*
Y3122900D03*
X7586950Y4163900D03*
X7766950Y4798900D03*
X7653950Y5101900D03*
X7716950Y5828900D03*
X7846950Y6088900D03*
X7716950Y6343900D03*
X7693180Y6253900D03*
X7621950Y6703900D03*
X7964700Y2100000D03*
Y2180000D03*
Y2260000D03*
Y2340000D03*
Y2500000D03*
Y2580000D03*
Y2740000D03*
Y2820000D03*
X8012600Y2700000D03*
X7964700Y2900000D03*
Y2980000D03*
Y3060000D03*
X8016800Y3140000D03*
X7964700Y3220000D03*
X8021950Y4158900D03*
X7992830Y4743900D03*
X8021950Y5848900D03*
X7906750Y6044100D03*
X7992150Y6079100D03*
X7991060Y6263010D03*
X8001950Y7063900D03*
X8191950Y4313900D03*
X8226950Y4583900D03*
X8286950Y4638900D03*
X8181950Y5123900D03*
X8201950Y6258900D03*
X8196000Y6364850D03*
X8186950Y6953900D03*
X8461950Y4163900D03*
X8431950Y4323900D03*
X8471950Y4798900D03*
X8451950Y4573900D03*
X8406950Y4608900D03*
X8541950Y5838900D03*
X8466950Y6009120D03*
X8381950Y6363900D03*
X8436950Y6258900D03*
X8542950Y6449900D03*
D13*
X510200Y2443650D03*
X509700Y2622900D03*
Y2917900D03*
Y2802900D03*
Y3027900D03*
Y3212900D03*
X510200Y3396150D03*
Y3586650D03*
Y3777150D03*
Y3967650D03*
X504700Y4107900D03*
X529700Y4682900D03*
X637750Y5729000D03*
X849700Y1742900D03*
Y2037900D03*
X874100Y2442190D03*
X878120Y2838420D03*
X894700Y3260000D03*
X934700Y5724000D03*
X869700Y6922900D03*
X850000Y7197900D03*
X814700Y7587900D03*
X964700Y3657900D03*
X1159700Y7082900D03*
X1244900Y660000D03*
X1329900Y1192700D03*
X1454700Y1962900D03*
X1332700Y2829900D03*
X1342190Y3022900D03*
X1399700Y3447900D03*
X1219700Y3667900D03*
X1272200Y5857900D03*
X1430950Y5861650D03*
X1272200Y5957900D03*
X1279810Y6621950D03*
X1361650Y7510950D03*
X1314700Y7822900D03*
X1713370Y5047140D03*
X1699700Y5487900D03*
X1484700Y6967900D03*
X1557950Y6872900D03*
X1544700Y7191700D03*
X1625000Y7592900D03*
X1557950Y7987900D03*
X1675000Y7887900D03*
X1557950Y8332900D03*
X1933800Y803900D03*
X1964500Y1192700D03*
X1874700Y1667900D03*
X1936850Y1818520D03*
X1814700Y3017900D03*
X1784700Y4172900D03*
X1974700D03*
X1834700Y4792900D03*
X1849700Y5987900D03*
X1854200Y6412400D03*
X1875450Y7192900D03*
X1907200Y7301400D03*
X1875450Y8337900D03*
X2050000Y685000D03*
Y1135000D03*
X2077200Y1347900D03*
X2244700Y3522900D03*
X2204700Y5722900D03*
X2192950Y7491900D03*
X2097700Y7301400D03*
X2030770Y7986550D03*
X2034200Y8337900D03*
X2419700Y892900D03*
X2434700Y1822900D03*
X2415200Y3967650D03*
X2294700Y5282900D03*
X2460000Y5970000D03*
Y6225000D03*
X2335000D03*
X2351700Y7190900D03*
X2399700Y7342900D03*
X2288200Y7301400D03*
X2423860Y7918620D03*
X2351700Y8342900D03*
X2554700Y1822900D03*
X2596010Y2578780D03*
X2793400Y3976310D03*
X2605700Y3967650D03*
X2586630Y5973370D03*
X2724700Y7577900D03*
X2796200Y8012900D03*
X2891450Y531150D03*
X2915000Y1770000D03*
X2859700Y3882900D03*
X2827950Y7202900D03*
X2869700Y8277900D03*
X3054700D03*
X3081950Y527900D03*
X3249700Y1772900D03*
X3149700Y3687900D03*
X3284700Y3807900D03*
X3304000Y5527200D03*
X3307000Y5400200D03*
X3306000Y5654200D03*
X3314700Y5781200D03*
X3324700Y7357900D03*
X3144700Y7577900D03*
X3139700Y8042900D03*
X3234700Y8277900D03*
X3558350Y1624900D03*
X3494700Y3967650D03*
X3413700Y5258900D03*
X3540700Y5263900D03*
X3413700Y5896900D03*
X3540700Y5893900D03*
X3604700Y7202900D03*
X3612200Y7333150D03*
X3514700Y7892900D03*
X3599700Y8277900D03*
X3414700D03*
X3646800Y545000D03*
X3664700Y757900D03*
X3689700Y1207900D03*
X3685200Y3967650D03*
X3875700D03*
X3667700Y5269900D03*
X3794700Y5897900D03*
X3667700Y5895900D03*
X3714700Y7197900D03*
X3853500Y8189100D03*
X3779700Y8277900D03*
X4066200Y3967650D03*
X3901000Y5654200D03*
X3902000Y5400200D03*
X3904000Y5527200D03*
X3949700Y7357900D03*
X4124700Y7907900D03*
X4139700Y8277900D03*
X3959700D03*
X4256700Y3967650D03*
X4199700Y7172900D03*
X4259700Y7337900D03*
X4596700Y1772900D03*
X4544700Y3762900D03*
X4542450Y3987550D03*
X4439700Y3967900D03*
X4828200Y3967650D03*
X4940000Y7635000D03*
X4800900Y8174100D03*
X4874700Y8292900D03*
X5205000Y548200D03*
X5019700Y487900D03*
X5159700Y1712900D03*
X5191190Y2715740D03*
X4965000Y2835000D03*
X5037750Y3445000D03*
X4955200Y7428400D03*
X5114700Y7907900D03*
X5144700Y8262900D03*
X5393350Y1676550D03*
X5284700Y3090400D03*
X5264700Y4327900D03*
X5348150Y7159450D03*
X5347900Y8262900D03*
X5449500D03*
X5246300D03*
X5514700Y547900D03*
X5745300Y2627900D03*
X5524700Y7428400D03*
X5551100Y8262900D03*
X5652700D03*
X5959700Y512900D03*
X5994700Y2287900D03*
X5872200Y3110400D03*
X5879700Y3337900D03*
X5819700Y3677900D03*
X5754700Y7517900D03*
X5749700Y7402900D03*
X5869600Y8237800D03*
X6264700Y3797900D03*
X6021300Y7320000D03*
X6044700Y8187900D03*
X6034700Y8087900D03*
X6369700Y507900D03*
X6344700Y1782900D03*
X6474700Y3797900D03*
X6655000Y513200D03*
X6804700Y2082400D03*
X6591300Y7321300D03*
X6809700Y8097900D03*
X6959700Y3607900D03*
X7064900Y5517700D03*
X6987200Y7955400D03*
X6919700Y8097900D03*
X7302500Y684700D03*
X7114000Y2147320D03*
X7119700Y3842900D03*
X7158450Y7396650D03*
X7129700Y7562900D03*
X7154700Y8252900D03*
X7256300D03*
X7435800Y976800D03*
X7509700Y3202900D03*
X7414700Y3662900D03*
X7577750Y3727900D03*
X7574700Y5517700D03*
X7561100Y8252900D03*
X7459500D03*
X7357900D03*
X7719700Y507900D03*
X7794700Y1822900D03*
X7670000Y1662900D03*
X7642600Y2185000D03*
X7644910Y2078960D03*
X7649700Y2300000D03*
X7739700Y3497900D03*
X7619700Y3582900D03*
X7839700Y3840650D03*
X7849700Y5517700D03*
X7773400Y7061200D03*
X7865900Y8252900D03*
X7764300D03*
X7662700D03*
X7907950Y966150D03*
X8088950Y1237150D03*
X7954700Y1907900D03*
X7987600Y2020000D03*
X7929700Y3577900D03*
X8104700Y5517700D03*
X8114700Y7687900D03*
X8029700Y7647900D03*
X8289700Y1692900D03*
Y2140000D03*
X8164700Y1948350D03*
X8279700Y2302900D03*
X8156750Y2684950D03*
X8259700Y3047900D03*
X8221950Y5417900D03*
X8174700Y7212900D03*
X8559700Y1072900D03*
X8592700Y2665900D03*
X8589700Y2507900D03*
X8595200Y2983400D03*
X8594700Y2824650D03*
X8424700Y2762900D03*
X8595450Y3142150D03*
X8589700Y3657900D03*
X8604700Y3812900D03*
X8604900Y5517700D03*
X8927700Y1395900D03*
X8932950Y2189650D03*
X8941700Y2665900D03*
X8930300Y3663500D03*
X8802100Y4257900D03*
X8779700Y4887900D03*
X8797100Y5285000D03*
X8684700Y6130500D03*
X8769700Y6287900D03*
X8776700Y6527800D03*
X8686000Y6908800D03*
X8754700Y7257900D03*
X8744700Y7877900D03*
X8948950Y3142150D03*
X9124700Y4478840D03*
X9141000Y4775200D03*
X9000300Y5295100D03*
X9005100Y5975000D03*
X9131000Y6527800D03*
X9005300Y7061200D03*
D14*
X605450Y4602650D03*
X1685000Y430000D03*
X1555000Y7800000D03*
X2002450Y7491900D03*
X5463200Y1776900D03*
X6694700Y8262900D03*
D15*
X500000Y500000D03*
Y8250000D03*
X9000000Y500000D03*
Y8250000D03*
D16*
X1696450Y6158400D03*
X1646450D03*
X1596450D03*
X1546450D03*
X1496450D03*
Y6412400D03*
X1546450D03*
X1596450D03*
X1646450D03*
X1696450D03*
X1746450Y6158400D03*
Y6412400D03*
D17*
X1393950Y3980350D03*
X1328950D03*
Y4589950D03*
X1393950D03*
X1653950Y3980350D03*
X1588950D03*
X1523950D03*
X1458950D03*
Y4589950D03*
X1523950D03*
X1588950D03*
X1653950D03*
X1913950Y3980350D03*
X1848950D03*
X1783950D03*
X1718950D03*
Y4589950D03*
X1783950D03*
X1848950D03*
X1913950D03*
D18*
X5032250Y4978000D03*
Y4928000D03*
X4937250D03*
Y4978000D03*
X5032250Y5232000D03*
Y5182000D03*
X4937250D03*
Y5232000D03*
X5030900Y5491000D03*
Y5441000D03*
X4935900D03*
Y5491000D03*
X5030900Y5745000D03*
Y5695000D03*
X4935900D03*
Y5745000D03*
X5032250Y6216250D03*
Y6166250D03*
X4937250D03*
Y6216250D03*
X5030900Y6680600D03*
X4935900D03*
X5034450Y6953900D03*
X4939450D03*
X5030900Y6730600D03*
X4935900D03*
X5034450Y7003900D03*
X4939450D03*
D19*
X5032250Y5033000D03*
Y4873000D03*
X4937250D03*
Y5033000D03*
X5032250Y5287000D03*
Y5127000D03*
X4937250D03*
Y5287000D03*
X5030900Y5546000D03*
Y5386000D03*
X4935900D03*
Y5546000D03*
X5030900Y5800000D03*
Y5640000D03*
X4935900D03*
Y5800000D03*
X5032250Y6111250D03*
X4937250D03*
X5032250Y6271250D03*
X4937250D03*
X5030900Y6625600D03*
X4935900D03*
X5034450Y6898900D03*
X4939450D03*
X5030900Y6785600D03*
X4935900D03*
X5034450Y7058900D03*
X4939450D03*
D20*
X5037750Y7965900D03*
X5190150D03*
X5037750Y8160900D03*
Y8095900D03*
Y8030900D03*
X5190150D03*
Y8095900D03*
Y8160900D03*
X7196750Y7970400D03*
Y7905400D03*
Y7840400D03*
Y7775400D03*
X7349150D03*
Y7840400D03*
Y7905400D03*
Y7970400D03*
D21*
X1585250Y1737400D03*
X1583800Y2355000D03*
Y2570000D03*
X1650900Y3122900D03*
X1498500D03*
Y3287900D03*
X1650900D03*
X1498500Y3447900D03*
X1650900D03*
X1737650Y1737400D03*
X1736200Y2355000D03*
Y2570000D03*
X1958000Y5491650D03*
Y5650400D03*
X2133500Y4477900D03*
X2110400Y5491650D03*
Y5650400D03*
X2173900Y6094900D03*
X2021500D03*
X2173900Y6412400D03*
X2021500D03*
X2173900Y6253650D03*
X2021500D03*
X2173900Y6571150D03*
X2021500D03*
X2285900Y4477900D03*
X3033500Y1992900D03*
X3037500Y2157900D03*
Y2316650D03*
Y2475400D03*
X3038500Y2792900D03*
X3037500Y2951650D03*
X3038500Y3217900D03*
Y3517900D03*
X3037500Y3904150D03*
X2912250Y5209150D03*
X3064650D03*
X2912250Y5367900D03*
X3064650D03*
X2912250Y5526650D03*
X3064650D03*
X2912250Y5685400D03*
X3064650D03*
X2912250Y5844150D03*
X3064650D03*
X2912250Y6002900D03*
X3064650D03*
X2942250Y7237900D03*
X3185900Y1992900D03*
X3189900Y2157900D03*
Y2316650D03*
Y2475400D03*
X3190900Y2792900D03*
X3189900Y2951650D03*
X3190900Y3217900D03*
Y3517900D03*
X3189900Y3904150D03*
X3094650Y7237900D03*
X3259750D03*
X3412150D03*
X3355000Y7523650D03*
X3507400D03*
X3800900Y1902900D03*
X3648500D03*
X3848500Y2187900D03*
X3853500Y2392900D03*
Y2692900D03*
Y2887900D03*
Y3197900D03*
Y3397900D03*
X3843500Y5212900D03*
X3853500Y7977900D03*
X3963500Y1902900D03*
X4115900D03*
X4000900Y2187900D03*
X4005900Y2392900D03*
Y2692900D03*
Y2887900D03*
Y3197900D03*
Y3397900D03*
X3995900Y5212900D03*
X3894750Y7237900D03*
X4047150D03*
X4005900Y7977900D03*
X4275750Y1903900D03*
X4253500Y2187900D03*
Y2397900D03*
X4248500Y2687900D03*
Y2892900D03*
X4253500Y3197900D03*
Y3392900D03*
X4294400Y5372900D03*
X4142000D03*
X4294400Y5214150D03*
X4142000D03*
X4294400Y5531650D03*
X4142000D03*
X4294400Y5690400D03*
X4142000D03*
X4294400Y5849150D03*
X4142000D03*
X4294400Y6007900D03*
X4142000D03*
X4558500Y1902900D03*
X4428150Y1903900D03*
X4405900Y2187900D03*
Y2397900D03*
X4400900Y2687900D03*
Y2892900D03*
X4405900Y3197900D03*
Y3392900D03*
X4710900Y1902900D03*
X4847250Y1903900D03*
X4999650D03*
X5190150Y2094400D03*
X5037750D03*
Y2602400D03*
X5190150D03*
X5037750Y2931650D03*
X5190150D03*
X5037750Y3249150D03*
X5190150D03*
X5037750Y3090400D03*
X5190150D03*
Y3566650D03*
X5037750D03*
X5092700Y5969000D03*
X4940300D03*
X5195750Y6623900D03*
X5190150Y7714150D03*
X5037750D03*
X5265750Y5213900D03*
X5418150D03*
X5215750Y5438900D03*
X5368150D03*
X5295750Y5773900D03*
X5448150D03*
X5215750Y6218900D03*
X5368150D03*
X5348150Y6623900D03*
X5778500Y7712900D03*
X5930900D03*
X6625250Y5301150D03*
X6777650D03*
X6968150Y1586400D03*
X6815750D03*
X6968150Y1776900D03*
X6815750D03*
Y1967400D03*
X6968150D03*
X7450750Y570400D03*
X7546000Y1237150D03*
X7603150Y570400D03*
X7698400Y1237150D03*
X8840900Y1072900D03*
X8688500D03*
X8841400Y1554650D03*
X8689000D03*
X8841400Y1395900D03*
X8689000D03*
X8841400Y1713400D03*
X8689000D03*
X8841400Y1872150D03*
X8689000D03*
X8841400Y2030900D03*
X8689000D03*
X8841400Y2189650D03*
X8689000D03*
X8841400Y2348400D03*
X8689000D03*
X8841400Y2665900D03*
X8689000D03*
X8841400Y2507150D03*
X8689000D03*
X8841400Y2983400D03*
X8689000D03*
X8841400Y2824650D03*
X8689000D03*
X8841400Y3142150D03*
X8689000D03*
X8875750Y4778900D03*
X8878300Y4618600D03*
X8875750Y4938900D03*
X8878300Y6362700D03*
Y6692900D03*
Y6527800D03*
X9028150Y4778900D03*
X9030700Y4618600D03*
X9028150Y4938900D03*
X9030700Y6362700D03*
Y6692900D03*
Y6527800D03*
D22*
X850000Y7073000D03*
X754750D03*
Y7327000D03*
X945250Y7073000D03*
Y7327000D03*
D23*
X8320700Y856150D03*
X8193700D03*
Y1237150D03*
X8320700D03*
X8447700Y856150D03*
Y1237150D03*
D24*
X615700Y3891450D03*
X510200Y4208950D03*
X615700Y4043850D03*
X510200Y4361350D03*
X573700Y4843950D03*
Y4996350D03*
Y5351950D03*
Y5504350D03*
X829700Y3896700D03*
Y4049100D03*
X891200Y4208950D03*
X700700D03*
X891200Y4361350D03*
X700700D03*
X764200Y4996350D03*
Y4843950D03*
Y5351950D03*
Y5504350D03*
Y6685450D03*
Y6837850D03*
X954700Y779950D03*
X1145200D03*
X954700Y932350D03*
X1145200D03*
X1049950Y3891450D03*
Y4208950D03*
Y4043850D03*
Y4494700D03*
Y4361350D03*
Y4647100D03*
X979700Y6676700D03*
X1169700D03*
X979700Y6829100D03*
X1169700D03*
X1335700Y779950D03*
Y932350D03*
X1430950Y5605950D03*
X1272200D03*
X1430950Y5758350D03*
X1272200D03*
Y6050450D03*
Y6202850D03*
X1399200Y6621950D03*
Y6774350D03*
X1429700Y7191700D03*
X1240450Y7193450D03*
X1429700Y7344100D03*
X1240450Y7345850D03*
Y7510950D03*
Y7663350D03*
X1494450Y779950D03*
X1653200D03*
X1494450Y932350D03*
X1653200D03*
X1494450Y1345100D03*
Y1192700D03*
X1748450Y5605950D03*
X1589700D03*
X1748450Y5758350D03*
X1589700D03*
X1716700Y6621950D03*
X1557950D03*
X1716700Y6774350D03*
X1557950D03*
X1716700Y8082450D03*
Y8234850D03*
X1557950Y8082450D03*
Y8234850D03*
X1815000Y778800D03*
Y931200D03*
X1780200Y1345100D03*
Y1192700D03*
X2002450Y4907450D03*
Y5059850D03*
X1843700Y4907450D03*
Y5059850D03*
X1794700Y5211700D03*
Y5364100D03*
X1875450Y6621950D03*
Y6774350D03*
Y6939450D03*
Y7091850D03*
X1930700Y7764950D03*
Y7917350D03*
X1875450Y8082450D03*
Y8234850D03*
X2050000Y778800D03*
Y931200D03*
X2192950Y1345100D03*
Y1192700D03*
X2197200Y3164700D03*
Y3317100D03*
X2159700Y4081700D03*
Y4234100D03*
X2161200Y4907450D03*
Y5059850D03*
X2192950Y6939450D03*
X2034200D03*
X2192950Y7091850D03*
X2034200D03*
X2129450Y7764950D03*
Y7917350D03*
X2192950Y8082450D03*
Y8234850D03*
X2034200Y8082450D03*
Y8234850D03*
X2542200Y970450D03*
Y1122850D03*
X2446950Y3605700D03*
Y3758100D03*
X2472450Y4081950D03*
Y4234350D03*
X2319950Y4079950D03*
Y4232350D03*
X2351700Y6939450D03*
X2510450D03*
X2351700Y7091850D03*
X2510450D03*
X2288200Y7764950D03*
Y7917350D03*
X2351700Y8082450D03*
Y8234850D03*
X2509700Y8081700D03*
Y8234100D03*
X2700950Y621200D03*
Y773600D03*
Y970450D03*
Y1122850D03*
X2605700Y3758100D03*
Y3605700D03*
X2759700Y3759100D03*
Y3606700D03*
X2794950Y4081950D03*
Y4234350D03*
X2631200Y4081950D03*
Y4234350D03*
X2669200Y6939450D03*
Y7091850D03*
X2796200Y7764950D03*
X2637450D03*
X2796200Y7917350D03*
X2637450D03*
X2891450Y621200D03*
Y773600D03*
X3081950Y621200D03*
Y773600D03*
X2859700Y970450D03*
X3018450D03*
X2859700Y1122850D03*
X3018450D03*
X2953700Y4081950D03*
Y4234350D03*
X3033700Y4905700D03*
Y5058100D03*
X2874950Y4905700D03*
Y5058100D03*
X3053700Y6150700D03*
X2894950D03*
X3053700Y6303100D03*
X2894950D03*
X2827950Y6939450D03*
X2986700D03*
X2827950Y7091850D03*
X2986700D03*
X3014700Y7966700D03*
Y8119100D03*
X3208950Y1097450D03*
Y1249850D03*
Y1535600D03*
Y1383200D03*
X3272450Y4081950D03*
Y4234350D03*
X3189700Y4906700D03*
Y5059100D03*
X3344700Y4906700D03*
Y5059100D03*
X3212450Y6150700D03*
Y6303100D03*
X3304200Y6939450D03*
X3145450D03*
X3304200Y7091850D03*
X3145450D03*
X3234700Y7966700D03*
Y8119100D03*
X3367700Y1097450D03*
X3526450D03*
X3367700Y1249850D03*
X3526450D03*
X3367700Y1535600D03*
Y1383200D03*
X3526450Y1535600D03*
Y1383200D03*
X3589950Y3707700D03*
X3431200D03*
X3589950Y3860100D03*
X3431200D03*
Y4081950D03*
Y4234350D03*
X3589950Y4081950D03*
Y4234350D03*
X3502950Y4905700D03*
Y5058100D03*
X3371200Y6150700D03*
X3529950D03*
X3371200Y6303100D03*
X3529950D03*
X3462950Y6939450D03*
Y7091850D03*
X3414700Y7966700D03*
Y8119100D03*
X3748700Y3707700D03*
Y3860100D03*
Y4081950D03*
Y4234350D03*
X3661700Y4905700D03*
Y5058100D03*
X3820450Y4905700D03*
Y5058100D03*
X3844700Y6151700D03*
X3688700Y6150700D03*
X3844700Y6304100D03*
X3688700Y6303100D03*
X3621700Y6939450D03*
X3780450D03*
X3621700Y7091850D03*
X3780450D03*
X3624700Y7966700D03*
Y8119100D03*
X4066200Y3707700D03*
X3907450D03*
X4066200Y3860100D03*
X3907450D03*
X4066200Y4081950D03*
Y4234350D03*
X3907450Y4081950D03*
Y4234350D03*
X4137950Y4905700D03*
Y5058100D03*
X3979200Y4905700D03*
Y5058100D03*
X4004200Y6150700D03*
Y6303100D03*
X4097950Y6939450D03*
X3939200D03*
X4097950Y7091850D03*
X3939200D03*
X4383700Y3707700D03*
Y3860100D03*
Y4081950D03*
Y4234350D03*
X4224950Y4081950D03*
Y4234350D03*
X4296700Y4905700D03*
Y5058100D03*
X4162950Y6150700D03*
X4321700D03*
X4162950Y6303100D03*
X4321700D03*
X4542450Y4081950D03*
Y4234350D03*
X4701200Y3712700D03*
X4874950Y3717700D03*
X4701200Y3865100D03*
X4874950Y3870100D03*
X4701200Y4081950D03*
Y4234350D03*
X4874950Y4081950D03*
Y4234350D03*
X5082200Y837100D03*
Y684700D03*
Y1033950D03*
Y1186350D03*
X5194700Y3711700D03*
X5033700Y3717700D03*
X5194700Y3864100D03*
X5033700Y3870100D03*
X5194700Y4081700D03*
Y4234100D03*
X5033700Y4081950D03*
Y4234350D03*
X5142450Y4520100D03*
Y4367700D03*
X4983700D03*
Y4520100D03*
X5272700Y837100D03*
Y684700D03*
X5431450Y837100D03*
Y684700D03*
X5272700Y1033950D03*
X5431450D03*
X5272700Y1186350D03*
X5431450D03*
X5463200Y1954700D03*
Y2107100D03*
X5367950Y3256450D03*
Y3408850D03*
Y3542200D03*
Y3694600D03*
X5590200Y837100D03*
Y684700D03*
X5748950Y837100D03*
Y684700D03*
X5590200Y1033950D03*
X5748950D03*
X5590200Y1351450D03*
Y1186350D03*
X5748950D03*
X5590200Y1503850D03*
X5621950Y1954700D03*
Y2107100D03*
X5685450Y3256450D03*
Y3408850D03*
X5526700Y3256450D03*
Y3408850D03*
X5685450Y3542200D03*
Y3694600D03*
X5526700Y3542200D03*
Y3694600D03*
X5907700Y837100D03*
Y684700D03*
Y1033950D03*
Y1186350D03*
X5971200Y1954700D03*
Y2107100D03*
X5780700Y1954700D03*
Y2107100D03*
X6002950Y2716700D03*
Y2869100D03*
Y3218350D03*
Y3065950D03*
X6066450Y837100D03*
Y684700D03*
X6225200Y837100D03*
Y684700D03*
X6066450Y1033950D03*
X6225200D03*
X6066450Y1186350D03*
X6225200D03*
Y3542200D03*
Y3694600D03*
X6206150Y4240700D03*
X6206950Y4527700D03*
X6206150Y4393100D03*
X6206950Y4807700D03*
Y4680100D03*
Y4960100D03*
X6231950Y5897700D03*
Y6050100D03*
Y6340100D03*
Y6187700D03*
Y6477700D03*
Y6630100D03*
X6164700Y8116700D03*
Y8269100D03*
X6383950Y837100D03*
Y684700D03*
X6542700Y837100D03*
Y684700D03*
X6383950Y1033950D03*
Y1186350D03*
Y3542200D03*
Y3694600D03*
X6542700Y3542200D03*
Y3694600D03*
X6519700Y8269100D03*
Y8116700D03*
X6344700Y8269100D03*
Y8116700D03*
X6701450Y837100D03*
Y684700D03*
X6574450Y1033950D03*
X6764950D03*
X6574450Y1351450D03*
Y1186350D03*
X6764950D03*
X6574450Y1503850D03*
X6754700Y2436700D03*
X6579700D03*
X6754700Y2589100D03*
X6579700D03*
X6754700Y2879100D03*
Y2726700D03*
X6701450Y4240700D03*
Y4526450D03*
Y4393100D03*
Y4678850D03*
X6706950Y5887700D03*
Y6040100D03*
X6701950Y6182700D03*
Y6335100D03*
Y6857700D03*
Y7010100D03*
X7018950Y684700D03*
Y837100D03*
X6860200Y684700D03*
Y837100D03*
X6929700Y2136700D03*
Y2431700D03*
Y2289100D03*
Y2584100D03*
Y2884100D03*
Y2731700D03*
Y3184100D03*
Y3031700D03*
X6987200Y7701450D03*
Y7853850D03*
X7177700Y684700D03*
Y837100D03*
X7145950Y4240700D03*
Y4526450D03*
Y4393100D03*
Y4678850D03*
X7181950Y5517700D03*
Y5670100D03*
X7186950Y5902700D03*
Y6055100D03*
Y6192700D03*
Y6345100D03*
X7456950Y5517700D03*
Y5670100D03*
X7653950Y4240700D03*
Y4526450D03*
Y4393100D03*
Y4812200D03*
Y4678850D03*
Y4964600D03*
X7726950Y5517700D03*
X7622200Y5891700D03*
X7726950Y5670100D03*
X7622200Y6044100D03*
X7621950Y6182700D03*
Y6335100D03*
Y6467700D03*
Y6620100D03*
X7907950Y716450D03*
Y868850D03*
X8096950Y4232700D03*
X8098450Y4526450D03*
X8096950Y4385100D03*
X8098450Y4812200D03*
Y4678850D03*
Y4964600D03*
X7986950Y5517700D03*
Y5670100D03*
X8093450Y5926700D03*
Y6079100D03*
Y6212450D03*
Y6364850D03*
X8098450Y6875950D03*
Y7028350D03*
X8221950Y5517700D03*
Y5670100D03*
X8288950Y7288700D03*
Y7441100D03*
Y7726850D03*
Y7574450D03*
X8257200Y7891950D03*
Y8044350D03*
X8544700Y4229950D03*
Y4382350D03*
Y4515700D03*
Y4668100D03*
X8491950Y5517700D03*
Y5670100D03*
X8541950Y6080100D03*
Y5927700D03*
X8542950Y6209200D03*
Y6361600D03*
X8765200Y7383950D03*
Y7536350D03*
D25*
X5621950Y7333150D03*
Y7523650D03*
X5875950Y7428400D03*
Y7333150D03*
Y7523650D03*
X7526950Y7333150D03*
Y7523650D03*
X7780950Y7428400D03*
Y7333150D03*
Y7523650D03*
D26*
X1661450Y2143800D03*
X1750350Y1953300D03*
X1572550D03*
X1654700Y2936800D03*
X1743600Y2746300D03*
X1565800D03*
X1977050Y1548300D03*
Y1961050D03*
X1975800Y2351300D03*
Y2746300D03*
X2008600Y3136300D03*
X1830800D03*
X1919700Y3326800D03*
X2154850Y1548300D03*
X2065950Y1738800D03*
Y2151550D03*
X2154850Y1961050D03*
X2153600Y2351300D03*
X2064700Y2541800D03*
Y2936800D03*
X2153600Y2746300D03*
X2478700Y2151550D03*
X2389800Y1961050D03*
X2390800Y2351300D03*
X2479700Y2541800D03*
Y2931800D03*
X2390800Y2741300D03*
X2385800Y3136300D03*
X2474700Y3326800D03*
X2505800Y7246300D03*
X2567600Y1961050D03*
X2568600Y2351300D03*
Y2741300D03*
X2563600Y3136300D03*
X2683600Y7246300D03*
X2594700Y7436800D03*
X7469800Y786300D03*
X7558700Y976800D03*
X7647600Y786300D03*
D27*
X1964350Y5269400D03*
Y5872650D03*
X2059600Y3681900D03*
X2262800D03*
X2167550Y5269400D03*
Y5872650D03*
X6409350Y1935650D03*
X6612550D03*
X6790350Y3808900D03*
X6993550D03*
X8930300D03*
X8727100D03*
X8802100Y4402700D03*
X8797100Y5142700D03*
X8801900Y6130500D03*
X8802100Y6908800D03*
X9005300Y4402700D03*
X9000300Y5142700D03*
X9005100Y6130500D03*
X9005300Y6908800D03*
D28*
X1532550Y3681900D03*
X1837350D03*
D29*
X5088550Y1459400D03*
Y7428400D03*
X5393350Y1459400D03*
Y7428400D03*
X6993550Y7396650D03*
X7298350D03*
D30*
X4086700Y1592750D03*
X3916700D03*
X4426700D03*
X4256700D03*
X4596700D03*
D31*
X6169700Y7524500D03*
Y7321300D03*
Y7726300D03*
Y7929500D03*
X6449700Y7321300D03*
Y7524500D03*
X8066700Y7530000D03*
Y7326800D03*
X8511200D03*
Y7530000D03*
Y7803050D03*
Y8006250D03*
D32*
X7265800Y1820000D03*
Y1740000D03*
Y2140000D03*
Y2060000D03*
Y1980000D03*
Y1900000D03*
Y2380000D03*
Y2300000D03*
Y2220000D03*
Y2540000D03*
Y2460000D03*
Y2940000D03*
Y2860000D03*
Y3180000D03*
Y3100000D03*
Y3020000D03*
Y3420000D03*
Y3340000D03*
Y3260000D03*
Y3660000D03*
Y3580000D03*
Y3500000D03*
X8434200Y1740000D03*
Y1820000D03*
Y1900000D03*
Y1980000D03*
Y2060000D03*
Y2140000D03*
Y2220000D03*
Y2300000D03*
Y2380000D03*
Y2460000D03*
Y2540000D03*
Y2860000D03*
Y2940000D03*
Y3020000D03*
Y3100000D03*
Y3180000D03*
Y3260000D03*
Y3340000D03*
Y3420000D03*
Y3500000D03*
Y3580000D03*
Y3660000D03*
D33*
X764200Y5879000D03*
Y6183800D03*
X1049950Y5879000D03*
Y6183800D03*
D34*
X680000Y1740000D03*
Y1820000D03*
Y1900000D03*
Y1980000D03*
Y2060000D03*
Y2140000D03*
Y2220000D03*
Y2300000D03*
Y2380000D03*
Y2460000D03*
Y2540000D03*
Y2620000D03*
Y2700000D03*
Y2780000D03*
Y2860000D03*
Y2940000D03*
Y3020000D03*
Y3100000D03*
Y3180000D03*
Y3260000D03*
X1120000Y1740000D03*
Y1820000D03*
Y1900000D03*
Y1980000D03*
Y2060000D03*
Y2140000D03*
Y2220000D03*
Y2300000D03*
Y2380000D03*
Y2460000D03*
Y2540000D03*
Y2620000D03*
Y2700000D03*
Y2780000D03*
Y2860000D03*
Y2940000D03*
Y3020000D03*
Y3100000D03*
Y3180000D03*
Y3260000D03*
D35*
X5437800Y8063400D03*
X5869600D03*
X7565050Y7872900D03*
X7996850D03*
D36*
X3081950Y7434750D03*
Y7739550D03*
X3812200Y7484750D03*
Y7789550D03*
X4193200Y7484750D03*
Y7789550D03*
D37*
X4256700Y957750D03*
M02*