G04 Gerber PCB Fabrication Data in Gerber – Example 2, created by Karel Tavernier, Filip Vermeire and Thomas Weyn*
G04 Ucamco copyright*
%TF.GenerationSoftware,Ucamco,UcamX,1.1.0-1400509*%
%TF.CreationDate,2014-07-14T00:00;00+01:00*%
%FSLAX25Y25*%
%MOMM*%
%TF.FileFunction,Copper,L9,Inr,Signal*%
%TF.FilePolarity,Positive*%
%TF.Part,Single*%
%TF.SameCoordinates*%
%TA.AperFunction,Conductor*%
%ADD10C,0.15000*%
%TA.AperFunction,NonConductor*%
%ADD11C,0.20000*%
%TA.AperFunction,ViaPad*%
%ADD12C,0.30000*%
%ADD13C,0.65000*%
%TA.AperFunction,WasherPad*%
%ADD14C,6.00000*%
G01*
%LPD*%
D10*
X545060Y1647900D02*
X527380Y1630220D01*
X545060Y1647900D02*
X527380Y1665580D01*
X545060Y1647900D02*
X789700D01*
X509700Y1647900D02*
X545060D01*
X839110Y1887900D02*
X815400Y1876250D01*
X839110Y1887900D02*
X815400Y1911610D01*
X839110Y1887900D02*
X954700D01*
X797720Y1893930D02*
X794700D01*
Y1887900D01*
X839110D01*
X709700Y7182900D02*
X694700D01*
X709700Y7182900D02*
X739090D01*
X749400Y7183200D01*
X739090Y7182900D02*
X749400Y7172600D01*
X739090Y7182900D02*
X749700D01*
X754700Y7177900D01*
X674700Y7187900D02*
X704700D01*
X709700Y7182900D01*
X754750Y7462950D02*
X1104650D01*
X1144700Y7422900D01*
X1046750Y891100D02*
Y779950D01*
X1930700Y8007750D02*
Y7963260D01*
Y7927900D01*
X1930700Y7963260D02*
X1913020Y7945580D01*
X1930700Y7963260D02*
X1948380Y7945580D01*
X2139700Y7927900D02*
Y7963260D01*
Y7981790D01*
X2139700Y7963260D02*
X2122020Y7945580D01*
X2139700Y7963260D02*
X2157380Y7945580D01*
X2139700Y7981790D02*
Y7992400D01*
X2129450Y8002650D01*
X2139700Y7981790D02*
X2124150Y7997350D01*
X2284700Y7927900D02*
X2288200Y7931400D01*
Y7989400D01*
X2269700Y8007900D01*
X2299700Y8097900D02*
X2324700D01*
X2299700Y8097900D02*
Y8072900D01*
X2299700Y8097900D02*
X2274700Y8122900D01*
Y8162900D01*
X2324700Y8072900D02*
X2329700Y8077900D01*
X2319700D01*
X2299700Y8097900D01*
X2589700Y7422900D02*
X2594700Y7427900D01*
Y7463260D01*
Y7537900D01*
X2594700Y7463260D02*
X2572020Y7440580D01*
X2594700Y7463260D02*
X2607380Y7440580D01*
X7727240Y3180000D02*
X7744920Y3197680D01*
X7727240Y3180000D02*
X7744920Y3162320D01*
X7727240Y3180000D02*
X7762600D01*
X7669700Y3212900D02*
X7702600Y3180000D01*
X7727240D01*
X7772240Y3100000D02*
X7789920Y3117680D01*
X7772240Y3100000D02*
X7789920Y3082320D01*
X7772240Y3100000D02*
X7807600D01*
X7669700Y3122900D02*
X7692600Y3100000D01*
X7772240D01*
X834700Y5227900D02*
Y5267900D01*
X864700Y5297900D01*
X863250Y5504350D02*
Y5616450D01*
X954700Y1017900D02*
Y932900D01*
X1144700Y4562900D02*
X1119700D01*
X1049700Y4492900D01*
X984700Y5067900D02*
Y5082900D01*
X1029700Y5127900D01*
X1074700Y5482900D02*
X1079700D01*
X1134700Y5427900D01*
X1609700Y5332900D02*
X1604880Y5328080D01*
X1534860D01*
X1804700Y1517900D02*
X1844700Y1477900D01*
Y1417900D01*
X2050900Y4081700D02*
X2158500D01*
X2050900Y4081700D02*
Y4139100D01*
X2539700Y1337900D02*
Y1334700D01*
X2397700Y1192700D01*
X2309500D01*
X2307500Y1345100D02*
X2319700Y1332900D01*
X2404700D01*
X2437200Y4055400D02*
X2479580Y4013020D01*
Y4011390D01*
X2485940Y4005030D01*
X2319950Y4207900D02*
X2292330Y4180270D01*
X2319950Y4207900D02*
Y4183150D01*
X2304700Y4167900D01*
X2319950Y4308150D02*
Y4207900D01*
X2437200Y4055400D02*
X2419700Y4070400D01*
X2437200Y4055400D02*
Y4087900D01*
X2419700Y4087900D02*
X2424700Y4082900D01*
Y4067900D01*
X2437200Y4055400D01*
X2733250Y4912900D02*
X2766330Y4879830D01*
X2733250Y4912900D02*
X2758000D01*
X2778700Y4892200D01*
X2709700Y4912900D02*
X2733250D01*
X2833450Y5209150D02*
Y5201650D01*
X2779700Y5147900D01*
X2797200Y5375400D02*
X2779700Y5385400D01*
X2779700Y5652900D02*
X2774700D01*
X2719700Y5597900D01*
X2779700Y5402900D02*
Y5392900D01*
X2797200Y5375400D01*
X2714700Y5722900D02*
Y5844200D01*
X2778700Y5908200D01*
X2714700Y5972900D02*
Y5972200D01*
X2778700Y5908200D01*
X2714700Y6227900D02*
Y6226200D01*
X2778700Y6162200D01*
X2715000Y6357900D02*
Y6352900D01*
X2778700Y6289200D01*
X2984700Y4807900D02*
Y4822900D01*
X2934700Y4872900D01*
X2797200Y5375400D02*
X2834700Y5337900D01*
X2797200Y5375400D02*
Y5402900D01*
X2969700Y6372900D02*
X2937600Y6405000D01*
X2894350D01*
X2894760Y6405410D01*
X2969700Y6477900D02*
X2971000D01*
X3032700Y6416200D01*
X3249700Y1772900D02*
X3652100D01*
X3702100Y1722900D01*
X3834700D01*
X3884700Y1772900D01*
Y1847900D01*
X3270000Y1992900D02*
X3331650D01*
X3379700Y2040950D01*
Y2042900D01*
X3364700Y2447900D02*
X3292280D01*
X3289700Y2450480D01*
X3160080Y4762710D02*
X3220270Y4822900D01*
X3229700D01*
X3099700Y4792900D02*
Y4850250D01*
X3127070Y4877630D01*
X3099700Y4850250D02*
Y4875000D01*
X3114700Y4890000D01*
X3159700Y6417900D02*
X3194700Y6382900D01*
Y6377900D01*
X3274700Y6297900D01*
X3452200Y4780400D02*
X3409700D01*
X3452200Y4780400D02*
X3434700Y4762900D01*
X3409700D01*
X3614700Y4802900D02*
X3579700Y4767900D01*
X3539700D01*
X3474700Y4802900D02*
X3452200Y4780400D01*
X3484700Y6487900D02*
Y6472900D01*
X3539700Y6417900D01*
X3354700Y6462900D02*
X3369700D01*
X3414700Y6417900D01*
X3800900Y1794100D02*
Y1831950D01*
X3759700Y1873150D01*
X3812200Y4847800D02*
X3794700Y4860400D01*
X3812200Y4847800D02*
Y4877900D01*
X3812200Y4847800D02*
X3794700Y4865300D01*
Y4877900D01*
X4114700Y4872900D02*
X4054700Y4932900D01*
X3849700D01*
X3794700Y4877900D01*
X3849700Y4807900D02*
Y4810300D01*
X3812200Y4847800D01*
X3724700Y6467900D02*
Y6472900D01*
X3667700Y6415900D01*
X3949700Y1922900D02*
X3884700Y1857900D01*
Y1847900D01*
X3949700Y1922900D02*
X4024700Y1847900D01*
X4369700D01*
X4404700Y1882900D01*
X3940450Y2528400D02*
X3967330Y2555270D01*
X3940450Y2528400D02*
X3933400D01*
X3907900Y2502900D01*
X3904700D01*
X3979700Y2542900D02*
X3965200Y2528400D01*
X3940450D01*
X3874860Y2642720D02*
Y2573040D01*
X3875000Y2572900D01*
X4030400Y2825400D02*
X4080000D01*
X4030400Y2825400D02*
X3999700Y2794700D01*
Y2792900D01*
X4084700Y2942900D02*
X4099200Y2928400D01*
X4115130D01*
X4115630Y2927900D01*
X4164700D01*
X3979700Y2942900D02*
X4084700D01*
X4080000Y2842900D02*
X4047900D01*
X4030400Y2825400D01*
X4089150Y2714210D02*
X4090000D01*
Y2717600D01*
X4102600Y2705000D01*
X4156800D01*
X4164700Y2712900D01*
X3897200Y2915400D02*
X3879700Y2925400D01*
X3897200Y2915400D02*
Y2942900D01*
X3897200Y2915400D02*
X3929700Y2882900D01*
X3879700Y2942900D02*
Y2932900D01*
X3897200Y2915400D01*
X4094700Y3137900D02*
Y3103110D01*
X4149910Y3047900D01*
X4174700D01*
X3904700Y3042900D02*
X3979700D01*
X3889450Y3627900D02*
X3867070Y3605530D01*
X3889450Y3627900D02*
X3867070Y3630270D01*
X3889450Y3627900D02*
X3864700D01*
X3854700Y3617900D01*
X3929700Y3627900D02*
X3889450D01*
X4034700Y3627900D02*
X3929700D01*
X4104700Y4777900D02*
X4114700Y4787900D01*
Y4872900D01*
X3968200Y4781400D02*
X3924700D01*
X3968200Y4781400D02*
X3994700Y4807900D01*
X3924700Y4763900D02*
X3950700D01*
X3968200Y4781400D01*
X4059700Y5132900D02*
Y5142900D01*
X3999700Y5202900D01*
X4239990Y2632900D02*
X4262520Y2655420D01*
X4239990Y2632900D02*
X4262520Y2630680D01*
X4239990Y2632900D02*
X4164700D01*
X4274890Y2643050D02*
X4264740Y2632900D01*
X4239990D01*
X4379700Y2642900D02*
Y2582900D01*
X4359700Y2562900D01*
X4330000D01*
X4310000Y2542900D01*
X4279700D01*
X4157500Y2797500D02*
Y2842400D01*
X4157500Y2797500D02*
X4175000Y2815000D01*
Y2842400D01*
X4140550Y2783750D02*
X4143750D01*
X4157500Y2797500D01*
X4174700Y3132900D02*
Y3047900D01*
X4349700Y3027900D02*
X4294700D01*
X4279700Y3042900D01*
X4349700Y3027900D02*
X4352100D01*
X4379700Y3000300D01*
Y2942900D01*
X4579700Y1997900D02*
Y1977900D01*
X4674700Y1882900D01*
X4919700Y1977900D02*
X4839700D01*
X4769700Y1907900D01*
X5082200Y1110400D02*
Y1025400D01*
X5054700Y2142900D02*
X5006200Y2094400D01*
X4948200D01*
X5088700Y1903900D02*
X5193700D01*
X5114700Y2931650D02*
X5190000D01*
X5037750Y3345000D02*
Y3341950D01*
X5034700Y3338900D01*
Y3242900D01*
X5114700Y3647900D02*
Y3717900D01*
X4983700Y4445100D02*
Y4452900D01*
X4989700Y4446900D01*
X5058700D01*
X5274690Y1922910D02*
X5255680Y1903900D01*
X5193700D01*
X5506950Y5583900D02*
X5431950D01*
X5448150Y5937700D02*
Y6007700D01*
X5446950Y6008900D01*
Y6043900D01*
X5476950Y6073900D01*
X5526950Y5343900D02*
X5446950D01*
X5446950Y6008900D02*
X5501950D01*
X5521950Y6028900D01*
X5974950Y2712900D02*
X5997330Y2735270D01*
X5974950Y2712900D02*
X5997330Y2710530D01*
X5974950Y2712900D02*
X5999700D01*
X6009700Y2722900D01*
X5904700Y2712900D02*
X5974950D01*
X6004700Y3112900D02*
X5874700D01*
X5872200Y3110400D01*
X6004700Y2867900D02*
X6099700D01*
X6111950Y4993900D02*
X6096950D01*
X6051950Y5038900D01*
X6101950Y6578900D02*
X6016950D01*
X6441950Y4263900D02*
X6440030D01*
X6387790Y4316140D01*
X6406700Y4488900D02*
X6374320Y4521270D01*
X6406700Y4488900D02*
X6381950D01*
X6361950Y4508900D01*
X6345280Y4333900D02*
X6375420Y4303770D01*
X6345280Y4333900D02*
X6370030D01*
X6387790Y4316140D01*
X6321950Y4333900D02*
X6345280D01*
X6436950Y4488900D02*
X6406700D01*
X6326950Y6073900D02*
Y6048900D01*
X6366950Y6008900D01*
X6326950Y6158900D02*
Y6163900D01*
X6371950Y6208900D01*
X6374450D01*
X6856950Y5338900D02*
X6821950D01*
X6776950Y5383900D01*
X6909700Y2057900D02*
X6964700Y2002900D01*
Y1857900D01*
X7236950Y4628900D02*
X7226950D01*
X7225180Y4630670D01*
X7038720D01*
X7031950Y4623900D01*
X6931950Y5938900D02*
Y5888900D01*
X6908540Y5865490D01*
X6996950Y6438900D02*
X6971950Y6413900D01*
X6871950D01*
X6801950Y6358900D02*
X6816950D01*
X6871950Y6413900D01*
X6786950Y7088900D02*
X6836950D01*
X6876950Y7048900D01*
X7284880Y4440900D02*
X7313750Y4440910D01*
X7284880Y4440900D02*
X7294180Y4450200D01*
X7321950D01*
X7241950Y4428900D02*
X7244950Y4431900D01*
X7281000D01*
X7290000Y4440900D01*
X7284880D01*
X7199050Y4728900D02*
X7179470Y4709330D01*
X7199050Y4728900D02*
X7179470Y4734070D01*
X7199050Y4728900D02*
X7176950D01*
X7166950Y4718900D01*
Y4721700D01*
X7167100D01*
X7266950Y4728900D02*
X7199050D01*
X7201950Y5808900D02*
X7121950D01*
X7316950Y6407950D02*
X7166950D01*
X7561950Y4463900D02*
X7593750Y4495700D01*
X7724550D01*
X7603700Y5101900D02*
X7574320Y5131270D01*
X7603700Y5101900D02*
X7578950D01*
X7561950Y5118900D01*
X7724550Y4495700D02*
X7747630Y4497370D01*
X7724550Y4495700D02*
X7747630Y4472630D01*
X7724550Y4495700D02*
X7740150D01*
X7750850Y4485000D01*
X7760000D01*
X7653950Y5101900D02*
X7603700D01*
X7761950Y6208900D02*
X7716950Y6253900D01*
X7693180D01*
X7906750Y6044100D02*
X7938120D01*
X7967880Y6014340D01*
X7992150Y6079100D02*
Y6038610D01*
X7967880Y6014340D01*
X8191950Y4313900D02*
Y4246950D01*
X8155000Y4210000D01*
X8286950Y4638900D02*
X8356950Y4708900D01*
X8406950Y4608900D02*
Y4658900D01*
X8356950Y4708900D01*
X8181950Y5123900D02*
X8271950D01*
X8381950Y6363900D02*
X8425200Y6407150D01*
X8433800D01*
X8224450Y6391400D02*
X8271950D01*
X8224450Y6391400D02*
X8197900Y6364850D01*
X8196000D01*
X8271950Y6408900D02*
X8333050Y6470000D01*
X8522850D01*
X8542950Y6449900D01*
X8271950Y6408900D02*
X8241950D01*
X8224450Y6391400D01*
X8186950Y6953900D02*
X8218550D01*
X8268700Y7004050D01*
X8505750Y4207700D02*
X8550000D01*
X8505750Y4207700D02*
X8523250Y4225200D01*
X8550000D01*
X8461950Y4163900D02*
X8505750Y4207700D01*
X8471950Y4798900D02*
Y4701970D01*
X8471210Y4701230D01*
X8541950Y5838900D02*
Y5923900D01*
X509700Y1916080D02*
X528790Y1896990D01*
X509700Y1916080D02*
X490610Y1896990D01*
X509700Y1916080D02*
Y1877900D01*
X524700Y1957900D02*
X509700Y1942900D01*
Y1916080D01*
X574700Y2290580D02*
X593790Y2271490D01*
X574700Y2290580D02*
X555610Y2271490D01*
X574700Y2290580D02*
Y2252400D01*
X969700Y2372900D02*
X837100D01*
X812100Y2397900D01*
X654700D01*
X574700Y2317900D01*
Y2290580D01*
X631520Y2452900D02*
X604370D01*
X515280Y2363810D01*
X536700Y2595900D02*
X509700D01*
X536700Y2595900D02*
Y2622900D01*
X536700Y2595900D02*
X607600Y2525000D01*
X897600D01*
X953100Y2469500D01*
X509700Y2622900D02*
X536700Y2595900D01*
X631520Y2452900D02*
X650610Y2471990D01*
X631520Y2452900D02*
X650610Y2433810D01*
X669700Y2452900D02*
X631520D01*
X488920Y2488680D02*
X488910Y2453800D01*
X488920Y2488680D02*
X509700Y2467900D01*
Y2447670D01*
X507920Y2445890D01*
X487920Y2489680D02*
X487910Y2452810D01*
X487920Y2489680D02*
X488920Y2488680D01*
X486920Y2490680D02*
X486910Y2451830D01*
X486920Y2490680D02*
X487920Y2489680D01*
X485920Y2491680D02*
Y2450840D01*
X485920Y2491680D02*
X486920Y2490680D01*
X484920Y2492680D02*
Y2449850D01*
X484920Y2492680D02*
X485920Y2491680D01*
X483920Y2493680D02*
Y2448860D01*
X483920Y2493680D02*
X484920Y2492680D01*
X482920Y2494680D02*
Y2447870D01*
X482920Y2494680D02*
X483920Y2493680D01*
X481920Y2495680D02*
Y2446880D01*
X481920Y2495680D02*
X482920Y2494680D01*
X480920Y2496680D02*
X507920Y2472890D01*
X480920Y2496680D02*
Y2445890D01*
X480920Y2496680D02*
X481920Y2495680D01*
X464700Y2512900D02*
X480920Y2496680D01*
X972600Y2540000D02*
X947600Y2565000D01*
X785000D01*
X709700Y2640300D01*
Y2797280D01*
X509700Y3027900D01*
X829700Y2777900D02*
X629700Y2977900D01*
Y3092900D01*
X509700Y3212900D01*
X831800Y2700000D02*
X931120Y2799320D01*
Y2881480D01*
X457200Y3355400D01*
Y3724150D01*
X510200Y3777150D01*
X591700Y3455900D02*
X564700D01*
X591700Y3455900D02*
Y3482900D01*
X591700Y3455900D02*
X564700Y3482900D01*
X939700Y3017900D02*
Y3107900D01*
X591700Y3455900D01*
X510200Y3396150D02*
Y3362400D01*
X957120Y2915480D01*
Y2785320D01*
X893200Y2721400D01*
Y2685600D01*
X827600Y2620000D01*
X510200Y3586650D02*
X658350D01*
X994700Y3250300D01*
Y2782900D01*
X934300Y2722500D01*
Y2657500D01*
X971800Y2620000D01*
X966800Y2700000D02*
X1027700Y2760900D01*
Y3277300D01*
X741930Y3563070D01*
Y3735920D01*
X510200Y3967650D01*
X3650100Y3169900D02*
X3627100Y3192900D01*
X3220420D01*
X3165420Y3247900D01*
X2694700D01*
X2611800Y3165000D01*
X2371800D01*
X2209700Y3002900D01*
X2108980D01*
X2013980Y3097900D01*
X1344700D01*
X1199700Y3242900D01*
X1117100D01*
X1012700Y3347300D01*
Y3507300D01*
X835000Y3685000D01*
Y4065100D01*
X559700Y4340400D01*
Y4550000D01*
X599700Y4590000D01*
Y4907900D01*
X675000Y4983200D01*
Y5407600D01*
X654700Y5427900D01*
Y5553720D01*
X2192950Y7491900D02*
Y7484200D01*
X2161650Y7452900D01*
X1419700D01*
X1329700Y7362900D01*
X1190090D01*
X944890Y7117700D01*
Y6863090D01*
X705700Y6623900D01*
Y4942620D01*
X729700Y4918620D01*
Y4848900D01*
X698700Y4817900D01*
X663980D01*
X634700Y4788620D01*
Y4517900D01*
X707200Y4445400D01*
X2069700Y3502900D02*
X2018600Y3554000D01*
X1193600D01*
X1109700Y3637900D01*
Y3847900D01*
X599700Y4357900D01*
Y4447900D01*
X605700Y5046080D02*
X624790Y5026990D01*
X605700Y5046080D02*
X586610Y5026990D01*
X605700Y5046080D02*
Y5062310D01*
X628960Y5085570D01*
X605700Y5007900D02*
Y5046080D01*
X616520Y5591900D02*
X635610Y5610990D01*
X616520Y5591900D02*
X635610Y5572810D01*
X616520Y5591900D02*
X654700D01*
X573700Y5591900D02*
X616520D01*
X738880Y1557900D02*
X719790Y1538810D01*
X738880Y1557900D02*
X719790Y1576990D01*
X738880Y1557900D02*
X792900D01*
X909700Y1674700D01*
Y1829700D01*
X932500Y1852500D01*
X982500D01*
X1055000Y1925000D01*
X1246800D01*
X1301800Y1980000D01*
X700700Y1557900D02*
X738880D01*
X709700Y1786080D02*
X728790Y1766990D01*
X709700Y1786080D02*
X690610Y1766990D01*
X709700Y1786080D02*
Y1747900D01*
X1296800Y2140000D02*
X1295000D01*
X1243520Y2191480D01*
X896480D01*
X784700Y2079700D01*
Y1967900D01*
X709700Y1892900D01*
Y1786080D01*
X704700Y2009080D02*
X719790Y1985990D01*
X704700Y2009080D02*
X681610Y1985990D01*
X704700Y2009080D02*
Y1970900D01*
X700700Y1966900D01*
X971800Y2300000D02*
X889290Y2217490D01*
X876240D01*
X876230Y2217480D01*
Y2216230D01*
X704700Y2044700D01*
Y2009080D01*
X954700Y1887900D02*
X964700D01*
X731700Y2320900D02*
X699700D01*
X731700Y2320900D02*
X726700Y2347900D01*
X731700Y2320900D02*
X779700Y2272900D01*
X854700D01*
X699700Y2347900D02*
X704700D01*
X731700Y2320900D01*
X727700Y2183900D02*
Y2156900D01*
X727700Y2183900D02*
X700700D01*
X727700Y2183900D02*
X700700Y2156900D01*
X826800Y2220000D02*
X763800D01*
X727700Y2183900D01*
X952700Y4149900D02*
X755700Y4346900D01*
Y4929390D01*
X732690Y4952400D01*
Y4973920D01*
X732700Y4973930D01*
Y6605900D01*
X979700Y6852900D01*
Y7114320D01*
X1174280Y7308900D01*
X1375700D01*
X1449700Y7382900D01*
X2016200D01*
X2097700Y7301400D01*
X1367700Y3719900D02*
X1164700Y3922900D01*
X1098980D01*
X942930Y4078950D01*
Y4079670D01*
X707200Y4315400D01*
Y4445400D01*
X844700Y4386080D02*
X863790Y4366990D01*
X844700Y4386080D02*
X825610Y4366990D01*
X844700Y4386080D02*
Y4407900D01*
X889700Y4452900D01*
X871700Y4320900D02*
X844700D01*
X871700Y4320900D02*
Y4347900D01*
X871700Y4320900D02*
X934700Y4257900D01*
X1454700D01*
X1588950Y4123650D01*
X1907200Y7301400D02*
X1912750D01*
X1870350Y7259000D01*
X1495080D01*
X1053980Y6817900D01*
X989700D01*
X758700Y6586900D01*
Y4963160D01*
X784700Y4937160D01*
Y4680300D01*
X889700Y4575300D01*
Y4452900D01*
X844700Y4347900D02*
X871700Y4320900D01*
X844700Y4347900D02*
Y4386080D01*
X834700Y4866080D02*
X853790Y4846990D01*
X834700Y4866080D02*
X815610Y4846990D01*
X834700Y4866080D02*
Y4827900D01*
X2288200Y7301400D02*
Y7296400D01*
X2126800Y7135000D01*
X1415000D01*
X1067900Y6787900D01*
X1004700D01*
X784700Y6567900D01*
Y4973930D01*
X834700Y4923930D01*
Y4866080D01*
X654700Y5553720D02*
X635610Y5572810D01*
X654700Y5553720D02*
X673790Y5572810D01*
X654700Y5553720D02*
Y5591900D01*
X1107700Y960900D02*
X1046750Y899950D01*
Y891100D01*
X1107700Y960900D02*
Y987900D01*
X1107700Y960900D02*
X1134700D01*
X1134700Y987900D02*
X1107700Y960900D01*
X930790Y2091810D02*
X903790Y2092030D01*
X930790Y2091810D02*
Y2119030D01*
X930790Y2091810D02*
X962600Y2060000D01*
X1307600D01*
X903790Y2119030D02*
Y2118810D01*
X930790Y2091810D01*
X4441520Y2542900D02*
X4412900D01*
X4388900Y2518900D01*
X4348210D01*
X4322210Y2492900D01*
X4158980D01*
X4058980Y2592900D01*
X3932900D01*
X3910510Y2570510D01*
Y2555720D01*
X3893190Y2538400D01*
X3889980D01*
X3888970Y2537390D01*
X3860300D01*
X3860290Y2537400D01*
X3852600D01*
X3839360Y2550640D01*
Y2570640D01*
X3817100Y2592900D01*
X3553960D01*
X3527960Y2566900D01*
X3311890D01*
X3303170Y2575620D01*
X3243250D01*
X3234530Y2566900D01*
X3100000D01*
X3081900Y2585000D01*
X2740000D01*
X2591900Y2436900D01*
X2498700D01*
X2426800Y2365000D01*
X2155000D01*
X2116100Y2403900D01*
X1593900D01*
X1562900Y2372900D01*
X969700D01*
X971800Y2300000D02*
X1001800Y2330000D01*
X1590000D01*
X1637900Y2377900D01*
X2082100D01*
X2125000Y2335000D01*
X2437800D01*
X2513700Y2410900D01*
X2616240D01*
X2675240Y2469900D01*
X2836700D01*
X2904700Y2537900D01*
X3242310D01*
X3254030Y2549620D01*
X3292400D01*
X3349120Y2492900D01*
X3842100D01*
X3867600Y2467400D01*
X3927400D01*
X3952900Y2492900D01*
X4115130D01*
X4141130Y2466900D01*
X4293930D01*
X4293940Y2466890D01*
X4332970D01*
X4358980Y2492900D01*
X4529700D01*
X4552700Y2515900D01*
X953100Y2469500D02*
X962600Y2460000D01*
X966800D01*
X953100Y2469500D02*
X957300Y2460000D01*
X953100Y2469500D02*
X966800D01*
X1202880Y2892900D02*
X1164700D01*
X1191710Y3150900D02*
X1164700D01*
X1164700Y3177900D02*
X1164710D01*
X1191710Y3150900D01*
X1049950Y3803150D02*
Y3355050D01*
X1130000Y3275000D01*
X1252600D01*
X1347700Y3179900D01*
X1177880Y3349900D02*
X1158790Y3330810D01*
X1177880Y3349900D02*
X1158790Y3368990D01*
X1139700Y3349900D02*
X1177880D01*
X954700Y4147900D02*
X990950D01*
X954700Y4147900D02*
X953700Y4148900D01*
X991940D01*
X953700Y4148900D02*
X952700Y4149900D01*
X992930D01*
X952700Y4149900D02*
X965930Y4122900D01*
X1031110Y4122900D02*
X1012020Y4103810D01*
X1031110Y4122900D02*
X1012020Y4141990D01*
X1031110Y4122900D02*
X992930D01*
X978980Y4136840D01*
X965760D01*
X954700Y4147900D01*
X1164700Y4122900D02*
X1031110D01*
X1092880Y4207900D02*
X1073790Y4188810D01*
X1092880Y4207900D02*
X1073790Y4226990D01*
X1092880Y4207900D02*
X1054700D01*
X1164700Y4207900D02*
X1092880D01*
X1097880Y4032900D02*
X1078790Y4013810D01*
X1097880Y4032900D02*
X1078790Y4051990D01*
X1097880Y4032900D02*
X1059700D01*
X1184700Y4032900D02*
X1097880D01*
X969700Y4386080D02*
X988790Y4366990D01*
X969700Y4386080D02*
X950610Y4366990D01*
X969700Y4386080D02*
Y4617900D01*
X939700Y4647900D01*
X969700Y4347900D02*
Y4386080D01*
X979700Y6634720D02*
X960610Y6653810D01*
X979700Y6634720D02*
X998790Y6653810D01*
X979700Y6634720D02*
Y6672900D01*
X979700Y6592900D02*
Y6634720D01*
X1164700Y6672900D02*
X1165000D01*
X1192000Y6699900D01*
X1164700D01*
X1312770Y706650D02*
X1331860Y725740D01*
X1312770Y706650D02*
X1331860Y687560D01*
X1312770Y706650D02*
X1350950D01*
X1239700Y852900D02*
Y755300D01*
X1288350Y706650D01*
X1312770D01*
X1387880Y1902900D02*
X1368790Y1883810D01*
X1387880Y1902900D02*
X1368790Y1921990D01*
X1387880Y1902900D02*
X1349700D01*
X3339700Y1942900D02*
X2804700D01*
X2749700Y1997900D01*
X2664700D01*
X2629700Y1962900D01*
X1954700D01*
X1896200Y1904400D01*
X1626920D01*
X1595420Y1872900D01*
X1529700D01*
X1499700Y1902900D01*
X1387880D01*
X1301800Y1980000D02*
X1599700Y2277900D01*
X2300000D01*
X2317900Y2260000D01*
X2555000D01*
X2615000Y2320000D01*
Y2365690D01*
X2689310Y2440000D01*
X3102600D01*
X3157600Y2385000D01*
X3617600D01*
X3709700Y2292900D01*
X3807900D01*
X3870000Y2355000D01*
X3990000D01*
X4052280Y2292720D01*
X4095580D01*
X4095760Y2292900D01*
X4429700D01*
X4452700Y2315900D01*
X1191710Y3150900D02*
X1267230Y3075370D01*
Y2959270D01*
X1289700Y2936800D01*
X1555800D01*
X1202880Y2892900D02*
X1183790Y2873810D01*
X1202880Y2892900D02*
X1183790Y2911990D01*
X5277700Y2737300D02*
X5220000Y2795000D01*
X5115000D01*
X5080000Y2760000D01*
X4925000D01*
X4860000Y2825000D01*
X4760000D01*
X4727900Y2792900D01*
X4442900D01*
X4398400Y2748400D01*
X4158610D01*
X4158460Y2748250D01*
X4125830D01*
X4105050Y2769030D01*
Y2769950D01*
X4095920Y2779080D01*
X4051680D01*
X4030000Y2757400D01*
X3350350D01*
X3320850Y2727900D01*
X3129700D01*
X3109700Y2707900D01*
X2592100D01*
X2407100Y2892900D01*
X1202880D01*
X1412880Y3152900D02*
X1393790Y3133810D01*
X1412880Y3152900D02*
X1393790Y3171990D01*
X1412880Y3152900D02*
X2203980D01*
X2266480Y3215400D01*
X2602200D01*
X2624700Y3237900D01*
X1347700Y3179900D02*
X1374700D01*
X1347700Y3179900D02*
Y3152900D01*
X1347700Y3179900D02*
X1374700Y3152900D01*
X1412880D01*
X1191710Y3150900D02*
X1191700Y3177900D01*
X1177880Y3349900D02*
X1300100D01*
X1457100Y3192900D01*
X2139700D01*
X2201800Y3255000D01*
X2551950D01*
X2569840Y3272860D01*
X2589890Y3292900D01*
X3257100D01*
X3290000Y3260000D01*
X3400000D01*
X3432900Y3292900D01*
X3612100D01*
X3712100Y3192900D01*
X4200420D01*
X4326410Y3066900D01*
X4383100D01*
X4457100Y2992900D01*
X4629700D01*
X4652700Y2969900D01*
X1267880Y3414930D02*
X1248790Y3395840D01*
X1267880Y3414930D02*
X1248790Y3434020D01*
X1267880Y3414930D02*
X1229700D01*
X1267880Y3414930D02*
X1320000D01*
X1349930Y3385000D01*
X1647600D01*
X1677600Y3415000D01*
X1976820D01*
X2061820Y3330000D01*
X2340000D01*
X2412900Y3402900D01*
X3102500D01*
X3135400Y3370000D01*
X3260000D01*
X3295000Y3405000D01*
X3600000D01*
X3629700Y3375300D01*
Y3322180D01*
X3658980Y3292900D01*
X4153240D01*
X4353240Y3092900D01*
X4629700D01*
X4652700Y3069900D01*
X1394700Y3692900D02*
X1367700Y3719900D01*
Y3692900D01*
X1367700Y3719900D02*
X1394700D01*
X1297700Y4805900D02*
Y4832900D01*
X1297700Y4805900D02*
X1324700D01*
X1297700Y4805900D02*
X1234700Y4742900D01*
X1324700Y4832900D02*
X1297700Y4805900D01*
X1192000Y6699900D02*
X1191700Y6672900D01*
X1192000Y6699900D02*
Y6685000D01*
X1191870Y6672900D01*
X1191700D01*
X1192000Y6699900D02*
X1227000D01*
X1235000Y6707900D01*
X1264700D01*
X1570200Y877400D02*
X1579700Y872400D01*
X1570200Y877400D02*
Y862900D01*
X1570200Y877400D02*
X1536450Y911150D01*
X1533450Y914150D02*
X1497400Y914140D01*
X1533450Y914150D02*
X1509450Y938150D01*
X1494450D01*
X1534450Y913150D02*
X1496420D01*
X1534450Y913150D02*
X1533450Y914150D01*
X1535450Y912150D02*
X1495440D01*
X1535450Y912150D02*
X1534450Y913150D01*
X1536450Y911150D02*
X1494450D01*
X1536450Y911150D02*
X1521450Y938150D01*
X1536450Y911150D02*
X1535450Y912150D01*
X1579700Y862900D02*
Y867900D01*
X1570200Y877400D01*
X1649700Y971080D02*
X1668790Y951990D01*
X1649700Y971080D02*
X1630610Y951990D01*
X1649700Y971080D02*
Y1012900D01*
X1649700Y932900D02*
Y971080D01*
X1611700Y1789900D02*
Y1762900D01*
X1611700Y1789900D02*
X1584700D01*
X1611700Y1789900D02*
X1584700Y1762900D01*
X1619700Y1837900D02*
Y1797900D01*
X1611700Y1789900D01*
X4897450Y1591150D02*
X4856300Y1550000D01*
X4275000D01*
X4144600Y1680400D01*
X2968970D01*
X2933570Y1645000D01*
X2735830D01*
X2675830Y1705000D01*
X2312600D01*
X2239700Y1777900D01*
X2094700D01*
X2054700Y1737900D01*
X1784700D01*
X1759700Y1712900D01*
X1519700D01*
X1491700Y1740900D01*
X1464700Y1767900D01*
X1491700Y1740900D02*
Y1767900D01*
X1491700Y1740900D02*
X1464700D01*
X1506700Y2045900D02*
X1479700D01*
X1506700Y2045900D02*
Y2072900D01*
X1506700Y2045900D02*
X1479700Y2072900D01*
X4679700Y2204720D02*
Y2191900D01*
X4643800Y2156000D01*
X4599340D01*
X4599330Y2156010D01*
X4571010D01*
X4507900Y2092900D01*
X4358980D01*
X4320980Y2130900D01*
X4018280D01*
X3976280Y2172900D01*
X3312900D01*
X3192900Y2052900D01*
X2959700D01*
X2839700Y2172900D01*
X2774700D01*
X2739700Y2137900D01*
Y2137180D01*
X2710420Y2107900D01*
X2709700D01*
X2704700Y2102900D01*
X2257900D01*
X2167900Y2012900D01*
X1539700D01*
X1506700Y2045900D01*
X1516700Y2449900D02*
Y2422900D01*
X1516700Y2449900D02*
X1489700D01*
X1516700Y2449900D02*
X1489700Y2422900D01*
X1583800Y2480000D02*
X1582650Y2481150D01*
X1547950D01*
X1516700Y2449900D01*
X1484700Y3721080D02*
X1503790Y3701990D01*
X1484700Y3721080D02*
X1465610Y3701990D01*
X1484700Y3721080D02*
Y3822900D01*
X1459700Y3847900D01*
X1484700Y3682900D02*
Y3721080D01*
X1761520Y3682900D02*
X1639700D01*
X1537880Y4357900D02*
X1513790Y4333810D01*
X1537880Y4357900D02*
X1513790Y4371990D01*
X1537880Y4357900D02*
X1499700D01*
X1494700Y4352900D01*
X1669700Y4332900D02*
X1624700D01*
X1599700Y4357900D01*
X1537880D01*
X1741520Y4697900D02*
X1664700D01*
X1629700Y4732900D01*
X1646450Y6287900D02*
Y6491450D01*
X1737900Y6582900D01*
X1907100D01*
X1946800Y6543200D01*
X2486520D01*
X1557950Y6572970D02*
X1538860Y6592060D01*
X1557950Y6572970D02*
X1577040Y6592060D01*
X1557950Y6572970D02*
Y6611150D01*
X1557950Y6532900D02*
Y6572970D01*
X1716700Y6809080D02*
X1697610Y6789990D01*
X4879700Y2104720D02*
Y2093410D01*
X4826290Y2040000D01*
X4571580D01*
X4494480Y1962900D01*
X4340650D01*
X4305650Y1997900D01*
X3584700D01*
X3456700Y1869900D01*
X2869900D01*
X2750000Y1750000D01*
X2340000D01*
X2217100Y1872900D01*
X1909840D01*
X1886940Y1850000D01*
Y1847900D01*
X1859700D01*
X1856050Y1851550D01*
X1845110D01*
X1886940Y1847900D02*
X1864200Y1870640D01*
X1886940Y1847900D02*
X1864200Y1832460D01*
X2401460Y2740000D02*
X2270000D01*
X2130000Y2600000D01*
X1845000D01*
X1753140Y3292900D02*
X1736420Y3276180D01*
X1753140Y3292900D02*
X2546030D01*
X2585540Y3332400D01*
X2603040Y3349900D01*
X2776520D01*
X1729700Y3282900D02*
X1739700Y3292900D01*
X1753140D01*
X2461520Y3462900D02*
X2402900D01*
X2302900Y3362900D01*
X2099700D01*
X1989700Y3472900D01*
X1802880D01*
X1783790Y3453810D01*
X1802880Y3472900D02*
X1783790Y3491990D01*
X1802880Y3472900D02*
X1764700D01*
X1764340Y3682900D02*
X1790610Y3656610D01*
X1764340Y3682900D02*
X1762930D01*
X1790610Y3655210D01*
X1762930Y3682900D02*
X1761520D01*
X1790610Y3691990D01*
X1761520Y3682900D02*
X1790610Y3653810D01*
X1809700Y3672900D02*
X1799700Y3682900D01*
X1764340D01*
X1789700Y3806080D02*
X1808790Y3786990D01*
X1789700Y3806080D02*
X1770610Y3786990D01*
X1789700Y3806080D02*
Y3833710D01*
X1777230Y3846180D01*
X1789700Y3833710D02*
X1790670Y3846180D01*
X1789700Y3833710D02*
Y3847150D01*
X1783950Y3852900D01*
X1789700Y3767900D02*
Y3806080D01*
X1741520Y4697900D02*
X1760610Y4716990D01*
X1741520Y4697900D02*
X1760610Y4678810D01*
X1779700Y4697900D02*
X1741520D01*
X1749700Y5629720D02*
Y5577900D01*
X1800400Y5527200D01*
X2613520D01*
X2497700Y5809900D02*
X2464700Y5842900D01*
X2083600D01*
X1846650Y5605950D01*
X1749700Y5629720D02*
X1732270Y5650470D01*
X1749700Y5629720D02*
X1770450Y5650470D01*
X1751360Y5669560D02*
X1749700Y5667900D01*
Y5629720D01*
X1896700Y6219900D02*
Y6192900D01*
X1896700Y6219900D02*
X1869700D01*
X1896700Y6219900D02*
X1906700D01*
X1929700Y6242900D01*
X1869700Y6192900D02*
X1896700Y6219900D01*
X1936520Y6317900D02*
X1955610Y6336990D01*
X1936520Y6317900D02*
X1955610Y6298810D01*
X1936520Y6317900D02*
X1974700D01*
X1874700Y6317900D02*
X1936520D01*
X1881600Y6513400D02*
X1869700D01*
X1881600Y6513400D02*
X1879200Y6522900D01*
X1881600Y6513400D02*
X1940000Y6455000D01*
X2690000D01*
X2905200Y6670200D01*
X2994520D01*
X1869700Y6522900D02*
X1872100D01*
X1881600Y6513400D01*
X1716700Y6809080D02*
X1735790Y6789990D01*
X1716700Y6809080D02*
Y6770900D01*
X1716700Y6852900D02*
Y6809080D01*
X2624700Y6572900D02*
X2589700Y6607900D01*
X2244700D01*
X1990450Y6862150D01*
X1875450D01*
X1814700Y8217900D02*
X1841700Y8244900D01*
X1870800Y8274000D01*
X2410800D01*
X2480800Y8344000D01*
X3168600D01*
X3234700Y8277900D01*
X1841700Y8244900D02*
X1814700D01*
X1841700Y8244900D02*
Y8217900D01*
X2992700Y1304900D02*
X2656700Y1640900D01*
X2313160D01*
X2215260Y1738800D01*
X2164700D01*
X2062880Y2107900D02*
X2043790Y2088810D01*
X2062880Y2107900D02*
X2043790Y2126990D01*
X2062880Y2107900D02*
X2209700D01*
X2301800Y2200000D01*
X2575000D01*
X2620000Y2245000D01*
X2876880D01*
X2945140Y2176740D01*
X3090000D01*
X3118260Y2205000D01*
X3901800D01*
X3907700Y2210900D01*
X2024700Y2107900D02*
X2062880D01*
X2141700Y2170900D02*
X2114700Y2180900D01*
X2141700Y2170900D02*
Y2207900D01*
X2141700Y2170900D02*
X2149700Y2162900D01*
X2154700D01*
X2169700Y2147900D01*
X2114700Y2207900D02*
Y2197900D01*
X2141700Y2170900D01*
X2245000Y2230000D02*
X2224600Y2229990D01*
X2219700Y2207900D02*
X2222900D01*
X2245000Y2230000D01*
X2148980Y2541800D02*
X2129890Y2522710D01*
X2148980Y2541800D02*
X2129890Y2560890D01*
X2148980Y2541800D02*
X2110800D01*
X2189700Y2541800D02*
X2148980D01*
X2178980Y2936800D02*
X2153790Y2923810D01*
X2178980Y2936800D02*
X2153790Y2961990D01*
X2178980Y2936800D02*
X2140800D01*
X2134700Y2942900D01*
X2224700Y2936800D02*
X2178980D01*
X2217700Y3439900D02*
X2244700D01*
X2217700Y3439900D02*
Y3412900D01*
X2217700Y3439900D02*
X2154700Y3502900D01*
X2069700D01*
X2244700Y3412900D02*
X2217700Y3439900D01*
X2214700Y3622900D02*
X2226760Y3610840D01*
X2259290D01*
X2264940Y3610840D02*
X2233790Y3641990D01*
X2263530Y3610840D02*
X2233780Y3640580D01*
X2262120Y3610840D02*
X2233770Y3639170D01*
X2260710Y3610840D02*
X2233760Y3637760D01*
X2259290Y3610840D02*
X2233750Y3636350D01*
X2154700Y4276080D02*
X2173790Y4256990D01*
X2154700Y4276080D02*
X2135610Y4256990D01*
X2154700Y4237900D02*
Y4276080D01*
X2995100Y4319900D02*
X2969600Y4345400D01*
X2510400D01*
X2360000Y4195000D01*
Y4150000D01*
X2325000Y4115000D01*
X2235000D01*
X2175400Y4174600D01*
X2014580D01*
X1976400D01*
X1974700Y4172900D01*
X2014580Y4174600D02*
X1993790Y4191990D01*
X2014580Y4174600D02*
X1993790Y4153810D01*
X2154700Y4276080D02*
Y4299460D01*
X2152980Y4311180D01*
X2154700Y4299460D02*
X2166420Y4311180D01*
X2154700Y4299460D02*
Y4312900D01*
X2159700Y4317900D01*
X2191700Y5091700D02*
Y5057900D01*
X2164700Y5057900D02*
Y5064700D01*
X2191700Y5091700D01*
X2164700Y5084900D01*
X2191700Y5091700D02*
X2247900Y5147900D01*
X2249700D01*
X2106520Y5387900D02*
X2125610Y5406990D01*
X2106520Y5387900D02*
X2125610Y5368810D01*
X2106520Y5387900D02*
X2144700D01*
X2064700Y5387900D02*
X2106520D01*
X2082700Y5575900D02*
Y5602900D01*
X2082700Y5575900D02*
X2109700D01*
X2082700Y5575900D02*
X2074700Y5567900D01*
X2029700D01*
X2109700Y5602900D02*
X2082700Y5575900D01*
X2087500Y6838400D02*
X2074700D01*
X2087500Y6838400D02*
X2084200Y6847900D01*
X2087500Y6838400D02*
X2179700Y6746200D01*
X2433170D01*
X2482170Y6697200D01*
X2074700Y6847900D02*
X2078000D01*
X2087500Y6838400D01*
X2740200Y6770200D02*
X2716200Y6746200D01*
X2631400D01*
X2600700Y6776900D01*
Y6906900D01*
X2514700Y6992900D01*
Y7347900D01*
X2214700Y7647900D01*
X2169690D01*
X2129450Y7688150D01*
X2204700Y7763400D01*
Y8165950D01*
X2242750Y8204000D01*
X2403630D01*
X2433730Y8173900D01*
X3252650D01*
X3332750Y8254000D01*
Y8300050D01*
X3381700Y8349000D01*
X3527750D01*
X3598850Y8277900D01*
X3599700D01*
X3054700Y8277900D02*
X2990800Y8214000D01*
X2467750D01*
X2442750Y8239000D01*
X2130800D01*
X2083770Y8191970D01*
Y7956970D01*
X2069700Y7942900D01*
Y7782900D01*
X1970700Y7683900D01*
X2044200Y7610400D01*
X2182200D01*
X2343700Y7448900D01*
Y7261390D01*
X2296200Y7213890D01*
Y7093900D01*
X2310000Y7080100D01*
Y6982600D01*
X2404700Y6887900D01*
X2529700D01*
X2574700Y6842900D01*
Y6766130D01*
X2620630Y6720200D01*
X2719800D01*
X2742800Y6697200D01*
X2519700Y1166080D02*
X2500610Y1146990D01*
X2245000Y2230000D02*
X2242840Y2211760D01*
X2245000Y2230000D02*
X2561770D01*
X2645000Y2313230D01*
Y2358920D01*
X2693980Y2407900D01*
X3090850D01*
X3143750Y2355000D01*
X3583600D01*
X3671700Y2266900D01*
X3837650D01*
X3895750Y2325000D01*
X3980000D01*
X4040100Y2264900D01*
X2456700Y2604900D02*
Y2577900D01*
X2456700Y2604900D02*
X2429700D01*
X2456700Y2604900D02*
X2429700Y2577900D01*
X2470200Y2618400D02*
Y2637900D01*
X2470200Y2618400D02*
X2456700Y2604900D01*
X2479700Y2637900D02*
Y2627900D01*
X2470200Y2618400D01*
X4650900Y2615900D02*
X4627900Y2592900D01*
X4458980D01*
X4429700Y2622180D01*
Y2663620D01*
X4400420Y2692900D01*
X4358980D01*
X4329700Y2663620D01*
Y2619700D01*
X4303050Y2593050D01*
X4101950D01*
X4002100Y2692900D01*
X3610110D01*
X3510110Y2592900D01*
X3322660D01*
X3313940Y2601620D01*
X3232480D01*
X3223760Y2592900D01*
X3132100D01*
X3110000Y2615000D01*
X2729220D01*
X2582120Y2467900D01*
X2477880D01*
X2458790Y2448810D01*
X2477880Y2467900D02*
X2458790Y2486990D01*
X2477880Y2467900D02*
X2439700D01*
X4652700Y2715900D02*
X4629700Y2692900D01*
X4437190D01*
X4411190Y2718900D01*
X4258900D01*
X4208400Y2668400D01*
X4114120D01*
X4110720Y2665000D01*
X4110660D01*
X4109870Y2664210D01*
X4068430D01*
X4064740Y2667900D01*
X4064270D01*
X4008270Y2723900D01*
X3360700D01*
X3329700Y2692900D01*
X3138550D01*
X3122550Y2676900D01*
X2418700D01*
X2347200Y2605400D01*
X2346930Y2578400D01*
X2347200Y2605400D02*
X2319930D01*
X2347200Y2605400D02*
X2319700Y2577900D01*
Y2579140D01*
X2319930Y2578910D01*
Y2578400D01*
X2401460Y2740000D02*
X2420550Y2759090D01*
X2401460Y2740000D02*
X2420550Y2720910D01*
X2439640Y2740000D02*
X2401460D01*
X2364700Y2931800D02*
X2410420D01*
X2448600D01*
X2410420Y2931800D02*
X2429510Y2912710D01*
X2410420Y2931800D02*
X2429510Y2950890D01*
X2461520Y3462900D02*
X2480610Y3481990D01*
X2461520Y3462900D02*
X2480610Y3443810D01*
X2499700Y3462900D02*
X2461520D01*
X2487880Y3667900D02*
X2463790Y3653810D01*
X2487880Y3667900D02*
X2463790Y3691990D01*
X2487880Y3667900D02*
X2449700D01*
X2444700Y3672900D01*
X2506260Y3667900D02*
X2487880D01*
X2264940Y3610840D02*
X2291760D01*
X2354700Y3547900D01*
X2264940Y3610840D02*
X2233790Y3603810D01*
X2263530Y3610840D02*
X2264940D01*
X2262120Y3610840D02*
X2263530D01*
X2260710Y3610840D02*
X2262120D01*
X2259290Y3610840D02*
X2260710D01*
X2388200Y3994650D02*
X2415200D01*
X2388200Y3994650D02*
Y3967650D01*
X2388200Y3994650D02*
X2415200Y3967650D01*
X2399700Y4152900D02*
X2369700Y4122900D01*
Y4013150D01*
X2388200Y3994650D01*
X2399700Y4152900D02*
X2481800Y4235000D01*
X2935000D01*
X2975000Y4195000D01*
X3195000D01*
X3325000Y4065000D01*
X3685000D01*
X3894100Y3855900D01*
X3967220D01*
X4237700Y3585420D01*
Y3414180D01*
X4358980Y3292900D01*
X4429700D01*
X4452700Y3269900D01*
X2454700Y4572900D02*
Y4949200D01*
X2497700Y4992200D01*
X2370700Y4738200D02*
Y4765200D01*
X2370700Y4738200D02*
X2397700D01*
X2370700Y4738200D02*
X2397700Y4765200D01*
X2354700Y4572900D02*
Y4722200D01*
X2370700Y4738200D01*
X2497700Y4992200D02*
Y5019200D01*
X2497700Y4992200D02*
X2524700D01*
X2497700Y4992200D02*
X2524700Y5019200D01*
X2497700Y5809900D02*
X2524700Y5808200D01*
X2497700Y5809900D02*
Y5781200D01*
X2524700Y5781200D02*
Y5782900D01*
X2497700Y5809900D01*
X2482170Y6697200D02*
X2497700Y6670200D01*
X2486520Y6543200D02*
X2505610Y6562290D01*
X2486520Y6543200D02*
X2505610Y6524110D01*
X2486520Y6543200D02*
X2524700D01*
X2372700Y6824900D02*
X2399700D01*
X2372700Y6824900D02*
Y6797900D01*
X2372700Y6824900D02*
X2399700Y6797900D01*
X2269700Y7012900D02*
Y6862180D01*
X2298980Y6832900D01*
X2364700D01*
X2372700Y6824900D01*
X2485170Y6694200D02*
X2521720Y6694190D01*
X2485170Y6694200D02*
X2509170Y6670200D01*
X2524700D01*
X2484170Y6695200D02*
X2522710D01*
X2484170Y6695200D02*
X2485170Y6694200D01*
X2483170Y6696200D02*
X2523710D01*
X2483170Y6696200D02*
X2484170Y6695200D01*
X2482170Y6697200D02*
X2524700D01*
X2482170Y6697200D02*
X2483170Y6696200D01*
X2402880Y7012900D02*
X2383790Y6993810D01*
X2402880Y7012900D02*
X2383790Y7031990D01*
X2402880Y7012900D02*
X2439700D01*
X2364700Y7012900D02*
X2402880D01*
X2678700Y6826730D02*
X2706970Y6855000D01*
Y7510630D01*
X2594700Y7622900D01*
X2354700D01*
X2288200Y7689400D01*
X3414700Y8277900D02*
X3280800Y8144000D01*
X2422750D01*
X2392750Y8114000D01*
Y8020950D01*
X2344700Y7972900D01*
Y7745900D01*
X2288200Y7689400D01*
X2672700Y740900D02*
Y767900D01*
X2672700Y740900D02*
X2699700D01*
X2672700Y740900D02*
X2699700Y767900D01*
X2604700Y732900D02*
X2664700D01*
X2672700Y740900D01*
X2576520Y867900D02*
X2595610Y886990D01*
X2576520Y867900D02*
X2595610Y848810D01*
X2576520Y867900D02*
X2574700D01*
X2561700Y880900D01*
X2552200Y890400D01*
X2542200D01*
X2561700Y880900D02*
X2542200D01*
X2614700Y867900D02*
X2576520D01*
X2726520Y862900D02*
X2745610Y881990D01*
X2726520Y862900D02*
X2745610Y843810D01*
X2726520Y862900D02*
X2709700D01*
X2679700Y892900D01*
X2764700Y862900D02*
X2726520D01*
X2519700Y1166080D02*
X2538790Y1146990D01*
X2519700Y1166080D02*
Y1187900D01*
X2542200Y1210400D01*
X2519700Y1127900D02*
Y1166080D01*
X2599700Y1252900D02*
X2814700D01*
X2859700Y1207900D01*
X2574700Y2151550D02*
X2633150Y2210000D01*
X2852600D01*
X2959700Y2102900D01*
X2981520D01*
X2741700Y2330900D02*
X2714700D01*
X2741700Y2330900D02*
Y2357900D01*
X2741700Y2330900D02*
X2782600Y2290000D01*
X3012900D01*
X3065000Y2237900D01*
X3847900D01*
X3905000Y2295000D01*
X3965000D01*
X4010000Y2250000D01*
Y2225000D01*
X4047100Y2187900D01*
X4119700D01*
X4147700Y2215900D01*
X2714700Y2357900D02*
X2741700Y2330900D01*
X4445000Y2835000D02*
X4402900Y2792900D01*
X4258980D01*
X4229700Y2822180D01*
Y2863620D01*
X4200420Y2892900D01*
X4179920D01*
X4179420Y2892400D01*
X4100920D01*
X4100420Y2892900D01*
X4058980D01*
X4058480Y2892400D01*
X4027400D01*
X3962900Y2827900D01*
X3624700D01*
X3559700Y2892900D01*
X2899700D01*
X2849700Y2842900D01*
X2722880D01*
X2720060Y2842900D02*
X2693770Y2816610D01*
X2720060Y2842900D02*
X2684700D01*
X2674700Y2832900D01*
X2721470Y2842900D02*
X2693780Y2815210D01*
X2721470Y2842900D02*
X2720060D01*
X2722880Y2842900D02*
X2693790Y2813810D01*
X2722880Y2842900D02*
X2693790Y2851990D01*
X2722880Y2842900D02*
X2721470D01*
X4652700Y2869900D02*
X4629700Y2892900D01*
X4350440D01*
X4253340Y2990000D01*
X4155000D01*
X4052100Y3092900D01*
X3904670D01*
X3890170Y3078400D01*
X3889980D01*
X3875780Y3064200D01*
X3406700D01*
X3373000Y3097900D01*
X2674700D01*
X2566700Y2989900D01*
Y2962900D01*
X2566700Y2989900D02*
X2539700D01*
X2566700Y2989900D02*
X2539700Y2962900D01*
X2742880Y2963900D02*
X2723790Y2944810D01*
X2742880Y2963900D02*
X2723790Y2982990D01*
X2742880Y2963900D02*
X3126850D01*
X3155850Y2992900D01*
X4110640D01*
X4122140Y2981400D01*
X4122350D01*
X4140350Y2963400D01*
X4242430D01*
X4313930Y2891900D01*
X4314670D01*
X4339670Y2866900D01*
X4355700D01*
X2704700Y2963900D02*
X2742880D01*
X2740880Y3479900D02*
X2721790Y3460810D01*
X2506260Y3667900D02*
X2519700D01*
X2529700Y3677900D01*
X2506260Y3667900D02*
X2522980Y3684620D01*
X2740880Y3479900D02*
X2721790Y3498990D01*
X2740880Y3479900D02*
X2766700D01*
X2794700Y3507900D01*
X2702700Y3479900D02*
X2740880D01*
X2605700Y3929470D02*
Y3734300D01*
X2785000Y3555000D01*
X3165000D01*
X3270000Y3450000D01*
X3625000D01*
X3679700Y3395300D01*
Y3381080D01*
X3150000Y4145000D02*
X3055000Y4050000D01*
X2765000D01*
X2715000Y4000000D01*
Y3885000D01*
X2785000Y3815000D01*
X2975100D01*
X3020100Y3860000D01*
X3125000D01*
X3265000Y3720000D01*
X3460000D01*
X3550000Y3630000D01*
X3675000D01*
X3720000Y3585000D01*
Y3500000D01*
X3752700Y3467300D01*
X3075000Y4145000D02*
X3020000Y4090000D01*
X2740000D01*
X2670000Y4020000D01*
Y3860000D01*
X2795000Y3735000D01*
X2860000D01*
X2985000Y3610000D01*
X3215000D01*
X3330000Y3495000D01*
X3645000D01*
X3760000Y3380000D01*
X3816800D01*
X3852700Y3415900D01*
X2605700Y3929470D02*
X2586610Y3948560D01*
X2605700Y3929470D02*
X2624790Y3948560D01*
X2605700Y3967650D02*
Y3929470D01*
X2524700Y4595130D02*
X2534840Y4584990D01*
X2524700Y4595130D02*
X2521400Y4584990D01*
X2524700Y4595130D02*
Y4727020D01*
Y4765200D01*
X2524700Y4727020D02*
X2543790Y4746110D01*
X2524700Y4727020D02*
X2505610Y4746110D01*
X2528120Y4578270D02*
X2524700D01*
Y4595130D01*
X2613520Y5527200D02*
X2651700D01*
X2613520Y5527200D02*
X2632610Y5508110D01*
X2613520Y5527200D02*
X2632610Y5546290D01*
X2624700Y6572900D02*
X2651700Y6570200D01*
X2624700Y6572900D02*
Y6543200D01*
X2651700Y6543200D02*
Y6545900D01*
X2624700Y6572900D01*
X2742800Y6697200D02*
X2751700Y6670200D01*
X2656970Y6943510D02*
X2649700Y6950780D01*
Y6977900D01*
X2741200Y6771200D02*
X2777710D01*
X2741200Y6771200D02*
X2740200Y6770200D01*
X2751700Y6797200D01*
X2740200Y6770200D02*
X2778700D01*
X2778700Y6797200D02*
X2767200D01*
X2741200Y6771200D01*
X2678700Y6826730D02*
Y6797200D01*
X2678700Y6826730D02*
X2651700Y6824200D01*
X2651700Y6797200D02*
Y6799730D01*
X2678700Y6826730D01*
X2742800Y6697200D02*
X2778700D01*
X2742800Y6697200D02*
X2769800Y6670200D01*
X2778700D01*
X2764200Y7003400D02*
X2759200Y7012900D01*
X2764200Y7003400D02*
X2797700Y6969900D01*
X2759700Y7007900D02*
X2764200Y7003400D01*
X2759700Y7007900D02*
X2757600Y7010000D01*
X2749700D01*
X2759700Y7007900D02*
X2749700D01*
Y7010000D01*
Y7012900D01*
X2649700Y6977900D02*
X2665000Y6962600D01*
X2649700Y6977900D02*
X2642840Y6962600D01*
X2649700Y6977900D02*
X2614700Y7012900D01*
X2589700D01*
X2554080Y8081700D02*
X2534990Y8062610D01*
X2554080Y8081700D02*
X2534990Y8100790D01*
X2554080Y8081700D02*
X2515900D01*
X2609700Y8081700D02*
X2554080D01*
X2886700Y730900D02*
X2859700D01*
X2886700Y730900D02*
Y757900D01*
X2886700Y730900D02*
X2904700Y712900D01*
X2984700D01*
X2859700Y757900D02*
X2886700Y730900D01*
X2886520Y857900D02*
X2905610Y876990D01*
X2886520Y857900D02*
X2905610Y838810D01*
X2886520Y857900D02*
X2869700D01*
X2839700Y887900D01*
X2924700Y857900D02*
X2886520D01*
X2992700Y1304900D02*
X3019700D01*
X2992700Y1304900D02*
Y1277900D01*
X3019700Y1239720D02*
X3000610Y1258810D01*
X3019700Y1239720D02*
X3038790Y1258810D01*
X3019700Y1239720D02*
Y1277900D01*
X3020200Y1232400D02*
Y1207900D01*
X3020200Y1232400D02*
X3019700Y1232900D01*
Y1239720D01*
X3029700Y1207900D02*
Y1222900D01*
X3020200Y1232400D01*
X3019700Y1277900D02*
X2992700Y1304900D01*
X2981520Y2102900D02*
X3000610Y2121990D01*
X2981520Y2102900D02*
X3000610Y2083810D01*
X2981520Y2102900D02*
X3019700D01*
X2830200Y2092400D02*
X2799700D01*
X2830200Y2092400D02*
X2826700Y2119400D01*
X2830200Y2092400D02*
X2803200Y2119400D01*
X2799700D01*
X3926520Y2107900D02*
X3557900D01*
X3515000Y2065000D01*
X3435000D01*
X3400000Y2100000D01*
X3315830D01*
X3242730Y2026900D01*
X2895700D01*
X2830200Y2092400D01*
X2860060Y2747900D02*
X2833770Y2774170D01*
X2860060Y2747900D02*
X2861470D01*
X2833780Y2775580D01*
X2861470Y2747900D02*
X2862880D01*
X2833790Y2738810D01*
X2862880Y2747900D02*
X2833790Y2776990D01*
X2862880Y2747900D02*
X3078700D01*
X3099200Y2768400D01*
X2814700Y2757900D02*
X2824700Y2747900D01*
X2860060D01*
X2931260Y3197900D02*
X2947980Y3214620D01*
X2931260Y3197900D02*
X2944700D01*
X2954700Y3207900D01*
X2814700Y3197900D02*
X2931260D01*
X2994700Y3047900D02*
X3036520D01*
X2776520Y3349900D02*
X2795610Y3368990D01*
X2776520Y3349900D02*
X2795610Y3330810D01*
X2776520Y3349900D02*
X2814700D01*
X2991520Y3350400D02*
X3010610Y3369490D01*
X2991520Y3350400D02*
X3010610Y3331310D01*
X2991520Y3350400D02*
X2959700D01*
X3029700Y3350400D02*
X2991520D01*
X2831580Y3976310D02*
X2980000D01*
X3044160Y3912150D01*
X3617850D01*
X3767100Y3762900D01*
X3949910D01*
X4139690Y3573120D01*
Y3360310D01*
X4338210Y3161790D01*
X4353210D01*
X2831580Y3976310D02*
X2812490Y3957220D01*
X2831580Y3976310D02*
X2812490Y3995400D01*
X2831580Y3976310D02*
X2793400D01*
X3051700Y4265900D02*
X3024700D01*
X2835900Y4152900D02*
X2813780Y4165830D01*
X2835900Y4152900D02*
X2826570D01*
X2821570Y4147900D01*
X2794700D01*
X2837880Y4152900D02*
X2813790Y4128810D01*
X2837880Y4152900D02*
X2813790Y4166990D01*
X2837880Y4152900D02*
X2835900D01*
X2864700Y4152900D02*
X2837880D01*
X2953700Y4312900D02*
Y4276300D01*
X3000000Y4230000D01*
X3220000D01*
X3350000Y4100000D01*
X3699370D01*
X3776220Y4023150D01*
X3898690D01*
X4369700Y3552140D01*
Y3452900D01*
X4452700Y3369900D01*
X2938400Y4484200D02*
X2905700D01*
X2938400Y4484200D02*
X2932700Y4511200D01*
X2938400Y4484200D02*
X2911400Y4511200D01*
X2905700D01*
X3609700Y4312900D02*
X3582200Y4340400D01*
X3341230D01*
X3305830Y4305000D01*
X3117600D01*
X2938400Y4484200D01*
X2995100Y4319900D02*
X3024700D01*
X2995100Y4319900D02*
X2997700Y4292900D01*
X3051700Y4265900D02*
X3024700Y4292900D01*
X3022100D01*
X2995100Y4319900D01*
X3748700Y4311900D02*
X3685600Y4375000D01*
X3291800D01*
X3251000Y4334200D01*
X3135800D01*
X3030000Y4440000D01*
Y4848320D01*
X2915120Y4963200D01*
X2834700D01*
X2805700Y4992200D01*
X2939700Y4577900D02*
Y4597900D01*
X2932700Y4604900D01*
X2904700Y4632900D01*
Y4637200D01*
X2905700Y4638200D01*
X2932700Y4604900D02*
Y4638200D01*
X2932700Y4604900D02*
X2905700Y4611200D01*
X2805700Y4992200D02*
X2778700D01*
X2805700Y4992200D02*
Y5019200D01*
X2805700Y4992200D02*
X2778700Y5019200D01*
X2994520Y6670200D02*
X3013610Y6689290D01*
X2994520Y6670200D02*
X3013610Y6651110D01*
X2994520Y6670200D02*
X3032700D01*
X2797700Y6969900D02*
X2824700Y6942900D01*
X2984700Y6942900D02*
X2977100D01*
X2950100Y6969900D01*
X2986700Y6862900D02*
Y6818300D01*
X3105000Y6700000D01*
Y6597900D01*
X3132700Y6570200D01*
X2797700Y6969900D02*
X2824700D01*
X2797700Y6969900D02*
Y6942900D01*
X2950100Y6969900D02*
X2984700D01*
X2950100Y6969900D02*
X2957700Y6942900D01*
X2950100Y6969900D02*
X2927100Y6992900D01*
X2924700D01*
X2904700Y7012900D01*
X3121520Y7232900D02*
X3099700D01*
X3034200Y7298400D01*
X3024700Y7307900D01*
Y7322900D01*
X3146700Y764900D02*
Y737900D01*
X3146700Y764900D02*
X3119700D01*
X3146700Y764900D02*
X3155000Y773200D01*
X3179700D01*
X3119700Y737900D02*
X3146700Y764900D01*
X3103400Y953400D02*
X3110200Y962900D01*
X3103400Y953400D02*
X3119700D01*
X3103400Y953400D02*
X3059700Y909700D01*
Y876080D01*
X3078790Y856990D01*
X3059700Y876080D02*
X3040610Y856990D01*
X3059700Y876080D02*
Y837900D01*
X3119700Y962900D02*
X3112900D01*
X3103400Y953400D01*
X3252880Y1332900D02*
X3233790Y1313810D01*
X3252880Y1332900D02*
X3233790Y1351990D01*
X3252880Y1332900D02*
X3267520D01*
X3275840Y1324580D01*
X3289700D01*
X3275840Y1324580D02*
X3280200Y1315080D01*
X3275840Y1324580D02*
X3287520Y1312900D01*
X3289700Y1315080D01*
X3214700Y1332900D02*
X3252880D01*
X3260740Y2512370D02*
X3272210Y2510400D01*
X3260740Y2512370D02*
X3249170D01*
X3211700Y2474900D01*
Y2447900D01*
X3211700Y2474900D02*
X3184700D01*
X3211700Y2474900D02*
X3184700Y2447900D01*
X3278930Y2517120D02*
X3279700Y2516350D01*
X3275720Y2512370D01*
X3260740D01*
X3099200Y2768400D02*
X3105200Y2777900D01*
X3099200Y2768400D02*
X3114700D01*
X3099200Y2768400D02*
X3109700Y2778900D01*
Y2782900D01*
X3114700Y2777900D01*
X3216700Y2810900D02*
X3179700D01*
X3216700Y2810900D02*
X3206700Y2837900D01*
X3216700Y2810900D02*
X3255200Y2772400D01*
X3264700Y2762900D01*
X3274700D01*
X3255200Y2772400D02*
X3274700D01*
X3179700Y2837900D02*
X3189700D01*
X3216700Y2810900D01*
X3257880Y3047900D02*
X3238790Y3028810D01*
X3257880Y3047900D02*
X3238790Y3066990D01*
X3257880Y3047900D02*
X3309700D01*
X3219700Y3047900D02*
X3257880D01*
X3036520Y3047900D02*
X3060610Y3061990D01*
X3036520Y3047900D02*
X3060610Y3023810D01*
X3036520Y3047900D02*
X3074700D01*
X3079700Y3042900D01*
X3137000Y3463000D02*
X3110000D01*
X3137000Y3463000D02*
Y3490000D01*
X3137000Y3463000D02*
X3177600Y3422400D01*
X3187100Y3412900D01*
X3189700D01*
X3177600Y3422400D02*
X3180200Y3412900D01*
X3177600Y3422400D02*
X3189700D01*
X3110000Y3490000D02*
X3137000Y3463000D01*
X4965000Y2873180D02*
Y2962600D01*
X4734700Y3192900D01*
X4358980D01*
X4170700Y3381180D01*
Y3578880D01*
X3955680Y3793900D01*
X3780470D01*
X3662220Y3912150D01*
X3662200D01*
X3551200Y4023150D01*
X3174950D01*
X3153400Y4001600D01*
Y3974600D01*
X3153400Y4001600D02*
X3126400D01*
X3153400Y4001600D02*
X3126400Y3974600D01*
X3051700Y4265900D02*
Y4292900D01*
X3355000Y4165000D02*
X3254100Y4265900D01*
X3051700D01*
X3188400Y4505900D02*
X3161400D01*
X3188400Y4505900D02*
Y4532900D01*
X3188400Y4505900D02*
X3249300Y4445000D01*
X4092600D01*
X4224950Y4312650D01*
X3161400Y4532900D02*
X3188400Y4505900D01*
X3322880Y4512900D02*
X3284700D01*
X3197880Y4384200D02*
X3178790Y4365110D01*
X3197880Y4384200D02*
X3178790Y4403290D01*
X3197880Y4384200D02*
X3246000D01*
X3271800Y4410000D01*
X3782600D01*
X3856210Y4336390D01*
X4051210D01*
X4074700Y4312900D01*
X3159700Y4384200D02*
X3197880D01*
X3159700Y6711080D02*
Y6672900D01*
X3132700Y6570200D02*
X3159700Y6543200D01*
X3132700Y6570200D02*
Y6543200D01*
X3132700Y6570200D02*
X3159700D01*
X3313700Y6573700D02*
X3286700Y6570200D01*
X3313700Y6573700D02*
X3286700Y6546700D01*
Y6543200D01*
X3186700Y6824200D02*
Y6797200D01*
X3186700Y6824200D02*
X3159700D01*
X3186700Y6824200D02*
X3159700Y6797200D01*
X3304200Y6863400D02*
X3225900D01*
X3186700Y6824200D01*
X3131200Y6853670D02*
X3135890Y6863170D01*
X3131200Y6853670D02*
X3145390D01*
X3131200Y6853670D02*
X3109700Y6832170D01*
Y6770300D01*
X3159700Y6720300D01*
Y6711080D01*
X3178790Y6691990D01*
X3159700Y6711080D02*
X3140610Y6691990D01*
X3145390Y6863170D02*
X3140700D01*
X3131200Y6853670D01*
X3121520Y7232900D02*
X3140610Y7251990D01*
X3121520Y7232900D02*
X3140610Y7213810D01*
X3034200Y7298400D02*
Y7322900D01*
X3159700Y7232900D02*
X3121520D01*
X3389100Y1265900D02*
X3359700D01*
X3389100Y1265900D02*
X3386700Y1292900D01*
X3389100Y1265900D02*
X3434700Y1220300D01*
Y1172900D01*
X3359700Y1292900D02*
X3362100D01*
X3389100Y1265900D01*
X3339700Y1942900D02*
X3452900D01*
X3551900Y2041900D01*
X4336430D01*
X4337430Y2040900D01*
X4535710D01*
X4592710Y2097900D01*
X4721520D01*
X3432880Y2642900D02*
X3413790Y2623810D01*
X3432880Y2642900D02*
X3413790Y2661990D01*
X3432880Y2642900D02*
X3394700D01*
X3464700Y2642900D02*
X3432880D01*
X3355000Y4165000D02*
X3385000Y4135000D01*
X3710000D01*
X3790850Y4054150D01*
X4058190D01*
X4159200Y3953140D01*
Y3870800D01*
X4241670Y3788330D01*
X4431670D01*
X4552700Y3667300D01*
X3434100Y4220900D02*
X3404700D01*
X3434100Y4220900D02*
X3431700Y4247900D01*
X3434100Y4220900D02*
X3479100Y4175900D01*
X3711700D01*
X3799700Y4087900D01*
X4144700D01*
X4174700Y4057900D01*
X4244950D01*
X4314700Y3988150D01*
Y3912470D01*
X4382020Y3845150D01*
X4594850D01*
X4729700Y3710300D01*
Y3489700D01*
X4709900Y3469900D01*
X3377700Y4284900D02*
X3404700Y4274900D01*
X3377700Y4284900D02*
Y4247900D01*
X3377700Y4284900D02*
X3404700Y4257900D01*
Y4247900D01*
X3407100D01*
X3434100Y4220900D01*
X3354700Y4307900D02*
X3377700Y4284900D01*
X3322880Y4512900D02*
X3303790Y4493810D01*
X3322880Y4512900D02*
X3303790Y4531990D01*
X4383700Y4311900D02*
X4244700Y4450900D01*
X4129100D01*
X4010000Y4570000D01*
X3826800D01*
X3769700Y4512900D01*
X3322880D01*
X3324700Y7319720D02*
Y7255300D01*
X3345000Y7235000D01*
Y6605000D01*
X3313700Y6573700D01*
Y6543200D01*
X3464700Y6917900D02*
X3441700D01*
X3464700Y6917900D02*
X3464690Y6940900D01*
X3464700Y6917900D02*
Y6857900D01*
X3439700Y6942900D02*
X3464700Y6917900D01*
X3324700Y7319720D02*
X3305610Y7338810D01*
X3324700Y7319720D02*
X3343790Y7338810D01*
X3324700Y7357900D02*
Y7319720D01*
X3749700Y1477900D02*
X3842100D01*
X4100300Y1219700D01*
X3650100Y3169900D02*
X3679700D01*
X3650100Y3169900D02*
X3652700Y3142900D01*
X3679700Y3142900D02*
X3677100D01*
X3650100Y3169900D01*
X3752700Y3467300D02*
X3779700Y3464900D01*
X3752700Y3467300D02*
Y3437900D01*
X3752700Y3467300D02*
X3779700Y3440300D01*
Y3437900D01*
X3679700Y3381080D02*
Y3342900D01*
X3679700Y3381080D02*
X3660610Y3361990D01*
X3679700Y3381080D02*
X3698790Y3361990D01*
X3776700Y3675900D02*
X3749700D01*
X3776700Y3675900D02*
Y3702900D01*
X3776700Y3675900D02*
X3749700Y3702900D01*
X3779700Y3617900D02*
Y3672900D01*
X3776700Y3675900D01*
X3727950Y3949650D02*
X3694090D01*
X3727950Y3949650D02*
X3728950Y3948650D01*
X3693100D01*
X3728950Y3948650D02*
X3729950Y3947650D01*
X3692110D01*
X3729950Y3947650D02*
X3730950Y3946650D01*
X3691130D01*
X3730950Y3946650D02*
X3731950Y3945650D01*
X3690140D01*
X3731950Y3945650D02*
X3732950Y3944650D01*
X3689150D01*
X3732950Y3944650D02*
X3733950Y3943650D01*
X3688160D01*
X3733950Y3943650D02*
X3734950Y3942650D01*
X3687170D01*
X3734950Y3942650D02*
X3735950Y3941650D01*
X3686190D01*
X3735950Y3941650D02*
X3736950Y3940650D01*
X3685200D01*
X3736950Y3940650D02*
X3712200Y3967650D01*
X3736950Y3940650D02*
X3852700Y3824900D01*
X3961450D01*
X4206700Y3579650D01*
Y3408410D01*
X4345210Y3269900D01*
X3685200Y3967650D02*
X3709950D01*
X3727950Y3949650D01*
X3617880Y4242900D02*
X3598790Y4223810D01*
X3617880Y4242900D02*
X3598790Y4261990D01*
X3617880Y4242900D02*
X3687100D01*
X3811100Y4118900D01*
X4157550D01*
X4187550Y4088900D01*
X4273700D01*
X4343700Y4018900D01*
Y3927130D01*
X4393930Y3876900D01*
X4395700D01*
X4401450Y3871150D01*
X4618850D01*
X4779700Y3710300D01*
Y3658180D01*
X3606700Y4269900D02*
Y4242900D01*
X3606700Y4269900D02*
X3579700D01*
X3606700Y4269900D02*
X3579700Y4242900D01*
X3617880D01*
X3609700Y4312900D02*
Y4272900D01*
X3606700Y4269900D01*
X4806700Y3471700D02*
X4844700Y3509700D01*
Y3700300D01*
X4640000Y3905000D01*
X4402600D01*
X4369700Y3937900D01*
Y4042900D01*
X4292700Y4119900D01*
X4200400D01*
X4170400Y4149900D01*
X3867700D01*
X3801700Y4215900D01*
X3748700Y4268900D02*
X3773700D01*
X3748700Y4268900D02*
X3748710Y4243900D01*
X3748700Y4268900D02*
X3774700Y4242900D01*
X3801700Y4215900D02*
X3774700D01*
X3801700Y4215900D02*
Y4242900D01*
X3801700Y4215900D02*
X3774700Y4242900D01*
X3748700Y4311900D02*
Y4268900D01*
X3828700Y6417900D02*
X3813790Y6402990D01*
X3850200Y6396400D02*
X3828700Y6417900D01*
X3813790Y6432810D01*
X3828700Y6417900D02*
X3794700D01*
X3614700Y6909720D02*
X3595610Y6928810D01*
X3614700Y6909720D02*
X3633790Y6928810D01*
X3614700Y6909720D02*
Y6882900D01*
X3634700Y6862900D01*
X3614700Y6947900D02*
Y6909720D01*
X3814700Y6925000D02*
X3793800D01*
X3814700Y6925000D02*
X3813180Y6944390D01*
X3814700Y6925000D02*
Y6861310D01*
X3815830D01*
X3789700Y6947900D02*
Y6950000D01*
X3814700Y6925000D01*
X4039530Y6864080D02*
X3970710Y6932900D01*
X3889700D01*
X3814700Y7007900D01*
Y7312900D01*
X3711700Y7415900D01*
X3684700D01*
X3711700Y7415900D02*
Y7442900D01*
X3711700Y7415900D02*
X3684700Y7442900D01*
X4100300Y1219700D02*
X4127300Y1192700D01*
X4129700D01*
X4008720Y2095000D02*
X3983740Y2119940D01*
X4008720Y2095000D02*
X4010140D01*
X3983750Y2121350D01*
X4010140Y2095000D02*
X4011550D01*
X3983760Y2122760D01*
X4011550Y2095000D02*
X4012960D01*
X3983770Y2124170D01*
X4012960Y2095000D02*
X4014370D01*
X3983780Y2125580D01*
X4014370Y2095000D02*
X4015780D01*
X3983790Y2088810D01*
X4015780Y2095000D02*
X3983790Y2126990D01*
X4015780Y2095000D02*
X4320100D01*
X4348200Y2066900D01*
X4521900D01*
X4585000Y2130000D01*
X4691800D01*
X4714700Y2152900D01*
X4815420D01*
X4844700Y2182180D01*
Y2182900D01*
X4909700Y2247900D01*
X4936520D01*
X3926520Y2107900D02*
X3945610Y2126990D01*
X3926520Y2107900D02*
X3945610Y2088810D01*
X3964700Y2107900D02*
X3977600Y2095000D01*
X4008720D01*
X3964700Y2107900D02*
X3926520D01*
X4040100Y2264900D02*
X4069700D01*
X4040100Y2264900D02*
X4042700Y2237900D01*
X4040100Y2264900D02*
X4067100Y2237900D01*
X4069700D01*
X5156520Y2292900D02*
X5000420D01*
X4995420Y2297900D01*
X4663980D01*
X4629700Y2263620D01*
Y2209700D01*
X4602900Y2182900D01*
X4537100D01*
X4515000Y2205000D01*
X4340000D01*
X4291900Y2156900D01*
X4036130D01*
X3994120Y2198910D01*
X3983690D01*
X3971700Y2210900D01*
X3939700D01*
X3971700Y2210900D02*
X3966700Y2237900D01*
X3971700Y2210900D02*
X3939700Y2242900D01*
Y2237900D01*
X3907700Y2210900D02*
X3912700Y2237900D01*
X3907700Y2210900D02*
X3939700D01*
X3907700Y2210900D02*
X3926840Y2230040D01*
X3931840D01*
X3939700Y2237900D01*
X5864550Y2379840D02*
X5596490Y2647900D01*
X4862900D01*
X4660000Y2445000D01*
X4480000D01*
X4427900Y2392900D01*
X4029700D01*
X4006700Y2415900D01*
X3979700D01*
X4006700Y2415900D02*
Y2442900D01*
X4006700Y2415900D02*
X3979700Y2442900D01*
X3852700Y3415900D02*
Y3442900D01*
X3852700Y3415900D02*
X3879700D01*
X3852700Y3415900D02*
X3879700Y3442900D01*
X4079200Y3923580D02*
Y3953790D01*
X4079200Y3923580D02*
X4066200Y3936580D01*
Y3967650D01*
X4080200Y3922580D02*
Y3954780D01*
X4080200Y3922580D02*
X4079200Y3923580D01*
X4081200Y3921580D02*
Y3955770D01*
X4081200Y3921580D02*
X4080200Y3922580D01*
X4082200Y3920580D02*
Y3956760D01*
X4082200Y3920580D02*
X4081200Y3921580D01*
X4083200Y3919580D02*
Y3957750D01*
X4083200Y3919580D02*
X4082200Y3920580D01*
X4084200Y3918580D02*
Y3958740D01*
X4084200Y3918580D02*
X4083200Y3919580D01*
X4085200Y3917580D02*
Y3959730D01*
X4085200Y3917580D02*
X4084200Y3918580D01*
X4086200Y3916580D02*
Y3960720D01*
X4086200Y3916580D02*
X4085200Y3917580D01*
X4087200Y3915580D02*
Y3961710D01*
X4087200Y3915580D02*
X4086200Y3916580D01*
X4088200Y3914580D02*
Y3962700D01*
X4088200Y3914580D02*
X4087200Y3915580D01*
X4089200Y3913580D02*
Y3963690D01*
X4089200Y3913580D02*
X4088200Y3914580D01*
X4090200Y3912580D02*
Y3964680D01*
X4090200Y3912580D02*
X4089200Y3913580D01*
X4091200Y3911580D02*
Y3965670D01*
X4091200Y3911580D02*
X4090200Y3912580D01*
X4092200Y3910580D02*
Y3966660D01*
X4092200Y3910580D02*
X4091200Y3911580D01*
X4093200Y3909580D02*
Y3967650D01*
X4093200Y3909580D02*
X4092200Y3910580D01*
X4479700Y3581080D02*
Y3687330D01*
X4404700Y3762330D01*
X4222670D01*
X4093200Y3891800D01*
Y3909580D01*
X3915240Y3944650D02*
X3879660D01*
X3915240Y3944650D02*
X3916240Y3943650D01*
X3878670D01*
X3916240Y3943650D02*
X3917240Y3942650D01*
X3877680D01*
X3917240Y3942650D02*
X3918240Y3941650D01*
X3876690D01*
X3918240Y3941650D02*
X3919240Y3940650D01*
X3875700D01*
X3919240Y3940650D02*
X3902700Y3967650D01*
X3919240Y3940650D02*
X4268700Y3591190D01*
Y3463900D01*
X4352700Y3379900D01*
X3875700Y3967650D02*
X3892240D01*
X3915240Y3944650D01*
X3934900Y4264900D02*
X3934450Y4237900D01*
X3934900Y4264900D02*
X3907450D01*
X3934900Y4264900D02*
X3973890Y4303890D01*
X3994700D01*
X4020000Y4278590D01*
Y4203750D01*
X4042850Y4180900D01*
X4183250D01*
X4213250Y4150900D01*
X4329100D01*
X4405000Y4075000D01*
Y3995000D01*
X4429850Y3970150D01*
X4454700D01*
X3907450Y4237900D02*
X3907900D01*
X3934900Y4264900D01*
X4117880Y4232900D02*
X4098790Y4213810D01*
X4117880Y4232900D02*
X4098790Y4251990D01*
X4074700Y4276080D02*
X4098790Y4251990D01*
X4074700Y4276080D02*
X4060610Y4251990D01*
X4074700Y4276080D02*
Y4237900D01*
X4079700Y4232900D01*
X4117880D01*
X4074700Y4312900D02*
Y4276080D01*
X3850200Y6396400D02*
X3859700Y6392400D01*
X3850200Y6396400D02*
Y6382900D01*
X3946700Y6390900D02*
X3919700D01*
X3946700Y6390900D02*
Y6417900D01*
X3946700Y6390900D02*
X3919700Y6417900D01*
X3979700Y6382900D02*
X3954700D01*
X3946700Y6390900D01*
X3859700Y6382900D02*
Y6386900D01*
X3850200Y6396400D01*
X3948700Y6697200D02*
X3921700Y6670200D01*
X3948700Y6697200D02*
Y6670200D01*
X4039530Y6864080D02*
X4039700Y6863910D01*
Y6788200D01*
X3948700Y6697200D01*
X3921700D01*
X3874200Y7027400D02*
X3869200Y7017900D01*
X3874200Y7027400D02*
X3859700D01*
X3874200Y7027400D02*
X3907700Y7060900D01*
Y7087900D01*
X3907700Y7060900D02*
X3934700D01*
X3907700Y7060900D02*
X3934700Y7087900D01*
X3859700Y7017900D02*
X3864700D01*
X3874200Y7027400D01*
X4100300Y1219700D02*
X4129700D01*
X4100300Y1219700D02*
X4102700Y1192700D01*
X4147700Y2215900D02*
X4152700Y2242900D01*
X4147700Y2215900D02*
X4179700D01*
X4147700Y2215900D02*
X4174700Y2242900D01*
X4179700D01*
X4355700Y2866900D02*
X4376700D01*
X4355700Y2866900D02*
X4355710Y2845900D01*
X4355700Y2866900D02*
X4379700Y2842900D01*
X4353210Y3161790D02*
X4371590D01*
X4353210Y3161790D02*
X4357250Y3147450D01*
X4360610Y3161920D02*
X4353340D01*
X4353210Y3161790D01*
X4360000Y3155000D01*
X4360700Y3155700D01*
Y3161900D01*
X4379700Y3142900D01*
X4345210Y3269900D02*
X4352700Y3242900D01*
X4345210Y3269900D02*
X4372210Y3242900D01*
X4379700D01*
X4352700Y3379900D02*
X4379700Y3369900D01*
X4352700Y3379900D02*
Y3342900D01*
X4352700Y3379900D02*
X4379700Y3352900D01*
Y3342900D01*
X4383700Y3668720D02*
X4364610Y3687810D01*
X4359700Y3627900D02*
X4383700Y3651900D01*
Y3668720D01*
X4679700Y3581080D02*
Y3707900D01*
X4624700Y3762900D01*
Y3763620D01*
X4569170Y3819150D01*
X4363450D01*
X4304700Y3877900D01*
Y3878620D01*
X4256700Y3926620D01*
Y3929470D01*
X4237610Y3948560D01*
X4256700Y3929470D02*
X4275790Y3948560D01*
X4256700Y3929470D02*
Y3967650D01*
X4244700Y4276080D02*
X4263790Y4256990D01*
X4244700Y4276080D02*
X4225610Y4256990D01*
X4244700Y4276080D02*
Y4237900D01*
X4383700Y4277080D02*
X4364610Y4257990D01*
X4117880Y4232900D02*
X4179700D01*
X4194700Y4217900D01*
Y4217180D01*
X4223980Y4187900D01*
X4224700D01*
X4230700Y4181900D01*
X4378100D01*
X4431000Y4129000D01*
X4526000D01*
X4958700Y3696300D01*
Y3575030D01*
X4958690Y3575020D01*
Y3549340D01*
X4958760Y3549270D01*
Y3462740D01*
X4958750Y3462730D01*
Y3321950D01*
X4906700Y3269900D01*
X4224950Y4312650D02*
X4244700Y4292900D01*
Y4276080D01*
X4298700Y4507900D02*
X4306000D01*
X4311000Y4502900D01*
X4369700D01*
X4213700Y6393900D02*
X4177650D01*
X4213700Y6393900D02*
X4214700Y6392900D01*
X4176670D01*
X4214700Y6392900D02*
X4215700Y6391900D01*
X4175690D01*
X4215700Y6391900D02*
X4216700Y6390900D01*
X4174700D01*
X4216700Y6390900D02*
X4201700Y6417900D01*
X4216700Y6390900D02*
X4229700Y6377900D01*
X4174700Y6417900D02*
X4189700D01*
X4213700Y6393900D01*
X4277950Y6571700D02*
X4304950D01*
X4277950Y6571700D02*
Y6544700D01*
X4277950Y6571700D02*
X4304950Y6544700D01*
X4861950Y7058900D02*
X4720700D01*
X4669720Y7007920D01*
X4551790D01*
X4551780Y7007910D01*
X4329120D01*
X4230950Y6909740D01*
Y6618700D01*
X4277950Y6571700D01*
X4277950Y6698700D02*
Y6671700D01*
X4277950Y6698700D02*
X4304950Y6671700D01*
X4204950Y6517700D02*
X4177950D01*
X4204950Y6517700D02*
Y6544700D01*
X4204950Y6517700D02*
X4243750Y6478900D01*
X4466950D01*
X4496950Y6508900D01*
Y6573900D01*
X4548650Y6625600D01*
X4820250D01*
X4177950Y6544700D02*
X4204950Y6517700D01*
X4277950Y6698700D02*
X4304950D01*
X4816950Y7003900D02*
X4716950D01*
X4684950Y6971900D01*
X4566720D01*
X4566710Y6971910D01*
X4344040D01*
X4266950Y6894820D01*
Y6709700D01*
X4277950Y6698700D01*
X4321950Y6834080D02*
X4339040Y6812990D01*
X4321950Y6834080D02*
X4300860Y6812990D01*
X4321950Y6834080D02*
Y6871020D01*
X4386840Y6935910D01*
X4486780D01*
X4486790Y6935900D01*
X4699870D01*
X4717870Y6953900D01*
X4856950D01*
X4319950Y6793900D02*
X4321950Y6795900D01*
Y6834080D01*
X4452700Y2315900D02*
Y2342900D01*
X4452700Y2315900D02*
X4479700D01*
X4452700Y2315900D02*
X4479700Y2342900D01*
X4544870Y2308070D02*
Y2345610D01*
X4544870Y2308070D02*
X4571870Y2318610D01*
X4544870Y2308070D02*
X4571870Y2335070D01*
Y2345610D01*
X4527430Y2290630D02*
X4544870Y2308070D01*
X4441520Y2542900D02*
X4460610Y2561990D01*
X4441520Y2542900D02*
X4460610Y2523810D01*
X4479700Y2542900D02*
X4441520D01*
X4552700Y2515900D02*
Y2542900D01*
X4552700Y2515900D02*
X4579700D01*
X4552700Y2515900D02*
X4579700Y2542900D01*
X4445000Y2835000D02*
X4460610Y2850610D01*
X4445000Y2835000D02*
X4460620Y2828530D01*
X4479700Y2842900D02*
X4471800Y2835000D01*
X4445000D01*
X4452700Y3269900D02*
X4479700D01*
X4452700Y3269900D02*
Y3242900D01*
X4452700Y3269900D02*
X4479700Y3242900D01*
X4452700Y3369900D02*
X4479700D01*
X4452700Y3369900D02*
Y3342900D01*
X4452700Y3369900D02*
X4479700Y3342900D01*
X4479700Y3581080D02*
X4498790Y3561990D01*
X4479700Y3581080D02*
X4460610Y3561990D01*
X4479700Y3581080D02*
Y3542900D01*
X4552700Y3667300D02*
X4579700Y3657000D01*
X4552700Y3667300D02*
Y3630000D01*
X4552700Y3667300D02*
X4579700Y3640300D01*
Y3630000D01*
X4383700Y3668720D02*
X4402790Y3687810D01*
X4383700Y3668720D02*
Y3706900D01*
X4799310Y3269310D02*
X4929700Y3399700D01*
Y3670300D01*
X4668000Y3932000D01*
X4470000D01*
X4454700Y3947300D01*
Y3970150D01*
X4439700Y3967900D01*
X4906700Y3169900D02*
X4984750Y3247950D01*
Y3451960D01*
X4984770Y3451980D01*
Y3720230D01*
X4540000Y4165000D01*
X4457600D01*
X4410700Y4211900D01*
X4383700D01*
X4410700Y4211900D02*
Y4238900D01*
X4410700Y4211900D02*
X4383700Y4238900D01*
X4383700Y4277080D02*
X4402790Y4257990D01*
X4383700Y4277080D02*
Y4238900D01*
X4542450Y4273330D02*
X4561540Y4254240D01*
X4542450Y4273330D02*
X4523360Y4254240D01*
X4542450Y4273330D02*
Y4235150D01*
X4542450Y4310150D02*
Y4273330D01*
X4383700Y4311900D02*
Y4277080D01*
X7440200Y1249800D02*
X7227510Y1462490D01*
Y3895090D01*
X7134440Y3988160D01*
X5424440D01*
X5375150Y4037450D01*
Y4344850D01*
X5196100Y4523900D01*
X4751100D01*
X4636800Y4638200D01*
X4594880D01*
X4575790Y4619110D01*
X4594880Y4638200D02*
X4575790Y4657290D01*
X4594880Y4638200D02*
X4556700D01*
X4589780Y4770100D02*
X4570690Y4751010D01*
X4589780Y4770100D02*
X4570690Y4789190D01*
X4589780Y4770100D02*
X4793150D01*
X4868000Y4844950D01*
Y4887930D01*
X4866950Y4888980D01*
Y4928000D01*
X4551600Y4770100D02*
X4589780D01*
X4589780Y4897100D02*
X4570690Y4878010D01*
X4589780Y4897100D02*
X4570690Y4916190D01*
X4589780Y4897100D02*
X4551600D01*
X4832000Y4873000D02*
X4807900Y4897100D01*
X4589780D01*
X4595860Y5033000D02*
X4570670Y5007810D01*
X4595860Y5033000D02*
X4560500D01*
X4551600Y5024100D01*
X4597270Y5033000D02*
X4570680Y5006410D01*
X4597270Y5033000D02*
X4595860D01*
X4598680Y5033000D02*
X4570690Y5005010D01*
X4598680Y5033000D02*
X4570690Y5043190D01*
X4598680Y5033000D02*
X4597270D01*
X4801800Y5033000D02*
X4598680D01*
X4451600Y4997100D02*
X4424600D01*
X4451600Y4997100D02*
Y5024100D01*
X4451600Y4997100D02*
X4424600Y5024100D01*
X4836950Y4978000D02*
X4580460D01*
X4573560Y4971100D01*
X4477600D01*
X4451600Y4997100D01*
X4456700Y4865000D02*
X4429700Y4865900D01*
X4456700Y4865000D02*
Y4892900D01*
X4456700Y4865000D02*
X4480200Y4841500D01*
X4489700Y4832000D01*
Y4827900D01*
X4480200Y4841500D02*
Y4827900D01*
X4480200Y4841500D02*
X4489700Y4837400D01*
X4429700Y4892900D02*
X4425500Y4897100D01*
X4424600D01*
X4456700Y4865000D01*
X4589780Y5151100D02*
X4570690Y5132010D01*
X4589780Y5151100D02*
X4570690Y5170190D01*
X4589780Y5151100D02*
X4551600D01*
X4786950Y5128900D02*
X4764750Y5151100D01*
X4589780D01*
X4578600Y5251100D02*
X4551600D01*
X4578600Y5251100D02*
Y5278100D01*
X4578600Y5251100D02*
X4625800Y5203900D01*
X4806950D01*
X4855200Y5155650D01*
Y5127000D01*
X4551600Y5278100D02*
X4578600Y5251100D01*
X4768510Y5263900D02*
X4641880D01*
X4571880Y5333900D01*
X4480400D01*
X4451600Y5305100D01*
Y5278100D01*
X4451600Y5305100D02*
X4424600D01*
X4451600Y5305100D02*
X4424600Y5278100D01*
X4851700Y5232000D02*
Y5264150D01*
X4781950Y5333900D01*
X4622800D01*
X4578600Y5378100D01*
X4480200Y5095500D02*
X4489700Y5092400D01*
X4480200Y5095500D02*
Y5082900D01*
X4480200Y5095500D02*
X4451600Y5124100D01*
X4424600D01*
X4451600Y5124100D02*
Y5151100D01*
X4451600Y5124100D02*
X4424600Y5151100D01*
X4489700Y5082900D02*
Y5086000D01*
X4480200Y5095500D01*
X4578600Y5378100D02*
X4551600D01*
X4578600Y5378100D02*
Y5405100D01*
X4578600Y5378100D02*
X4551600Y5405100D01*
X4456700Y5754000D02*
X4486950Y5723750D01*
Y5648900D01*
X4498600Y5637250D01*
Y5637140D01*
X4529640Y5606100D01*
X4584750D01*
X4699850Y5491000D01*
X4851800D01*
X4589780Y5532100D02*
X4570690Y5513010D01*
X4589780Y5532100D02*
X4570690Y5551190D01*
X4589780Y5532100D02*
X4607830D01*
X4698930Y5441000D01*
X4800200D01*
X4551600Y5532100D02*
X4589780D01*
X4451600Y5505100D02*
X4424600D01*
X4451600Y5505100D02*
Y5532100D01*
X4451600Y5505100D02*
X4485600Y5471100D01*
X4607500D01*
X4692600Y5386000D01*
X4847500D01*
X4424600Y5532100D02*
X4451600Y5505100D01*
X4397600Y5432100D02*
X4424600D01*
X4397600Y5432100D02*
Y5405100D01*
X4397600Y5432100D02*
X4424600Y5405100D01*
X4379700Y5467900D02*
Y5450000D01*
X4397600Y5432100D01*
X4489700Y5592900D02*
Y5594000D01*
X4451600Y5632100D01*
X4596950Y5648900D02*
X4570690Y5640930D01*
X4596950Y5648900D02*
X4570690Y5675160D01*
X4596950Y5648900D02*
X4699850Y5546000D01*
X4801900D01*
X4551600Y5659100D02*
X4561800Y5648900D01*
X4596950D01*
X4456700Y5754000D02*
X4429700D01*
X4456700Y5754000D02*
Y5781000D01*
X4429700Y5781000D02*
X4456700Y5754000D01*
X4583700Y5754000D02*
X4556700D01*
X4583700Y5754000D02*
Y5781000D01*
X4583700Y5754000D02*
X4743800Y5593900D01*
X4861950D01*
X4891950Y5623900D01*
Y5758900D01*
X4850850Y5800000D01*
X4804400D01*
X4556700Y5781000D02*
X4583700Y5754000D01*
X4806000Y5695000D02*
X4769700D01*
X4583700Y5881000D01*
X4456700Y6008000D02*
X4503700Y5961000D01*
Y5886040D01*
X4534740Y5855000D01*
X4557660D01*
X4609700Y5802960D01*
Y5781150D01*
X4750850Y5640000D01*
X4850100D01*
X4451600Y5632100D02*
X4424600D01*
X4451600Y5632100D02*
Y5659100D01*
X4451600Y5632100D02*
X4424600Y5659100D01*
X4494700Y5842900D02*
Y5843000D01*
X4456700Y5881000D01*
X4583700Y5881000D02*
X4556700D01*
X4583700Y5881000D02*
Y5908000D01*
X4583700Y5881000D02*
X4556700Y5908000D01*
X4566950Y5990800D02*
X4541810Y6015910D01*
X4566950Y5990800D02*
Y5989390D01*
X4540410Y6015910D01*
X4566950Y5989390D02*
Y5987980D01*
X4539010Y6015910D01*
X4566950Y5987980D02*
Y5986570D01*
X4537610Y6015910D01*
X4566950Y5986570D02*
X4575790Y6015910D01*
X4566950Y5986570D02*
Y5978900D01*
X4800850Y5745000D01*
X4851800D01*
X4556700Y6035000D02*
X4566950Y6024750D01*
Y5990800D01*
X4456700Y6008000D02*
X4429700D01*
X4456700Y6008000D02*
Y6035000D01*
X4429700Y6035000D02*
X4456700Y6008000D01*
X4583700Y6135000D02*
X4556700D01*
X4583700Y6135000D02*
Y6162000D01*
X4583700Y6135000D02*
X4556700Y6162000D01*
X4861950Y6166250D02*
Y6100320D01*
X4835530Y6073900D01*
X4644800D01*
X4583700Y6135000D01*
X4485200Y6106500D02*
X4494700Y6102400D01*
X4485200Y6106500D02*
Y6092900D01*
X4485200Y6106500D02*
X4456700Y6135000D01*
X4429700D01*
X4456700Y6135000D02*
Y6162000D01*
X4456700Y6135000D02*
X4429700Y6162000D01*
X4456700Y5881000D02*
X4429700D01*
X4456700Y5881000D02*
Y5908000D01*
X4456700Y5881000D02*
X4429700Y5908000D01*
X4494700Y6092900D02*
Y6097000D01*
X4485200Y6106500D01*
X4583700Y6262000D02*
X4556700D01*
X4583700Y6262000D02*
Y6289000D01*
X4583700Y6262000D02*
X4556700Y6289000D01*
X4821950Y6111250D02*
X4734450D01*
X4583700Y6262000D01*
X4583700Y6389000D02*
X4556700D01*
X4583700Y6389000D02*
Y6416000D01*
X4583700Y6389000D02*
X4556700Y6416000D01*
X4816950Y6216250D02*
X4756450D01*
X4583700Y6389000D01*
X4456700Y6262000D02*
X4429700D01*
X4456700Y6262000D02*
Y6289000D01*
X4456700Y6262000D02*
X4429700Y6289000D01*
X4456700Y6389000D02*
X4429700D01*
X4456700Y6389000D02*
Y6416000D01*
X4456700Y6389000D02*
X4429700Y6416000D01*
X4494700Y6352900D02*
X4492800D01*
X4456700Y6389000D01*
X4494700Y6222900D02*
Y6224000D01*
X4456700Y6262000D01*
X4429700Y6670000D02*
Y6708180D01*
X4402700Y6570000D02*
X4429700D01*
X4402700Y6570000D02*
Y6543000D01*
X4402700Y6570000D02*
X4429700Y6543000D01*
X4816950Y6898900D02*
X4406850D01*
X4372950Y6865000D01*
Y6599750D01*
X4402700Y6570000D01*
X4594880Y6543000D02*
X4575790Y6523910D01*
X4594880Y6543000D02*
X4575790Y6562090D01*
X4594880Y6543000D02*
X4556700D01*
X4821950Y6723900D02*
X4822950Y6724900D01*
X4870280D01*
X4899650Y6695530D01*
Y6587850D01*
X4854800Y6543000D01*
X4594880D01*
X4429700Y6708180D02*
X4448790Y6689090D01*
X4429700Y6708180D02*
X4410610Y6689090D01*
X4429700Y6708180D02*
Y6725150D01*
X4404700Y6750150D01*
Y6817900D01*
X4450700Y6863900D01*
X4521950D01*
X4624950Y6760900D01*
X4838950D01*
X4863650Y6785600D01*
X4500130Y6793900D02*
X4481040Y6774810D01*
X4500130Y6793900D02*
X4481040Y6812990D01*
X4500130Y6793900D02*
X4516950D01*
X4630250Y6680600D01*
X4863650D01*
X4461950Y6793900D02*
X4500130D01*
X4799700Y1051080D02*
X4818790Y1031990D01*
X4799700Y1051080D02*
X4780610Y1031990D01*
X4799700Y1051080D02*
Y1012900D01*
X5354700Y1262900D02*
X4949700D01*
X4799700Y1112900D01*
Y1051080D01*
X4904700Y1046080D02*
X4885610Y1026990D01*
X4897450Y1591150D02*
Y1618150D01*
X4897450Y1591150D02*
X4924450D01*
X4924450Y1618150D02*
X4897450Y1591150D01*
X4721520Y2097900D02*
X4759700D01*
X4721520Y2097900D02*
X4740610Y2078810D01*
X4721520Y2097900D02*
X4740610Y2116990D01*
X4879700Y2104720D02*
Y2142900D01*
X4879700Y2104720D02*
X4898790Y2123810D01*
X4879700Y2104720D02*
X4860610Y2123810D01*
X4679700Y2204720D02*
X4660610Y2223810D01*
X4679700Y2204720D02*
X4698790Y2223810D01*
X4679700Y2204720D02*
Y2242900D01*
X4650900Y2615900D02*
X4652700Y2642900D01*
X4650900Y2615900D02*
X4679700D01*
X4679700Y2642900D02*
X4677900D01*
X4650900Y2615900D01*
X4652700Y2969900D02*
X4679700Y2942900D01*
X4652700Y2869900D02*
X4679700D01*
X4652700Y2869900D02*
Y2842900D01*
X4679700Y2842900D02*
X4652700Y2869900D01*
X4652700Y2715900D02*
Y2742900D01*
X4652700Y2715900D02*
X4679700D01*
X4679700Y2742900D02*
X4652700Y2715900D01*
X4652700Y2969900D02*
X4679700D01*
X4652700Y2969900D02*
Y2942900D01*
X4652700Y3069900D02*
X4679700D01*
X4652700Y3069900D02*
Y3042900D01*
X4652700Y3069900D02*
X4679700Y3042900D01*
X4906700Y3169900D02*
X4879700D01*
X4879700Y3142900D02*
X4906700Y3169900D01*
X4799310Y3269310D02*
X4813710Y3248400D01*
X4799310Y3269310D02*
X4778410Y3248400D01*
X4795790Y3229310D02*
X4799310Y3232830D01*
Y3269310D01*
X4709900Y3469900D02*
X4682900Y3442900D01*
X4679700D01*
X4709900Y3469900D02*
X4679700D01*
X4709900Y3469900D02*
X4706700Y3442900D01*
X4906700Y3269900D02*
X4879700Y3242900D01*
X4906700Y3269900D02*
X4879700D01*
X4806700Y3471700D02*
Y3442900D01*
X4806700Y3471700D02*
X4779700Y3469900D01*
X4779700Y3442900D02*
Y3444700D01*
X4806700Y3471700D01*
X4779700Y3658180D02*
Y3620000D01*
X4779700Y3658180D02*
X4760610Y3639090D01*
X4779700Y3658180D02*
X4798790Y3639090D01*
X4679700Y3581080D02*
X4698790Y3561990D01*
X4679700Y3581080D02*
X4660610Y3561990D01*
X4679700Y3542900D02*
Y3581080D01*
X4855200Y3939800D02*
X4828200Y3940650D01*
X4855200Y3939800D02*
Y3967650D01*
X4855200Y3939800D02*
X5040000Y3755000D01*
Y3665000D01*
X5114700Y3590300D01*
Y3061080D01*
X4828200Y3967650D02*
Y3966800D01*
X4855200Y3939800D01*
X4672700Y4109900D02*
X4699700D01*
X4672700Y4109900D02*
Y4082900D01*
X4672700Y4109900D02*
X4699700Y4082900D01*
X4649700Y4157900D02*
Y4132900D01*
X4672700Y4109900D01*
X4842700Y4119900D02*
X4869700D01*
X4842700Y4119900D02*
Y4092900D01*
X4842700Y4119900D02*
X4829200Y4133400D01*
Y4157900D01*
X4829200Y4133400D02*
X4819700Y4142900D01*
Y4157900D01*
X4869700Y4092900D02*
X4842700Y4119900D01*
X4848880Y4384200D02*
X4829790Y4365110D01*
X4848880Y4384200D02*
X4829790Y4403290D01*
X4848880Y4384200D02*
X5090800D01*
X5320200Y4154800D01*
Y4048540D01*
X5411580Y3957160D01*
X7121590D01*
X7196510Y3882230D01*
Y931090D01*
X4810700Y4384200D02*
X4848880D01*
X4768510Y5263900D02*
X4780230Y5265620D01*
X4768510Y5263900D02*
X4780230Y5252180D01*
X4786950Y5258900D02*
X4781950Y5263900D01*
X4768510D01*
X4893770Y5973900D02*
X4912860Y5992990D01*
X4893770Y5973900D02*
X4912860Y5954810D01*
X4893770Y5973900D02*
X4856950D01*
X4931950Y5973900D02*
X4893770D01*
X4839130Y6822900D02*
X4894700D01*
X4909700Y6807900D01*
Y6761150D01*
X4936950Y6733900D01*
Y6346250D01*
X4861950Y6271250D01*
X4836310Y6822900D02*
X4811020Y6797610D01*
X4836310Y6822900D02*
X4837720D01*
X4811030Y6796210D01*
X4837720Y6822900D02*
X4839130D01*
X4811040Y6794810D01*
X4839130Y6822900D02*
X4811040Y6832990D01*
X4791950Y6813900D02*
X4800950Y6822900D01*
X4836310D01*
X5082200Y878580D02*
X5101290Y859490D01*
X5082200Y878580D02*
X5063110Y859490D01*
X5082200Y878580D02*
Y840400D01*
X5082200Y927900D02*
Y878580D01*
X4904700Y1046080D02*
X4923790Y1026990D01*
X4904700Y1046080D02*
Y1007900D01*
X5590200Y1587400D02*
X5444700Y1441900D01*
Y1269700D01*
X5382900Y1207900D01*
X4999700D01*
X4904700Y1112900D01*
Y1046080D01*
X4936520Y2247900D02*
X4974700D01*
X4936520Y2247900D02*
X4955610Y2228810D01*
X4936520Y2247900D02*
X4955610Y2266990D01*
X5156520Y2292900D02*
X5175610Y2311990D01*
X5156520Y2292900D02*
X5175610Y2273810D01*
X5194700Y2292900D02*
X5156520D01*
X5077380Y2602400D02*
X5053790Y2578810D01*
X5077380Y2602400D02*
X5053790Y2616990D01*
X5077380Y2602400D02*
X5039200D01*
X5034700Y2597900D01*
X5114700Y2602400D02*
X5077380D01*
X4965000Y2873180D02*
X4984090Y2854090D01*
X4965000Y2873180D02*
X4945910Y2854090D01*
X4965000Y2835000D02*
Y2873180D01*
X5114700Y3061080D02*
Y3022900D01*
X5114700Y3061080D02*
X5095610Y3041990D01*
X5114700Y3061080D02*
X5133790Y3041990D01*
X4906700Y3169900D02*
Y3142900D01*
X4906700Y3269900D02*
Y3242900D01*
X5134700Y3987900D02*
Y4027900D01*
X5162700Y4055900D01*
Y4082900D01*
X5162700Y4055900D02*
X5189700D01*
X5162700Y4055900D02*
X5189700Y4082900D01*
X5002700Y4109900D02*
X5029700D01*
X5002700Y4109900D02*
Y4082900D01*
X5002700Y4109900D02*
X4974700Y4137900D01*
Y4157900D01*
X5029700Y4082900D02*
X5002700Y4109900D01*
X5125700Y4873000D02*
X5126950Y4871750D01*
Y4838900D01*
X5156950Y4808900D01*
X5687950D01*
X6321950Y5442900D01*
X6469440D01*
X6469450Y5442890D01*
X6678310D01*
X6678320Y5442900D01*
X6678330D01*
X6679330Y5443900D01*
X6751910D01*
X7054950Y5746940D01*
Y5861900D01*
X7164950Y5971900D01*
X6969950Y5736900D02*
X6711950Y5478900D01*
X6663400D01*
X6663390Y5478890D01*
X6484370D01*
X6484360Y5478900D01*
X6273900D01*
X5643900Y4848900D01*
X5281950D01*
X5271950Y4858900D01*
Y4918000D01*
X5261950Y4928000D01*
X5226950D01*
X5216950Y4918000D01*
Y4858900D01*
X5206950Y4848900D01*
X5176950D01*
X5166950Y4858900D01*
Y4918000D01*
X5156950Y4928000D01*
X5110400D01*
X5126740Y5023900D02*
X5110920Y5039720D01*
X5126740Y5023900D02*
X5391660D01*
X5402660Y5034900D01*
Y5066900D01*
X5413660Y5077900D01*
X5435660D01*
X5446660Y5066900D01*
Y5034900D01*
X5457660Y5023900D01*
X5479660D01*
X5490660Y5034900D01*
Y5066900D01*
X5501660Y5077900D01*
X5523660D01*
X5534660Y5066900D01*
Y5034900D01*
X5545660Y5023900D01*
X5663900D01*
X6190900Y5550900D01*
X6514200D01*
X6514210Y5550890D01*
X6640390D01*
X6853250Y5763750D01*
Y5860080D01*
X6853230Y5860100D01*
Y5927000D01*
X5104200Y5033000D02*
X5113300Y5023900D01*
X5126740D01*
X5148940Y4972900D02*
X5137120Y4971280D01*
X5148940Y4972900D02*
X5137120Y4984720D01*
X5148940Y4972900D02*
X5692970D01*
X5723970Y5003900D01*
Y5003970D01*
X6234900Y5514900D01*
X6499280D01*
X6499290Y5514890D01*
X6655310D01*
X7099950Y5959530D01*
Y5992090D01*
X7190180Y6082320D01*
X5130400Y4978000D02*
X5135500Y4972900D01*
X5148940D01*
X6829070Y6066900D02*
X6781220Y6019050D01*
Y5919780D01*
X6781230Y5919770D01*
Y5830250D01*
X6781240Y5830240D01*
Y5793580D01*
X6610550Y5622890D01*
X6544050D01*
X6544040Y5622900D01*
X6156360D01*
X5785440Y5251980D01*
Y5251970D01*
X5764370Y5230900D01*
X5764350D01*
X5752350Y5218900D01*
X5458830D01*
X5442730Y5202800D01*
X5442720D01*
X5400820Y5160900D01*
X5165000D01*
X5143900Y5182000D01*
X5105800D01*
X7123770Y6207950D02*
X7092280D01*
X7089230Y6204900D01*
X7054950D01*
X6886950Y6036900D01*
X6849990D01*
X6817230Y6004140D01*
Y5845170D01*
X6817240Y5845160D01*
Y5815340D01*
X6817250Y5815330D01*
Y5778670D01*
X6625470Y5586890D01*
X6529130D01*
X6529120Y5586900D01*
X6171900D01*
X5709900Y5124900D01*
X5170020D01*
X5167920Y5127000D01*
X5129500D01*
X5104200Y5287000D02*
X5148200D01*
X5164100Y5302900D01*
X5407990D01*
X5419990Y5290900D01*
X5722510D01*
X6126510Y5694900D01*
X6580720D01*
X6659950Y5774130D01*
Y5774950D01*
X6709220Y5824220D01*
Y5830250D01*
X6709230Y5830260D01*
Y5889920D01*
X6709220Y5889930D01*
Y6063020D01*
X6709950Y6063750D01*
Y6176900D01*
X6714950Y6181900D01*
X7014170Y6293900D02*
X6891950D01*
X6801950Y6203900D01*
Y6104820D01*
X6745220Y6048090D01*
Y5904850D01*
X6745230Y5904840D01*
Y5808490D01*
X6595640Y5658900D01*
X6138900D01*
X5734900Y5254900D01*
X5405060D01*
X5393060Y5266900D01*
X5179020D01*
X5153620Y5241500D01*
X5144120Y5232000D01*
X5130400D01*
X5153620Y5241500D02*
X5130400D01*
X5104100Y5546000D02*
X5069400Y5580700D01*
Y5814930D01*
X5090470Y5836000D01*
X5090480D01*
X5115230Y5860750D01*
X5303830D01*
X5325680Y5838900D01*
X5371950D01*
X5393950Y5860900D01*
Y6047150D01*
X5549700Y6202900D01*
X5887790D01*
X5954790Y6269900D01*
Y6377900D01*
X5965790Y6388900D01*
X5987790D01*
X5998790Y6377900D01*
Y6269900D01*
X6009790Y6258900D01*
X6031790D01*
X6042790Y6269900D01*
Y6377900D01*
X6053790Y6388900D01*
X6075790D01*
X6086790Y6377900D01*
Y6269900D01*
X6097790Y6258900D01*
X6196630D01*
X6215010Y6277280D01*
X5130400Y5491000D02*
X5523360D01*
X5534360Y5502000D01*
Y5541010D01*
X5547250Y5553900D01*
X5565470D01*
X5578360Y5541010D01*
Y5502000D01*
X5589360Y5491000D01*
X5611360D01*
X5622360Y5502000D01*
Y5561010D01*
X5635250Y5573900D01*
X5653470D01*
X5666360Y5561010D01*
Y5502000D01*
X5677360Y5491000D01*
X5769850D01*
X6081750Y5802900D01*
X6481950D01*
X6501950Y5822900D01*
Y5904260D01*
X6543040Y5945350D01*
X6571950D01*
X6597950Y5971350D01*
Y6139720D01*
X6637220Y6240840D02*
Y6189550D01*
X6637950Y6188820D01*
Y5852950D01*
X6588970Y5803970D01*
X6587950D01*
X6550880Y5766900D01*
X6096670D01*
X5770770Y5441000D01*
X5105000D01*
X5129600Y5386000D02*
X5409090D01*
X5419990Y5396900D01*
X5777590D01*
X6111590Y5730900D01*
X6565800D01*
X6623950Y5789050D01*
X6624050D01*
X6673950Y5838950D01*
Y6240790D01*
X6709790Y6276630D01*
Y6371820D01*
X6731950Y6393980D01*
Y6396950D01*
X6192580Y6193520D02*
X6150170D01*
X6131790Y6211900D01*
X5964950D01*
X5926950Y6173900D01*
Y5878900D01*
X5836950Y5788900D01*
X5724950D01*
X5713950Y5799900D01*
Y6137900D01*
X5702950Y6148900D01*
X5583950D01*
X5563950Y6128900D01*
Y5822900D01*
X5543950Y5802900D01*
X5495950D01*
X5484950Y5813900D01*
Y5872900D01*
X5473950Y5883900D01*
X5451950D01*
X5440950Y5872900D01*
Y5813900D01*
X5429950Y5802900D01*
X5310760D01*
X5288910Y5824750D01*
X5191170D01*
X5166420Y5800000D01*
X5105400D01*
X6241950Y5975720D02*
Y5908900D01*
X6221950Y5888900D01*
X6141950D01*
X6121950Y5908900D01*
Y5978900D01*
X6151950Y6008900D01*
Y6052900D01*
X6121950Y6082900D01*
Y6118900D01*
X6101950Y6138900D01*
X6041950D01*
X6021950Y6118900D01*
Y5853900D01*
X5863050Y5695000D01*
X5706950D01*
X5670850Y5658900D01*
X5613050D01*
X5576950Y5695000D01*
X5316080D01*
X5303830Y5682750D01*
X5212220D01*
X5199970Y5695000D01*
X5106950D01*
X5130300Y5745000D02*
X5164920D01*
X5174170Y5735750D01*
X5210140D01*
X5227140Y5718750D01*
X5288910D01*
X5315160Y5745000D01*
X5573050D01*
X5599950Y5771900D01*
Y6084280D01*
X5619570Y6103900D01*
X5647330D01*
X5666950Y6084280D01*
Y5763900D01*
X5686950Y5743900D01*
X5846950D01*
X5976950Y5873900D01*
Y6155900D01*
X5996950Y6175900D01*
X6116870D01*
X6157950Y6134820D01*
Y6134740D01*
X6178950Y6113740D01*
Y6111200D01*
X6213770D01*
X6465050Y5977780D02*
X6441170Y5953900D01*
X6316950D01*
X6286950Y5923900D01*
Y5868900D01*
X6261950Y5843900D01*
X6068950D01*
X5865050Y5640000D01*
X5796950D01*
X5776950Y5620000D01*
Y5553900D01*
X5756950Y5533900D01*
X5731950D01*
X5711950Y5553900D01*
Y5593900D01*
X5691950Y5613900D01*
X5584650D01*
X5558550Y5640000D01*
X5334620D01*
X5323620Y5629000D01*
Y5539900D01*
X5312620Y5528900D01*
X5290620D01*
X5279620Y5539900D01*
Y5629000D01*
X5268620Y5640000D01*
X5246620D01*
X5235620Y5629000D01*
Y5539900D01*
X5224620Y5528900D01*
X5202620D01*
X5191620Y5539900D01*
Y5629000D01*
X5180620Y5640000D01*
X5127000D01*
X5085130Y6108900D02*
X5066040Y6089810D01*
X5085130Y6108900D02*
X5066040Y6127990D01*
X5085130Y6108900D02*
X5118510D01*
X5131950D01*
X5134300Y6111250D01*
X5118510Y6108900D02*
X5127580Y6104530D01*
X5118510Y6108900D02*
X5127580Y6117970D01*
X5046950Y6108900D02*
X5085130D01*
X5104300Y6166250D02*
X5169600D01*
X5169950Y6165900D01*
X5069600Y6216250D02*
X5059270D01*
X5069600Y6216250D02*
X5139300D01*
X5036950Y6220930D02*
X5058980D01*
X5061950Y6223900D01*
X5069600Y6216250D01*
X5071950Y6338900D02*
X5090910Y6324860D01*
X5071950Y6338900D02*
X5071960Y6305900D01*
X5071950Y6338900D02*
X5036950D01*
X5091950Y6298900D02*
Y6318900D01*
X5071950Y6338900D01*
X5103050Y6616100D02*
X5107450Y6625600D01*
X5103050Y6616100D02*
X5116950D01*
X5103050Y6616100D02*
X5112550Y6625600D01*
X5116950D01*
X5096950Y6602080D02*
X5111040Y6577990D01*
X5096950Y6602080D02*
X5072860Y6577990D01*
X5096950Y6602080D02*
Y6563900D01*
X5091950Y6558900D01*
X5096950Y6602080D02*
Y6610000D01*
X5103050Y6616100D01*
X5048370Y6671180D02*
X5042000Y6651710D01*
X5048370Y6671180D02*
X5022530Y6671170D01*
X5048370Y6671180D02*
X5057490D01*
X5066910Y6680600D01*
X5106950D01*
X5017530Y6649180D02*
X5021950Y6644760D01*
X5048370Y6671180D01*
X5080130Y6730600D02*
X5061040Y6711510D01*
X5080130Y6730600D02*
X5061040Y6749690D01*
X5080130Y6730600D02*
X5041950D01*
X5136950Y6730600D02*
X5080130D01*
X6283980Y6735200D02*
X6273280Y6745900D01*
X6035260D01*
X6035250Y6745890D01*
X5945760D01*
X5945750Y6745900D01*
X5688910D01*
X5648910Y6705900D01*
X5604990D01*
X5603990Y6706900D01*
X5469700D01*
X5459700Y6696900D01*
Y6422900D01*
X5449700Y6412900D01*
X5414700D01*
X5404700Y6422900D01*
Y6720600D01*
X5394700Y6730600D01*
X5359700D01*
X5349700Y6720600D01*
Y6422900D01*
X5339700Y6412900D01*
X5313070D01*
X5303070Y6422900D01*
Y6720600D01*
X5293070Y6730600D01*
X5269070D01*
X5259070Y6720600D01*
Y6502900D01*
X5249070Y6492900D01*
X5225070D01*
X5215070Y6502900D01*
Y6720600D01*
X5205070Y6730600D01*
X5136950D01*
X4975130Y6953900D02*
X4956040Y6934810D01*
X5122090Y6783900D02*
X5113670Y6778880D01*
X5122090Y6783900D02*
X5113670Y6792320D01*
X5122090Y6783900D02*
X5108650D01*
X5106950Y6785600D01*
X5010130Y6785600D02*
X4991040Y6766510D01*
X5010130Y6785600D02*
X4991040Y6804690D01*
X5010130Y6785600D02*
X4971950D01*
X5106950Y6785600D02*
X5010130D01*
X6198770Y6843900D02*
X6177930D01*
X6153830Y6819800D01*
X6149730D01*
X6147830Y6817900D01*
X6005420D01*
X6005410Y6817890D01*
X5975600D01*
X5975590Y6817900D01*
X5959700D01*
X5884700Y6892900D01*
Y7157900D01*
X5864700Y7177900D01*
X5834740D01*
X5823740Y7166900D01*
Y7033900D01*
X5812740Y7022900D01*
X5790740D01*
X5779740Y7033900D01*
Y7166900D01*
X5768740Y7177900D01*
X5746740D01*
X5735740Y7166900D01*
Y7033900D01*
X5724740Y7022900D01*
X5702740D01*
X5691740Y7033900D01*
Y7166900D01*
X5680740Y7177900D01*
X5658740D01*
X5647740Y7166900D01*
Y7033900D01*
X5636740Y7022900D01*
X5614740D01*
X5603740Y7033900D01*
Y7166900D01*
X5592740Y7177900D01*
X5469700D01*
X5454700Y7162900D01*
Y7002900D01*
X5394700Y6942900D01*
Y6817900D01*
X5360700Y6783900D01*
X5122090D01*
X5050130Y6898900D02*
X5026040Y6874810D01*
X5050130Y6898900D02*
X5026040Y6912990D01*
X5050130Y6898900D02*
X5011950D01*
X5006950Y6893900D01*
X5106950Y6898900D02*
X5290700D01*
X5319700Y6927900D01*
Y6986600D01*
X5335700Y7002600D01*
X5398700D01*
X5409700Y7013600D01*
Y7035600D01*
X5398700Y7046600D01*
X5335700D01*
X5324700Y7057600D01*
Y7079600D01*
X5335700Y7090600D01*
X5398700D01*
X5409700Y7101600D01*
Y7211900D01*
X5420700Y7222900D01*
X5908700D01*
X5919700Y7211900D01*
Y6922900D01*
X5986800Y6855800D01*
X6138910D01*
X6182010Y6898900D01*
X6468850D01*
X6527200Y6840550D01*
X5106950Y6898900D02*
X5050130D01*
X4978130Y7061900D02*
X4956040Y7039810D01*
X4978130Y7061900D02*
X4956040Y7077990D01*
X4978130Y7061900D02*
X5038910D01*
X5041910Y7058900D01*
X5131950D01*
X4936950Y7058900D02*
X4939950Y7061900D01*
X4978130D01*
X5055130Y7003900D02*
X5031040Y6989810D01*
X5055130Y7003900D02*
X5031040Y7027990D01*
X5055130Y7003900D02*
X5106950D01*
X5011950Y7008900D02*
Y7013900D01*
X5021950Y7003900D01*
X5055130D01*
X4975130Y6953900D02*
X4956040Y6972990D01*
X4975130Y6953900D02*
X4936950D01*
X5123510Y6953900D02*
X5135230Y6965620D01*
X5123510Y6953900D02*
X5135230Y6952180D01*
X5123510Y6953900D02*
X5136950D01*
X5141950Y6958900D01*
X5180700D01*
X5210700Y6988900D01*
X5273700D01*
X5284700Y6999900D01*
Y7021900D01*
X5273700Y7032900D01*
X5210700D01*
X5199700Y7043900D01*
Y7065900D01*
X5210700Y7076900D01*
X5273700D01*
X5284700Y7087900D01*
Y7109900D01*
X5273700Y7120900D01*
X5210700D01*
X5199700Y7131900D01*
Y7153900D01*
X5210700Y7164900D01*
X5273700D01*
X5284700Y7175900D01*
Y7197900D01*
X5273700Y7208900D01*
X5210700D01*
X5199700Y7219900D01*
Y7262900D01*
X5209700Y7272900D01*
X5949700D01*
X5959700Y7262900D01*
Y7222900D01*
X5970700Y7211900D01*
X6058700D01*
X6069700Y7200900D01*
Y7178900D01*
X6058700Y7167900D01*
X5970700D01*
X5959700Y7156900D01*
Y7134900D01*
X5970700Y7123900D01*
X6058700D01*
X6069700Y7112900D01*
Y7090900D01*
X6058700Y7079900D01*
X5970700D01*
X5959700Y7068900D01*
Y7042900D01*
X5969700Y7032900D01*
X6044700D01*
X6054700Y7022900D01*
Y6918800D01*
X6064700Y6908800D01*
X6078770D01*
X5123510Y6953900D02*
X4975130D01*
X5431450Y636470D02*
X5412360Y655560D01*
X5431450Y636470D02*
X5450540Y655560D01*
X5431450Y636470D02*
Y674650D01*
X5431450Y712830D02*
X5450540Y693740D01*
X5431450Y712830D02*
X5412360Y693740D01*
X5431450Y712830D02*
Y674650D01*
X5431450Y589650D02*
Y636470D01*
X5349700Y1102900D02*
Y802900D01*
X5431450Y721150D01*
Y712830D01*
X5272700Y637720D02*
X5253610Y656810D01*
X5272700Y637720D02*
X5291790Y656810D01*
X5272700Y637720D02*
Y675900D01*
X5272700Y600900D02*
Y637720D01*
X5249700Y881080D02*
X5268790Y861990D01*
X5249700Y881080D02*
X5230610Y861990D01*
X5249700Y881080D02*
Y842900D01*
X5249700Y927900D02*
Y881080D01*
X5276700Y1005900D02*
X5249700D01*
X5276700Y1005900D02*
Y1032900D01*
X5276700Y1005900D02*
X5249700Y1032900D01*
X5309700Y937900D02*
Y972900D01*
X5276700Y1005900D01*
X5431450Y877830D02*
X5450540Y858740D01*
X5431450Y877830D02*
X5412360Y858740D01*
X5431450Y877830D02*
Y839650D01*
X5431450Y921150D02*
Y877830D01*
X5277700Y2737300D02*
X5294740Y2720260D01*
Y2710810D01*
X5297650Y2707900D01*
X5304700D01*
X5277700Y2737300D02*
Y2707900D01*
X5277700Y2737300D02*
X5304700Y2734900D01*
X5347880Y3342900D02*
X5328790Y3323810D01*
X5347880Y3342900D02*
X5328790Y3361990D01*
X5347880Y3342900D02*
X5377100D01*
X5388550Y3331450D01*
X5390000D01*
X5309700Y3342900D02*
X5347880D01*
X5223770Y5213900D02*
X5242860Y5232990D01*
X5223770Y5213900D02*
X5242860Y5194810D01*
X5223770Y5213900D02*
X5261950D01*
X5177010Y5213880D02*
X5176950D01*
Y5213900D01*
X5223770D01*
X5228770Y5771750D02*
X5247860Y5790840D01*
X5228770Y5771750D02*
X5247860Y5752660D01*
X5228770Y5771750D02*
X5189100D01*
X5266950Y5771750D02*
X5228770D01*
X5169950Y6165900D02*
Y6138900D01*
X5169950Y6165900D02*
X5196950Y6138900D01*
X5348950Y6050900D02*
Y6023900D01*
X5348950Y6050900D02*
X5321950D01*
X5348950Y6050900D02*
X5321950Y6023900D01*
X6253770Y6528900D02*
X6249360D01*
X6214980Y6494520D01*
X6177570D01*
X6136950Y6453900D01*
X5976950D01*
X5765950Y6242900D01*
X5539700D01*
X5357950Y6061150D01*
Y6059900D01*
X5348950Y6050900D01*
X6848770Y6604000D02*
X6784000D01*
X6715000Y6535000D01*
X6420000D01*
X6355000Y6600000D01*
X6266420D01*
X6234520Y6631900D01*
X5953700D01*
X5942700Y6620900D01*
Y6543900D01*
X5931700Y6532900D01*
X5909700D01*
X5898700Y6543900D01*
Y6620900D01*
X5887700Y6631900D01*
X5865700D01*
X5854700Y6620900D01*
Y6543900D01*
X5843700Y6532900D01*
X5821700D01*
X5810700Y6543900D01*
Y6620900D01*
X5799700Y6631900D01*
X5773700D01*
X5754700Y6612900D01*
Y6487900D01*
X5736950Y6470150D01*
Y6408180D01*
X5646670Y6317900D01*
X5494700D01*
X5420910Y6244110D01*
X5295080D01*
X5251950Y6200980D01*
Y5987080D01*
X5208770Y5943900D02*
X5227860Y5962990D01*
X5208770Y5943900D02*
X5227860Y5924810D01*
X5208770Y5943900D02*
X5197050D01*
X5171950Y5969000D01*
X5251950Y5987080D02*
X5266040Y5962990D01*
X5251950Y5987080D02*
X5227860Y5962990D01*
X5251950Y5987080D02*
Y5948900D01*
X5246950Y5943900D01*
X5208770D01*
X5169950Y6165900D02*
X5196950D01*
X5371700Y6174900D02*
Y6147900D01*
X5371700Y6174900D02*
X5344700D01*
X5371700Y6174900D02*
X5344700Y6147900D01*
X6148570Y6520520D02*
X6117950Y6489900D01*
X5962030D01*
X5755030Y6282900D01*
X5519700D01*
X5424700Y6187900D01*
X5384700D01*
X5371700Y6174900D01*
X5590200Y649220D02*
X5571110Y668310D01*
X5590200Y649220D02*
X5609290Y668310D01*
X5590200Y649220D02*
Y687400D01*
X5590200Y593400D02*
Y649220D01*
X5555000Y1045780D02*
X5574090Y1026690D01*
X5555000Y1045780D02*
X5535910Y1026690D01*
X5555000Y1045780D02*
Y1203200D01*
X5614700Y1262900D01*
X5555000Y1007600D02*
Y1045780D01*
X5669700Y1046080D02*
X5688790Y1026990D01*
X5669700Y1046080D02*
X5650610Y1026990D01*
X5669700Y1046080D02*
Y1189700D01*
X5747150Y1267150D01*
X5748950D01*
X5669700Y1007900D02*
Y1046080D01*
X5614700Y922900D02*
Y1180000D01*
X5649700Y1215000D01*
Y1307900D01*
X5635000Y1322600D01*
Y1685000D01*
X5495000Y1825000D01*
Y2000000D01*
X5609700Y2114700D01*
Y2345300D01*
X5549100Y2405900D01*
X5688250Y1351450D02*
Y1598250D01*
X6084700Y1994700D01*
Y2237900D01*
X6179700Y2332900D01*
Y2884700D01*
X6584700Y3289700D01*
Y3304720D01*
X5511200Y2186900D02*
Y2221400D01*
X5511200Y2186900D02*
X5538200Y2194400D01*
X5511200Y2186900D02*
X5538200Y2213900D01*
Y2221400D01*
X5482140Y2186900D02*
X5471420Y2176180D01*
X5482140Y2186900D02*
X5471420Y2189620D01*
X5482140Y2186900D02*
X5468700D01*
X5464700Y2182900D01*
X5482140Y2186900D02*
X5511200D01*
X5549100Y2405900D02*
X5519700D01*
X5549100Y2405900D02*
X5546700Y2432900D01*
X5549100Y2405900D02*
X5532100Y2422900D01*
X5529700D01*
X5519700Y2432900D01*
X5504700Y6643900D02*
Y6367900D01*
X5514700Y6357900D01*
X5544700D01*
X5554700Y6367900D01*
Y6572900D01*
X5564700Y6582900D01*
X5599700D01*
X5609700Y6572900D01*
Y6367900D01*
X5619700Y6357900D01*
X5635950D01*
X5710950Y6432900D01*
Y6487180D01*
X5721950Y6498180D01*
Y6632980D01*
X5762870Y6673900D01*
X5915910D01*
X5915920Y6673890D01*
X6086170D01*
X6086180Y6673900D01*
X6243450D01*
X6269450Y6647900D01*
X6567910D01*
X6581910Y6633900D01*
X6683770D01*
X5504700Y6643900D02*
X5511590Y6652260D01*
X5504700Y6643900D02*
X5519950Y6643910D01*
X5536950Y6653900D02*
X5514700D01*
X5504700Y6643900D01*
X7078770Y6688900D02*
X7008610D01*
X6997610Y6699900D01*
Y6757900D01*
X6986610Y6768900D01*
X6964610D01*
X6953610Y6757900D01*
Y6699900D01*
X6942610Y6688900D01*
X6920610D01*
X6909610Y6699900D01*
Y6757900D01*
X6898610Y6768900D01*
X6876610D01*
X6865610Y6757900D01*
Y6699900D01*
X6854610Y6688900D01*
X6832610D01*
X6821610Y6699900D01*
Y6797900D01*
X6811610Y6807900D01*
X6787610D01*
X6777610Y6797900D01*
Y6699900D01*
X6766610Y6688900D01*
X6740610D01*
X6729610Y6699900D01*
Y6721900D01*
X6718610Y6732900D01*
X6696610D01*
X6685610Y6721900D01*
Y6699900D01*
X6674610Y6688900D01*
X6652610D01*
X6641610Y6699900D01*
Y6721900D01*
X6630610Y6732900D01*
X6608610D01*
X6597610Y6721900D01*
Y6699900D01*
X6586610Y6688900D01*
X6564610D01*
X6553610Y6699900D01*
Y6721900D01*
X6542610Y6732900D01*
X6520610D01*
X6509610Y6721900D01*
Y6699900D01*
X6498610Y6688900D01*
X6472610D01*
X6461610Y6699900D01*
Y6751900D01*
X6450610Y6762900D01*
X6428610D01*
X6417610Y6751900D01*
Y6699900D01*
X6399910Y6682200D01*
X6286070D01*
X6258370Y6709900D01*
X6050190D01*
X6050180Y6709890D01*
X5930840D01*
X5930830Y6709900D01*
X5747950D01*
X5688950Y6650900D01*
X5679950Y6641900D02*
X5645780D01*
X5679950Y6641900D02*
X5661950Y6623900D01*
X5636950D01*
X5680950Y6642900D02*
X5644800D01*
X5680950Y6642900D02*
X5679950Y6641900D01*
X5681950Y6643900D02*
X5643820D01*
X5681950Y6643900D02*
X5680950Y6642900D01*
X5682950Y6644900D02*
X5642840D01*
X5682950Y6644900D02*
X5681950Y6643900D01*
X5683950Y6645900D02*
X5641860D01*
X5683950Y6645900D02*
X5682950Y6644900D01*
X5684950Y6646900D02*
X5640880D01*
X5684950Y6646900D02*
X5683950Y6645900D01*
X5685950Y6647900D02*
X5639900D01*
X5685950Y6647900D02*
X5684950Y6646900D01*
X5686950Y6648900D02*
X5638920D01*
X5686950Y6648900D02*
X5685950Y6647900D01*
X5687950Y6649900D02*
X5637940D01*
X5687950Y6649900D02*
X5686950Y6648900D01*
X5688950Y6650900D02*
X5663950Y6623900D01*
X5688950Y6650900D02*
X5636950D01*
X5688950Y6650900D02*
X5687950Y6649900D01*
X5649950Y6781900D02*
Y6762900D01*
X5649950Y6781900D02*
X5630950Y6781890D01*
X5649950Y6781900D02*
X5960670D01*
X5960680Y6781890D01*
X6020330D01*
X6020340Y6781900D01*
X6132910D01*
X6132920Y6781890D01*
X6277990D01*
X6301100Y6805000D01*
X6475000D01*
X6519450Y6760550D01*
X6585550D01*
X6605000Y6780000D01*
Y6978200D01*
X6614700Y6987900D01*
X6640700D01*
X6651700Y6976900D01*
Y6849900D01*
X6662700Y6838900D01*
X6684700D01*
X6695700Y6849900D01*
Y6976900D01*
X6706700Y6987900D01*
X6728700D01*
X6739700Y6976900D01*
Y6849900D01*
X6750700Y6838900D01*
X6772700D01*
X6783700Y6849900D01*
Y6976900D01*
X6794700Y6987900D01*
X6816700D01*
X6827700Y6976900D01*
Y6849900D01*
X6838700Y6838900D01*
X6860700D01*
X6871700Y6849900D01*
Y6976900D01*
X6882700Y6987900D01*
X6936950D01*
X6946950Y6977900D01*
Y6857080D01*
X5626950Y6758900D02*
X5649950Y6781900D01*
X5829700Y551080D02*
X5848790Y531990D01*
X5829700Y551080D02*
X5810610Y531990D01*
X5829700Y551080D02*
Y512900D01*
X5748950Y638970D02*
X5729860Y658060D01*
X5748950Y638970D02*
X5768040Y658060D01*
X5748950Y638970D02*
Y677150D01*
X5748950Y588650D02*
Y638970D01*
X5907700Y636720D02*
X5888610Y655810D01*
X5907700Y636720D02*
X5926790Y655810D01*
X5907700Y636720D02*
Y674900D01*
X5907700Y589900D02*
Y636720D01*
X5864700Y950020D02*
Y857900D01*
X5829700Y822900D01*
Y551080D01*
X5784900Y864900D02*
X5781700Y837900D01*
X5784900Y864900D02*
X5754700D01*
X5784900Y864900D02*
X5824700Y904700D01*
Y1194900D01*
X5907700Y1277900D01*
X5754700Y837900D02*
X5757900D01*
X5784900Y864900D01*
X6710000Y3659420D02*
Y3463320D01*
X6739700Y3433620D01*
Y3228620D01*
X6684700Y3173620D01*
Y2897720D01*
X6521200Y2734220D01*
Y2601440D01*
X6544200Y2578440D01*
Y2415850D01*
X6405000Y2276650D01*
Y1921700D01*
X6289200Y1805900D01*
Y1249200D01*
X6165000Y1125000D01*
X6116800D01*
X5914700Y922900D01*
X5789700Y942900D02*
Y1203750D01*
X5812700Y1226750D01*
Y1627700D01*
X6146710Y1961710D01*
Y2201710D01*
X6425000Y2480000D01*
Y2828200D01*
X6477690Y2880890D01*
X5719700Y927900D02*
Y1177600D01*
X5781700Y1239600D01*
Y1646050D01*
X6115700Y1980050D01*
Y2215700D01*
X6390000Y2490000D01*
Y2893200D01*
X6544700Y3047900D01*
Y3069720D01*
X5864700Y950020D02*
X6089680Y1175000D01*
X6168770D01*
X6263200Y1269430D01*
Y1823200D01*
X6375000Y1935000D01*
Y2290500D01*
X6518200Y2433700D01*
Y2560590D01*
X6495200Y2583590D01*
Y2752070D01*
X6653700Y2910570D01*
Y3186470D01*
X6689700Y3222470D01*
Y3374720D01*
X5782700Y2129900D02*
X5809700D01*
X5782700Y2129900D02*
Y2102900D01*
X5782700Y2129900D02*
X5809700Y2102900D01*
X5780700Y2211900D02*
Y2131900D01*
X5782700Y2129900D01*
X5864550Y2379840D02*
X5891550D01*
X5864550Y2379840D02*
Y2352840D01*
X5891550Y2352840D02*
X5864550Y2379840D01*
X6066450Y647970D02*
X6047360Y667060D01*
X6066450Y647970D02*
X6085540Y667060D01*
X6066450Y647970D02*
Y686150D01*
X6066450Y589650D02*
Y647970D01*
X6225200Y649220D02*
X6206110Y668310D01*
X6225200Y649220D02*
X6244290Y668310D01*
X6225200Y649220D02*
Y687400D01*
X6225200Y593400D02*
Y649220D01*
X6074700Y881080D02*
X6093790Y861990D01*
X6074700Y881080D02*
X6055610Y861990D01*
X6074700Y881080D02*
Y912900D01*
X6094700Y932900D01*
X6074700Y842900D02*
Y881080D01*
X6256400Y878200D02*
X6229400Y875200D01*
X6229400Y848200D02*
Y851200D01*
X6256400Y878200D01*
X6209700Y922900D02*
Y1009700D01*
X6351450Y1151450D01*
Y1287120D01*
X6412200Y1347870D01*
Y1627220D01*
X6749700Y2962900D02*
Y2918870D01*
X6547200Y2716370D01*
Y2619290D01*
X6570200Y2596290D01*
Y2398000D01*
X6434700Y2262500D01*
Y1784700D01*
X6320450Y1670450D01*
Y1208650D01*
X6034700Y922900D01*
X6075950Y1285950D02*
Y1272900D01*
X6075950Y1285950D02*
X6066450Y1282400D01*
X6075950Y1285950D02*
X6190000Y1400000D01*
Y2195000D01*
X6459700Y2464700D01*
Y2527900D01*
X6066450Y1272900D02*
Y1276450D01*
X6075950Y1285950D01*
X6225200Y1277400D02*
Y2185200D01*
X6492200Y2452200D01*
Y2541370D01*
X6464200Y2569370D01*
Y2764920D01*
X6622700Y2923420D01*
Y3199320D01*
X6640000Y3216620D01*
Y3380000D01*
X6630000Y3390000D01*
Y3609720D01*
X6247000Y3513000D02*
X6220000Y3518000D01*
X6220000Y3545000D02*
Y3540000D01*
X6247000Y3513000D01*
X6253950Y4496900D02*
X6226950D01*
X6253950Y4496900D02*
X6226950Y4523900D01*
X6259960Y4377430D02*
X6221780D01*
X6241950Y5975720D02*
X6222860Y5994810D01*
X6213770Y6111200D02*
X6232860Y6130290D01*
X6213770Y6111200D02*
X6232860Y6092110D01*
X6213770Y6111200D02*
X6251950D01*
X6215010Y6277280D02*
Y6304280D01*
X6215010Y6277280D02*
X6242010D01*
X6215010Y6277280D02*
X6242010Y6304280D01*
X6192580Y6193520D02*
X6211670Y6212610D01*
X6192580Y6193520D02*
X6211670Y6174430D01*
X6230760Y6193520D02*
X6192580D01*
X6152570Y6524520D02*
X6189060D01*
X6152570Y6524520D02*
X6151570Y6523520D01*
X6190050D01*
X6151570Y6523520D02*
X6150570Y6522520D01*
X6191040D01*
X6150570Y6522520D02*
X6149570Y6521520D01*
X6192030D01*
X6149570Y6521520D02*
X6148570Y6520520D01*
X6166020Y6547520D01*
X6148570Y6520520D02*
X6193020D01*
X6193020Y6547520D02*
X6175570D01*
X6152570Y6524520D01*
X6078770Y6908800D02*
X6116950D01*
X6078770Y6908800D02*
X6097860Y6889710D01*
X6078770Y6908800D02*
X6097860Y6927890D01*
X6236950Y6843900D02*
X6198770D01*
X6217860Y6824810D01*
X6198770Y6843900D02*
X6217860Y6862990D01*
X6383950Y648970D02*
X6364860Y668060D01*
X6383950Y648970D02*
X6403040Y668060D01*
X6383950Y648970D02*
Y687150D01*
X6383950Y588650D02*
Y648970D01*
X6256400Y878200D02*
Y848200D01*
X6256400Y878200D02*
X6273200Y895000D01*
Y932960D01*
X6267980Y941180D01*
X6273200Y932960D02*
X6281420Y941180D01*
X6273200Y932960D02*
Y946400D01*
X6274700Y947900D01*
X6406700Y874900D02*
Y847900D01*
X6406700Y874900D02*
X6379700D01*
X6406700Y874900D02*
X6379700Y847900D01*
X6383950Y1273650D02*
X6409700Y1247900D01*
Y877900D01*
X6406700Y874900D01*
X6517700Y2130900D02*
X6462200Y2075400D01*
Y1149150D01*
X6444700Y1131650D01*
Y950020D01*
X6374700Y966640D02*
X6352420Y988810D01*
X6374700Y966640D02*
Y987900D01*
X6354700Y1007900D01*
X6374700Y965230D02*
X6351010Y988810D01*
X6374700Y965230D02*
Y966640D01*
X6374700Y963820D02*
X6349610Y988810D01*
X6374700Y963820D02*
Y965230D01*
X6374700Y962410D02*
X6348210Y988810D01*
X6374700Y962410D02*
Y963820D01*
X6374700Y961000D02*
X6346810Y988810D01*
X6374700Y961000D02*
Y962410D01*
X6374700Y959590D02*
X6345410Y988810D01*
X6374700Y959590D02*
Y961000D01*
X6374700Y958180D02*
X6344010Y988810D01*
X6374700Y958180D02*
Y959590D01*
X6374700Y956770D02*
X6342610Y988810D01*
X6374700Y956770D02*
Y958180D01*
X6374700Y955360D02*
X6341210Y988810D01*
X6374700Y955360D02*
Y956770D01*
X6374700Y953950D02*
X6339810Y988810D01*
X6374700Y953950D02*
Y955360D01*
X6374700Y952540D02*
X6338410Y988810D01*
X6374700Y952540D02*
Y953950D01*
X6374700Y951130D02*
X6337010Y988810D01*
X6374700Y951130D02*
Y952540D01*
X6374700Y949720D02*
X6335610Y988810D01*
X6374700Y949720D02*
Y951130D01*
X6374700Y917900D02*
Y949720D01*
X6412200Y1627220D02*
X6393110Y1646310D01*
X6412200Y1627220D02*
X6431290Y1646310D01*
X6412200Y1627220D02*
Y1665400D01*
X6477690Y2880890D02*
Y2907890D01*
X6477690Y2880890D02*
X6504690D01*
X6477690Y2880890D02*
X6504690Y2907890D01*
X6247000Y3513000D02*
X6287100Y3472900D01*
X6309700D01*
X6247000Y3513000D02*
Y3545000D01*
X6296630Y4298900D02*
X6311020D01*
X6494020Y4115900D01*
X6763910D01*
X6834900Y4186890D01*
X6938040D01*
X7033930Y4091000D01*
X7186890D01*
X7207960Y4112070D01*
Y4112080D01*
X7222880Y4127000D01*
X7369660D01*
X7486580Y4243920D01*
X7486590D01*
X7497670Y4255000D01*
X6328510Y4183900D02*
X6340230Y4185620D01*
X6328510Y4183900D02*
X6340230Y4172180D01*
X6328510Y4183900D02*
X6300130D01*
X6281040Y4164810D01*
X6300130Y4183900D02*
X6281040Y4202990D01*
X6300130Y4183900D02*
X6261950D01*
X6346950Y4178900D02*
X6341950Y4183900D01*
X6328510D01*
X7621270Y4614000D02*
X7388120D01*
X7313320Y4539200D01*
X7277950D01*
Y4538970D01*
X7256880Y4517900D01*
X7255950D01*
X7241950Y4503900D01*
X7147880D01*
X7121870Y4477900D01*
X7114870Y4470900D01*
X7054910D01*
X6943910Y4581900D01*
X6845000D01*
X6835000Y4571900D01*
X6564950D01*
X6513950Y4520900D01*
X6464990D01*
X6371990Y4613900D01*
X6305130D01*
X6253950Y4496900D02*
Y4523900D01*
X6253950Y4496900D02*
X6297950Y4452900D01*
X6510990D01*
X6566090Y4508000D01*
X6847000D01*
X6890000Y4465000D01*
X6924050D01*
X6999040Y4390010D01*
X7076140D01*
X7076150Y4390000D01*
X7135810D01*
X7135820Y4390010D01*
X7348060D01*
X7421950Y4463900D01*
Y4483770D01*
X7643610Y4368490D02*
X7639110Y4363990D01*
X7474810D01*
X7413950Y4303140D01*
Y4274050D01*
X7349790Y4209890D01*
X7290880D01*
X7290870Y4209900D01*
X7235070D01*
X7162970Y4282000D01*
X7096470D01*
X7073370Y4258900D01*
X6846950D01*
X6791960Y4313890D01*
X6661940D01*
X6613890Y4265840D01*
X6519830D01*
X6443350Y4342320D01*
Y4342500D01*
X6408420Y4377430D01*
X6259960D01*
X6240870Y4358340D01*
X6259960Y4377430D02*
X6240870Y4396520D01*
X6296630Y4298900D02*
X6277540Y4279810D01*
X6296630Y4298900D02*
X6277540Y4317990D01*
X6258450Y4298900D02*
X6296630D01*
X6305130Y4613900D02*
X6286040Y4594810D01*
X6305130Y4613900D02*
X6286040Y4632990D01*
X6305130Y4613900D02*
X6266950D01*
X6513950Y4600900D02*
X6486950D01*
X6513950Y4600900D02*
X6486950Y4573900D01*
X6369950Y4775350D02*
X6396950D01*
X6369950Y4775350D02*
Y4748350D01*
X6369950Y4775350D02*
X6396950Y4748350D01*
X6369950Y4721350D02*
Y4748350D01*
X6369950Y4721350D02*
X6396950D01*
X6369950Y4721350D02*
X6396950Y4748350D01*
X6423950Y4721350D02*
X6396950D01*
X6423950Y4721350D02*
Y4748350D01*
X6423950Y4721350D02*
X6396950Y4748350D01*
X6321950Y4778900D02*
X6366400D01*
X6369950Y4775350D01*
X6316950Y4708900D02*
X6357500D01*
X6369950Y4721350D01*
X6601950Y4643900D02*
X6501400D01*
X6423950Y4721350D01*
X6503950Y5040900D02*
X6476950D01*
X6503950Y5040900D02*
X6476950Y5013900D01*
X6349010Y5867360D02*
Y5894360D01*
X6349010Y5867360D02*
X6376010D01*
X6349010Y5867360D02*
X6376010Y5894360D01*
X6321950Y5838900D02*
Y5840300D01*
X6349010Y5867360D01*
X6241950Y5975720D02*
X6261040Y5994810D01*
X6241950Y6013900D02*
Y5975720D01*
X6465050Y5977780D02*
Y6004780D01*
X6465050Y5977780D02*
X6492050D01*
X6492050Y6004780D02*
X6465050Y5977780D01*
X6528950Y6086310D02*
X6501950Y6113310D01*
X6321450Y6386400D02*
X6311950Y6394400D01*
X6321450Y6386400D02*
Y6403900D01*
X6321450Y6386400D02*
X6329950Y6377900D01*
X6366950Y6396260D02*
X6340660Y6369970D01*
X6366950Y6396260D02*
Y6397670D01*
X6339260Y6369980D01*
X6366950Y6397670D02*
Y6399080D01*
X6376040Y6369990D01*
X6366950Y6399080D02*
X6337860Y6369990D01*
X6366950Y6399080D02*
Y6418900D01*
X6336950Y6448900D01*
X6329950Y6377900D02*
X6356950D01*
X6329950Y6377900D02*
Y6350900D01*
X6329950Y6377900D02*
X6356950Y6350900D01*
X6366950Y6360900D01*
Y6396260D01*
X6311950Y6403900D02*
Y6395900D01*
X6321450Y6386400D01*
X6253770Y6528900D02*
X6272860Y6547990D01*
X6253770Y6528900D02*
X6272860Y6509810D01*
X6291950Y6528900D02*
X6253770D01*
X6316950Y6735200D02*
X6283980D01*
X6297870Y6721330D01*
X6283980Y6735200D02*
X6297860Y6749080D01*
X6542700Y642720D02*
X6523610Y661810D01*
X6542700Y642720D02*
X6561790Y661810D01*
X6542700Y642720D02*
Y680900D01*
X6542700Y600900D02*
Y642720D01*
X6701450Y641470D02*
X6682360Y660560D01*
X6701450Y641470D02*
X6720540Y660560D01*
X6701450Y641470D02*
Y679650D01*
X6701450Y589650D02*
Y641470D01*
X6599700Y989720D02*
X6580610Y1008810D01*
X6599700Y989720D02*
X6618790Y1008810D01*
X6599700Y989720D02*
Y956340D01*
X6611420Y944620D01*
X6599700Y956340D02*
X6597980Y944620D01*
X6599700Y956340D02*
Y942900D01*
X6604700Y937900D01*
X6599700Y1027900D02*
Y989720D01*
X6764700Y999720D02*
X6745610Y1018810D01*
X6764700Y999720D02*
X6783790Y1018810D01*
X6764700Y999720D02*
Y948400D01*
X6764950Y948150D01*
X6764700Y1037900D02*
Y999720D01*
X6796700Y3600900D02*
X7039700Y3357900D01*
Y2802900D01*
X6860700Y2623900D01*
Y2495050D01*
X6699700Y2334050D01*
Y1954700D01*
X6625000Y1880000D01*
Y1292600D01*
X6701450Y1216150D01*
Y926150D01*
X6542700Y914900D02*
Y1076300D01*
X6530000Y1089000D01*
Y1905000D01*
X6612200Y1987200D01*
Y2334250D01*
X6754700Y2476750D01*
Y2549720D01*
X6574450Y1272900D02*
Y1895880D01*
X6643200Y1964630D01*
Y2321400D01*
X6829700Y2507900D01*
Y2657900D01*
X7004700Y2832900D01*
Y3332900D01*
X6934700Y3402900D01*
X6867880D01*
X6772700Y2150900D02*
X6739700Y2117900D01*
Y1412900D01*
X6764700Y1387900D01*
Y1267900D01*
X6764950Y1267650D01*
X6694700Y1342900D02*
Y1381080D01*
Y1512900D01*
X6694700Y1381080D02*
X6675610Y1361990D01*
X6694700Y1381080D02*
X6713790Y1361990D01*
X6517700Y2130900D02*
Y2157900D01*
X6517700Y2130900D02*
X6544700D01*
X6544700Y2157900D02*
X6517700Y2130900D01*
X6769200Y2318400D02*
X6754700D01*
X6769200Y2318400D02*
X6764200Y2327900D01*
X6754700Y2327900D02*
X6759700D01*
X6769200Y2318400D01*
X6659700Y2479720D02*
Y2443650D01*
X6579700Y2363650D01*
Y2327900D01*
X6659700Y2479720D02*
X6640610Y2498810D01*
X6659700Y2479720D02*
X6678790Y2498810D01*
X6659700Y2517900D02*
Y2479720D01*
X6754700Y2549720D02*
X6735610Y2568810D01*
X6754700Y2549720D02*
X6773790Y2568810D01*
X6754700Y2549720D02*
Y2587900D01*
X6727700Y2614900D02*
X6754700D01*
X6727700Y2614900D02*
Y2587900D01*
X6727700Y2614900D02*
X6754700Y2587900D01*
X6669700Y2652900D02*
X6689700D01*
X6727700Y2614900D01*
X6579700Y2657510D02*
X6604620D01*
X6579700Y2657510D02*
X6579710Y2632590D01*
X6579700Y2657510D02*
Y2702900D01*
X6605660Y2631550D02*
X6579700Y2657510D01*
X6707720Y2726700D02*
X6726810Y2745790D01*
X6707720Y2726700D02*
X6726810Y2707610D01*
X6707720Y2726700D02*
X6745900D01*
X6638500Y2726700D02*
X6707720D01*
X6734700Y3114720D02*
X6715610Y3133810D01*
X6734700Y3114720D02*
X6753790Y3133810D01*
X6734700Y3114720D02*
Y2977900D01*
X6749700Y2962900D01*
X6734700Y3152900D02*
Y3114720D01*
X6544700Y3069720D02*
X6525610Y3088810D01*
X6544700Y3069720D02*
X6563790Y3088810D01*
X6544700Y3069720D02*
Y3107900D01*
X6689700Y3374720D02*
X6670610Y3393810D01*
X6689700Y3374720D02*
X6708790Y3393810D01*
X6689700Y3374720D02*
Y3412900D01*
X6584700Y3304720D02*
X6565610Y3323810D01*
X6584700Y3304720D02*
X6603790Y3323810D01*
X6584700Y3304720D02*
Y3342900D01*
X6710000Y3659420D02*
X6690910Y3678510D01*
X6710000Y3659420D02*
X6729090Y3678510D01*
X6710000Y3697600D02*
Y3659420D01*
X6630000Y3609720D02*
X6610910Y3628810D01*
X6630000Y3609720D02*
X6649090Y3628810D01*
X6630000Y3609720D02*
Y3647900D01*
X8025910Y4323900D02*
X7485640D01*
X7449950Y4288210D01*
Y4259130D01*
X7364710Y4173890D01*
X7275960D01*
X7275950Y4173900D01*
X7218860D01*
X7171960Y4127000D01*
X7048850D01*
X6952950Y4222900D01*
X6832030D01*
X6777040Y4277890D01*
X6725060D01*
X6718070Y4270900D01*
X6709070Y4261900D02*
X6675780Y4261890D01*
X6709070Y4261900D02*
X6691070Y4243900D01*
X6666950D01*
X6710070Y4262900D02*
X6674800Y4262890D01*
X6710070Y4262900D02*
X6709070Y4261900D01*
X6711070Y4263900D02*
X6673820D01*
X6711070Y4263900D02*
X6710070Y4262900D01*
X6712070Y4264900D02*
X6672840D01*
X6712070Y4264900D02*
X6711070Y4263900D01*
X6713070Y4265900D02*
X6671860D01*
X6713070Y4265900D02*
X6712070Y4264900D01*
X6714070Y4266900D02*
X6670880D01*
X6714070Y4266900D02*
X6713070Y4265900D01*
X6715070Y4267900D02*
X6669900D01*
X6715070Y4267900D02*
X6714070Y4266900D01*
X6716070Y4268900D02*
X6668920D01*
X6716070Y4268900D02*
X6715070Y4267900D01*
X6717070Y4269900D02*
X6667940D01*
X6717070Y4269900D02*
X6716070Y4268900D01*
X6718070Y4270900D02*
X6693950Y4243900D01*
X6718070Y4270900D02*
X6666950D01*
X6718070Y4270900D02*
X6717070Y4269900D01*
X6592310Y4158900D02*
X6566020Y4185170D01*
X6592310Y4158900D02*
X6556950D01*
X6546950Y4168900D01*
X6593720Y4158900D02*
X6566030Y4186580D01*
X6593720Y4158900D02*
X6592310D01*
X6595130Y4158900D02*
X6566040Y4149810D01*
X6595130Y4158900D02*
X6566040Y4187990D01*
X6595130Y4158900D02*
X6593720D01*
X6616950Y4158900D02*
X6595130D01*
X6583950Y4450900D02*
Y4423900D01*
X6583950Y4450900D02*
X6556950D01*
X6583950Y4450900D02*
X6556950Y4423900D01*
X6583950Y4450900D02*
X6605050Y4472000D01*
X6828000D01*
X6870000Y4430000D01*
X6908130D01*
X6963040Y4375090D01*
Y4375080D01*
X6984110Y4354010D01*
X7061220D01*
X7061230Y4354000D01*
X7150730D01*
X7150740Y4354010D01*
X7362980D01*
X7548970Y4540000D01*
X7629970D01*
X7633770Y4536200D01*
X7707530D01*
X7709330Y4538000D01*
X8063770D01*
X6610230Y4336840D02*
X6577020Y4336830D01*
X6610230Y4336840D02*
X6592230Y4318840D01*
X6568190D01*
X6611230Y4337840D02*
X6576040Y4337830D01*
X6611230Y4337840D02*
X6610230Y4336840D01*
X6612230Y4338840D02*
X6575060Y4338830D01*
X6612230Y4338840D02*
X6611230Y4337840D01*
X6613230Y4339840D02*
X6574080Y4339830D01*
X6613230Y4339840D02*
X6612230Y4338840D01*
X6614230Y4340840D02*
X6573100Y4340830D01*
X6614230Y4340840D02*
X6613230Y4339840D01*
X6615230Y4341840D02*
X6572120D01*
X6615230Y4341840D02*
X6614230Y4340840D01*
X6616230Y4342840D02*
X6571140D01*
X6616230Y4342840D02*
X6615230Y4341840D01*
X6617230Y4343840D02*
X6570160D01*
X6617230Y4343840D02*
X6616230Y4342840D01*
X6618230Y4344840D02*
X6569170D01*
X6618230Y4344840D02*
X6617230Y4343840D01*
X6619230Y4345840D02*
X6595190Y4318840D01*
X6619230Y4345840D02*
X6568190D01*
X6619230Y4345840D02*
X6618230Y4344840D01*
X8000520Y4463000D02*
X7838000D01*
X7807000Y4432000D01*
X7720000D01*
X7698100Y4453900D01*
X7628900D01*
X7575000Y4400000D01*
X7459900D01*
X7377950Y4318060D01*
Y4288970D01*
X7334880Y4245900D01*
X7249990D01*
X7177880Y4318010D01*
X7165660D01*
X7165650Y4318000D01*
X7046310D01*
X7046300Y4318010D01*
X6969180D01*
X6948110Y4339080D01*
Y4339090D01*
X6927040Y4360160D01*
Y4360170D01*
X6892210Y4395000D01*
X6848900D01*
X6828990Y4414910D01*
X6688300D01*
X6619230Y4345840D01*
X6513950Y4600900D02*
Y4573900D01*
X6513950Y4600900D02*
X6520950Y4607900D01*
X6685000D01*
X6695000Y4617900D01*
X6962990D01*
X7009990Y4570900D01*
X7056950D01*
X7080720Y4594670D01*
X7210250D01*
X7212020Y4592900D01*
X7248870D01*
X7250640Y4594670D01*
X7306030D01*
X7389560Y4678200D01*
X7692610D01*
X7735910Y4634900D01*
X7813830D01*
X7817830Y4638900D01*
X7888770D01*
X6600330Y4701120D02*
X6581240Y4682030D01*
X6600330Y4701120D02*
X6581240Y4720210D01*
X6600330Y4701120D02*
X6562150D01*
X8051950Y4713900D02*
X8033050Y4695000D01*
X7860000D01*
X7835900Y4670900D01*
X7754990D01*
X7712990Y4712900D01*
X7325950D01*
X7284750Y4671700D01*
X7281740Y4668700D01*
X7145140D01*
X7136940Y4676900D01*
X7009990D01*
X6989170Y4656080D01*
X6719770D01*
X6674730Y4701120D01*
X6600330D01*
X7444950Y4936900D02*
X7390750Y4882700D01*
X7093870D01*
X7087070Y4875900D01*
X6679520D01*
X6650810Y4904610D01*
X6623810D01*
X6650810Y4904610D02*
Y4931610D01*
X6650810Y4904610D02*
X6623810Y4931610D01*
X6650900Y5021890D02*
X6631810Y5002800D01*
X6650900Y5021890D02*
X6631810Y5040980D01*
X6650900Y5021890D02*
X6612720D01*
X7926650Y4996960D02*
X7899540Y4969850D01*
X7694290D01*
X7663250Y5000890D01*
Y5002040D01*
X7648390Y5016900D01*
X7306950D01*
X7262250Y4972200D01*
X7143650D01*
X7129150Y4986700D01*
X6862440D01*
X6827250Y5021890D01*
X6650900D01*
X7841650Y5049850D02*
X7813150Y5078350D01*
X7696790D01*
X7684340Y5065900D01*
X7267130D01*
X7254830Y5078200D01*
X7135000D01*
X7121800Y5065000D01*
X6941810D01*
X6914110Y5092700D01*
X6605710D01*
X6578910Y5065900D01*
X6528950D01*
X6503950Y5040900D01*
Y5013900D01*
X6551450Y5338400D02*
X6546450Y5328900D01*
X6551450Y5338400D02*
X6536950D01*
X6551450Y5338400D02*
X6564950Y5351900D01*
X6536950Y5328900D02*
X6541950D01*
X6551450Y5338400D01*
X6564950Y5351900D02*
Y5378900D01*
X6564950Y5351900D02*
X6591950D01*
X6564950Y5351900D02*
X6591950Y5378900D01*
X6551950Y5848170D02*
X6577040Y5873260D01*
X6551950Y5848170D02*
Y5879300D01*
X6565000Y5892350D01*
X6551950Y5846760D02*
X6578450Y5873260D01*
X6551950Y5846760D02*
Y5848170D01*
X6551950Y5845350D02*
X6579860Y5873260D01*
X6551950Y5845350D02*
Y5846760D01*
X6551950Y5843940D02*
X6581270Y5873260D01*
X6551950Y5843940D02*
Y5845350D01*
X6551950Y5842530D02*
X6582680Y5873260D01*
X6551950Y5842530D02*
Y5843940D01*
X6551950Y5841120D02*
X6545910Y5873260D01*
X6551950Y5841120D02*
X6584090Y5873260D01*
X6551950Y5841120D02*
Y5842530D01*
X6551950Y5818900D02*
Y5841120D01*
X6597950Y6142540D02*
X6565660Y6174810D01*
X6597950Y6141130D02*
X6564260Y6174810D01*
X6597950Y6141130D02*
Y6142540D01*
X6597950Y6139720D02*
X6562860Y6174810D01*
X6597950Y6139720D02*
X6601040Y6174810D01*
X6597950Y6139720D02*
Y6141130D01*
X6528950Y6086310D02*
X6501950D01*
X6528950Y6086310D02*
Y6113310D01*
X6561950Y6068900D02*
X6546360D01*
X6528950Y6086310D01*
X6756950Y6252770D02*
X6732130Y6227940D01*
X6756950Y6252770D02*
Y6254180D01*
X6730730Y6227950D01*
X6756950Y6254180D02*
Y6255590D01*
X6729330Y6227960D01*
X6756950Y6255590D02*
Y6257000D01*
X6727930Y6227970D01*
X6756950Y6257000D02*
Y6258410D01*
X6726530Y6227980D01*
X6756950Y6258410D02*
Y6259820D01*
X6760770Y6227990D01*
X6756950Y6259820D02*
X6725130Y6227990D01*
X6756950Y6259820D02*
X6820030Y6322900D01*
X6831870D01*
X6841870Y6332900D01*
X7001880D01*
X7022880Y6353900D01*
X7596950D01*
X7622950Y6379900D01*
X7871880D01*
X7950880Y6300900D01*
X8004100D01*
X8068000Y6237000D01*
X6714950Y6181900D02*
Y6208900D01*
X6714950Y6181900D02*
X6741950D01*
X6714950Y6181900D02*
X6741950Y6208900D01*
X6756950Y6223900D01*
Y6252770D01*
X6597950Y6151000D02*
X6574060Y6174810D01*
X6597950Y6151000D02*
Y6177900D01*
X6581950Y6193900D01*
X6597950Y6149590D02*
X6572660Y6174810D01*
X6597950Y6149590D02*
Y6151000D01*
X6597950Y6148180D02*
X6571260Y6174810D01*
X6597950Y6148180D02*
Y6149590D01*
X6597950Y6146770D02*
X6569860Y6174810D01*
X6597950Y6146770D02*
Y6148180D01*
X6597950Y6145360D02*
X6568460Y6174810D01*
X6597950Y6145360D02*
Y6146770D01*
X6597950Y6143950D02*
X6567060Y6174810D01*
X6597950Y6143950D02*
Y6145360D01*
X6597950Y6142540D02*
Y6143950D01*
X6637220Y6256350D02*
X6660370Y6279500D01*
X6637220Y6256350D02*
Y6254940D01*
X6661780Y6279500D01*
X6637220Y6254940D02*
Y6253530D01*
X6663190Y6279500D01*
X6637220Y6253530D02*
Y6252120D01*
X6664600Y6279500D01*
X6637220Y6252120D02*
Y6250710D01*
X6666010Y6279500D01*
X6637220Y6250710D02*
Y6249300D01*
X6667420Y6279500D01*
X6637220Y6249300D02*
Y6247890D01*
X6668830Y6279500D01*
X6637220Y6247890D02*
Y6246480D01*
X6670240Y6279500D01*
X6637220Y6246480D02*
Y6245070D01*
X6671650Y6279500D01*
X6637220Y6245070D02*
Y6243660D01*
X6673060Y6279500D01*
X6637220Y6243660D02*
Y6242250D01*
X6674470Y6279500D01*
X6637220Y6242250D02*
Y6240840D01*
X6675880Y6279500D01*
X6651950Y6341610D02*
X6675880Y6317680D01*
X6651950Y6341610D02*
X6637700Y6317680D01*
X6651950Y6341610D02*
Y6303430D01*
X6656790Y6298590D01*
X8069950Y6332550D02*
X8037960Y6364540D01*
Y6468810D01*
X7978870Y6527900D01*
X7803870D01*
X7803860Y6527910D01*
X7774040D01*
X7774030Y6527900D01*
X7637030D01*
X7609130Y6500000D01*
X7090000D01*
X7075000Y6515000D01*
X6770000D01*
X6651950Y6396950D01*
Y6341610D01*
X6656790Y6298590D02*
X6652260D01*
X6651950Y6298900D01*
X6637220Y6284170D01*
Y6256350D01*
X6731950Y6398980D02*
Y6396950D01*
X6809910Y6474910D01*
X7055000D01*
X7063010Y6466900D01*
X7626950D01*
X7651950Y6491900D01*
X7963950D01*
X8001950Y6453900D01*
Y6412080D01*
X6544950Y6276900D02*
Y6303900D01*
X6544950Y6276900D02*
X6571950D01*
X6544950Y6276900D02*
X6571950Y6303900D01*
X6526450Y6258400D02*
Y6238900D01*
X6526450Y6258400D02*
X6544950Y6276900D01*
X6516950Y6238900D02*
Y6248900D01*
X6526450Y6258400D01*
X6683770Y6633900D02*
X6702860Y6652990D01*
X6683770Y6633900D02*
X6702860Y6614810D01*
X6683770Y6633900D02*
X6721950D01*
X6527200Y6840550D02*
X6554200D01*
X6527200Y6840550D02*
Y6813550D01*
X6527200Y6840550D02*
X6554200Y6813550D01*
X6614950Y7071900D02*
X6580780D01*
X6614950Y7071900D02*
X6615950Y7072900D01*
X6579800D01*
X6615950Y7072900D02*
X6616950Y7073900D01*
X6578820D01*
X6616950Y7073900D02*
X6617950Y7074900D01*
X6577840D01*
X6617950Y7074900D02*
X6618950Y7075900D01*
X6576860D01*
X6618950Y7075900D02*
X6619950Y7076900D01*
X6575880D01*
X6619950Y7076900D02*
X6620950Y7077900D01*
X6574900D01*
X6620950Y7077900D02*
X6621950Y7078900D01*
X6573920D01*
X6621950Y7078900D02*
X6622950Y7079900D01*
X6572940D01*
X6622950Y7079900D02*
X6623950Y7080900D01*
X6598950Y7053900D01*
X6623950Y7080900D02*
X6571950D01*
X6623950Y7080900D02*
X6631950Y7088900D01*
X6571950Y7053900D02*
X6596950D01*
X6614950Y7071900D01*
X6860200Y649220D02*
X6841110Y668310D01*
X6860200Y649220D02*
X6879290Y668310D01*
X6860200Y649220D02*
Y687400D01*
X6860200Y587400D02*
Y649220D01*
X7018950Y876830D02*
X7038040Y857740D01*
X7018950Y876830D02*
X6999860Y857740D01*
X7018950Y876830D02*
Y838650D01*
X7018950Y918650D02*
Y876830D01*
X6860200Y885580D02*
X6881290Y864490D01*
X6860200Y885580D02*
X6843110Y864490D01*
X6860200Y885580D02*
Y847400D01*
X6862200Y845400D01*
X6860200Y942400D02*
Y885580D01*
X6884700Y1706080D02*
X6903790Y1686990D01*
X6884700Y1706080D02*
X6865610Y1686990D01*
X6884700Y1706080D02*
Y1667900D01*
X6929700Y2507900D02*
X6979700Y2457900D01*
Y2367900D01*
X6870000Y2258200D01*
Y1962600D01*
X6884700Y1947900D01*
Y1706080D01*
X6966700Y2154900D02*
Y2127900D01*
X6966700Y2154900D02*
X6939700Y2127900D01*
X7037130Y2042290D02*
X7015610Y2063810D01*
X7037130Y2042290D02*
Y2080470D01*
X7034700Y2082900D01*
X6966700Y2154900D02*
X6939700D01*
X7029700Y2289100D02*
Y2217900D01*
X6966700Y2154900D01*
X6902700Y2400900D02*
Y2427900D01*
X6902700Y2400900D02*
X6929700D01*
X6902700Y2400900D02*
X6929700Y2427900D01*
X6844700Y2367900D02*
X6869700D01*
X6902700Y2400900D01*
X6777700Y2309900D02*
X6814700D01*
X6777700Y2309900D02*
X6787700Y2282900D01*
X6777700Y2309900D02*
X6804700Y2282900D01*
Y2277900D01*
X6809700Y2282900D01*
X6814700D01*
X6769200Y2318400D02*
X6777700Y2309900D01*
X6772700Y2150900D02*
X6777700Y2177900D01*
X6772700Y2150900D02*
X6804700D01*
X6804700Y2177900D02*
Y2182900D01*
X6772700Y2150900D01*
X6929700Y2542120D02*
X6914410Y2565010D01*
X6929700Y2542120D02*
X6952590Y2565010D01*
X6929700Y2542120D02*
Y2580300D01*
X6933500Y2584100D01*
X6929700Y2507900D02*
Y2542120D01*
X6914500Y2927850D02*
X6914490Y2896960D01*
X6914500Y2927850D02*
X6928500Y2913850D01*
Y2884100D01*
X6913500Y2928850D02*
X6913490Y2895970D01*
X6913500Y2928850D02*
X6914500Y2927850D01*
X6912500Y2929850D02*
X6912490Y2894980D01*
X6912500Y2929850D02*
X6913500Y2928850D01*
X6911500Y2930850D02*
X6911490Y2893990D01*
X6911500Y2930850D02*
X6912500Y2929850D01*
X6910500Y2931850D02*
X6910490Y2893000D01*
X6910500Y2931850D02*
X6911500Y2930850D01*
X6909500Y2932850D02*
X6909490Y2892010D01*
X6909500Y2932850D02*
X6910500Y2931850D01*
X6908500Y2933850D02*
X6908490Y2891020D01*
X6908500Y2933850D02*
X6909500Y2932850D01*
X6907500Y2934850D02*
X6907490Y2890030D01*
X6907500Y2934850D02*
X6908500Y2933850D01*
X6906500Y2935850D02*
X6906490Y2889040D01*
X6906500Y2935850D02*
X6907500Y2934850D01*
X6905500Y2936850D02*
X6905490Y2888050D01*
X6905500Y2936850D02*
X6906500Y2935850D01*
X6904500Y2937850D02*
X6904490Y2887060D01*
X6904500Y2937850D02*
X6905500Y2936850D01*
X6903500Y2938850D02*
Y2886070D01*
X6903500Y2938850D02*
X6904500Y2937850D01*
X6902500Y2939850D02*
Y2885090D01*
X6902500Y2939850D02*
X6903500Y2938850D01*
X6901500Y2940850D02*
Y2884100D01*
X6901500Y2940850D02*
X6902500Y2939850D01*
X6834700Y2942650D02*
X6899700D01*
X6901500Y2940850D01*
X6895320Y3031700D02*
X6914410Y3050790D01*
X6895320Y3031700D02*
X6914410Y3012610D01*
X6895320Y3031700D02*
X6933500D01*
X6829700Y3031700D02*
X6895320D01*
X6892720Y3184100D02*
X6911810Y3203190D01*
X6892720Y3184100D02*
X6911810Y3165010D01*
X6892720Y3184100D02*
X6930900D01*
X6829700Y3137900D02*
X6875900Y3184100D01*
X6892720D01*
X6867880Y3402900D02*
X6848790Y3383810D01*
X6867880Y3402900D02*
X6848790Y3421990D01*
X6867880Y3402900D02*
X6829700D01*
X6796700Y3600900D02*
X6769700D01*
X6796700Y3600900D02*
Y3627900D01*
X6769700Y3627900D02*
X6796700Y3600900D01*
X6948950Y4501900D02*
X6921950D01*
X6948950Y4501900D02*
Y4528900D01*
X6948950Y4501900D02*
X6921950Y4528900D01*
X6948950Y4501900D02*
X7015950Y4434900D01*
X7140840D01*
X7173840Y4467900D01*
X7252900D01*
X7288200Y4503200D01*
X7328240D01*
X7403040Y4578000D01*
X7642890D01*
X7648690Y4572200D01*
X7692610D01*
X7706310Y4585900D01*
X7948910D01*
X7954010Y4591000D01*
X8124850D01*
X8190650Y4525200D01*
X8223770D01*
X8219770Y4832900D02*
X8056970D01*
X8035900Y4853970D01*
Y4853980D01*
X7989530Y4900350D01*
X7606540D01*
X7516890Y4810700D01*
X7123710D01*
X7073910Y4760900D01*
X6938430D01*
X6905500Y4793830D01*
X6903500Y4795830D02*
X6866570Y4795820D01*
X6903500Y4795830D02*
X6878500Y4820830D01*
X6864600D01*
X6904500Y4794830D02*
X6865590Y4794820D01*
X6904500Y4794830D02*
X6903500Y4795830D01*
X6905500Y4793830D02*
X6864600D01*
X6905500Y4793830D02*
X6891600Y4820830D01*
X6905500Y4793830D02*
X6904500Y4794830D01*
X6904970Y4709080D02*
X6971950D01*
X6985770Y4722900D01*
X7086830D01*
X7138630Y4774700D01*
X7531820D01*
X7547120Y4790000D01*
X7707130D01*
X7752030Y4834900D01*
X7830100D01*
X7894100Y4770900D01*
X7965900D01*
X7993900Y4798900D01*
X8136040D01*
X8159940Y4775000D01*
Y4739230D01*
X8190940Y4708230D01*
X8230220D01*
X6904970Y4709080D02*
X6866790D01*
X6904970Y4709080D02*
X6885880Y4728170D01*
X6904970Y4709080D02*
X6885880Y4689990D01*
X6969950Y5736900D02*
Y5763900D01*
X6969950Y5736900D02*
X6996950D01*
X6996950Y5763900D02*
X6969950Y5736900D01*
X6853230Y5941100D02*
X6876940Y5964810D01*
X6853230Y5941100D02*
Y5965180D01*
X6871950Y5983900D01*
X6853230Y5939690D02*
X6878350Y5964810D01*
X6853230Y5939690D02*
Y5941100D01*
X6853230Y5938280D02*
X6879760Y5964810D01*
X6853230Y5938280D02*
Y5939690D01*
X6853230Y5936870D02*
X6881170Y5964810D01*
X6853230Y5936870D02*
Y5938280D01*
X6853230Y5935460D02*
X6882580Y5964810D01*
X6853230Y5935460D02*
Y5936870D01*
X6853230Y5934050D02*
X6883990Y5964810D01*
X6853230Y5934050D02*
Y5935460D01*
X6853230Y5932640D02*
X6885400Y5964810D01*
X6853230Y5932640D02*
Y5934050D01*
X6853230Y5931230D02*
X6886810Y5964810D01*
X6853230Y5931230D02*
Y5932640D01*
X6853230Y5929820D02*
X6888220Y5964810D01*
X6853230Y5929820D02*
Y5931230D01*
X6853230Y5928410D02*
X6889630Y5964810D01*
X6853230Y5928410D02*
Y5929820D01*
X6853230Y5927000D02*
X6852860Y5964810D01*
X6853230Y5927000D02*
X6891040Y5964810D01*
X6853230Y5927000D02*
Y5928410D01*
X8220810Y6115100D02*
X7898750D01*
X7860950Y6152900D01*
X7514700D01*
X7403700Y6263900D01*
X7116950D01*
X7093950Y6240900D01*
X7040030D01*
X6920030Y6120900D01*
X6830070Y6067900D02*
X6865960D01*
X6830070Y6067900D02*
X6829070Y6066900D01*
X6839950Y6093900D01*
X6829070Y6066900D02*
X6866950D01*
X6910030Y6110900D02*
X6876760D01*
X6910030Y6110900D02*
X6893030Y6093900D01*
X6866950D01*
X6911030Y6111900D02*
X6875780D01*
X6911030Y6111900D02*
X6910030Y6110900D01*
X6912030Y6112900D02*
X6874800D01*
X6912030Y6112900D02*
X6911030Y6111900D01*
X6913030Y6113900D02*
X6873820D01*
X6913030Y6113900D02*
X6912030Y6112900D01*
X6914030Y6114900D02*
X6872840D01*
X6914030Y6114900D02*
X6913030Y6113900D01*
X6915030Y6115900D02*
X6871860D01*
X6915030Y6115900D02*
X6914030Y6114900D01*
X6916030Y6116900D02*
X6870880D01*
X6916030Y6116900D02*
X6915030Y6115900D01*
X6917030Y6117900D02*
X6869900D01*
X6917030Y6117900D02*
X6916030Y6116900D01*
X6918030Y6118900D02*
X6868920D01*
X6918030Y6118900D02*
X6917030Y6117900D01*
X6919030Y6119900D02*
X6867930D01*
X6919030Y6119900D02*
X6918030Y6118900D01*
X6920030Y6120900D02*
X6893950Y6093900D01*
X6920030Y6120900D02*
X6866950D01*
X6920030Y6120900D02*
X6919030Y6119900D01*
X6866950Y6093900D02*
X6856070D01*
X6830070Y6067900D01*
X7019950Y6020900D02*
X7046950D01*
X7019950Y6020900D02*
Y5993900D01*
X7019950Y6020900D02*
X7046950Y5993900D01*
X6981950Y6033900D02*
X7006950D01*
X7019950Y6020900D01*
X7014170Y6293900D02*
X7033260Y6312990D01*
X7014170Y6293900D02*
X7033260Y6274810D01*
X7052350Y6293900D02*
X7014170D01*
X6909500Y6228900D02*
Y6205680D01*
X6909500Y6228900D02*
X6886280Y6228890D01*
X6909500Y6228900D02*
X6884390Y6203790D01*
X6986950Y6243900D02*
X6971950Y6228900D01*
X6909500D01*
X6848770Y6604000D02*
X6867860Y6623090D01*
X6848770Y6604000D02*
X6867860Y6584910D01*
X6886950Y6604000D02*
X6848770D01*
X6946950Y6857080D02*
X6966040Y6837990D01*
X6946950Y6857080D02*
X6927860Y6837990D01*
X6946950Y6857080D02*
Y6818900D01*
X7079700Y999720D02*
Y952900D01*
X7249700Y782900D01*
X7333460D01*
X7438960Y677400D01*
X7079700Y999720D02*
X7060610Y1018810D01*
X7079700Y999720D02*
X7098790Y1018810D01*
X7079700Y1037900D02*
Y999720D01*
X7037130Y2042290D02*
X7053790Y2063810D01*
X7037130Y1894900D02*
Y2042290D01*
X7116950Y4523900D02*
X7101040Y4507990D01*
X7116950Y4523900D02*
X7101040Y4539810D01*
X7116950Y4523900D02*
X7081950D01*
X7315130Y4303900D02*
X7291040Y4279810D01*
X7315130Y4303900D02*
X7291040Y4317990D01*
X7315130Y4303900D02*
X7276950D01*
X7271950Y4298900D01*
X7241950Y4553900D02*
X7146950D01*
X7116950Y4523900D01*
X7087200Y4813900D02*
X7071040Y4797740D01*
X7087200Y4813900D02*
X7071040Y4830060D01*
X7087200Y4813900D02*
X7051950D01*
X7087200Y4813900D02*
X7120000Y4846700D01*
X7501970D01*
X7589120Y4933850D01*
X8006950D01*
X8071900Y4868900D01*
X8236990D01*
X8244990Y4876900D01*
X8288910D01*
X8291910Y4873900D01*
X8291950D01*
X8306500Y4859350D01*
X7164950Y5971900D02*
Y5998900D01*
X7164950Y5971900D02*
X7191950D01*
X7164950Y5971900D02*
X7191950Y5998900D01*
X7230130Y5998900D02*
X7211040Y5979810D01*
X7230130Y5998900D02*
X7211040Y6017990D01*
X7230130Y5998900D02*
X7191950D01*
X7230130Y5998900D02*
X7256950D01*
X7311950Y5943900D01*
X7912440D01*
X7931000Y5925340D01*
X8226280D01*
X8246740Y5945800D01*
X8315060D01*
X8330860Y5930000D01*
X8456800D01*
X8533900Y6007100D01*
X8583770D01*
X7255360Y6109320D02*
X7236270Y6090230D01*
X7255360Y6109320D02*
X7236270Y6128410D01*
X7255360Y6109320D02*
X7450610D01*
X7551830Y6008100D01*
X7899160D01*
X7945920Y5961340D01*
X8069350D01*
X8161250Y6053240D01*
X8536490D01*
X8564950Y6081700D01*
X7190180Y6082320D02*
Y6109320D01*
X7190180Y6082320D02*
X7217180D01*
X7190180Y6082320D02*
X7217180Y6109320D01*
X7255360D01*
X7123770Y6207950D02*
X7142860Y6227040D01*
X7123770Y6207950D02*
X7142860Y6188860D01*
X7161950Y6207950D02*
X7123770D01*
X7090530Y6293900D02*
X7071440Y6274810D01*
X7090530Y6293900D02*
X7071440Y6312990D01*
X7090530Y6293900D02*
X7096030D01*
X7102040Y6299910D01*
X7730980D01*
X7759990Y6270900D01*
X7793870D01*
X7913870Y6150900D01*
X7962100D01*
X7962300Y6151100D01*
X8022000D01*
X8022200Y6150900D01*
X8116950D01*
X8133450Y6167400D01*
X8453800D01*
X8564950Y6278550D01*
X7052350Y6293900D02*
X7090530D01*
X7078770Y6688900D02*
X7097860Y6669810D01*
X7078770Y6688900D02*
X7097860Y6707990D01*
X7116950Y6688900D02*
X7078770D01*
X7438960Y677400D02*
X7448460Y667900D01*
X7450750D01*
X7438960Y677400D02*
X7441250Y667900D01*
X7438960Y677400D02*
X7450750D01*
X7440200Y1249800D02*
X7449700Y1246650D01*
X7440200Y1249800D02*
Y1237150D01*
X7449700Y1237150D02*
Y1240300D01*
X7440200Y1249800D01*
X7497670Y4255000D02*
X7515910Y4273240D01*
X7497670Y4255000D02*
X7515920Y4236770D01*
X7497670Y4255000D02*
X7535000D01*
X7421950Y4483770D02*
X7405910Y4505910D01*
X7421950Y4483770D02*
X7444090Y4505910D01*
X7421950Y4483770D02*
Y4521950D01*
X7425000Y4525000D01*
X7341950Y4303900D02*
X7315130D01*
X7556950Y4748900D02*
X7617550D01*
X7618850Y4750200D01*
X7750650D01*
X7444950Y4936900D02*
Y4963900D01*
X7444950Y4936900D02*
X7471950D01*
X7471950Y4963900D02*
X7444950Y4936900D01*
X7774420Y2380000D02*
X7793510Y2399090D01*
X7774420Y2380000D02*
X7793510Y2360910D01*
X7774420Y2380000D02*
X7646800D01*
X7853680Y2382900D02*
X7831690Y2360910D01*
X7853680Y2382900D02*
X7831690Y2399090D01*
X7853680Y2382900D02*
X7815500D01*
X7812600Y2380000D01*
X7774420D01*
X7714420Y2620000D02*
X7733510Y2639090D01*
X7714420Y2620000D02*
X7733510Y2600910D01*
X7714420Y2620000D02*
X7636800D01*
X7790780Y2620000D02*
X7771690Y2600910D01*
X7790780Y2620000D02*
X7771690Y2639090D01*
X7790780Y2620000D02*
X7825000D01*
X7850000Y2645000D01*
X8026800D01*
X8169700Y2787900D01*
X8241200D01*
X8568450Y3115150D01*
X7752600Y2620000D02*
X7790780D01*
X7752600Y2620000D02*
X7714420D01*
X7769420Y2540000D02*
X7788510Y2559090D01*
X7769420Y2540000D02*
X7788510Y2520910D01*
X7769420Y2540000D02*
X7642600D01*
X7845780Y2540000D02*
X7826690Y2520910D01*
X7845780Y2540000D02*
X7826690Y2559090D01*
X7807600Y2540000D02*
X7769420D01*
X7807600Y2540000D02*
X7845780D01*
X7709420Y2460000D02*
X7728510Y2479090D01*
X7709420Y2460000D02*
X7728510Y2440910D01*
X7709420Y2460000D02*
X7642600D01*
X7785780Y2460000D02*
X7766690Y2440910D01*
X7785780Y2460000D02*
X7766690Y2479090D01*
X7785780Y2460000D02*
X7922520D01*
X7930420Y2452100D01*
X8217100D01*
X8562650Y2797650D01*
X7747600Y2460000D02*
X7709420D01*
X7747600Y2460000D02*
X7785780D01*
X7713620Y2780000D02*
X7732710Y2799090D01*
X7713620Y2780000D02*
X7732710Y2760910D01*
X7713620Y2780000D02*
X7641800D01*
X7751800Y2780000D02*
X7713620D01*
X7850780Y2700000D02*
X7831690Y2680910D01*
X7850780Y2700000D02*
X7831690Y2719090D01*
X7812600Y2700000D02*
X7850780D01*
X7627000Y4163900D02*
X7650910Y4187810D01*
X7627000Y4163900D02*
X7625590D01*
X7650910Y4189220D01*
X7625590Y4163900D02*
X7624180D01*
X7650910Y4190630D01*
X7624180Y4163900D02*
X7622770D01*
X7650910Y4192040D01*
X7622770Y4163900D02*
X7621360D01*
X7650910Y4193450D01*
X7621360Y4163900D02*
X7619950D01*
X7650910Y4194860D01*
X7619950Y4163900D02*
X7618540D01*
X7650910Y4196270D01*
X7618540Y4163900D02*
X7617130D01*
X7650910Y4197680D01*
X7617130Y4163900D02*
X7615720D01*
X7650910Y4199090D01*
X7615720Y4163900D02*
X7650910Y4160910D01*
X7615720Y4163900D02*
X7586950D01*
X7670000Y4180000D02*
X7653900Y4163900D01*
X7627000D01*
X7643610Y4368490D02*
Y4395490D01*
X7643610Y4368490D02*
X7670610D01*
X7670610Y4395490D02*
X7643610Y4368490D01*
X7625500Y4614000D02*
X7651560Y4640060D01*
X7625500Y4614000D02*
X7624090D01*
X7651560Y4641470D01*
X7624090Y4614000D02*
X7622680D01*
X7651560Y4642880D01*
X7622680Y4614000D02*
X7621270D01*
X7651560Y4644290D01*
X7621270Y4614000D02*
X7651560Y4606110D01*
X7670650Y4625200D02*
X7659450Y4614000D01*
X7625500D01*
X7776950Y4775460D02*
X7760230Y4792180D01*
X7776950Y4775460D02*
Y4762080D01*
X7750650Y4750200D02*
X7776250D01*
X7750650Y4750200D02*
X7750660Y4724600D01*
X7750650Y4750200D02*
X7776950Y4723900D01*
X7776950Y4762080D02*
X7796040Y4742990D01*
X7776950Y4762080D02*
X7757860Y4742990D01*
X7776950Y4762080D02*
Y4723900D01*
X7815130Y4723900D02*
X7796040Y4704810D01*
X7815130Y4723900D02*
X7796040Y4742990D01*
X7815130Y4723900D02*
X7776950D01*
X7992830Y4743900D02*
X7972830Y4723900D01*
X7815130D01*
X7766950Y4798900D02*
X7776950Y4788900D01*
Y4775460D01*
X7741450Y5838400D02*
X7716950D01*
X7741450Y5838400D02*
X7754950Y5851900D01*
Y5878900D01*
X7754950Y5851900D02*
X7781950D01*
X7754950Y5851900D02*
X7781950Y5878900D01*
X7716950Y5828900D02*
X7731950D01*
X7741450Y5838400D01*
X7809100Y6088900D02*
X7783180Y6062980D01*
X7809100Y6088900D02*
X7810510D01*
X7783190Y6061580D01*
X7810510Y6088900D02*
X7783190Y6099760D01*
X7810510Y6088900D02*
X7846950D01*
X7764100Y6080670D02*
X7756950D01*
Y6083900D01*
X7771950Y6098900D01*
Y6103050D01*
X7786100Y6088900D01*
X7809100D01*
X7806950Y6298900D02*
X7783950D01*
X7806950Y6298900D02*
X7806940Y6321900D01*
X7806950Y6298900D02*
X7880110D01*
X7914110Y6264900D01*
X7975730D01*
X7740690Y6343900D02*
X7762860Y6321620D01*
X7740690Y6343900D02*
X7761950D01*
X7781950Y6323900D01*
X7739280Y6343900D02*
X7762860Y6320210D01*
X7739280Y6343900D02*
X7740690D01*
X7737870Y6343900D02*
X7762860Y6318810D01*
X7737870Y6343900D02*
X7739280D01*
X7736460Y6343900D02*
X7762860Y6317410D01*
X7736460Y6343900D02*
X7737870D01*
X7735050Y6343900D02*
X7762860Y6316010D01*
X7735050Y6343900D02*
X7736460D01*
X7733640Y6343900D02*
X7762860Y6314610D01*
X7733640Y6343900D02*
X7735050D01*
X7732230Y6343900D02*
X7762860Y6313210D01*
X7732230Y6343900D02*
X7733640D01*
X7730820Y6343900D02*
X7762860Y6311810D01*
X7730820Y6343900D02*
X7732230D01*
X7729410Y6343900D02*
X7762860Y6310410D01*
X7729410Y6343900D02*
X7730820D01*
X7728000Y6343900D02*
X7762860Y6309010D01*
X7728000Y6343900D02*
X7729410D01*
X7726590Y6343900D02*
X7762860Y6307610D01*
X7726590Y6343900D02*
X7728000D01*
X7725180Y6343900D02*
X7762860Y6306210D01*
X7725180Y6343900D02*
X7726590D01*
X7723770Y6343900D02*
X7762860Y6304810D01*
X7723770Y6343900D02*
X7725180D01*
X7781950Y6323900D02*
X7806950Y6298900D01*
X7716950Y6343900D02*
X7723770D01*
X7612450Y6689400D02*
X7598950Y6675900D01*
Y6643900D01*
X7598950Y6675900D02*
X7571950Y6670900D01*
X7598950Y6675900D02*
X7576950Y6653900D01*
Y6648900D01*
X7571950Y6643900D01*
X7612450Y6689400D02*
Y6703900D01*
X7612450Y6689400D02*
X7621950Y6694400D01*
X7621950Y6703900D02*
Y6698900D01*
X7612450Y6689400D01*
X7929980Y2100000D02*
X7910890Y2080910D01*
X7929980Y2100000D02*
X7910890Y2119090D01*
X7929980Y2100000D02*
X7964700D01*
X7891800Y2100000D02*
X7929980D01*
X8563900Y2638900D02*
X8332900Y2407900D01*
X7915000D01*
X7890000Y2382900D01*
X7853680D01*
X8061520Y2180000D02*
X8085610Y2204090D01*
X8061520Y2180000D02*
X8085610Y2165910D01*
X8061520Y2180000D02*
X7964700D01*
X8104700Y2185000D02*
X8099700Y2180000D01*
X8061520D01*
X7929980Y2260000D02*
X7910890Y2240910D01*
X7929980Y2260000D02*
X7910890Y2279090D01*
X7929980Y2260000D02*
X7964700D01*
X7891800Y2260000D02*
X7929980D01*
X8044420Y2340000D02*
X8065610Y2361190D01*
X8044420Y2340000D02*
X8065610Y2323010D01*
X8044420Y2340000D02*
X7964700D01*
X8084700Y2342100D02*
X8082600Y2340000D01*
X8044420D01*
X8064420Y2500000D02*
X8085610Y2521190D01*
X8064420Y2500000D02*
X8085610Y2483010D01*
X8064420Y2500000D02*
X7964700D01*
X8104700Y2502100D02*
X8102600Y2500000D01*
X8064420D01*
X7929980Y2580000D02*
X7910890Y2599090D01*
X7929980Y2580000D02*
X7964700D01*
X7891800Y2580000D02*
X7929980D01*
X7845780Y2540000D02*
X7861080D01*
X7871080Y2530000D01*
X7912520D01*
X7922520Y2540000D01*
X8005000D01*
X8060000Y2595000D01*
X8145000D01*
X8533400Y2983400D01*
X8557020D01*
X7929980Y2740000D02*
X7910890Y2759090D01*
X7929980Y2740000D02*
X7964700D01*
X7891800Y2740000D02*
X7929980D01*
X8054420Y2820000D02*
X8073510Y2839090D01*
X8054420Y2820000D02*
X8073510Y2800910D01*
X8054420Y2820000D02*
X7964700D01*
X8092600Y2820000D02*
X8054420D01*
X7850780Y2700000D02*
X7861080D01*
X7871080Y2690000D01*
X7912520D01*
X7922520Y2700000D01*
X8012600D01*
X7929980Y2900000D02*
X7910890Y2880910D01*
X7929980Y2900000D02*
X7910890Y2919090D01*
X7929980Y2900000D02*
X7964700D01*
X7891800Y2900000D02*
X7929980D01*
X8054420Y2980000D02*
X8075610Y3001190D01*
X8054420Y2980000D02*
X8075610Y2963010D01*
X8054420Y2980000D02*
X7964700D01*
X8094700Y2982100D02*
X8092600Y2980000D01*
X8054420D01*
X7929980Y3060000D02*
X7910890Y3040910D01*
X7929980Y3060000D02*
X7910890Y3079090D01*
X7929980Y3060000D02*
X7964700D01*
X7891800Y3060000D02*
X7929980D01*
X8059420Y3140000D02*
X8080610Y3161190D01*
X8059420Y3140000D02*
X8080610Y3123010D01*
X8059420Y3140000D02*
X8016800D01*
X8099700Y3142100D02*
X8097600Y3140000D01*
X8059420D01*
X7929980Y3220000D02*
X7910890Y3200910D01*
X7929980Y3220000D02*
X7910890Y3239090D01*
X7929980Y3220000D02*
X7964700D01*
X7891800Y3220000D02*
X7929980D01*
X7997000Y4183000D02*
X7970000D01*
X7997000Y4183000D02*
Y4210000D01*
X7997000Y4183000D02*
X7970000Y4210000D01*
X8021950Y4158900D02*
X8016950Y4163900D01*
X8016100D01*
X7997000Y4183000D01*
X8063770Y4538000D02*
X8082860Y4557090D01*
X8063770Y4538000D02*
X8082860Y4518910D01*
X8063770Y4538000D02*
X8101950D01*
X8000520Y4463000D02*
X8024220Y4439300D01*
X8000520Y4463000D02*
X8000530Y4442600D01*
X8000520Y4463000D02*
X8020920D01*
X8044240Y4323900D02*
X8065910Y4302120D01*
X8044240Y4323900D02*
X8042830D01*
X8065910Y4300710D01*
X8042830Y4323900D02*
X8041420D01*
X8065910Y4299300D01*
X8041420Y4323900D02*
X8040010D01*
X8065910Y4297900D01*
X8040010Y4323900D02*
X8038600D01*
X8065910Y4296500D01*
X8038600Y4323900D02*
X8037190D01*
X8065910Y4295100D01*
X8037190Y4323900D02*
X8035780D01*
X8065910Y4293700D01*
X8035780Y4323900D02*
X8034370D01*
X8065910Y4292300D01*
X8034370Y4323900D02*
X8032960D01*
X8065910Y4290900D01*
X8032960Y4323900D02*
X8031550D01*
X8065910Y4289500D01*
X8031550Y4323900D02*
X8030140D01*
X8065910Y4288100D01*
X8030140Y4323900D02*
X8028730D01*
X8065910Y4286700D01*
X8028730Y4323900D02*
X8027320D01*
X8065910Y4285300D01*
X8027320Y4323900D02*
X8025910D01*
X8065910Y4283900D01*
X8085000Y4302990D02*
X8064090Y4323900D01*
X8044240D01*
X7888770Y4638900D02*
X7907860Y4657990D01*
X7888770Y4638900D02*
X7907860Y4619810D01*
X7888770Y4638900D02*
X7926950D01*
X8051950Y4713900D02*
X8050640Y4724810D01*
X8051950Y4713900D02*
X8062860Y4724820D01*
X8051950Y4713900D02*
Y4728990D01*
X8066950Y4743990D01*
Y4743900D01*
X8085910Y4724820D02*
X8075000Y4713900D01*
X8051950D01*
X7926650Y4996960D02*
Y5023960D01*
X7926650Y4996960D02*
X7953650D01*
X7926650Y4996960D02*
X7953650Y5023960D01*
X7841650Y5049850D02*
X7868650D01*
X7841650Y5049850D02*
Y5022850D01*
X7868650Y5022850D02*
X7841650Y5049850D01*
X8007450Y5858400D02*
X8021950D01*
X8007450Y5858400D02*
X8012450Y5848900D01*
X8007450Y5858400D02*
X8006950Y5858900D01*
X7995130D01*
X7971040Y5844810D01*
X7995130Y5858900D02*
X7971040Y5882990D01*
X7995130Y5858900D02*
X7956950D01*
X7951950Y5863900D01*
X8021950Y5848900D02*
X8016950D01*
X8007450Y5858400D01*
X8068000Y6237000D02*
X8095000D01*
X8068000Y6237000D02*
Y6210000D01*
X8068000Y6237000D02*
X8095000Y6210000D01*
X8069950Y6332550D02*
X8096950D01*
X8069950Y6332550D02*
Y6305550D01*
X8069950Y6332550D02*
X8096950Y6305550D01*
X8001950Y6395160D02*
X7979660Y6372870D01*
X8001950Y6395160D02*
Y6373900D01*
X7981950Y6353900D01*
X8001950Y6396570D02*
X7978260Y6372880D01*
X8001950Y6396570D02*
Y6395160D01*
X8001950Y6397980D02*
X7976860Y6372890D01*
X8001950Y6397980D02*
Y6396570D01*
X8001950Y6399390D02*
X7975460Y6372900D01*
X8001950Y6399390D02*
Y6397980D01*
X8001950Y6400800D02*
X7974060Y6372910D01*
X8001950Y6400800D02*
Y6399390D01*
X8001950Y6402210D02*
X7972660Y6372920D01*
X8001950Y6402210D02*
Y6400800D01*
X8001950Y6403620D02*
X7971260Y6372930D01*
X8001950Y6403620D02*
Y6402210D01*
X8001950Y6405030D02*
X7969860Y6372940D01*
X8001950Y6405030D02*
Y6403620D01*
X8001950Y6406440D02*
X7968460Y6372950D01*
X8001950Y6406440D02*
Y6405030D01*
X8001950Y6407850D02*
X7967060Y6372960D01*
X8001950Y6407850D02*
Y6406440D01*
X8001950Y6409260D02*
X7965660Y6372970D01*
X8001950Y6409260D02*
Y6407850D01*
X8001950Y6410670D02*
X7964260Y6372980D01*
X8001950Y6412080D02*
X7962860Y6372990D01*
X7975730Y6264900D02*
X7984340Y6269730D01*
X7975730Y6264900D02*
X7984340Y6256290D01*
X7975730Y6264900D02*
X7989180D01*
X7991060Y6263010D01*
X8001950Y6410670D02*
Y6409260D01*
X8001950Y6412080D02*
Y6410670D01*
X7978950Y7040900D02*
X7973950Y7013900D01*
X7978950Y7040900D02*
X7946950D01*
X7978950Y7040900D02*
X7951950Y7013900D01*
X7946950D01*
X8001950Y7063900D02*
X7978950Y7040900D01*
X8223770Y4525200D02*
X8242860Y4544290D01*
X8223770Y4525200D02*
X8242860Y4506110D01*
X8223770Y4525200D02*
X8261950D01*
X8389430Y4323900D02*
X8351250D01*
X8349950Y4325200D01*
X8322950Y4552200D02*
Y4525200D01*
X8322950Y4552200D02*
X8349950Y4525200D01*
X8376950Y4552200D02*
X8349950Y4525200D01*
X8222590Y4832900D02*
X8247860Y4807610D01*
X8221180Y4832900D02*
X8247860Y4806210D01*
X8219770Y4832900D02*
X8247860Y4804810D01*
X8230220Y4708230D02*
X8249310Y4727320D01*
X8230220Y4708230D02*
X8249310Y4689140D01*
X8230220Y4708230D02*
X8268400D01*
X8322950Y4552200D02*
X8349950D01*
X8376950Y4552200D02*
X8349950D01*
X8226950Y4583900D02*
X8291250D01*
X8322950Y4552200D01*
X8222590Y4832900D02*
X8221180D01*
X8219770D01*
X8247860Y4842990D01*
X8266950Y4823900D02*
X8257950Y4832900D01*
X8222590D01*
X8318500Y4847350D02*
X8350070D01*
X8318500Y4847350D02*
X8333500Y4832350D01*
X8361950D01*
X8317500Y4848350D02*
X8351060D01*
X8317500Y4848350D02*
X8318500Y4847350D01*
X8316500Y4849350D02*
X8352050D01*
X8316500Y4849350D02*
X8317500Y4848350D01*
X8315500Y4850350D02*
X8353040D01*
X8315500Y4850350D02*
X8316500Y4849350D01*
X8314500Y4851350D02*
X8354030D01*
X8314500Y4851350D02*
X8315500Y4850350D01*
X8313500Y4852350D02*
X8355020D01*
X8313500Y4852350D02*
X8314500Y4851350D01*
X8312500Y4853350D02*
X8356010D01*
X8312500Y4853350D02*
X8313500Y4852350D01*
X8311500Y4854350D02*
X8357000D01*
X8311500Y4854350D02*
X8312500Y4853350D01*
X8310500Y4855350D02*
X8357990D01*
X8310500Y4855350D02*
X8311500Y4854350D01*
X8309500Y4856350D02*
X8358980D01*
X8309500Y4856350D02*
X8310500Y4855350D01*
X8308500Y4857350D02*
X8359970D01*
X8308500Y4857350D02*
X8309500Y4856350D01*
X8307500Y4858350D02*
X8360960D01*
X8307500Y4858350D02*
X8308500Y4857350D01*
X8306500Y4859350D02*
X8361950D01*
X8306500Y4859350D02*
X8307500Y4858350D01*
X8222220Y6115100D02*
X8247550Y6089760D01*
X8222220Y6115100D02*
X8220810D01*
X8247550Y6126540D01*
X8220810Y6115100D02*
X8247550Y6088360D01*
X8266640Y6107450D02*
X8258990Y6115100D01*
X8222220D01*
X8351950Y5993900D02*
X8371950Y6013900D01*
X8393210D01*
X8298950Y6250900D02*
Y6223900D01*
X8298950Y6250900D02*
X8271950D01*
X8298950Y6250900D02*
X8271950Y6223900D01*
X8244950Y6250900D02*
X8271950D01*
X8244950Y6250900D02*
Y6223900D01*
X8244950Y6250900D02*
X8271950Y6223900D01*
X8201950Y6258900D02*
X8236950D01*
X8244950Y6250900D01*
X8436950Y6258900D02*
X8306950D01*
X8298950Y6250900D01*
X8563900Y2638900D02*
X8565700Y2665900D01*
X8563900Y2638900D02*
X8592700D01*
X8592700Y2665900D02*
X8590900D01*
X8563900Y2638900D01*
X8562650Y2797650D02*
X8589650Y2824650D01*
X8594700D01*
X8562650Y2797650D02*
X8594700D01*
X8562650Y2797650D02*
X8567700Y2824650D01*
X8568450Y3115150D02*
X8595450Y3142150D01*
X8568450Y3115150D02*
X8595450D01*
X8568450Y3115150D02*
Y3142150D01*
X8557020Y2983400D02*
X8595200D01*
X8557020Y2983400D02*
X8576110Y2964310D01*
X8557020Y2983400D02*
X8576110Y3002490D01*
X8389430Y4323900D02*
X8369040Y4306110D01*
X8389430Y4323900D02*
X8369040Y4344290D01*
X8376950Y4552200D02*
Y4525200D01*
X8431950Y4323900D02*
X8389430D01*
X8451950Y4573900D02*
X8422880D01*
X8421880Y4572900D01*
X8397650D01*
X8376950Y4552200D01*
X8583770Y6007100D02*
X8602860Y6026190D01*
X8583770Y6007100D02*
X8602860Y5988010D01*
X8583770Y6007100D02*
X8621950D01*
X8564950Y6081700D02*
Y6108700D01*
X8564950Y6081700D02*
X8591950D01*
X8564950Y6081700D02*
X8591950Y6108700D01*
X8393210Y6013900D02*
X8370920Y5991610D01*
X8393210Y6013900D02*
X8394620D01*
X8370930Y5990210D01*
X8394620Y6013900D02*
X8396030D01*
X8370940Y5988810D01*
X8396030Y6013900D02*
X8397440D01*
X8370950Y5987410D01*
X8397440Y6013900D02*
X8398850D01*
X8370960Y5986010D01*
X8398850Y6013900D02*
X8400260D01*
X8370970Y5984610D01*
X8400260Y6013900D02*
X8401670D01*
X8370980Y5983210D01*
X8401670Y6013900D02*
X8403080D01*
X8370990Y5981810D01*
X8403080Y6013900D02*
X8404490D01*
X8371000Y5980410D01*
X8404490Y6013900D02*
X8405900D01*
X8371010Y5979010D01*
X8405900Y6013900D02*
X8407310D01*
X8371020Y5977610D01*
X8407310Y6013900D02*
X8408720D01*
X8371030Y5976210D01*
X8408720Y6013900D02*
X8410130D01*
X8371040Y5974810D01*
X8410130Y6013900D02*
X8448730D01*
X8461950D01*
X8466950Y6018900D01*
Y6009120D01*
X8448730Y6013900D02*
X8460230Y6002400D01*
X8448730Y6013900D02*
X8460230Y6015840D01*
X8564950Y6278550D02*
X8591950Y6305550D01*
X8564950Y6278550D02*
X8591950D01*
X8564950Y6278550D02*
Y6305550D01*
D11*
X964700Y1742900D02*
X994700Y1772900D01*
X1169700D01*
X1165120Y1845400D02*
X1172200Y1867900D01*
X1165120Y1845400D02*
X1194700D01*
X1165120Y1845400D02*
X1187620Y1867900D01*
X1194700D01*
X962600Y1820000D02*
X1139720D01*
X1165120Y1845400D01*
X1957200Y7540400D02*
X1942200Y7517900D01*
X1957200Y7540400D02*
X1919700D01*
X1957200Y7540400D02*
X1994700Y7577900D01*
X1919700Y7517900D02*
X1934700D01*
X1957200Y7540400D01*
X3399700Y3782900D02*
X3405920Y3789120D01*
Y3859120D01*
X3724700Y2392900D02*
X3752200Y2420400D01*
X3757200Y2442900D01*
X3752200Y2420400D02*
X3779700D01*
X3752200Y2420400D02*
X3774700Y2442900D01*
X3779700D01*
X3853500Y3096700D02*
X3825900D01*
X3779700Y3142900D01*
X4174700Y3047900D02*
X4179700Y3042900D01*
X4212200Y3880400D02*
X4254700D01*
X4212200Y3880400D02*
X4232200Y3857900D01*
X4212200Y3880400D02*
X4234700Y3857900D01*
X4254700D01*
X4194700Y3897900D02*
X4212200Y3880400D01*
X4580000Y3142900D02*
Y3148200D01*
X4574700Y3142900D01*
X4479700D01*
X4959700Y3057900D02*
X4994700Y3092900D01*
X5034700D01*
X9038000Y3423920D02*
X9165000D01*
Y3359580D01*
X9150190Y3289590D02*
X9160770Y3278330D01*
X9165000Y3265470D01*
X9160770Y3252600D01*
X9148070Y3241340D01*
X9129020Y3233300D01*
X9109970Y3230080D01*
X9086680D01*
X9067630Y3233300D01*
X9050700Y3241340D01*
X9042230Y3250990D01*
X9038000Y3262250D01*
X9042230Y3275120D01*
X9050700Y3284770D01*
X9063400Y3291200D01*
X9080340Y3294420D01*
X9095150Y3291200D01*
X9109970Y3283160D01*
X9118440Y3273510D01*
X9120550Y3262250D01*
X9116320Y3249380D01*
X9105730Y3239730D01*
X9086680Y3230080D01*
D12*
X524700Y1957900D03*
X515280Y2363810D03*
X464700Y2512900D03*
X599700Y4447900D03*
X628960Y5085570D03*
X573700Y5591900D03*
X789700Y1647900D03*
X854700Y2272900D03*
X826800Y2220000D03*
X827600Y2620000D03*
X829700Y2777900D03*
X831800Y2700000D03*
X900000Y3510000D03*
X707200Y4445400D03*
X889700Y4452900D03*
X864700Y5297900D03*
X863250Y5504350D03*
X754700Y7177900D03*
X754750Y7462950D03*
X1046750Y779950D03*
X954700Y1017900D03*
X964700Y1887900D03*
Y1742900D03*
X962600Y1820000D03*
X969700Y2372900D03*
X971800Y2300000D03*
X966800Y2460000D03*
X971800Y2620000D03*
X972600Y2540000D03*
X966800Y2700000D03*
X939700Y3017900D03*
X1049950Y3803150D03*
X1164700Y4122900D03*
Y4207900D03*
X939700Y4647900D03*
X1144700Y4562900D03*
X984700Y5067900D03*
X1074700Y5482900D03*
X979700Y6592900D03*
X1144700Y7422900D03*
X1239700Y852900D03*
X1394700Y1345100D03*
X1296800Y2140000D03*
X1307600Y2060000D03*
X1301800Y1980000D03*
X1184700Y4032900D03*
X1234700Y4742900D03*
X1264700Y6707900D03*
X1579700Y862900D03*
X1649700Y1012900D03*
X1619700Y1837900D03*
X1583800Y2480000D03*
X1555800Y2936800D03*
X1639700Y3682900D03*
X1459700Y3847900D03*
X1588950Y4123650D03*
X1669700Y4332900D03*
X1629700Y4732900D03*
X1609700Y5332900D03*
X1646450Y6287900D03*
X1557950Y6532900D03*
X1844700Y1417900D03*
X1845000Y2600000D03*
X1729700Y3282900D03*
X1783950Y3852900D03*
X1846650Y5605950D03*
X1929700Y6242900D03*
X1874700Y6317900D03*
X1869700Y6522900D03*
X1716700Y6852900D03*
X1875450Y6862150D03*
X1970700Y7683900D03*
X1930700Y8007750D03*
X2164700Y1738800D03*
X2169700Y2147900D03*
X2189700Y2541800D03*
X2224700Y2936800D03*
X2069700Y3502900D03*
X2050900Y4081700D03*
Y4139100D03*
X2159700Y4317900D03*
X2064700Y5387900D03*
X2029700Y5567900D03*
X2074700Y6847900D03*
X2129450Y7688150D03*
X1994700Y7577900D03*
X2129450Y8002650D03*
X2309500Y1192700D03*
X2307500Y1345100D03*
X2479700Y2637900D03*
X2364700Y2931800D03*
X2354700Y3547900D03*
X2485940Y4005030D03*
X2399700Y4152900D03*
X2319950Y4308150D03*
X2454700Y4572900D03*
X2354700D03*
X2249700Y5147900D03*
X2269700Y7012900D03*
X2439700D03*
X2288200Y7689400D03*
X2269700Y8007900D03*
X2274700Y8162900D03*
X2604700Y732900D03*
X2542200Y890400D03*
X2679700Y892900D03*
X2542200Y1210400D03*
X2700950Y1211650D03*
X2599700Y1252900D03*
X2574700Y2151550D03*
X2624700Y3237900D03*
X2529700Y3677900D03*
X2528120Y4578270D03*
X2709700Y4912900D03*
X2719700Y5597900D03*
X2714700Y5722900D03*
Y5972900D03*
Y6227900D03*
X2715000Y6357900D03*
X2749700Y7012900D03*
X2589700D03*
X2594700Y7537900D03*
X2609700Y8081700D03*
X2984700Y712900D03*
X2839700Y887900D03*
X2859700Y1207900D03*
X3029700D03*
X2954700Y3207900D03*
X2994700Y3047900D03*
X2959700Y3350400D03*
X2794700Y3507900D03*
X2864700Y4152900D03*
X2953700Y4312900D03*
X2939700Y4577900D03*
X2984700Y4807900D03*
X2834700Y5337900D03*
X2833450Y5209150D03*
X2969700Y6372900D03*
Y6477900D03*
X2986700Y6862900D03*
X2904700Y7012900D03*
X3024700Y7322900D03*
X3179700Y773200D03*
X3119700Y962900D03*
X3289700Y1315080D03*
X3270000Y1992900D03*
X3278930Y2517120D03*
X3114700Y2777900D03*
X3274700Y2762900D03*
X3309700Y3047900D03*
X3189700Y3412900D03*
X3150000Y4145000D03*
X3075000D03*
X3099700Y4792900D03*
X3229700Y4822900D03*
X3159700Y6417900D03*
X3304200Y6863400D03*
X3145390Y6863170D03*
X3434700Y1172900D03*
X3339700Y1942900D03*
X3464700Y2642900D03*
X3364700Y2447900D03*
X3399700Y3782900D03*
X3355000Y4165000D03*
X3354700Y4307900D03*
X3474700Y4802900D03*
X3484700Y6487900D03*
X3354700Y6462900D03*
X3464700Y6857900D03*
X3749700Y1477900D03*
X3800900Y1794100D03*
X3724700Y2392900D03*
X3779700Y3617900D03*
X3609700Y4312900D03*
X3748700Y4311900D03*
X3614700Y4802900D03*
X3724700Y6467900D03*
X3634700Y6862900D03*
X3815830Y6861310D03*
X3884700Y1847900D03*
X3904700Y2502900D03*
X3875000Y2572900D03*
X3999700Y2792900D03*
X4084700Y2942900D03*
X3929700Y2882900D03*
X3853500Y3096700D03*
X4094700Y3137900D03*
X3904700Y3042900D03*
X3929700Y3627900D03*
X4034700D03*
X3994700Y4303890D03*
X4074700Y4312900D03*
X4104700Y4777900D03*
X3849700Y4807900D03*
X3994700D03*
X4059700Y5132900D03*
X3979700Y6382900D03*
X3859700D03*
X4039530Y6864080D03*
X3859700Y7017900D03*
X4164700Y2632900D03*
X4359700Y2562900D03*
X4164700Y2712900D03*
X4140550Y2783750D03*
X4164700Y2927900D03*
X4174700Y3132900D03*
X4349700Y3027900D03*
X4359700Y3627900D03*
X4194700Y3897900D03*
X4224950Y4312650D03*
X4369700Y4502900D03*
X4379700Y5467900D03*
X4229700Y6377900D03*
X4428150Y2006350D03*
X4579700Y1997900D03*
X4527430Y2290630D03*
X4580000Y3142900D03*
X4383700Y4311900D03*
X4542450Y4310150D03*
X4489700Y4827900D03*
Y5082900D03*
Y5592900D03*
X4494700Y5842900D03*
Y6092900D03*
Y6352900D03*
Y6222900D03*
X4649700Y4157900D03*
X4819700D03*
X4866950Y4928000D03*
X4832000Y4873000D03*
X4801800Y5033000D03*
X4836950Y4978000D03*
X4786950Y5128900D03*
X4855200Y5127000D03*
X4786950Y5258900D03*
X4851700Y5232000D03*
X4801900Y5546000D03*
X4851800Y5491000D03*
X4800200Y5441000D03*
X4847500Y5386000D03*
X4804400Y5800000D03*
X4806000Y5695000D03*
X4851800Y5745000D03*
X4850100Y5640000D03*
X4821950Y6111250D03*
X4856950Y5973900D03*
X4861950Y6166250D03*
X4816950Y6216250D03*
X4861950Y6271250D03*
X4820250Y6625600D03*
X4863650Y6680600D03*
X4856950Y6953900D03*
X4863650Y6785600D03*
X4816950Y6898900D03*
X4821950Y6723900D03*
X4861950Y7058900D03*
X4816950Y7003900D03*
X5082200Y927900D03*
Y1110400D03*
X4919700Y1977900D03*
X4948200Y2094400D03*
X5088700Y1903900D03*
X5114700Y2602400D03*
Y2931650D03*
X4959700Y3057900D03*
X5037750Y3345000D03*
X5114700Y3647900D03*
X5134700Y3987900D03*
X4974700Y4157900D03*
X4983700Y4445100D03*
X5110400Y4928000D03*
X5125700Y4873000D03*
X5104200Y5033000D03*
X5130400Y4978000D03*
X5105800Y5182000D03*
X5129500Y5127000D03*
X5104200Y5287000D03*
X5130400Y5232000D03*
X5177010Y5213880D03*
X5104100Y5546000D03*
X5130400Y5491000D03*
X5105000Y5441000D03*
X5129600Y5386000D03*
X5105400Y5800000D03*
X5106950Y5695000D03*
X5130300Y5745000D03*
X5127000Y5640000D03*
X5134300Y6111250D03*
X5171950Y5969000D03*
X5104300Y6166250D03*
X5139300Y6216250D03*
X5036950Y6338900D03*
X5116950Y6625600D03*
X5106950Y6680600D03*
X5136950Y6730600D03*
X5106950Y6785600D03*
Y6898900D03*
X5131950Y7058900D03*
X5106950Y7003900D03*
X5141950Y6958900D03*
X5431450Y589650D03*
X5272700Y600900D03*
X5249700Y927900D03*
X5309700Y937900D03*
X5431450Y921150D03*
X5349700Y1102900D03*
X5354700Y1262900D03*
X5274690Y1922910D03*
X5390000Y3331450D03*
X5189100Y5771750D03*
X5590200Y593400D03*
X5614700Y922900D03*
Y1262900D03*
X5688250Y1351450D03*
X5590200Y1587400D03*
X5464700Y2182900D03*
X5526950Y5343900D03*
X5506950Y5583900D03*
X5448150Y5937700D03*
X5476950Y6073900D03*
X5521950Y6028900D03*
X5748950Y588650D03*
X5907700Y589900D03*
X5914700Y922900D03*
X5789700Y942900D03*
X5719700Y927900D03*
X5864700Y950020D03*
X5748950Y1267150D03*
X5907700Y1277900D03*
X5780700Y2211900D03*
X5904700Y2712900D03*
X6066450Y589650D03*
X6225200Y593400D03*
X6094700Y932900D03*
X6209700Y922900D03*
X6034700D03*
X6066450Y1272900D03*
X6225200Y1277400D03*
X6099700Y2867900D03*
X6111950Y4993900D03*
X6101950Y6578900D03*
X6383950Y588650D03*
X6274700Y947900D03*
X6444700Y950020D03*
X6374700Y917900D03*
X6383950Y1273650D03*
X6459700Y2527900D03*
X6309700Y3472900D03*
X6346950Y4178900D03*
X6441950Y4263900D03*
X6321950Y4333900D03*
X6436950Y4488900D03*
X6321950Y4778900D03*
X6316950Y4708900D03*
X6321950Y5838900D03*
X6326950Y6073900D03*
X6311950Y6403900D03*
X6326950Y6158900D03*
X6336950Y6448900D03*
X6542700Y600900D03*
X6701450Y589650D03*
X6604700Y937900D03*
X6764950Y948150D03*
X6701450Y926150D03*
X6542700Y914900D03*
X6574450Y1272900D03*
X6764950Y1267650D03*
X6694700Y1512900D03*
X6754700Y2327900D03*
X6579700D03*
X6669700Y2652900D03*
X6638500Y2726700D03*
X6579700Y2702900D03*
X6749700Y2962900D03*
X6616950Y4158900D03*
X6601950Y4643900D03*
X6536950Y5328900D03*
X6551950Y5818900D03*
X6561950Y6068900D03*
X6516950Y6238900D03*
X6631950Y7088900D03*
X6860200Y587400D03*
X7018950Y918650D03*
X6860200Y942400D03*
X7037130Y1894900D03*
X6909700Y2057900D03*
X7029700Y2289100D03*
X6844700Y2367900D03*
X6929700Y2507900D03*
X6834700Y2942650D03*
X6829700Y3031700D03*
Y3137900D03*
X6856950Y5338900D03*
X6981950Y6033900D03*
X6931950Y5938900D03*
X6986950Y6243900D03*
X6801950Y6358900D03*
X6996950Y6438900D03*
X6786950Y7088900D03*
X7196510Y931090D03*
X7241950Y4553900D03*
Y4428900D03*
X7266950Y4728900D03*
X7236950Y4628900D03*
X7201950Y5808900D03*
X7450750Y667900D03*
X7449700Y1237150D03*
X7341950Y4303900D03*
X7561950Y4463900D03*
X7556950Y4748900D03*
X7316950Y6407950D03*
X7646800Y2380000D03*
X7636800Y2620000D03*
X7642600Y2540000D03*
Y2460000D03*
X7641800Y2780000D03*
X7669700Y3212900D03*
Y3122900D03*
X7586950Y4163900D03*
X7766950Y4798900D03*
X7653950Y5101900D03*
X7716950Y5828900D03*
X7846950Y6088900D03*
X7716950Y6343900D03*
X7693180Y6253900D03*
X7621950Y6703900D03*
X7964700Y2100000D03*
Y2180000D03*
Y2260000D03*
Y2340000D03*
Y2500000D03*
Y2580000D03*
Y2740000D03*
Y2820000D03*
X8012600Y2700000D03*
X7964700Y2900000D03*
Y2980000D03*
Y3060000D03*
X8016800Y3140000D03*
X7964700Y3220000D03*
X8021950Y4158900D03*
X7992830Y4743900D03*
X8021950Y5848900D03*
X7906750Y6044100D03*
X7992150Y6079100D03*
X7991060Y6263010D03*
X8001950Y7063900D03*
X8191950Y4313900D03*
X8226950Y4583900D03*
X8286950Y4638900D03*
X8181950Y5123900D03*
X8201950Y6258900D03*
X8196000Y6364850D03*
X8186950Y6953900D03*
X8461950Y4163900D03*
X8431950Y4323900D03*
X8471950Y4798900D03*
X8451950Y4573900D03*
X8406950Y4608900D03*
X8541950Y5838900D03*
X8466950Y6009120D03*
X8381950Y6363900D03*
X8436950Y6258900D03*
X8542950Y6449900D03*
D13*
X509700Y1647900D03*
Y1877900D03*
X574700Y2252400D03*
X669700Y2452900D03*
X510200Y2443650D03*
X507920Y2445890D03*
X509700Y2622900D03*
Y2917900D03*
Y2802900D03*
Y3027900D03*
Y3212900D03*
X564700Y3482900D03*
X510200Y3396150D03*
Y3586650D03*
Y3777150D03*
Y3967650D03*
X504700Y4107900D03*
X529700Y4682900D03*
X605700Y5007900D03*
X609700Y5167900D03*
Y5302900D03*
X654700Y5591900D03*
X637750Y5729000D03*
X674700Y7187900D03*
X639700Y7037900D03*
X700700Y1557900D03*
X797720Y1893930D03*
X709700Y1747900D03*
X849700Y1742900D03*
X700700Y1966900D03*
Y2156900D03*
X903790Y2119030D03*
X849700Y2037900D03*
X699700Y2347900D03*
X779700Y2452900D03*
X874100Y2442190D03*
X878120Y2838420D03*
X894700Y3260000D03*
X844700Y4347900D03*
X834700Y4827900D03*
X684700Y4767900D03*
X834700Y5032900D03*
X679700Y4897900D03*
X834700Y5227900D03*
X863250Y5616450D03*
X934700Y5724000D03*
X869700Y6922900D03*
X850000Y7197900D03*
X814700Y7587900D03*
X1134700Y987900D03*
X954700Y932900D03*
X1145200Y1222400D03*
X1169700Y1772900D03*
X1194700Y1867900D03*
X1131700Y1984900D03*
X1124700Y2112900D03*
Y2244900D03*
X1154700Y2772900D03*
X1164700Y2892900D03*
Y3177900D03*
X1104700Y3107900D03*
X1139700Y3349900D03*
X1164700Y3777900D03*
X964700Y3657900D03*
X1059700Y4032900D03*
X992930Y4122900D03*
X1054700Y4207900D03*
X1194700Y4412900D03*
X969700Y4347900D03*
X1049700Y4492900D03*
X1134700Y5027900D03*
X1034700Y5227900D03*
X1132430Y5230170D03*
Y5330170D03*
X1029700Y5127900D03*
X1034700Y5637900D03*
X1134700D03*
Y5527900D03*
Y5427900D03*
X979700Y6672900D03*
X1164700D03*
X1159700Y7082900D03*
X1350950Y706650D03*
X1244900Y660000D03*
X1329900Y1192700D03*
X1349700Y1902900D03*
X1464700Y1767900D03*
X1454700Y1962900D03*
X1459700Y2542900D03*
X1332700Y2829900D03*
X1374700Y3152900D03*
X1342190Y3022900D03*
X1229700Y3414930D03*
X1399700Y3447900D03*
X1394700Y3692900D03*
X1219700Y3667900D03*
X1294700Y4032900D03*
X1324700Y4832900D03*
X1334700Y5327900D03*
Y5227900D03*
X1234700Y5527900D03*
X1334700D03*
X1272200Y5857900D03*
X1430950Y5861650D03*
X1272200Y5957900D03*
X1449700Y6387900D03*
Y6492900D03*
X1414700Y6697900D03*
X1279810Y6621950D03*
X1361650Y7510950D03*
X1314700Y7822900D03*
X1684950Y430050D03*
X1494450Y938150D03*
X1649700Y932900D03*
X1584700Y1762900D03*
X1479700Y2072900D03*
X1704700Y2062900D03*
X1584700Y2092900D03*
X1574700Y1922900D03*
X1489700Y2422900D03*
X1703130Y2515080D03*
X1629700Y2557900D03*
X1679700Y2812900D03*
X1659700Y3037900D03*
X1504700Y3307900D03*
X1484700Y3682900D03*
X1494700Y4352900D03*
X1504700Y5012900D03*
X1629700Y4877900D03*
X1713370Y5047140D03*
X1644700Y5242900D03*
X1531290Y5124470D03*
X1534860Y5328080D03*
X1584700Y5562900D03*
X1699700Y5487900D03*
X1557950Y6611150D03*
X1716700Y6770900D03*
X1484700Y6967900D03*
X1557950Y6872900D03*
X1544700Y7191700D03*
X1579700Y7332900D03*
X1625000Y7592900D03*
X1557950Y7987900D03*
X1675000Y7887900D03*
X1694700Y8082900D03*
X1714700Y8232900D03*
X1557950Y8332900D03*
X1933800Y803900D03*
X1964500Y1192700D03*
X1804700Y1517900D03*
X1845110Y1851550D03*
X1754700Y1847900D03*
X1874700Y1667900D03*
X1936850Y1818520D03*
X1904700Y2072900D03*
X1804700Y2067900D03*
X1864700Y1957900D03*
X1959700Y2327900D03*
X1789700Y2207900D03*
X1964700Y2227900D03*
X1779700Y2665400D03*
X1977130Y2462900D03*
X1849700Y3242900D03*
X1814700Y3017900D03*
X1764700Y3472900D03*
X1769700Y3352900D03*
X1874700Y3350400D03*
X1989700Y3617900D03*
X1789700Y3767900D03*
X1809700Y3672900D03*
X1958350Y3958860D03*
X1784700Y4172900D03*
X1974700D03*
X1964700Y4407900D03*
X1779700Y4697900D03*
X1834700Y4792900D03*
X1989700Y5257900D03*
Y5157900D03*
X1869700Y5397900D03*
X1751360Y5669560D03*
X1849700Y5987900D03*
X1869700Y6192900D03*
X1974700Y6317900D03*
X1854200Y6412400D03*
X1799700Y6670200D03*
X1989700Y6772900D03*
X1875450Y7192900D03*
X1919700Y7517900D03*
X1907200Y7301400D03*
X1930700Y7927900D03*
X1814700Y8217900D03*
X1875450Y8337900D03*
X2050000Y685000D03*
Y1135000D03*
X2077200Y1347900D03*
X2200200Y1618400D03*
X2024700Y2107900D03*
X2274700Y2027900D03*
X2114700Y2207900D03*
X2219700D03*
X2199700Y2422900D03*
X2110800Y2541800D03*
X2089700Y2702900D03*
X2134700Y2942900D03*
X2163740Y2804000D03*
X2014700Y2792900D03*
X2129700Y3052900D03*
X2244700Y3412900D03*
X2209700Y3717900D03*
X2214700Y3622900D03*
X2244700Y3522900D03*
X2154700Y4237900D03*
X2158500Y4081700D03*
X2239700Y4507900D03*
X2064700Y4812900D03*
X2131390Y4713900D03*
X2257500Y4715700D03*
X2244700Y4607900D03*
X2164700Y5057900D03*
X2179700Y4907900D03*
X2109700Y4987900D03*
X2144700Y5387900D03*
X2114700Y5157900D03*
X2109700Y5602900D03*
X2204700Y5722900D03*
X2199700Y6917900D03*
X2204210Y7029280D03*
X2192950Y7491900D03*
X2097700Y7301400D03*
X2139700Y7927900D03*
X2030770Y7986550D03*
X2034200Y8337900D03*
X2419700Y892900D03*
X2519700Y1127900D03*
X2539700Y1337900D03*
X2404700Y1332900D03*
X2359700Y1912900D03*
X2434700Y1822900D03*
X2529700Y2317900D03*
X2429700Y2577900D03*
X2439700Y2467900D03*
X2319930Y2578400D03*
X2439640Y2740000D03*
X2448600Y2931800D03*
X2539700Y2962900D03*
X2287200Y3165400D03*
X2489700Y3047900D03*
X2529700Y3352900D03*
X2499700Y3462900D03*
X2444700Y3672900D03*
X2314700Y3722900D03*
X2415200Y3967650D03*
X2489700Y3892900D03*
X2304700Y4167900D03*
X2419700Y4087900D03*
X2397700Y4765200D03*
X2524700D03*
X2284700Y4902900D03*
X2394700D03*
X2524700Y5019200D03*
X2389700Y5257900D03*
X2524700Y5142900D03*
X2397700Y5146200D03*
X2294700Y5282900D03*
X2397700Y5654200D03*
X2524700Y5781200D03*
X2397700D03*
X2460000Y5970000D03*
Y6225000D03*
X2335000D03*
X2524700Y6670200D03*
X2397700D03*
X2524700Y6543200D03*
X2399700Y6797900D03*
X2319700Y6882900D03*
X2524700Y6797200D03*
X2364700Y7012900D03*
X2351700Y7190900D03*
X2399700Y7342900D03*
X2288200Y7301400D03*
X2284700Y7927900D03*
X2423860Y7918620D03*
X2515900Y8081700D03*
X2324700Y8072900D03*
X2351700Y8342900D03*
X2699700Y767900D03*
X2614700Y867900D03*
X2764700Y862900D03*
X2802700Y1724900D03*
X2554700Y1822900D03*
X2799700Y2119400D03*
X2689700Y2157900D03*
Y2052900D03*
X2704700Y1942900D03*
X2714700Y2357900D03*
X2809700Y2522900D03*
X2596010Y2578780D03*
X2674700Y2832900D03*
X2704700Y2963900D03*
X2702700Y3479900D03*
X2793400Y3976310D03*
X2605700Y3967650D03*
X2794700Y4147900D03*
X2779700Y4767900D03*
X2778700Y5019200D03*
Y4892200D03*
X2649700Y5273200D03*
X2779700Y5147900D03*
X2651700Y5527200D03*
X2779700Y5527900D03*
X2649700Y5652900D03*
X2779700D03*
Y5402900D03*
X2778700Y5908200D03*
X2586630Y5973370D03*
X2778700Y6162200D03*
X2779700Y6412900D03*
X2778700Y6289200D03*
X2651700Y6670200D03*
Y6543200D03*
X2778700Y6670200D03*
X2656970Y6943510D03*
X2778700Y6797200D03*
X2651700D03*
X2589700Y7422900D03*
X2724700Y7577900D03*
X2796200Y8012900D03*
X2891450Y531150D03*
X2859700Y757900D03*
X3059700Y837900D03*
X2924700Y857900D03*
X3019700Y1277900D03*
X2989700Y1617900D03*
X3074700Y1622900D03*
X2879700Y1497900D03*
X2915000Y1770000D03*
X3019700Y2102900D03*
X2824700Y2352900D03*
X3074700Y2327900D03*
X2965860Y2226740D03*
X2814700Y2894900D03*
Y2757900D03*
Y3197900D03*
X3079700Y3042900D03*
X2814700Y3349900D03*
X3029700Y3350400D03*
X3014700Y3687900D03*
X2852750Y3624000D03*
X2859700Y3882900D03*
X3024700Y4292900D03*
X2905700Y4511200D03*
Y4638200D03*
X2934700Y5022900D03*
X3019700Y4957900D03*
X2934700Y4872900D03*
X3004700Y5844700D03*
X2879700Y5777200D03*
X2894760Y6405410D03*
X3032700Y6416200D03*
Y6670200D03*
X2824700Y6942900D03*
X2984700D03*
X2904700Y6797900D03*
X2827950Y7202900D03*
X3075000Y7797600D03*
X2869700Y8277900D03*
X3054700D03*
X3081950Y527900D03*
X3119700Y737900D03*
X3214700Y1332900D03*
X3249700Y1772900D03*
X3169450Y2139900D03*
X3269700Y2287900D03*
X3184700Y2447900D03*
X3289700Y2450480D03*
X3179700Y2642900D03*
Y2837900D03*
X3249700Y2942900D03*
X3114700Y3147900D03*
X3219700Y3047900D03*
X3110000Y3490000D03*
X3084700Y3777900D03*
X3334700Y3595000D03*
X3149700Y3687900D03*
X3126400Y3974600D03*
X3284700Y3807900D03*
X3161400Y4532900D03*
X3284700Y4512900D03*
X3159700Y4384200D03*
X3160080Y4762710D03*
X3114700Y4890000D03*
X3259700Y5132900D03*
X3304000Y5527200D03*
X3307000Y5400200D03*
X3306000Y5654200D03*
X3314700Y5781200D03*
X3171890Y5997900D03*
X3234700Y6072900D03*
X3214700Y6217900D03*
X3274700Y6297900D03*
X3159700Y6672900D03*
Y6543200D03*
X3286700D03*
Y6670200D03*
X3159700Y6797200D03*
Y7232900D03*
X3324700Y7357900D03*
X3124700Y7687900D03*
X3225000Y7692900D03*
X3144700Y7577900D03*
X3125000Y7947900D03*
X3229700Y7927900D03*
X3139700Y8042900D03*
X3234700Y8277900D03*
X3359700Y1292900D03*
X3354700Y1622900D03*
X3394690Y1429900D03*
X3554700Y1395400D03*
X3558350Y1624900D03*
X3449700Y2122900D03*
X3379700Y2042900D03*
X3394700Y2642900D03*
X3579700Y2542900D03*
Y3242900D03*
Y3142900D03*
X3479700Y3242900D03*
Y3142900D03*
X3579700Y3342900D03*
X3479700D03*
X3355000Y3325000D03*
X3494700Y3967650D03*
X3405920Y3859120D03*
X3579700Y4242900D03*
X3404700Y4247900D03*
X3539700Y4767900D03*
X3409700Y4762900D03*
X3413700Y5258900D03*
X3540700Y5263900D03*
X3413700Y5896900D03*
X3540700Y5893900D03*
X3539700Y6417900D03*
X3414700D03*
Y6667900D03*
X3413700Y6543200D03*
X3540700Y6670200D03*
X3439700Y6942900D03*
X3540700Y6797200D03*
X3604700Y7202900D03*
X3612200Y7333150D03*
X3514700Y7892900D03*
X3599700Y8277900D03*
X3414700D03*
X3646800Y545000D03*
X3664700Y757900D03*
X3864700Y1202900D03*
X3689700Y1207900D03*
X3749950Y1618150D03*
X3759700Y1873150D03*
X3671690Y2440040D03*
X3779700Y2342900D03*
Y2442900D03*
Y2642900D03*
Y2542900D03*
X3679700D03*
X3874860Y2642720D03*
X3679700Y2942900D03*
X3879700D03*
Y3242900D03*
X3779700D03*
X3679700Y3142900D03*
X3779700D03*
Y3437900D03*
X3879700Y3442900D03*
X3679700Y3342900D03*
X3649700Y3707900D03*
X3854700Y3712900D03*
X3645000Y3555000D03*
X3779700Y3542900D03*
X3749700Y3702900D03*
X3854700Y3617900D03*
X3685200Y3967650D03*
X3875700D03*
X3774700Y4242900D03*
X3794700Y4877900D03*
X3667700Y5269900D03*
X3794700Y5897900D03*
X3667700Y5895900D03*
Y6415900D03*
X3794700Y6417900D03*
X3667700Y6543200D03*
X3794700Y6670200D03*
X3614700Y6947900D03*
X3789700D03*
X3714700Y7197900D03*
X3684700Y7442900D03*
X3774700Y7472900D03*
X3853500Y8189100D03*
X3779700Y8277900D03*
X4129700Y1192700D03*
X4104700Y1597900D03*
X3964700Y2107900D03*
X3949700Y1922900D03*
X4069700Y2237900D03*
X4074860Y2342720D03*
X3939700Y2237900D03*
X3979700Y2442900D03*
X4079700D03*
X4089150Y2714210D03*
X3974700Y2642900D03*
X3979700Y2542900D03*
Y2942900D03*
X4080000Y2842900D03*
X3979700Y3042900D03*
X4066200Y3967650D03*
X3907450Y4237900D03*
X4079700Y4232900D03*
X4049700Y4387900D03*
X3922640Y4509350D03*
X3919700Y4637900D03*
X3924700Y4763900D03*
X3899700Y4997900D03*
X3989700Y5002900D03*
X4114700Y4872900D03*
X3959700D03*
X3999700Y5202900D03*
X3901000Y5654200D03*
X3902000Y5400200D03*
X3904000Y5527200D03*
X3919700Y6417900D03*
X3921700Y6543200D03*
Y6670200D03*
Y6800900D03*
X3934700Y7087900D03*
X3949700Y7357900D03*
X4124700Y7907900D03*
X4139700Y8277900D03*
X3959700D03*
X4370550Y703750D03*
X4269700Y1192900D03*
X4349700Y1627900D03*
X4409700Y1697900D03*
X4404700Y1882900D03*
X4379700Y2142900D03*
X4189700Y1932900D03*
X4379700Y2442900D03*
Y2342900D03*
X4179700Y2242900D03*
X4274700Y2237900D03*
X4179700Y2542900D03*
X4274890Y2643050D03*
X4379700Y2642900D03*
X4279700Y2542900D03*
Y2842900D03*
X4379700D03*
X4175000Y2842400D03*
X4379700Y2942900D03*
Y3142900D03*
Y3242900D03*
X4179700Y3042900D03*
X4279700D03*
X4379700Y3342900D03*
X4383700Y3706900D03*
X4256700Y3967650D03*
X4254700Y3857900D03*
X4244700Y4237900D03*
X4383700Y4238900D03*
X4298700Y4507900D03*
X4169700Y4511200D03*
X4175700Y4638200D03*
X4174700Y6417900D03*
X4304700Y6412900D03*
X4304950Y6544700D03*
Y6671700D03*
X4177950Y6544700D03*
X4319950Y6793900D03*
X4199700Y7172900D03*
X4259700Y7337900D03*
X4434700Y1192900D03*
X4554700Y1633400D03*
X4539700Y1882900D03*
X4479700Y1747900D03*
X4596700Y1772900D03*
X4674700Y1882900D03*
X4479700Y2142900D03*
X4679700Y2242900D03*
X4479700Y2342900D03*
X4571870Y2345610D03*
X4579700Y2239070D03*
X4479700Y2542900D03*
Y2642900D03*
X4579700Y2542900D03*
Y2642900D03*
X4679700D03*
X4579700Y2942900D03*
X4679700D03*
Y2842900D03*
X4479700Y2942900D03*
X4579700Y2742900D03*
Y2842900D03*
X4479700Y2742900D03*
X4679700D03*
X4479700Y2842900D03*
Y3042900D03*
X4579700D03*
X4679700Y3142900D03*
X4479700D03*
X4679700Y3042900D03*
X4479700Y3242900D03*
X4579700Y3342900D03*
X4679700Y3442900D03*
X4579700D03*
X4479700Y3342900D03*
Y3442900D03*
Y3542900D03*
X4579700Y3630000D03*
X4679700Y3542900D03*
X4544700Y3762900D03*
X4542450Y3987550D03*
X4439700Y3967900D03*
X4542450Y4235150D03*
X4429700Y4638200D03*
X4556700D03*
X4551600Y4770100D03*
X4429700Y4767900D03*
X4551600Y4897100D03*
Y5024100D03*
X4424600D03*
X4429700Y4892900D03*
X4551600Y5151100D03*
Y5278100D03*
X4424600D03*
Y5151100D03*
X4551600Y5405100D03*
Y5532100D03*
X4424600D03*
Y5405100D03*
X4551600Y5659100D03*
X4429700Y5781000D03*
X4556700D03*
Y5908000D03*
X4424600Y5659100D03*
X4429700Y5908000D03*
X4556700Y6035000D03*
X4429700D03*
X4556700Y6162000D03*
X4429700D03*
X4556700Y6289000D03*
Y6416000D03*
X4429700D03*
Y6289000D03*
Y6670000D03*
Y6543000D03*
X4556700D03*
X4461950Y6793900D03*
X4799700Y1012900D03*
X4904700Y1007900D03*
X4734450Y1618150D03*
X4924450D03*
X4739700Y1732900D03*
X4834700Y1737900D03*
X4924450Y1872900D03*
X4769700Y1907900D03*
X4759700Y2097900D03*
X4879700Y2142900D03*
X4794700Y2202900D03*
X4694700Y2347900D03*
X4774700Y2442900D03*
X4779700Y2942900D03*
X4810000Y2760000D03*
X4779700Y3042900D03*
X4795790Y3229310D03*
X4879700Y3142900D03*
Y3242900D03*
Y3442900D03*
X4764990Y3359180D03*
X4779700Y3442900D03*
Y3620000D03*
X4828200Y3967650D03*
X4699700Y4082900D03*
X4869700Y4092900D03*
X4810700Y4384200D03*
X4809700Y4642900D03*
X4931950Y5973900D03*
X4791950Y6813900D03*
X4936950Y6953900D03*
Y7058900D03*
X4940000Y7635000D03*
X4800900Y8174100D03*
X4874700Y8292900D03*
X5205000Y548200D03*
X5019700Y487900D03*
X5082200Y840400D03*
Y1025400D03*
X5084700Y1618150D03*
X5159700Y1712900D03*
X5193700Y1903900D03*
X5054700Y2142900D03*
X4974700Y2247900D03*
X5194700Y2292900D03*
X5042410Y2392160D03*
X4979700Y2502900D03*
X5034700Y2597900D03*
X5191190Y2715740D03*
X4965000Y2835000D03*
X5190000Y2931650D03*
X5114700Y3022900D03*
X5034700Y3092900D03*
Y3242900D03*
X5037750Y3445000D03*
X5039700Y3582900D03*
X5114700Y3717900D03*
X5189700Y4082900D03*
X5029700D03*
X5058700Y4446900D03*
X5196950Y6138900D03*
X5046950Y6108900D03*
X5206950Y6301960D03*
X5201950Y6423900D03*
X5131950Y6373900D03*
X5036950Y6220930D03*
X5091950Y6298900D03*
X5160810Y6498290D03*
X5091950Y6558900D03*
X5017530Y6649180D03*
X5041950Y6730600D03*
X4971950Y6785600D03*
X5006950Y6893900D03*
X5011950Y7008900D03*
X4955200Y7428400D03*
X5114700Y7907900D03*
X5144700Y8262900D03*
X5431450Y674650D03*
X5272700Y675900D03*
X5249700Y842900D03*
X5431450Y839650D03*
X5249700Y1032900D03*
X5304700Y1822900D03*
X5393350Y1676550D03*
X5429700Y2712900D03*
X5299700Y2562900D03*
X5304700Y2707900D03*
X5284700Y3090400D03*
X5309700Y3342900D03*
X5450000Y3470000D03*
X5264700Y4327900D03*
X5261950Y5213900D03*
X5446950Y5343900D03*
X5431950Y5583900D03*
X5266950Y5771750D03*
X5321950Y6023900D03*
X5246950Y5943900D03*
X5344700Y6147900D03*
X5446950Y6008900D03*
X5471950Y6763900D03*
X5476950Y6943900D03*
X5348150Y7159450D03*
X5347900Y8262900D03*
X5449500D03*
X5246300D03*
X5514700Y547900D03*
X5590200Y687400D03*
X5555000Y1007600D03*
X5669700Y1007900D03*
X5559700Y1872900D03*
X5634700Y1827900D03*
X5538200Y2221400D03*
X5519700Y2432900D03*
X5554700Y2577900D03*
X5745300Y2627900D03*
X5594700Y2722900D03*
X5536950Y6653900D03*
X5671950Y6518900D03*
X5636950Y6623900D03*
X5626950Y6758900D03*
X5646950Y6903900D03*
X5537800Y7003900D03*
X5524700Y7428400D03*
X5551100Y8262900D03*
X5652700D03*
X5829700Y512900D03*
X5959700D03*
X5748950Y677150D03*
X5907700Y674900D03*
X5754700Y837900D03*
X5809700Y2102900D03*
X5891550Y2352840D03*
X5994700Y2287900D03*
X5989700Y2512900D03*
X6004700Y2867900D03*
X6009700Y2722900D03*
X6004700Y3112900D03*
X5872200Y3110400D03*
X5879700Y3337900D03*
X5819700Y3677900D03*
X5786950Y6428900D03*
X5754700Y7517900D03*
X5749700Y7402900D03*
X5869600Y8237800D03*
X6066450Y686150D03*
X6074700Y842900D03*
X6225200Y687400D03*
X6229400Y848200D03*
X6129700Y1547900D03*
X6259700Y2587900D03*
X6244700Y2457900D03*
X6274700Y3132900D03*
X6016800Y3220000D03*
X6134700Y3312900D03*
X6220000Y3545000D03*
X6264700Y3797900D03*
X6258450Y4298900D03*
X6261950Y4183900D03*
X6226950Y4523900D03*
X6221780Y4377430D03*
X6266950Y4613900D03*
X6141950Y4763900D03*
X6189090Y5071040D03*
X6051950Y5038900D03*
X6241950Y6013900D03*
X6251950Y6111200D03*
X6242010Y6304280D03*
X6230760Y6193520D03*
X6236950Y6446280D03*
X6193020Y6547520D03*
X6016950Y6578900D03*
X6116950Y6908800D03*
X6236950Y6843900D03*
X6198600Y6965950D03*
X6021300Y7320000D03*
X6044700Y8187900D03*
X6034700Y8087900D03*
X6369700Y507900D03*
X6383950Y687150D03*
X6379700Y847900D03*
X6542700Y680900D03*
X6354700Y1007900D03*
X6412200Y1665400D03*
X6344700Y1782900D03*
X6319700Y1982900D03*
X6544700Y2157900D03*
X6319700Y2707900D03*
X6339700Y2517900D03*
X6504690Y2907890D03*
X6544700Y3107900D03*
X6474700Y3797900D03*
X6387790Y4316140D03*
X6486950Y4573900D03*
X6496350Y4364280D03*
X6361950Y4508900D03*
X6461950Y4834900D03*
X6396950Y4748350D03*
X6326950Y4978900D03*
X6476950Y5013900D03*
X6346950Y5358900D03*
X6463340Y5258900D03*
X6331950Y5225200D03*
X6456950Y5133900D03*
X6541950Y5122670D03*
X6376010Y5894360D03*
X6492050Y6004780D03*
X6501950Y6113310D03*
X6366950Y6008900D03*
X6356950Y6350900D03*
X6374450Y6208900D03*
X6461950Y6593900D03*
X6291950Y6528900D03*
X6316950Y6735200D03*
X6476950Y7033800D03*
X6655000Y513200D03*
X6701450Y679650D03*
X6599700Y1027900D03*
X6764700Y1037900D03*
X6694700Y1342900D03*
X6804700Y2177900D03*
Y2082400D03*
X6659700Y2517900D03*
X6754700Y2587900D03*
X6605660Y2631550D03*
X6745900Y2726700D03*
X6734700Y3152900D03*
X6564700Y3432900D03*
X6689700Y3412900D03*
X6584700Y3342900D03*
X6710000Y3697600D03*
X6769700Y3627900D03*
X6630000Y3647900D03*
X6568190Y4318840D03*
X6666950Y4243900D03*
X6546950Y4168900D03*
X6761950Y4188900D03*
X6556950Y4423900D03*
Y4798900D03*
X6562150Y4701120D03*
X6623810Y4931610D03*
X6612720Y5021890D03*
X6806950Y5153900D03*
X6766950Y5268900D03*
X6591950Y5378900D03*
X6776950Y5383900D03*
X6565000Y5892350D03*
X6741950Y6208900D03*
X6581950Y6193900D03*
X6656790Y6298590D03*
X6731950Y6398980D03*
X6571950Y6303900D03*
X6641950Y6461400D03*
X6546950Y6593900D03*
X6721950Y6633900D03*
X6701950Y6788900D03*
X6554200Y6813550D03*
X6571950Y7053900D03*
X6591300Y7321300D03*
X6694700Y8262900D03*
X6809700Y8097900D03*
X7018950Y838650D03*
X6862200Y845400D03*
X6964700Y677900D03*
X6860200Y687400D03*
X7079700Y1037900D03*
X6830000Y1808200D03*
X6884700Y1667900D03*
X6964700Y1857900D03*
X6939700Y2127900D03*
X7034700Y2082900D03*
X6929700Y2427900D03*
X6814700Y2282900D03*
X6933500Y2584100D03*
X6928500Y2884100D03*
X6933500Y3031700D03*
X6930900Y3184100D03*
X6829700Y3402900D03*
X6959700Y3607900D03*
X6921950Y4528900D03*
X6874800Y4325200D03*
X6864600Y4820830D03*
X7051950Y4813900D03*
X6866790Y4709080D03*
X7031950Y4623900D03*
X6878840Y4930910D03*
X6890770Y5039700D03*
X7066950Y4928900D03*
X7026950Y5128900D03*
X6956950Y5325200D03*
X7064900Y5517700D03*
X6996950Y5763900D03*
X6908540Y5865490D03*
X6871950Y5983900D03*
X6866950Y6093900D03*
X7046950Y5993900D03*
X7039460Y6109240D03*
X7052350Y6293900D03*
X6884390Y6203790D03*
X6871950Y6413900D03*
X6886950Y6604000D03*
X6986690Y6605270D03*
X6946950Y6818900D03*
X6981950Y7053900D03*
X6876950Y7048900D03*
X6987200Y7955400D03*
X6919700Y8097900D03*
X7302500Y684700D03*
X7114000Y2147320D03*
X7110000Y3403200D03*
X7284700Y3637900D03*
X7119700Y3842900D03*
X7271950Y4298900D03*
X7150000Y4180000D03*
X7081950Y4523900D03*
X7321950Y4450200D03*
X7167100Y4721700D03*
X7181950Y5025200D03*
X7081950Y5225200D03*
X7121950Y5808900D03*
X7191950Y5998900D03*
X7217180Y6109320D03*
X7166950Y6407950D03*
X7161950Y6207950D03*
X7116950Y6688900D03*
X7141950Y6913900D03*
X7158450Y7396650D03*
X7129700Y7562900D03*
X7154700Y8252900D03*
X7256300D03*
X7435800Y976800D03*
X7509700Y3202900D03*
X7414700Y3662900D03*
X7577750Y3727900D03*
X7535000Y4255000D03*
X7425000Y4525000D03*
X7471950Y4963900D03*
X7561950Y5118900D03*
X7574700Y5517700D03*
X7540000Y6210000D03*
X7571950Y6643900D03*
X7561100Y8252900D03*
X7459500D03*
X7357900D03*
X7719700Y507900D03*
X7794700Y1822900D03*
X7670000Y1662900D03*
X7642600Y2185000D03*
X7644910Y2078960D03*
X7812600Y2380000D03*
X7649700Y2300000D03*
X7812600Y2700000D03*
X7752600Y2620000D03*
X7807600Y2540000D03*
X7747600Y2460000D03*
X7751800Y2780000D03*
X7762600Y3180000D03*
X7807600Y3100000D03*
X7739700Y3497900D03*
X7619700Y3582900D03*
X7839700Y3840650D03*
X7670000Y4180000D03*
X7825000Y4270000D03*
X7670610Y4395490D03*
X7880000Y4410000D03*
X7760000Y4485000D03*
X7670650Y4625200D03*
X7685060Y4847350D03*
X7776950Y4723900D03*
X7721850Y5025350D03*
X7868650Y5022850D03*
Y5334000D03*
X7869400Y5217030D03*
X7701950Y5173900D03*
X7849700Y5517700D03*
X7781950Y5878900D03*
X7764100Y6080670D03*
X7701950Y6438900D03*
X7781950Y6323900D03*
X7761950Y6208900D03*
X7709900Y6642100D03*
X7773400Y7061200D03*
X7865900Y8252900D03*
X7764300D03*
X7662700D03*
X7907950Y966150D03*
X8088950Y1237150D03*
X7954700Y1907900D03*
X7987600Y2020000D03*
X7891800Y2100000D03*
X8104700Y2185000D03*
X7891800Y2260000D03*
X8084700Y2342100D03*
X8104700Y2502100D03*
X7891800Y2580000D03*
Y2740000D03*
X8092600Y2820000D03*
X7891800Y2900000D03*
X8094700Y2982100D03*
X7891800Y3060000D03*
X8099700Y3142100D03*
X7891800Y3220000D03*
X7929700Y3577900D03*
X8085000Y4302990D03*
X7970000Y4210000D03*
X8101950Y4538000D03*
X8024220Y4439300D03*
X7936950Y4823900D03*
X7926950Y4638900D03*
X8066950Y4743900D03*
X7953650Y5023960D03*
X8091950Y5019200D03*
X8101950Y5125200D03*
X7954350Y5219970D03*
X7956000Y5330000D03*
X8136950Y5325200D03*
X8104700Y5517700D03*
X7951950Y5863900D03*
X8086950Y6053900D03*
X7967880Y6014340D03*
X7931950Y6428900D03*
X8095000Y6210000D03*
X7941950Y6203900D03*
X8096950Y6305550D03*
X7981950Y6353900D03*
X7986950Y6614600D03*
X8111950Y6618900D03*
Y6763900D03*
X7946950Y6828900D03*
Y7013900D03*
X8114700Y7687900D03*
X8029700Y7647900D03*
X8289700Y1692900D03*
Y2140000D03*
X8164700Y1948350D03*
X8279700Y2302900D03*
X8156750Y2684950D03*
X8259700Y3047900D03*
X8155000Y4210000D03*
X8261950Y4525200D03*
X8151950Y4418900D03*
X8349950Y4525200D03*
Y4325200D03*
X8337110Y4419080D03*
X8266950Y4823900D03*
X8361950Y4832350D03*
X8155200Y4638900D03*
X8268400Y4708230D03*
X8356950Y4708900D03*
X8151950Y4925200D03*
X8271950Y5010060D03*
X8266950Y5233900D03*
X8271950Y5123900D03*
X8221950Y5417900D03*
X8268700Y5892800D03*
X8266640Y6107450D03*
X8351950Y5993900D03*
X8360150Y6103240D03*
X8271950Y6223900D03*
Y6408900D03*
X8268700Y6705600D03*
X8357900Y6707950D03*
X8267900Y6807950D03*
X8356000Y6907950D03*
X8174700Y7212900D03*
X8356950Y7003900D03*
X8268700Y7004050D03*
X8559700Y1072900D03*
X8592700Y2665900D03*
X8589700Y2507900D03*
X8595200Y2983400D03*
X8594700Y2824650D03*
X8424700Y2762900D03*
X8595450Y3142150D03*
X8589700Y3657900D03*
X8604700Y3812900D03*
X8550000Y4225200D03*
X8471210Y4701230D03*
X8604900Y5517700D03*
X8621950Y6007100D03*
X8591950Y6108700D03*
X8541950Y5923900D03*
X8433800Y6407150D03*
X8591950Y6305550D03*
X8927700Y1395900D03*
X8932950Y2189650D03*
X8941700Y2665900D03*
X8930300Y3663500D03*
X8802100Y4257900D03*
X8779700Y4887900D03*
X8797100Y5285000D03*
X8684700Y6130500D03*
X8769700Y6287900D03*
X8776700Y6527800D03*
X8686000Y6908800D03*
X8754700Y7257900D03*
X8744700Y7877900D03*
X8948950Y3142150D03*
X9124700Y4478840D03*
X9141000Y4775200D03*
X9000300Y5295100D03*
X9005100Y5975000D03*
X9131000Y6527800D03*
X9005300Y7061200D03*
D14*
X500000Y500000D03*
Y8250000D03*
X9000000Y500000D03*
Y8250000D03*
M02*