G04 Gerber PCB Fabrication Data in Gerber – Example 2, created by Karel Tavernier, Filip Vermeire and Thomas Weyn*
G04 Ucamco copyright*
%TF.GenerationSoftware,Ucamco,UcamX,1.1.0-1400509*%
%TF.CreationDate,2014-07-14T00:00;00+01:00*%
%FSLAX25Y25*%
%MOMM*%
%TF.FileFunction,Copper,L5,Inr,Signal*%
%TF.FilePolarity,Positive*%
%TF.Part,Single*%
%TF.SameCoordinates*%
%TA.AperFunction,Conductor*%
%ADD10C,0.15000*%
%TA.AperFunction,NonConductor*%
%ADD11C,0.20000*%
%TA.AperFunction,ViaPad*%
%ADD12C,0.65000*%
%TA.AperFunction,WasherPad*%
%ADD13C,6.00000*%
G01*
%LPD*%
D10*
X704700Y4922900D02*
Y4897900D01*
X704700Y4922900D02*
X679700D01*
X704700Y4922900D02*
X719700Y4937900D01*
X1037900D01*
X1102900Y5002900D01*
X679700Y4897900D02*
X704700Y4922900D01*
X639700Y7037900D02*
X664700Y7062900D01*
X779700Y7177900D01*
Y7278750D01*
X795950Y7295000D01*
X664700Y7062900D02*
X639700D01*
X664700Y7062900D02*
Y7037900D01*
X1102900Y5002900D02*
X1109700Y5027900D01*
X1102900Y5002900D02*
X1134700D01*
X1102900Y5002900D02*
X1129700Y5029700D01*
Y5032900D01*
X1134700Y5027900D01*
X4440810Y1747900D02*
X4337900D01*
X4300900Y1710900D01*
X3300850D01*
X3297490Y1707540D01*
Y1707530D01*
X3282860Y1692900D01*
X3204640D01*
X3191640Y1705900D01*
X2997700D01*
X2860700Y1568900D01*
X1398700D01*
X1319700Y1647900D01*
X548590D01*
X529150Y1628450D01*
X548590Y1647900D02*
X529150Y1667350D01*
X548590Y1647900D02*
X509700D01*
X509700Y1916790D02*
X529150Y1897350D01*
X509700Y1916790D02*
X490250Y1897350D01*
X509700Y1916790D02*
Y2302900D01*
X569700Y2362900D01*
Y2527900D01*
X771800Y2730000D01*
X875000D01*
X1087400Y2942400D01*
X1780590D01*
X1790090Y2932900D01*
X1895060D01*
X1900060Y2937900D01*
X1900070D01*
X1914700Y2952530D01*
Y2952540D01*
X1965560Y3003400D01*
X2375190D01*
X2469190Y3097400D01*
X2664700D01*
X2688700Y3073400D01*
X2975200D01*
X2999200Y3097400D01*
X3357600D01*
X3420000Y3035000D01*
X3857160D01*
X3939560Y3117400D01*
X4275210D01*
X4375210Y3017400D01*
X4430190D01*
X4454190Y2993400D01*
X4530200D01*
X4552200Y3015400D01*
X509700Y1877900D02*
Y1916790D01*
X4779700Y2904010D02*
Y2849700D01*
X4723400Y2793400D01*
X4359190D01*
X4330200Y2822390D01*
Y2869800D01*
X4275000Y2925000D01*
X4040000D01*
X3937910Y2822910D01*
X3327140D01*
X3262630Y2758400D01*
X2885210D01*
X2835210Y2708400D01*
X2794190D01*
X2757590Y2745000D01*
X2520000D01*
X2402600Y2862400D01*
X1554200D01*
X1371800Y2680000D01*
X766800D01*
X754200Y2667400D01*
X753840D01*
X595200Y2508760D01*
Y2357400D01*
X700700Y2251900D01*
Y2195790D01*
X4440810Y3042900D02*
X4392140D01*
X4292640Y3142400D01*
X3922130D01*
X3839730Y3060000D01*
X3435000D01*
X3297600Y3197400D01*
X3063840D01*
X2964840Y3098400D01*
X2718700D01*
X2694700Y3122400D01*
X2458830D01*
X2427330Y3090900D01*
X2196200D01*
X2184700Y3102400D01*
X2029200D01*
X1884700Y2957900D01*
X1800450D01*
X1790950Y2967400D01*
X854200D01*
X537200Y2650400D01*
Y2622900D01*
X537200Y2650400D02*
X509700D01*
X537200Y2650400D02*
X509700Y2622900D01*
X672200Y2375400D02*
X620200Y2427400D01*
Y2498400D01*
X764200Y2642400D01*
X1657650D01*
X1684150Y2615900D01*
X1803240D01*
X1830240Y2642900D01*
X2229550D01*
X2270430Y2683780D01*
X2733950D01*
X2759330Y2658400D01*
X2870210D01*
X2910210Y2698400D01*
X3312770D01*
X3381770Y2767400D01*
X4372600D01*
X4447100Y2692900D01*
X4529700D01*
X4552200Y2670400D01*
X480420Y2473390D02*
X507920D01*
X480420Y2473390D02*
Y2445890D01*
X480420Y2473390D02*
X454700Y2499110D01*
Y2645690D01*
X867410Y3058400D01*
X1215200D01*
X1249700Y3092900D01*
X1644690D01*
X1679190Y3127400D01*
X2208200D01*
X2219700Y3115900D01*
X2416970D01*
X2448470Y3147400D01*
X2714700D01*
X2738700Y3123400D01*
X2954480D01*
X3053480Y3222400D01*
X3312600D01*
X3450000Y3085000D01*
X3810000D01*
X3917400Y3192400D01*
X4525200D01*
X4624200Y3093400D01*
X4729190D01*
X4752200Y3070400D01*
X507920Y2445890D02*
X480420Y2473390D01*
X1125810Y3177900D02*
X544700D01*
X509700Y3212900D01*
X1125810Y3777900D02*
X714700D01*
X713950Y3777150D01*
X510200D01*
X825220Y1921430D02*
Y1893930D01*
X825220Y1921430D02*
X797720D01*
X825220Y1921430D02*
X946440Y2042650D01*
X1264460D01*
X1499210Y2277400D01*
X2012400D01*
X2030000Y2295000D01*
X2287400D01*
X2344000Y2238400D01*
X2865070D01*
X2927910Y2301240D01*
X3028810D01*
X3082150Y2247900D01*
X3191880D01*
X3234780Y2205000D01*
X3306800D01*
X3331800Y2230000D01*
X3505000D01*
X3676600Y2058400D01*
X4070200D01*
X4140200Y2128400D01*
X4277640D01*
X4292140Y2142900D01*
X4340810D01*
X797720Y1893930D02*
X825220Y1921430D01*
X672200Y2375400D02*
X699700D01*
X672200Y2375400D02*
Y2347900D01*
X699700Y2347900D02*
X672200Y2375400D01*
X700700Y2195790D02*
X720150Y2176350D01*
X700700Y2195790D02*
X681250Y2176350D01*
X700700Y2195790D02*
Y2156900D01*
X697200Y2480400D02*
Y2452900D01*
X697200Y2480400D02*
X669700D01*
X697200Y2480400D02*
X834200Y2617400D01*
X1640210D01*
X1666710Y2590900D01*
X1813600D01*
X1840600Y2617900D01*
X2246990D01*
X2287870Y2658780D01*
X2716520D01*
X2756900Y2618400D01*
X3131630D01*
X3156630Y2593400D01*
X3250210D01*
X3386810Y2730000D01*
X4000000D01*
X4005000Y2725000D01*
X4005360D01*
X4070360Y2660000D01*
X4165000D01*
X4205000Y2700000D01*
X4400000D01*
X4435000Y2665000D01*
X4457600D01*
X4479700Y2642900D01*
X669700Y2452900D02*
X697200Y2480400D01*
X807200Y2485400D02*
Y2452900D01*
X807200Y2485400D02*
X779700Y2480400D01*
X807200Y2485400D02*
X914200Y2592400D01*
X1480210D01*
X1607030Y2465580D01*
X1723640D01*
X1850960Y2592900D01*
X2264420D01*
X2305300Y2633780D01*
X2663320D01*
X2724700Y2572400D01*
X3135200D01*
X3147540Y2560060D01*
X3457540D01*
X3474700Y2542900D01*
X3540810D01*
X779700Y2452900D02*
Y2457900D01*
X807200Y2485400D01*
X4782200Y4615400D02*
X4746800Y4580000D01*
X3445000D01*
X3275000Y4750000D01*
Y4804220D01*
X3194180Y4885000D01*
X3134180Y4945000D01*
Y4945820D01*
X3007600Y5072400D01*
X2220210D01*
X2185210Y5107400D01*
X1663840D01*
X1631410Y5074970D01*
X1420000D01*
X1404970Y5090000D01*
X1079590D01*
X1022490Y5032900D01*
X873590D01*
X854150Y5013450D01*
X873590Y5032900D02*
X854150Y5052350D01*
X873590Y5032900D02*
X834700D01*
X888890Y7197900D02*
X869450Y7178450D01*
X888890Y7197900D02*
X869450Y7217350D01*
X888890Y7197900D02*
X850000D01*
X3921700Y6839790D02*
Y6897900D01*
X3706700Y7112900D01*
X1387100D01*
X1302100Y7197900D01*
X888890D01*
X795950Y7295000D02*
X923850Y7422900D01*
X2550810D01*
X1187200Y2800400D02*
X1154700D01*
X1187200Y2800400D02*
X1159700Y2772900D01*
X1154700D01*
X1125810Y3177900D02*
X1145250Y3197350D01*
X1125810Y3177900D02*
X1145250Y3158450D01*
X1164700Y3177900D02*
X1125810D01*
X1125810Y3777900D02*
X1145250Y3797350D01*
X1125810Y3777900D02*
X1145250Y3758450D01*
X1164700Y3777900D02*
X1125810D01*
X1062200Y5255400D02*
Y5227900D01*
X1062200Y5255400D02*
X1034700D01*
X1062200Y5255400D02*
X1086470Y5279670D01*
X1149670D01*
X1150670Y5280670D01*
X1165670D01*
X1305000Y5420000D01*
X1440000D01*
X1555400Y5535400D01*
X1034700Y5227900D02*
X1062200Y5255400D01*
X1171320Y5230170D02*
X1151880Y5210720D01*
X1171320Y5230170D02*
X1151880Y5249620D01*
X1132430Y5230170D02*
X1171320D01*
X1203590Y6672900D02*
X1164700D01*
X1187200Y2800400D02*
X1182200Y2772900D01*
X4545400Y2915400D02*
X4523400Y2893400D01*
X4356630D01*
X4292130Y2957900D01*
X4102100D01*
X4067600Y2992400D01*
X3959190D01*
X3929200Y2962410D01*
Y2922390D01*
X3861810Y2855000D01*
X3316800D01*
X3250200Y2788400D01*
X2854210D01*
X2835210Y2807400D01*
X2794190D01*
X2761790Y2775000D01*
X2530000D01*
X2417600Y2887400D01*
X1274200D01*
X1187200Y2800400D01*
X3071110Y3490000D02*
X3050000D01*
X3010600Y3529400D01*
X2464400D01*
X2402900Y3467900D01*
X1957100D01*
X1872600Y3552400D01*
X1529700D01*
X1422200Y3659900D01*
X1394700Y3687400D01*
Y3692900D01*
X1422200Y3659900D02*
Y3692900D01*
X1422200Y3659900D02*
X1394700Y3665400D01*
X1322200Y4060400D02*
Y4032900D01*
X1322200Y4060400D02*
X1294700D01*
X1322200Y4060400D02*
X1919200Y4657400D01*
X2739210D01*
X2849700Y4767890D01*
Y4937900D01*
X2907200Y4995400D01*
X1294700Y4032900D02*
X1322200Y4060400D01*
X2125810Y5057900D02*
X1827900D01*
X1735000Y4965000D01*
X1556800D01*
X1424700Y4832900D01*
X1363590D01*
X1344150Y4813450D01*
X1363590Y4832900D02*
X1344150Y4852350D01*
X1363590Y4832900D02*
X1324700D01*
X1171320Y5230170D02*
X1215170D01*
X1262400Y5277400D01*
X1445000D01*
X1479500Y5242900D01*
X1605810D01*
X1299700Y5830300D02*
X1272200Y5830400D01*
X1299700Y5830300D02*
Y5857900D01*
X1299700Y5830300D02*
X1367100Y5762900D01*
X1859700D01*
X1968400Y5654200D01*
X2358810D01*
X1272200Y5857900D02*
Y5857800D01*
X1299700Y5830300D01*
X1203590Y6672900D02*
X1184150Y6653450D01*
X1203590Y6672900D02*
X1184150Y6692350D01*
X1203590Y6672900D02*
X1227900D01*
X1240000Y6685000D01*
X1315390D01*
X1360390Y6640000D01*
X1491600D01*
X1524500Y6672900D01*
X1632100D01*
X1700000Y6605000D01*
X2586500D01*
X2624200Y6642700D01*
X1414700Y6697900D02*
X1574690D01*
X1598190Y6721400D01*
X2828200D01*
X2877200Y6770400D01*
X1612200Y1735400D02*
X1584700D01*
X1612200Y1735400D02*
Y1762900D01*
X1612200Y1735400D02*
X1584700Y1762900D01*
X2161310Y1618400D02*
X2155810Y1612900D01*
X1734700D01*
X1612200Y1735400D01*
X1612200Y2120400D02*
Y2092900D01*
X1612200Y2120400D02*
X1584700D01*
X1612200Y2120400D02*
X1634200Y2142400D01*
X1910000D01*
X1937600Y2170000D01*
X2060000D01*
X2125000Y2105000D01*
X2730000D01*
X2781600Y2053400D01*
X3295500D01*
X3365000Y2122900D01*
X3410810D01*
X1584700Y2092900D02*
X1612200Y2120400D01*
X1487200Y2515400D02*
X1459700D01*
X1487200Y2515400D02*
Y2542900D01*
X1487200Y2515400D02*
X1562020Y2440580D01*
X1877370D01*
X1949190Y2512400D01*
X2034830D01*
X2054930Y2492300D01*
X2144900D01*
X2170000Y2517400D01*
X2465190D01*
X2509190Y2473400D01*
X2853400D01*
X2904980Y2524980D01*
X3407620D01*
X3492600Y2440000D01*
X3632760D01*
X1459700Y2542900D02*
X1487200Y2515400D01*
X3529600Y3270400D02*
X3507600Y3292400D01*
X3425000D01*
X3405000Y3272400D01*
X2034200D01*
X1955200Y3193400D01*
X1619200D01*
X1532200Y3280400D01*
X1504700D01*
X1532200Y3280400D02*
Y3307900D01*
X1532200Y3280400D02*
X1504700Y3307900D01*
X1605810Y5242900D02*
X1625250Y5262350D01*
X1605810Y5242900D02*
X1625250Y5223450D01*
X1605810Y5242900D02*
X1644700D01*
X1555400Y5535400D02*
X1557200Y5562900D01*
X1555400Y5535400D02*
X1584700D01*
X1555400Y5535400D02*
X1582900Y5562900D01*
X1584700D01*
X1488590Y6387900D02*
X1469150Y6368450D01*
X1488590Y6387900D02*
X1469150Y6407350D01*
X1488590Y6387900D02*
X1449700D01*
X3442200Y6640400D02*
X3470000Y6612600D01*
Y6521300D01*
X3433700Y6485000D01*
X3351300D01*
X3332000Y6465700D01*
X2722800D01*
X2645000Y6387900D01*
X1940000D01*
X1907100Y6355000D01*
X1749900D01*
X1717000Y6387900D01*
X1488590D01*
X1488590Y6492900D02*
X1469150Y6473450D01*
X1488590Y6492900D02*
X1469150Y6512350D01*
X1488590Y6492900D02*
X1449700D01*
X1488590Y6492900D02*
X3315000D01*
X3364000Y6541900D01*
X3373510D01*
X1607200Y7360400D02*
Y7332900D01*
X1607200Y7360400D02*
X1579700D01*
X1607200Y7360400D02*
X1644700Y7397900D01*
X2485000D01*
X2509500Y7373400D01*
X3225500D01*
X3270000Y7417900D01*
X3352100D01*
X3380000Y7390000D01*
X3741600D01*
X3774700Y7423100D01*
Y7434010D01*
X1579700Y7332900D02*
X1607200Y7360400D01*
X1732200Y2035400D02*
X1704700D01*
X1732200Y2035400D02*
Y2062900D01*
X1732200Y2035400D02*
X1757600Y2010000D01*
X2143400D01*
X2183400Y1970000D01*
X2322600D01*
X2345000Y1992400D01*
X3495200D01*
X3564950Y1922650D01*
X3780210D01*
X3854460Y1848400D01*
X4185200D01*
X4336800Y2000000D01*
X5435000D01*
X5532200Y1902800D01*
X1704700Y2062900D02*
X1732200Y2035400D01*
X1964700Y2227900D02*
X2003590D01*
X2622200Y5300700D02*
X2585000Y5337900D01*
X1929700D01*
X1897200Y5370400D01*
X1869700D01*
X1897200Y5370400D02*
Y5397900D01*
X1897200Y5370400D02*
X1869700Y5397900D01*
X3144390Y6025610D02*
X3130000Y6040000D01*
X2025000D01*
X1899600Y6165400D01*
X1869700D01*
X1899600Y6165400D02*
X1897200Y6192900D01*
X1899600Y6165400D02*
X1872100Y6192900D01*
X1869700D01*
X1838590Y6670200D02*
X1819150Y6650750D01*
X1838590Y6670200D02*
X1819150Y6689650D01*
X1838590Y6670200D02*
X2358810D01*
X1799700Y6670200D02*
X1838590D01*
X2161310Y1618400D02*
X2180750Y1598950D01*
X2161310Y1618400D02*
X2180750Y1637850D01*
X2161310Y1618400D02*
X2200200D01*
X2238590Y2422900D02*
X2219150Y2403450D01*
X2003590Y2227900D02*
X1984150Y2208450D01*
X2003590Y2227900D02*
X1984150Y2247350D01*
X2003590Y2227900D02*
X2035000D01*
X2072100Y2265000D01*
X2277400D01*
X2329000Y2213400D01*
X2882500D01*
X2945340Y2276240D01*
X3011370D01*
X3067610Y2220000D01*
X3177350D01*
X3217350Y2180000D01*
X3322240D01*
X3347240Y2205000D01*
X3485000D01*
X3656600Y2033400D01*
X4087630D01*
X4147630Y2093400D01*
X4635570D01*
X4745070Y2202900D01*
X4755810D01*
X2016020Y2462900D02*
X1996580Y2443450D01*
X2016020Y2462900D02*
X1996580Y2482350D01*
X2016020Y2462900D02*
X2160600D01*
X2177700Y2480000D01*
X2272610D01*
X2334210Y2418400D01*
X2843400D01*
X2924980Y2499980D01*
X3337620D01*
X3452600Y2385000D01*
X3686660D01*
X3725000Y2423340D01*
Y2465000D01*
X3752400Y2492400D01*
X3865200D01*
X3914700Y2442900D01*
X3940810D01*
X1977130Y2462900D02*
X2016020D01*
X2238590Y2422900D02*
X2199700D01*
X2238590Y2422900D02*
X2219150Y2442350D01*
X2103590Y4812900D02*
X2084150Y4793450D01*
X2103590Y4812900D02*
X2084150Y4832350D01*
X2103590Y4812900D02*
X2302900D01*
X2365400Y4875400D01*
X2064700Y4812900D02*
X2103590D01*
X2125810Y5057900D02*
X2145250Y5077350D01*
X2125810Y5057900D02*
X2145250Y5038450D01*
X2164700Y5057900D02*
X2125810D01*
X2028590Y5257900D02*
X2009150Y5238450D01*
X2028590Y5257900D02*
X2009150Y5277350D01*
X2028590Y5257900D02*
X2241910D01*
X2271910Y5227900D01*
X2317490D01*
X2347490Y5257900D01*
X2350810D01*
X1989700Y5257900D02*
X2028590D01*
X2752200Y5500400D02*
X2684700Y5432900D01*
X2194700D01*
X2177200Y5415400D01*
X2172200Y5387900D01*
X2177200Y5415400D02*
X2144700D01*
X2177200Y5415400D02*
X2149700Y5387900D01*
X2144700D01*
X3195810Y6072900D02*
X2227100D01*
X2009600Y6290400D01*
X1974700D01*
X2009600Y6290400D02*
X2002200Y6317900D01*
X2009600Y6290400D02*
X1982100Y6317900D01*
X1974700D01*
X2238590Y6917900D02*
X2219150Y6898450D01*
X2238590Y6917900D02*
X2219150Y6937350D01*
X2199700Y6917900D02*
X2238590D01*
X2233580Y7056780D02*
X2231710Y7029280D01*
X2233580Y7056780D02*
X2204210D01*
X2233580Y7056780D02*
X2254700Y7077900D01*
X2849700D01*
X2957200Y6970400D01*
X2204210Y7029280D02*
X2206080D01*
X2233580Y7056780D01*
X4247200Y2210400D02*
X4225200Y2188400D01*
X3636770D01*
X3540170Y2285000D01*
X3415000D01*
X3362600Y2337400D01*
X3135200D01*
X3124200Y2348400D01*
Y2348410D01*
X3095210Y2377400D01*
X2961640D01*
X2847640Y2263400D01*
X2419200D01*
X2259700Y2422900D01*
X2238590D01*
X2467140Y2712280D02*
X2439640Y2712500D01*
X2467140Y2712280D02*
Y2740000D01*
X2467140Y2712280D02*
X2439860D01*
X2439640Y2712500D01*
X2439640Y2740000D02*
Y2739780D01*
X2467140Y2712280D01*
X2747880D01*
X2776760Y2683400D01*
X2852770D01*
X2897770Y2728400D01*
X3275060D01*
X3344570Y2797910D01*
X3952910D01*
X4055000Y2900000D01*
X4222600D01*
X4252200Y2870400D01*
X3850400Y3215400D02*
X3828400Y3193400D01*
X3384920D01*
X3330920Y3247400D01*
X3043100D01*
X2944100Y3148400D01*
X2774210D01*
X2750210Y3172400D01*
X2438110D01*
X2431110Y3165400D01*
X2326090D01*
X2306650Y3145950D01*
X2326090Y3165400D02*
X2306650Y3184850D01*
X2326090Y3165400D02*
X2287200D01*
X2528590Y3047900D02*
X2489700D01*
X2283590Y3412900D02*
X2264150Y3393450D01*
X2283590Y3412900D02*
X2264150Y3432350D01*
X2283590Y3412900D02*
X2329700D01*
X2442200Y3300400D01*
X3145400D01*
X3265000Y3420000D01*
X3572610D01*
X3630200Y3362410D01*
Y3322390D01*
X3659190Y3293400D01*
X3700210D01*
X3734710Y3327900D01*
X4054560D01*
X4119060Y3392400D01*
X4530200D01*
X4552200Y3370400D01*
X2244700Y3412900D02*
X2283590D01*
X2353590Y3722900D02*
X2334150Y3703450D01*
X2353590Y3722900D02*
X2334150Y3742350D01*
X2353590Y3722900D02*
X2979700D01*
X2987200Y3715400D01*
X2314700Y3722900D02*
X2353590D01*
X2365400Y4875400D02*
X2392900Y4902900D01*
X2394700D01*
X2365400Y4875400D02*
X2394700D01*
X2365400Y4875400D02*
X2367200Y4902900D01*
X2350810Y5257900D02*
X2370250Y5277350D01*
X2350810Y5257900D02*
X2370250Y5238450D01*
X2350810Y5257900D02*
X2389700D01*
X3962200Y5030400D02*
X3795200Y5197400D01*
X2504200D01*
X2453000Y5146200D01*
X2436590D01*
X2397700D01*
X2436590Y5146200D02*
X2417150Y5165650D01*
X2436590Y5146200D02*
X2417150Y5126750D01*
X2358810Y5654200D02*
X2378250Y5673650D01*
X2358810Y5654200D02*
X2378250Y5634750D01*
X2358810Y5654200D02*
X2397700D01*
X2358810Y6670200D02*
X2397700D01*
X2358810Y6670200D02*
X2378250Y6650750D01*
X2358810Y6670200D02*
X2378250Y6689650D01*
X2238590Y6917900D02*
X2270000D01*
X2297100Y6945000D01*
X2532600D01*
X2604700Y6872900D01*
X3077100D01*
X3125300Y6824700D01*
X2571490Y2315000D02*
X2549150Y2298450D01*
X2571490Y2315000D02*
X2549150Y2337350D01*
X2571490Y2315000D02*
X2603400D01*
X2615000Y2303400D01*
X2845210D01*
X2949210Y2407400D01*
X3110200D01*
X3154200Y2363400D01*
X3389340D01*
X3432740Y2320000D01*
X3547600D01*
X3574200Y2293400D01*
X4028400D01*
X4047360Y2312360D01*
X2529700Y2317900D02*
Y2327900D01*
X2542600Y2315000D01*
X2571490D01*
X4447230Y2965000D02*
X4419830Y2992400D01*
X4127600D01*
X4027600Y3092400D01*
X3956990D01*
X3856990Y2992400D01*
X2825200D01*
X2800700Y3016900D01*
X2799700D01*
X2768700Y3047900D01*
X2528590D01*
X2509150Y3028450D01*
X2528590Y3047900D02*
X2509150Y3067350D01*
X2557200Y3380400D02*
Y3352900D01*
X2557200Y3380400D02*
X2529700D01*
X2557200Y3380400D02*
X2601800Y3425000D01*
X3195000D01*
X3225000Y3455000D01*
X3650000D01*
X3677120Y3427890D01*
Y3427880D01*
X3741600Y3363400D01*
X4047630D01*
X4176630Y3492400D01*
X4530200D01*
X4552200Y3470400D01*
X2529700Y3352900D02*
X2557200Y3380400D01*
X2622200Y5300700D02*
X2649700D01*
X2622200Y5300700D02*
Y5273200D01*
X2649700Y5273200D02*
X2622200Y5300700D01*
X3860810Y4997900D02*
X3152100D01*
X3052110Y5097890D01*
X2734710D01*
X2689700Y5142900D01*
X2563590D01*
X2544150Y5123450D01*
X2563590Y5142900D02*
X2544150Y5162350D01*
X2563590Y5142900D02*
X2524700D01*
X2752200Y5500400D02*
Y5527900D01*
X2752200Y5500400D02*
X2779700D01*
X2779700Y5527900D02*
X2752200Y5500400D01*
X2624200Y6642700D02*
Y6670200D01*
X2624200Y6642700D02*
X2651700D01*
X2624200Y6642700D02*
X2651700Y6670200D01*
X3645810Y7442900D02*
X2837900D01*
X2817900Y7422900D01*
X2628590D01*
X2589700D01*
X2628590Y7422900D02*
X2609150Y7442350D01*
X2628590Y7422900D02*
X2609150Y7403450D01*
X2550810Y7422900D02*
X2589700D01*
X2550810Y7422900D02*
X2570250Y7403450D01*
X2550810Y7422900D02*
X2570250Y7442350D01*
X2907200Y1470400D02*
X2879700D01*
X2907200Y1470400D02*
Y1497900D01*
X2907200Y1470400D02*
X3232600Y1145000D01*
X3900000D01*
X4212400Y1457400D01*
X4993960D01*
X5304700Y1768140D01*
Y1784010D01*
X2879700Y1497900D02*
X2907200Y1470400D01*
X2841590Y1724900D02*
X2822150Y1705450D01*
X2841590Y1724900D02*
X2822150Y1744350D01*
X2841590Y1724900D02*
X2879910D01*
X2901910Y1702900D01*
X2947490D01*
X2975490Y1730900D01*
X3202000D01*
X3215000Y1717900D01*
X3272490D01*
X3290490Y1735900D01*
X4270900D01*
X4362900Y1827900D01*
X4644700D01*
X4712200Y1760400D01*
X2802700Y1724900D02*
X2841590D01*
X3017200Y1645400D02*
Y1617900D01*
X3017200Y1645400D02*
X2989700D01*
X3017200Y1645400D02*
X3052200Y1680400D01*
X3169600D01*
X2989700Y1617900D02*
X3017200Y1645400D01*
X4140810Y2542900D02*
X4082900D01*
X4030200Y2490200D01*
Y2423390D01*
X4000210Y2393400D01*
X3737630D01*
X3699230Y2355000D01*
X3440170D01*
X3401770Y2393400D01*
X3166600D01*
X3122600Y2437400D01*
X2986990D01*
X2986980Y2437410D01*
X2937280D01*
X2937270Y2437400D01*
X2912400D01*
X2855400Y2380400D01*
X2852200Y2352900D01*
X2855400Y2380400D02*
X2824700D01*
X2855400Y2380400D02*
X2827900Y2352900D01*
X2824700D01*
X6300810Y2517900D02*
X6192900D01*
X6062900Y2387900D01*
X5999700D01*
X5705200Y2093400D01*
X4854210D01*
X4800210Y2147400D01*
X4739190D01*
X4655190Y2063400D01*
X4160060D01*
X4105060Y2008400D01*
X3641600D01*
X3470000Y2180000D01*
X3360000D01*
X3270400Y2090400D01*
X3139610D01*
X3003250Y2226740D01*
X2985310Y2208790D01*
X3003250Y2226740D02*
X2985310Y2244680D01*
X3003250Y2226740D02*
X2965860D01*
X2987200Y3715400D02*
X3014700D01*
X2987200Y3715400D02*
Y3687900D01*
X2987200Y3715400D02*
X3014700Y3687900D01*
X2891640Y3624000D02*
X2872200Y3604550D01*
X2891640Y3624000D02*
X2872200Y3643450D01*
X2891640Y3624000D02*
X3199000D01*
X3220000Y3645000D01*
X3677600D01*
X3752200Y3570400D01*
X2852750Y3624000D02*
X2891640D01*
X2907200Y4995400D02*
Y5022900D01*
X2907200Y4995400D02*
X2934700D01*
X2907200Y4995400D02*
X2934700Y5022900D01*
X2877200Y6770400D02*
Y6797900D01*
X2877200Y6770400D02*
X2904700D01*
X2877200Y6770400D02*
X2904700Y6797900D01*
X2957200Y6970400D02*
X2984700D01*
X2957200Y6970400D02*
Y6942900D01*
X2957200Y6970400D02*
X2984700Y6942900D01*
X3102200Y2300400D02*
X3074700D01*
X3102200Y2300400D02*
Y2327900D01*
X3102200Y2300400D02*
X3124690Y2277910D01*
X3204300D01*
X3252210Y2230000D01*
X3295000D01*
X3320000Y2255000D01*
X3527740D01*
X3619340Y2163400D01*
X4270210D01*
X4299210Y2192400D01*
X4556360D01*
X4559190Y2189570D01*
X4696380D01*
X4759210Y2252400D01*
X4900190D01*
X4954190Y2198400D01*
X5430140D01*
X5659640Y2427900D01*
X6004700D01*
X6164700Y2587900D01*
X6220810D01*
X3074700Y2327900D02*
X3102200Y2300400D01*
X3071110Y3490000D02*
X3090550Y3470550D01*
X3148890Y3490000D02*
X3129450Y3470550D01*
X3071110Y3490000D02*
X3090550Y3509450D01*
X3148890Y3490000D02*
X3129450Y3509450D01*
X3148890Y3490000D02*
X3654990D01*
X3690010Y3455000D01*
Y3454990D01*
X3756600Y3388400D01*
X4030200D01*
X4236800Y3595000D01*
X4504690D01*
X4559190Y3540500D01*
X4559500D01*
X4606600Y3493400D01*
X4831600D01*
X4852200Y3472800D01*
X3110000Y3490000D02*
X3148890D01*
X3110000Y3490000D02*
X3071110D01*
X3144390Y6025610D02*
X3171890Y6025400D01*
X3144390Y6025610D02*
Y5997900D01*
X3144390Y6025610D02*
X3171890Y5998110D01*
Y5997900D01*
X3195810Y6072900D02*
X3215250Y6092350D01*
X3195810Y6072900D02*
X3215250Y6053450D01*
X3195810Y6072900D02*
X3234700D01*
X3125300Y6824700D02*
X3159700D01*
X3125300Y6824700D02*
X3132200Y6797200D01*
X3125300Y6824700D02*
X3152800Y6797200D01*
X3159700D01*
X3382200Y1595400D02*
X3354700D01*
X3382200Y1595400D02*
Y1622900D01*
X3382200Y1595400D02*
X3408950Y1568650D01*
X4075450D01*
X4077200Y1570400D01*
X3354700Y1622900D02*
X3382200Y1595400D01*
X3477200Y2095400D02*
X3449700D01*
X3477200Y2095400D02*
Y2122900D01*
X3477200Y2095400D02*
X3589200Y1983400D01*
X4122490D01*
X4172490Y2033400D01*
X5820200D01*
X6217200Y2430400D01*
X3410810Y2122900D02*
X3430250Y2142350D01*
X3410810Y2122900D02*
X3430250Y2103450D01*
X3410810Y2122900D02*
X3449700D01*
X3477200Y2095400D01*
X3540810Y2542900D02*
X3560250Y2562350D01*
X3540810Y2542900D02*
X3560250Y2523450D01*
X3540810Y2542900D02*
X3579700D01*
X3529600Y3270400D02*
X3552200Y3242900D01*
X3579700Y3242900D02*
X3557100D01*
X3529600Y3270400D01*
X3524600Y3315400D02*
X3507200Y3342900D01*
X3524600Y3315400D02*
X3497100Y3342900D01*
X3479700D01*
X3524600Y3315400D02*
X3546600Y3293400D01*
X3616760D01*
X3646760Y3263400D01*
X3712640D01*
X3741640Y3292400D01*
X4759190D01*
X4759490Y3292700D01*
X4772270D01*
X4774210Y3294640D01*
X4867240D01*
X4915500Y3342900D01*
X5270810D01*
X3494700Y3928760D02*
Y3895300D01*
X3550000Y3840000D01*
X3727600D01*
X3827200Y3740400D01*
X3494700Y3928760D02*
Y3967650D01*
X3494700Y3928760D02*
X3514150Y3948200D01*
X3494700Y3928760D02*
X3475250Y3948200D01*
X3442200Y6640400D02*
X3414700D01*
X3442200Y6640400D02*
Y6667900D01*
X3442200Y6640400D02*
X3414700Y6667900D01*
X3373510Y6541900D02*
X3394250Y6562650D01*
X3373510Y6541900D02*
X3394250Y6523750D01*
X3373510Y6541900D02*
X3412400D01*
X3413700Y6543200D01*
X3818590Y2342900D02*
X3799150Y2323450D01*
X3818590Y2342900D02*
X3799150Y2362350D01*
X3818590Y2342900D02*
X3779700D01*
X7284700Y3599010D02*
Y3414700D01*
X6985000Y3115000D01*
X6875000D01*
X6410000Y2650000D01*
X6001800D01*
X5859700Y2507900D01*
X5437270D01*
X5382270Y2452900D01*
X5173160D01*
X5062920Y2342660D01*
X4779950D01*
X4725210Y2397400D01*
X4553650D01*
X4548650Y2392400D01*
X4041640D01*
X3992140Y2342900D01*
X3818590D01*
X3632760Y2440000D02*
X3652240Y2459490D01*
X3632760Y2440000D02*
X3652240Y2420590D01*
X3632760Y2440000D02*
X3667670D01*
X3669700Y2442030D01*
X3671690Y2440040D01*
Y2456690D01*
X3729200Y2514200D01*
Y2562410D01*
X3759190Y2592400D01*
X4207600D01*
X4229200Y2570800D01*
Y2523390D01*
X4259190Y2493400D01*
X4642650D01*
X4701650Y2552400D01*
X5000210D01*
X5039210Y2513400D01*
X5320210D01*
X5349200Y2542390D01*
Y2547410D01*
X5574190Y2772400D01*
X6257600D01*
X6292200Y2737800D01*
X5260810Y2562900D02*
X5139710D01*
X5055210Y2647400D01*
X4822400D01*
X4768400Y2593400D01*
X4246600D01*
X4212100Y2627900D01*
X4067100D01*
X3995000Y2700000D01*
X3740000D01*
X3679700Y2639700D01*
Y2581790D01*
X3699150Y2562350D01*
X3679700Y2581790D02*
X3660250Y2562350D01*
X3679700Y2581790D02*
Y2542900D01*
X3827200Y3740400D02*
Y3712900D01*
X3827200Y3740400D02*
X3854700Y3712900D01*
X3645000Y3555000D02*
Y3577600D01*
X3729200Y3493400D01*
X4040200D01*
X4186800Y3640000D01*
X4450500D01*
X4500500Y3690000D01*
X5045000D01*
X5125000Y3610000D01*
X5892100D01*
X5930000Y3647900D01*
X6591110D01*
X3752200Y3570400D02*
X3779700D01*
X3752200Y3570400D02*
Y3542900D01*
X3752200Y3570400D02*
X3779700Y3542900D01*
X3827200Y3740400D02*
X3854700D01*
X3645810Y7442900D02*
X3665250Y7462350D01*
X3645810Y7442900D02*
X3665250Y7423450D01*
X3684700Y7442900D02*
X3645810D01*
X3774700Y7434010D02*
Y7472900D01*
X3774700Y7434010D02*
X3794150Y7453450D01*
X3774700Y7434010D02*
X3755250Y7453450D01*
X3892200Y1230400D02*
Y1202900D01*
X3892200Y1230400D02*
X3864700D01*
X3892200Y1230400D02*
X4161800Y1500000D01*
X4576800D01*
X4635000Y1558200D01*
Y1732600D01*
X4624200Y1743400D01*
X3864700Y1202900D02*
X3892200Y1230400D01*
X4077200Y1570400D02*
Y1597900D01*
X4077200Y1570400D02*
X4104700D01*
X4077200Y1570400D02*
X4104700Y1597900D01*
X4113750Y2342720D02*
X4094310Y2323270D01*
X4113750Y2342720D02*
X4094310Y2362170D01*
X4047360Y2312360D02*
Y2342720D01*
X4047360Y2312360D02*
X4074860Y2315220D01*
X4047360Y2312360D02*
X4074860Y2339860D01*
Y2342720D01*
X4113750D01*
X3940810Y2442900D02*
X3960250Y2462350D01*
X3940810Y2442900D02*
X3960250Y2423450D01*
X3940810Y2442900D02*
X3979700D01*
X3850400Y3215400D02*
X3852200Y3242900D01*
X3850400Y3215400D02*
X3879700D01*
X3879700Y3242900D02*
X3877900D01*
X3850400Y3215400D01*
X3860810Y4997900D02*
X3880250Y5017350D01*
X3860810Y4997900D02*
X3880250Y4978450D01*
X3899700Y4997900D02*
X3860810D01*
X3962200Y5030400D02*
X3989700D01*
X3962200Y5030400D02*
Y5002900D01*
X3989700Y5002900D02*
X3962200Y5030400D01*
X3921700Y6800900D02*
Y6839790D01*
X3902250Y6820350D01*
X3921700Y6839790D02*
X3941150Y6820350D01*
X4297200Y1220400D02*
Y1192900D01*
X4297200Y1220400D02*
X4269700D01*
X4297200Y1220400D02*
X4324700Y1247900D01*
X6599700D01*
X6667200Y1315400D01*
X4269700Y1192900D02*
X4297200Y1220400D01*
X4340810Y2142900D02*
X4360250Y2123450D01*
X4340810Y2142900D02*
X4360250Y2162350D01*
X4340810Y2142900D02*
X4379700D01*
X4113750Y2342720D02*
X4265680D01*
X4315000Y2293400D01*
X4720210D01*
X4739470Y2312660D01*
X5075350D01*
X5185590Y2422900D01*
X5439690D01*
X5499190Y2482400D01*
X5959200D01*
X5962200Y2485400D01*
X4247200Y2210400D02*
Y2237900D01*
X4247200Y2210400D02*
X4274700D01*
X4274700Y2237900D02*
X4247200Y2210400D01*
X4140810Y2542900D02*
X4160250Y2562350D01*
X4140810Y2542900D02*
X4160250Y2523450D01*
X4179700Y2542900D02*
X4140810D01*
X4252200Y2870400D02*
X4279700D01*
X4252200Y2870400D02*
Y2842900D01*
X4252200Y2870400D02*
X4279700Y2842900D01*
X4473590Y1192900D02*
X4454150Y1173450D01*
X4473590Y1192900D02*
X4454150Y1212350D01*
X4473590Y1192900D02*
X7774680D01*
X7894720Y1072900D01*
X8520810D01*
X4434700Y1192900D02*
X4473590D01*
X4440810Y1747900D02*
X4460250Y1767350D01*
X4440810Y1747900D02*
X4460250Y1728450D01*
X4479700Y1747900D02*
X4440810D01*
X4624200Y1743400D02*
X4596700Y1745400D01*
X4624200Y1743400D02*
Y1772900D01*
X4624200Y1743400D02*
X4596700Y1770900D01*
Y1772900D01*
X4418590Y2442900D02*
X4399150Y2423450D01*
X4418590Y2442900D02*
X4399150Y2462350D01*
X4418590Y2442900D02*
X4689700D01*
X4739700Y2492900D01*
X4919690D01*
X4959190Y2453400D01*
X5000210D01*
X5029710Y2482900D01*
X5354700D01*
X5567200Y2695400D01*
X4379700Y2442900D02*
X4418590D01*
X4552200Y2670400D02*
X4579700D01*
X4552200Y2670400D02*
Y2642900D01*
X4552200Y2670400D02*
X4579700Y2642900D01*
X4545400Y2915400D02*
X4552200Y2942900D01*
X4545400Y2915400D02*
X4579700D01*
X4545400Y2915400D02*
X4572900Y2942900D01*
X4579700D01*
X4440810Y3042900D02*
X4460250Y3062350D01*
X4440810Y3042900D02*
X4460250Y3023450D01*
X4479700Y3042900D02*
X4440810D01*
X4552200Y3015400D02*
X4579700Y3042900D01*
X4552200Y3015400D02*
X4579700D01*
X4552200Y3015400D02*
Y3042900D01*
X4447230Y2965000D02*
X4460260Y2951980D01*
X4479700Y2942900D02*
Y2947900D01*
X4462600Y2965000D01*
X4447230D01*
X4552200Y3370400D02*
X4579700Y3342900D01*
X4552200Y3370400D02*
Y3342900D01*
X4552200Y3370400D02*
X4579700D01*
X4552200Y3470400D02*
X4579700D01*
X4552200Y3470400D02*
Y3442900D01*
X4552200Y3470400D02*
X4579700Y3442900D01*
X4712200Y1760400D02*
X4739700D01*
X4712200Y1760400D02*
Y1732900D01*
X4712200Y1760400D02*
X4739700Y1732900D01*
X4755810Y2202900D02*
X4775250Y2222350D01*
X4755810Y2202900D02*
X4775250Y2183450D01*
X4755810Y2202900D02*
X4794700D01*
X4779700Y2904010D02*
X4760250Y2923450D01*
X4779700Y2904010D02*
X4799150Y2923450D01*
X4779700Y2904010D02*
Y2942900D01*
X4752200Y3070400D02*
X4779700D01*
X4752200Y3070400D02*
Y3042900D01*
X4752200Y3070400D02*
X4779700Y3042900D01*
X4852200Y3472800D02*
X4879700Y3445300D01*
Y3442900D01*
X4852200Y3472800D02*
Y3442900D01*
X4852200Y3472800D02*
X4879700Y3470400D01*
X4782200Y4615400D02*
Y4642900D01*
X4782200Y4615400D02*
X4809700D01*
X4809700Y4642900D02*
X4782200Y4615400D01*
X5131950Y6373900D02*
X5156940D01*
X5176380Y6354460D01*
X5260370D01*
X5277880Y6336960D01*
X5277930D01*
X5279970Y6334920D01*
X5283070Y6331830D01*
X5286040Y6328860D01*
X5383320Y6231700D01*
X5531950Y6083070D01*
Y6082950D01*
X5534450Y6080450D01*
Y5220890D01*
X5554940Y5200400D01*
X5554950D01*
X5811450Y4943900D01*
X6246450D01*
X6266450Y4923900D01*
X6372950D01*
X6434450Y4862400D01*
X5199700Y6498290D02*
X5160810D01*
X5135840Y6553900D02*
X5111400Y6539450D01*
X5135840Y6553900D02*
X5111400Y6578350D01*
X5135840Y6553900D02*
X5209380D01*
X5246530Y6516750D01*
X5307050Y6456300D01*
X5316630Y6446720D01*
X5321400Y6441960D01*
X5329500Y6433880D01*
X5335500Y6427900D01*
X5351350Y6412050D01*
X5553500Y6210170D01*
X5565700Y6197980D01*
X5571170Y6192520D01*
X5575940Y6187760D01*
X5575950D01*
X5583720Y6179990D01*
X5591480Y6172240D01*
X5591490D01*
X5594560Y6169160D01*
X5606210Y6157520D01*
X5616450Y6147280D01*
X5636950Y6126790D01*
Y6126450D01*
X5639450Y6123950D01*
Y5581870D01*
X5721440Y5499880D01*
X5721450D01*
X6132470Y5088860D01*
X6171270D01*
X6189090Y5071040D01*
X5091950Y6558900D02*
X5096950Y6553900D01*
X5135840D01*
X6585220Y4994390D02*
X6552230Y4961400D01*
X6455200D01*
X6424450Y4992150D01*
Y5005150D01*
X6363200Y5066400D01*
X6268000D01*
X6210520Y5123880D01*
X6204960D01*
X6204950Y5123870D01*
X6175960D01*
X6175950Y5123860D01*
X6146970D01*
X5735950Y5534880D01*
X5735940D01*
X5674450Y5596370D01*
Y6138450D01*
X5671950Y6140950D01*
Y6141290D01*
X5630960Y6182280D01*
X5619310Y6193920D01*
X5605990Y6207240D01*
X5605980D01*
X5590450Y6222770D01*
X5590420D01*
X5578230Y6234940D01*
X5569920Y6243240D01*
X5360660Y6452240D01*
X5360240Y6452660D01*
X5354240Y6458650D01*
X5337240Y6475640D01*
X5335930Y6476960D01*
X5335900D01*
X5335880Y6476980D01*
X5331780Y6481070D01*
X5321540Y6491310D01*
X5321530D01*
X5277120Y6535670D01*
X5277100Y6535730D01*
X5193960Y6618890D01*
X5133450D01*
X5103160Y6649180D01*
X5056420D01*
X5036980Y6629730D01*
X5056420Y6649180D02*
X5036980Y6668630D01*
X5056420Y6649180D02*
X5017530D01*
X5041950Y6730600D02*
X5071250D01*
X5147960Y6653890D01*
X5208460D01*
X5309350Y6552990D01*
X5309360Y6552940D01*
X5336030Y6526310D01*
X5336040D01*
X5348560Y6513800D01*
X5350400Y6511960D01*
X5350420D01*
X5361990Y6500400D01*
X5378980Y6483410D01*
X5384970Y6477430D01*
X5453620Y6408870D01*
X5506060Y6356500D01*
X5594650Y6268020D01*
X5604910Y6257780D01*
X5604940D01*
X5620480Y6242240D01*
X5620490D01*
X5638850Y6223890D01*
X5649710Y6213040D01*
X5706950Y6155800D01*
Y6155450D01*
X5709450Y6152950D01*
Y5610870D01*
X5750440Y5569880D01*
X5750450D01*
X6161460Y5158870D01*
X6190450D01*
X6190460Y5158880D01*
X6219440D01*
X6219450Y5158890D01*
X6225010D01*
X6282500Y5101400D01*
X6389450D01*
X6449450Y5041400D01*
X6424450Y5258900D02*
X6386950D01*
X6346950Y5298900D01*
X6219430D01*
X5849450Y5668880D01*
Y6210950D01*
X5846950Y6213450D01*
Y6213840D01*
X5716950Y6343840D01*
Y6343890D01*
X5051940Y7008900D01*
X5050840D01*
X4975840Y6953900D02*
X4956400Y6934450D01*
X4975840Y6953900D02*
X5056960D01*
X5393870Y6616990D01*
X5394350D01*
X5681950Y6329390D01*
Y6329330D01*
X5811950Y6199330D01*
Y6198950D01*
X5814450Y6196450D01*
Y5654380D01*
X6204940Y5263890D01*
X6233930D01*
X6233940Y5263900D01*
X6275750D01*
X6314450Y5225200D01*
X6331950D01*
X5010840Y6785600D02*
X4991400Y6766150D01*
X5010840Y6785600D02*
X4991400Y6805050D01*
X5010840Y6785600D02*
X5065750D01*
X5162460Y6688890D01*
X5222970D01*
X5323860Y6587990D01*
X5344360Y6567490D01*
X5344370Y6567460D01*
X5350530Y6561310D01*
X5356020Y6555830D01*
X5363050Y6548810D01*
X5364900Y6546960D01*
X5364910D01*
X5386730Y6525160D01*
X5395930Y6515970D01*
X5619400Y6292780D01*
X5619440D01*
X5634980Y6277240D01*
X5634990D01*
X5663590Y6248650D01*
X5674460Y6237800D01*
X5741950Y6170310D01*
Y6169950D01*
X5744450Y6167450D01*
Y5625370D01*
X5764940Y5604880D01*
X5764950D01*
X6175950Y5193880D01*
X6204940D01*
X6204950Y5193890D01*
X6239510D01*
X6295710Y5137690D01*
X6414270D01*
X4971950Y6785600D02*
X5010840D01*
X5034450Y6866400D02*
X5006950D01*
X5034450Y6866400D02*
Y6893900D01*
X5034450Y6866400D02*
X5176950Y6723900D01*
X5237460D01*
X5358870Y6602490D01*
Y6602480D01*
X5378060Y6583290D01*
X5378530Y6582830D01*
X5379380Y6581980D01*
X5633900Y6327780D01*
X5633940D01*
X5633950Y6327770D01*
X5633960D01*
X5649490Y6312240D01*
X5678630Y6283110D01*
X5706320Y6255450D01*
X5776950Y6184820D01*
Y6184450D01*
X5779450Y6181950D01*
Y5639880D01*
X6190440Y5228890D01*
X6248430D01*
X6248440Y5228900D01*
X6254010D01*
X6279450Y5203460D01*
Y5203450D01*
X6310200Y5172700D01*
X6370750D01*
X6384450Y5186400D01*
X6478700D01*
X6509450Y5155650D01*
Y5155170D01*
X6514450Y5150170D01*
X5006950Y6893900D02*
X5034450Y6866400D01*
X4978340Y7061400D02*
X4956400Y7039450D01*
X4978340Y7061400D02*
X4956400Y7078350D01*
X4978340Y7061400D02*
X4939450D01*
X4936950Y7058900D01*
X6346950Y5358900D02*
X6331950Y5373900D01*
X6193930D01*
X5884450Y5683380D01*
Y6225450D01*
X5881950Y6227950D01*
Y6228360D01*
X5871960Y6238350D01*
X5861960Y6248340D01*
Y6248360D01*
X5751950Y6358370D01*
Y6358400D01*
X5048950Y7061400D01*
X4978340D01*
X5050840Y7008900D02*
X5031400Y6989450D01*
X5050840Y7008900D02*
X5031400Y7028350D01*
X5050840Y7008900D02*
X5011950D01*
X4975840Y6953900D02*
X4956400Y6973350D01*
X4936950Y6953900D02*
X4975840D01*
X5304700Y1784010D02*
Y1822900D01*
X5304700Y1784010D02*
X5324150Y1803450D01*
X5304700Y1784010D02*
X5285250Y1803450D01*
X5260810Y2562900D02*
X5280250Y2582350D01*
X5260810Y2562900D02*
X5280250Y2543450D01*
X5299700Y2562900D02*
X5260810D01*
X5270810Y3342900D02*
X5290250Y3362350D01*
X5270810Y3342900D02*
X5290250Y3323450D01*
X5270810Y3342900D02*
X5309700D01*
X5321950Y5985010D02*
Y5924890D01*
X5361950Y5884890D01*
Y5637660D01*
X5344450Y5620160D01*
Y5291400D01*
X5344440Y5291390D01*
Y5262410D01*
X5361950Y5244900D01*
Y5244890D01*
X5382440Y5224400D01*
X5382450D01*
X5429450Y5177400D01*
Y5177390D01*
X5511440Y5095400D01*
X5511450D01*
X5787960Y4818890D01*
X5816940D01*
X5816950Y4818900D01*
X6163950D01*
X6334230Y4648620D01*
X6490900D01*
X6525900Y4613620D01*
X6657390D01*
X6837100Y4793330D01*
X6103060Y4763900D02*
X5793440D01*
X5309450Y5247890D01*
Y5247900D01*
X5309440Y5247910D01*
Y5305890D01*
X5309450Y5305900D01*
Y5634670D01*
X5319450Y5644670D01*
Y5871400D01*
X5274450Y5916400D01*
X5344700Y6109010D02*
Y6075400D01*
X5376950Y6043150D01*
Y5919390D01*
X5396950Y5899390D01*
Y5623150D01*
X5379450Y5605650D01*
Y5276900D01*
X5464450Y5191900D01*
Y5191890D01*
X5525940Y5130400D01*
X5525950D01*
X5802450Y4853900D01*
X6178450D01*
X6348450Y4683900D01*
X6505120D01*
X6540400Y4648620D01*
X6616670D01*
X6841380Y4873330D01*
X6992520D01*
X7024450Y4841400D01*
X5245840Y6301960D02*
X5263370D01*
X5263730Y6301610D01*
X5263390Y6301960D01*
X5263440D01*
X5499450Y6065950D01*
Y5206390D01*
X5540440Y5165400D01*
X5540450D01*
X5796960Y4908890D01*
X5825940D01*
X5825950Y4908900D01*
X6231950D01*
X6329450Y4811400D01*
X6411200D01*
X6440200Y4782400D01*
X6483700D01*
X6500200Y4798900D01*
X6518060D01*
X5321950Y5985010D02*
X5302500Y6004450D01*
X5321950Y5985010D02*
X5341400Y6004450D01*
X5321950Y6023900D02*
Y5985010D01*
X5274450Y5916400D02*
X5246950D01*
X5274450Y5916400D02*
Y5943900D01*
X5274450Y5916400D02*
X5246950Y5943900D01*
X5344700Y6109010D02*
X5325250Y6128450D01*
X5344700Y6109010D02*
X5364150Y6128450D01*
X5344700Y6147900D02*
Y6109010D01*
X5245840Y6301960D02*
X5226400Y6282510D01*
X5245840Y6301960D02*
X5226400Y6321410D01*
X5206950Y6301960D02*
X5245840D01*
X6584920Y4931610D02*
X6571940D01*
X6566730Y4926400D01*
X6440700D01*
X6389450Y4977650D01*
Y4990650D01*
X6348700Y5031400D01*
X6223700D01*
X6210840Y5018540D01*
X6153290D01*
X5706950Y5464880D01*
X5706940D01*
X5604450Y5567370D01*
Y6109450D01*
X5601950Y6111950D01*
Y6112280D01*
X5591700Y6122530D01*
X5581460Y6132760D01*
X5561940Y6152270D01*
X5561450Y6152760D01*
X5561440D01*
X5547800Y6166380D01*
X5545530Y6168650D01*
X5412040Y6301970D01*
X5329440Y6384460D01*
X5310770Y6403130D01*
X5306920Y6406960D01*
X5306880D01*
X5293750Y6420080D01*
X5286400Y6427420D01*
X5286390Y6427440D01*
X5275050Y6438790D01*
X5265510Y6448320D01*
X5259920Y6453900D01*
X5217010Y6496750D01*
X5215470Y6498290D01*
X5199700D01*
X6288060Y4978900D02*
X5825950D01*
X5569450Y5235400D01*
Y6094950D01*
X5566950Y6097450D01*
Y6097770D01*
X5558630Y6106080D01*
X5551810Y6112890D01*
X5546950Y6117750D01*
X5523170Y6141510D01*
X5469380Y6195230D01*
X5307810Y6356590D01*
X5304700Y6359700D01*
X5292390Y6371960D01*
X5292380D01*
X5280700Y6383640D01*
X5269010Y6395320D01*
X5257630Y6406670D01*
X5257620Y6406710D01*
X5245430Y6418900D01*
X5221400Y6404690D01*
X5199700Y6498290D02*
X5180260Y6478840D01*
X5199700Y6498290D02*
X5180260Y6517740D01*
X5245430Y6418900D02*
X5221400Y6442930D01*
X5245430Y6418900D02*
X5206950D01*
X5201950Y6423900D01*
X5532200Y1902800D02*
Y1872900D01*
X5532200Y1902800D02*
X5559700Y1875300D01*
Y1872900D01*
X5532200Y1902800D02*
X5559700Y1900400D01*
X5567200Y2695400D02*
Y2722900D01*
X5567200Y2695400D02*
X5594700D01*
X5567200Y2695400D02*
X5594700Y2722900D01*
X5488890Y3470000D02*
X5469450Y3450550D01*
X5488890Y3470000D02*
X5469450Y3489450D01*
X5488890Y3470000D02*
X6226810D01*
X6316810Y3560000D01*
X6635000D01*
X6710000Y3635000D01*
Y3658710D01*
X5450000Y3470000D02*
X5488890D01*
X6843580Y5031400D02*
X6730450D01*
X6629450Y5132400D01*
Y5158920D01*
X6551950Y5236420D01*
Y5294040D01*
X6405090Y5440900D01*
Y5440910D01*
X6384600Y5461400D01*
X6234440D01*
X6234430Y5461390D01*
X6205450D01*
X5967460Y5699380D01*
X5967450D01*
X5954450Y5712380D01*
Y6254870D01*
X5841950Y6367370D01*
Y6473400D01*
X5743950Y6571400D01*
X5615200D01*
X5564450Y6622150D01*
X5536950Y6626400D01*
X5564450Y6622150D02*
Y6653900D01*
X5564450Y6622150D02*
X5536950Y6649650D01*
Y6653900D01*
X5671950Y6518900D02*
X5696950D01*
X5786950Y6428900D01*
X7154450Y5052700D02*
X7148250Y5058900D01*
X6947200D01*
X6913900Y5092200D01*
X6869020D01*
X6843220Y5066400D01*
X6744950D01*
X6664450Y5146900D01*
Y5176900D01*
X6586950Y5254400D01*
Y5279540D01*
X6586960Y5279550D01*
Y5308530D01*
X6440090Y5455400D01*
Y5455410D01*
X6399100Y5496400D01*
X6219940D01*
X5989450Y5726890D01*
Y6269430D01*
X5879450Y6379430D01*
Y6485400D01*
X5740950Y6623900D01*
X5675840D01*
X5656400Y6604450D01*
X5675840Y6623900D02*
X5656400Y6643350D01*
X5675840Y6623900D02*
X5636950D01*
X6988060Y5128900D02*
X6856220D01*
X6828720Y5101400D01*
X6785200D01*
X6699450Y5187150D01*
Y5191400D01*
X6651950Y5238900D01*
Y5393150D01*
X6511230Y5533870D01*
X6231980D01*
X6024450Y5741400D01*
Y6283930D01*
X5914450Y6393930D01*
Y6499900D01*
X5710450Y6703900D01*
X5681950D01*
X5654450Y6731400D01*
X5626950D01*
X5654450Y6731400D02*
Y6758900D01*
X5654450Y6731400D02*
X5626950Y6758900D01*
X5471950Y6763900D02*
X5485500Y6777450D01*
X5571250D01*
X5605200Y6811400D01*
X5652450D01*
X5949450Y6514400D01*
Y6408430D01*
X6059450Y6298430D01*
Y5757890D01*
X6248470Y5568870D01*
X6525730D01*
X6686960Y5407640D01*
Y5273890D01*
X6779450Y5181400D01*
X7043060Y5225200D02*
X6982700D01*
X6874450Y5333450D01*
Y5360650D01*
X6596200Y5638900D01*
X6277450D01*
X6129450Y5786900D01*
Y6327430D01*
X6104450Y6352430D01*
Y6575650D01*
X5798700Y6881400D01*
X5669450D01*
X5646950Y6903900D01*
X5504450Y6916400D02*
X5476950D01*
X5504450Y6916400D02*
Y6943900D01*
X5504450Y6916400D02*
X5574450Y6846400D01*
X5666950D01*
X5984450Y6528900D01*
Y6422930D01*
X6094450Y6312930D01*
Y5772400D01*
X6262960Y5603890D01*
X6540210D01*
X6721970Y5422130D01*
Y5313880D01*
X6739450Y5296400D01*
X5476950Y6943900D02*
X5504450Y6916400D01*
X5565300Y6976400D02*
X5537800D01*
X5565300Y6976400D02*
Y7003900D01*
X5565300Y6976400D02*
X5567800Y6973900D01*
X5755700D01*
X6139450Y6590150D01*
Y6366930D01*
X6164450Y6341930D01*
Y5821400D01*
X6311950Y5673900D01*
X6610700D01*
X6929450Y5355150D01*
X5537800Y7003900D02*
X5565300Y6976400D01*
X5962200Y2485400D02*
X5989700Y2512900D01*
X5962200Y2485400D02*
X5989700D01*
X5962200Y2485400D02*
Y2512900D01*
X7028060Y4928900D02*
X6961950D01*
X6903650Y4987200D01*
X6725150D01*
X6594450Y5117900D01*
Y5144420D01*
X6515840Y5223030D01*
Y5280650D01*
X6370110Y5426380D01*
X6190950D01*
X5919450Y5697880D01*
Y6240370D01*
X5796430Y6363390D01*
Y6419420D01*
X5786950Y6428900D01*
X6220810Y2587900D02*
X6240250Y2607350D01*
X6220810Y2587900D02*
X6240250Y2568450D01*
X6220810Y2587900D02*
X6259700D01*
X6217200Y2430400D02*
Y2457900D01*
X6217200Y2430400D02*
X6244700D01*
X6217200Y2430400D02*
X6244700Y2457900D01*
X6173590Y3312900D02*
X6154150Y3293450D01*
X6173590Y3312900D02*
X6154150Y3332350D01*
X6173590Y3312900D02*
X6134700D01*
X6537200Y3405400D02*
X6445000Y3313200D01*
X6249700D01*
X6249400Y3312900D01*
X6173590D01*
X6103060Y4763900D02*
X6122500Y4783350D01*
X6103060Y4763900D02*
X6122500Y4744450D01*
X6141950Y4763900D02*
X6103060D01*
X6300810Y2517900D02*
X6320250Y2537350D01*
X6300810Y2517900D02*
X6320250Y2498450D01*
X6339700Y2517900D02*
X6300810D01*
X6292200Y2737800D02*
X6319700Y2735400D01*
X6292200Y2737800D02*
Y2707900D01*
X6292200Y2737800D02*
X6319700Y2710300D01*
Y2707900D01*
X6288060Y4978900D02*
X6307500Y4998350D01*
X6288060Y4978900D02*
X6307500Y4959450D01*
X6326950Y4978900D02*
X6288060D01*
X6434450Y4862400D02*
X6461950D01*
X6434450Y4862400D02*
Y4834900D01*
X6434450Y4862400D02*
X6461950Y4834900D01*
X6449450Y5041400D02*
X6476950D01*
X6449450Y5041400D02*
Y5013900D01*
X6449450Y5041400D02*
X6476950Y5013900D01*
X6424450Y5258900D02*
X6443890Y5278350D01*
X6424450Y5258900D02*
X6443890Y5239450D01*
X6463340Y5258900D02*
X6424450D01*
X6414270Y5137690D02*
X6453160D01*
X6456950Y5133900D01*
X6414270Y5137690D02*
X6437500Y5114450D01*
X6414270Y5137690D02*
X6437500Y5153350D01*
X6667200Y1315400D02*
X6694700Y1342900D01*
X6667200Y1315400D02*
X6694700D01*
X6667200Y1315400D02*
Y1342900D01*
X6537200Y3405400D02*
Y3432900D01*
X6537200Y3405400D02*
X6564700D01*
X6564700Y3432900D02*
X6537200Y3405400D01*
X6623590Y3342900D02*
X6604150Y3323450D01*
X6623590Y3342900D02*
X6604150Y3362350D01*
X6623590Y3342900D02*
X7049700D01*
X7082500Y3375700D01*
X6584700Y3342900D02*
X6623590D01*
X6710000Y3658710D02*
X6690550Y3678150D01*
X6710000Y3658710D02*
X6729450Y3678150D01*
X6710000Y3658710D02*
Y3697600D01*
X6591110Y3647900D02*
X6610550Y3667350D01*
X6591110Y3647900D02*
X6610550Y3628450D01*
X6591110Y3647900D02*
X6630000D01*
X6518060Y4798900D02*
X6537500Y4818350D01*
X6518060Y4798900D02*
X6537500Y4779450D01*
X6518060Y4798900D02*
X6556950D01*
X6584920Y4931610D02*
X6604360Y4951060D01*
X6584920Y4931610D02*
X6604360Y4912160D01*
X6623810Y4931610D02*
X6584920D01*
X6585220Y4994390D02*
Y5021890D01*
X6585220Y4994390D02*
X6612720D01*
X6612720Y5021890D02*
X6585220Y4994390D01*
X6739450Y5296400D02*
X6766950D01*
X6739450Y5296400D02*
Y5268900D01*
X6739450Y5296400D02*
X6766950Y5268900D01*
X6514450Y5150170D02*
X6541950D01*
X6514450Y5150170D02*
Y5122670D01*
X6514450Y5150170D02*
X6541950Y5122670D01*
X6837100Y4793330D02*
Y4820830D01*
X6837100Y4793330D02*
X6864600D01*
X6837100Y4793330D02*
X6864600Y4820830D01*
X7024450Y4841400D02*
X7051950D01*
X7024450Y4841400D02*
Y4813900D01*
X7024450Y4841400D02*
X7051950Y4813900D01*
X6843580Y5031400D02*
X6871320Y5020250D01*
X6890770Y5039700D02*
X6882470Y5031400D01*
X6843580D01*
X6890770Y5039700D02*
X6896570Y5033900D01*
X6922700D01*
X6947700Y5008900D01*
X7061950D01*
X7088700Y4982150D01*
Y4981400D01*
X7108320Y4961780D01*
X7169070D01*
X7219450Y4911400D01*
X7493700D01*
X7531200Y4948900D01*
X8098900D01*
X8160000Y5010000D01*
X8233000D01*
X7028060Y4928900D02*
X7047500Y4948350D01*
X7028060Y4928900D02*
X7047500Y4909450D01*
X7066950Y4928900D02*
X7028060D01*
X6988060Y5128900D02*
X7007500Y5148350D01*
X6988060Y5128900D02*
X7007500Y5109450D01*
X7026950Y5128900D02*
X6988060D01*
X6779450Y5181400D02*
X6806950D01*
X6779450Y5181400D02*
Y5153900D01*
X6779450Y5181400D02*
X6806950Y5153900D01*
X6929450Y5355150D02*
Y5325200D01*
X6929450Y5355150D02*
X6956950Y5327650D01*
Y5325200D01*
X6929450Y5355150D02*
X6956950Y5352700D01*
X7082500Y3375700D02*
Y3403200D01*
X7082500Y3375700D02*
X7110000D01*
X7082500Y3375700D02*
X7110000Y3403200D01*
X7284700Y3599010D02*
X7265250Y3618450D01*
X7284700Y3599010D02*
X7304150Y3618450D01*
X7284700Y3599010D02*
Y3637900D01*
X7154450Y5052700D02*
X7181950D01*
X7154450Y5052700D02*
Y5025200D01*
X7181950Y5025200D02*
X7154450Y5052700D01*
X7043060Y5225200D02*
X7062500Y5244650D01*
X7043060Y5225200D02*
X7062500Y5205750D01*
X7081950Y5225200D02*
X7043060D01*
X8233000Y5010000D02*
X8252500Y5029510D01*
X8233000Y5010000D02*
X8252500Y4990610D01*
X8233000Y5010000D02*
X8251890D01*
X8261950Y5020060D01*
X8271950Y5010060D01*
X8520810Y1072900D02*
X8540250Y1092350D01*
X8520810Y1072900D02*
X8540250Y1053450D01*
X8520810Y1072900D02*
X8559700D01*
X3249700Y1772900D02*
X4227900D01*
X4337900Y1882900D01*
X4404700D01*
X1784700Y4172900D02*
Y4211080D01*
Y4394700D01*
X1947900Y4557900D01*
X2309700D01*
X2354700Y4512900D01*
X2865820D01*
X1784700Y4211080D02*
X1765610Y4191990D01*
X1784700Y4211080D02*
X1803790Y4191990D01*
X4834700Y1776080D02*
Y1925300D01*
X4795000Y1965000D01*
X4346800D01*
X4204700Y1822900D01*
X3347100D01*
X3227100Y1942900D01*
X2742880D01*
X2723790Y1923810D01*
X2742880Y1942900D02*
X2723790Y1961990D01*
X2742880Y1942900D02*
X2704700D01*
X3169600Y1680400D02*
X3185000Y1665000D01*
X3291020D01*
X3293420Y1667400D01*
X3293430D01*
X3306430Y1680400D01*
X4297200D01*
X4322700Y1654900D01*
X2865820Y4512900D02*
X2886610Y4530290D01*
X2865820Y4512900D02*
X2886610Y4492110D01*
X2865820Y4512900D02*
X2904000D01*
X2905700Y4511200D01*
X4527700Y1606400D02*
X4464450Y1543150D01*
X3154450D01*
X3101700Y1595900D01*
X3074700D01*
X3101700Y1595900D02*
Y1622900D01*
X3101700Y1595900D02*
X3074700Y1622900D01*
X3611520Y3707900D02*
X3562900D01*
X3530000Y3675000D01*
X3340000D01*
X3307100Y3707900D01*
X3232100D01*
X3162100Y3777900D01*
X3122880D01*
X3103790Y3758810D01*
X3122880Y3777900D02*
X3103790Y3796990D01*
X3122880Y3777900D02*
X3084700D01*
X3611520Y3707900D02*
X3630610Y3726990D01*
X3611520Y3707900D02*
X3630610Y3688810D01*
X3649700Y3707900D02*
X3611520D01*
X4322700Y1654900D02*
X4349700D01*
X4322700Y1654900D02*
Y1627900D01*
X4322700Y1654900D02*
X4349700Y1627900D01*
X4527700Y1606400D02*
Y1633400D01*
X4527700Y1606400D02*
X4554700D01*
X4554700Y1633400D02*
X4527700Y1606400D01*
X4834700Y1776080D02*
X4853790Y1756990D01*
X4834700Y1776080D02*
X4815610Y1756990D01*
X4834700Y1737900D02*
Y1776080D01*
X3284700Y3807900D02*
X3224700Y3867900D01*
X3019700D01*
X2961800Y3810000D01*
X1915000D01*
X1825640Y3899360D01*
X715640D01*
X507100Y4107900D01*
X504700D01*
X3284700Y3807900D02*
X3362600Y3730000D01*
X3511800D01*
X3559700Y3777900D01*
X3674700D01*
X3749700Y3702900D01*
X4424600Y5151100D02*
X4484100Y5091600D01*
X4921000D01*
X5119700Y4892900D01*
Y3914700D01*
X5065000Y3860000D01*
X4470000D01*
X4383700Y3773700D01*
Y3706900D01*
D11*
X9033000Y3581080D02*
X9160000D01*
Y3645420D01*
X9140950Y3707370D02*
X9151540Y3717010D01*
X9157880Y3728270D01*
X9160000Y3742750D01*
X9155770Y3757230D01*
X9147300Y3768480D01*
X9132490Y3776530D01*
X9115550Y3778130D01*
X9098620Y3774920D01*
X9088030Y3766870D01*
X9079570Y3755620D01*
X9077450Y3744360D01*
X9079570Y3733100D01*
X9088030Y3718630D01*
X9033000Y3723450D01*
Y3766870D01*
D12*
X509700Y1647900D03*
Y1877900D03*
X574700Y2252400D03*
X669700Y2452900D03*
X510200Y2443650D03*
X507920Y2445890D03*
X509700Y2622900D03*
Y2917900D03*
Y2802900D03*
Y3027900D03*
Y3212900D03*
X564700Y3482900D03*
X510200Y3396150D03*
Y3586650D03*
Y3777150D03*
Y3967650D03*
X504700Y4107900D03*
X529700Y4682900D03*
X605700Y5007900D03*
X609700Y5167900D03*
Y5302900D03*
X654700Y5591900D03*
X637750Y5729000D03*
X674700Y7187900D03*
X639700Y7037900D03*
X700700Y1557900D03*
X797720Y1893930D03*
X709700Y1747900D03*
X849700Y1742900D03*
X700700Y1966900D03*
Y2156900D03*
X903790Y2119030D03*
X849700Y2037900D03*
X699700Y2347900D03*
X779700Y2452900D03*
X874100Y2442190D03*
X878120Y2838420D03*
X894700Y3260000D03*
X844700Y4347900D03*
X834700Y4827900D03*
X684700Y4767900D03*
X834700Y5032900D03*
X679700Y4897900D03*
X834700Y5227900D03*
X863250Y5616450D03*
X934700Y5724000D03*
X869700Y6922900D03*
X850000Y7197900D03*
X814700Y7587900D03*
X1134700Y987900D03*
X954700Y932900D03*
X1145200Y1222400D03*
X1169700Y1772900D03*
X1194700Y1867900D03*
X1131700Y1984900D03*
X1124700Y2112900D03*
Y2244900D03*
X1154700Y2772900D03*
X1164700Y2892900D03*
Y3177900D03*
X1104700Y3107900D03*
X1139700Y3349900D03*
X1164700Y3777900D03*
X964700Y3657900D03*
X1059700Y4032900D03*
X992930Y4122900D03*
X1054700Y4207900D03*
X1194700Y4412900D03*
X969700Y4347900D03*
X1049700Y4492900D03*
X1134700Y5027900D03*
X1034700Y5227900D03*
X1132430Y5230170D03*
Y5330170D03*
X1029700Y5127900D03*
X1034700Y5637900D03*
X1134700D03*
Y5527900D03*
Y5427900D03*
X979700Y6672900D03*
X1164700D03*
X1159700Y7082900D03*
X1350950Y706650D03*
X1244900Y660000D03*
X1329900Y1192700D03*
X1349700Y1902900D03*
X1464700Y1767900D03*
X1454700Y1962900D03*
X1459700Y2542900D03*
X1332700Y2829900D03*
X1374700Y3152900D03*
X1342190Y3022900D03*
X1229700Y3414930D03*
X1399700Y3447900D03*
X1394700Y3692900D03*
X1219700Y3667900D03*
X1294700Y4032900D03*
X1324700Y4832900D03*
X1334700Y5327900D03*
Y5227900D03*
X1234700Y5527900D03*
X1334700D03*
X1272200Y5857900D03*
X1430950Y5861650D03*
X1272200Y5957900D03*
X1449700Y6387900D03*
Y6492900D03*
X1414700Y6697900D03*
X1279810Y6621950D03*
X1361650Y7510950D03*
X1314700Y7822900D03*
X1684950Y430050D03*
X1494450Y938150D03*
X1649700Y932900D03*
X1584700Y1762900D03*
X1479700Y2072900D03*
X1704700Y2062900D03*
X1584700Y2092900D03*
X1574700Y1922900D03*
X1489700Y2422900D03*
X1703130Y2515080D03*
X1629700Y2557900D03*
X1679700Y2812900D03*
X1659700Y3037900D03*
X1504700Y3307900D03*
X1484700Y3682900D03*
X1494700Y4352900D03*
X1504700Y5012900D03*
X1629700Y4877900D03*
X1713370Y5047140D03*
X1644700Y5242900D03*
X1531290Y5124470D03*
X1534860Y5328080D03*
X1584700Y5562900D03*
X1699700Y5487900D03*
X1557950Y6611150D03*
X1716700Y6770900D03*
X1484700Y6967900D03*
X1557950Y6872900D03*
X1544700Y7191700D03*
X1579700Y7332900D03*
X1625000Y7592900D03*
X1557950Y7987900D03*
X1675000Y7887900D03*
X1694700Y8082900D03*
X1714700Y8232900D03*
X1557950Y8332900D03*
X1933800Y803900D03*
X1964500Y1192700D03*
X1804700Y1517900D03*
X1845110Y1851550D03*
X1754700Y1847900D03*
X1874700Y1667900D03*
X1936850Y1818520D03*
X1904700Y2072900D03*
X1804700Y2067900D03*
X1864700Y1957900D03*
X1959700Y2327900D03*
X1789700Y2207900D03*
X1964700Y2227900D03*
X1779700Y2665400D03*
X1977130Y2462900D03*
X1849700Y3242900D03*
X1814700Y3017900D03*
X1764700Y3472900D03*
X1769700Y3352900D03*
X1874700Y3350400D03*
X1989700Y3617900D03*
X1789700Y3767900D03*
X1809700Y3672900D03*
X1958350Y3958860D03*
X1784700Y4172900D03*
X1974700D03*
X1964700Y4407900D03*
X1779700Y4697900D03*
X1834700Y4792900D03*
X1989700Y5257900D03*
Y5157900D03*
X1869700Y5397900D03*
X1751360Y5669560D03*
X1849700Y5987900D03*
X1869700Y6192900D03*
X1974700Y6317900D03*
X1854200Y6412400D03*
X1799700Y6670200D03*
X1989700Y6772900D03*
X1875450Y7192900D03*
X1919700Y7517900D03*
X1907200Y7301400D03*
X1930700Y7927900D03*
X1814700Y8217900D03*
X1875450Y8337900D03*
X2050000Y685000D03*
Y1135000D03*
X2077200Y1347900D03*
X2200200Y1618400D03*
X2024700Y2107900D03*
X2274700Y2027900D03*
X2114700Y2207900D03*
X2219700D03*
X2199700Y2422900D03*
X2110800Y2541800D03*
X2089700Y2702900D03*
X2134700Y2942900D03*
X2163740Y2804000D03*
X2014700Y2792900D03*
X2129700Y3052900D03*
X2244700Y3412900D03*
X2209700Y3717900D03*
X2214700Y3622900D03*
X2244700Y3522900D03*
X2154700Y4237900D03*
X2158500Y4081700D03*
X2239700Y4507900D03*
X2064700Y4812900D03*
X2131390Y4713900D03*
X2257500Y4715700D03*
X2244700Y4607900D03*
X2164700Y5057900D03*
X2179700Y4907900D03*
X2109700Y4987900D03*
X2144700Y5387900D03*
X2114700Y5157900D03*
X2109700Y5602900D03*
X2204700Y5722900D03*
X2199700Y6917900D03*
X2204210Y7029280D03*
X2192950Y7491900D03*
X2097700Y7301400D03*
X2139700Y7927900D03*
X2030770Y7986550D03*
X2034200Y8337900D03*
X2419700Y892900D03*
X2519700Y1127900D03*
X2539700Y1337900D03*
X2404700Y1332900D03*
X2359700Y1912900D03*
X2434700Y1822900D03*
X2529700Y2317900D03*
X2429700Y2577900D03*
X2439700Y2467900D03*
X2319930Y2578400D03*
X2439640Y2740000D03*
X2448600Y2931800D03*
X2539700Y2962900D03*
X2287200Y3165400D03*
X2489700Y3047900D03*
X2529700Y3352900D03*
X2499700Y3462900D03*
X2444700Y3672900D03*
X2314700Y3722900D03*
X2415200Y3967650D03*
X2489700Y3892900D03*
X2304700Y4167900D03*
X2419700Y4087900D03*
X2397700Y4765200D03*
X2524700D03*
X2284700Y4902900D03*
X2394700D03*
X2524700Y5019200D03*
X2389700Y5257900D03*
X2524700Y5142900D03*
X2397700Y5146200D03*
X2294700Y5282900D03*
X2397700Y5654200D03*
X2524700Y5781200D03*
X2397700D03*
X2460000Y5970000D03*
Y6225000D03*
X2335000D03*
X2524700Y6670200D03*
X2397700D03*
X2524700Y6543200D03*
X2399700Y6797900D03*
X2319700Y6882900D03*
X2524700Y6797200D03*
X2364700Y7012900D03*
X2351700Y7190900D03*
X2399700Y7342900D03*
X2288200Y7301400D03*
X2284700Y7927900D03*
X2423860Y7918620D03*
X2515900Y8081700D03*
X2324700Y8072900D03*
X2351700Y8342900D03*
X2699700Y767900D03*
X2614700Y867900D03*
X2764700Y862900D03*
X2802700Y1724900D03*
X2554700Y1822900D03*
X2799700Y2119400D03*
X2689700Y2157900D03*
Y2052900D03*
X2704700Y1942900D03*
X2714700Y2357900D03*
X2809700Y2522900D03*
X2596010Y2578780D03*
X2674700Y2832900D03*
X2704700Y2963900D03*
X2702700Y3479900D03*
X2793400Y3976310D03*
X2605700Y3967650D03*
X2794700Y4147900D03*
X2779700Y4767900D03*
X2778700Y5019200D03*
Y4892200D03*
X2649700Y5273200D03*
X2779700Y5147900D03*
X2651700Y5527200D03*
X2779700Y5527900D03*
X2649700Y5652900D03*
X2779700D03*
Y5402900D03*
X2778700Y5908200D03*
X2586630Y5973370D03*
X2778700Y6162200D03*
X2779700Y6412900D03*
X2778700Y6289200D03*
X2651700Y6670200D03*
Y6543200D03*
X2778700Y6670200D03*
X2656970Y6943510D03*
X2778700Y6797200D03*
X2651700D03*
X2589700Y7422900D03*
X2724700Y7577900D03*
X2796200Y8012900D03*
X2891450Y531150D03*
X2859700Y757900D03*
X3059700Y837900D03*
X2924700Y857900D03*
X3019700Y1277900D03*
X2989700Y1617900D03*
X3074700Y1622900D03*
X2879700Y1497900D03*
X2915000Y1770000D03*
X3019700Y2102900D03*
X2824700Y2352900D03*
X3074700Y2327900D03*
X2965860Y2226740D03*
X2814700Y2894900D03*
Y2757900D03*
Y3197900D03*
X3079700Y3042900D03*
X2814700Y3349900D03*
X3029700Y3350400D03*
X3014700Y3687900D03*
X2852750Y3624000D03*
X2859700Y3882900D03*
X3024700Y4292900D03*
X2905700Y4511200D03*
Y4638200D03*
X2934700Y5022900D03*
X3019700Y4957900D03*
X2934700Y4872900D03*
X3004700Y5844700D03*
X2879700Y5777200D03*
X2894760Y6405410D03*
X3032700Y6416200D03*
Y6670200D03*
X2824700Y6942900D03*
X2984700D03*
X2904700Y6797900D03*
X2827950Y7202900D03*
X3075000Y7797600D03*
X2869700Y8277900D03*
X3054700D03*
X3081950Y527900D03*
X3119700Y737900D03*
X3214700Y1332900D03*
X3249700Y1772900D03*
X3169450Y2139900D03*
X3269700Y2287900D03*
X3184700Y2447900D03*
X3289700Y2450480D03*
X3179700Y2642900D03*
Y2837900D03*
X3249700Y2942900D03*
X3114700Y3147900D03*
X3219700Y3047900D03*
X3110000Y3490000D03*
X3084700Y3777900D03*
X3334700Y3595000D03*
X3149700Y3687900D03*
X3126400Y3974600D03*
X3284700Y3807900D03*
X3161400Y4532900D03*
X3284700Y4512900D03*
X3159700Y4384200D03*
X3160080Y4762710D03*
X3114700Y4890000D03*
X3259700Y5132900D03*
X3304000Y5527200D03*
X3307000Y5400200D03*
X3306000Y5654200D03*
X3314700Y5781200D03*
X3171890Y5997900D03*
X3234700Y6072900D03*
X3214700Y6217900D03*
X3274700Y6297900D03*
X3159700Y6672900D03*
Y6543200D03*
X3286700D03*
Y6670200D03*
X3159700Y6797200D03*
Y7232900D03*
X3324700Y7357900D03*
X3124700Y7687900D03*
X3225000Y7692900D03*
X3144700Y7577900D03*
X3125000Y7947900D03*
X3229700Y7927900D03*
X3139700Y8042900D03*
X3234700Y8277900D03*
X3359700Y1292900D03*
X3354700Y1622900D03*
X3394690Y1429900D03*
X3554700Y1395400D03*
X3558350Y1624900D03*
X3449700Y2122900D03*
X3379700Y2042900D03*
X3394700Y2642900D03*
X3579700Y2542900D03*
Y3242900D03*
Y3142900D03*
X3479700Y3242900D03*
Y3142900D03*
X3579700Y3342900D03*
X3479700D03*
X3355000Y3325000D03*
X3494700Y3967650D03*
X3405920Y3859120D03*
X3579700Y4242900D03*
X3404700Y4247900D03*
X3539700Y4767900D03*
X3409700Y4762900D03*
X3413700Y5258900D03*
X3540700Y5263900D03*
X3413700Y5896900D03*
X3540700Y5893900D03*
X3539700Y6417900D03*
X3414700D03*
Y6667900D03*
X3413700Y6543200D03*
X3540700Y6670200D03*
X3439700Y6942900D03*
X3540700Y6797200D03*
X3604700Y7202900D03*
X3612200Y7333150D03*
X3514700Y7892900D03*
X3599700Y8277900D03*
X3414700D03*
X3646800Y545000D03*
X3664700Y757900D03*
X3864700Y1202900D03*
X3689700Y1207900D03*
X3749950Y1618150D03*
X3759700Y1873150D03*
X3671690Y2440040D03*
X3779700Y2342900D03*
Y2442900D03*
Y2642900D03*
Y2542900D03*
X3679700D03*
X3874860Y2642720D03*
X3679700Y2942900D03*
X3879700D03*
Y3242900D03*
X3779700D03*
X3679700Y3142900D03*
X3779700D03*
Y3437900D03*
X3879700Y3442900D03*
X3679700Y3342900D03*
X3649700Y3707900D03*
X3854700Y3712900D03*
X3645000Y3555000D03*
X3779700Y3542900D03*
X3749700Y3702900D03*
X3854700Y3617900D03*
X3685200Y3967650D03*
X3875700D03*
X3774700Y4242900D03*
X3794700Y4877900D03*
X3667700Y5269900D03*
X3794700Y5897900D03*
X3667700Y5895900D03*
Y6415900D03*
X3794700Y6417900D03*
X3667700Y6543200D03*
X3794700Y6670200D03*
X3614700Y6947900D03*
X3789700D03*
X3714700Y7197900D03*
X3684700Y7442900D03*
X3774700Y7472900D03*
X3853500Y8189100D03*
X3779700Y8277900D03*
X4129700Y1192700D03*
X4104700Y1597900D03*
X3964700Y2107900D03*
X3949700Y1922900D03*
X4069700Y2237900D03*
X4074860Y2342720D03*
X3939700Y2237900D03*
X3979700Y2442900D03*
X4079700D03*
X4089150Y2714210D03*
X3974700Y2642900D03*
X3979700Y2542900D03*
Y2942900D03*
X4080000Y2842900D03*
X3979700Y3042900D03*
X4066200Y3967650D03*
X3907450Y4237900D03*
X4079700Y4232900D03*
X4049700Y4387900D03*
X3922640Y4509350D03*
X3919700Y4637900D03*
X3924700Y4763900D03*
X3899700Y4997900D03*
X3989700Y5002900D03*
X4114700Y4872900D03*
X3959700D03*
X3999700Y5202900D03*
X3901000Y5654200D03*
X3902000Y5400200D03*
X3904000Y5527200D03*
X3919700Y6417900D03*
X3921700Y6543200D03*
Y6670200D03*
Y6800900D03*
X3934700Y7087900D03*
X3949700Y7357900D03*
X4124700Y7907900D03*
X4139700Y8277900D03*
X3959700D03*
X4370550Y703750D03*
X4269700Y1192900D03*
X4349700Y1627900D03*
X4409700Y1697900D03*
X4404700Y1882900D03*
X4379700Y2142900D03*
X4189700Y1932900D03*
X4379700Y2442900D03*
Y2342900D03*
X4179700Y2242900D03*
X4274700Y2237900D03*
X4179700Y2542900D03*
X4274890Y2643050D03*
X4379700Y2642900D03*
X4279700Y2542900D03*
Y2842900D03*
X4379700D03*
X4175000Y2842400D03*
X4379700Y2942900D03*
Y3142900D03*
Y3242900D03*
X4179700Y3042900D03*
X4279700D03*
X4379700Y3342900D03*
X4383700Y3706900D03*
X4256700Y3967650D03*
X4254700Y3857900D03*
X4244700Y4237900D03*
X4383700Y4238900D03*
X4298700Y4507900D03*
X4169700Y4511200D03*
X4175700Y4638200D03*
X4174700Y6417900D03*
X4304700Y6412900D03*
X4304950Y6544700D03*
Y6671700D03*
X4177950Y6544700D03*
X4319950Y6793900D03*
X4199700Y7172900D03*
X4259700Y7337900D03*
X4434700Y1192900D03*
X4554700Y1633400D03*
X4539700Y1882900D03*
X4479700Y1747900D03*
X4596700Y1772900D03*
X4674700Y1882900D03*
X4479700Y2142900D03*
X4679700Y2242900D03*
X4479700Y2342900D03*
X4571870Y2345610D03*
X4579700Y2239070D03*
X4479700Y2542900D03*
Y2642900D03*
X4579700Y2542900D03*
Y2642900D03*
X4679700D03*
X4579700Y2942900D03*
X4679700D03*
Y2842900D03*
X4479700Y2942900D03*
X4579700Y2742900D03*
Y2842900D03*
X4479700Y2742900D03*
X4679700D03*
X4479700Y2842900D03*
Y3042900D03*
X4579700D03*
X4679700Y3142900D03*
X4479700D03*
X4679700Y3042900D03*
X4479700Y3242900D03*
X4579700Y3342900D03*
X4679700Y3442900D03*
X4579700D03*
X4479700Y3342900D03*
Y3442900D03*
Y3542900D03*
X4579700Y3630000D03*
X4679700Y3542900D03*
X4544700Y3762900D03*
X4542450Y3987550D03*
X4439700Y3967900D03*
X4542450Y4235150D03*
X4429700Y4638200D03*
X4556700D03*
X4551600Y4770100D03*
X4429700Y4767900D03*
X4551600Y4897100D03*
Y5024100D03*
X4424600D03*
X4429700Y4892900D03*
X4551600Y5151100D03*
Y5278100D03*
X4424600D03*
Y5151100D03*
X4551600Y5405100D03*
Y5532100D03*
X4424600D03*
Y5405100D03*
X4551600Y5659100D03*
X4429700Y5781000D03*
X4556700D03*
Y5908000D03*
X4424600Y5659100D03*
X4429700Y5908000D03*
X4556700Y6035000D03*
X4429700D03*
X4556700Y6162000D03*
X4429700D03*
X4556700Y6289000D03*
Y6416000D03*
X4429700D03*
Y6289000D03*
Y6670000D03*
Y6543000D03*
X4556700D03*
X4461950Y6793900D03*
X4799700Y1012900D03*
X4904700Y1007900D03*
X4734450Y1618150D03*
X4924450D03*
X4739700Y1732900D03*
X4834700Y1737900D03*
X4924450Y1872900D03*
X4769700Y1907900D03*
X4759700Y2097900D03*
X4879700Y2142900D03*
X4794700Y2202900D03*
X4694700Y2347900D03*
X4774700Y2442900D03*
X4779700Y2942900D03*
X4810000Y2760000D03*
X4779700Y3042900D03*
X4795790Y3229310D03*
X4879700Y3142900D03*
Y3242900D03*
Y3442900D03*
X4764990Y3359180D03*
X4779700Y3442900D03*
Y3620000D03*
X4828200Y3967650D03*
X4699700Y4082900D03*
X4869700Y4092900D03*
X4810700Y4384200D03*
X4809700Y4642900D03*
X4931950Y5973900D03*
X4791950Y6813900D03*
X4936950Y6953900D03*
Y7058900D03*
X4940000Y7635000D03*
X4800900Y8174100D03*
X4874700Y8292900D03*
X5205000Y548200D03*
X5019700Y487900D03*
X5082200Y840400D03*
Y1025400D03*
X5084700Y1618150D03*
X5159700Y1712900D03*
X5193700Y1903900D03*
X5054700Y2142900D03*
X4974700Y2247900D03*
X5194700Y2292900D03*
X5042410Y2392160D03*
X4979700Y2502900D03*
X5034700Y2597900D03*
X5191190Y2715740D03*
X4965000Y2835000D03*
X5190000Y2931650D03*
X5114700Y3022900D03*
X5034700Y3092900D03*
Y3242900D03*
X5037750Y3445000D03*
X5039700Y3582900D03*
X5114700Y3717900D03*
X5189700Y4082900D03*
X5029700D03*
X5058700Y4446900D03*
X5196950Y6138900D03*
X5046950Y6108900D03*
X5206950Y6301960D03*
X5201950Y6423900D03*
X5131950Y6373900D03*
X5036950Y6220930D03*
X5091950Y6298900D03*
X5160810Y6498290D03*
X5091950Y6558900D03*
X5017530Y6649180D03*
X5041950Y6730600D03*
X4971950Y6785600D03*
X5006950Y6893900D03*
X5011950Y7008900D03*
X4955200Y7428400D03*
X5114700Y7907900D03*
X5144700Y8262900D03*
X5431450Y674650D03*
X5272700Y675900D03*
X5249700Y842900D03*
X5431450Y839650D03*
X5249700Y1032900D03*
X5304700Y1822900D03*
X5393350Y1676550D03*
X5429700Y2712900D03*
X5299700Y2562900D03*
X5304700Y2707900D03*
X5284700Y3090400D03*
X5309700Y3342900D03*
X5450000Y3470000D03*
X5264700Y4327900D03*
X5261950Y5213900D03*
X5446950Y5343900D03*
X5431950Y5583900D03*
X5266950Y5771750D03*
X5321950Y6023900D03*
X5246950Y5943900D03*
X5344700Y6147900D03*
X5446950Y6008900D03*
X5471950Y6763900D03*
X5476950Y6943900D03*
X5348150Y7159450D03*
X5347900Y8262900D03*
X5449500D03*
X5246300D03*
X5514700Y547900D03*
X5590200Y687400D03*
X5555000Y1007600D03*
X5669700Y1007900D03*
X5559700Y1872900D03*
X5634700Y1827900D03*
X5538200Y2221400D03*
X5519700Y2432900D03*
X5554700Y2577900D03*
X5745300Y2627900D03*
X5594700Y2722900D03*
X5536950Y6653900D03*
X5671950Y6518900D03*
X5636950Y6623900D03*
X5626950Y6758900D03*
X5646950Y6903900D03*
X5537800Y7003900D03*
X5524700Y7428400D03*
X5551100Y8262900D03*
X5652700D03*
X5829700Y512900D03*
X5959700D03*
X5748950Y677150D03*
X5907700Y674900D03*
X5754700Y837900D03*
X5809700Y2102900D03*
X5891550Y2352840D03*
X5994700Y2287900D03*
X5989700Y2512900D03*
X6004700Y2867900D03*
X6009700Y2722900D03*
X6004700Y3112900D03*
X5872200Y3110400D03*
X5879700Y3337900D03*
X5819700Y3677900D03*
X5786950Y6428900D03*
X5754700Y7517900D03*
X5749700Y7402900D03*
X5869600Y8237800D03*
X6066450Y686150D03*
X6074700Y842900D03*
X6225200Y687400D03*
X6229400Y848200D03*
X6129700Y1547900D03*
X6259700Y2587900D03*
X6244700Y2457900D03*
X6274700Y3132900D03*
X6016800Y3220000D03*
X6134700Y3312900D03*
X6220000Y3545000D03*
X6264700Y3797900D03*
X6258450Y4298900D03*
X6261950Y4183900D03*
X6226950Y4523900D03*
X6221780Y4377430D03*
X6266950Y4613900D03*
X6141950Y4763900D03*
X6189090Y5071040D03*
X6051950Y5038900D03*
X6241950Y6013900D03*
X6251950Y6111200D03*
X6242010Y6304280D03*
X6230760Y6193520D03*
X6236950Y6446280D03*
X6193020Y6547520D03*
X6016950Y6578900D03*
X6116950Y6908800D03*
X6236950Y6843900D03*
X6198600Y6965950D03*
X6021300Y7320000D03*
X6044700Y8187900D03*
X6034700Y8087900D03*
X6369700Y507900D03*
X6383950Y687150D03*
X6379700Y847900D03*
X6542700Y680900D03*
X6354700Y1007900D03*
X6412200Y1665400D03*
X6344700Y1782900D03*
X6319700Y1982900D03*
X6544700Y2157900D03*
X6319700Y2707900D03*
X6339700Y2517900D03*
X6504690Y2907890D03*
X6544700Y3107900D03*
X6474700Y3797900D03*
X6387790Y4316140D03*
X6486950Y4573900D03*
X6496350Y4364280D03*
X6361950Y4508900D03*
X6461950Y4834900D03*
X6396950Y4748350D03*
X6326950Y4978900D03*
X6476950Y5013900D03*
X6346950Y5358900D03*
X6463340Y5258900D03*
X6331950Y5225200D03*
X6456950Y5133900D03*
X6541950Y5122670D03*
X6376010Y5894360D03*
X6492050Y6004780D03*
X6501950Y6113310D03*
X6366950Y6008900D03*
X6356950Y6350900D03*
X6374450Y6208900D03*
X6461950Y6593900D03*
X6291950Y6528900D03*
X6316950Y6735200D03*
X6476950Y7033800D03*
X6655000Y513200D03*
X6701450Y679650D03*
X6599700Y1027900D03*
X6764700Y1037900D03*
X6694700Y1342900D03*
X6804700Y2177900D03*
Y2082400D03*
X6659700Y2517900D03*
X6754700Y2587900D03*
X6605660Y2631550D03*
X6745900Y2726700D03*
X6734700Y3152900D03*
X6564700Y3432900D03*
X6689700Y3412900D03*
X6584700Y3342900D03*
X6710000Y3697600D03*
X6769700Y3627900D03*
X6630000Y3647900D03*
X6568190Y4318840D03*
X6666950Y4243900D03*
X6546950Y4168900D03*
X6761950Y4188900D03*
X6556950Y4423900D03*
Y4798900D03*
X6562150Y4701120D03*
X6623810Y4931610D03*
X6612720Y5021890D03*
X6806950Y5153900D03*
X6766950Y5268900D03*
X6591950Y5378900D03*
X6776950Y5383900D03*
X6565000Y5892350D03*
X6741950Y6208900D03*
X6581950Y6193900D03*
X6656790Y6298590D03*
X6731950Y6398980D03*
X6571950Y6303900D03*
X6641950Y6461400D03*
X6546950Y6593900D03*
X6721950Y6633900D03*
X6701950Y6788900D03*
X6554200Y6813550D03*
X6571950Y7053900D03*
X6591300Y7321300D03*
X6694700Y8262900D03*
X6809700Y8097900D03*
X7018950Y838650D03*
X6862200Y845400D03*
X6964700Y677900D03*
X6860200Y687400D03*
X7079700Y1037900D03*
X6830000Y1808200D03*
X6884700Y1667900D03*
X6964700Y1857900D03*
X6939700Y2127900D03*
X7034700Y2082900D03*
X6929700Y2427900D03*
X6814700Y2282900D03*
X6933500Y2584100D03*
X6928500Y2884100D03*
X6933500Y3031700D03*
X6930900Y3184100D03*
X6829700Y3402900D03*
X6959700Y3607900D03*
X6921950Y4528900D03*
X6874800Y4325200D03*
X6864600Y4820830D03*
X7051950Y4813900D03*
X6866790Y4709080D03*
X7031950Y4623900D03*
X6878840Y4930910D03*
X6890770Y5039700D03*
X7066950Y4928900D03*
X7026950Y5128900D03*
X6956950Y5325200D03*
X7064900Y5517700D03*
X6996950Y5763900D03*
X6908540Y5865490D03*
X6871950Y5983900D03*
X6866950Y6093900D03*
X7046950Y5993900D03*
X7039460Y6109240D03*
X7052350Y6293900D03*
X6884390Y6203790D03*
X6871950Y6413900D03*
X6886950Y6604000D03*
X6986690Y6605270D03*
X6946950Y6818900D03*
X6981950Y7053900D03*
X6876950Y7048900D03*
X6987200Y7955400D03*
X6919700Y8097900D03*
X7302500Y684700D03*
X7114000Y2147320D03*
X7110000Y3403200D03*
X7284700Y3637900D03*
X7119700Y3842900D03*
X7271950Y4298900D03*
X7150000Y4180000D03*
X7081950Y4523900D03*
X7321950Y4450200D03*
X7167100Y4721700D03*
X7181950Y5025200D03*
X7081950Y5225200D03*
X7121950Y5808900D03*
X7191950Y5998900D03*
X7217180Y6109320D03*
X7166950Y6407950D03*
X7161950Y6207950D03*
X7116950Y6688900D03*
X7141950Y6913900D03*
X7158450Y7396650D03*
X7129700Y7562900D03*
X7154700Y8252900D03*
X7256300D03*
X7435800Y976800D03*
X7509700Y3202900D03*
X7414700Y3662900D03*
X7577750Y3727900D03*
X7535000Y4255000D03*
X7425000Y4525000D03*
X7471950Y4963900D03*
X7561950Y5118900D03*
X7574700Y5517700D03*
X7540000Y6210000D03*
X7571950Y6643900D03*
X7561100Y8252900D03*
X7459500D03*
X7357900D03*
X7719700Y507900D03*
X7794700Y1822900D03*
X7670000Y1662900D03*
X7642600Y2185000D03*
X7644910Y2078960D03*
X7812600Y2380000D03*
X7649700Y2300000D03*
X7812600Y2700000D03*
X7752600Y2620000D03*
X7807600Y2540000D03*
X7747600Y2460000D03*
X7751800Y2780000D03*
X7762600Y3180000D03*
X7807600Y3100000D03*
X7739700Y3497900D03*
X7619700Y3582900D03*
X7839700Y3840650D03*
X7670000Y4180000D03*
X7825000Y4270000D03*
X7670610Y4395490D03*
X7880000Y4410000D03*
X7760000Y4485000D03*
X7670650Y4625200D03*
X7685060Y4847350D03*
X7776950Y4723900D03*
X7721850Y5025350D03*
X7868650Y5022850D03*
Y5334000D03*
X7869400Y5217030D03*
X7701950Y5173900D03*
X7849700Y5517700D03*
X7781950Y5878900D03*
X7764100Y6080670D03*
X7701950Y6438900D03*
X7781950Y6323900D03*
X7761950Y6208900D03*
X7709900Y6642100D03*
X7773400Y7061200D03*
X7865900Y8252900D03*
X7764300D03*
X7662700D03*
X7907950Y966150D03*
X8088950Y1237150D03*
X7954700Y1907900D03*
X7987600Y2020000D03*
X7891800Y2100000D03*
X8104700Y2185000D03*
X7891800Y2260000D03*
X8084700Y2342100D03*
X8104700Y2502100D03*
X7891800Y2580000D03*
Y2740000D03*
X8092600Y2820000D03*
X7891800Y2900000D03*
X8094700Y2982100D03*
X7891800Y3060000D03*
X8099700Y3142100D03*
X7891800Y3220000D03*
X7929700Y3577900D03*
X8085000Y4302990D03*
X7970000Y4210000D03*
X8101950Y4538000D03*
X8024220Y4439300D03*
X7936950Y4823900D03*
X7926950Y4638900D03*
X8066950Y4743900D03*
X7953650Y5023960D03*
X8091950Y5019200D03*
X8101950Y5125200D03*
X7954350Y5219970D03*
X7956000Y5330000D03*
X8136950Y5325200D03*
X8104700Y5517700D03*
X7951950Y5863900D03*
X8086950Y6053900D03*
X7967880Y6014340D03*
X7931950Y6428900D03*
X8095000Y6210000D03*
X7941950Y6203900D03*
X8096950Y6305550D03*
X7981950Y6353900D03*
X7986950Y6614600D03*
X8111950Y6618900D03*
Y6763900D03*
X7946950Y6828900D03*
Y7013900D03*
X8114700Y7687900D03*
X8029700Y7647900D03*
X8289700Y1692900D03*
Y2140000D03*
X8164700Y1948350D03*
X8279700Y2302900D03*
X8156750Y2684950D03*
X8259700Y3047900D03*
X8155000Y4210000D03*
X8261950Y4525200D03*
X8151950Y4418900D03*
X8349950Y4525200D03*
Y4325200D03*
X8337110Y4419080D03*
X8266950Y4823900D03*
X8361950Y4832350D03*
X8155200Y4638900D03*
X8268400Y4708230D03*
X8356950Y4708900D03*
X8151950Y4925200D03*
X8271950Y5010060D03*
X8266950Y5233900D03*
X8271950Y5123900D03*
X8221950Y5417900D03*
X8268700Y5892800D03*
X8266640Y6107450D03*
X8351950Y5993900D03*
X8360150Y6103240D03*
X8271950Y6223900D03*
Y6408900D03*
X8268700Y6705600D03*
X8357900Y6707950D03*
X8267900Y6807950D03*
X8356000Y6907950D03*
X8174700Y7212900D03*
X8356950Y7003900D03*
X8268700Y7004050D03*
X8559700Y1072900D03*
X8592700Y2665900D03*
X8589700Y2507900D03*
X8595200Y2983400D03*
X8594700Y2824650D03*
X8424700Y2762900D03*
X8595450Y3142150D03*
X8589700Y3657900D03*
X8604700Y3812900D03*
X8550000Y4225200D03*
X8471210Y4701230D03*
X8604900Y5517700D03*
X8621950Y6007100D03*
X8591950Y6108700D03*
X8541950Y5923900D03*
X8433800Y6407150D03*
X8591950Y6305550D03*
X8927700Y1395900D03*
X8932950Y2189650D03*
X8941700Y2665900D03*
X8930300Y3663500D03*
X8802100Y4257900D03*
X8779700Y4887900D03*
X8797100Y5285000D03*
X8684700Y6130500D03*
X8769700Y6287900D03*
X8776700Y6527800D03*
X8686000Y6908800D03*
X8754700Y7257900D03*
X8744700Y7877900D03*
X8948950Y3142150D03*
X9124700Y4478840D03*
X9141000Y4775200D03*
X9000300Y5295100D03*
X9005100Y5975000D03*
X9131000Y6527800D03*
X9005300Y7061200D03*
D13*
X500000Y500000D03*
Y8250000D03*
X9000000Y500000D03*
Y8250000D03*
M02*