G04 Gerber PCB Fabrication Data in Gerber – Example 2, created by Karel Tavernier, Filip Vermeire and Thomas Weyn*
G04 Ucamco copyright*
%TF.GenerationSoftware,Ucamco,UcamX,1.1.0-1400509*%
%TF.CreationDate,2014-07-14T00:00;00+01:00*%
%FSLAX25Y25*%
%MOMM*%
%TF.FileFunction,Copper,L1,Top,Signal*%
%TF.FilePolarity,Positive*%
%TF.Part,Single*%
%TF.SameCoordinates*%
%TA.AperFunction,Conductor*%
%ADD10C,0.15000*%
%TA.AperFunction,NonConductor*%
%ADD11C,0.20000*%
%TA.AperFunction,ViaPad*%
%ADD12C,0.30000*%
%TA.AperFunction,BGAPad,CuDef*%
%ADD13C,0.35000*%
%ADD14C,0.40000*%
%TA.AperFunction,FiducialPad,Local*%
%ADD15C,0.50000*%
%TA.AperFunction,BGAPad,CuDef*%
%ADD16C,0.60000*%
%TA.AperFunction,ViaPad*%
%ADD17C,0.65000*%
%TA.AperFunction,TestPad*%
%ADD18C,0.70000*%
%TA.AperFunction,WasherPad*%
%ADD19C,6.000000*%
%TA.AperFunction,SMDPad,CuDef*%
%ADD20R,0.20000X1.80000*%
%ADD21R,0.25000X1.60000*%
%ADD22R,0.40000X1.60000*%
%ADD23R,0.50000X0.30000*%
%ADD24R,0.50000X0.40000*%
%ADD25R,0.60000X1.00000*%
%ADD26R,0.60000X1.60000*%
%ADD27R,1.00000X0.60000*%
%ADD28R,1.10000X1.80000*%
%ADD29R,1.50000X1.00000*%
%ADD30R,1.50000X1.60000*%
%ADD31R,1.60000X0.40000*%
%ADD32R,1.80000X0.20000*%
%ADD33R,1.80000X1.10000*%
%ADD34R,1.90000X2.10000*%
%ADD35R,2.00000X3.50000*%
%ADD36R,2.80000X1.10000*%
%TA.AperFunction,Conductor*%
%ADD37C,0*%
G01*
%LPD*%
D37*
G36*
X3742382Y5510201D02*
X3750196Y5494866D01*
X3762366Y5482696D01*
X3777701Y5474882D01*
X3794700Y5472190D01*
X3811699Y5474882D01*
X3827034Y5482696D01*
X3839204Y5494866D01*
X3847017Y5510201D01*
X3849710Y5527200D01*
X3847017Y5544199D01*
X3839204Y5559534D01*
X3827034Y5571704D01*
X3811699Y5579517D01*
X3794700Y5582210D01*
X3777701Y5579517D01*
X3762366Y5571704D01*
X3750196Y5559534D01*
X3742382Y5544199D01*
X3739690Y5527200D01*
X3722710D01*
X3720017Y5544199D01*
X3712204Y5559534D01*
X3700034Y5571704D01*
X3684699Y5579517D01*
X3667700Y5582210D01*
X3650701Y5579517D01*
X3635366Y5571704D01*
X3623196Y5559534D01*
X3615382Y5544199D01*
X3612690Y5527200D01*
X3595710D01*
X3593017Y5544199D01*
X3585204Y5559534D01*
X3573034Y5571704D01*
X3557699Y5579517D01*
X3540700Y5582210D01*
X3523701Y5579517D01*
X3508366Y5571704D01*
X3496196Y5559534D01*
X3488382Y5544199D01*
X3485690Y5527200D01*
X3468710D01*
X3466017Y5544199D01*
X3458204Y5559534D01*
X3446034Y5571704D01*
X3430699Y5579517D01*
X3413700Y5582210D01*
X3396701Y5579517D01*
X3381366Y5571704D01*
X3369196Y5559534D01*
X3361382Y5544199D01*
X3358690Y5527200D01*
X2879700D01*
Y5654200D01*
X3358690D01*
X3361382Y5637201D01*
X3369196Y5621866D01*
X3381366Y5609696D01*
X3396701Y5601882D01*
X3413700Y5599190D01*
X3430699Y5601882D01*
X3446034Y5609696D01*
X3458204Y5621866D01*
X3466017Y5637201D01*
X3468710Y5654200D01*
X3485690D01*
X3488382Y5637201D01*
X3496196Y5621866D01*
X3508366Y5609696D01*
X3523701Y5601882D01*
X3540700Y5599190D01*
X3557699Y5601882D01*
X3573034Y5609696D01*
X3585204Y5621866D01*
X3593017Y5637201D01*
X3595710Y5654200D01*
X3612690D01*
X3615382Y5637201D01*
X3623196Y5621866D01*
X3635366Y5609696D01*
X3650701Y5601882D01*
X3667700Y5599190D01*
X3684699Y5601882D01*
X3700034Y5609696D01*
X3712204Y5621866D01*
X3720017Y5637201D01*
X3722710Y5654200D01*
X3739690D01*
X3742382Y5637201D01*
X3750196Y5621866D01*
X3762366Y5609696D01*
X3777701Y5601882D01*
X3794700Y5599190D01*
X3811699Y5601882D01*
X3827034Y5609696D01*
X3839204Y5621866D01*
X3847017Y5637201D01*
X3849710Y5654200D01*
X3847017Y5671199D01*
X3839204Y5686534D01*
X3827034Y5698704D01*
X3811699Y5706517D01*
X3794700Y5709210D01*
X3777701Y5706517D01*
X3762366Y5698704D01*
X3750196Y5686534D01*
X3742382Y5671199D01*
X3739690Y5654200D01*
X3722710D01*
X3720017Y5671199D01*
X3712204Y5686534D01*
X3700034Y5698704D01*
X3684699Y5706517D01*
X3667700Y5709210D01*
X3650701Y5706517D01*
X3635366Y5698704D01*
X3623196Y5686534D01*
X3615382Y5671199D01*
X3612690Y5654200D01*
X3595710D01*
X3593017Y5671199D01*
X3585204Y5686534D01*
X3573034Y5698704D01*
X3557699Y5706517D01*
X3540700Y5709210D01*
X3523701Y5706517D01*
X3508366Y5698704D01*
X3496196Y5686534D01*
X3488382Y5671199D01*
X3485690Y5654200D01*
X3468710D01*
X3466017Y5671199D01*
X3458204Y5686534D01*
X3446034Y5698704D01*
X3430699Y5706517D01*
X3413700Y5709210D01*
X3396701Y5706517D01*
X3381366Y5698704D01*
X3369196Y5686534D01*
X3361382Y5671199D01*
X3358690Y5654200D01*
X2879700D01*
Y5781200D01*
X3358690D01*
X3361382Y5764201D01*
X3369196Y5748866D01*
X3381366Y5736696D01*
X3396701Y5728882D01*
X3413700Y5726190D01*
X3430699Y5728882D01*
X3446034Y5736696D01*
X3458204Y5748866D01*
X3466017Y5764201D01*
X3468710Y5781200D01*
X3485690D01*
X3488382Y5764201D01*
X3496196Y5748866D01*
X3508366Y5736696D01*
X3523701Y5728882D01*
X3540700Y5726190D01*
X3557699Y5728882D01*
X3573034Y5736696D01*
X3585204Y5748866D01*
X3593017Y5764201D01*
X3595710Y5781200D01*
X3612690D01*
X3615382Y5764201D01*
X3623196Y5748866D01*
X3635366Y5736696D01*
X3650701Y5728882D01*
X3667700Y5726190D01*
X3684699Y5728882D01*
X3700034Y5736696D01*
X3712204Y5748866D01*
X3720017Y5764201D01*
X3722710Y5781200D01*
X3739690D01*
X3742382Y5764201D01*
X3750196Y5748866D01*
X3762366Y5736696D01*
X3777701Y5728882D01*
X3794700Y5726190D01*
X3811699Y5728882D01*
X3827034Y5736696D01*
X3839204Y5748866D01*
X3847017Y5764201D01*
X3849710Y5781200D01*
X3847017Y5798199D01*
X3839204Y5813534D01*
X3827034Y5825704D01*
X3811699Y5833517D01*
X3794700Y5836210D01*
X3777701Y5833517D01*
X3762366Y5825704D01*
X3750196Y5813534D01*
X3742382Y5798199D01*
X3739690Y5781200D01*
X3722710D01*
X3720017Y5798199D01*
X3712204Y5813534D01*
X3700034Y5825704D01*
X3684699Y5833517D01*
X3667700Y5836210D01*
X3650701Y5833517D01*
X3635366Y5825704D01*
X3623196Y5813534D01*
X3615382Y5798199D01*
X3612690Y5781200D01*
X3595710D01*
X3593017Y5798199D01*
X3585204Y5813534D01*
X3573034Y5825704D01*
X3557699Y5833517D01*
X3540700Y5836210D01*
X3523701Y5833517D01*
X3508366Y5825704D01*
X3496196Y5813534D01*
X3488382Y5798199D01*
X3485690Y5781200D01*
X3468710D01*
X3466017Y5798199D01*
X3458204Y5813534D01*
X3446034Y5825704D01*
X3430699Y5833517D01*
X3413700Y5836210D01*
X3396701Y5833517D01*
X3381366Y5825704D01*
X3369196Y5813534D01*
X3361382Y5798199D01*
X3358690Y5781200D01*
X2879700D01*
Y6132900D01*
X2959700Y6212900D01*
X4139700D01*
X4199700Y6152900D01*
Y5022900D01*
X4104700Y4927900D01*
X3009700D01*
X2879700Y5057900D01*
Y5400200D01*
X3358690D01*
X3361382Y5383201D01*
X3369196Y5367866D01*
X3381366Y5355696D01*
X3396701Y5347882D01*
X3413700Y5345190D01*
X3430699Y5347882D01*
X3446034Y5355696D01*
X3458204Y5367866D01*
X3466017Y5383201D01*
X3468710Y5400200D01*
X3485690D01*
X3488382Y5383201D01*
X3496196Y5367866D01*
X3508366Y5355696D01*
X3523701Y5347882D01*
X3540700Y5345190D01*
X3557699Y5347882D01*
X3573034Y5355696D01*
X3585204Y5367866D01*
X3593017Y5383201D01*
X3595710Y5400200D01*
X3612690D01*
X3615382Y5383201D01*
X3623196Y5367866D01*
X3635366Y5355696D01*
X3650701Y5347882D01*
X3667700Y5345190D01*
X3684699Y5347882D01*
X3700034Y5355696D01*
X3712204Y5367866D01*
X3720017Y5383201D01*
X3722710Y5400200D01*
X3739690D01*
X3742382Y5383201D01*
X3750196Y5367866D01*
X3762366Y5355696D01*
X3777701Y5347882D01*
X3794700Y5345190D01*
X3811699Y5347882D01*
X3827034Y5355696D01*
X3839204Y5367866D01*
X3847017Y5383201D01*
X3849710Y5400200D01*
X3847017Y5417199D01*
X3839204Y5432534D01*
X3827034Y5444704D01*
X3811699Y5452517D01*
X3794700Y5455210D01*
X3777701Y5452517D01*
X3762366Y5444704D01*
X3750196Y5432534D01*
X3742382Y5417199D01*
X3739690Y5400200D01*
X3722710D01*
X3720017Y5417199D01*
X3712204Y5432534D01*
X3700034Y5444704D01*
X3684699Y5452517D01*
X3667700Y5455210D01*
X3650701Y5452517D01*
X3635366Y5444704D01*
X3623196Y5432534D01*
X3615382Y5417199D01*
X3612690Y5400200D01*
X3595710D01*
X3593017Y5417199D01*
X3585204Y5432534D01*
X3573034Y5444704D01*
X3557699Y5452517D01*
X3540700Y5455210D01*
X3523701Y5452517D01*
X3508366Y5444704D01*
X3496196Y5432534D01*
X3488382Y5417199D01*
X3485690Y5400200D01*
X3468710D01*
X3466017Y5417199D01*
X3458204Y5432534D01*
X3446034Y5444704D01*
X3430699Y5452517D01*
X3413700Y5455210D01*
X3396701Y5452517D01*
X3381366Y5444704D01*
X3369196Y5432534D01*
X3361382Y5417199D01*
X3358690Y5400200D01*
X2879700D01*
Y5527200D01*
X3358690D01*
X3361382Y5510201D01*
X3369196Y5494866D01*
X3381366Y5482696D01*
X3396701Y5474882D01*
X3413700Y5472190D01*
X3430699Y5474882D01*
X3446034Y5482696D01*
X3458204Y5494866D01*
X3466017Y5510201D01*
X3468710Y5527200D01*
X3485690D01*
X3488382Y5510201D01*
X3496196Y5494866D01*
X3508366Y5482696D01*
X3523701Y5474882D01*
X3540700Y5472190D01*
X3557699Y5474882D01*
X3573034Y5482696D01*
X3585204Y5494866D01*
X3593017Y5510201D01*
X3595710Y5527200D01*
X3612690D01*
X3615382Y5510201D01*
X3623196Y5494866D01*
X3635366Y5482696D01*
X3650701Y5474882D01*
X3667700Y5472190D01*
X3684699Y5474882D01*
X3700034Y5482696D01*
X3712204Y5494866D01*
X3720017Y5510201D01*
X3722710Y5527200D01*
X3739690D01*
X3742382Y5510201D01*
G37*
G36*
X7418360Y7677890D02*
Y8067910D01*
X7178340D01*
Y7677890D01*
X7059700D01*
Y8242900D01*
X7139700Y8322900D01*
X7889700D01*
X7979700Y8232900D01*
Y8067910D01*
X7762540D01*
Y7677890D01*
X7979700D01*
Y7663960D01*
X7979480Y7663230D01*
X7977448Y7653077D01*
Y7642723D01*
X7979480Y7632570D01*
X7979700Y7631840D01*
Y7512900D01*
X7929700Y7462900D01*
X7104700D01*
X7059700Y7507900D01*
Y7562900D01*
X7072190D01*
X7074745Y7545948D01*
X7082183Y7530503D01*
X7093843Y7517937D01*
X7108689Y7509365D01*
X7125402Y7505551D01*
X7142497Y7506832D01*
X7158455Y7513095D01*
X7171858Y7523783D01*
X7181514Y7537947D01*
X7186567Y7554328D01*
Y7571471D01*
X7181514Y7587852D01*
X7171858Y7602016D01*
X7158455Y7612705D01*
X7142497Y7618968D01*
X7125402Y7620249D01*
X7108689Y7616434D01*
X7093843Y7607863D01*
X7082183Y7595296D01*
X7074745Y7579851D01*
X7072190Y7562900D01*
X7059700D01*
Y7677890D01*
X7178340D01*
X7418360D01*
G37*
G36*
X5486610Y7641140D02*
Y8041160D01*
X5236590D01*
Y7641140D01*
X5039700D01*
Y8257900D01*
X5104700Y8322900D01*
X5689700D01*
X5754700Y8257900D01*
Y7575600D01*
X5750020Y7575220D01*
X5733151Y7571221D01*
X5718239Y7562377D01*
X5706642Y7549491D01*
X5699411Y7533734D01*
X5697204Y7516539D01*
X5700221Y7499467D01*
X5708190Y7484070D01*
X5710107Y7478885D01*
X5709032Y7473462D01*
X5705280Y7469401D01*
X5699960Y7467900D01*
X5566550D01*
X5565060Y7469360D01*
X5550579Y7479751D01*
X5533612Y7485209D01*
X5515788D01*
X5498821Y7479751D01*
X5484340Y7469360D01*
X5482850Y7467900D01*
X5114700D01*
X5039700Y7542900D01*
Y7641140D01*
X5236590D01*
X5486610D01*
G37*
G36*
X4599470Y7470380D02*
Y7680420D01*
X4399430D01*
Y7470380D01*
X4364700D01*
Y7952900D01*
X4414700Y8002900D01*
X4466880D01*
Y7934420D01*
X4399430D01*
Y7724380D01*
X4599470D01*
Y7934420D01*
X4531920D01*
Y8002900D01*
X4656110D01*
X4661130Y7997880D01*
X4686930D01*
Y7934420D01*
X4619430D01*
Y7724380D01*
X4819470D01*
Y7934420D01*
X4751970D01*
Y8002900D01*
X4784700D01*
X4844700Y7942900D01*
Y7437900D01*
X4789700Y7382900D01*
X4692320D01*
Y7470380D01*
X4819470D01*
Y7680420D01*
X4619430D01*
Y7470380D01*
X4627280D01*
Y7382900D01*
X4419700D01*
X4364700Y7437900D01*
Y7470380D01*
X4399430D01*
X4599470D01*
G37*
D10*
X510200Y1268900D02*
Y1342400D01*
X510200Y1459400D02*
Y1533400D01*
X510200Y1649900D02*
Y1727900D01*
X509700Y1932290D02*
Y1872650D01*
X510200Y1872150D01*
X489700Y2142900D02*
X510200Y2122400D01*
Y2062650D01*
X700700Y1967400D02*
X700200Y1966900D01*
X629700D01*
X499700Y1952900D02*
X509700Y1942900D01*
Y1932290D01*
X494400Y1947600D01*
X510200Y2253150D02*
Y2212400D01*
X554700Y2167900D01*
X624700Y2347900D02*
X700200D01*
X700700Y2348400D01*
X700700Y2157900D02*
X624700D01*
X1483200Y3814400D02*
X1447600Y3850000D01*
X1395000D01*
X619600Y4625400D01*
X505880D01*
X472200Y4659080D01*
Y5282840D01*
X659760Y5470400D01*
X892200D01*
X934700Y5427900D01*
X1034700Y5327900D02*
X980200Y5382400D01*
X672400D01*
X580000Y5290000D01*
Y4720000D01*
X1410000Y3890000D01*
X1476300D01*
X1548200Y3818100D01*
Y3681900D01*
X689700Y5237900D02*
X620000Y5168200D01*
Y4735000D01*
X1422100Y3932900D01*
X1527130D01*
X1613200Y3846830D01*
Y3816400D01*
X1183300Y1919900D02*
X916700D01*
X785000Y1788200D01*
Y1415000D01*
X702400Y1332400D01*
X700700D01*
X700700Y1554650D02*
Y1486900D01*
X700700Y1745150D02*
Y1671900D01*
X1039700Y2894900D02*
Y2895300D01*
X983350Y2951650D01*
X840400D01*
X929340Y3657900D02*
X879900D01*
X872150Y3650150D01*
X779700Y5292900D02*
X729700Y5242900D01*
Y5159700D01*
X654700Y5084700D01*
Y4755300D01*
X1442100Y3967900D01*
X1561700D01*
X1678200Y3851400D01*
Y3821400D01*
X1394700Y4282900D02*
X1362100D01*
X1200000Y4445000D01*
X1113600D01*
X877200Y4681400D01*
Y4885400D01*
X834700Y4927900D01*
X1194700Y4332900D02*
X1126700D01*
X690000Y4769600D01*
Y5065000D01*
X795400Y5170400D01*
X892200D01*
X934700Y5127900D01*
X1808200Y3681900D02*
Y3839400D01*
X1707210Y3940390D01*
X1688380D01*
X1688370Y3940400D01*
X1679690D01*
X1609690Y4010400D01*
X1556370D01*
X1556360Y4010390D01*
X1533210D01*
X1285200Y4258400D01*
X1284200D01*
X1260000Y4282600D01*
Y4335000D01*
X1190000Y4405000D01*
X1104100D01*
X725000Y4784100D01*
Y5028200D01*
X774700Y5077900D01*
X857100D01*
X907100Y5027900D01*
X934700D01*
X834700Y5027900D02*
X784700Y4977900D01*
X719700Y5347900D02*
X814700D01*
X834700Y5327900D01*
X907200Y5255400D02*
X899700Y5262900D01*
Y5272900D01*
X984700Y5072900D02*
X922100D01*
X867100Y5127900D01*
X834700D01*
X1113450Y887900D02*
X1349700D01*
X1430950Y806650D01*
Y706650D01*
X1183300Y1724900D02*
X1066700D01*
X1029700Y1687900D01*
Y1537900D01*
X1150730Y1416870D01*
X1153300D01*
X1312270Y1257900D01*
X1619700D01*
X1684950Y1192650D01*
Y1135550D01*
X1039700Y2894900D02*
X1183300D01*
X1183300Y3284900D02*
X1032700D01*
X1029700Y3287900D01*
X999700Y3219900D02*
X1183300D01*
X1183300Y3349900D02*
X1059700D01*
X929340Y3657900D02*
X947020Y3675580D01*
X929340Y3657900D02*
X947020Y3640220D01*
X1000060Y3657900D02*
X982380Y3640220D01*
X1000060Y3657900D02*
X982380Y3675580D01*
X1000060Y3657900D02*
X964700D01*
X929340D01*
X1183300Y3544900D02*
X1060100D01*
X1025000Y3580000D01*
Y3632960D01*
X1000060Y3657900D01*
X1873200Y3681900D02*
Y3824400D01*
X1722210Y3975390D01*
X1702880D01*
X1661700Y4016570D01*
X1661690D01*
X1632860Y4045400D01*
X1549600D01*
X1429700Y4165300D01*
Y4297410D01*
X1409210Y4317900D01*
X1377100D01*
X1195000Y4500000D01*
X1108100D01*
X934700Y4673400D01*
Y4827900D01*
X1938200Y3681900D02*
X1934700Y3685400D01*
Y3829400D01*
X1753710Y4010390D01*
X1717380D01*
X1676200Y4051570D01*
X1676190D01*
X1667860Y4059900D01*
Y4059910D01*
X1647370Y4080400D01*
X1564600D01*
X1464700Y4180300D01*
Y4311910D01*
X1423710Y4352900D01*
X1392100D01*
X1152120Y4592880D01*
X1111720D01*
X1111710Y4592890D01*
X1064710D01*
X985000Y4672600D01*
Y4855000D01*
X934700Y4905300D01*
Y4927900D01*
X2068200Y3681900D02*
Y3769400D01*
X2004710Y3832890D01*
X1980710D01*
X1768210Y4045390D01*
X1731890D01*
X1642200Y4135080D01*
Y4233410D01*
X1247720Y4627890D01*
X1098860D01*
X1027750Y4699000D01*
X1034700Y5027900D02*
X985000Y4978200D01*
Y4910000D01*
X1016000Y4879000D01*
X1052750D01*
X1087750Y4844000D01*
Y4749000D01*
X1139100Y4697650D01*
X1159100D01*
X2133200Y3681900D02*
Y3782900D01*
X2048210Y3867890D01*
X1995210D01*
X1782700Y4080400D01*
X1746380D01*
X1684700Y4142080D01*
Y4240410D01*
X1262220Y4662890D01*
X1128860D01*
X1034700Y4757050D01*
Y4827900D01*
X1134700Y4827900D02*
Y4767900D01*
X2198200Y3681900D02*
Y3787900D01*
X2083200Y3902900D01*
X2009700D01*
X1797200Y4115400D01*
X1760880D01*
X1719700Y4156580D01*
Y4254910D01*
X1179700Y4794910D01*
Y4857050D01*
X1153850Y4882900D01*
X1103850D01*
X1058850Y4927900D01*
X1034700D01*
X1189540Y4978080D02*
X1189700Y4978240D01*
Y4980300D01*
X1142100Y5027900D01*
X1134700D01*
X1101350Y4965400D02*
X1079700D01*
X1101350Y4965400D02*
X1134700Y4932050D01*
Y4927900D01*
X1135550Y4927050D01*
X1159700D01*
X1208850Y4877900D01*
X1244700D01*
X1252200Y4870400D01*
X1252310D01*
X1277200Y4845510D01*
Y4743400D01*
X1722700Y4297900D01*
X1777100D01*
X1889700Y4185300D01*
Y4077900D01*
X1079700Y4972900D02*
X1093850D01*
X1101350Y4965400D01*
X1034700Y5227900D02*
X1084700Y5277900D01*
X1134700Y5227900D02*
X1194700Y5167900D01*
X1134700Y5327900D02*
X1084700Y5377900D01*
X1084700Y5177900D02*
X1134700Y5127900D01*
X907200Y5255400D02*
Y5272900D01*
X934700Y5227900D02*
X907200Y5255400D01*
X1084700Y5082900D02*
X1079700D01*
X1034700Y5127900D01*
X984700Y5277900D02*
X934700Y5327900D01*
X1034700Y5527900D02*
Y5727900D01*
X1134700Y5527900D02*
Y5727900D01*
X989700Y5557900D02*
Y5472900D01*
X1034700Y5427900D01*
X1430950Y576750D02*
Y706650D01*
X1430950Y1135550D02*
Y1079150D01*
X1329700Y977900D01*
X1239700D01*
X1183300Y1659900D02*
Y1456700D01*
X1340000Y1300000D01*
X1752600D01*
X1811950Y1240650D01*
Y1135550D01*
X1183300Y3219900D02*
X1392700D01*
X1439700Y3172900D01*
Y2167900D01*
X1414700Y2142900D01*
X1183300Y2439900D02*
X1307700D01*
X1326690Y2439890D01*
X1329700Y2442900D01*
X1183300Y2504900D02*
X1334700D01*
X1342190Y3024900D02*
Y3022900D01*
X1183300Y3414900D02*
X1309700D01*
X1289700Y4507900D02*
X1318210D01*
X1499700Y4326410D01*
Y4257900D01*
X1584700Y4172900D01*
X2263200Y3821400D02*
X2209450Y3875150D01*
X2186380D01*
X2132200Y3929330D01*
Y4145000D01*
X2059700Y4217500D01*
Y4217900D01*
X1915940Y4361660D01*
X1713440D01*
X1334700Y4740400D01*
Y4827900D01*
X1434700Y4827900D02*
Y4740300D01*
X1529600Y4645400D01*
X1646700Y4477900D02*
X1389700Y4734900D01*
Y4872900D01*
X1334700Y4927900D01*
X1234700Y4927900D02*
X1255000D01*
X1284700Y4898200D01*
Y4897900D01*
X1334700Y5027900D02*
X1384700Y4977900D01*
X1534700Y4697900D02*
X1484700Y4747900D01*
Y4877900D01*
X1434700Y4927900D01*
X2089700Y4542900D02*
X2065000Y4567600D01*
Y4788100D01*
X1878100Y4975000D01*
X1487600D01*
X1434700Y5027900D01*
X1234700Y5027900D02*
X1239700D01*
X1294700Y4972900D01*
X1334700Y5327900D02*
X1384700Y5277900D01*
X1184700Y5282900D02*
Y5277900D01*
X1234700Y5227900D01*
X1284700Y5377900D02*
X1234700Y5327900D01*
X1384700Y5177900D02*
X1334700Y5227900D01*
X1379700Y5082900D02*
X1334700Y5127900D01*
X1234700Y5127900D02*
X1284700Y5177900D01*
X1489700Y5277900D02*
X1484700D01*
X1434700Y5327900D01*
X1384700Y5472900D02*
X1339700Y5427900D01*
X1334700D01*
X1234700Y5527900D02*
Y5597900D01*
X1334700Y5527900D02*
Y5607900D01*
X1234700Y5427900D02*
X1279700Y5472900D01*
Y5619700D01*
X1310000Y5650000D01*
X1500000D01*
X1577200Y5572800D01*
Y5401600D01*
X2165000Y4813800D01*
Y4357570D01*
X2204700Y4317870D01*
Y4217900D01*
X2309700Y4112900D01*
X2384700D01*
X2472700Y4024900D01*
Y3862400D01*
X2458200Y3847900D01*
Y3681900D01*
X2119700Y4607900D02*
Y4803010D01*
X1544810Y5377900D01*
X1484700D01*
X1434700Y5427900D01*
X1484700Y6932540D02*
Y6912900D01*
X1367100Y6795300D01*
X1329700D01*
X1875000Y7740000D02*
X1874700Y7740300D01*
Y7892900D01*
X1814700Y7952900D01*
X1612900D01*
X1560000Y7900000D01*
X1390000D01*
X1339700Y7849700D01*
X1314700Y7824700D01*
Y7822900D01*
X1339700Y7849700D02*
X1314700Y7847900D01*
X1339700Y7849700D02*
Y7822900D01*
X1649540Y430000D02*
X1667270Y447730D01*
X1649540Y430000D02*
X1667270Y412370D01*
X1649540Y430000D02*
X1600000D01*
X1557950Y472050D01*
Y576750D01*
X1684950Y465410D02*
X1702630Y447730D01*
X1684950Y465410D02*
X1667270Y447730D01*
X1684950Y465410D02*
Y430050D01*
X1684900Y430000D01*
X1649540D01*
X1684950Y576750D02*
Y465410D01*
X1557950Y1135550D02*
Y977050D01*
X1635000Y900000D01*
X1965000D01*
X2050000Y815000D01*
Y720360D01*
X1684950Y1135550D02*
Y1008150D01*
X1678200Y1522900D02*
Y1706400D01*
X1703130Y1731330D01*
Y2587900D01*
X1676700Y1386400D02*
Y1521400D01*
X1678200Y1522900D01*
X1613200Y1522900D02*
Y1706400D01*
X1662750Y1755950D01*
Y2623790D01*
X1611700Y1376400D02*
X1613200Y1377900D01*
Y1522900D01*
X1548200Y1522900D02*
Y1706400D01*
X1617750Y1775950D01*
Y2665400D01*
X1548200Y1392900D02*
Y1522900D01*
X1484700Y1852900D02*
X1542200Y1910400D01*
Y1999160D01*
X1483200Y2058160D01*
Y3681900D01*
X1678200Y3681900D02*
Y3104450D01*
X1569700Y2995950D01*
Y2287900D01*
X1613200Y3681900D02*
Y3109450D01*
X1534700Y3030950D01*
Y2742900D01*
X1548200Y3681900D02*
X1549700Y3680400D01*
Y3147900D01*
X1483200Y3681900D02*
Y3814400D01*
X1613200Y3816400D02*
Y3681900D01*
X1678200Y3821400D02*
Y3681900D01*
X1529600Y4645400D02*
X1549700D01*
X1529600Y4645400D02*
X1537100Y4637900D01*
X1549700D01*
X1614700Y5412900D02*
X2210000Y4817600D01*
Y4355000D01*
X2510000Y4055000D01*
Y3847600D01*
X2523200Y3834400D01*
Y3681900D01*
X1475850Y5091750D02*
X1483350Y5084440D01*
X1475850Y5091750D02*
Y5076940D01*
X1475850Y5091750D02*
X1439700Y5127900D01*
X1434700D01*
X1483350Y5076940D02*
X1484700D01*
Y5082900D01*
X1475850Y5091750D01*
X1484700Y5187900D02*
X1482100D01*
X1442100Y5227900D01*
X1434700D01*
X1534700Y5327900D02*
X1584700Y5277900D01*
X1614700Y5472900D02*
X2204700Y4882900D01*
Y4880300D01*
X2245000Y4840000D01*
Y4370000D01*
X2548200Y4066800D01*
Y3881800D01*
X2588200Y3841800D01*
Y3681900D01*
X1484700Y6932540D02*
X1467020Y6950220D01*
X1484700Y6932540D02*
X1502380Y6950220D01*
X1484700Y6967900D02*
Y6932540D01*
X1484700Y7003260D02*
X1502380Y6985580D01*
X1484700Y7003260D02*
X1467020Y6985580D01*
X1484700Y7003260D02*
Y7262900D01*
X1494700Y7272900D01*
Y7332900D01*
X1484700Y6967900D02*
Y7003260D01*
X1810000Y1010000D02*
X1811950Y1008050D01*
Y1135550D01*
X1743200Y1522900D02*
Y1644400D01*
X1784700Y1685900D01*
Y2277050D01*
X1742750Y2319000D01*
Y2869000D01*
X1741700Y1391400D02*
Y1521400D01*
X1743200Y1522900D01*
X1970940Y2035950D02*
Y2037190D01*
X2156000Y2222250D01*
Y3055750D01*
X2133200Y3078550D01*
Y3681900D01*
X1777900Y2462900D02*
Y2468960D01*
X1777750Y2469110D01*
Y2859000D01*
X2068200Y3149450D01*
Y3681900D01*
X1808200Y3549400D02*
Y3681900D01*
X1873200Y3544400D02*
Y3681900D01*
X1938200Y3546400D02*
Y3681900D01*
X2524700Y5654200D02*
X2465500Y5595000D01*
X2232600D01*
X2164700Y5662900D01*
X1994700D01*
X1934700Y5602900D01*
Y5597900D01*
X1907200Y7301400D02*
X2025000Y7419200D01*
Y7740000D01*
X1825000Y7740000D02*
Y7877900D01*
X2050000Y720360D02*
X2067680Y702680D01*
X2050000Y720360D02*
X2032320Y702680D01*
X2050000Y720360D02*
Y685000D01*
X2758100Y1659900D02*
Y1438100D01*
X2565000Y1245000D01*
X2160000D01*
X2075000Y1160000D01*
Y1135000D01*
X2075000Y1160000D02*
X2050000D01*
X2050000Y1135000D02*
X2075000Y1160000D01*
X2198200Y1522900D02*
Y1621970D01*
X2177270Y1642900D01*
X2165820D01*
X2067650Y1741070D01*
Y1753860D01*
X2067640Y1753870D01*
Y1778710D01*
X2067650Y1778720D01*
Y1828850D01*
X2067660Y1828860D01*
Y1933910D01*
X2222750Y2089000D01*
Y2854000D01*
X2201700Y1376400D02*
Y1519400D01*
X2198200Y1522900D01*
X2588200Y3681900D02*
Y3579450D01*
X2432750Y3424000D01*
Y1904000D01*
X2296650Y1767900D01*
X2224700D01*
X2327750Y2804000D02*
Y2009000D01*
X2157660Y1838910D01*
Y1786140D01*
X2210900Y1732900D01*
X2279690D01*
X2329700Y1682900D01*
X2393200Y1619400D01*
Y1522900D01*
X2292750Y2754000D02*
Y2029000D01*
X2127660Y1863910D01*
Y1804000D01*
X2127650Y1803990D01*
Y1779150D01*
X2127660Y1779140D01*
Y1766650D01*
X2145220Y1749090D01*
X2145230D01*
X2190920Y1703400D01*
X2197970D01*
X2198470Y1702900D01*
X2244590D01*
X2294600Y1652900D01*
X2328200Y1619300D01*
Y1522900D01*
X2307750Y3007900D02*
Y2874000D01*
X2292750Y2859000D01*
Y2814000D01*
X2257750Y2779000D01*
Y2059000D01*
X2097660Y1898910D01*
Y1816430D01*
X2097650Y1816420D01*
Y1766290D01*
X2097660Y1766280D01*
Y1753490D01*
X2178250Y1672900D01*
X2209700D01*
X2263200Y1619400D01*
Y1522900D01*
X2458200Y3681900D02*
X2454700Y3678400D01*
Y3557100D01*
X2362750Y3465150D01*
Y1965950D01*
X2234700Y1837900D01*
X2523200Y3681900D02*
X2524700Y3680400D01*
Y3570950D01*
X2397750Y3444000D01*
Y1924000D01*
X2277150Y1803400D01*
X2194630D01*
X2192160Y1805870D01*
X2147750Y2069000D02*
X2187200Y2108450D01*
Y2338470D01*
X2187750Y2339020D01*
Y3066430D01*
X2187200Y3066980D01*
Y3546730D01*
X2198200Y3557730D01*
Y3681900D01*
X2003200Y3681900D02*
X2004700Y3680400D01*
Y3522900D01*
X1979700Y4022900D02*
X1994700Y4007900D01*
Y4007150D01*
X2034200Y3967650D01*
X2269710Y4022900D02*
X2269700D01*
X2224700Y3977900D01*
Y3967650D01*
X2393200Y3681900D02*
Y3896900D01*
X2352200Y3937900D01*
Y4015400D01*
X2119700Y4247900D01*
Y4317900D01*
X2174700Y5277900D02*
X2199700D01*
X2262200Y5340400D01*
X2464900D01*
X2524700Y5400200D01*
X2397700Y5273200D02*
X2332520Y5208020D01*
X2253050D01*
X2251370Y5209700D01*
X2169700D01*
X2004700Y5532900D02*
X2007100D01*
X2075000Y5465000D01*
X2462500D01*
X2524700Y5527200D01*
X2026780Y5607900D02*
X2107480Y5527200D01*
X2397700D01*
X2397700Y5400200D02*
X2385400Y5387900D01*
X2244700D01*
X2204700Y5347900D01*
X2397700Y6416200D02*
X2034650D01*
X1980700Y6470150D01*
X1980700Y6660650D02*
X2161650Y6479700D01*
X2430300D01*
X2493800Y6416200D01*
X2524700D01*
X1980700Y6851150D02*
X2226850Y6605000D01*
X2410150D01*
X2465000Y6550150D01*
Y6515000D01*
X2500300Y6479700D01*
X2588200D01*
X2651700Y6416200D01*
X1980700Y7041650D02*
X2065950D01*
X2097700Y7301400D02*
X2104700Y7308400D01*
Y7388200D01*
X2075000Y7417900D01*
Y7740000D01*
Y7907600D01*
X2074700Y7907900D01*
X2175000Y7740000D02*
Y7627600D01*
X2288200Y7514400D01*
Y7301400D01*
X2179700Y8122900D02*
Y7965000D01*
X2175000Y7960300D01*
Y7740000D01*
X2125000Y7603200D02*
Y7740000D01*
X2125000Y7603200D02*
Y7559850D01*
X2192950Y7491900D01*
X2025000Y7740000D02*
Y7887600D01*
X2004700Y7907900D01*
X2393200Y1522900D02*
X2391700Y1521400D01*
Y1402900D01*
X2328200Y1522900D02*
X2326700Y1521400D01*
Y1402900D01*
X2263200Y1522900D02*
X2266700Y1519400D01*
Y1407900D01*
X2758100Y2049900D02*
X2511850D01*
X2470450Y2091300D01*
Y3385260D01*
X2758100Y1919900D02*
X2531850D01*
X2472750Y1979000D01*
X2758100Y1854900D02*
X2642700D01*
X2613600Y1884000D01*
X2502750D01*
X2473850Y1912900D01*
X2472750D01*
X2263200Y3681900D02*
Y3821400D01*
X3679700Y2642900D02*
X3653300D01*
X3620200Y2676000D01*
Y2723290D01*
X3622200Y2725290D01*
Y2767800D01*
X3595000Y2795000D01*
X3192100D01*
X3124200Y2862900D01*
X3095200D01*
X3074700Y2883400D01*
Y2911700D01*
X3082750Y2919750D01*
Y3457250D01*
X2664700Y3875300D01*
Y4005300D01*
X2345200Y4324800D01*
Y4458400D01*
X2397700Y4510900D01*
Y4511200D01*
X2397700Y4384200D02*
Y4322300D01*
X2699700Y4020300D01*
Y3900300D01*
X3137750Y3462250D01*
Y3305850D01*
X3350700Y3092900D01*
X3429700D01*
X3479700Y3042900D01*
X2524700Y4511200D02*
X2472200Y4458700D01*
Y4302800D01*
X2734700Y4040300D01*
Y3915300D01*
X3180000Y3470000D01*
Y3320170D01*
X3357270Y3142900D01*
X3379700D01*
X2449390Y4638200D02*
X2459400Y4648200D01*
X2449390Y4638200D02*
X2459400Y4637600D01*
X2449390Y4638200D02*
X2397700D01*
X2464700Y4642900D02*
X2460000Y4638200D01*
X2449390D01*
X2524700Y4638200D02*
Y4632900D01*
X2469700Y4577900D01*
X2397700Y4765200D02*
X2324700D01*
X2459700Y4702900D02*
X2462400D01*
X2524700Y4765200D01*
X2397700Y4892200D02*
X2334200Y4828700D01*
X2397700Y5019200D02*
X2334200Y4955700D01*
X2524700Y5019200D02*
X2461200Y4955700D01*
X2524700Y5273200D02*
X2461200Y5209700D01*
X2397700Y5146200D02*
X2334200Y5082700D01*
X2397700Y5654200D02*
X2334200Y5717700D01*
X2524700Y5781200D02*
X2461200Y5844700D01*
X2397700Y5781200D02*
X2334200Y5844700D01*
X2490000Y5945000D02*
X2460000D01*
X2490000Y5945000D02*
X2485000Y5970000D01*
X2490000Y5945000D02*
X2524700Y5910300D01*
Y5908200D01*
X2460000Y5970000D02*
X2465000D01*
Y5975000D01*
X2470000Y5970000D01*
Y5965000D01*
X2490000Y5945000D01*
X2485500Y6250000D02*
X2485000Y6225000D01*
X2485500Y6250000D02*
X2460000D01*
X2485500Y6250000D02*
X2524700Y6289200D01*
X2460000Y6225000D02*
X2465000Y6230000D01*
X2465500D01*
X2485500Y6250000D01*
X2360000Y6250000D02*
Y6225000D01*
X2360000Y6250000D02*
X2335000D01*
X2360000Y6250000D02*
X2335000Y6225000D01*
X2397700Y6289200D02*
Y6287700D01*
X2360000Y6250000D01*
X2397700Y6670200D02*
X2334200Y6733700D01*
X2524700Y6543200D02*
X2461200Y6606700D01*
X2399700Y6882900D02*
X2397700Y6880900D01*
Y6797200D01*
X2524700Y6670200D02*
X2461200Y6733700D01*
X2375000Y7740000D02*
Y7859680D01*
X2373530D01*
X2275000Y7740000D02*
Y7597900D01*
X2475000Y7740000D02*
Y7865000D01*
X2485000Y7875000D01*
Y8007600D01*
X2409700Y8082900D01*
X2600000Y1010000D02*
X2599700Y1009700D01*
Y783510D01*
X2610000Y773200D01*
X2599700Y783510D02*
X2599400Y773200D01*
X2604700Y767900D02*
X2599700Y772900D01*
Y783510D01*
X2700000Y883810D02*
X2684400Y868200D01*
X2700000Y883810D02*
Y873200D01*
X2689700Y862900D01*
X2700000Y1010000D02*
Y883810D01*
X2758100Y1724900D02*
X2626700D01*
X2758100Y2439900D02*
X2623650D01*
X2512750Y2329000D01*
Y2129000D01*
X2758100Y2114900D02*
X2632600D01*
X2611700Y2094000D01*
X2758100Y1984900D02*
X2869700D01*
X2899700Y1954900D01*
Y1917900D01*
X2758100Y2374900D02*
X2636700D01*
X2758100Y2309900D02*
X2652200D01*
X2630170Y2331930D01*
X2611120D01*
X2758100Y2244900D02*
X2667700D01*
X2629700Y2282900D01*
X2758100Y2179900D02*
X2568650D01*
X2567750Y2179000D01*
X2758100Y2504900D02*
X2626700D01*
X2758100Y2894900D02*
X2896700D01*
X2758100Y2764900D02*
X2901700D01*
X2758100Y2699900D02*
X2551850D01*
X2507750Y2744000D01*
Y3284000D01*
X2758100Y2829900D02*
X2602700D01*
X2584700Y2847900D01*
Y2907900D01*
X2758100Y3024900D02*
X2588650D01*
X2547750Y2984000D01*
Y2804000D01*
X2758100Y3154900D02*
X2641700D01*
X2758100Y3089900D02*
X2754150Y3085950D01*
X2557750D01*
X2758100Y2959900D02*
X2634700D01*
X2758100Y3349900D02*
X2891700D01*
X2758100Y3479900D02*
X2896700D01*
X2758100Y3544900D02*
X2761100Y3547900D01*
X2927100D01*
X3047750Y3427250D01*
Y2934250D01*
X3009700Y2896200D01*
Y2590000D01*
X2569700Y3497900D02*
X2616700Y3544900D01*
X2758100D01*
X2796200Y3967650D02*
Y4041400D01*
X2524700Y4312900D01*
Y4384200D01*
X3379700Y3242900D02*
X3323850D01*
X3220000Y3346750D01*
Y3510000D01*
X3095910Y3634090D01*
X3095890D01*
X2917750Y3812350D01*
Y3902640D01*
X2882750Y3937640D01*
Y4044850D01*
X2589700Y4337900D01*
Y4449200D01*
X2651700Y4511200D01*
X2651700Y4384200D02*
X2853000Y4182900D01*
X3133850D01*
X3204700Y4112050D01*
Y3972050D01*
X3429700Y3747050D01*
Y3492900D01*
X3479700Y3442900D01*
X3479700Y3542900D02*
Y3747900D01*
X3365000Y3862600D01*
Y4007100D01*
X3146410Y4225690D01*
X2862960D01*
X2726200Y4362450D01*
Y4458700D01*
X2778700Y4511200D01*
X2564700Y4697900D02*
X2584700D01*
X2651700Y4764900D01*
Y4765200D01*
X2651700Y4638200D02*
X2596400Y4582900D01*
X2594700D01*
X2717040Y4991710D02*
X2679180D01*
X2651700Y5019200D01*
X2685740Y4816120D02*
X2651700Y4850160D01*
Y4892200D01*
X2524700Y4892200D02*
X2527200D01*
X2582900Y4947900D01*
X2584700D01*
X2651700Y5400200D02*
X2588200Y5336700D01*
X2651700Y5273200D02*
X2588200Y5209700D01*
X2778700Y5273200D02*
X2715200Y5209700D01*
X2524700Y5146200D02*
X2579700Y5091200D01*
Y5087900D01*
X2651700Y5146200D02*
X2653800D01*
X2707100Y5092900D01*
X2709700D01*
X2651700Y5527200D02*
X2588200Y5463700D01*
X2778700Y5527200D02*
X2715200Y5463700D01*
X2651700Y5654200D02*
X2588200Y5717700D01*
X2778700Y5781200D02*
X2715200Y5844700D01*
X2651700Y5781200D02*
X2588200Y5844700D01*
X2611630Y5948370D02*
X2586630D01*
X2611630Y5948370D02*
Y5973370D01*
X2611630Y5948370D02*
X2651700Y5908300D01*
Y5908200D01*
X2586630Y5973370D02*
X2611630Y5948370D01*
X2651700Y6289200D02*
X2588200Y6352700D01*
X2778700Y6543200D02*
X2715000Y6606890D01*
Y6681150D01*
X2661150Y6735000D01*
X2639650D01*
X2584700Y6789950D01*
Y6922290D01*
X2651700Y6670200D02*
X2589000Y6732900D01*
X2559700D01*
X2651700Y6543200D02*
X2588200Y6606700D01*
X2584700Y6922290D02*
Y6932900D01*
X2589700Y6937900D01*
X2584700Y6922290D02*
X2595000Y6932600D01*
X2584700Y6922290D02*
X2584400Y6932600D01*
X2905700Y6543200D02*
X2840000Y6608890D01*
Y6683150D01*
X2778450Y6744700D01*
X2756950D01*
X2726200Y6775450D01*
Y6937900D01*
X2524700Y6797200D02*
Y6872900D01*
X2651700Y6797200D02*
Y6867900D01*
X2778700Y6670200D02*
X2715200Y6733700D01*
X2925000Y7740000D02*
Y7443200D01*
X2869700Y7387900D01*
X2739700D01*
X2575000Y7740000D02*
Y7572900D01*
X2625000Y7740000D02*
Y7993200D01*
X2644700Y8012900D01*
X2675000Y7740000D02*
Y7882900D01*
X2725000Y7740000D02*
Y7942900D01*
X2525000Y7740000D02*
Y7967000D01*
X2565900Y8007900D01*
X2900000Y1010000D02*
Y812300D01*
X2959700Y752600D01*
X2800000Y1010000D02*
Y897600D01*
X2839700Y857900D01*
X3000000Y878200D02*
Y860100D01*
X3000000Y878200D02*
Y1010000D01*
X2994700Y857900D02*
Y872900D01*
X3000000Y878200D01*
X3009700Y2590000D02*
Y1580300D01*
X3069700Y1520300D01*
Y1299900D01*
X3094700Y1274900D01*
Y1257900D01*
X3029700Y1492900D02*
Y1495300D01*
X2974700Y1550300D01*
Y3116900D01*
X3005700Y3147900D01*
X3009700D01*
X3479700Y2642900D02*
X3469700Y2632900D01*
X3466650D01*
X3423750Y2590000D01*
X3009700D01*
X2924700Y4077900D02*
X2969700Y4032900D01*
Y3971950D01*
X2974000Y3967650D01*
X2778700Y4384200D02*
Y4378160D01*
X2891170Y4265690D01*
X3186400D01*
X3399700Y4052390D01*
Y3907870D01*
X3400000Y3907570D01*
Y3887600D01*
X3529700Y3757900D01*
Y3492900D01*
X3579700Y3442900D01*
X2964700Y4473600D02*
X2943300D01*
X2905700Y4511200D01*
X2969700Y4342900D02*
X2991400D01*
X3032700Y4384200D01*
X3032700Y4511200D02*
X3086200Y4457700D01*
X3089900D01*
X3094700Y4452900D01*
X2905700Y4317900D02*
Y4384200D01*
X3089700Y4682900D02*
X3045000Y4638200D01*
X3032700D01*
X2905700Y4638200D02*
X2906800D01*
X2954700Y4590300D01*
Y4587900D01*
X2852750Y4572900D02*
X2852100D01*
X2786800Y4638200D01*
X2778700D01*
X2778700Y5019200D02*
X2829700Y4968200D01*
X2899700Y6938900D02*
X2845000Y6884200D01*
Y6730900D01*
X2905700Y6670200D01*
X3032700Y6543200D02*
X2969200Y6606700D01*
X3032700Y6670200D02*
X2994700Y6708200D01*
Y6732900D01*
X2904700Y6867900D02*
Y6798200D01*
X2905700Y6797200D01*
X3140000Y7010000D02*
X3032700Y6902700D01*
Y6797200D01*
X2779700Y6867900D02*
X2778700Y6866900D01*
Y6797200D01*
X2875000Y7740000D02*
Y7947900D01*
X3025000Y7740000D02*
Y7867900D01*
X2975000Y7740000D02*
Y7922900D01*
X2825000Y7740000D02*
Y7618200D01*
X2775000Y7740000D02*
Y7608930D01*
X2856030Y7527900D01*
X2859700D01*
X2984700Y7997900D02*
X3067500Y7915100D01*
X3625000Y7740000D02*
Y7833200D01*
X3639700Y7847900D01*
Y7967900D01*
X3529710Y8077890D01*
Y8077910D01*
X3529700Y8077900D01*
X3264700Y8342900D01*
X2934700D01*
X2869700Y8277900D01*
X3200000Y1010000D02*
Y773200D01*
X3100000Y1010000D02*
Y887600D01*
X3129700Y857900D01*
X3104700Y1457900D02*
Y1545300D01*
X3044700Y1605300D01*
Y2482900D01*
X3094700Y2532900D01*
X3174700Y1427900D02*
Y1565520D01*
X3210250Y1601070D01*
Y1689420D01*
X3185000Y1714710D01*
Y1925000D01*
X3274700Y2014700D01*
Y2031700D01*
X3328400Y2085400D01*
X3382310D01*
X3422200Y2125290D01*
Y2170400D01*
X3444700Y2192900D01*
X3479700Y2142900D02*
Y2110950D01*
X3427750Y2059000D01*
Y1925950D01*
X3310000Y1808200D01*
Y1722800D01*
X3294700Y1707500D01*
Y1572900D01*
X3303310Y1434400D02*
X3291500Y1422600D01*
X3303310Y1434400D02*
X3292700D01*
X3286200Y1427900D01*
X3244700Y2152900D02*
X3209700D01*
X3124700Y2067900D01*
Y1652950D01*
X3152750Y1624900D01*
X3159700Y1992900D02*
X3202900D01*
X3239700Y2029700D01*
Y2046900D01*
X3335700Y2142900D01*
X3379700D01*
X3204700Y2047900D02*
Y2062400D01*
X3335200Y2192900D01*
X3389810D01*
X3439810Y2242900D01*
X3479700D01*
X3169700Y2342900D02*
X3379700D01*
X3079700Y2237900D02*
X3099700D01*
X3162200Y2300400D01*
X3437200D01*
X3479700Y2342900D01*
X3244700Y2152900D02*
X3334700Y2242900D01*
X3379700D01*
X3104700Y2647900D02*
X3259700D01*
X3304700Y2692900D01*
X3429700D01*
X3479700Y2742900D01*
X3099700Y2447900D02*
X3194700Y2542900D01*
X3379700D01*
X3119400Y2818200D02*
X3104700D01*
X3119400Y2818200D02*
X3112200Y2825700D01*
X3119400Y2818200D02*
X3194700Y2742900D01*
X3379700D01*
X3104700Y2825700D02*
Y2827900D01*
X3109700D01*
X3119400Y2818200D01*
X3109700Y2897900D02*
X3152100D01*
X3207100Y2842900D01*
X3379700D01*
X3189700Y3137900D02*
Y3037900D01*
X3284700Y2942900D01*
X3379700D01*
X3244700Y3122900D02*
Y3122050D01*
X3323850Y3042900D01*
X3379700D01*
X3126400Y3967650D02*
Y4071200D01*
X3250000Y4065000D02*
Y4020000D01*
X3300800Y3969200D01*
X3310000D01*
X3308450Y3967650D01*
X3304200D01*
X3159700Y4511200D02*
X3161400D01*
X3219700Y4452900D01*
X3335350Y4437900D02*
Y4432850D01*
X3286700Y4384200D01*
X3286700Y4511200D02*
X3300000Y4497900D01*
X3354700D01*
X3159700Y4384200D02*
X3186000Y4357900D01*
X3229700D01*
X3219700Y4607900D02*
X3190000D01*
X3159700Y4638200D01*
X3224700Y4682900D02*
Y4702900D01*
X3286700Y4764900D01*
Y4765200D01*
X3354700Y4567900D02*
Y4570200D01*
X3286700Y4638200D01*
X3286700Y6416200D02*
X3335000Y6367900D01*
X3334700D01*
X3209700Y6487900D02*
Y6518950D01*
X3212200Y6521450D01*
Y6564950D01*
X3159700Y6617450D01*
Y6670200D01*
X3159700Y6543200D02*
X3119700Y6583200D01*
Y6607900D01*
X3286700Y6543200D02*
X3223200Y6606700D01*
X3159700Y6797200D02*
X3096200Y6860700D01*
X3325000Y7740000D02*
Y7535000D01*
X3267200Y7477200D01*
Y7182800D01*
X3612200Y6837800D01*
Y6725700D01*
X3667700Y6670200D01*
X3125000Y7740000D02*
Y7872600D01*
X3075000Y7892900D02*
Y7740000D01*
X3225000Y7740000D02*
Y7613200D01*
X3175000Y7740000D02*
Y7867900D01*
X3067500Y7915100D02*
Y7892900D01*
X3067500Y7915100D02*
X3075000Y7907600D01*
Y7892900D01*
X3575000Y7740000D02*
Y7828200D01*
X3604700Y7857900D01*
Y7942900D01*
X3419700Y8127900D01*
X3384700D01*
X3234700Y8277900D01*
X3525000Y7740000D02*
Y7820390D01*
X3522490Y7822900D01*
X3569700Y7870110D01*
Y7922150D01*
X3408950Y8082900D01*
X3249700D01*
X3054700Y8277900D01*
X3679700Y2042900D02*
Y1955950D01*
X3644700Y1920950D01*
Y1907400D01*
X3644690Y1907390D01*
Y1878410D01*
X3644700Y1878400D01*
Y1878390D01*
X3654700Y1868390D01*
Y1384700D01*
X3492470Y1222470D01*
X3489700D01*
X3492240Y1219930D01*
X3604700Y1997900D02*
Y1996400D01*
X3574700Y1966400D01*
Y1936400D01*
X3574690Y1936390D01*
Y1849410D01*
X3574700Y1849400D01*
Y1849390D01*
X3584700Y1839390D01*
Y1703400D01*
X3564200Y1682900D01*
X3535030D01*
X3489410Y1637280D01*
Y1608100D01*
X3449700Y1568390D01*
Y1332900D01*
X3464700Y1317900D01*
X3479150Y1265400D02*
X3459700D01*
X3479150Y1265400D02*
X3619700Y1405950D01*
Y1853890D01*
X3609700Y1863890D01*
Y1863900D01*
X3609690Y1863910D01*
Y1921890D01*
X3609700Y1921900D01*
Y1935950D01*
X3642750Y1969000D01*
Y2019740D01*
X3632750Y2029740D01*
Y2066440D01*
X3679700Y2113390D01*
Y2142900D01*
X3459700Y1257900D02*
X3471650D01*
X3479150Y1265400D01*
X3355850Y1434400D02*
X3303310D01*
X3558650Y1434400D02*
X3521200D01*
X3484700Y1397900D01*
X3429700Y1622900D02*
X3357550D01*
X3355550Y1624900D01*
X3479700Y2042900D02*
X3462750Y2025950D01*
Y1885950D01*
X3433380Y1856580D01*
Y1681580D01*
X3429700Y1677900D01*
X3579700Y2042900D02*
Y2022900D01*
X3532750Y1975950D01*
Y1841850D01*
X3539700Y1834900D01*
Y1834890D01*
X3549700Y1824890D01*
Y1717900D01*
X3479700Y1702900D02*
Y1802900D01*
X3497750Y1820950D01*
Y1994000D01*
X3529700Y2025950D01*
Y2092900D01*
X3579700Y2142900D01*
X3379700Y2042900D02*
X3359700Y2022900D01*
X3314700D01*
X3462810Y2200400D02*
X3450000Y2187600D01*
X3462810Y2200400D02*
X3452200D01*
X3444700Y2192900D01*
X3579700Y2342900D02*
X3572200Y2335400D01*
Y2315900D01*
X3529700Y2273400D01*
Y2232790D01*
X3497310Y2200400D01*
X3462810D01*
X3504700Y2297900D02*
X3524700Y2317900D01*
Y2385400D01*
X3579700Y2440400D01*
Y2442900D01*
X3579700Y2242900D02*
Y2222900D01*
X3524700Y2167900D01*
X3335310Y2642900D02*
X3325000Y2632600D01*
X3335310Y2642900D02*
X3325000Y2643200D01*
X3335310Y2642900D02*
X3379700D01*
X3319700Y2637900D02*
X3324700Y2642900D01*
X3335310D01*
X3497750Y2595400D02*
X3529150D01*
X3576650Y2642900D01*
X3579700D01*
X3354700Y2492900D02*
X3429700D01*
X3479700Y2542900D01*
X3579700Y2542900D02*
X3529700Y2492900D01*
X3579700Y2842900D02*
X3529700Y2892900D01*
X3579700Y2742900D02*
X3529700Y2692900D01*
X3429700Y2962900D02*
X3459700D01*
X3479700Y2942900D01*
X3579700Y2942900D02*
X3529700Y2992900D01*
X3579700Y3142900D02*
X3529700Y3192900D01*
X3579700Y3042900D02*
X3526700Y3095900D01*
Y3096210D01*
X3528460D01*
X3579700Y3242900D02*
X3529700Y3292900D01*
X3579700Y3342900D02*
X3529700Y3392900D01*
X3479700Y3342900D02*
X3429700Y3392900D01*
X3379700Y3442900D02*
X3329700Y3492900D01*
X3379700Y3342900D02*
X3329700Y3392900D01*
X3479700Y3242900D02*
X3429700Y3292900D01*
X3413700Y4511200D02*
Y4458450D01*
X3361200Y4405950D01*
Y4176400D01*
X3429700Y4107900D01*
Y3920300D01*
X3579700Y3770300D01*
Y3542900D01*
X3679700Y3542900D02*
X3677100D01*
X3629700Y3590300D01*
Y3827900D01*
X3579700Y3877900D01*
Y4037900D01*
X3492200Y4125400D01*
Y4310400D01*
X3418400Y4384200D01*
X3413700D01*
X3779700Y3542900D02*
Y3610300D01*
X3709700Y3680300D01*
Y3797900D01*
X3624700Y3882900D01*
Y4197900D01*
X3540700Y4281900D01*
Y4384200D01*
X3585200Y4555700D02*
X3540700Y4511200D01*
X3494700Y4677900D02*
X3534400Y4638200D01*
X3540700D01*
X3439700Y4572900D02*
Y4612200D01*
X3413700Y4638200D01*
X3413700Y5527200D02*
X3461300Y5479600D01*
X3366100Y5574800D02*
X3413700Y5527200D01*
X3461300Y5574800D01*
X3366100Y5479600D02*
X3413700Y5527200D01*
X3540700Y5527200D02*
X3588300Y5479600D01*
X3493100Y5574800D02*
X3540700Y5527200D01*
X3588300Y5574800D01*
X3493100Y5479600D02*
X3540700Y5527200D01*
X3413700Y5400200D02*
X3461300Y5352600D01*
X3366100Y5447800D02*
X3413700Y5400200D01*
X3461300Y5447800D01*
X3366100Y5352600D02*
X3413700Y5400200D01*
X3540700Y5400200D02*
X3588300Y5352600D01*
X3493100Y5447800D02*
X3540700Y5400200D01*
X3588300Y5447800D01*
X3493100Y5352600D02*
X3540700Y5400200D01*
X3413700Y5654200D02*
X3461300Y5606600D01*
X3366100Y5606600D02*
X3413700Y5654200D01*
X3493100Y5606600D02*
X3540700Y5654200D01*
X3413700Y5781200D02*
X3461300Y5733600D01*
X3366100Y5828800D02*
X3413700Y5781200D01*
X3461300Y5828800D01*
X3366100Y5733600D02*
X3413700Y5781200D01*
X3540700Y5781200D02*
X3588300Y5733600D01*
X3493100Y5828800D02*
X3540700Y5781200D01*
X3588300Y5828800D01*
X3493100Y5733600D02*
X3540700Y5781200D01*
X3366100Y5701800D02*
X3413700Y5654200D01*
X3461300Y5701800D01*
X3540700Y5654200D02*
X3588300Y5606600D01*
X3493100Y5701800D02*
X3540700Y5654200D01*
X3588300Y5701800D01*
X3413700Y6670200D02*
X3350200Y6733700D01*
X3413700Y6543200D02*
X3350200Y6606700D01*
X3364700Y6472900D02*
Y6465200D01*
X3372200Y6457700D01*
X3413700Y6416200D01*
X3372200Y6457700D02*
Y6472900D01*
X3540700Y6797200D02*
X3477200Y6860700D01*
X3375000Y7740000D02*
Y7505000D01*
X3390000Y7490000D01*
Y7140000D01*
X3667700Y6862300D01*
Y6797200D01*
X3675000Y7740000D02*
Y8020000D01*
X3417100Y8277900D01*
X3414700D01*
X3779700Y2042900D02*
Y1735890D01*
X3691200Y1647390D01*
Y1332450D01*
X3629700Y1270950D01*
Y930950D01*
X3602750Y904000D01*
Y704850D01*
X3624700Y682900D01*
X3824700Y1602900D02*
Y1607900D01*
X3814450Y1618150D01*
X3748700D01*
X3879700Y2142900D02*
Y2102900D01*
X3862200Y2085400D01*
X3862090D01*
X3837200Y2060510D01*
Y2060400D01*
X3829700Y2052900D01*
Y1830300D01*
X3875000Y1785000D01*
Y1540000D01*
X3925000Y1490000D01*
X4200000D01*
X4247400Y1442600D01*
X4247670D01*
X4270540Y1420660D01*
X4270550Y1420650D01*
X4367750D01*
X4385500Y1402900D01*
X4386200D01*
X4436200Y1352900D01*
X5924700D01*
X6074700Y1502900D01*
X3604700Y2087900D02*
X3627750Y2110950D01*
Y2192750D01*
X3677900Y2242900D01*
X3679700D01*
X3822200Y2116010D02*
X3809400Y2103200D01*
X3822200Y2116010D02*
Y2105400D01*
X3814700Y2097900D01*
X3879700Y2442900D02*
X3830000Y2393200D01*
Y2233090D01*
X3814700Y2217790D01*
Y2173390D01*
X3822200Y2165890D01*
Y2116010D01*
X3629700Y2362900D02*
Y2392900D01*
X3679700Y2442900D01*
X3779700Y2342900D02*
X3729700Y2292900D01*
X3679700Y2342900D02*
X3679950D01*
X3728790Y2391740D01*
Y2391990D01*
X3779700Y2442900D01*
X3779700Y2642900D02*
X3729700Y2592900D01*
X3779700Y2542900D02*
X3729700Y2492900D01*
X3679700Y2542900D02*
X3629700Y2492900D01*
X3879700Y2742900D02*
X3829700Y2692900D01*
X3779700Y2842900D02*
X3729700Y2892900D01*
X3879700Y2842900D02*
X3829700Y2892900D01*
X3679700Y2842900D02*
X3629700Y2892900D01*
X3654700Y2697900D02*
X3679700Y2722900D01*
Y2742900D01*
X3779700Y2742900D02*
X3754700D01*
X3724700Y2772900D01*
X3679700Y2942900D02*
X3629700Y2992900D01*
X3679700Y3142900D02*
X3629700Y3192900D01*
X3679700Y3042900D02*
X3629700Y3092900D01*
X3779700Y3042900D02*
X3729700Y3092900D01*
X3679700Y3242900D02*
X3729700Y3192900D01*
X3779700Y3142900D02*
X3729700Y3192900D01*
X3879700Y3242900D02*
X3829700Y3292900D01*
X3879700Y3342900D02*
X3834700Y3387900D01*
X3779700Y3242900D02*
X3729700Y3292900D01*
X3679700Y3342900D02*
X3629700Y3392900D01*
X3635000Y3485000D02*
X3637600D01*
X3679700Y3442900D01*
X3879700Y3442900D02*
X3829700Y3492900D01*
X3667700Y4638200D02*
Y4592700D01*
X3610000Y4535000D01*
Y4297600D01*
X3689700Y4217900D01*
Y4102900D01*
X3754700Y4037900D01*
Y3772900D01*
X3924700Y3602900D01*
Y3402900D01*
X3979700Y3347900D01*
Y3342900D01*
X3797070Y3653050D02*
X3797310Y3652810D01*
Y3652690D01*
X3879700Y3570300D01*
Y3542900D01*
X3979700Y3542900D02*
Y3692900D01*
X3789700Y3882900D01*
Y4177900D01*
X3667700Y4299900D01*
Y4384200D01*
X3667700Y4511200D02*
Y4509900D01*
X3729700Y4447900D01*
Y4317900D01*
X3839700Y4207900D01*
Y4117900D01*
X3949700Y4007900D01*
Y3822900D01*
X4037190Y3735410D01*
Y3500390D01*
X3979700Y3442900D01*
X4079700Y3442900D02*
X4132200Y3495400D01*
Y4050400D01*
X4084700Y4097900D01*
X3999700D01*
X3923470Y4174130D01*
Y4276530D01*
X3859690Y4340310D01*
Y4446210D01*
X3794700Y4511200D01*
X4079700Y3542900D02*
X4089690Y3552890D01*
Y3857910D01*
X4008700Y3938900D01*
Y4023900D01*
X3879700Y4152900D01*
Y4241070D01*
X3794700Y4326070D01*
Y4384200D01*
X3592700Y4577900D02*
Y4563200D01*
X3585200Y4555700D01*
Y4577900D01*
X3719700Y4702900D02*
X3667700Y4754900D01*
Y4765200D01*
X3794700Y4638200D02*
Y4637900D01*
X3734700Y4577900D01*
X3667700Y5527200D02*
X3715300Y5479600D01*
X3620100Y5574800D02*
X3667700Y5527200D01*
X3715300Y5574800D01*
X3620100Y5479600D02*
X3667700Y5527200D01*
X3794700Y5527200D02*
X3842300Y5479600D01*
X3747100Y5574800D02*
X3794700Y5527200D01*
X3842300Y5574800D01*
X3747100Y5479600D02*
X3794700Y5527200D01*
X3667700Y5400200D02*
X3715300Y5352600D01*
X3620100Y5447800D02*
X3667700Y5400200D01*
X3715300Y5447800D01*
X3620100Y5352600D02*
X3667700Y5400200D01*
X3794700Y5400200D02*
X3842300Y5352600D01*
X3747100Y5447800D02*
X3794700Y5400200D01*
X3842300Y5447800D01*
X3747100Y5352600D02*
X3794700Y5400200D01*
X3667700Y5654200D02*
X3715300Y5606600D01*
X3620100Y5606600D02*
X3667700Y5654200D01*
X3747100Y5606600D02*
X3794700Y5654200D01*
X3667700Y5781200D02*
X3715300Y5733600D01*
X3620100Y5828800D02*
X3667700Y5781200D01*
X3715300Y5828800D01*
X3620100Y5733600D02*
X3667700Y5781200D01*
X3794700Y5781200D02*
X3842300Y5733600D01*
X3747100Y5828800D02*
X3794700Y5781200D01*
X3842300Y5828800D01*
X3747100Y5733600D02*
X3794700Y5781200D01*
X3620100Y5701800D02*
X3667700Y5654200D01*
X3715300Y5701800D01*
X3794700Y5654200D02*
X3842300Y5606600D01*
X3747100Y5701800D02*
X3794700Y5654200D01*
X3842300Y5701800D01*
X3704700Y6867900D02*
X3737200Y6835400D01*
Y6330400D01*
X3792600Y6275000D01*
X4157600D01*
X4289700Y6142900D01*
Y4872900D01*
X4365000Y4797600D01*
Y4740000D01*
X4349700Y4724700D01*
Y4667900D01*
X4374700Y4642900D01*
Y4597900D01*
X4408900Y4563700D01*
X4451450D01*
X4503950Y4511200D01*
X4556700D01*
X3667700Y6543200D02*
X3699700Y6575200D01*
Y6607900D01*
X3794700Y6670200D02*
X3834700Y6710200D01*
Y6732900D01*
X3834700Y6477900D02*
Y6456200D01*
X3794700Y6416200D01*
X3789700Y6867900D02*
X3826800D01*
X3869200Y6825500D01*
Y6358400D01*
X3909690Y6317910D01*
X4177090D01*
X4330000Y6165000D01*
Y4895000D01*
X4395000Y4830000D01*
X4439150D01*
X4495000Y4774150D01*
Y4625650D01*
X4550650Y4570000D01*
X4572150D01*
X4620000Y4522150D01*
Y4485000D01*
X4683700Y4421300D01*
Y4384200D01*
X3818550Y7333150D02*
X3843300Y7357900D01*
X3914340D01*
X3725000Y7740000D02*
Y8155000D01*
X3602100Y8277900D01*
X3599700D01*
X3825000Y7740000D02*
Y8033200D01*
X3959700Y8167900D01*
Y8277900D01*
X3854700Y7467900D02*
Y7538200D01*
X3825000Y7567900D01*
Y7740000D01*
X3775000Y7740000D02*
Y7583200D01*
X3779700Y8277900D02*
X3775000Y8273200D01*
Y7740000D01*
X3979700Y2142900D02*
X3929700Y2092900D01*
Y1627650D01*
X3939200Y1618150D01*
X4014700Y1662900D02*
X4047600Y1630000D01*
X4110270D01*
X4284620Y1455650D01*
X4396100D01*
X4463850Y1387900D01*
X5891650D01*
X6009700Y1505950D01*
Y1507900D01*
X3979700Y2042900D02*
Y1827900D01*
X4014700Y1792900D01*
Y1662900D01*
X4114700Y1692900D02*
Y1875700D01*
X4144700Y1905700D01*
Y1967900D01*
X4079700Y2032900D01*
Y2042900D01*
X4034700Y2117900D02*
Y2297900D01*
X4079700Y2342900D01*
X3874700Y1927900D02*
Y2037900D01*
X3879700Y2042900D01*
X4099700Y1932900D02*
X4037200Y1995400D01*
Y2060510D01*
X4062090Y2085400D01*
X4062200D01*
X4079700Y2102900D01*
Y2142900D01*
X3925990Y2163200D02*
Y2189190D01*
X3979700Y2242900D01*
X4124700Y2197900D02*
X4079700Y2242900D01*
X3924700Y2307900D02*
X3944700D01*
X3979700Y2342900D01*
X4079700Y2442900D02*
X4029700Y2392900D01*
X3849700Y2187900D02*
X3879700Y2217900D01*
Y2242900D01*
X3879700Y2342900D02*
X3924700Y2387900D01*
X3979700Y2442900D02*
X3927430Y2495170D01*
X3979700Y3142900D02*
X3984700D01*
X4029700Y3187900D01*
X3879700Y3142900D02*
X3884700D01*
X3929700Y3187900D01*
X4079700Y3142900D02*
X4129700Y3192900D01*
X4129700Y3292900D02*
X4079700Y3242900D01*
X4122700Y3392900D02*
X4079700Y3349900D01*
Y3342900D01*
X4279700Y3442900D02*
Y3482900D01*
X4297200Y3500400D01*
X4297310D01*
X4322200Y3525290D01*
Y3525400D01*
X4337200Y3540400D01*
Y3805820D01*
X4209740Y3933290D01*
X4180150Y3962880D01*
Y4082450D01*
X4114700Y4147900D01*
X4044700D01*
X3996200Y4196400D01*
Y4436700D01*
X3921700Y4511200D01*
X4649700Y3967900D02*
X4637700Y3994900D01*
X4525560Y4107040D01*
X4296060D01*
X4205200Y4197900D01*
X4124700D01*
X4034700Y4287900D01*
X3921700Y4384200D02*
Y4420900D01*
X3894700Y4447900D01*
X4048700Y4384200D02*
X4112200Y4320700D01*
X4048700Y4511200D02*
X4112200Y4447700D01*
X3921700Y4638200D02*
X3920000D01*
X3859700Y4577900D01*
X4048700Y4638200D02*
X4115000Y4571900D01*
Y4497650D01*
X4167650Y4445000D01*
X4189150D01*
X4240000Y4394150D01*
Y4351700D01*
X4260000Y4331700D01*
X4348300D01*
X4462100Y4217900D01*
X4569200D01*
X4624200Y4162900D01*
X4699700D01*
X4048700Y4765200D02*
X4049800D01*
X4115000Y4700000D01*
X4210000D01*
X4245000Y4665000D01*
Y4621650D01*
X4291650Y4575000D01*
X4335200D01*
X4355200Y4555000D01*
Y4508200D01*
X4401200Y4462200D01*
Y4433200D01*
X4377200Y4409200D01*
Y4359650D01*
X4438950Y4297900D01*
X4504700D01*
X3984700Y6382900D02*
X3955000D01*
X3921700Y6416200D01*
X4048700Y6670200D02*
X4112200Y6733700D01*
Y7010400D01*
X3949700Y7172900D01*
Y7322540D01*
X3921700Y6670200D02*
X3985200Y6733700D01*
X4048700Y6797200D02*
Y6931300D01*
X3969700Y7010300D01*
Y7012900D01*
X3921700Y6797200D02*
Y6840900D01*
X3889700Y6872900D01*
X3949700Y7322540D02*
X3932020Y7340220D01*
X3949700Y7322540D02*
X3967380Y7340220D01*
X3949700Y7322540D02*
Y7337880D01*
X3959710Y7347890D01*
X3914340Y7357900D02*
X3932020Y7375580D01*
X3914340Y7357900D02*
X3932020Y7340220D01*
X3914340Y7357900D02*
X3949700D01*
X3875000Y7740000D02*
X3874700Y7739700D01*
Y7572900D01*
X4024700Y7422900D01*
Y7237900D01*
X4009700Y7222900D01*
X4139700Y8277900D02*
X4097900D01*
X4010000Y8190000D01*
Y8153900D01*
X3875000Y8018900D01*
Y7740000D01*
X4509700Y1457900D02*
X4508850D01*
X4441100Y1525650D01*
X4316100D01*
X4160190Y1681560D01*
Y1871690D01*
X4179700Y1891200D01*
Y1982790D01*
X4137200Y2025290D01*
Y2160510D01*
X4162090Y2185400D01*
X4222200D01*
X4279700Y2242900D01*
X4114700Y1692900D02*
Y1675300D01*
X4269370Y1520630D01*
Y1520400D01*
X4299120Y1490650D01*
X4416100D01*
X4483850Y1422900D01*
X5871650D01*
X6006650Y1557900D01*
X6059700D01*
X6590000Y1820000D02*
Y1668200D01*
X6514700Y1592900D01*
X6140000D01*
X6105000Y1627900D01*
X5964700D01*
X5860800Y1524000D01*
X4516650D01*
X4480000Y1560650D01*
X4328120D01*
X4298370Y1590400D01*
X4296350D01*
X4195190Y1691560D01*
Y1847830D01*
X4179700Y2142900D02*
X4230190Y2092410D01*
Y1722410D01*
X4259700Y1692900D01*
X5094950D01*
X5133850Y1654000D01*
X5202750D01*
X5267700Y1589050D01*
X5735850D01*
X5779700Y1632900D01*
X4349700Y1767900D02*
X4299700Y1817900D01*
Y1950950D01*
X4332750Y1984000D01*
Y2089850D01*
X4279700Y2142900D01*
X6430000Y1820000D02*
Y1718400D01*
X6401600Y1690000D01*
X6205000D01*
X6159600Y1735400D01*
X5268450D01*
X5200950Y1802900D01*
X4738850D01*
X4681350Y1860400D01*
X4497200D01*
X4404700Y1767900D01*
X4349700D01*
X6470000Y1820000D02*
Y1688200D01*
X6441800Y1660000D01*
X6185170D01*
X6157270Y1687900D01*
X5746600D01*
X5677750Y1619050D01*
X5342700D01*
X5288550Y1673200D01*
X5288210D01*
X5188510Y1772900D01*
X4718850D01*
X4661350Y1830400D01*
X4534150D01*
X4436650Y1732900D01*
X4309700D01*
X4264700Y1777900D01*
Y1984000D01*
X4279700Y1999000D01*
Y2042900D01*
X4351950Y1618150D02*
X4419450D01*
X4334700Y1912900D02*
X4339700Y1917900D01*
Y1922900D01*
X4379700Y1962900D01*
Y2042900D01*
X4379700Y2242900D02*
X4329700Y2192900D01*
Y2188060D01*
X4329520D01*
X4129700Y2292900D02*
X4179700Y2242900D01*
X4179700Y2442900D02*
X4229700Y2392900D01*
X4279700Y2342900D02*
X4329700Y2292900D01*
X4179700Y2542900D02*
X4229700Y2492900D01*
X4279700Y2542900D02*
X4229700Y2592900D01*
X4379700Y2742900D02*
Y2745300D01*
X4332100Y2792900D01*
X4229700D01*
X4379700Y2842900D02*
X4324700Y2897900D01*
X4279700Y3142900D02*
X4329700Y3192900D01*
X4179700Y3042900D02*
X4129700Y3092900D01*
X4179700Y3142900D02*
X4229700Y3192900D01*
X4179700Y3342900D02*
X4224700Y3387900D01*
X4279700Y3342900D02*
X4329700Y3392900D01*
Y3477900D01*
X4179700Y3242900D02*
X4229700Y3292900D01*
X4279700Y3242900D02*
X4329700Y3292900D01*
X4828200Y3967650D02*
Y3974400D01*
X4759700Y4042900D01*
X4639200D01*
X4540060Y4142040D01*
X4310560D01*
X4189700Y4262900D01*
Y4297900D01*
X5018700Y3967650D02*
X4913450Y4072900D01*
X4664700D01*
X4554700Y4182900D01*
X4437100D01*
X4334230Y4285770D01*
X4332290D01*
X4302700Y4511200D02*
X4366200Y4447700D01*
X4175700Y4511200D02*
X4239200Y4447700D01*
X4175700Y4638200D02*
X4239200Y4574700D01*
X4199700Y6352900D02*
X4184700Y6367900D01*
Y6407900D01*
X4176400Y6416200D01*
X4175700D01*
X4175700Y6670200D02*
Y6670700D01*
X4240000Y6735000D01*
Y6938200D01*
X4372200Y7070400D01*
X4742200D01*
X4829700Y7157900D01*
Y7236400D01*
X4828200Y7237900D01*
X4175700Y6797200D02*
Y6938900D01*
X4320200Y7083400D01*
Y7237900D01*
X4498000D01*
X7030000Y1820000D02*
Y1673200D01*
X6914700Y1557900D01*
X6127100D01*
X6092100Y1592900D01*
X5986650D01*
X5851650Y1457900D01*
X4509700D01*
X4542450Y1618150D02*
X4485060D01*
X4474450D01*
X4469700Y1622900D01*
X4485060Y1618150D02*
X4475000Y1628200D01*
X4485060Y1618150D02*
X4475000Y1617600D01*
X4471420Y1893170D02*
Y1934620D01*
X4479700Y1942900D01*
Y2042900D01*
X4379700Y2142900D02*
X4429700Y2092900D01*
X4845300Y1866240D02*
X4765510D01*
X4629700Y2002050D01*
Y2062050D01*
X4587200Y2104550D01*
Y2135400D01*
X4579700Y2142900D01*
X4634700Y2187900D02*
X4637200Y2185400D01*
Y2125290D01*
X4668490Y2094000D01*
X4717750D01*
X4732750Y2079000D01*
Y2019000D01*
X4753850Y1997900D01*
X5299700D01*
X5304700Y2002900D01*
X4679700Y2242900D02*
X4674700D01*
X4624700Y2292900D01*
X4379700Y2442900D02*
X4429700Y2392900D01*
X4379700Y2342900D02*
X4429700Y2292900D01*
X4479700Y2342900D02*
X4529700Y2292900D01*
X4519700Y2402900D02*
X4479700Y2442900D01*
X4579700Y2342900D02*
X4519700Y2402900D01*
X4634700Y2182900D02*
Y2187900D01*
X4579700Y2242900D02*
X4634700Y2187900D01*
X4479700Y2542900D02*
X4529700Y2492900D01*
X4479700Y2642900D02*
X4529700Y2592900D01*
X4649700Y2492900D02*
X4599700Y2542900D01*
X4579700D01*
X4579700Y2642900D02*
X4629700Y2592900D01*
X4629700Y2422900D02*
X4609700Y2442900D01*
X4579700D01*
X4579700Y2942900D02*
X4629700Y2992900D01*
X4679700Y2842900D02*
X4630000Y2793200D01*
Y2790000D01*
X4479700Y2942900D02*
X4475160D01*
X4427430Y2990630D01*
X4579700Y2742900D02*
X4629700Y2692900D01*
X4579700Y2842900D02*
X4629700Y2892900D01*
X5299700Y2862900D02*
X5127100D01*
X5097100Y2892900D01*
X4629700D01*
X4479700Y2842900D02*
X4531970Y2790630D01*
X4479700Y2742900D02*
X4429700Y2792900D01*
X4479700Y3042900D02*
X4529700Y3092900D01*
X4579700Y3042900D02*
X4629700Y3092900D01*
X4379700Y3142900D02*
X4429700Y3192900D01*
X4679700Y3142900D02*
X4677100D01*
X4630000Y3190000D01*
X4479700Y3142900D02*
X4529700Y3192900D01*
X4579700Y3242900D02*
X4529700Y3192900D01*
X4579700Y3342900D02*
X4629700Y3392900D01*
X4379700Y3242900D02*
X4429700Y3292900D01*
X4379700Y3342900D02*
X4429700Y3392900D01*
X4579700Y3442900D02*
X4629700Y3492900D01*
X4479700Y3242900D02*
X4529700Y3292900D01*
X4479700Y3342900D02*
X4529700Y3392900D01*
X4479700Y3542900D02*
Y3612900D01*
X4579700Y3542900D02*
Y3689870D01*
X4591080Y3701250D01*
X4591670D01*
X4409700Y3622900D02*
Y3572900D01*
X4379700Y3542900D01*
X4864700Y4167900D02*
X4787100D01*
X4742090Y4212910D01*
X4647090D01*
X4475800Y4384200D01*
X4429700D01*
X4429700Y4511200D02*
X4493200Y4447700D01*
X4586500D01*
X4625000Y4409200D01*
Y4367600D01*
X4706910Y4285690D01*
X4924700D01*
X4931910Y4292900D01*
X4979700D01*
X5134700Y4137900D01*
X5029700Y4162900D02*
X4942100D01*
X4855000Y4250000D01*
X4690900D01*
X4556700Y4384200D01*
X4429700Y4638200D02*
X4493200Y4574700D01*
X4556700Y4638200D02*
X4620200Y4574700D01*
X4384700Y4707900D02*
X4419700Y4742900D01*
X4429700D01*
Y4765200D01*
X4490700Y4831100D02*
X4485600Y4836200D01*
Y4836300D01*
X4429700Y4892200D01*
X4490700Y5339100D02*
Y5339200D01*
X4429700Y5400200D01*
X4490700Y5085100D02*
X4485600Y5090200D01*
Y5090300D01*
X4429700Y5146200D01*
X4490700Y5593100D02*
X4485600Y5598200D01*
Y5598300D01*
X4429700Y5654200D01*
X4429700Y5908200D02*
Y5908100D01*
X4495800Y5842000D01*
X4495800Y6096000D02*
X4485600Y6106200D01*
Y6106300D01*
X4440340Y6151560D01*
X4488960Y6096650D01*
X4440340Y6151560D02*
X4495170Y6102870D01*
X4495800Y6223000D02*
X4485600Y6233200D01*
Y6233300D01*
X4440340Y6278560D01*
X4429700Y6289200D01*
X4440340Y6278560D02*
X4488960Y6223650D01*
X4440340Y6278560D02*
X4495170Y6229870D01*
X4495800Y6350000D02*
X4485600Y6360200D01*
Y6360300D01*
X4440340Y6405560D01*
X4429700Y6416200D01*
X4440340Y6405560D02*
X4488960Y6350650D01*
X4440340Y6405560D02*
X4495170Y6356870D01*
X4440340Y6151560D02*
X4429700Y6162200D01*
X4499450Y7465300D02*
Y7575400D01*
X4604550D01*
X4394350Y7575400D02*
X4499450D01*
Y7685500D01*
X4501500Y8115150D02*
X4499400Y8113050D01*
Y7829450D01*
X4499450Y7829400D01*
X4732950Y1618150D02*
X4654450D01*
X4923450Y1618150D02*
X4849950D01*
X4845300Y1866240D02*
X4846360D01*
X4879700Y1832900D01*
X5213380D01*
X5280880Y1765400D01*
X6197200D01*
X6229700Y1732900D01*
X4779700Y2142900D02*
X4829700Y2092900D01*
X4724700Y2190630D02*
X4679700Y2145630D01*
Y2142900D01*
X4679700Y2042900D02*
Y2012050D01*
X4757750Y1934000D01*
X4918600D01*
X4989700Y1862900D01*
X5260750D01*
X5300750Y1822900D01*
X5304700D01*
X4879700Y2142900D02*
X4949700D01*
X5098590Y2342900D02*
X4879700D01*
X5184700Y2380900D02*
Y2330950D01*
X5146650Y2292900D01*
X4829700D01*
X4779700Y2342900D01*
X5209090Y2192900D02*
X4829700D01*
X4779700Y2242900D01*
X5144700Y2242900D02*
X4879700D01*
X4752370Y2302160D02*
X4720440D01*
X4679700Y2342900D01*
X4679700Y2442900D02*
X4734690Y2387900D01*
X4819700D01*
X4779700Y2442900D02*
X4818850D01*
X4868850Y2392900D01*
X4959700D01*
X5134700Y2492740D02*
X5004700D01*
X5004540Y2492900D01*
X4829700D01*
X4779700Y2542900D01*
X5164700Y2642900D02*
X4879700D01*
X4679700Y2542900D02*
X4714700D01*
X4729700Y2527900D01*
X5114700Y2592900D02*
X5094700Y2612900D01*
X4957900D01*
X4935000Y2590000D01*
X4832600D01*
X4779700Y2642900D01*
X5074090Y2442900D02*
X4879700D01*
X4679700Y2642900D02*
X4729700Y2592900D01*
X4969700Y2572900D02*
X4949700Y2552900D01*
X4889700D01*
X4879700Y2542900D01*
X4779700Y2942900D02*
X4829700Y2992900D01*
X4679700Y2942900D02*
X4729700Y2992900D01*
X4929640Y2835000D02*
X4905280D01*
X4897380Y2842900D01*
X4879700D01*
X4679700Y2742900D02*
X4729700Y2692900D01*
X4879700Y2742900D02*
X5044700D01*
X5304700Y2777900D02*
X4927100D01*
X4912100Y2792900D01*
X4829700D01*
X4779700Y2842900D01*
X4779700Y3042900D02*
X4829700Y3092900D01*
X4779700Y3242900D02*
Y3239700D01*
X4731560Y3191560D01*
X4879700Y2942900D02*
X4959700D01*
X4679700Y3042900D02*
X4729700Y3092900D01*
X4879700Y3142900D02*
X4939090D01*
X4879700Y3042900D02*
X4914700D01*
X4924700Y3052900D01*
X4969700D01*
X4879700Y3442900D02*
X4939090D01*
X4679700Y3442900D02*
X4729700Y3492900D01*
X4779700Y3342900D02*
X4829700Y3392900D01*
X4879700Y3242900D02*
X4954700D01*
X4779700Y3442900D02*
X4829700Y3492900D01*
X4879700Y3342900D02*
X5095000D01*
X4645000Y3305000D02*
X4679700Y3339700D01*
Y3342900D01*
X4679700Y3242900D02*
X4726800Y3290000D01*
X5140000D01*
X5160000Y3270000D01*
X5400000D01*
X5460000Y3330000D01*
X4779700Y3542900D02*
Y3695000D01*
X4729700Y3492900D02*
Y3725000D01*
X4779700Y3775000D01*
X5160000D01*
X5222100Y3712900D01*
X5309700D01*
X4679700Y3542900D02*
Y3612900D01*
X4829700Y3492900D02*
X4912900D01*
X4947900Y3527900D01*
X5309700D01*
X4810700Y4384200D02*
X4874200Y4320700D01*
X4683700Y4511200D02*
X4747200Y4447700D01*
X4683700Y4638200D02*
X4747200Y4574700D01*
X4741950Y5068900D02*
X4692250Y5019200D01*
X4683700D01*
X4810700Y5400200D02*
X4879700D01*
X4719450Y7575400D02*
X4711050Y7567000D01*
Y7566050D01*
X4660000Y7515000D01*
Y7484130D01*
X4660020Y7484110D01*
X4660000Y7484090D01*
Y7484050D01*
X4659800Y7483850D01*
Y7369430D01*
X4660000Y7369230D01*
Y7247500D01*
X4650400Y7237900D01*
X4719450Y7829400D02*
Y8015950D01*
X4705000Y8030400D01*
X4674600D01*
X4653900Y8051100D01*
Y8115150D01*
X4754850D01*
X4848300Y8021700D01*
X4939700D01*
X5155000Y1010000D02*
Y683200D01*
X5005000Y1010000D02*
Y1123200D01*
X5015620Y1133820D01*
X5055000D01*
X5105000Y1010000D02*
Y1122600D01*
X5093780Y1133820D01*
X5055000D01*
X5005000Y853200D02*
Y1010000D01*
X5055000Y1010000D02*
Y1133820D01*
X5082200Y1618150D02*
X5014450D01*
X5098590Y2342900D02*
X5109400Y2353700D01*
X5114700Y2348400D02*
X5109200Y2342900D01*
X5098590D01*
X5074090Y2442900D02*
X5089400Y2458200D01*
X5094700Y2452900D02*
X5084700Y2442900D01*
X5074090D01*
X4929640Y2835000D02*
X4947320Y2852680D01*
X4929640Y2835000D02*
X4947320Y2817320D01*
X4965000Y2835000D02*
X4929640D01*
X4939090Y3142900D02*
X4949400Y3153200D01*
X4939090Y3142900D02*
X4949400Y3142600D01*
X4939090Y3142900D02*
X4949700D01*
X4954700Y3147900D01*
X4939090Y3442900D02*
X4949700D01*
X4959700Y3452900D01*
X4939090Y3442900D02*
X4954400Y3458200D01*
X5191250Y5158750D02*
X5186100Y5163900D01*
X5111950D01*
X5191250Y5517750D02*
X5118100D01*
X4939700Y7884100D02*
Y8021700D01*
X5255000Y1010000D02*
Y737600D01*
X5349700Y642900D01*
X5355000Y1010000D02*
Y832600D01*
X5509700Y677900D01*
X6510000Y1820000D02*
Y1667900D01*
X6467100Y1625000D01*
X6157900D01*
X6125000Y1657900D01*
X5945200D01*
X5846350Y1559050D01*
X5222700D01*
X5179700Y1602050D01*
Y1602900D01*
X5384700Y1822900D02*
X5304700D01*
X5374700Y1997900D02*
Y2119400D01*
X5304450Y2189650D01*
X5430000Y2220000D02*
X5435000D01*
X5436400Y2221400D01*
X5533700D01*
X5209090Y2192900D02*
X5219400Y2193200D01*
X5209090Y2192900D02*
X5219400Y2182600D01*
X5224700Y2187900D02*
X5219700Y2192900D01*
X5209090D01*
X5204700Y2562900D02*
Y2480300D01*
X5304450Y2380550D01*
Y2380150D01*
X5533700Y2475400D02*
X5534600D01*
X5452050Y2557950D01*
X5304450D01*
X5304700Y2777900D02*
Y2710600D01*
X5304450Y2710350D01*
X5310000Y3450000D02*
Y3415000D01*
X5309700Y3414700D01*
Y3342900D01*
X5361600Y7636050D02*
Y7841150D01*
X5491700D01*
X5231500Y7841150D02*
X5361600D01*
Y8046250D01*
X5605000Y1010000D02*
Y747600D01*
X5674700Y677900D01*
X5555000Y1010000D02*
Y843200D01*
X5655000Y1010000D02*
Y907600D01*
X5669700Y892900D01*
X5708200Y1880400D02*
X5700700Y1872900D01*
X5694700D01*
X5708200Y1880400D02*
X5694700D01*
X5708200Y1880400D02*
X5702200Y1872900D01*
X5755000Y1010000D02*
Y747600D01*
X5829700Y672900D01*
X5955000Y1010000D02*
Y712600D01*
X5989700Y677900D01*
X5805000Y1010000D02*
Y862600D01*
X5829700Y837900D01*
X5767320Y1889220D02*
Y1867900D01*
X5767320Y1889220D02*
X5760800Y1882700D01*
X5760000D01*
X5759820Y1882520D01*
Y1867900D01*
X6270000Y2380000D02*
X6005480D01*
X5934700Y2309220D01*
Y1928040D01*
X5866660Y1860000D01*
X5851800D01*
X5834700Y1842900D01*
X6270000Y2260000D02*
X6048130D01*
X6018530Y2230400D01*
X6017200D01*
X5964700Y2177900D01*
Y2055330D01*
X5964710Y2055320D01*
Y2030480D01*
X5964700Y2030470D01*
Y1915610D01*
X5930700Y1881610D01*
Y1829780D01*
X5753700Y2221400D02*
X5729700Y2197400D01*
Y2077900D01*
X6270000Y2420000D02*
X5991800D01*
X5904700Y2332900D01*
Y1940470D01*
X5856130Y1891900D01*
X5770000D01*
X5767320Y1889220D01*
X6054700Y3312900D02*
X5939700Y3197900D01*
Y2467900D01*
X5874700Y2402900D01*
Y1952900D01*
X5843700Y1921900D01*
X5749700D01*
X5708200Y1880400D01*
X5879700Y2532900D02*
Y3031700D01*
X6055000Y1010000D02*
Y777600D01*
X6144700Y687900D01*
X6205000Y1010000D02*
Y782600D01*
X6304700Y682900D01*
X6005000Y842900D02*
Y1010000D01*
X6155000Y1010000D02*
Y848200D01*
X6270000Y2220000D02*
X6050560D01*
X6030960Y2200400D01*
X6029630D01*
X5994700Y2165470D01*
Y2067760D01*
X5994710Y2067750D01*
Y2018050D01*
X5994700Y2018040D01*
Y1903180D01*
X5984700Y1893180D01*
Y1848050D01*
X5985880Y1838620D01*
X5984700Y1848050D02*
X5975280Y1838620D01*
X5980580Y1833320D02*
X5975120D01*
X5984700Y1842900D01*
Y1848050D01*
X6270000Y2100000D02*
X6101800D01*
X6072300Y2070500D01*
Y1920300D01*
X6129700Y1862900D01*
X6270000Y2460000D02*
X6272100Y2457900D01*
X6363920D01*
X6465000Y2356820D01*
Y2010300D01*
X6374700Y1920000D01*
X6346800D01*
X6229700Y1802900D01*
X6044700D01*
X6270000Y2180000D02*
X6109680D01*
X6097580Y2167900D01*
X6096880Y2168600D01*
X6029700Y2101420D01*
Y2037900D01*
X6270000Y2140000D02*
X6137600D01*
X6270000Y2060000D02*
X6141800D01*
X6270000Y2020000D02*
X6106800D01*
X6270000Y2300000D02*
X6132600D01*
X6094700Y2337900D01*
X6059700D01*
X6270000Y2620000D02*
X6132600D01*
X6270000Y2580000D02*
X6089700D01*
X6270000Y2540000D02*
X6131800D01*
X6117600Y2860000D02*
X6270000D01*
X6270000Y2740000D02*
X6121800D01*
X6270000Y3060000D02*
X6132600D01*
X6109700Y3082900D01*
Y3117290D01*
X6099400Y3127600D01*
X6109700Y3117290D02*
X6110000Y3127600D01*
X6104700Y3132900D02*
X6109700Y3127900D01*
Y3117290D01*
X6270000Y3180000D02*
X6151800D01*
X6104700Y3132900D01*
X6355000Y1010000D02*
Y920000D01*
X6454700Y820300D01*
Y682900D01*
X6296900Y847880D02*
Y848100D01*
X6255000Y890000D01*
Y1010000D01*
X6405000Y1010000D02*
Y1118200D01*
X6429700Y1142900D01*
X6454700D01*
X6455000Y1010000D02*
Y909700D01*
X6525000Y839700D01*
Y805000D01*
X6610000Y720000D01*
X6270000Y1980000D02*
X6374020D01*
X6419700Y2025680D01*
Y2042900D01*
X6270000Y2500000D02*
X6390320D01*
X6504700Y2385620D01*
Y1977900D01*
X6270000Y2340000D02*
X6397600D01*
X6424700Y2312900D01*
Y2272900D01*
X6270000Y2660000D02*
X6407600D01*
X6470000Y3380000D02*
Y2482600D01*
X6539700Y2412900D01*
Y2033510D01*
X6270000Y2940000D02*
X6272900Y2942900D01*
X6399700D01*
X6419700Y2962900D01*
Y2992900D01*
X6394700Y3017900D01*
Y3022900D01*
X6270000Y2860000D02*
X6387600D01*
X6409700Y2837900D01*
Y2717900D01*
X6394700Y2702900D01*
X6272900D01*
X6270000Y2700000D01*
X6270000Y3140000D02*
X6387600D01*
X6414700Y3112900D01*
Y3042900D01*
X6394700Y3022900D01*
X6270000Y3020000D02*
X6272900Y3022900D01*
X6394700D01*
X6755000Y1010000D02*
Y1127600D01*
X6705000Y1010000D02*
Y883200D01*
X6555000Y1010000D02*
Y1127600D01*
X6605000Y1010000D02*
Y888200D01*
X6710000Y1820000D02*
Y1965910D01*
X6724700Y1980610D01*
Y2132900D01*
X6849700Y2257900D01*
Y2442900D01*
X6670000Y1820000D02*
Y1968340D01*
X6694700Y1993040D01*
Y2145330D01*
X6759700Y2210330D01*
Y2237900D01*
X6630000Y1820000D02*
Y1970770D01*
X6664700Y2005470D01*
Y2157760D01*
X6724700Y2217760D01*
Y2482290D01*
X6550000Y1820000D02*
Y1933200D01*
X6634700Y2017900D01*
Y2170190D01*
X6689700Y2225190D01*
Y2322900D01*
X6539700Y2033510D02*
X6555000Y2018200D01*
X6549700Y2012900D02*
X6539700Y2022900D01*
Y2033510D01*
X6510000Y3380000D02*
Y2517600D01*
X6574700Y2452900D01*
Y2067900D01*
X6669700Y2726700D02*
X6689700Y2706700D01*
Y2322900D01*
X6550000Y3380000D02*
Y2527600D01*
X6609700Y2467900D01*
Y2287900D01*
X6654700Y2242900D01*
X6724700Y2482290D02*
X6724400Y2492600D01*
X6724700Y2482290D02*
X6735000Y2492600D01*
X6724700Y2482290D02*
Y2492900D01*
X6729700Y2497900D01*
X6870000Y3380000D02*
Y3217200D01*
X6754700Y3101900D01*
Y2659770D01*
X6754730D01*
X6710000Y3380000D02*
Y3557600D01*
X6750000Y3380000D02*
Y3522600D01*
X6590000Y3380000D02*
Y3512600D01*
X6630000Y3380000D02*
Y3557600D01*
X6670000Y3380000D02*
Y3513200D01*
X6910000Y1820000D02*
Y1978200D01*
X6939700Y2007900D01*
X6830000Y1820000D02*
Y1967600D01*
X6990000Y1820000D02*
X6989700Y1820300D01*
Y2112900D01*
X7034700Y2157900D01*
X6790000Y1820000D02*
Y1687900D01*
X6950000Y1820000D02*
Y1683020D01*
X6950490D01*
X6870000Y1820000D02*
Y2017100D01*
X6829700Y2057400D01*
X6804700D01*
X6829700Y2057400D02*
Y2082400D01*
X6829700Y2057400D02*
X6804700Y2082400D01*
X7034700Y2157900D02*
X7235300Y2358500D01*
Y2780910D01*
X7230910Y2785300D01*
X7229700D01*
X7205000Y2810000D01*
X7155000D01*
X7092750Y2872250D01*
Y2950950D01*
X7124700Y2982900D01*
Y3132900D01*
X6950000Y3380000D02*
Y3198200D01*
X6862750Y3110950D01*
Y2575950D01*
X6839700Y2552900D01*
X6910000Y3380000D02*
Y3207700D01*
X6817750Y3115450D01*
Y2759000D01*
X7030000Y3380000D02*
Y3203200D01*
X6925900Y3099100D01*
Y3011700D01*
X7009700Y2927900D01*
X6830000Y3380000D02*
Y3527600D01*
X6990000Y3380000D02*
Y3238200D01*
X7270000Y1820000D02*
Y1967600D01*
X7070000Y1820000D02*
Y2002900D01*
X7110000Y1820000D02*
Y1967600D01*
X7150000Y1820000D02*
Y2002900D01*
X7190000Y1820000D02*
Y1967600D01*
X7230000Y1820000D02*
Y2002900D01*
X7190000Y3380000D02*
Y2971250D01*
X7132750Y2914000D01*
X7230000Y3380000D02*
Y2869000D01*
X7225000Y2864000D01*
X7230000D01*
X7070000Y3380000D02*
X7069700Y3379700D01*
Y3147900D01*
X7110000Y3380000D02*
Y3522600D01*
X7155060Y3842900D02*
X7137380Y3825220D01*
X7155060Y3842900D02*
X7137380Y3860580D01*
X7155060Y3842900D02*
X7258000D01*
X7260250Y3840650D01*
X7119700Y3842900D02*
X7155060D01*
X7298350Y7672800D02*
Y7872900D01*
X7423450D01*
X7173250Y7872900D02*
X7298350D01*
Y8073000D01*
X7310000Y1820000D02*
Y2002900D01*
X7350000Y1820000D02*
Y1967600D01*
X7390000Y1820000D02*
Y2002900D01*
X7430000Y1820000D02*
Y1967600D01*
X7470000Y1820000D02*
Y2002900D01*
X7510000Y1820000D02*
Y1967600D01*
X7550000Y1820000D02*
Y2002900D01*
X7310000Y3380000D02*
Y2924000D01*
X7350000Y3380000D02*
Y3522600D01*
X7430000Y3380000D02*
Y3543200D01*
X7469700Y3582900D01*
Y3712900D01*
X7412650Y3769950D01*
Y3840650D01*
X7430000Y3242900D02*
Y3380000D01*
X7510000Y3380000D02*
Y3522900D01*
X7390000Y3638200D02*
Y3380000D01*
X8276250Y3840650D02*
X8037450D01*
X7849700Y3652900D01*
X7539700D01*
X7510000Y3623200D01*
Y3522900D01*
X7390000Y3638200D02*
Y3662600D01*
X7390000Y3638200D02*
X7414400Y3638210D01*
X7414700Y3662900D02*
X7390000Y3638200D01*
X7590000Y1820000D02*
Y1967600D01*
X7630000Y1820000D02*
Y2002900D01*
X7769700Y1847900D02*
X7794700D01*
X7769700Y1847900D02*
Y1822900D01*
X7769700Y1847900D02*
X7794700Y1822900D01*
X7830000Y2060000D02*
X7716800D01*
X7689700Y2032900D01*
Y1957900D01*
X7749700Y1897900D01*
Y1867900D01*
X7769700Y1847900D01*
X7670000Y1698260D02*
X7687680Y1680580D01*
X7670000Y1698260D02*
X7652320Y1680580D01*
X7670000Y1698260D02*
Y1662900D01*
X7670000Y1820000D02*
Y1698260D01*
X7830000Y2140000D02*
X7706800D01*
X7670760Y2103960D01*
X7669910Y2078960D01*
X7670760Y2103960D02*
X7644910D01*
X7644910Y2078960D02*
X7644700D01*
Y2077900D01*
X7670760Y2103960D01*
X7830000Y2020000D02*
X7952240D01*
X7830000Y2100000D02*
X7984700D01*
X7830000Y1980000D02*
X7938700D01*
X7954700Y1964000D01*
Y1943260D01*
X7830000Y2380000D02*
X7666800D01*
X7830000Y2300000D02*
X8179700D01*
X8231800Y2247900D01*
X8356800D01*
X8464700Y2355800D01*
Y2382900D01*
X8564700Y2482900D01*
X7685060Y2300000D02*
X7667380Y2282320D01*
X7685060Y2300000D02*
X7667380Y2317680D01*
X7685060Y2300000D02*
X7830000D01*
X7649700Y2300000D02*
X7685060D01*
X7665620Y2212020D02*
Y2186980D01*
X7665620Y2212020D02*
X7644030Y2208560D01*
X7667600Y2214000D02*
Y2185000D01*
X7667600Y2214000D02*
X7665620Y2212020D01*
X7640000Y2210000D02*
X7642020Y2212020D01*
X7665620D01*
X7642600Y2189000D01*
Y2185000D01*
X7830000Y2220000D02*
X7673600D01*
X7667600Y2214000D01*
X7830000Y2180000D02*
X7984700D01*
X7830000Y2260000D02*
X7984700D01*
X7830000Y2340000D02*
X7984700D01*
X7830000Y2500000D02*
X7984700D01*
X7830000Y2580000D02*
X7984700D01*
X7830000Y2620000D02*
X7667600D01*
X7830000Y2540000D02*
X7667600D01*
X7830000Y2460000D02*
X7666800D01*
X7830000Y2420000D02*
X8162600D01*
X8254700Y2327900D01*
X8131800Y2660000D02*
X7830000D01*
X7830000Y2780000D02*
X7667600D01*
X7830000Y2740000D02*
X7984700D01*
X7830000Y2820000D02*
X7984700D01*
X7830000Y2700000D02*
X7666800D01*
X7830000Y2900000D02*
X7984700D01*
X7830000Y2860000D02*
X8266300D01*
X8288950Y2837350D01*
X7830000Y2980000D02*
X7984700D01*
X7830000Y3060000D02*
X7984700D01*
X7830000Y3140000D02*
X7984700D01*
X7830000Y3180000D02*
X7672600D01*
X7830000Y3100000D02*
X7672600D01*
X7830000Y3220000D02*
X7984700D01*
X7630000Y3380000D02*
Y3498200D01*
X7709700Y3577900D01*
X7894340D01*
X7590000Y3380000D02*
Y3553200D01*
X7594700Y3557900D01*
X7670000Y3380000D02*
Y3483200D01*
X7684700Y3497900D01*
X7704340D01*
X7594700Y3557900D02*
Y3582900D01*
X7594700Y3557900D02*
X7619700D01*
X7594700Y3557900D02*
X7619700Y3582900D01*
X7704340Y3497900D02*
X7722020Y3515580D01*
X7704340Y3497900D02*
X7722020Y3480220D01*
X7739700Y3497900D02*
X7704340D01*
X7952240Y2020000D02*
X7969920Y2037680D01*
X7952240Y2020000D02*
X7969920Y2002320D01*
X7952240Y2020000D02*
X7987600D01*
X7954700Y1943260D02*
X7972380Y1925580D01*
X7954700Y1943260D02*
X7937020Y1925580D01*
X7954700Y1907900D02*
Y1943260D01*
X7894340Y3577900D02*
X7912020Y3595580D01*
X7894340Y3577900D02*
X7912020Y3560220D01*
X7929700Y3577900D02*
X7894340D01*
X8254700Y2327900D02*
X8279700D01*
X8254700Y2327900D02*
Y2302900D01*
X8254700Y2327900D02*
X8279700Y2302900D01*
X8131800Y2660000D02*
Y2684900D01*
X8131800Y2660000D02*
X8156700Y2660010D01*
X8156750Y2684950D02*
X8131800Y2660000D01*
X8564700Y2482900D02*
Y2507900D01*
X8564700Y2482900D02*
X8589700D01*
X8589700Y2507900D02*
X8564700Y2482900D01*
X8569340Y3812900D02*
X8587020Y3830580D01*
X8569340Y3812900D02*
X8587020Y3795220D01*
X8569340Y3812900D02*
X8604700D01*
X8428650Y3840650D02*
X8521950D01*
X8549700Y3812900D01*
X8569340D01*
X9089280Y4478900D02*
X9107020Y4496520D01*
X9089280Y4478900D02*
X9107020Y4461160D01*
X9089280Y4478900D02*
X9030700D01*
X9124700Y4478840D02*
X9119700Y4473840D01*
Y4472900D01*
X9113700Y4478900D01*
X9089280D01*
X849700Y2037900D02*
X874700Y2062900D01*
Y2196700D01*
X1041700Y1984900D02*
X902700D01*
X849700Y2037900D01*
X1183300Y2309900D02*
X973000D01*
X933800Y2349100D01*
X874700D01*
X874100Y2442190D02*
X869700D01*
Y2442690D01*
X879700D01*
X874700Y2437690D01*
Y2349100D01*
X719750Y3517950D02*
X764200Y3473500D01*
Y3370750D01*
X719750Y3650150D02*
Y3517950D01*
X1219700Y3667900D02*
X1099700D01*
X1024700Y3742900D01*
X744700D01*
X719750Y3717950D01*
Y3650150D01*
X1145200Y1065700D02*
X999700D01*
X1145200Y1218100D02*
Y1307400D01*
X1041700Y2047900D02*
Y2112900D01*
X1041700Y2047900D02*
Y1984900D01*
X1183300Y2049900D02*
X1043700D01*
X1041700Y2047900D01*
X1041700Y2182900D02*
Y2112900D01*
X1041700Y1984900D02*
X1183300D01*
X1183300Y2114900D02*
X1043700D01*
X1041700Y2112900D01*
X1183300Y2829900D02*
X1056700D01*
X1034700Y2807900D01*
Y2397900D01*
X1057700Y2374900D01*
X1183300D01*
X1041700Y2182900D02*
Y2244900D01*
X1183300Y2179900D02*
X1044700D01*
X1041700Y2182900D01*
X1183300Y2244900D02*
X1041700D01*
X1183300Y3089900D02*
X1062700D01*
X1047700Y3104900D01*
Y3154900D01*
X1183300Y3154900D02*
X1047700D01*
X1046700Y3479900D02*
X1183300D01*
X934700Y5527900D02*
Y5724000D01*
X1134700Y5427900D02*
X1084700Y5477900D01*
X1329700Y7040500D02*
X1204700D01*
X1162300Y7082900D01*
X1159700D01*
X1183300Y1984900D02*
X1314700D01*
X1329700Y1969900D01*
Y1875400D01*
X1309200Y1854900D01*
X1183300D01*
X1183300Y2569900D02*
X1321700D01*
X1395000Y2643200D01*
Y2803800D01*
X1395200Y2804000D01*
Y2855800D01*
X1395000Y2856000D01*
Y2972600D01*
X1342700Y3024900D01*
X1342190D01*
X1332700Y2829900D02*
X1183300D01*
X1342190Y3024900D02*
X1183300D01*
X1183300Y3479900D02*
X1286700D01*
X1304700Y3497900D01*
Y3582900D01*
X1219700Y3667900D01*
X1418200Y3681900D02*
Y3779400D01*
X1384700Y3812900D01*
X1299700D01*
X1259700Y3772900D01*
Y3707900D01*
X1219700Y3667900D01*
X1418200Y3536400D02*
Y3681900D01*
X1434700Y5527900D02*
Y5602900D01*
X1525000Y7740000D02*
Y7622600D01*
X1554700Y7592900D01*
X1625000D01*
X1725000Y7592900D02*
X1625000D01*
X1625000Y7740000D02*
Y7592900D01*
X1575000Y7740000D02*
Y7842900D01*
X1620000Y7887900D01*
X1675000D01*
X1675000Y7740000D02*
Y7887900D01*
X1775000Y7740000D02*
Y7835000D01*
X1722100Y7887900D01*
X1675000D01*
X1933800Y803900D02*
Y803800D01*
X1811950Y681950D01*
Y576750D01*
X1873200Y1522900D02*
X1874700Y1524400D01*
Y1662900D01*
X1878200Y1666400D01*
X2003200D01*
X1743200Y3681900D02*
Y3499400D01*
X1789700Y3452900D01*
X1999700D01*
X1925000Y7740000D02*
Y7618200D01*
X1899700Y7592900D01*
X1725000D01*
X1725000Y7740000D02*
Y7592900D01*
X2133200Y1522900D02*
Y1621800D01*
X2088600Y1666400D01*
X2003200D01*
Y1522900D01*
X2225000Y7740000D02*
Y7893620D01*
X2250000Y7918620D01*
X2325000D01*
X2500000Y1010000D02*
X2436800D01*
X2419700Y992900D01*
Y892900D01*
X2458200Y1522900D02*
Y1636400D01*
X2489700Y1667900D01*
X2569700D01*
X2589700Y1647900D01*
Y1524400D01*
X2588200Y1522900D01*
X2328200Y3681900D02*
Y3879400D01*
X2319700Y3887900D01*
X2425000Y7740000D02*
Y7917480D01*
X2423860Y7918620D01*
X2325000Y7918620D02*
Y7740000D01*
X2423860Y7918620D02*
X2325000D01*
X2588200Y1522900D02*
Y1391400D01*
X2589700Y1392900D01*
X2758100Y1789900D02*
X2870350D01*
X2629640Y2569900D02*
X2608380Y2566410D01*
X2629640Y2569900D02*
X2608380Y2591150D01*
X2629640Y2569900D02*
X2599700D01*
Y2578780D01*
X2596010D01*
X2758100Y2569900D02*
X2629640D01*
X2758100Y2634900D02*
X2902700D01*
X2925000Y2612600D01*
Y2432600D01*
X2758100Y3219900D02*
X2897700D01*
X2758100Y3414900D02*
X2651700D01*
X2624700Y3387900D01*
Y3357900D01*
X2774700Y4700000D02*
Y4761200D01*
X2778700Y4765200D01*
X2714700Y4932900D02*
X2755400Y4892200D01*
X2778700D01*
X2829700Y5212900D02*
Y5197200D01*
X2778700Y5146200D01*
X2834700Y5332900D02*
Y5344200D01*
X2778700Y5400200D01*
X2778700Y5654200D02*
X2776000D01*
X2714700Y5592900D01*
X2778700Y5908200D02*
X2715200Y5971700D01*
X2778700Y6162200D02*
X2715200Y6225700D01*
X2778700Y6289200D02*
X2715200Y6352700D01*
X2778700Y6416200D02*
Y6418900D01*
X2719700Y6477900D01*
X2870350Y1789900D02*
X2902630Y1757630D01*
X2870350Y1789900D02*
X2890300D01*
X2912600Y1767600D01*
X2915000Y1770000D01*
X2964700Y4802900D02*
X2943400D01*
X2905700Y4765200D01*
X3032700Y4765200D02*
Y4765900D01*
X3069700Y4802900D01*
X3094700D01*
X2905700Y6416200D02*
X2920700D01*
X2969700Y6367200D01*
X3032700Y6416200D02*
X2969200Y6479700D01*
X3479700Y2842900D02*
X3429700Y2892900D01*
X3224700D01*
X3174700Y2942900D01*
Y2947900D01*
X3139700Y2982900D01*
X3159700Y4765200D02*
X3172000D01*
X3224700Y4817900D01*
X3229700Y6367900D02*
X3219700D01*
X3171400Y6416200D01*
X3159700D01*
X3286700Y6670200D02*
X3223200Y6733700D01*
X3275000Y7740000D02*
Y7843200D01*
X3299700Y7867900D01*
X3401200D01*
X3425000Y7844100D01*
Y7740000D01*
X3334700Y2397900D02*
X3339700Y2392900D01*
X3429700D01*
X3479700Y2442900D01*
X3479700Y3142900D02*
X3429700Y3192900D01*
X3379700Y3737900D02*
Y3542900D01*
X3594700Y4817900D02*
X3542000Y4765200D01*
X3540700D01*
X3413700Y4765200D02*
X3464700Y4816200D01*
Y4812900D01*
X3489700Y6492900D02*
X3502200Y6480400D01*
Y6454700D01*
X3540700Y6416200D01*
X3540700Y6670200D02*
X3477200Y6733700D01*
X3425000Y7740000D02*
Y7568350D01*
X3488350Y7505000D01*
Y7333150D01*
X3612200Y7333150D02*
X3488350D01*
X3475000Y7740000D02*
Y7853200D01*
X3514700Y7892900D01*
X3664700Y757900D02*
Y824500D01*
X3690000Y849800D01*
X3883950D01*
X3689700Y1207900D02*
X3812750D01*
X3883950Y1279100D01*
Y1357800D01*
X3879700Y2642900D02*
X3877900D01*
X3834700Y2599700D01*
Y2587900D01*
X3879700Y2942900D02*
X3829700Y2992900D01*
X3779700Y3442900D02*
X3730000Y3492600D01*
Y3521880D01*
X3729700Y3522180D01*
Y3563620D01*
X3730000Y3563920D01*
Y3595000D01*
X3697100Y3627900D01*
X3695000D01*
X3794700Y4765200D02*
X3839700Y4810200D01*
Y4812900D01*
X3699700Y6482900D02*
Y6455000D01*
X3667700Y6423000D01*
Y6416200D01*
X4264950Y1008550D02*
Y913150D01*
X4201600Y849800D01*
X3883950D01*
X3883950Y1357800D02*
X3967800D01*
X4040000Y1430000D01*
X4206960D01*
X4231860Y1405100D01*
X4232130D01*
X4254080Y1383150D01*
X4255000D01*
X4293050Y1345100D01*
X4328450D01*
X4079700Y2642900D02*
X4074700D01*
X4024700Y2692900D01*
X3979700Y2642900D02*
Y2647900D01*
X4024700Y2692900D01*
X3979700Y2642900D02*
X3879700Y2542900D01*
X3979700Y2542900D02*
X4029700Y2592900D01*
X4024700Y2782900D02*
X4039700D01*
X4079700Y2742900D01*
X4024700Y2782900D02*
X4017900D01*
X3979700Y2744700D01*
Y2742900D01*
X4079700Y2842900D02*
X4029700Y2892900D01*
X3979700Y2842900D02*
X4029700Y2892900D01*
X3879700Y3042900D02*
X3979700Y2942900D01*
X4029700Y2992900D01*
X4079700Y2942900D02*
X4029700Y2992900D01*
X3979700Y3042900D02*
X3929700Y3092900D01*
X4175700Y4765200D02*
X4142400D01*
X4114700Y4792900D01*
X3994700Y4792900D02*
X3964700D01*
X3937000Y4765200D01*
X3921700D01*
X3925000Y7740000D02*
Y7858200D01*
X3974700Y7907900D01*
X4124700D01*
X3975000Y7740000D02*
Y7687600D01*
X3994700Y7667900D01*
X4049700D01*
X4328450Y1345100D02*
Y1290000D01*
X4348450Y1270000D01*
X4410000D01*
X4435000Y1245000D01*
Y1083200D01*
X4360350Y1008550D01*
X4264950D01*
X4234700Y2702900D02*
X4279700Y2657900D01*
Y2642900D01*
X4234700Y2702900D02*
X4179700Y2647900D01*
Y2642900D01*
X4279700Y2642900D02*
X4379700Y2542900D01*
X4379700Y2642900D02*
X4429700Y2592900D01*
X4279700Y2742900D02*
X4239700Y2702900D01*
X4234700D01*
X4179700Y2742900D02*
X4192100D01*
X4232100Y2702900D01*
X4234700D01*
X4179700Y2842900D02*
X4229700Y2892900D01*
X4279700Y2842900D01*
X4179700Y2942900D02*
X4229700Y2992900D01*
X4279700Y2942900D01*
X4379700Y3042900D01*
X4379700Y2942900D02*
X4429700Y2892900D01*
X4279700Y3042900D02*
X4329700Y3092900D01*
X4179700Y3442900D02*
X4229700Y3492900D01*
Y3762900D01*
X4244700Y5132900D02*
Y4822900D01*
X4302400Y4765200D01*
X4302700D01*
X4354700Y6362900D02*
X4302700Y6414900D01*
Y6416200D01*
X4479700Y3442900D02*
X4529700Y3492900D01*
X4879700Y2042900D02*
X4934700D01*
X4984700Y2092900D01*
X4779700Y2742900D02*
X4829700Y2692900D01*
X4779700Y3142900D02*
Y3144700D01*
X4827900Y3192900D01*
X5009700D01*
X5034700Y3167900D01*
X4879700Y3542900D02*
X4929700Y3592900D01*
X4835000Y7635000D02*
X4940000D01*
X4939700Y7731700D02*
Y7635300D01*
X4940000Y7635000D01*
X5205000Y1010000D02*
Y548200D01*
X5305000Y1010000D02*
Y1207900D01*
X5405000Y1207900D02*
Y1010000D01*
X5305000Y1207900D02*
X5249700D01*
X5205000Y1163200D01*
Y1010000D01*
X5505000Y1207900D02*
X5405000D01*
X5305000Y1207900D02*
X5405000D01*
X5505000Y1010000D02*
Y782600D01*
X5565000Y722600D01*
Y600000D01*
X5514700Y549700D01*
Y547900D01*
X5705000Y1010000D02*
Y1207900D01*
X5505000Y1207900D02*
Y1010000D01*
X5705000Y1207900D02*
X5505000D01*
X5705000Y1207900D02*
X5855000D01*
X5855000Y1010000D02*
Y895000D01*
X5894700Y855300D01*
Y577900D01*
X5959700Y512900D01*
X5905000Y1207900D02*
Y1010000D01*
X5855000Y1207900D02*
Y1010000D01*
X5855000Y1207900D02*
X5905000D01*
X6105000Y1207900D02*
X5905000D01*
X6021300Y7320000D02*
Y7323700D01*
X5945800Y7399200D01*
Y7841150D01*
Y8140800D01*
X5992900Y8187900D01*
X6044700D01*
X6105000Y1207900D02*
Y1010000D01*
X6305000Y1207900D02*
X6105000D01*
X6044700Y8187900D02*
X6117100D01*
X6209850Y8095150D01*
X6326800D01*
X6305000Y1010000D02*
Y910000D01*
X6369700Y845300D01*
Y507900D01*
X6505000Y1010000D02*
Y1202900D01*
X6510000Y1207900D01*
X6305000Y1207900D02*
Y1010000D01*
X6305000Y1207900D02*
X6510000D01*
X6440000Y4263900D02*
Y4294200D01*
X6471000Y4325200D01*
X6472950D01*
X6426950Y4488900D02*
X6438900D01*
X6472950Y4522950D01*
Y4525200D01*
X6431950Y5974040D02*
X6432090D01*
X6466000Y6007950D01*
X6472950D01*
X6436950Y6243900D02*
Y6243050D01*
X6472050Y6207950D01*
X6472950D01*
X6591300Y7321300D02*
X6496300D01*
X6439700Y7377900D01*
Y7525500D01*
X6469700Y7860300D02*
X6439700Y7830300D01*
X6655000Y513200D02*
Y1010000D01*
Y1172600D01*
X6619700Y1207900D01*
X6510000D01*
X6591300Y7321300D02*
X6793700D01*
X6824700Y7352300D01*
Y7525500D01*
X6872950Y4225200D02*
X6865680Y4222630D01*
X6831950Y4188900D01*
X7080000Y4222750D02*
X7075200D01*
X7072750Y4225200D01*
X7032950D01*
X6981950Y4673900D02*
Y4653900D01*
X6953250Y4625200D01*
X6952950D01*
X6952950Y4725200D02*
Y4722900D01*
X6981950Y4693900D01*
Y4673900D01*
X6846950Y5368900D02*
Y5351200D01*
X6872950Y5325200D01*
X6872950Y5907950D02*
X6836000D01*
X6821950Y5893900D01*
X7051950Y5813900D02*
Y5888950D01*
X7032950Y5907950D01*
X6971950Y6058990D02*
Y6088950D01*
X6952950Y6107950D01*
X6916950Y6348900D02*
Y6343900D01*
X6952900Y6307950D01*
X6952950D01*
X6952950Y6407950D02*
X6986950Y6368900D01*
X6801950Y7038900D02*
X6828570Y7012280D01*
X6872950Y7007950D01*
X7577750Y3727900D02*
Y3840650D01*
X7730150Y3840650D02*
X7839700D01*
X7869950Y4525200D02*
X7858250D01*
X7831950Y4498900D01*
X7831950Y6178900D02*
X7861000Y6207950D01*
X7869950D01*
X7869950Y4325200D02*
Y4300050D01*
X7895000Y4275000D01*
X7905000Y6045000D02*
Y6040000D01*
X7872950Y6007950D01*
X7869950D01*
X8114700Y7687900D02*
Y7270300D01*
X8172100Y7212900D01*
X8174700D01*
X8114700Y7872900D02*
X7882550D01*
X8114700Y7872900D02*
Y7907900D01*
X8143200Y7936400D01*
X8231800D01*
X8289700Y1692900D02*
Y1771400D01*
X8288950Y1772150D01*
Y1795950D01*
X8288950Y1948350D02*
X8164700D01*
X8288950Y2684950D02*
X8156750D01*
X8379950Y2782900D02*
X8412330Y2750530D01*
X8379950Y2782900D02*
X8369700D01*
X8315250Y2837350D01*
X8288950D01*
X8269950Y4225200D02*
X8225200D01*
X8406950Y4373900D02*
X8401950D01*
X8350650Y4425200D01*
X8349950D01*
X8349950Y4725200D02*
Y4725050D01*
X8406100Y4668900D01*
X8393900D01*
X8350150Y4625150D01*
Y4625000D01*
X8349950Y4625200D01*
X8269950Y5325200D02*
X8216950D01*
X8456950Y6058900D02*
X8401950D01*
X8352900Y6107950D01*
X8349950D01*
X8349950Y6407950D02*
X8326950Y6430950D01*
Y6448900D01*
X8311950Y6338900D02*
X8342900Y6307950D01*
X8349950D01*
X8269950Y7007950D02*
X8183700D01*
X8179800Y7004050D01*
X8754700Y7257900D02*
X8347800D01*
X8320700Y7285000D01*
Y7403000D01*
X8114700Y7687900D02*
Y7872900D01*
X8536600Y7936400D02*
X8456400D01*
X8320700Y7800700D01*
Y7707800D01*
X8424700Y2762900D02*
X8404700Y2782900D01*
X8379950D01*
X8429950Y4225200D02*
X8475000D01*
X8429950Y5907950D02*
Y5855900D01*
X8536600Y7936400D02*
X8686200D01*
X8744700Y7877900D01*
X8754700Y7257900D02*
Y7392500D01*
X8765200Y7403000D01*
X8765200Y7707800D02*
Y7857400D01*
X8744700Y7877900D01*
X3875000Y8214140D02*
X3851730Y8190870D01*
X3875000Y8214140D02*
Y8210600D01*
X3853500Y8189100D01*
X6694700Y8262900D02*
Y8327900D01*
X6609700Y8412900D01*
X3949700D01*
X3875000Y8338200D01*
Y8214140D01*
X6824700Y7830300D02*
X6439700D01*
X6631600Y8095150D02*
X6506950D01*
X6469700Y8057900D01*
Y7860300D01*
X6631600Y8095150D02*
Y8199800D01*
X6694700Y8262900D01*
X3679700Y1892900D02*
X3732750Y1945950D01*
Y2095950D01*
X3779700Y2142900D01*
X4302700Y6543200D02*
X4306550D01*
X4371050Y6478700D01*
X4302700Y6670200D02*
X4306550D01*
X4371050Y6605700D01*
X4175700Y6543200D02*
X4179550D01*
X4244050Y6478700D01*
X4302700Y6797200D02*
X4306550D01*
X4371050Y6732700D01*
X4605800Y1896590D02*
X4529700Y1972690D01*
Y2092900D01*
X4479700Y2142900D01*
X4617700Y4704100D02*
X4612600Y4709200D01*
Y4709300D01*
X4556700Y4765200D01*
X4617700Y4831100D02*
X4612600Y4836200D01*
Y4836300D01*
X4556700Y4892200D01*
X4617700Y4958100D02*
X4612600Y4963200D01*
Y4963300D01*
X4556700Y5019200D01*
X4490700Y4958100D02*
X4485600Y4963200D01*
Y4963300D01*
X4429700Y5019200D01*
X4617700Y5085100D02*
X4612600Y5090200D01*
Y5090300D01*
X4556700Y5146200D01*
X4617700Y5212100D02*
X4612600Y5217200D01*
Y5217300D01*
X4556700Y5273200D01*
X4490700Y5212100D02*
X4485600Y5217200D01*
Y5217300D01*
X4429700Y5273200D01*
X4617700Y5339100D02*
X4612600Y5344200D01*
Y5344300D01*
X4556700Y5400200D01*
X4617700Y5593100D02*
X4612600Y5598200D01*
Y5598300D01*
X4556700Y5654200D01*
X4617700Y5466100D02*
X4612600Y5471200D01*
Y5471300D01*
X4556700Y5527200D01*
X4490700Y5466100D02*
X4485600Y5471200D01*
Y5471300D01*
X4429700Y5527200D01*
X4440340Y5770560D02*
X4495300Y5720500D01*
X4440340Y5770560D02*
X4490320Y5715510D01*
X4440340Y5770560D02*
X4429700Y5781200D01*
X4495800Y5715000D02*
X4485600Y5725200D01*
Y5725300D01*
X4440340Y5770560D01*
X4567340Y5770560D02*
X4622300Y5720500D01*
X4567340Y5770560D02*
X4617320Y5715510D01*
X4567340Y5770560D02*
X4556700Y5781200D01*
X4622800Y5715000D02*
X4612600Y5725200D01*
Y5725300D01*
X4567340Y5770560D01*
X4567340Y5897560D02*
X4622300Y5847500D01*
X4567340Y5897560D02*
X4617320Y5842510D01*
X4622800Y5842000D02*
X4612600Y5852200D01*
Y5852300D01*
X4567340Y5897560D01*
X4556700Y5908200D01*
X4622800Y5969000D02*
X4612600Y5979200D01*
Y5979300D01*
X4567340Y6024560D01*
X4556700Y6035200D01*
X4567340Y6024560D02*
X4617320Y5969510D01*
X4567340Y6024560D02*
X4622300Y5974500D01*
X4440340Y6024560D02*
X4495300Y5974500D01*
X4440340Y6024560D02*
X4490320Y5969510D01*
X4440340Y6024560D02*
X4429700Y6035200D01*
X4495800Y5969000D02*
X4485600Y5979200D01*
Y5979300D01*
X4440340Y6024560D01*
X4567340Y6151560D02*
X4622300Y6101500D01*
X4567340Y6151560D02*
X4617320Y6096510D01*
X4622800Y6096000D02*
X4612600Y6106200D01*
Y6106300D01*
X4567340Y6151560D01*
X4556700Y6162200D01*
X4567340Y6278560D02*
X4622300Y6228500D01*
X4567340Y6278560D02*
X4617320Y6223510D01*
X4567340Y6278560D02*
X4556700Y6289200D01*
X4622800Y6223000D02*
X4612600Y6233200D01*
Y6233300D01*
X4567340Y6278560D01*
X4567340Y6405560D02*
X4622300Y6355500D01*
X4567340Y6405560D02*
X4617320Y6350510D01*
X4567340Y6405560D02*
X4556700Y6416200D01*
X4622800Y6350000D02*
X4612600Y6360200D01*
Y6360300D01*
X4567340Y6405560D01*
X4495800Y6604000D02*
X4485600Y6614200D01*
Y6614300D01*
X4440340Y6659560D01*
X4429700Y6670200D01*
X4440340Y6659560D02*
X4490320Y6604510D01*
X4440340Y6659560D02*
X4495300Y6609500D01*
X4440340Y6532560D02*
X4495300Y6482500D01*
X4440340Y6532560D02*
X4490320Y6477510D01*
X4440340Y6532560D02*
X4429700Y6543200D01*
X4495800Y6477000D02*
X4485600Y6487200D01*
Y6487300D01*
X4440340Y6532560D01*
X4567340Y6659560D02*
X4622300Y6609500D01*
X4567340Y6659560D02*
X4617320Y6604510D01*
X4567340Y6659560D02*
X4556700Y6670200D01*
X4622800Y6604000D02*
X4612600Y6614200D01*
Y6614300D01*
X4567340Y6659560D01*
X4567340Y6532560D02*
X4622300Y6482500D01*
X4567340Y6532560D02*
X4617320Y6477510D01*
X4567340Y6532560D02*
X4556700Y6543200D01*
X4622800Y6477000D02*
X4612600Y6487200D01*
Y6487300D01*
X4567340Y6532560D01*
X4683700Y6797200D02*
X4616950Y6730450D01*
Y6728900D01*
X4636950Y6848900D02*
X4612080D01*
X4560380Y6797200D01*
X4556700D01*
X4440340Y6786560D02*
X4495300Y6736500D01*
X4440340Y6786560D02*
X4490320Y6731510D01*
X4440340Y6786560D02*
X4429700Y6797200D01*
X4495800Y6731000D02*
X4485600Y6741200D01*
Y6741300D01*
X4440340Y6786560D01*
X4746850Y4724000D02*
X4724900D01*
X4683700Y4765200D01*
X5191250Y4619000D02*
X5058600D01*
X4912400Y4765200D01*
X4810700D01*
X5191250Y4873000D02*
X5052850D01*
X4911950Y5013900D01*
X4816000D01*
X4810700Y5019200D01*
X5191250Y4779000D02*
X5071850D01*
X4897950Y4952900D01*
X4744400D01*
X4683700Y4892200D01*
X5191250Y4674000D02*
X5091850D01*
X4873650Y4892200D01*
X4810700D01*
X5191250Y5033000D02*
X5137850D01*
X5016950Y5153900D01*
X4909500D01*
X4850500Y5212900D01*
X4779700D01*
X4720700Y5153900D01*
X4691400D01*
X4683700Y5146200D01*
X5191250Y4928000D02*
X5086080D01*
X4910180Y5103900D01*
X4853000D01*
X4810700Y5146200D01*
X5191250Y5263750D02*
X4943850D01*
X4873700Y5333900D01*
X4750000D01*
X4683700Y5400200D01*
X5191250Y5213750D02*
X4923850D01*
X4864400Y5273200D01*
X4810700D01*
X4712000Y5244900D02*
X4731950D01*
X4712000Y5244900D02*
X4683700Y5273200D01*
X4731950Y5238900D02*
X4718000D01*
X4712000Y5244900D01*
X5191250Y5412750D02*
X4984400D01*
X4869950Y5527200D01*
X4810700D01*
X4721000Y5489900D02*
X4741950D01*
X4721000Y5489900D02*
X4683700Y5527200D01*
X4741950Y5483900D02*
X4727000D01*
X4721000Y5489900D01*
X5191250Y5467750D02*
X5039850D01*
X4853400Y5654200D01*
X4810700D01*
X5191250Y5666750D02*
X4995850D01*
X4881400Y5781200D01*
X4810700D01*
X4741950Y5773900D02*
X4691000D01*
X4683700Y5781200D01*
X5191250Y5572750D02*
X5014850D01*
X4869700Y5717900D01*
X4747400D01*
X4683700Y5654200D01*
X5191250Y5721750D02*
X5035850D01*
X4903700Y5853900D01*
X4738000D01*
X4683700Y5908200D01*
X4683700Y6035200D02*
X4720200D01*
X4782900Y6097900D01*
X5035950D01*
X5097550Y6159500D01*
X5194300D01*
X4810700Y6035200D02*
X5039800D01*
X5074250Y6000750D01*
X5194300D01*
X4810700Y6162200D02*
X4780250D01*
X4746950Y6128900D01*
X5191250Y5771750D02*
X5099100D01*
X4961950Y5908900D01*
X4811400D01*
X4810700Y5908200D01*
X5191250Y6660750D02*
X5117550D01*
X4874700Y6417900D01*
Y6387900D01*
X4839700Y6352900D01*
X4745950D01*
X4683700Y6290650D01*
Y6289200D01*
X5191250Y6555750D02*
X5135750D01*
X4960000Y6380000D01*
Y6325000D01*
X4860000Y6225000D01*
X4745000D01*
X4683700Y6163700D01*
Y6162200D01*
X5191250Y6610750D02*
X5190500Y6610000D01*
X5130000D01*
X4917000Y6397000D01*
Y6357000D01*
X4849200Y6289200D01*
X4810700D01*
X5191250Y6715750D02*
X5120750D01*
X4828900Y6423900D01*
X4818400D01*
X4810700Y6416200D01*
X5191250Y6809750D02*
X5157170D01*
X4830320Y6482900D01*
X4755950D01*
X4689250Y6416200D01*
X4683700D01*
X5191250Y6864750D02*
X5149750D01*
X4828200Y6543200D01*
X4810700D01*
X5191250Y6914750D02*
X5190400Y6913900D01*
X5131950D01*
X4825950Y6607900D01*
X4794700D01*
X4730000Y6543200D01*
X4683700D01*
X5191250Y6969750D02*
X5110250D01*
X4810700Y6670200D01*
X4725250Y6601220D02*
X4726950D01*
Y6628900D01*
X4685650Y6670200D01*
X4683700D01*
X4746950Y6748900D02*
X4795250Y6797200D01*
X4810700D01*
X5191250Y4724000D02*
X5121850D01*
X5191250Y4978000D02*
X5111050D01*
X5191250Y5318750D02*
X4971950D01*
X5191250Y5826750D02*
X5119800D01*
X5191250Y6301750D02*
X5026950D01*
Y6301860D01*
X5024510D01*
X5040000Y6406750D02*
X5191250D01*
X5191250Y6356750D02*
X4999700D01*
X5191250Y6461750D02*
X5104700D01*
Y6461450D01*
X5104240D01*
X5286250Y4779000D02*
X5347050D01*
X5286250Y4674000D02*
X5346850D01*
X5286250Y4724000D02*
X5376950D01*
X5286250Y4619000D02*
X5376950D01*
X5286250Y5033000D02*
X5346950D01*
X5286250Y4928000D02*
X5346950D01*
X5286250Y4978000D02*
X5376950D01*
X5286250Y4873000D02*
X5376950D01*
X5286250Y5158750D02*
X5376950D01*
X5286250Y5263750D02*
X5376950D01*
X5286250Y5213750D02*
X5346950D01*
X5286250Y5318750D02*
X5346950D01*
X5286250Y5412750D02*
X5376950D01*
X5286250Y5517750D02*
X5376950D01*
X5286250Y5467750D02*
X5346950D01*
X5286250Y5572750D02*
X5346950D01*
X5286250Y5666750D02*
X5376950D01*
X5286250Y5826750D02*
X5346950D01*
X5286250Y5771750D02*
X5376950D01*
X5286250Y5721750D02*
X5346950D01*
X5265000Y6068900D02*
Y6030850D01*
X5295100Y6000750D01*
X5346700D01*
X5346700Y6159500D02*
X5301300D01*
X5264700Y6122900D01*
X5286250Y6301750D02*
X5386950D01*
X5286250Y6406750D02*
X5338680D01*
X5342530Y6402900D01*
X5356720D01*
X5379620Y6380000D01*
X5405850D01*
X5406950Y6378900D01*
X5286250Y6356750D02*
X5351950D01*
X5286250Y6461750D02*
X5338250D01*
X5357950Y6442050D01*
Y6439400D01*
X5357450Y6438900D01*
X5286250Y6660750D02*
X5368800D01*
X5286250Y6555750D02*
X5373800D01*
X5286250Y6610750D02*
X5340100D01*
X5286250Y6715750D02*
X5345100D01*
X5286250Y6809750D02*
X5356100D01*
X5386950Y6778900D01*
X5286250Y6864750D02*
X5347800D01*
X5286250Y6914750D02*
X5391100D01*
X5391950Y6913900D01*
X5286250Y6969750D02*
X5356950D01*
X6326950Y4273900D02*
X6392950Y4325200D01*
X6455000Y4155000D02*
Y4207250D01*
X6472950Y4225200D01*
X6392950Y4225200D02*
X6350650Y4182900D01*
X6347950D01*
X6346950Y4183900D01*
X6552950Y4525200D02*
X6547000D01*
X6496950Y4475150D01*
Y4473900D01*
X6295310Y4498140D02*
X6322370Y4525200D01*
X6392950D01*
X6341950Y4373900D02*
X6340700D01*
X6392000Y4425200D01*
X6392950D01*
X6472950Y4425200D02*
X6453950Y4406200D01*
X6447950Y4400200D01*
X6434800D01*
X6453950Y4406200D02*
X6434800D01*
X6552950Y4825200D02*
X6525650Y4797900D01*
X6515950D01*
X6491950Y4773900D01*
X6331950Y4583900D02*
X6330700D01*
X6372000Y4625200D01*
X6392950D01*
X6496950Y4674200D02*
X6497550D01*
X6548550Y4725200D01*
X6552950D01*
X6447170Y4682290D02*
Y4650980D01*
X6472950Y4625200D01*
X6472950Y4725200D02*
Y4724900D01*
X6447170Y4699120D01*
Y4682290D01*
X6433800Y4962050D02*
X6416950D01*
X6433800Y4962050D02*
X6470650Y4925200D01*
X6472950D01*
X6416950Y4968050D02*
X6427800D01*
X6433800Y4962050D01*
X6386950Y4838900D02*
X6459250D01*
X6472950Y4825200D01*
X6406950Y5025200D02*
X6472950D01*
X6449700Y5347900D02*
X6469050Y5328550D01*
Y5321300D01*
X6472950Y5325200D01*
X6431950Y5353900D02*
X6443700D01*
X6449700Y5347900D01*
X6472950Y5225200D02*
X6401950D01*
X6472950Y5125200D02*
X6381950D01*
X6449700Y5347900D02*
X6431950D01*
X6441950Y5858900D02*
Y5876950D01*
X6472950Y5907950D01*
X6341950Y6111200D02*
X6389700D01*
X6392950Y6107950D01*
X6392950Y6007950D02*
X6351000D01*
X6306950Y5963900D01*
X6392950Y5907950D02*
X6383900Y5898900D01*
X6306950D01*
X6431950Y6133900D02*
X6457900Y6107950D01*
X6472950D01*
X6311950Y6293900D02*
X6326000Y6307950D01*
X6392950D01*
X6392950Y6207950D02*
X6326990D01*
X6326950Y6207910D01*
X6306950D01*
X6472950Y6407950D02*
X6426950Y6361950D01*
Y6358900D01*
X6497900Y6332900D02*
X6511950D01*
X6497900Y6332900D02*
X6472950Y6307950D01*
X6511950Y6338900D02*
X6503900D01*
X6497900Y6332900D01*
X6472950Y6607950D02*
X6391950D01*
X6376950Y6475900D02*
X6403950D01*
X6436000Y6507950D01*
X6472950D01*
X6406950Y6723900D02*
X6425250Y6705600D01*
X6470600D01*
X6472950Y6707950D01*
X6389100Y6908800D02*
X6472100D01*
X6472950Y6907950D01*
X6395450Y6807200D02*
X6472200D01*
X6472950Y6807950D01*
X6381950Y7018900D02*
X6392900Y7007950D01*
X6472950D01*
X6552950Y4325200D02*
Y4306150D01*
X6512950Y4266150D01*
X6509700D01*
X6511950Y4263900D01*
X6611950Y4203900D02*
X6586950D01*
X6571130Y4219720D01*
X6552950Y4225200D01*
X6552950Y4425200D02*
X6557400D01*
X6603680Y4378920D01*
X6606950D01*
X6607130Y4378740D01*
X6561950Y4573900D02*
Y4616200D01*
X6552950Y4625200D01*
X6566950Y4968900D02*
Y4939200D01*
X6552950Y4925200D01*
X6516950Y4958900D02*
Y4990150D01*
X6549650Y5022850D01*
X6555300D01*
X6552950Y5025200D01*
X6601950Y5203900D02*
X6581950Y5223900D01*
X6551650D01*
X6552950Y5225200D01*
X6616950Y5124450D02*
X6553700D01*
X6552950Y5125200D01*
X6518180Y5403900D02*
X6552950Y5369130D01*
Y5325200D01*
X6507400Y5843900D02*
Y5847400D01*
X6552950Y5892950D01*
Y5907950D01*
X6601950Y6063900D02*
X6560950Y6104900D01*
X6552950D01*
Y6107950D01*
X6611950Y5988900D02*
X6572000D01*
X6552950Y6007950D01*
X6651950Y6207950D02*
X6552950D01*
X6512160Y6233900D02*
Y6263900D01*
X6552950Y6307950D01*
X6589860Y6407950D02*
X6603160Y6394660D01*
X6589860Y6407950D02*
X6552950D01*
X6607400Y6398900D02*
X6598350Y6407950D01*
X6589860D01*
X6511950Y6461400D02*
X6552950Y6502400D01*
Y6507950D01*
X6552950Y6607950D02*
X6621950D01*
X6636750Y6705600D02*
X6555300D01*
X6552950Y6707950D01*
X6610910Y6978900D02*
Y6952810D01*
X6566050Y6907950D01*
X6552950D01*
X6615560Y6813550D02*
X6626160Y6824140D01*
X6615560Y6813550D02*
X6558550D01*
X6552950Y6807950D01*
X6630400Y6819900D02*
X6624050Y6813550D01*
X6615560D01*
X6666950Y7053900D02*
X6606950D01*
X6561000Y7007950D01*
X6552950D01*
X6995000Y4185000D02*
X6993150D01*
X6952950Y4225200D01*
X6872950Y4525200D02*
Y4547900D01*
X6862950Y4557900D01*
Y4559000D01*
X7032950Y4325200D02*
Y4312640D01*
X7073290Y4272300D01*
X6806950Y4368900D02*
Y4363900D01*
X6845650Y4325200D01*
X6872950D01*
X7093780Y4418900D02*
X7039250D01*
X7032950Y4425200D01*
X6916950Y4383900D02*
X6875650Y4425200D01*
X6872950D01*
X7137240Y4525200D02*
X7032950D01*
X7100950Y4344900D02*
X7076950Y4368900D01*
X6996950D01*
X6953250Y4325200D01*
X6952950D01*
X6952950Y4525200D02*
X6976950Y4501200D01*
Y4483900D01*
X6952950Y4425200D02*
X6974250D01*
X7015750Y4466700D01*
X7017870D01*
X7020070Y4468900D01*
X7206950D01*
X7081950Y4723900D02*
X7080650Y4725200D01*
X7032950D01*
X6862950Y4559000D02*
Y4573900D01*
X6862950Y4559000D02*
X6856950Y4565000D01*
Y4573900D01*
X7103250Y4625200D02*
X7032950D01*
X6996950Y4763900D02*
X6952950Y4807900D01*
Y4825200D01*
X6911950Y4658900D02*
X6910700D01*
X6875700Y4623900D01*
X6870730D01*
X6872950Y4625200D01*
X6821950Y4653900D02*
Y4674200D01*
X6872950Y4725200D01*
X6829910Y4881970D02*
X6831950D01*
Y4880890D01*
X6872950Y4839890D01*
Y4825200D01*
X6821950Y4973900D02*
X6870650Y4925200D01*
X6872950D01*
X6821950Y5078900D02*
X6872950Y5027900D01*
Y5025200D01*
X7002820Y4874710D02*
X7006950Y4870580D01*
Y4868900D01*
X6952950Y4922900D01*
Y4925200D01*
X6952950Y5025200D02*
X7051950D01*
X7101950Y5124450D02*
X7101200Y5125200D01*
X6952950D01*
X6872950Y5125200D02*
Y5162950D01*
X6882900Y5172900D01*
X6880950D01*
X6886950Y5178900D01*
X6976450Y5248710D02*
Y5262690D01*
X6976450Y5248710D02*
X6952950Y5225210D01*
Y5225200D01*
X6982450Y5262690D02*
Y5254710D01*
X6976450Y5248710D01*
X6836950Y5253900D02*
X6865650Y5225200D01*
X6872950D01*
X6952950Y5325200D02*
X6921950Y5356200D01*
Y5393900D01*
X6921950Y5768900D02*
Y5763900D01*
X6952950Y5794900D01*
Y5907950D01*
X7116950Y6004520D02*
X7097430D01*
X7096950Y6005000D01*
X7035900D01*
X7032950Y6007950D01*
X6802700Y5994650D02*
X6859650D01*
X6872950Y6007950D01*
X7106950Y6107950D02*
X7032950D01*
X6872950Y6107950D02*
X6786950D01*
X6981950Y5968900D02*
Y5978950D01*
X6975950Y5984950D01*
X6952950Y6007950D01*
X6975950Y5984950D02*
Y5968900D01*
X7032950Y6407950D02*
X7086950D01*
X7032950Y6207950D02*
X7086950D01*
X6816950Y6206650D02*
X6871650D01*
X6872950Y6207950D01*
X7126950Y6309300D02*
X7125600Y6307950D01*
X7032950D01*
X6872950Y6307950D02*
X6831000D01*
X6811950Y6288900D01*
X6804520Y6410780D02*
X6806950D01*
Y6410900D01*
X6870000D01*
X6872950Y6407950D01*
X6991950Y6188900D02*
X6972000D01*
X6952950Y6207950D01*
X6872950Y6507950D02*
X6822900D01*
X6872950Y6607950D02*
X6816950D01*
X6952950Y6507950D02*
X6968050D01*
X6999000Y6538900D01*
X7061950Y6598900D02*
X6962000D01*
X6952950Y6607950D01*
X6786950Y6693900D02*
X6858900D01*
X6872950Y6707950D01*
X7000950Y6812900D02*
X7016950D01*
X7000950Y6812900D02*
X7006950Y6818900D01*
X7016950D01*
X6952950Y6807950D02*
X6996000D01*
X7000950Y6812900D01*
X6809540Y6807950D02*
X6799740Y6798160D01*
X6809540Y6807950D02*
X6872950D01*
X6795500Y6802400D02*
X6801050Y6807950D01*
X6809540D01*
X7056450Y6924350D02*
X7016950D01*
X7000550Y6907950D01*
X6952950D01*
X6806950Y6913900D02*
X6812050Y6908800D01*
X6872100D01*
X6872950Y6907950D01*
X6952950Y6707950D02*
X7036000D01*
X7061950Y7053900D02*
Y7048900D01*
X7021000Y7007950D01*
X6952950D01*
X7137240Y4525200D02*
X7147710Y4514740D01*
X7151950Y4518980D02*
X7145730Y4525200D01*
X7137240D01*
X7100950Y4344900D02*
X7121950D01*
X7121950Y4338900D02*
X7106950D01*
X7100950Y4344900D01*
X7071950Y6924870D02*
X7056970D01*
X7056450Y6924350D01*
X7066470Y6924360D01*
X7751000Y4286000D02*
Y4270000D01*
X7745000Y4270000D02*
Y4280000D01*
X7751000Y4286000D01*
X7761000Y4196000D02*
Y4175000D01*
X7761000Y4196000D02*
X7789950Y4224950D01*
Y4225200D01*
X7755000Y4175000D02*
Y4190000D01*
X7761000Y4196000D01*
X7675000Y4530000D02*
X7730200D01*
X7735000Y4525200D01*
X7789950D01*
X7761000Y4391000D02*
X7740000D01*
X7761000Y4391000D02*
X7789950Y4419950D01*
Y4425200D01*
X7740000Y4385000D02*
X7755000D01*
X7761000Y4391000D01*
X7751000Y4286000D02*
X7789950Y4324950D01*
Y4325200D01*
X7741950Y4625200D02*
X7789950D01*
X7821950Y4808900D02*
X7838250Y4825200D01*
X7869950D01*
X7869950Y4625200D02*
Y4655900D01*
X7836950Y4688900D01*
X7869950Y4725200D02*
Y4721900D01*
X7836950Y4688900D01*
X7811500Y4965700D02*
X7826900D01*
X7867400Y4925200D01*
X7869950D01*
X7869950Y5025200D02*
X7798800D01*
X7773400Y5334000D02*
X7861150D01*
X7869950Y5325200D01*
X7786100Y5226050D02*
X7869100D01*
X7869950Y5225200D01*
X7805150Y5124450D02*
X7869200D01*
X7869950Y5125200D01*
X7702580Y6108450D02*
X7710000D01*
Y6108070D01*
X7705120D01*
X7705000Y6107950D01*
X7789950D01*
X7661950Y5923900D02*
X7745150Y6007100D01*
X7789100D01*
X7789950Y6007950D01*
X7789950Y5907950D02*
X7717900D01*
X7869950Y6107950D02*
Y6104950D01*
X7830000Y6065000D01*
Y6063900D01*
X7706950Y6343900D02*
Y6338900D01*
X7737900Y6307950D01*
X7789950D01*
X7686950Y6183900D02*
X7707000Y6203950D01*
X7785950D01*
X7789950Y6207950D01*
X7869950Y6307950D02*
Y6329090D01*
X7838900Y6360140D01*
X7869950Y6407950D02*
Y6391190D01*
X7838900Y6360140D01*
X7805150Y6635750D02*
X7842150D01*
X7869950Y6607950D01*
X7837950Y6471700D02*
X7821950D01*
X7837950Y6471700D02*
X7869950Y6503700D01*
Y6507950D01*
X7821950Y6465700D02*
X7831950D01*
X7837950Y6471700D01*
X7786100Y6711950D02*
Y6708770D01*
X7789270Y6705600D01*
X7800940D01*
X7867600D01*
X7869950Y6707950D01*
X7800940Y6705600D02*
X7790340Y6716190D01*
X7773400Y6908800D02*
X7869100D01*
X7869950Y6907950D01*
X7779750Y6807200D02*
X7869200D01*
X7869950Y6807950D01*
X7870000Y4125000D02*
X7869950Y4125050D01*
Y4225200D01*
X8040000Y4210000D02*
X8024800Y4225200D01*
X7949950D01*
X8031950Y4538900D02*
X7966950D01*
X7953250Y4525200D01*
X7949950D01*
X7965000Y4475000D02*
Y4440250D01*
X7949950Y4425200D01*
X8000000Y4300000D02*
X7974800Y4325200D01*
X7949950D01*
X7910000Y4475000D02*
Y4470000D01*
X7869950Y4429950D01*
Y4425200D01*
X7949950Y4625200D02*
Y4627900D01*
X7980950Y4658900D01*
X8001950D01*
X7986950Y4767200D02*
X7991950D01*
X7949950Y4725200D01*
X8021950Y4833900D02*
X7958650D01*
X7949950Y4825200D01*
X7949950Y4925200D02*
X7975650D01*
X7991950Y4908900D01*
X7949950Y5025200D02*
Y5022650D01*
X7988700Y4983900D01*
X8011950D01*
X7949950Y5125200D02*
X7951420D01*
X8026950Y5040550D01*
Y5038900D01*
X8027400Y5226050D02*
X8026550Y5225200D01*
X7949950D01*
X7949950Y5325200D02*
X8029850D01*
X8033750Y5321300D01*
X7868650Y5863900D02*
Y5906650D01*
X7869950Y5907950D01*
X8014700Y6108700D02*
X7950700D01*
X7949950Y6107950D01*
X8035000Y6007100D02*
X7950800D01*
X7949950Y6007950D01*
X7949950Y5907950D02*
X8031000D01*
X8011950Y6207950D02*
Y6200350D01*
X8004350Y6207950D01*
X7949950D01*
X7906950Y6263900D02*
X7949950Y6306900D01*
Y6307950D01*
X7911950Y6358900D02*
X7949950Y6396900D01*
Y6407950D01*
X8000950Y6454900D02*
Y6438900D01*
X8000950Y6454900D02*
X7949950Y6505900D01*
Y6507950D01*
X8006950Y6438900D02*
Y6448900D01*
X8000950Y6454900D01*
X7949950Y6607950D02*
X7947900D01*
X7906950Y6648900D01*
X7949950Y6707950D02*
X8023400D01*
X8027400Y6711950D01*
X7907950Y6952900D02*
X7949950Y6910900D01*
Y6907950D01*
X8027400Y6813550D02*
X7955550D01*
X7949950Y6807950D01*
X7869950Y7007950D02*
Y7078950D01*
X7868650Y7080250D01*
X7907950Y6952900D02*
X7886950D01*
X7886950Y6958900D02*
X7901950D01*
X7907950Y6952900D01*
X7949950Y7007950D02*
X7952900D01*
X7996950Y6963900D01*
X8349950Y4225200D02*
X8329700Y4204950D01*
Y4204700D01*
X8310000Y4185000D01*
X8269950Y4525200D02*
X8191950D01*
X8269950Y4325200D02*
X8205200D01*
X8269950Y4425200D02*
X8225200D01*
X8307950Y4362900D02*
X8291950D01*
X8307950Y4362900D02*
X8345650Y4325200D01*
X8349950D01*
X8409650Y4486390D02*
X8406950D01*
Y4483900D01*
X8396950D01*
X8355650Y4525200D01*
X8349950D01*
X8291950Y4368900D02*
X8301950D01*
X8307950Y4362900D01*
X8324970Y4775870D02*
X8321730D01*
X8272400Y4825200D01*
X8269950D01*
X8269950Y4625200D02*
X8225200D01*
X8269950Y4725200D02*
X8191950D01*
X8269950Y4925200D02*
X8226950D01*
X8305660Y4879200D02*
Y4878270D01*
X8349230Y4825200D01*
X8349950D01*
X8269950Y5025200D02*
X8195650D01*
X8349950Y4925200D02*
X8410800D01*
X8414750Y4921250D01*
X8349950Y5025200D02*
X8431450D01*
X8433800Y5022850D01*
X8349950Y5125200D02*
X8433050D01*
X8433800Y5124450D01*
X8269950Y5125200D02*
X8180650D01*
X8349950Y5225200D02*
X8432950D01*
X8433800Y5226050D01*
X8186950Y5226050D02*
X8269100D01*
X8269950Y5225200D01*
X8349950Y5325200D02*
X8429900D01*
X8433800Y5321300D01*
X8351250Y5858900D02*
Y5906650D01*
X8349950Y5907950D01*
X8269950Y6007950D02*
X8180650D01*
X8179800Y6007100D01*
X8269950Y6107950D02*
X8193890D01*
X8185400D01*
X8179800Y6102350D01*
X8193890Y6107950D02*
X8184040Y6098110D01*
X8456950Y5953900D02*
X8451950Y5958900D01*
X8401950D01*
X8352900Y6007950D01*
X8349950D01*
X8269950Y5907950D02*
X8267500Y5905500D01*
X8179800D01*
X8321950Y6158900D02*
X8380700D01*
X8429750Y6207950D01*
X8429950D01*
X8269950Y6207950D02*
X8183800D01*
X8179800Y6203950D01*
X8269950Y6307950D02*
X8206950D01*
X8269950Y6407950D02*
X8180600D01*
X8179800Y6407150D01*
X8371950Y6258900D02*
X8349950Y6236900D01*
Y6207950D01*
X8212950Y6498450D02*
Y6478900D01*
X8212950Y6498450D02*
X8206950Y6492450D01*
Y6478900D01*
X8269950Y6507950D02*
X8222450D01*
X8212950Y6498450D01*
X8269950Y6607950D02*
X8207900D01*
X8186950Y6628900D01*
X8306800Y6551700D02*
X8306200D01*
X8349950Y6507950D01*
X8408400Y6604000D02*
X8353900D01*
X8349950Y6607950D01*
X8269950Y6707950D02*
X8182150D01*
X8179800Y6705600D01*
X8349950Y6807950D02*
X8416000D01*
X8269950Y6807950D02*
X8180550D01*
X8179800Y6807200D01*
X8349950Y6907950D02*
X8426000D01*
X8269950Y6907950D02*
X8206050D01*
X8205200Y6908800D01*
X8349950Y6707950D02*
X8436000D01*
X8426950Y7008900D02*
X8350900D01*
X8349950Y7007950D01*
X8500000Y4324350D02*
X8499150Y4325200D01*
X8429950D01*
X8475000Y4425950D02*
X8474250Y4425200D01*
X8429950D01*
X8429950Y4525200D02*
X8500000D01*
X8541950Y4708900D02*
X8525650Y4725200D01*
X8429950D01*
X8429950Y4625200D02*
X8475000D01*
X8406100Y4668900D02*
X8411950D01*
X8429950Y6007950D02*
X8502800D01*
X8503650Y6007100D01*
X8429950Y6107950D02*
X8509250D01*
X8510000Y6108700D01*
X8429950Y6407950D02*
X8509200D01*
X8510000Y6407150D01*
X8429950Y6307950D02*
X8507600D01*
X8510000Y6305550D01*
X8878300Y4478900D02*
Y4644000D01*
X8765200Y4570900D02*
X8765950Y4570150D01*
X8876010D01*
X8878300Y4644000D01*
X8873300Y4977600D02*
X8771250D01*
X8873300Y5142700D02*
Y4977600D01*
X8878300Y6197600D02*
Y6362700D01*
X8765200Y6380650D02*
X8860450D01*
X8878300Y6362800D01*
Y6362700D01*
X8878300Y6858000D02*
Y6692900D01*
X8770450D01*
X9000300Y5261870D02*
X8983680Y5278480D01*
X9000300Y5261870D02*
X9016920Y5278480D01*
X9000300Y5261870D02*
Y5295100D01*
X9025700Y5142700D02*
X9000300Y5168100D01*
Y5261870D01*
X9028600Y5998500D02*
Y5975000D01*
X9028600Y5998500D02*
X9005100D01*
X9028600Y5998500D02*
X9030700Y6000600D01*
Y6197600D01*
X9005100Y5975000D02*
X9028600Y5998500D01*
X9131000Y6494570D02*
Y6399500D01*
X9094200Y6362700D01*
X9030700D01*
X9131000Y6494570D02*
X9114380Y6511180D01*
X9131000Y6494570D02*
X9147620Y6511180D01*
X9131000Y6561030D02*
X9147620Y6544420D01*
X9131000Y6561030D02*
X9114380Y6544420D01*
X9131000Y6561030D02*
Y6527800D01*
Y6494570D01*
X9030700Y6692900D02*
X9094200D01*
X9131000Y6656100D01*
Y6561030D01*
X9028800Y7037700D02*
X9030700Y7035800D01*
Y6858000D01*
X9028800Y7037700D02*
X9005300D01*
X9028800Y7037700D02*
Y7061200D01*
X9005300Y7061200D02*
X9028800Y7037700D01*
D11*
X688000Y2951650D02*
Y3024250D01*
X764200Y3100450D01*
Y3167550D01*
X834700Y5227900D02*
X764700D01*
X814700Y6487600D02*
X990000D01*
X640000Y6487600D02*
X814700D01*
X990000Y6792400D02*
X985500Y6787900D01*
X844700D01*
X809700Y6822900D01*
Y7157600D01*
X850000Y7197900D01*
X640000Y6792400D02*
Y6912900D01*
Y7037600D01*
X850000Y7197900D02*
X810000Y7237900D01*
Y7342400D01*
X990000Y7342400D02*
X810000D01*
X640000D01*
X814700Y7587900D02*
X1177100D01*
X1327100Y7437900D01*
Y7347900D01*
X1329700Y7345300D01*
X1329700Y6490500D02*
X1312300Y6507900D01*
X1184700D01*
X1154700Y6537900D01*
Y6982900D01*
X1100000Y7037600D01*
X990000D01*
X1483200Y1522900D02*
Y1394400D01*
X1734700Y4597900D02*
Y4527900D01*
X1664700D01*
X1808200Y1522900D02*
Y1391400D01*
X1874700Y1662900D02*
Y1667900D01*
X1975000Y7740000D02*
Y7582900D01*
X2523200Y1522900D02*
Y1416400D01*
X2494700Y1387900D01*
X2459700D01*
X2254200Y6870700D02*
Y6940700D01*
X2324200D01*
X3079700Y7332900D02*
X3183300D01*
X3183550Y7333150D01*
X3883950Y545000D02*
X3646800D01*
X3954700Y1202900D02*
X3891650D01*
X3867750Y1179000D01*
Y1069200D01*
X3883950Y1053000D01*
X4044700Y1192700D02*
X4169700D01*
X3954700Y1202900D02*
X4015800Y1264000D01*
X4144700D01*
X4169700Y1289000D01*
Y1345100D01*
X4048700Y6543200D02*
X4112200Y6606700D01*
X3959710Y7347890D02*
X3949700Y7357900D01*
X4264950Y703750D02*
X4500550D01*
X4169700Y1192700D02*
X4328450D01*
X4259700Y7337900D02*
X4128100D01*
X4123350Y7333150D01*
X4939700Y8174100D02*
X4800900D01*
X4909700Y3642900D02*
X4979700D01*
Y3572900D01*
X5753700Y2475400D02*
X5745300Y2483800D01*
Y2627900D01*
X6270000Y3220000D02*
X6126800D01*
X6430000Y3380000D02*
Y3753200D01*
X6474700Y3797900D01*
X6790000Y3380000D02*
Y3563200D01*
X6834700Y3607900D01*
X6959700D01*
X7150000Y3380000D02*
X7149700Y3380300D01*
Y3577900D01*
X7119700Y3607900D01*
X6959700D01*
X7212950Y4235200D02*
Y4175200D01*
X7152950D01*
X7212950Y5917950D02*
Y5857950D01*
X7152950D01*
X7550000Y3380000D02*
X7549700Y3379700D01*
Y3242900D01*
X7509700Y3202900D01*
X7470000Y3380000D02*
Y3242600D01*
X7509700Y3202900D01*
X8609950Y4235200D02*
Y4175200D01*
X8549950D01*
X8609950Y5917950D02*
Y5857950D01*
X8549950D01*
X9038000Y1116080D02*
X9165000D01*
Y1180420D01*
X9165000Y1277750D02*
X9038000D01*
X9063400Y1258450D01*
X9165000Y1258450D02*
Y1297050D01*
X9025700Y4977600D02*
X9029400Y4973900D01*
X9111950D01*
X9141000Y4944850D01*
Y4775200D01*
X9030700Y4644000D02*
X9106610D01*
X9141000Y4678390D01*
Y4775200D01*
D12*
X510200Y1342400D03*
Y1533400D03*
Y1727900D03*
X489700Y2142900D03*
X629700Y1966900D03*
X499700Y1952900D03*
X554700Y2167900D03*
X624700Y2347900D03*
Y2157900D03*
X640000Y6912900D03*
X700700Y1486900D03*
Y1671900D03*
X900000Y3510000D03*
X719750Y3517950D03*
X784700Y4977900D03*
X689700Y5237900D03*
X779700Y5292900D03*
X719700Y5347900D03*
X899700Y5272900D03*
X764700Y5227900D03*
X814700Y6487600D03*
X999700Y1065700D03*
X1145200Y1307400D03*
X1041700Y1984900D03*
Y2112900D03*
Y2244900D03*
X1039700Y2894900D03*
X999700Y3219900D03*
X1047700Y3154900D03*
X1029700Y3287900D03*
X1059700Y3349900D03*
X1046700Y3479900D03*
X1159100Y4697650D03*
X1027750Y4699000D03*
X1134700Y4767900D03*
X1084700Y5082900D03*
X1079700Y4972900D03*
X984700Y5072900D03*
X1084700Y5277900D03*
Y5177900D03*
X984700Y5277900D03*
X989700Y5557900D03*
X1084700Y5377900D03*
Y5477900D03*
X1034700Y5727900D03*
X1134700D03*
X1154700Y6537900D03*
X1430950Y706650D03*
X1239700Y977900D03*
X1419700Y1832900D03*
X1414700Y2142900D03*
X1329700Y2442900D03*
X1334700Y2504900D03*
X1321700Y2569900D03*
X1309700Y3414900D03*
X1418200Y3536400D03*
X1394700Y4282900D03*
X1289700Y4507900D03*
X1194700Y4332900D03*
X1284700Y4897900D03*
X1384700Y4977900D03*
X1379700Y5082900D03*
X1189540Y4978080D03*
X1294700Y4972900D03*
X1384700Y5277900D03*
X1194700Y5167900D03*
X1184700Y5282900D03*
X1384700Y5177900D03*
X1284700D03*
X1384700Y5472900D03*
X1234700Y5597900D03*
X1334700Y5607900D03*
X1284700Y5377900D03*
X1434700Y5602900D03*
X1684950Y1008150D03*
X1676700Y1386400D03*
X1611700Y1376400D03*
X1548200Y1392900D03*
X1483200Y1394400D03*
X1484700Y1852900D03*
X1569700Y2287900D03*
X1703130Y2587900D03*
X1662750Y2623790D03*
X1617750Y2665400D03*
X1534700Y2742900D03*
X1549700Y3147900D03*
X1483200Y3814400D03*
X1613200Y3816400D03*
X1678200Y3821400D03*
X1646700Y4477900D03*
X1534700Y4697900D03*
X1549700Y4637900D03*
X1483350Y5076940D03*
X1484700Y5187900D03*
X1489700Y5277900D03*
X1584700D03*
X1614700Y5472900D03*
Y5412900D03*
X1494700Y7332900D03*
X1810000Y1010000D03*
X1741700Y1391400D03*
X1808200D03*
X1970940Y2035950D03*
X1777900Y2462900D03*
X1742750Y2869000D03*
X1808200Y3549400D03*
X1873200Y3544400D03*
X1938200Y3546400D03*
X1979700Y4022900D03*
X1889700Y4077900D03*
X1934700Y5597900D03*
X1975000Y7582900D03*
X1825000Y7877900D03*
X2201700Y1376400D03*
X2224700Y1767900D03*
X2234700Y1837900D03*
X2192160Y1805870D03*
X2147750Y2069000D03*
X2222750Y2854000D03*
X1999700Y3452900D03*
X2004700Y3522900D03*
X2119700Y4317900D03*
X2089700Y4542900D03*
X2119700Y4607900D03*
X2204700Y5347900D03*
X2174700Y5277900D03*
X2169700Y5209700D03*
X2004700Y5532900D03*
X2026780Y5607900D03*
X2065950Y7041650D03*
X2125000Y7603200D03*
X2074700Y7907900D03*
X2004700D03*
X2179700Y8122900D03*
X2391700Y1402900D03*
X2326700D03*
X2266700Y1407900D03*
X2459700Y1387900D03*
X2512750Y2129000D03*
X2472750Y1979000D03*
Y1912900D03*
X2327750Y2804000D03*
X2292750Y2754000D03*
X2307750Y3007900D03*
X2470450Y3385260D03*
X2507750Y3284000D03*
X2263200Y3821400D03*
X2319700Y3887900D03*
X2269710Y4022900D03*
X2464700Y4642900D03*
X2469700Y4577900D03*
X2324700Y4765200D03*
X2459700Y4702900D03*
X2334200Y4828700D03*
Y4955700D03*
X2461200D03*
X2334200Y5082700D03*
X2461200Y5209700D03*
X2334200Y5717700D03*
X2461200Y5844700D03*
X2334200D03*
X2461200Y6606700D03*
X2399700Y6882900D03*
X2461200Y6733700D03*
X2334200D03*
X2275000Y7597900D03*
X2373530Y7859680D03*
X2409700Y8082900D03*
X2604700Y767900D03*
X2689700Y862900D03*
X2589700Y1392900D03*
X2626700Y1724900D03*
X2611700Y2094000D03*
X2636700Y2374900D03*
X2611120Y2331930D03*
X2629700Y2282900D03*
X2567750Y2179000D03*
X2626700Y2504900D03*
X2584700Y2907900D03*
X2547750Y2804000D03*
X2641700Y3154900D03*
X2557750Y3085950D03*
X2634700Y2959900D03*
X2624700Y3357900D03*
X2569700Y3497900D03*
X2685740Y4816120D03*
X2564700Y4697900D03*
X2594700Y4582900D03*
X2774700Y4700000D03*
X2717040Y4991710D03*
X2584700Y4947900D03*
X2579700Y5087900D03*
X2714700Y4932900D03*
X2588200Y5336700D03*
Y5209700D03*
X2715200D03*
X2709700Y5092900D03*
X2588200Y5463700D03*
X2715200D03*
X2714700Y5592900D03*
X2588200Y5717700D03*
X2715200Y5844700D03*
X2588200D03*
X2715200Y5971700D03*
X2588200Y6352700D03*
X2715200Y6225700D03*
Y6352700D03*
X2588200Y6606700D03*
X2719700Y6477900D03*
X2589700Y6937900D03*
X2726200D03*
X2559700Y6732900D03*
X2779700Y6867900D03*
X2524700Y6872900D03*
X2651700Y6867900D03*
X2715200Y6733700D03*
X2739700Y7387900D03*
X2575000Y7572900D03*
X2644700Y8012900D03*
X2675000Y7882900D03*
X2725000Y7942900D03*
X2565900Y8007900D03*
X2959700Y752600D03*
X2839700Y857900D03*
X2994700D03*
X3029700Y1492900D03*
X2899700Y1917900D03*
X2925000Y2432600D03*
X2896700Y2894900D03*
X2901700Y2764900D03*
X3009700Y3147900D03*
X2897700Y3219900D03*
X2891700Y3349900D03*
X2896700Y3479900D03*
X2924700Y4077900D03*
X2964700Y4473600D03*
X2969700Y4342900D03*
X2905700Y4317900D03*
X2954700Y4587900D03*
X2852750Y4572900D03*
X2964700Y4802900D03*
X2829700Y4968200D03*
X2834700Y5332900D03*
X2829700Y5212900D03*
X2969700Y6367200D03*
X2969200Y6606700D03*
Y6479700D03*
X2899700Y6938900D03*
X2994700Y6732900D03*
X2904700Y6867900D03*
X2825000Y7618200D03*
X2859700Y7527900D03*
X2875000Y7947900D03*
X2984700Y7997900D03*
X3025000Y7867900D03*
X2975000Y7922900D03*
X3200000Y773200D03*
X3129700Y857900D03*
X3094700Y1257900D03*
X3104700Y1457900D03*
X3174700Y1427900D03*
X3294700Y1572900D03*
X3286200Y1427900D03*
X3159700Y1992900D03*
X3204700Y2047900D03*
X3244700Y2152900D03*
X3169700Y2342900D03*
X3079700Y2237900D03*
X3104700Y2647900D03*
X3094700Y2532900D03*
X3099700Y2447900D03*
X3104700Y2825700D03*
X3109700Y2897900D03*
X3189700Y3137900D03*
X3244700Y3122900D03*
X3139700Y2982900D03*
X3126400Y4071200D03*
X3250000Y4065000D03*
X3219700Y4452900D03*
X3094700D03*
X3229700Y4357900D03*
X3089700Y4682900D03*
X3219700Y4607900D03*
X3224700Y4682900D03*
Y4817900D03*
X3094700Y4802900D03*
X3229700Y6367900D03*
X3209700Y6487900D03*
X3119700Y6607900D03*
X3223200Y6606700D03*
X3096200Y6860700D03*
X3223200Y6733700D03*
X3140000Y7010000D03*
X3079700Y7332900D03*
X3225000Y7613200D03*
X3125000Y7872600D03*
X3075000Y7892900D03*
X3175000Y7867900D03*
X3492240Y1219930D03*
X3464700Y1317900D03*
X3459700Y1257900D03*
X3484700Y1397900D03*
X3429700Y1622900D03*
Y1677900D03*
X3549700Y1717900D03*
X3479700Y1702900D03*
X3314700Y2022900D03*
X3444700Y2192900D03*
X3504700Y2297900D03*
X3524700Y2167900D03*
X3334700Y2397900D03*
X3319700Y2637900D03*
X3497750Y2595400D03*
X3354700Y2492900D03*
X3529700D03*
Y2892900D03*
Y2692900D03*
Y2992900D03*
Y3192900D03*
X3528460Y3096210D03*
X3429700Y2962900D03*
Y3192900D03*
X3529700Y3292900D03*
Y3392900D03*
X3429700D03*
X3329700D03*
X3429700Y3292900D03*
X3329700Y3492900D03*
X3379700Y3737900D03*
X3335350Y4437900D03*
X3354700Y4497900D03*
X3494700Y4677900D03*
X3354700Y4567900D03*
X3439700Y4572900D03*
X3464700Y4812900D03*
X3334700Y6367900D03*
X3350200Y6606700D03*
X3489700Y6492900D03*
X3364700Y6472900D03*
X3477200Y6860700D03*
X3350200Y6733700D03*
X3477200D03*
X3624700Y682900D03*
X3824700Y1602900D03*
X3604700Y2087900D03*
Y1997900D03*
X3814700Y2097900D03*
X3679700Y1892900D03*
X3629700Y2362900D03*
X3729700Y2292900D03*
X3728790Y2391740D03*
X3729700Y2592900D03*
Y2492900D03*
X3629700D03*
X3834700Y2587900D03*
X3829700Y2692900D03*
X3729700Y2892900D03*
X3829700D03*
X3629700D03*
X3654700Y2697900D03*
X3724700Y2772900D03*
X3629700Y3192900D03*
Y2992900D03*
Y3092900D03*
X3729700D03*
Y3192900D03*
X3829700Y2992900D03*
Y3292900D03*
X3834700Y3387900D03*
X3729700Y3292900D03*
X3629700Y3392900D03*
X3635000Y3485000D03*
X3829700Y3492900D03*
X3797070Y3653050D03*
X3695000Y3627900D03*
X3592700Y4577900D03*
X3719700Y4702900D03*
X3734700Y4577900D03*
X3839700Y4812900D03*
X3594700Y4817900D03*
X3699700Y6607900D03*
Y6482900D03*
X3834700Y6477900D03*
X3704700Y6867900D03*
X3789700D03*
X3834700Y6732900D03*
X3775000Y7583200D03*
X4044700Y1192700D03*
X3954700Y1202900D03*
X4014700Y1662900D03*
X4034700Y2117900D03*
X3874700Y1927900D03*
X4099700Y1932900D03*
X3925990Y2163200D03*
X3924700Y2307900D03*
X4029700Y2392900D03*
X3849700Y2187900D03*
X3924700Y2387900D03*
X3927430Y2495170D03*
X4029700Y2592900D03*
Y2892900D03*
X4024700Y2782900D03*
Y2692900D03*
X4029700Y3187900D03*
X3929700D03*
X4029700Y2992900D03*
X3929700Y3092900D03*
X4034700Y4287900D03*
X3894700Y4447900D03*
X4112200Y4320700D03*
Y4447700D03*
X3859700Y4577900D03*
X3994700Y4792900D03*
X3984700Y6382900D03*
X4112200Y6606700D03*
X3889700Y6872900D03*
X3985200Y6733700D03*
X3969700Y7012900D03*
X4009700Y7222900D03*
X3854700Y7467900D03*
X4049700Y7667900D03*
X4114700Y1692900D03*
X4259700D03*
X4349700Y1767900D03*
X4195190Y1847830D03*
X4309700Y1732900D03*
X4334700Y1912900D03*
X4329520Y2188060D03*
X4124700Y2197900D03*
X4129700Y2292900D03*
X4229700Y2392900D03*
X4329700Y2292900D03*
X4229700Y2492900D03*
Y2592900D03*
Y2792900D03*
X4324700Y2897900D03*
X4229700Y2892900D03*
X4234700Y2702900D03*
X4329700Y3192900D03*
X4129700Y3092900D03*
Y3192900D03*
X4229700D03*
Y2992900D03*
X4329700Y3092900D03*
X4224700Y3387900D03*
X4329700Y3477900D03*
X4129700Y3292900D03*
X4229700D03*
X4122700Y3392900D03*
X4329700Y3292900D03*
X4229700Y3762900D03*
X4332290Y4285770D03*
X4189700Y4297900D03*
X4366200Y4447700D03*
X4239200D03*
Y4574700D03*
X4114700Y4792900D03*
X4244700Y5132900D03*
X4199700Y6352900D03*
X4354700Y6362900D03*
X4371050Y6478700D03*
Y6605700D03*
X4244050Y6478700D03*
X4371050Y6732700D03*
X4500550Y703750D03*
X4509700Y1457900D03*
X4419450Y1618150D03*
X4469700Y1622900D03*
X4471420Y1893170D03*
X4429700Y2092900D03*
X4605800Y1896590D03*
X4624700Y2292900D03*
X4429700Y2392900D03*
Y2292900D03*
X4529700D03*
X4519700Y2402900D03*
X4634700Y2182900D03*
X4529700Y2492900D03*
Y2592900D03*
X4629700D03*
Y2422900D03*
X4429700Y2592900D03*
X4630000Y2790000D03*
X4629700Y2692900D03*
Y2892900D03*
X4531970Y2790630D03*
X4429700Y2792900D03*
Y2892900D03*
X4529700Y3092900D03*
X4629700Y2992900D03*
Y3092900D03*
X4429700Y3192900D03*
X4630000Y3190000D03*
X4529700Y3192900D03*
X4427430Y2990630D03*
X4629700Y3392900D03*
X4429700Y3292900D03*
Y3392900D03*
X4529700Y3292900D03*
Y3392900D03*
X4645000Y3305000D03*
X4479700Y3612900D03*
X4591670Y3701250D03*
X4629700Y3492900D03*
X4409700Y3622900D03*
X4529700Y3492900D03*
X4504700Y4297900D03*
X4493200Y4574700D03*
X4620200D03*
X4617700Y4704100D03*
X4384700Y4707900D03*
X4617700Y4831100D03*
Y4958100D03*
X4490700D03*
X4617700Y5085100D03*
X4490700D03*
Y4831100D03*
X4617700Y5212100D03*
X4490700D03*
X4617700Y5339100D03*
X4490700D03*
X4617700Y5593100D03*
Y5466100D03*
X4490700D03*
Y5593100D03*
X4495800Y5715000D03*
X4622800D03*
Y5842000D03*
X4495800D03*
X4622800Y5969000D03*
X4495800D03*
X4622800Y6096000D03*
X4495800D03*
X4622800Y6223000D03*
Y6350000D03*
X4495800Y6223000D03*
Y6350000D03*
Y6604000D03*
Y6477000D03*
X4622800Y6604000D03*
Y6477000D03*
X4616950Y6728900D03*
X4636950Y6848900D03*
X4495800Y6731000D03*
X4654450Y1618150D03*
X4849950D03*
X4845300Y1866240D03*
X4829700Y2092900D03*
X4724700Y2190630D03*
X4752370Y2302160D03*
X4819700Y2387900D03*
X4649700Y2492900D03*
X4729700Y2527900D03*
Y2592900D03*
Y2692900D03*
X4829700D03*
Y2992900D03*
Y3092900D03*
X4731560Y3191560D03*
X4729700Y2992900D03*
Y3092900D03*
X4829700Y3392900D03*
X4779700Y3695000D03*
X4729700Y3492900D03*
X4679700Y3612900D03*
X4829700Y3492900D03*
X4699700Y4162900D03*
X4864700Y4167900D03*
X4874200Y4320700D03*
X4747200Y4447700D03*
X4746850Y4724000D03*
X4747200Y4574700D03*
X4741950Y5068900D03*
X4731950Y5238900D03*
X4879700Y5400200D03*
X4741950Y5483900D03*
Y5773900D03*
X4746950Y6128900D03*
X4725250Y6601220D03*
X4746950Y6748900D03*
X5155000Y683200D03*
X5005000Y853200D03*
X5014450Y1618150D03*
X5179700Y1602900D03*
X4949700Y2142900D03*
X4984700Y2092900D03*
X5114700Y2348400D03*
X5144700Y2242900D03*
X4959700Y2392900D03*
X5134700Y2492740D03*
X5164700Y2642900D03*
X5114700Y2592900D03*
X5094700Y2452900D03*
X4969700Y2572900D03*
X4959700Y2942900D03*
X5044700Y2742900D03*
X4954700Y3147900D03*
X4969700Y3052900D03*
X5034700Y3167900D03*
X4959700Y3452900D03*
X4954700Y3242900D03*
X5095000Y3342900D03*
X4929700Y3592900D03*
X5134700Y4137900D03*
X5029700Y4162900D03*
X5121850Y4724000D03*
X5111050Y4978000D03*
X5111950Y5163900D03*
X4971950Y5318750D03*
X5118100Y5517750D03*
X5119800Y5826750D03*
X5024510Y6301860D03*
X5040000Y6406750D03*
X4999700Y6356750D03*
X5104240Y6461450D03*
X5349700Y642900D03*
X5384700Y1822900D03*
X5374700Y1997900D03*
X5430000Y2220000D03*
X5184700Y2380900D03*
X5224700Y2187900D03*
X5204700Y2562900D03*
X5304700Y2777900D03*
X5310000Y3450000D03*
X5347050Y4779000D03*
X5346850Y4674000D03*
X5376950Y4724000D03*
Y4619000D03*
X5346950Y5033000D03*
Y4928000D03*
X5376950Y4978000D03*
Y4873000D03*
Y5158750D03*
Y5263750D03*
X5346950Y5213750D03*
Y5318750D03*
X5376950Y5412750D03*
Y5517750D03*
X5346950Y5467750D03*
Y5572750D03*
X5376950Y5666750D03*
X5346950Y5826750D03*
X5376950Y5771750D03*
X5346950Y5721750D03*
X5265000Y6068900D03*
X5264700Y6122900D03*
X5386950Y6301750D03*
X5406950Y6378900D03*
X5351950Y6356750D03*
X5357450Y6438900D03*
X5368800Y6660750D03*
X5373800Y6555750D03*
X5340100Y6610750D03*
X5345100Y6715750D03*
X5386950Y6778900D03*
X5347800Y6864750D03*
X5391950Y6913900D03*
X5356950Y6969750D03*
X5674700Y677900D03*
X5509700D03*
X5555000Y843200D03*
X5669700Y892900D03*
X5694700Y1872900D03*
X5460000Y3330000D03*
X5829700Y672900D03*
Y837900D03*
X5980580Y1833320D03*
X5779700Y1632900D03*
X5759820Y1867900D03*
X5834700Y1842900D03*
X5930700Y1829780D03*
X5729700Y2077900D03*
X5879700Y2532900D03*
Y3031700D03*
X5989700Y677900D03*
X6144700Y687900D03*
X6005000Y842900D03*
X6155000Y848200D03*
X6059700Y1557900D03*
X6009700Y1507900D03*
X6074700Y1502900D03*
X6129700Y1862900D03*
X6044700Y1802900D03*
X6229700Y1732900D03*
X6029700Y2037900D03*
X6137600Y2140000D03*
X6141800Y2060000D03*
X6106800Y2020000D03*
X6059700Y2337900D03*
X6132600Y2620000D03*
X6089700Y2580000D03*
X6131800Y2540000D03*
X6117600Y2860000D03*
X6121800Y2740000D03*
X6104700Y3132900D03*
X6126800Y3220000D03*
X6054700Y3312900D03*
X6304700Y682900D03*
X6454700D03*
X6296900Y847880D03*
X6454700Y1142900D03*
X6419700Y2042900D03*
X6504700Y1977900D03*
X6424700Y2272900D03*
X6407600Y2660000D03*
X6414700Y3112900D03*
X6511950Y4263900D03*
X6326950Y4273900D03*
X6455000Y4155000D03*
X6346950Y4183900D03*
X6440000Y4263900D03*
X6496950Y4473900D03*
X6295310Y4498140D03*
X6341950Y4373900D03*
X6434800Y4400200D03*
X6426950Y4488900D03*
X6491950Y4773900D03*
X6331950Y4583900D03*
X6496950Y4674200D03*
X6447170Y4682290D03*
X6416950Y4968050D03*
X6386950Y4838900D03*
X6406950Y5025200D03*
X6431950Y5353900D03*
X6401950Y5225200D03*
X6381950Y5125200D03*
X6441950Y5858900D03*
X6507400Y5843900D03*
X6341950Y6111200D03*
X6306950Y5963900D03*
Y5898900D03*
X6431950Y6133900D03*
Y5974040D03*
X6311950Y6293900D03*
X6306950Y6207910D03*
X6512160Y6233900D03*
X6426950Y6358900D03*
X6511950Y6338900D03*
X6436950Y6243900D03*
X6511950Y6461400D03*
X6391950Y6607950D03*
X6376950Y6475900D03*
X6406950Y6723900D03*
X6389100Y6908800D03*
X6395450Y6807200D03*
X6381950Y7018900D03*
X6610000Y720000D03*
X6705000Y883200D03*
X6605000Y888200D03*
X6755000Y1127600D03*
X6555000D03*
X6549700Y2012900D03*
X6574700Y2067900D03*
X6759700Y2237900D03*
X6689700Y2322900D03*
X6654700Y2242900D03*
X6729700Y2497900D03*
X6754730Y2659770D03*
X6669700Y2726700D03*
X6710000Y3557600D03*
X6750000Y3522600D03*
X6590000Y3512600D03*
X6630000Y3557600D03*
X6670000Y3513200D03*
X6611950Y4203900D03*
X6607130Y4378740D03*
X6561950Y4573900D03*
X6566950Y4968900D03*
X6516950Y4958900D03*
X6601950Y5203900D03*
X6616950Y5124450D03*
X6518180Y5403900D03*
X6601950Y6063900D03*
X6611950Y5988900D03*
X6651950Y6207950D03*
X6607400Y6398900D03*
X6621950Y6607950D03*
X6636750Y6705600D03*
X6630400Y6819900D03*
X6610910Y6978900D03*
X6666950Y7053900D03*
X6790000Y1687900D03*
X6950490Y1683020D03*
X6939700Y2007900D03*
X6830000Y1967600D03*
X7034700Y2157900D03*
X6849700Y2442900D03*
X6839700Y2552900D03*
X6817750Y2759000D03*
X7009700Y2927900D03*
X6990000Y3238200D03*
X6830000Y3527600D03*
X6995000Y4185000D03*
X6831950Y4188900D03*
X6806950Y4368900D03*
X6916950Y4383900D03*
X6976950Y4483900D03*
X6856950Y4573900D03*
X6996950Y4763900D03*
X6911950Y4658900D03*
X6821950Y4653900D03*
X6981950Y4673900D03*
X6829910Y4881970D03*
X6821950Y4973900D03*
Y5078900D03*
X7002820Y4874710D03*
X6886950Y5178900D03*
X6982450Y5262690D03*
X6836950Y5253900D03*
X6921950Y5393900D03*
X6846950Y5368900D03*
X6921950Y5768900D03*
X6802700Y5994650D03*
X6786950Y6107950D03*
X6981950Y5968900D03*
X6821950Y5893900D03*
X6971950Y6058990D03*
X6816950Y6206650D03*
X6811950Y6288900D03*
X6804520Y6410780D03*
X6991950Y6188900D03*
X6916950Y6348900D03*
X6986950Y6368900D03*
X6822900Y6507950D03*
X6816950Y6607950D03*
X6999000Y6538900D03*
X6786950Y6693900D03*
X7016950Y6818900D03*
X6795500Y6802400D03*
X6806950Y6913900D03*
X7036000Y6707950D03*
X6801950Y7038900D03*
X7270000Y1967600D03*
X7310000Y2002900D03*
X7070000D03*
X7110000Y1967600D03*
X7150000Y2002900D03*
X7190000Y1967600D03*
X7230000Y2002900D03*
X7132750Y2914000D03*
X7310000Y2924000D03*
X7230000Y2864000D03*
X7124700Y3132900D03*
X7069700Y3147900D03*
X7110000Y3522600D03*
X7073290Y4272300D03*
X7080000Y4222750D03*
X7093780Y4418900D03*
X7151950Y4518980D03*
X7121950Y4338900D03*
X7206950Y4468900D03*
X7081950Y4723900D03*
X7103250Y4625200D03*
X7051950Y5025200D03*
X7101950Y5124450D03*
X7051950Y5813900D03*
X7116950Y6004520D03*
X7106950Y6107950D03*
X7086950Y6407950D03*
Y6207950D03*
X7126950Y6309300D03*
X7061950Y6598900D03*
X7071950Y6924870D03*
X7061950Y7053900D03*
X7350000Y1967600D03*
X7390000Y2002900D03*
X7430000Y1967600D03*
X7470000Y2002900D03*
X7510000Y1967600D03*
X7550000Y2002900D03*
X7430000Y3242900D03*
X7350000Y3522600D03*
X7510000Y3522900D03*
X7590000Y1967600D03*
X7630000Y2002900D03*
X7666800Y2380000D03*
X7667600Y2620000D03*
Y2540000D03*
X7666800Y2460000D03*
X7667600Y2780000D03*
X7666800Y2700000D03*
X7672600Y3180000D03*
Y3100000D03*
X7745000Y4270000D03*
X7755000Y4175000D03*
X7675000Y4530000D03*
X7740000Y4385000D03*
X7831950Y4498900D03*
X7741950Y4625200D03*
X7821950Y4808900D03*
X7836950Y4688900D03*
X7811500Y4965700D03*
X7798800Y5025200D03*
X7773400Y5334000D03*
X7786100Y5226050D03*
X7805150Y5124450D03*
X7702580Y6108450D03*
X7661950Y5923900D03*
X7717900Y5907950D03*
X7830000Y6063900D03*
X7706950Y6343900D03*
X7686950Y6183900D03*
X7838900Y6360140D03*
X7831950Y6178900D03*
X7805150Y6635750D03*
X7821950Y6465700D03*
X7786100Y6711950D03*
X7773400Y6908800D03*
X7779750Y6807200D03*
X7984700Y2100000D03*
Y2180000D03*
Y2260000D03*
Y2340000D03*
Y2500000D03*
Y2580000D03*
Y2740000D03*
Y2820000D03*
Y2900000D03*
Y2980000D03*
Y3060000D03*
Y3140000D03*
Y3220000D03*
X7870000Y4125000D03*
X8040000Y4210000D03*
X7895000Y4275000D03*
X8031950Y4538900D03*
X7965000Y4475000D03*
X8000000Y4300000D03*
X7910000Y4475000D03*
X8001950Y4658900D03*
X7986950Y4767200D03*
X8021950Y4833900D03*
X7991950Y4908900D03*
X8011950Y4983900D03*
X8026950Y5038900D03*
X8027400Y5226050D03*
X8033750Y5321300D03*
X7868650Y5863900D03*
X8014700Y6108700D03*
X8035000Y6007100D03*
X8031000Y5907950D03*
X7905000Y6045000D03*
X8011950Y6207950D03*
X7906950Y6263900D03*
X7911950Y6358900D03*
X8006950Y6438900D03*
X7906950Y6648900D03*
X8027400Y6711950D03*
Y6813550D03*
X7868650Y7080250D03*
X7886950Y6958900D03*
X7996950Y6963900D03*
X8310000Y4185000D03*
X8225200Y4225200D03*
X8191950Y4525200D03*
X8205200Y4325200D03*
X8225200Y4425200D03*
X8291950Y4368900D03*
X8324970Y4775870D03*
X8225200Y4625200D03*
X8191950Y4725200D03*
X8226950Y4925200D03*
X8305660Y4879200D03*
X8195650Y5025200D03*
X8180650Y5125200D03*
X8186950Y5226050D03*
X8216950Y5325200D03*
X8351250Y5858900D03*
X8179800Y6007100D03*
Y6102350D03*
Y5905500D03*
X8321950Y6158900D03*
X8179800Y6203950D03*
X8206950Y6307950D03*
X8179800Y6407150D03*
X8371950Y6258900D03*
X8311950Y6338900D03*
X8206950Y6478900D03*
X8186950Y6628900D03*
X8306800Y6551700D03*
X8326950Y6448900D03*
X8179800Y6705600D03*
Y6807200D03*
X8205200Y6908800D03*
X8179800Y7004050D03*
X8475000Y4225200D03*
X8500000Y4324350D03*
X8475000Y4425950D03*
X8500000Y4525200D03*
X8409650Y4486390D03*
X8406950Y4373900D03*
X8541950Y4708900D03*
X8475000Y4625200D03*
X8411950Y4668900D03*
X8414750Y4921250D03*
X8433800Y5022850D03*
Y5124450D03*
Y5226050D03*
Y5321300D03*
X8429950Y5855900D03*
X8503650Y6007100D03*
X8510000Y6108700D03*
X8456950Y5953900D03*
Y6058900D03*
X8510000Y6407150D03*
Y6305550D03*
X8408400Y6604000D03*
X8416000Y6807950D03*
X8426000Y6907950D03*
X8436000Y6707950D03*
X8426950Y7008900D03*
X8765200Y4570900D03*
X8771250Y4977600D03*
X8765200Y6380650D03*
X8770450Y6692900D03*
D13*
X6392950Y4225200D03*
X6472950D03*
X6392950Y4525200D03*
X6472950D03*
X6392950Y4425200D03*
X6472950D03*
X6392950Y4325200D03*
X6472950D03*
Y4825200D03*
X6392950Y4725200D03*
X6472950D03*
X6392950Y4625200D03*
X6472950D03*
Y5025200D03*
Y4925200D03*
Y5325200D03*
Y5225200D03*
Y5125200D03*
X6392950Y6107950D03*
X6472950D03*
X6392950Y6007950D03*
X6472950D03*
X6392950Y5907950D03*
X6472950D03*
X6392950Y6407950D03*
X6472950D03*
X6392950Y6307950D03*
X6472950D03*
X6392950Y6207950D03*
X6472950D03*
Y6607950D03*
Y6507950D03*
Y6907950D03*
Y6807950D03*
Y6707950D03*
Y7007950D03*
X6552950Y4225200D03*
Y4525200D03*
Y4425200D03*
Y4325200D03*
Y4825200D03*
Y4725200D03*
Y4625200D03*
Y5025200D03*
Y4925200D03*
Y5325200D03*
Y5225200D03*
Y5125200D03*
Y6107950D03*
Y6007950D03*
Y5907950D03*
Y6407950D03*
Y6307950D03*
Y6207950D03*
Y6607950D03*
Y6507950D03*
Y6907950D03*
Y6807950D03*
Y6707950D03*
Y7007950D03*
X6872950Y4225200D03*
X6952950D03*
X7032950D03*
X6872950Y4525200D03*
X6952950D03*
X7032950D03*
X6872950Y4425200D03*
X6952950D03*
X7032950D03*
X6872950Y4325200D03*
X6952950D03*
X7032950D03*
X6872950Y4825200D03*
X6952950D03*
X6872950Y4725200D03*
X6952950D03*
X7032950D03*
X6872950Y4625200D03*
X6952950D03*
X7032950D03*
X6872950Y5025200D03*
X6952950D03*
X6872950Y4925200D03*
X6952950D03*
X6872950Y5325200D03*
X6952950D03*
X6872950Y5225200D03*
X6952950D03*
X6872950Y5125200D03*
X6952950D03*
X6872950Y6107950D03*
X6952950D03*
X7032950D03*
X6872950Y6007950D03*
X6952950D03*
X7032950D03*
X6872950Y5907950D03*
X6952950D03*
X7032950D03*
X6872950Y6407950D03*
X6952950D03*
X7032950D03*
X6872950Y6307950D03*
X6952950D03*
X7032950D03*
X6872950Y6207950D03*
X6952950D03*
X7032950D03*
X6872950Y6607950D03*
X6952950D03*
X6872950Y6507950D03*
X6952950D03*
X6872950Y6907950D03*
X6952950D03*
X6872950Y6807950D03*
X6952950D03*
X6872950Y6707950D03*
X6952950D03*
X6872950Y7007950D03*
X6952950D03*
X7789950Y4225200D03*
Y4525200D03*
Y4425200D03*
Y4325200D03*
Y4725200D03*
Y4625200D03*
Y6107950D03*
Y6007950D03*
Y5907950D03*
Y6407950D03*
Y6307950D03*
Y6207950D03*
X7869950Y4225200D03*
X7949950D03*
X7869950Y4525200D03*
X7949950D03*
X7869950Y4425200D03*
X7949950D03*
X7869950Y4325200D03*
X7949950D03*
X7869950Y4825200D03*
X7949950D03*
X7869950Y4725200D03*
X7949950D03*
X7869950Y4625200D03*
X7949950D03*
X7869950Y5025200D03*
X7949950D03*
X7869950Y4925200D03*
X7949950D03*
X7869950Y5325200D03*
X7949950D03*
X7869950Y5225200D03*
X7949950D03*
X7869950Y5125200D03*
X7949950D03*
X7869950Y6107950D03*
X7949950D03*
X7869950Y6007950D03*
X7949950D03*
X7869950Y5907950D03*
X7949950D03*
X7869950Y6407950D03*
X7949950D03*
X7869950Y6307950D03*
X7949950D03*
X7869950Y6207950D03*
X7949950D03*
X7869950Y6607950D03*
X7949950D03*
X7869950Y6507950D03*
X7949950D03*
X7869950Y6907950D03*
X7949950D03*
X7869950Y6807950D03*
X7949950D03*
X7869950Y6707950D03*
X7949950D03*
X7869950Y7007950D03*
X7949950D03*
X8269950Y4225200D03*
X8349950D03*
X8269950Y4525200D03*
X8349950D03*
X8269950Y4425200D03*
X8349950D03*
X8269950Y4325200D03*
X8349950D03*
X8269950Y4825200D03*
X8349950D03*
X8269950Y4725200D03*
X8349950D03*
X8269950Y4625200D03*
X8349950D03*
X8269950Y5025200D03*
X8349950D03*
X8269950Y4925200D03*
X8349950D03*
X8269950Y5325200D03*
X8349950D03*
X8269950Y5225200D03*
X8349950D03*
X8269950Y5125200D03*
X8349950D03*
X8269950Y6107950D03*
X8349950D03*
X8269950Y6007950D03*
X8349950D03*
X8269950Y5907950D03*
X8349950D03*
X8269950Y6407950D03*
X8349950D03*
X8269950Y6307950D03*
X8349950D03*
X8269950Y6207950D03*
X8349950D03*
X8269950Y6607950D03*
X8349950D03*
X8269950Y6507950D03*
X8349950D03*
X8269950Y6907950D03*
X8349950D03*
X8269950Y6807950D03*
X8349950D03*
X8269950Y6707950D03*
X8349950D03*
X8269950Y7007950D03*
X8349950D03*
X8429950Y4225200D03*
Y4525200D03*
Y4425200D03*
Y4325200D03*
Y4725200D03*
Y4625200D03*
Y6107950D03*
Y6007950D03*
Y5907950D03*
Y6407950D03*
Y6307950D03*
Y6207950D03*
D14*
X834700Y4827900D03*
Y5027900D03*
Y4927900D03*
Y5327900D03*
Y5227900D03*
Y5127900D03*
Y5527900D03*
Y5427900D03*
X934700Y4827900D03*
X1034700D03*
X1134700D03*
X934700Y5027900D03*
X1034700D03*
X1134700D03*
X934700Y4927900D03*
X1034700D03*
X1134700D03*
X934700Y5327900D03*
X1034700D03*
X1134700D03*
X934700Y5227900D03*
X1034700D03*
X1134700D03*
X934700Y5127900D03*
X1034700D03*
X1134700D03*
X934700Y5527900D03*
X1034700D03*
X1134700D03*
X934700Y5427900D03*
X1034700D03*
X1134700D03*
X1234700Y4827900D03*
X1334700D03*
X1434700D03*
X1234700Y5027900D03*
X1334700D03*
X1434700D03*
X1234700Y4927900D03*
X1334700D03*
X1434700D03*
X1234700Y5327900D03*
X1334700D03*
X1434700D03*
X1234700Y5227900D03*
X1334700D03*
X1434700D03*
X1234700Y5127900D03*
X1334700D03*
X1434700D03*
X1234700Y5527900D03*
X1334700D03*
X1434700D03*
X1234700Y5427900D03*
X1334700D03*
X1434700D03*
X1534700Y4827900D03*
Y5027900D03*
Y4927900D03*
Y5327900D03*
Y5227900D03*
Y5127900D03*
Y5527900D03*
Y5427900D03*
X3379700Y2042900D03*
Y2142900D03*
X3479700Y2042900D03*
Y2142900D03*
X3579700Y2042900D03*
Y2142900D03*
X3379700Y2242900D03*
Y2342900D03*
X3479700Y2242900D03*
Y2342900D03*
X3579700Y2242900D03*
Y2342900D03*
X3379700Y2442900D03*
Y2542900D03*
Y2642900D03*
X3479700Y2442900D03*
Y2542900D03*
Y2642900D03*
X3579700Y2442900D03*
Y2542900D03*
Y2642900D03*
X3379700Y2742900D03*
Y2842900D03*
Y2942900D03*
X3479700Y2742900D03*
Y2842900D03*
Y2942900D03*
X3579700Y2742900D03*
Y2842900D03*
Y2942900D03*
X3379700Y3042900D03*
Y3142900D03*
X3479700Y3042900D03*
Y3142900D03*
X3579700Y3042900D03*
Y3142900D03*
X3379700Y3242900D03*
Y3342900D03*
Y3442900D03*
X3479700Y3242900D03*
Y3342900D03*
Y3442900D03*
X3579700Y3242900D03*
Y3342900D03*
Y3442900D03*
X3379700Y3542900D03*
X3479700D03*
X3579700D03*
X3679700Y2042900D03*
Y2142900D03*
X3779700Y2042900D03*
Y2142900D03*
X3679700Y2242900D03*
Y2342900D03*
X3779700Y2242900D03*
Y2342900D03*
X3679700Y2442900D03*
Y2542900D03*
Y2642900D03*
X3779700Y2442900D03*
Y2542900D03*
Y2642900D03*
X3679700Y2742900D03*
Y2842900D03*
Y2942900D03*
X3779700Y2742900D03*
Y2842900D03*
Y2942900D03*
X3679700Y3042900D03*
Y3142900D03*
X3779700Y3042900D03*
Y3142900D03*
X3679700Y3242900D03*
Y3342900D03*
Y3442900D03*
X3779700Y3242900D03*
Y3342900D03*
Y3442900D03*
X3679700Y3542900D03*
X3779700D03*
X3879700Y2042900D03*
Y2142900D03*
X3979700Y2042900D03*
Y2142900D03*
X4079700Y2042900D03*
Y2142900D03*
X3879700Y2242900D03*
Y2342900D03*
X3979700Y2242900D03*
Y2342900D03*
X4079700Y2242900D03*
Y2342900D03*
X3879700Y2442900D03*
Y2542900D03*
Y2642900D03*
X3979700Y2442900D03*
Y2542900D03*
Y2642900D03*
X4079700Y2442900D03*
Y2542900D03*
Y2642900D03*
X3879700Y2742900D03*
Y2842900D03*
Y2942900D03*
X3979700Y2742900D03*
Y2842900D03*
Y2942900D03*
X4079700Y2742900D03*
Y2842900D03*
Y2942900D03*
X3879700Y3042900D03*
Y3142900D03*
X3979700Y3042900D03*
Y3142900D03*
X4079700Y3042900D03*
Y3142900D03*
X3879700Y3242900D03*
Y3342900D03*
Y3442900D03*
X3979700Y3242900D03*
Y3342900D03*
Y3442900D03*
X4079700Y3242900D03*
Y3342900D03*
Y3442900D03*
X3879700Y3542900D03*
X3979700D03*
X4079700D03*
X4179700Y2042900D03*
Y2142900D03*
X4279700Y2042900D03*
Y2142900D03*
X4379700Y2042900D03*
Y2142900D03*
X4179700Y2242900D03*
Y2342900D03*
X4279700Y2242900D03*
Y2342900D03*
X4379700Y2242900D03*
Y2342900D03*
X4179700Y2442900D03*
Y2542900D03*
Y2642900D03*
X4279700Y2442900D03*
Y2542900D03*
Y2642900D03*
X4379700Y2442900D03*
Y2542900D03*
Y2642900D03*
X4179700Y2742900D03*
Y2842900D03*
Y2942900D03*
X4279700Y2742900D03*
Y2842900D03*
Y2942900D03*
X4379700Y2742900D03*
Y2842900D03*
Y2942900D03*
X4179700Y3042900D03*
Y3142900D03*
X4279700Y3042900D03*
Y3142900D03*
X4379700Y3042900D03*
Y3142900D03*
X4179700Y3242900D03*
Y3342900D03*
Y3442900D03*
X4279700Y3242900D03*
Y3342900D03*
Y3442900D03*
X4379700Y3242900D03*
Y3342900D03*
Y3442900D03*
X4179700Y3542900D03*
X4279700D03*
X4379700D03*
X4479700Y2042900D03*
Y2142900D03*
X4579700Y2042900D03*
Y2142900D03*
X4479700Y2242900D03*
Y2342900D03*
X4579700Y2242900D03*
Y2342900D03*
X4479700Y2442900D03*
Y2542900D03*
Y2642900D03*
X4579700Y2442900D03*
Y2542900D03*
Y2642900D03*
X4479700Y2742900D03*
Y2842900D03*
Y2942900D03*
X4579700Y2742900D03*
Y2842900D03*
Y2942900D03*
X4479700Y3042900D03*
Y3142900D03*
X4579700Y3042900D03*
Y3142900D03*
X4479700Y3242900D03*
Y3342900D03*
Y3442900D03*
X4579700Y3242900D03*
Y3342900D03*
Y3442900D03*
X4479700Y3542900D03*
X4579700D03*
X4679700Y2042900D03*
Y2142900D03*
X4779700Y2042900D03*
Y2142900D03*
X4879700Y2042900D03*
Y2142900D03*
X4679700Y2242900D03*
Y2342900D03*
X4779700Y2242900D03*
Y2342900D03*
X4879700Y2242900D03*
Y2342900D03*
X4679700Y2442900D03*
Y2542900D03*
Y2642900D03*
X4779700Y2442900D03*
Y2542900D03*
Y2642900D03*
X4879700Y2442900D03*
Y2542900D03*
Y2642900D03*
X4679700Y2742900D03*
Y2842900D03*
Y2942900D03*
X4779700Y2742900D03*
Y2842900D03*
Y2942900D03*
X4879700Y2742900D03*
Y2842900D03*
Y2942900D03*
X4679700Y3042900D03*
Y3142900D03*
X4779700Y3042900D03*
Y3142900D03*
X4879700Y3042900D03*
Y3142900D03*
X4679700Y3242900D03*
Y3342900D03*
Y3442900D03*
X4779700Y3242900D03*
Y3342900D03*
Y3442900D03*
X4879700Y3242900D03*
Y3342900D03*
Y3442900D03*
X4679700Y3542900D03*
X4779700D03*
X4879700D03*
D15*
X634700Y4527900D03*
Y5827900D03*
X1734700D03*
X2254200Y4240700D03*
X3279700Y1942900D03*
Y3642900D03*
X4979700Y1942900D03*
X4954200Y4240700D03*
Y6940700D03*
X6212950Y4175200D03*
Y5375200D03*
Y5857950D03*
Y7057950D03*
X7212950Y5375200D03*
Y7057950D03*
X7609950Y4175200D03*
Y5375200D03*
Y5857950D03*
Y7057950D03*
X8609950Y5375200D03*
Y7057950D03*
D16*
X2524700Y4384200D03*
X2397700D03*
X2524700Y4511200D03*
X2397700D03*
X2524700Y4638200D03*
X2397700D03*
X2524700Y4765200D03*
X2397700D03*
X2524700Y4892200D03*
X2397700D03*
X2524700Y5019200D03*
X2397700D03*
X2524700Y5146200D03*
X2397700D03*
X2524700Y5273200D03*
X2397700D03*
X2524700Y5400200D03*
X2397700D03*
X2524700Y5527200D03*
X2397700D03*
X2524700Y5654200D03*
X2397700D03*
X2524700Y5781200D03*
X2397700D03*
X2524700Y5908200D03*
X2397700D03*
X2524700Y6035200D03*
X2397700D03*
X2524700Y6162200D03*
X2397700D03*
X2524700Y6289200D03*
X2397700D03*
X2524700Y6416200D03*
X2397700D03*
X2524700Y6543200D03*
X2397700D03*
X2524700Y6670200D03*
X2397700D03*
X2524700Y6797200D03*
X2397700D03*
X2778700Y4384200D03*
X2651700D03*
X2778700Y4511200D03*
X2651700D03*
X2778700Y4638200D03*
X2651700D03*
X2778700Y4765200D03*
X2651700D03*
X2778700Y4892200D03*
X2651700D03*
X2778700Y5019200D03*
X2651700D03*
X2778700Y5146200D03*
X2651700D03*
X2778700Y5273200D03*
X2651700D03*
X2778700Y5400200D03*
X2651700D03*
X2778700Y5527200D03*
X2651700D03*
X2778700Y5654200D03*
X2651700D03*
X2778700Y5781200D03*
X2651700D03*
X2778700Y5908200D03*
X2651700D03*
X2778700Y6035200D03*
X2651700D03*
X2778700Y6162200D03*
X2651700D03*
X2778700Y6289200D03*
X2651700D03*
X2778700Y6416200D03*
X2651700D03*
X2778700Y6543200D03*
X2651700D03*
X2778700Y6670200D03*
X2651700D03*
X2778700Y6797200D03*
X2651700D03*
X3032700Y4384200D03*
X2905700D03*
X3032700Y4511200D03*
X2905700D03*
X3032700Y4638200D03*
X2905700D03*
X3032700Y4765200D03*
X2905700D03*
X3032700Y6416200D03*
X2905700D03*
X3032700Y6543200D03*
X2905700D03*
X3032700Y6670200D03*
X2905700D03*
X3032700Y6797200D03*
X2905700D03*
X3286700Y4384200D03*
X3159700D03*
X3286700Y4511200D03*
X3159700D03*
X3286700Y4638200D03*
X3159700D03*
X3286700Y4765200D03*
X3159700D03*
X3286700Y6416200D03*
X3159700D03*
X3286700Y6543200D03*
X3159700D03*
X3286700Y6670200D03*
X3159700D03*
X3286700Y6797200D03*
X3159700D03*
X3540700Y4384200D03*
X3413700D03*
X3540700Y4511200D03*
X3413700D03*
X3540700Y4638200D03*
X3413700D03*
X3540700Y4765200D03*
X3413700D03*
X3540700Y5400200D03*
X3413700D03*
X3540700Y5527200D03*
X3413700D03*
X3540700Y5654200D03*
X3413700D03*
X3540700Y5781200D03*
X3413700D03*
X3540700Y6416200D03*
X3413700D03*
X3540700Y6543200D03*
X3413700D03*
X3540700Y6670200D03*
X3413700D03*
X3540700Y6797200D03*
X3413700D03*
X3794700Y4384200D03*
X3667700D03*
X3794700Y4511200D03*
X3667700D03*
X3794700Y4638200D03*
X3667700D03*
X3794700Y4765200D03*
X3667700D03*
X3794700Y5400200D03*
X3667700D03*
X3794700Y5527200D03*
X3667700D03*
X3794700Y5654200D03*
X3667700D03*
X3794700Y5781200D03*
X3667700D03*
X3794700Y6416200D03*
X3667700D03*
X3794700Y6543200D03*
X3667700D03*
X3794700Y6670200D03*
X3667700D03*
X3794700Y6797200D03*
X3667700D03*
X4048700Y4384200D03*
X3921700D03*
X4048700Y4511200D03*
X3921700D03*
X4048700Y4638200D03*
X3921700D03*
X4048700Y4765200D03*
X3921700D03*
X4048700Y6416200D03*
X3921700D03*
X4048700Y6543200D03*
X3921700D03*
X4048700Y6670200D03*
X3921700D03*
X4048700Y6797200D03*
X3921700D03*
X4302700Y4384200D03*
X4175700D03*
X4302700Y4511200D03*
X4175700D03*
X4302700Y4638200D03*
X4175700D03*
X4302700Y4765200D03*
X4175700D03*
X4302700Y6416200D03*
X4175700D03*
X4302700Y6543200D03*
X4175700D03*
X4302700Y6670200D03*
X4175700D03*
X4302700Y6797200D03*
X4175700D03*
X4556700Y4384200D03*
X4429700D03*
X4556700Y4511200D03*
X4429700D03*
X4556700Y4638200D03*
X4429700D03*
X4556700Y4765200D03*
X4429700D03*
X4556700Y4892200D03*
X4429700D03*
X4556700Y5019200D03*
X4429700D03*
X4556700Y5146200D03*
X4429700D03*
X4556700Y5273200D03*
X4429700D03*
X4556700Y5400200D03*
X4429700D03*
X4556700Y5527200D03*
X4429700D03*
X4556700Y5654200D03*
X4429700D03*
X4556700Y5781200D03*
X4429700D03*
X4556700Y5908200D03*
X4429700D03*
X4556700Y6035200D03*
X4429700D03*
X4556700Y6162200D03*
X4429700D03*
X4556700Y6289200D03*
X4429700D03*
X4556700Y6416200D03*
X4429700D03*
X4556700Y6543200D03*
X4429700D03*
X4556700Y6670200D03*
X4429700D03*
X4556700Y6797200D03*
X4429700D03*
X4810700Y4384200D03*
X4683700D03*
X4810700Y4511200D03*
X4683700D03*
X4810700Y4638200D03*
X4683700D03*
X4810700Y4765200D03*
X4683700D03*
X4810700Y4892200D03*
X4683700D03*
X4810700Y5019200D03*
X4683700D03*
X4810700Y5146200D03*
X4683700D03*
X4810700Y5273200D03*
X4683700D03*
X4810700Y5400200D03*
X4683700D03*
X4810700Y5527200D03*
X4683700D03*
X4810700Y5654200D03*
X4683700D03*
X4810700Y5781200D03*
X4683700D03*
X4810700Y5908200D03*
X4683700D03*
X4810700Y6035200D03*
X4683700D03*
X4810700Y6162200D03*
X4683700D03*
X4810700Y6289200D03*
X4683700D03*
X4810700Y6416200D03*
X4683700D03*
X4810700Y6543200D03*
X4683700D03*
X4810700Y6670200D03*
X4683700D03*
X4810700Y6797200D03*
X4683700D03*
D17*
X509700Y2917900D03*
Y2802900D03*
Y3027900D03*
Y3212900D03*
X510200Y3396150D03*
Y3586650D03*
Y3777150D03*
Y3967650D03*
X504700Y4107900D03*
X529700Y4682900D03*
X637750Y5729000D03*
X849700Y1742900D03*
Y2037900D03*
X874100Y2442190D03*
X878120Y2838420D03*
X894700Y3260000D03*
X934700Y5724000D03*
X869700Y6922900D03*
X850000Y7197900D03*
X814700Y7587900D03*
X964700Y3657900D03*
X1159700Y7082900D03*
X1244900Y660000D03*
X1329900Y1192700D03*
X1454700Y1962900D03*
X1332700Y2829900D03*
X1342190Y3022900D03*
X1399700Y3447900D03*
X1219700Y3667900D03*
X1272200Y5857900D03*
X1430950Y5861650D03*
X1272200Y5957900D03*
X1279810Y6621950D03*
X1361650Y7510950D03*
X1314700Y7822900D03*
X1684950Y430050D03*
X1713370Y5047140D03*
X1699700Y5487900D03*
X1484700Y6967900D03*
X1557950Y6872900D03*
X1544700Y7191700D03*
X1625000Y7592900D03*
X1557950Y7987900D03*
X1675000Y7887900D03*
X1557950Y8332900D03*
X1933800Y803900D03*
X1964500Y1192700D03*
X1874700Y1667900D03*
X1936850Y1818520D03*
X1814700Y3017900D03*
X1834700Y4792900D03*
X1849700Y5987900D03*
X1854200Y6412400D03*
X1875450Y7192900D03*
X1907200Y7301400D03*
X1875450Y8337900D03*
X2050000Y685000D03*
Y1135000D03*
X2077200Y1347900D03*
X2244700Y3522900D03*
X2204700Y5722900D03*
X2192950Y7491900D03*
X2097700Y7301400D03*
X2030770Y7986550D03*
X2034200Y8337900D03*
X2419700Y892900D03*
X2434700Y1822900D03*
X2294700Y5282900D03*
X2460000Y5970000D03*
Y6225000D03*
X2335000D03*
X2351700Y7190900D03*
X2399700Y7342900D03*
X2288200Y7301400D03*
X2423860Y7918620D03*
X2351700Y8342900D03*
X2554700Y1822900D03*
X2596010Y2578780D03*
X2793400Y3976310D03*
X2586630Y5973370D03*
X2724700Y7577900D03*
X2796200Y8012900D03*
X2891450Y531150D03*
X2915000Y1770000D03*
X2859700Y3882900D03*
X2827950Y7202900D03*
X2869700Y8277900D03*
X3054700D03*
X3081950Y527900D03*
X3249700Y1772900D03*
X3149700Y3687900D03*
X3284700Y3807900D03*
X3304000Y5527200D03*
X3307000Y5400200D03*
X3306000Y5654200D03*
X3314700Y5781200D03*
X3324700Y7357900D03*
X3144700Y7577900D03*
X3139700Y8042900D03*
X3234700Y8277900D03*
X3558350Y1624900D03*
X3413700Y5258900D03*
X3540700Y5263900D03*
X3413700Y5896900D03*
X3540700Y5893900D03*
X3604700Y7202900D03*
X3612200Y7333150D03*
X3514700Y7892900D03*
X3599700Y8277900D03*
X3414700D03*
X3646800Y545000D03*
X3664700Y757900D03*
X3689700Y1207900D03*
X3667700Y5269900D03*
X3794700Y5897900D03*
X3667700Y5895900D03*
X3714700Y7197900D03*
X3853500Y8189100D03*
X3779700Y8277900D03*
X3901000Y5654200D03*
X3902000Y5400200D03*
X3904000Y5527200D03*
X3949700Y7357900D03*
X4124700Y7907900D03*
X4139700Y8277900D03*
X3959700D03*
X4199700Y7172900D03*
X4259700Y7337900D03*
X4596700Y1772900D03*
X4544700Y3762900D03*
X4542450Y3987550D03*
X4439700Y3967900D03*
X4940000Y7635000D03*
X4800900Y8174100D03*
X4874700Y8292900D03*
X5205000Y548200D03*
X5019700Y487900D03*
X5159700Y1712900D03*
X5191190Y2715740D03*
X4965000Y2835000D03*
X5037750Y3445000D03*
X4955200Y7428400D03*
X5114700Y7907900D03*
X5144700Y8262900D03*
X5393350Y1676550D03*
X5284700Y3090400D03*
X5264700Y4327900D03*
X5348150Y7159450D03*
X5347900Y8262900D03*
X5449500D03*
X5246300D03*
X5514700Y547900D03*
X5745300Y2627900D03*
X5524700Y7428400D03*
X5551100Y8262900D03*
X5652700D03*
X5959700Y512900D03*
X5994700Y2287900D03*
X5872200Y3110400D03*
X5879700Y3337900D03*
X5819700Y3677900D03*
X5754700Y7517900D03*
X5749700Y7402900D03*
X5869600Y8237800D03*
X6264700Y3797900D03*
X6021300Y7320000D03*
X6044700Y8187900D03*
X6034700Y8087900D03*
X6369700Y507900D03*
X6344700Y1782900D03*
X6474700Y3797900D03*
X6655000Y513200D03*
X6804700Y2082400D03*
X6591300Y7321300D03*
X6694700Y8262900D03*
X6809700Y8097900D03*
X6959700Y3607900D03*
X7064900Y5517700D03*
X6987200Y7955400D03*
X6919700Y8097900D03*
X7302500Y684700D03*
X7114000Y2147320D03*
X7119700Y3842900D03*
X7158450Y7396650D03*
X7129700Y7562900D03*
X7154700Y8252900D03*
X7256300D03*
X7435800Y976800D03*
X7509700Y3202900D03*
X7414700Y3662900D03*
X7577750Y3727900D03*
X7574700Y5517700D03*
X7561100Y8252900D03*
X7459500D03*
X7357900D03*
X7719700Y507900D03*
X7794700Y1822900D03*
X7670000Y1662900D03*
X7642600Y2185000D03*
X7644910Y2078960D03*
X7649700Y2300000D03*
X7739700Y3497900D03*
X7619700Y3582900D03*
X7839700Y3840650D03*
X7849700Y5517700D03*
X7773400Y7061200D03*
X7865900Y8252900D03*
X7764300D03*
X7662700D03*
X7907950Y966150D03*
X8088950Y1237150D03*
X7954700Y1907900D03*
X7987600Y2020000D03*
X7929700Y3577900D03*
X8104700Y5517700D03*
X8114700Y7687900D03*
X8029700Y7647900D03*
X8289700Y1692900D03*
Y2140000D03*
X8164700Y1948350D03*
X8279700Y2302900D03*
X8156750Y2684950D03*
X8259700Y3047900D03*
X8221950Y5417900D03*
X8174700Y7212900D03*
X8559700Y1072900D03*
X8592700Y2665900D03*
X8589700Y2507900D03*
X8595200Y2983400D03*
X8594700Y2824650D03*
X8424700Y2762900D03*
X8595450Y3142150D03*
X8589700Y3657900D03*
X8604700Y3812900D03*
X8604900Y5517700D03*
X8927700Y1395900D03*
X8932950Y2189650D03*
X8941700Y2665900D03*
X8930300Y3663500D03*
X8802100Y4257900D03*
X8779700Y4887900D03*
X8797100Y5285000D03*
X8684700Y6130500D03*
X8769700Y6287900D03*
X8776700Y6527800D03*
X8686000Y6908800D03*
X8754700Y7257900D03*
X8744700Y7877900D03*
X8948950Y3142150D03*
X9124700Y4478840D03*
X9141000Y4775200D03*
X9000300Y5295100D03*
X9005100Y5975000D03*
X9131000Y6527800D03*
X9005300Y7061200D03*
D18*
X510200Y1268900D03*
X700700Y1332400D03*
Y1554650D03*
X510200Y1459400D03*
Y1649900D03*
Y1872150D03*
X700700Y1745150D03*
Y2157900D03*
Y1967400D03*
X510200Y2062650D03*
X700700Y2348400D03*
X510200Y2253150D03*
Y2443650D03*
X509700Y2622900D03*
X1584700Y4172900D03*
X2034200Y3967650D03*
X1974700Y4172900D03*
X1784700D03*
X1980700Y6470150D03*
Y6660650D03*
Y6851150D03*
Y7041650D03*
X2224700Y3967650D03*
X2415200D03*
X2796200D03*
X2605700D03*
X3355850Y1434400D03*
X3152750Y1624900D03*
X3355550D03*
X3304200Y3967650D03*
X3558650Y1434400D03*
X3494700Y3967650D03*
X3748700Y1618150D03*
X3685200Y3967650D03*
X3875700D03*
X3939200Y1618150D03*
X4066200Y3967650D03*
X4351950Y1618150D03*
X4256700Y3967650D03*
X4320200Y7237900D03*
X4542450Y1618150D03*
X4649700Y3967900D03*
X4923450Y1618150D03*
X4732950D03*
X4828200Y3967650D03*
Y7237900D03*
X5082200Y1618150D03*
X5018700Y3967650D03*
X5304700Y1822900D03*
Y2002900D03*
X5304450Y2189650D03*
Y2380150D03*
X5299700Y2862900D03*
X5309700Y3527900D03*
Y3342900D03*
Y3712900D03*
D19*
X500000Y500000D03*
Y8250000D03*
X9000000Y500000D03*
Y8250000D03*
D20*
X6430000Y1820000D03*
X6470000D03*
Y3380000D03*
X6430000D03*
X6510000Y1820000D03*
X6550000D03*
X6590000D03*
X6630000D03*
X6670000D03*
X6710000D03*
X6750000D03*
Y3380000D03*
X6710000D03*
X6670000D03*
X6630000D03*
X6590000D03*
X6550000D03*
X6510000D03*
X6790000Y1820000D03*
X6830000D03*
X6870000D03*
X6910000D03*
X6950000D03*
X6990000D03*
X7030000D03*
Y3380000D03*
X6990000D03*
X6950000D03*
X6910000D03*
X6870000D03*
X6830000D03*
X6790000D03*
X7070000Y1820000D03*
X7110000D03*
X7150000D03*
X7190000D03*
X7230000D03*
X7270000D03*
Y3380000D03*
X7230000D03*
X7190000D03*
X7150000D03*
X7110000D03*
X7070000D03*
X7310000Y1820000D03*
X7350000D03*
X7390000D03*
X7430000D03*
X7470000D03*
X7510000D03*
X7550000D03*
Y3380000D03*
X7510000D03*
X7470000D03*
X7430000D03*
X7390000D03*
X7350000D03*
X7310000D03*
X7590000Y1820000D03*
X7630000D03*
X7670000D03*
Y3380000D03*
X7630000D03*
X7590000D03*
D21*
X1675000Y7740000D03*
X1625000D03*
X1575000D03*
X1525000D03*
X1925000D03*
X1875000D03*
X1825000D03*
X1775000D03*
X1725000D03*
X2225000D03*
X2175000D03*
X2125000D03*
X2075000D03*
X2025000D03*
X1975000D03*
X2500000Y1010000D03*
X2475000Y7740000D03*
X2425000D03*
X2375000D03*
X2325000D03*
X2275000D03*
X2600000Y1010000D03*
X2700000D03*
X2725000Y7740000D03*
X2675000D03*
X2625000D03*
X2575000D03*
X2525000D03*
X2800000Y1010000D03*
X2900000D03*
X3000000D03*
X3025000Y7740000D03*
X2975000D03*
X2925000D03*
X2875000D03*
X2825000D03*
X2775000D03*
X3100000Y1010000D03*
X3200000D03*
X3275000Y7740000D03*
X3225000D03*
X3175000D03*
X3125000D03*
X3075000D03*
X3525000D03*
X3475000D03*
X3425000D03*
X3375000D03*
X3325000D03*
X3825000D03*
X3775000D03*
X3725000D03*
X3675000D03*
X3625000D03*
X3575000D03*
X3975000D03*
X3925000D03*
X3875000D03*
X5005000Y1010000D03*
X5055000D03*
X5105000D03*
X5155000D03*
X5205000D03*
X5255000D03*
X5305000D03*
X5355000D03*
X5405000D03*
X5455000D03*
X5505000D03*
X5555000D03*
X5605000D03*
X5655000D03*
X5705000D03*
X5755000D03*
X5805000D03*
X5855000D03*
X5905000D03*
X5955000D03*
X6005000D03*
X6055000D03*
X6105000D03*
X6155000D03*
X6205000D03*
X6255000D03*
X6305000D03*
X6355000D03*
X6405000D03*
X6455000D03*
X6505000D03*
X6555000D03*
X6605000D03*
X6655000D03*
X6705000D03*
X6755000D03*
X6805000D03*
X6855000D03*
X6905000D03*
X6955000D03*
D22*
X1353200Y1522900D03*
X1418200D03*
Y3681900D03*
X1353200D03*
X1483200Y1522900D03*
X1548200D03*
X1613200D03*
X1678200D03*
Y3681900D03*
X1613200D03*
X1548200D03*
X1483200D03*
X1743200Y1522900D03*
X1808200D03*
X1873200D03*
X1938200D03*
Y3681900D03*
X1873200D03*
X1808200D03*
X1743200D03*
X2003200Y1522900D03*
X2068200D03*
X2133200D03*
X2198200D03*
Y3681900D03*
X2133200D03*
X2068200D03*
X2003200D03*
X2263200Y1522900D03*
X2328200D03*
X2393200D03*
X2458200D03*
Y3681900D03*
X2393200D03*
X2328200D03*
X2263200D03*
X2523200Y1522900D03*
X2588200D03*
Y3681900D03*
X2523200D03*
D23*
X5286250Y4674000D03*
Y4724000D03*
X5191250D03*
Y4674000D03*
X5286250Y4928000D03*
Y4978000D03*
X5191250D03*
Y4928000D03*
X5286250Y5213750D03*
Y5263750D03*
X5191250D03*
Y5213750D03*
X5286250Y5467750D03*
Y5517750D03*
X5191250D03*
Y5467750D03*
X5286250Y5721750D03*
Y5771750D03*
X5191250D03*
Y5721750D03*
X5286250Y6356750D03*
Y6406750D03*
X5191250D03*
Y6356750D03*
X5286250Y6610750D03*
Y6660750D03*
X5191250D03*
Y6610750D03*
X5286250Y6864750D03*
Y6914750D03*
X5191250D03*
Y6864750D03*
D24*
X5286250Y4619000D03*
Y4779000D03*
X5191250D03*
Y4619000D03*
X5286250Y4873000D03*
Y5033000D03*
X5191250D03*
Y4873000D03*
X5286250Y5158750D03*
Y5318750D03*
X5191250D03*
Y5158750D03*
X5286250Y5412750D03*
Y5572750D03*
X5191250D03*
Y5412750D03*
X5286250Y5666750D03*
Y5826750D03*
X5191250D03*
Y5666750D03*
X5286250Y6301750D03*
X5191250D03*
X5286250Y6461750D03*
X5191250D03*
X5286250Y6555750D03*
X5191250D03*
X5286250Y6809750D03*
X5191250D03*
X5286250Y6715750D03*
X5191250D03*
X5286250Y6969750D03*
X5191250D03*
D25*
X840400Y2951650D03*
X688000D03*
X872150Y3650150D03*
X719750D03*
X2974000Y3967650D03*
X3126400D03*
X4498000Y7237900D03*
X4650400D03*
X4653900Y8115150D03*
X4501500D03*
X5194300Y6000750D03*
Y6159500D03*
X5346700Y6000750D03*
Y6159500D03*
X7260250Y3840650D03*
X7412650D03*
X7577750D03*
X7730150D03*
X8276250D03*
X8428650D03*
X8878300Y4478900D03*
Y4644000D03*
X8873300Y4977600D03*
Y5142700D03*
X8878300Y6362700D03*
Y6197600D03*
Y6692900D03*
Y6858000D03*
X9030700Y4478900D03*
Y4644000D03*
X9025700Y4977600D03*
Y5142700D03*
X9030700Y6362700D03*
Y6197600D03*
Y6692900D03*
Y6858000D03*
D26*
X1430950Y576750D03*
Y1135550D03*
X1684950Y576750D03*
X1557950D03*
Y1135550D03*
X1684950D03*
X1811950Y576750D03*
Y1135550D03*
D27*
X874700Y2349100D03*
Y2196700D03*
X1145200Y1065700D03*
Y1218100D03*
X4169700Y1345100D03*
Y1192700D03*
X4328450D03*
Y1345100D03*
X4939700Y7731700D03*
Y8021700D03*
Y7884100D03*
Y8174100D03*
X5304450Y2557950D03*
Y2710350D03*
X8288950Y1795950D03*
Y1948350D03*
Y2684950D03*
Y2837350D03*
D28*
X3183550Y7333150D03*
X3488350D03*
X3818550D03*
X4123350D03*
X6326800Y8095150D03*
X6631600D03*
X8231800Y7936400D03*
X8536600D03*
D29*
X764200Y3167550D03*
Y3370750D03*
D30*
X4499450Y7575400D03*
Y7829400D03*
X4719450Y7575400D03*
Y7829400D03*
X5753700Y2221400D03*
X5533700D03*
X5753700Y2475400D03*
X5533700D03*
D31*
X1183300Y1854900D03*
Y1789900D03*
Y1724900D03*
Y1659900D03*
Y2114900D03*
Y2049900D03*
Y1984900D03*
Y1919900D03*
Y2374900D03*
Y2309900D03*
Y2244900D03*
Y2179900D03*
Y2634900D03*
Y2569900D03*
Y2504900D03*
Y2439900D03*
Y2894900D03*
Y2829900D03*
Y2764900D03*
Y2699900D03*
Y3219900D03*
Y3154900D03*
Y3089900D03*
Y3024900D03*
Y2959900D03*
Y3479900D03*
Y3414900D03*
Y3349900D03*
Y3284900D03*
Y3544900D03*
X2758100Y1659900D03*
Y1724900D03*
Y1789900D03*
Y1854900D03*
Y1919900D03*
Y1984900D03*
Y2049900D03*
Y2114900D03*
Y2179900D03*
Y2244900D03*
Y2309900D03*
Y2374900D03*
Y2439900D03*
Y2504900D03*
Y2569900D03*
Y2634900D03*
Y2699900D03*
Y2764900D03*
Y2829900D03*
Y2894900D03*
Y2959900D03*
Y3024900D03*
Y3089900D03*
Y3154900D03*
Y3219900D03*
Y3284900D03*
Y3349900D03*
Y3414900D03*
Y3479900D03*
Y3544900D03*
D32*
X6270000Y2140000D03*
Y2100000D03*
Y2060000D03*
Y2020000D03*
Y1980000D03*
Y2380000D03*
Y2340000D03*
Y2300000D03*
Y2260000D03*
Y2220000D03*
Y2180000D03*
Y2660000D03*
Y2620000D03*
Y2580000D03*
Y2540000D03*
Y2500000D03*
Y2460000D03*
Y2420000D03*
Y2940000D03*
Y2900000D03*
Y2860000D03*
Y2820000D03*
Y2780000D03*
Y2740000D03*
Y2700000D03*
Y3180000D03*
Y3140000D03*
Y3100000D03*
Y3060000D03*
Y3020000D03*
Y2980000D03*
Y3220000D03*
X7830000Y1980000D03*
Y2020000D03*
Y2060000D03*
Y2100000D03*
Y2140000D03*
Y2180000D03*
Y2220000D03*
Y2260000D03*
Y2300000D03*
Y2340000D03*
Y2380000D03*
Y2420000D03*
Y2460000D03*
Y2500000D03*
Y2540000D03*
Y2580000D03*
Y2620000D03*
Y2660000D03*
Y2700000D03*
Y2740000D03*
Y2780000D03*
Y2820000D03*
Y2860000D03*
Y2900000D03*
Y2940000D03*
Y2980000D03*
Y3020000D03*
Y3060000D03*
Y3100000D03*
Y3140000D03*
Y3180000D03*
Y3220000D03*
D33*
X640000Y6487600D03*
Y6792400D03*
Y7037600D03*
Y7342400D03*
X990000Y6487600D03*
Y6792400D03*
Y7037600D03*
Y7342400D03*
X1329700Y6490500D03*
Y6795300D03*
Y7040500D03*
Y7345300D03*
D34*
X1335000Y8070000D03*
X2255000Y680000D03*
X3445000D03*
X4165000Y8070000D03*
X4815000Y680000D03*
X7145000D03*
D35*
X5361600Y7841150D03*
X5945800D03*
X7298350Y7872900D03*
X7882550D03*
D36*
X3883950Y545000D03*
Y849800D03*
Y1053000D03*
Y1357800D03*
X4264950Y703750D03*
Y1008550D03*
X6439700Y7525500D03*
Y7830300D03*
X6824700Y7525500D03*
Y7830300D03*
X8320700Y7403000D03*
Y7707800D03*
X8765200Y7403000D03*
Y7707800D03*
M02*