G04 Gerber PCB Fabrication Data in Gerber – Example 2, created by Karel Tavernier, Filip Vermeire and Thomas Weyn*
G04 Ucamco copyright*
%TF.GenerationSoftware,Ucamco,UcamX,1.1.0-1400509*%
%TF.CreationDate,2014-07-14T00:00;00+01:00*%
%FSLAX25Y25*%
%MOMM*%
%TF.FileFunction,Legend,Top*%
%TF.FilePolarity,Positive*%
%TF.Part,Single*%
%TF.SameCoordinates*%
%TA.AperFunction,Material*%
%ADD10C,0.20000*%
G01*
%LPD*%
D10*
X735240Y6060020D02*
X784980Y5900000D01*
X834720Y6060020D01*
X907200Y6033350D02*
X919130Y6049350D01*
X933060Y6057350D01*
X948980Y6060020D01*
X968880Y6054690D01*
X982800Y6041350D01*
X986780Y6025350D01*
X984790Y6009340D01*
X976830Y5996010D01*
X937040Y5969340D01*
X919130Y5950670D01*
X907200Y5924000D01*
X903220Y5900000D01*
X986780D01*
X1067220Y5966670D02*
X1081140Y5985350D01*
X1093080Y5996010D01*
X1109000Y6001340D01*
X1122930Y5996010D01*
X1132870Y5985350D01*
X1140840Y5969340D01*
X1142820Y5950670D01*
X1140840Y5934670D01*
X1132870Y5918670D01*
X1120940Y5905330D01*
X1107010Y5900000D01*
X1091090Y5905330D01*
X1077170Y5921330D01*
X1069200Y5945340D01*
X1067220Y5972010D01*
X1071190Y6006680D01*
X1077170Y6025350D01*
X1087110Y6044020D01*
X1101040Y6057350D01*
X1114970Y6060020D01*
X1128900Y6054690D01*
X1138850Y6041350D01*
X1034700Y115000D02*
Y275000D01*
X1010820Y243000D01*
X1010820Y115000D02*
X1058580D01*
X1316890Y181660D02*
X1330820Y200330D01*
X1342760Y211000D01*
X1358680Y216330D01*
X1372610Y211000D01*
X1382560Y200330D01*
X1390520Y184330D01*
X1392510Y165670D01*
X1390520Y149660D01*
X1382560Y133660D01*
X1370620Y120330D01*
X1356690Y115000D01*
X1340770Y120330D01*
X1326840Y136330D01*
X1318880Y160330D01*
X1316890Y187000D01*
X1320870Y221660D01*
X1326840Y240340D01*
X1336790Y259000D01*
X1350720Y272330D01*
X1364650Y275000D01*
X1378580Y269670D01*
X1388530Y256330D01*
X1514700Y115000D02*
X1528630Y117670D01*
X1544550Y125660D01*
X1554500Y138990D01*
X1558480Y157670D01*
X1554500Y176330D01*
X1542560Y192330D01*
X1524650Y200330D01*
X1504750D01*
X1492810Y205670D01*
X1482860Y219000D01*
X1478880Y237660D01*
X1484850Y256330D01*
X1498780Y269670D01*
X1514700Y275000D01*
X1530620Y269670D01*
X1544550Y256330D01*
X1550520Y237660D01*
X1546540Y219000D01*
X1536590Y205670D01*
X1524650Y200330D01*
X1504750Y200330D02*
X1486840Y192330D01*
X1474900Y176330D01*
X1470920Y157670D01*
X1474900Y138990D01*
X1484850Y125660D01*
X1500770Y117670D01*
X1514700Y115000D01*
X1674700Y115000D02*
X1688630Y117670D01*
X1704550Y125660D01*
X1714500Y138990D01*
X1718480Y157670D01*
X1714500Y176330D01*
X1702560Y192330D01*
X1684650Y200330D01*
X1664750D01*
X1652810Y205670D01*
X1642860Y219000D01*
X1638880Y237660D01*
X1644850Y256330D01*
X1658780Y269670D01*
X1674700Y275000D01*
X1690620Y269670D01*
X1704550Y256330D01*
X1710520Y237660D01*
X1706540Y219000D01*
X1696590Y205670D01*
X1684650Y200330D01*
X1664750Y200330D02*
X1646840Y192330D01*
X1634900Y176330D01*
X1630920Y157670D01*
X1634900Y138990D01*
X1644850Y125660D01*
X1660770Y117670D01*
X1674700Y115000D01*
X2018580Y115000D02*
Y275000D01*
X1944950Y160330D01*
X2044450D01*
X2154700Y115000D02*
Y275000D01*
X2130820Y243000D01*
X2130820Y115000D02*
X2178580D01*
X2314700Y275000D02*
X2298780Y269670D01*
X2286840Y256330D01*
X2278880Y240340D01*
X2272910Y219000D01*
X2270920Y195000D01*
X2272910Y171000D01*
X2278880Y149660D01*
X2286840Y133660D01*
X2298780Y120330D01*
X2314700Y115000D01*
X2330620Y120330D01*
X2342560Y133660D01*
X2350520Y149660D01*
X2356490Y171000D01*
X2358480Y195000D01*
X2356490Y219000D01*
X2350520Y240340D01*
X2342560Y256330D01*
X2330620Y269670D01*
X2314700Y275000D01*
X2590920Y147000D02*
X2602860Y128330D01*
X2618780Y117670D01*
X2636690Y115000D01*
X2652610Y117670D01*
X2668530Y131000D01*
X2678480Y147000D01*
X2680470Y163000D01*
X2676490Y181660D01*
X2662560Y195000D01*
X2648630Y200330D01*
X2630720D01*
X2648630Y200330D02*
X2660570Y208330D01*
X2670520Y221660D01*
X2674500Y237660D01*
X2670520Y253670D01*
X2660570Y267000D01*
X2642660Y275000D01*
X2624750Y272330D01*
X2606840Y261660D01*
X2794700Y115000D02*
X2808630Y117670D01*
X2824550Y125660D01*
X2834500Y138990D01*
X2838480Y157670D01*
X2834500Y176330D01*
X2822560Y192330D01*
X2804650Y200330D01*
X2784750D01*
X2772810Y205670D01*
X2762860Y219000D01*
X2758880Y237660D01*
X2764850Y256330D01*
X2778780Y269670D01*
X2794700Y275000D01*
X2810620Y269670D01*
X2824550Y256330D01*
X2830520Y237660D01*
X2826540Y219000D01*
X2816590Y205670D01*
X2804650Y200330D01*
X2784750Y200330D02*
X2766840Y192330D01*
X2754900Y176330D01*
X2750920Y157670D01*
X2754900Y138990D01*
X2764850Y125660D01*
X2780770Y117670D01*
X2794700Y115000D01*
X2910920Y147000D02*
X2922860Y128330D01*
X2938780Y117670D01*
X2956690Y115000D01*
X2972610Y117670D01*
X2988530Y131000D01*
X2998480Y147000D01*
X3000470Y163000D01*
X2996490Y181660D01*
X2982560Y195000D01*
X2968630Y200330D01*
X2950720D01*
X2968630Y200330D02*
X2980570Y208330D01*
X2990520Y221660D01*
X2994500Y237660D01*
X2990520Y253670D01*
X2980570Y267000D01*
X2962660Y275000D01*
X2944750Y272330D01*
X2926840Y261660D01*
X2756450Y1195000D02*
X2824010Y1322000D01*
X2756450Y1322000D02*
X2824010Y1195000D01*
X2939070Y1195000D02*
Y1322000D01*
X2879550Y1230980D01*
X2959990D01*
X2636450Y7345000D02*
X2704010Y7472000D01*
X2636450Y7472000D02*
X2704010Y7345000D01*
X2799770Y7345000D02*
Y7472000D01*
X2780470Y7446600D01*
X2780470Y7345000D02*
X2819070D01*
X3330250Y7160020D02*
X3379990Y7000000D01*
X3429730Y7160020D01*
X3502210Y7133350D02*
X3514140Y7149350D01*
X3528070Y7157350D01*
X3543990Y7160020D01*
X3563890Y7154690D01*
X3577810Y7141350D01*
X3581790Y7125350D01*
X3579800Y7109340D01*
X3571840Y7096010D01*
X3532050Y7069340D01*
X3514140Y7050670D01*
X3502210Y7024000D01*
X3498230Y7000000D01*
X3581790D01*
X4614700Y115000D02*
Y275000D01*
X4590820Y243000D01*
X4590820Y115000D02*
X4638580D01*
X4896890Y181660D02*
X4910820Y200330D01*
X4922760Y211000D01*
X4938680Y216330D01*
X4952610Y211000D01*
X4962560Y200330D01*
X4970520Y184330D01*
X4972510Y165670D01*
X4970520Y149660D01*
X4962560Y133660D01*
X4950620Y120330D01*
X4936690Y115000D01*
X4920770Y120330D01*
X4906840Y136330D01*
X4898880Y160330D01*
X4896890Y187000D01*
X4900870Y221660D01*
X4906840Y240340D01*
X4916790Y259000D01*
X4930720Y272330D01*
X4944650Y275000D01*
X4958580Y269670D01*
X4968530Y256330D01*
X5094700Y115000D02*
X5108630Y117670D01*
X5124550Y125660D01*
X5134500Y138990D01*
X5138480Y157670D01*
X5134500Y176330D01*
X5122560Y192330D01*
X5104650Y200330D01*
X5084750D01*
X5072810Y205670D01*
X5062860Y219000D01*
X5058880Y237660D01*
X5064850Y256330D01*
X5078780Y269670D01*
X5094700Y275000D01*
X5110620Y269670D01*
X5124550Y256330D01*
X5130520Y237660D01*
X5126540Y219000D01*
X5116590Y205670D01*
X5104650Y200330D01*
X5084750Y200330D02*
X5066840Y192330D01*
X5054900Y176330D01*
X5050920Y157670D01*
X5054900Y138990D01*
X5064850Y125660D01*
X5080770Y117670D01*
X5094700Y115000D01*
X5254700Y115000D02*
X5268630Y117670D01*
X5284550Y125660D01*
X5294500Y138990D01*
X5298480Y157670D01*
X5294500Y176330D01*
X5282560Y192330D01*
X5264650Y200330D01*
X5244750D01*
X5232810Y205670D01*
X5222860Y219000D01*
X5218880Y237660D01*
X5224850Y256330D01*
X5238780Y269670D01*
X5254700Y275000D01*
X5270620Y269670D01*
X5284550Y256330D01*
X5290520Y237660D01*
X5286540Y219000D01*
X5276590Y205670D01*
X5264650Y200330D01*
X5244750Y200330D02*
X5226840Y192330D01*
X5214900Y176330D01*
X5210920Y157670D01*
X5214900Y138990D01*
X5224850Y125660D01*
X5240770Y117670D01*
X5254700Y115000D01*
X5598580Y115000D02*
Y275000D01*
X5524950Y160330D01*
X5624450D01*
X5734700Y275000D02*
X5718780Y269670D01*
X5706840Y256330D01*
X5698880Y240340D01*
X5692910Y219000D01*
X5690920Y195000D01*
X5692910Y171000D01*
X5698880Y149660D01*
X5706840Y133660D01*
X5718780Y120330D01*
X5734700Y115000D01*
X5750620Y120330D01*
X5762560Y133660D01*
X5770520Y149660D01*
X5776490Y171000D01*
X5778480Y195000D01*
X5776490Y219000D01*
X5770520Y240340D01*
X5762560Y256330D01*
X5750620Y269670D01*
X5734700Y275000D01*
X5894700Y275000D02*
X5878780Y269670D01*
X5866840Y256330D01*
X5858880Y240340D01*
X5852910Y219000D01*
X5850920Y195000D01*
X5852910Y171000D01*
X5858880Y149660D01*
X5866840Y133660D01*
X5878780Y120330D01*
X5894700Y115000D01*
X5910620Y120330D01*
X5922560Y133660D01*
X5930520Y149660D01*
X5936490Y171000D01*
X5938480Y195000D01*
X5936490Y219000D01*
X5930520Y240340D01*
X5922560Y256330D01*
X5910620Y269670D01*
X5894700Y275000D01*
X6170920Y147000D02*
X6182860Y128330D01*
X6198780Y117670D01*
X6216690Y115000D01*
X6232610Y117670D01*
X6248530Y131000D01*
X6258480Y147000D01*
X6260470Y163000D01*
X6256490Y181660D01*
X6242560Y195000D01*
X6228630Y200330D01*
X6210720D01*
X6228630Y200330D02*
X6240570Y208330D01*
X6250520Y221660D01*
X6254500Y237660D01*
X6250520Y253670D01*
X6240570Y267000D01*
X6222660Y275000D01*
X6204750Y272330D01*
X6186840Y261660D01*
X6374700Y115000D02*
X6388630Y117670D01*
X6404550Y125660D01*
X6414500Y138990D01*
X6418480Y157670D01*
X6414500Y176330D01*
X6402560Y192330D01*
X6384650Y200330D01*
X6364750D01*
X6352810Y205670D01*
X6342860Y219000D01*
X6338880Y237660D01*
X6344850Y256330D01*
X6358780Y269670D01*
X6374700Y275000D01*
X6390620Y269670D01*
X6404550Y256330D01*
X6410520Y237660D01*
X6406540Y219000D01*
X6396590Y205670D01*
X6384650Y200330D01*
X6364750Y200330D02*
X6346840Y192330D01*
X6334900Y176330D01*
X6330920Y157670D01*
X6334900Y138990D01*
X6344850Y125660D01*
X6360770Y117670D01*
X6374700Y115000D01*
X6490920Y147000D02*
X6502860Y128330D01*
X6518780Y117670D01*
X6536690Y115000D01*
X6552610Y117670D01*
X6568530Y131000D01*
X6578480Y147000D01*
X6580470Y163000D01*
X6576490Y181660D01*
X6562560Y195000D01*
X6548630Y200330D01*
X6530720D01*
X6548630Y200330D02*
X6560570Y208330D01*
X6570520Y221660D01*
X6574500Y237660D01*
X6570520Y253670D01*
X6560570Y267000D01*
X6542660Y275000D01*
X6524750Y272330D01*
X6506840Y261660D01*
X6055000Y3840000D02*
X5521600D01*
Y6341900D01*
X6055000D01*
Y3840000D01*
X5699400Y4017800D02*
Y3916200D01*
X5521600Y4271800D02*
X6055000D01*
X5521600Y4868700D02*
X6055000D01*
X5521600Y5872000D02*
X6055000D01*
X5876450Y1185000D02*
X5944010Y1312000D01*
X5876450Y1312000D02*
X5944010Y1185000D01*
X6004380Y1210400D02*
X6014030Y1195580D01*
X6026900Y1187120D01*
X6041380Y1185000D01*
X6054250Y1187120D01*
X6067120Y1197700D01*
X6075160Y1210400D01*
X6076770Y1223100D01*
X6073550Y1237910D01*
X6062290Y1248500D01*
X6051030Y1252730D01*
X6036550D01*
X6051030Y1252730D02*
X6060680Y1259080D01*
X6068730Y1269660D01*
X6071940Y1282370D01*
X6068730Y1295070D01*
X6060680Y1305650D01*
X6046200Y1312000D01*
X6031730Y1309880D01*
X6017250Y1301420D01*
X5877200Y3890800D02*
X5978800D01*
X5851800Y3916200D02*
Y4017800D01*
X5724800Y3890800D02*
X5826400D01*
X5826400Y4043200D02*
X5724800D01*
X5978800Y4043200D02*
X5877200D01*
X6004200Y3916200D02*
Y4017800D01*
X6580250Y4105020D02*
X6629990Y3945000D01*
X6679730Y4105020D01*
X6813890Y3945000D02*
Y4105020D01*
X6740270Y3990340D01*
X6839750D01*
X6580250Y5795020D02*
X6629990Y5635000D01*
X6679730Y5795020D01*
X6746240Y5659000D02*
X6758170Y5645670D01*
X6772100Y5637670D01*
X6790010Y5635000D01*
X6807920Y5640330D01*
X6821840Y5651000D01*
X6831790Y5669670D01*
X6833780Y5691000D01*
X6829800Y5712340D01*
X6819850Y5725680D01*
X6805930Y5736340D01*
X6792000Y5739010D01*
X6778070Y5736340D01*
X6760170Y5725680D01*
X6766130Y5795020D01*
X6819850D01*
X7038520Y194400D02*
X7044950Y200750D01*
X7049770Y211330D01*
X7052990Y226160D01*
X7049770Y238850D01*
X7043340Y247320D01*
X7032080Y253670D01*
X6988660D01*
Y126670D01*
X7041730D01*
X7052990Y135130D01*
X7059430Y147840D01*
X7062640Y162650D01*
X7059430Y177470D01*
X7049770Y190170D01*
X7038520Y194400D01*
X6988660D01*
X7155150Y126670D02*
X7142280Y128790D01*
X7131030Y137250D01*
X7121370Y149950D01*
X7114940Y164770D01*
X7111720Y181700D01*
Y198640D01*
X7114940Y215570D01*
X7121370Y230390D01*
X7131030Y243090D01*
X7142280Y251550D01*
X7155150Y253670D01*
X7168020Y251550D01*
X7179270Y243090D01*
X7188930Y230390D01*
X7195360Y215570D01*
X7198580Y198640D01*
Y181700D01*
X7195360Y164770D01*
X7188930Y149950D01*
X7179270Y137250D01*
X7168020Y128790D01*
X7155150Y126670D01*
X7263740Y169000D02*
X7305560D01*
X7383590Y232500D02*
X7393240Y245200D01*
X7404500Y251550D01*
X7417370Y253670D01*
X7433450Y249440D01*
X7444710Y238850D01*
X7447930Y226160D01*
X7446320Y213450D01*
X7439880Y202870D01*
X7407720Y181700D01*
X7393240Y166890D01*
X7383590Y145720D01*
X7380370Y126670D01*
X7447930D01*
X6820240Y1630020D02*
X6869980Y1470000D01*
X6919720Y1630020D01*
X7030000Y1470000D02*
Y1630020D01*
X7006120Y1598020D01*
X7006120Y1470000D02*
X7053870D01*
X7146250Y1502000D02*
X7158180Y1483330D01*
X7174100Y1472670D01*
X7192010Y1470000D01*
X7207930Y1472670D01*
X7223850Y1486000D01*
X7233790Y1502000D01*
X7235780Y1518010D01*
X7231800Y1536670D01*
X7217870Y1550010D01*
X7203950Y1555350D01*
X7186040D01*
X7203950Y1555350D02*
X7215890Y1563340D01*
X7225840Y1576680D01*
X7229810Y1592680D01*
X7225840Y1608680D01*
X7215890Y1622020D01*
X7197980Y1630020D01*
X7180070Y1627350D01*
X7162170Y1616680D01*
X7980250Y4110020D02*
X8029990Y3950000D01*
X8079730Y4110020D01*
X8152210Y4016670D02*
X8166130Y4035350D01*
X8178070Y4046010D01*
X8193990Y4051340D01*
X8207920Y4046010D01*
X8217860Y4035350D01*
X8225830Y4019340D01*
X8227810Y4000670D01*
X8225830Y3984670D01*
X8217860Y3968670D01*
X8205930Y3955330D01*
X8192000Y3950000D01*
X8176080Y3955330D01*
X8162160Y3971330D01*
X8154190Y3995340D01*
X8152210Y4022010D01*
X8156180Y4056680D01*
X8162160Y4075350D01*
X8172100Y4094020D01*
X8186030Y4107350D01*
X8199960Y4110020D01*
X8213890Y4104690D01*
X8223840Y4091350D01*
X7980250Y5790020D02*
X8029990Y5630000D01*
X8079730Y5790020D01*
X8186030Y5630000D02*
X8190010Y5664670D01*
X8195980Y5694000D01*
X8203940Y5720680D01*
X8213890Y5750010D01*
X8229800Y5790020D01*
X8150220D01*
X0Y0D02*
X9500000D01*
Y8750000D01*
X0D01*
Y0D01*
X196830Y1235000D02*
Y1313700D01*
X220190D01*
X227980Y1309760D01*
X233820Y1300580D01*
X235770Y1290090D01*
X233820Y1279600D01*
X228950Y1271730D01*
X220190Y1267790D01*
X196830D01*
X295000Y1235000D02*
X301810Y1236310D01*
X309600Y1240250D01*
X314470Y1246800D01*
X316410Y1255990D01*
X314470Y1265170D01*
X308630Y1273040D01*
X299870Y1276970D01*
X290130D01*
X284290Y1279600D01*
X279430Y1286150D01*
X277480Y1295340D01*
X280400Y1304520D01*
X287210Y1311080D01*
X295000Y1313700D01*
X302790Y1311080D01*
X309600Y1304520D01*
X312520Y1295340D01*
X310570Y1286150D01*
X305710Y1279600D01*
X299870Y1276970D01*
X290130Y1276970D02*
X281370Y1273040D01*
X275530Y1265170D01*
X273590Y1255990D01*
X275530Y1246800D01*
X280400Y1240250D01*
X288190Y1236310D01*
X295000Y1235000D01*
X355210Y1267790D02*
X362020Y1276970D01*
X367860Y1282220D01*
X375650Y1284840D01*
X382460Y1282220D01*
X387330Y1276970D01*
X391220Y1269100D01*
X392190Y1259920D01*
X391220Y1252050D01*
X387330Y1244180D01*
X381490Y1237620D01*
X374670Y1235000D01*
X366890Y1237620D01*
X360070Y1245490D01*
X356180Y1257300D01*
X355210Y1270410D01*
X357150Y1287470D01*
X360070Y1296650D01*
X364940Y1305830D01*
X371750Y1312390D01*
X378570Y1313700D01*
X385380Y1311080D01*
X390250Y1304520D01*
X191830Y1415000D02*
Y1493700D01*
X215190D01*
X222980Y1489760D01*
X228820Y1480580D01*
X230770Y1470090D01*
X228820Y1459600D01*
X223950Y1451730D01*
X215190Y1447790D01*
X191830D01*
X290000Y1415000D02*
X296810Y1416310D01*
X304600Y1420250D01*
X309470Y1426800D01*
X311410Y1435990D01*
X309470Y1445170D01*
X303630Y1453040D01*
X294870Y1456970D01*
X285130D01*
X279290Y1459600D01*
X274430Y1466150D01*
X272480Y1475340D01*
X275400Y1484520D01*
X282210Y1491080D01*
X290000Y1493700D01*
X297790Y1491080D01*
X304600Y1484520D01*
X307520Y1475340D01*
X305570Y1466150D01*
X300710Y1459600D01*
X294870Y1456970D01*
X285130Y1456970D02*
X276370Y1453040D01*
X270530Y1445170D01*
X268590Y1435990D01*
X270530Y1426800D01*
X275400Y1420250D01*
X283190Y1416310D01*
X290000Y1415000D01*
X380380Y1415000D02*
Y1493700D01*
X344370Y1437300D01*
X393030D01*
X191830Y1605000D02*
Y1683700D01*
X215190D01*
X222980Y1679760D01*
X228820Y1670580D01*
X230770Y1660090D01*
X228820Y1649600D01*
X223950Y1641730D01*
X215190Y1637790D01*
X191830D01*
X290000Y1605000D02*
X296810Y1606310D01*
X304600Y1610250D01*
X309470Y1616800D01*
X311410Y1625990D01*
X309470Y1635170D01*
X303630Y1643040D01*
X294870Y1646970D01*
X285130D01*
X279290Y1649600D01*
X274430Y1656150D01*
X272480Y1665340D01*
X275400Y1674520D01*
X282210Y1681080D01*
X290000Y1683700D01*
X297790Y1681080D01*
X304600Y1674520D01*
X307520Y1665340D01*
X305570Y1656150D01*
X300710Y1649600D01*
X294870Y1646970D01*
X285130Y1646970D02*
X276370Y1643040D01*
X270530Y1635170D01*
X268590Y1625990D01*
X270530Y1616800D01*
X275400Y1610250D01*
X283190Y1606310D01*
X290000Y1605000D01*
X368700Y1605000D02*
Y1683700D01*
X357020Y1667960D01*
X357020Y1605000D02*
X380380D01*
X191830Y1840000D02*
Y1918700D01*
X215190D01*
X222980Y1914760D01*
X228820Y1905580D01*
X230770Y1895090D01*
X228820Y1884600D01*
X223950Y1876730D01*
X215190Y1872790D01*
X191830D01*
X290000Y1840000D02*
X296810Y1841310D01*
X304600Y1845250D01*
X309470Y1851800D01*
X311410Y1860990D01*
X309470Y1870170D01*
X303630Y1878040D01*
X294870Y1881970D01*
X285130D01*
X279290Y1884600D01*
X274430Y1891150D01*
X272480Y1900340D01*
X275400Y1909520D01*
X282210Y1916080D01*
X290000Y1918700D01*
X297790Y1916080D01*
X304600Y1909520D01*
X307520Y1900340D01*
X305570Y1891150D01*
X300710Y1884600D01*
X294870Y1881970D01*
X285130Y1881970D02*
X276370Y1878040D01*
X270530Y1870170D01*
X268590Y1860990D01*
X270530Y1851800D01*
X275400Y1845250D01*
X283190Y1841310D01*
X290000Y1840000D01*
X347290Y1851800D02*
X353130Y1845250D01*
X359940Y1841310D01*
X368700Y1840000D01*
X377460Y1842620D01*
X384270Y1847870D01*
X389140Y1857050D01*
X390110Y1867540D01*
X388170Y1878040D01*
X383300Y1884600D01*
X376490Y1889840D01*
X369670Y1891150D01*
X362860Y1889840D01*
X354100Y1884600D01*
X357020Y1918700D01*
X383300D01*
X226830Y1715000D02*
Y1793700D01*
X250190D01*
X257980Y1789760D01*
X263820Y1780580D01*
X265770Y1770090D01*
X263820Y1759600D01*
X258950Y1751730D01*
X250190Y1747790D01*
X226830D01*
X325000Y1715000D02*
X331810Y1716310D01*
X339600Y1720250D01*
X344470Y1726800D01*
X346410Y1735990D01*
X344470Y1745170D01*
X338630Y1753040D01*
X329870Y1756970D01*
X320130D01*
X314290Y1759600D01*
X309430Y1766150D01*
X307480Y1775340D01*
X310400Y1784520D01*
X317210Y1791080D01*
X325000Y1793700D01*
X332790Y1791080D01*
X339600Y1784520D01*
X342520Y1775340D01*
X340570Y1766150D01*
X335710Y1759600D01*
X329870Y1756970D01*
X320130Y1756970D02*
X311370Y1753040D01*
X305530Y1745170D01*
X303590Y1735990D01*
X305530Y1726800D01*
X310400Y1720250D01*
X318190Y1716310D01*
X325000Y1715000D01*
X382290Y1730740D02*
X388130Y1721560D01*
X395910Y1716310D01*
X404670Y1715000D01*
X412460Y1716310D01*
X420250Y1722870D01*
X425110Y1730740D01*
X426090Y1738610D01*
X424140Y1747790D01*
X417330Y1754350D01*
X410510Y1756970D01*
X401750D01*
X410510Y1756970D02*
X416350Y1760910D01*
X421220Y1767470D01*
X423170Y1775340D01*
X421220Y1783210D01*
X416350Y1789760D01*
X407590Y1793700D01*
X398830Y1792390D01*
X390070Y1787140D01*
X211830Y2120000D02*
Y2198700D01*
X235190D01*
X242980Y2194760D01*
X248820Y2185580D01*
X250770Y2175090D01*
X248820Y2164600D01*
X243950Y2156730D01*
X235190Y2152790D01*
X211830D01*
X310000Y2120000D02*
X316810Y2121310D01*
X324600Y2125250D01*
X329470Y2131800D01*
X331410Y2140990D01*
X329470Y2150170D01*
X323630Y2158040D01*
X314870Y2161970D01*
X305130D01*
X299290Y2164600D01*
X294430Y2171150D01*
X292480Y2180340D01*
X295400Y2189520D01*
X302210Y2196080D01*
X310000Y2198700D01*
X317790Y2196080D01*
X324600Y2189520D01*
X327520Y2180340D01*
X325570Y2171150D01*
X320710Y2164600D01*
X314870Y2161970D01*
X305130Y2161970D02*
X296370Y2158040D01*
X290530Y2150170D01*
X288590Y2140990D01*
X290530Y2131800D01*
X295400Y2125250D01*
X303190Y2121310D01*
X310000Y2120000D01*
X370210Y2185580D02*
X376050Y2193450D01*
X382860Y2197390D01*
X390650Y2198700D01*
X400380Y2196080D01*
X407190Y2189520D01*
X409140Y2181650D01*
X408170Y2173780D01*
X404270Y2167220D01*
X384810Y2154100D01*
X376050Y2144920D01*
X370210Y2131800D01*
X368260Y2120000D01*
X409140D01*
X191830Y2010000D02*
Y2088700D01*
X215190D01*
X222980Y2084760D01*
X228820Y2075580D01*
X230770Y2065090D01*
X228820Y2054600D01*
X223950Y2046730D01*
X215190Y2042790D01*
X191830D01*
X288050Y2010000D02*
X290000Y2027050D01*
X292920Y2041480D01*
X296810Y2054600D01*
X301680Y2069020D01*
X309470Y2088700D01*
X270530D01*
X368700Y2010000D02*
X375510Y2011310D01*
X383300Y2015250D01*
X388170Y2021800D01*
X390110Y2030990D01*
X388170Y2040170D01*
X382330Y2048040D01*
X373570Y2051970D01*
X363830D01*
X357990Y2054600D01*
X353130Y2061150D01*
X351180Y2070340D01*
X354100Y2079520D01*
X360910Y2086080D01*
X368700Y2088700D01*
X376490Y2086080D01*
X383300Y2079520D01*
X386220Y2070340D01*
X384270Y2061150D01*
X379410Y2054600D01*
X373570Y2051970D01*
X363830Y2051970D02*
X355070Y2048040D01*
X349230Y2040170D01*
X347290Y2030990D01*
X349230Y2021800D01*
X354100Y2015250D01*
X361890Y2011310D01*
X368700Y2010000D01*
X191830Y2235000D02*
Y2313700D01*
X215190D01*
X222980Y2309760D01*
X228820Y2300580D01*
X230770Y2290090D01*
X228820Y2279600D01*
X223950Y2271730D01*
X215190Y2267790D01*
X191830D01*
X288050Y2235000D02*
X290000Y2252050D01*
X292920Y2266480D01*
X296810Y2279600D01*
X301680Y2294020D01*
X309470Y2313700D01*
X270530D01*
X366750Y2235000D02*
X368700Y2252050D01*
X371620Y2266480D01*
X375510Y2279600D01*
X380380Y2294020D01*
X388170Y2313700D01*
X349230D01*
X191830Y2410000D02*
Y2488700D01*
X215190D01*
X222980Y2484760D01*
X228820Y2475580D01*
X230770Y2465090D01*
X228820Y2454600D01*
X223950Y2446730D01*
X215190Y2442790D01*
X191830D01*
X288050Y2410000D02*
X290000Y2427050D01*
X292920Y2441480D01*
X296810Y2454600D01*
X301680Y2469020D01*
X309470Y2488700D01*
X270530D01*
X350210Y2442790D02*
X357020Y2451970D01*
X362860Y2457220D01*
X370650Y2459840D01*
X377460Y2457220D01*
X382330Y2451970D01*
X386220Y2444100D01*
X387190Y2434920D01*
X386220Y2427050D01*
X382330Y2419180D01*
X376490Y2412620D01*
X369670Y2410000D01*
X361890Y2412620D01*
X355070Y2420490D01*
X351180Y2432300D01*
X350210Y2445410D01*
X352150Y2462470D01*
X355070Y2471650D01*
X359940Y2480830D01*
X366750Y2487390D01*
X373570Y2488700D01*
X380380Y2486080D01*
X385250Y2479520D01*
X196830Y2590000D02*
Y2668700D01*
X220190D01*
X227980Y2664760D01*
X233820Y2655580D01*
X235770Y2645090D01*
X233820Y2634600D01*
X228950Y2626730D01*
X220190Y2622790D01*
X196830D01*
X293050Y2590000D02*
X295000Y2607050D01*
X297920Y2621480D01*
X301810Y2634600D01*
X306680Y2649020D01*
X314470Y2668700D01*
X275530D01*
X352290Y2601800D02*
X358130Y2595250D01*
X364940Y2591310D01*
X373700Y2590000D01*
X382460Y2592620D01*
X389270Y2597870D01*
X394140Y2607050D01*
X395110Y2617540D01*
X393170Y2628040D01*
X388300Y2634600D01*
X381490Y2639840D01*
X374670Y2641150D01*
X367860Y2639840D01*
X359100Y2634600D01*
X362020Y2668700D01*
X388300D01*
X196830Y2770000D02*
Y2848700D01*
X220190D01*
X227980Y2844760D01*
X233820Y2835580D01*
X235770Y2825090D01*
X233820Y2814600D01*
X228950Y2806730D01*
X220190Y2802790D01*
X196830D01*
X293050Y2770000D02*
X295000Y2787050D01*
X297920Y2801480D01*
X301810Y2814600D01*
X306680Y2829020D01*
X314470Y2848700D01*
X275530D01*
X385380Y2770000D02*
Y2848700D01*
X349370Y2792300D01*
X398030D01*
X196830Y2975000D02*
Y3053700D01*
X220190D01*
X227980Y3049760D01*
X233820Y3040580D01*
X235770Y3030090D01*
X233820Y3019600D01*
X228950Y3011730D01*
X220190Y3007790D01*
X196830D01*
X293050Y2975000D02*
X295000Y2992050D01*
X297920Y3006480D01*
X301810Y3019600D01*
X306680Y3034020D01*
X314470Y3053700D01*
X275530D01*
X352290Y2990740D02*
X358130Y2981560D01*
X365910Y2976310D01*
X374670Y2975000D01*
X382460Y2976310D01*
X390250Y2982870D01*
X395110Y2990740D01*
X396090Y2998610D01*
X394140Y3007790D01*
X387330Y3014350D01*
X380510Y3016970D01*
X371750D01*
X380510Y3016970D02*
X386350Y3020910D01*
X391220Y3027470D01*
X393170Y3035340D01*
X391220Y3043210D01*
X386350Y3049760D01*
X377590Y3053700D01*
X368830Y3052390D01*
X360070Y3047140D01*
X196830Y3165000D02*
Y3243700D01*
X220190D01*
X227980Y3239760D01*
X233820Y3230580D01*
X235770Y3220090D01*
X233820Y3209600D01*
X228950Y3201730D01*
X220190Y3197790D01*
X196830D01*
X276510Y3197790D02*
X283320Y3206970D01*
X289160Y3212220D01*
X296950Y3214840D01*
X303760Y3212220D01*
X308630Y3206970D01*
X312520Y3199100D01*
X313490Y3189920D01*
X312520Y3182050D01*
X308630Y3174180D01*
X302790Y3167620D01*
X295970Y3165000D01*
X288190Y3167620D01*
X281370Y3175490D01*
X277480Y3187300D01*
X276510Y3200410D01*
X278450Y3217470D01*
X281370Y3226650D01*
X286240Y3235830D01*
X293050Y3242390D01*
X299870Y3243700D01*
X306680Y3241080D01*
X311550Y3234520D01*
X373700Y3165000D02*
X380510Y3166310D01*
X388300Y3170250D01*
X393170Y3176800D01*
X395110Y3185990D01*
X393170Y3195170D01*
X387330Y3203040D01*
X378570Y3206970D01*
X368830D01*
X362990Y3209600D01*
X358130Y3216150D01*
X356180Y3225340D01*
X359100Y3234520D01*
X365910Y3241080D01*
X373700Y3243700D01*
X381490Y3241080D01*
X388300Y3234520D01*
X391220Y3225340D01*
X389270Y3216150D01*
X384410Y3209600D01*
X378570Y3206970D01*
X368830Y3206970D02*
X360070Y3203040D01*
X354230Y3195170D01*
X352290Y3185990D01*
X354230Y3176800D01*
X359100Y3170250D01*
X366890Y3166310D01*
X373700Y3165000D01*
X191830Y3350000D02*
Y3428700D01*
X215190D01*
X222980Y3424760D01*
X228820Y3415580D01*
X230770Y3405090D01*
X228820Y3394600D01*
X223950Y3386730D01*
X215190Y3382790D01*
X191830D01*
X288050Y3350000D02*
X290000Y3367050D01*
X292920Y3381480D01*
X296810Y3394600D01*
X301680Y3409020D01*
X309470Y3428700D01*
X270530D01*
X350210Y3415580D02*
X356050Y3423450D01*
X362860Y3427390D01*
X370650Y3428700D01*
X380380Y3426080D01*
X387190Y3419520D01*
X389140Y3411650D01*
X388170Y3403780D01*
X384270Y3397220D01*
X364810Y3384100D01*
X356050Y3374920D01*
X350210Y3361800D01*
X348260Y3350000D01*
X389140D01*
X206830Y3540000D02*
Y3618700D01*
X230190D01*
X237980Y3614760D01*
X243820Y3605580D01*
X245770Y3595090D01*
X243820Y3584600D01*
X238950Y3576730D01*
X230190Y3572790D01*
X206830D01*
X303050Y3540000D02*
X305000Y3557050D01*
X307920Y3571480D01*
X311810Y3584600D01*
X316680Y3599020D01*
X324470Y3618700D01*
X285530D01*
X383700Y3540000D02*
Y3618700D01*
X372020Y3602960D01*
X372020Y3540000D02*
X395380D01*
X206830Y3725000D02*
Y3803700D01*
X230190D01*
X237980Y3799760D01*
X243820Y3790580D01*
X245770Y3780090D01*
X243820Y3769600D01*
X238950Y3761730D01*
X230190Y3757790D01*
X206830D01*
X303050Y3725000D02*
X305000Y3742050D01*
X307920Y3756480D01*
X311810Y3769600D01*
X316680Y3784020D01*
X324470Y3803700D01*
X285530D01*
X383700Y3803700D02*
X375910Y3801080D01*
X370070Y3794520D01*
X366180Y3786650D01*
X363260Y3776150D01*
X362290Y3764350D01*
X363260Y3752540D01*
X366180Y3742050D01*
X370070Y3734180D01*
X375910Y3727620D01*
X383700Y3725000D01*
X391490Y3727620D01*
X397330Y3734180D01*
X401220Y3742050D01*
X404140Y3752540D01*
X405110Y3764350D01*
X404140Y3776150D01*
X401220Y3786650D01*
X397330Y3794520D01*
X391490Y3801080D01*
X383700Y3803700D01*
X201830Y3925000D02*
Y4003700D01*
X225190D01*
X232980Y3999760D01*
X238820Y3990580D01*
X240770Y3980090D01*
X238820Y3969600D01*
X233950Y3961730D01*
X225190Y3957790D01*
X201830D01*
X281510Y3957790D02*
X288320Y3966970D01*
X294160Y3972220D01*
X301950Y3974840D01*
X308760Y3972220D01*
X313630Y3966970D01*
X317520Y3959100D01*
X318490Y3949920D01*
X317520Y3942050D01*
X313630Y3934180D01*
X307790Y3927620D01*
X300970Y3925000D01*
X293190Y3927620D01*
X286370Y3935490D01*
X282480Y3947300D01*
X281510Y3960410D01*
X283450Y3977470D01*
X286370Y3986650D01*
X291240Y3995830D01*
X298050Y4002390D01*
X304870Y4003700D01*
X311680Y4001080D01*
X316550Y3994520D01*
X362150Y3934180D02*
X368970Y3927620D01*
X376750Y3925000D01*
X384540Y3927620D01*
X391350Y3935490D01*
X396220Y3947300D01*
X398170Y3959100D01*
Y3973530D01*
X396220Y3985340D01*
X391350Y3995830D01*
X385510Y4001080D01*
X378700Y4003700D01*
X370910Y4001080D01*
X365070Y3995830D01*
X361180Y3987960D01*
X359230Y3977470D01*
X361180Y3968290D01*
X366050Y3959100D01*
X371890Y3953860D01*
X378700Y3952540D01*
X386490Y3955170D01*
X392330Y3961730D01*
X398170Y3973530D01*
X616830Y2460000D02*
Y2538700D01*
X640190D01*
X647980Y2534760D01*
X653820Y2525580D01*
X655770Y2515090D01*
X653820Y2504600D01*
X648950Y2496730D01*
X640190Y2492790D01*
X616830D01*
X715000Y2460000D02*
X721810Y2461310D01*
X729600Y2465250D01*
X734470Y2471800D01*
X736410Y2480990D01*
X734470Y2490170D01*
X728630Y2498040D01*
X719870Y2501970D01*
X710130D01*
X704290Y2504600D01*
X699430Y2511150D01*
X697480Y2520340D01*
X700400Y2529520D01*
X707210Y2536080D01*
X715000Y2538700D01*
X722790Y2536080D01*
X729600Y2529520D01*
X732520Y2520340D01*
X730570Y2511150D01*
X725710Y2504600D01*
X719870Y2501970D01*
X710130Y2501970D02*
X701370Y2498040D01*
X695530Y2490170D01*
X693590Y2480990D01*
X695530Y2471800D01*
X700400Y2465250D01*
X708190Y2461310D01*
X715000Y2460000D01*
X793700Y2538700D02*
X785910Y2536080D01*
X780070Y2529520D01*
X776180Y2521650D01*
X773260Y2511150D01*
X772290Y2499350D01*
X773260Y2487540D01*
X776180Y2477050D01*
X780070Y2469180D01*
X785910Y2462620D01*
X793700Y2460000D01*
X801490Y2462620D01*
X807330Y2469180D01*
X811220Y2477050D01*
X814140Y2487540D01*
X815110Y2499350D01*
X814140Y2511150D01*
X811220Y2521650D01*
X807330Y2529520D01*
X801490Y2536080D01*
X793700Y2538700D01*
X536920Y6398740D02*
X561260Y6320000D01*
X585600Y6398740D01*
X618580Y6335750D02*
X624420Y6326560D01*
X632210Y6321310D01*
X640970Y6320000D01*
X648760Y6321310D01*
X656550Y6327870D01*
X661420Y6335750D01*
X662390Y6343620D01*
X660450Y6352810D01*
X653630Y6359370D01*
X646820Y6362000D01*
X638050D01*
X646820Y6362000D02*
X652660Y6365930D01*
X657530Y6372490D01*
X659470Y6380370D01*
X657530Y6388240D01*
X652660Y6394800D01*
X643890Y6398740D01*
X635130Y6397430D01*
X626370Y6392180D01*
X702190Y6329180D02*
X709000Y6322620D01*
X716790Y6320000D01*
X724580Y6322620D01*
X731400Y6330500D01*
X736270Y6342310D01*
X738210Y6354120D01*
Y6368560D01*
X736270Y6380370D01*
X731400Y6390870D01*
X725560Y6396120D01*
X718740Y6398740D01*
X710950Y6396120D01*
X705110Y6390870D01*
X701210Y6382990D01*
X699270Y6372490D01*
X701210Y6363310D01*
X706080Y6354120D01*
X711920Y6348870D01*
X718740Y6347560D01*
X726530Y6350180D01*
X732370Y6356740D01*
X738210Y6368560D01*
X536920Y7510040D02*
X561260Y7431300D01*
X585600Y7510040D01*
X618580Y7447050D02*
X624420Y7437860D01*
X632210Y7432610D01*
X640970Y7431300D01*
X648760Y7432610D01*
X656550Y7439170D01*
X661420Y7447050D01*
X662390Y7454920D01*
X660450Y7464110D01*
X653630Y7470670D01*
X646820Y7473300D01*
X638050D01*
X646820Y7473300D02*
X652660Y7477230D01*
X657530Y7483790D01*
X659470Y7491670D01*
X657530Y7499540D01*
X652660Y7506100D01*
X643890Y7510040D01*
X635130Y7508730D01*
X626370Y7503480D01*
X697320Y7443110D02*
X703160Y7436550D01*
X709980Y7432610D01*
X718740Y7431300D01*
X727500Y7433920D01*
X734320Y7439170D01*
X739190Y7448360D01*
X740160Y7458860D01*
X738210Y7469360D01*
X733340Y7475920D01*
X726530Y7481170D01*
X719710Y7482480D01*
X712900Y7481170D01*
X704140Y7475920D01*
X707060Y7510040D01*
X733340D01*
X811830Y1290000D02*
Y1368700D01*
X835190D01*
X842980Y1364760D01*
X848820Y1355580D01*
X850770Y1345090D01*
X848820Y1334600D01*
X843950Y1326730D01*
X835190Y1322790D01*
X811830D01*
X888590Y1301800D02*
X894430Y1295250D01*
X901240Y1291310D01*
X910000Y1290000D01*
X918760Y1292620D01*
X925570Y1297870D01*
X930440Y1307050D01*
X931410Y1317540D01*
X929470Y1328040D01*
X924600Y1334600D01*
X917790Y1339840D01*
X910970Y1341150D01*
X904160Y1339840D01*
X895400Y1334600D01*
X898320Y1368700D01*
X924600D01*
X988700Y1368700D02*
X980910Y1366080D01*
X975070Y1359520D01*
X971180Y1351650D01*
X968260Y1341150D01*
X967290Y1329350D01*
X968260Y1317540D01*
X971180Y1307050D01*
X975070Y1299180D01*
X980910Y1292620D01*
X988700Y1290000D01*
X996490Y1292620D01*
X1002330Y1299180D01*
X1006220Y1307050D01*
X1009140Y1317540D01*
X1010110Y1329350D01*
X1009140Y1341150D01*
X1006220Y1351650D01*
X1002330Y1359520D01*
X996490Y1366080D01*
X988700Y1368700D01*
X828310Y1192180D02*
X822470Y1196120D01*
X815650Y1198740D01*
X807860D01*
X799100Y1194800D01*
X792290Y1188240D01*
X787420Y1180370D01*
X783520Y1167240D01*
X782550Y1155430D01*
X784500Y1143620D01*
X787420Y1135750D01*
X793260Y1127870D01*
X800070Y1122620D01*
X806890Y1120000D01*
X813710D01*
X820520Y1122620D01*
X826360Y1126560D01*
X831230Y1131810D01*
X885630Y1120000D02*
Y1198740D01*
X873950Y1182990D01*
X873950Y1120000D02*
X897310D01*
X976050Y1120000D02*
Y1198740D01*
X940030Y1142310D01*
X988710D01*
X1043110Y1120000D02*
X1049930Y1121310D01*
X1057710Y1125250D01*
X1062580Y1131810D01*
X1064530Y1141000D01*
X1062580Y1150180D01*
X1056740Y1158060D01*
X1047980Y1162000D01*
X1038240D01*
X1032400Y1164620D01*
X1027530Y1171180D01*
X1025580Y1180370D01*
X1028510Y1189550D01*
X1035320Y1196120D01*
X1043110Y1198740D01*
X1050900Y1196120D01*
X1057710Y1189550D01*
X1060640Y1180370D01*
X1058690Y1171180D01*
X1053820Y1164620D01*
X1047980Y1162000D01*
X1038240Y1162000D02*
X1029480Y1158060D01*
X1023640Y1150180D01*
X1021690Y1141000D01*
X1023640Y1131810D01*
X1028510Y1125250D01*
X1036290Y1121310D01*
X1043110Y1120000D01*
X851830Y1570000D02*
Y1648700D01*
X875190D01*
X882980Y1644760D01*
X888820Y1635580D01*
X890770Y1625090D01*
X888820Y1614600D01*
X883950Y1606730D01*
X875190Y1602790D01*
X851830D01*
X950000Y1570000D02*
X956810Y1571310D01*
X964600Y1575250D01*
X969470Y1581800D01*
X971410Y1590990D01*
X969470Y1600170D01*
X963630Y1608040D01*
X954870Y1611970D01*
X945130D01*
X939290Y1614600D01*
X934430Y1621150D01*
X932480Y1630340D01*
X935400Y1639520D01*
X942210Y1646080D01*
X950000Y1648700D01*
X957790Y1646080D01*
X964600Y1639520D01*
X967520Y1630340D01*
X965570Y1621150D01*
X960710Y1614600D01*
X954870Y1611970D01*
X945130Y1611970D02*
X936370Y1608040D01*
X930530Y1600170D01*
X928590Y1590990D01*
X930530Y1581800D01*
X935400Y1575250D01*
X943190Y1571310D01*
X950000Y1570000D01*
X1026750Y1570000D02*
X1028700Y1587050D01*
X1031620Y1601480D01*
X1035510Y1614600D01*
X1040380Y1629020D01*
X1048170Y1648700D01*
X1009230D01*
X811830Y1885000D02*
Y1963700D01*
X835190D01*
X842980Y1959760D01*
X848820Y1950580D01*
X850770Y1940090D01*
X848820Y1929600D01*
X843950Y1921730D01*
X835190Y1917790D01*
X811830D01*
X908050Y1885000D02*
X910000Y1902050D01*
X912920Y1916480D01*
X916810Y1929600D01*
X921680Y1944020D01*
X929470Y1963700D01*
X890530D01*
X972150Y1894180D02*
X978970Y1887620D01*
X986750Y1885000D01*
X994540Y1887620D01*
X1001350Y1895490D01*
X1006220Y1907300D01*
X1008170Y1919100D01*
Y1933530D01*
X1006220Y1945340D01*
X1001350Y1955830D01*
X995510Y1961080D01*
X988700Y1963700D01*
X980910Y1961080D01*
X975070Y1955830D01*
X971180Y1947960D01*
X969230Y1937470D01*
X971180Y1928290D01*
X976050Y1919100D01*
X981890Y1913860D01*
X988700Y1912540D01*
X996490Y1915170D01*
X1002330Y1921730D01*
X1008170Y1933530D01*
X785000Y2592480D02*
X706300D01*
Y2616820D01*
X710240Y2624600D01*
X715480Y2629470D01*
X725980Y2631420D01*
X736470Y2629470D01*
X743030Y2623630D01*
X746960Y2616820D01*
Y2592480D01*
X746960Y2616820D02*
X785000Y2631420D01*
X785000Y2690650D02*
X706300D01*
X722040Y2678970D01*
X785000Y2678970D02*
Y2702330D01*
X785000Y2767400D02*
X767950Y2769350D01*
X753520Y2772270D01*
X740400Y2776160D01*
X725980Y2781030D01*
X706300Y2788820D01*
Y2749880D01*
X706300Y2848050D02*
X708920Y2840260D01*
X715480Y2834420D01*
X723350Y2830530D01*
X733850Y2827610D01*
X745650Y2826640D01*
X757460Y2827610D01*
X767950Y2830530D01*
X775820Y2834420D01*
X782380Y2840260D01*
X785000Y2848050D01*
X782380Y2855840D01*
X775820Y2861680D01*
X767950Y2865570D01*
X757460Y2868490D01*
X745650Y2869460D01*
X733850Y2868490D01*
X723350Y2865570D01*
X715480Y2861680D01*
X708920Y2855840D01*
X706300Y2848050D01*
X753310Y3812180D02*
X747470Y3816120D01*
X740650Y3818740D01*
X732860D01*
X724100Y3814800D01*
X717290Y3808240D01*
X712420Y3800370D01*
X708520Y3787240D01*
X707550Y3775430D01*
X709500Y3763620D01*
X712420Y3755750D01*
X718260Y3747870D01*
X725070Y3742620D01*
X731890Y3740000D01*
X738710D01*
X745520Y3742620D01*
X751360Y3746560D01*
X756230Y3751810D01*
X810630Y3740000D02*
Y3818740D01*
X798950Y3802990D01*
X798950Y3740000D02*
X822310D01*
X901050Y3740000D02*
Y3818740D01*
X865030Y3762310D01*
X913710D01*
X949610Y3772810D02*
X956430Y3782000D01*
X962270Y3787240D01*
X970060Y3789870D01*
X976870Y3787240D01*
X981740Y3782000D01*
X985640Y3774120D01*
X986610Y3764930D01*
X985640Y3757060D01*
X981740Y3749180D01*
X975900Y3742620D01*
X969080Y3740000D01*
X961290Y3742620D01*
X954480Y3750500D01*
X950580Y3762310D01*
X949610Y3775430D01*
X951560Y3792490D01*
X954480Y3801680D01*
X959350Y3810870D01*
X966160Y3817430D01*
X972980Y3818740D01*
X979790Y3816120D01*
X984660Y3809550D01*
X886920Y6398740D02*
X911260Y6320000D01*
X935600Y6398740D01*
X968580Y6335750D02*
X974420Y6326560D01*
X982210Y6321310D01*
X990970Y6320000D01*
X998760Y6321310D01*
X1006550Y6327870D01*
X1011420Y6335750D01*
X1012390Y6343620D01*
X1010450Y6352810D01*
X1003630Y6359370D01*
X996820Y6362000D01*
X988050D01*
X996820Y6362000D02*
X1002660Y6365930D01*
X1007530Y6372490D01*
X1009470Y6380370D01*
X1007530Y6388240D01*
X1002660Y6394800D01*
X993890Y6398740D01*
X985130Y6397430D01*
X976370Y6392180D01*
X1068740Y6320000D02*
X1075560Y6321310D01*
X1083340Y6325250D01*
X1088210Y6331810D01*
X1090160Y6341000D01*
X1088210Y6350180D01*
X1082370Y6358060D01*
X1073610Y6362000D01*
X1063870D01*
X1058030Y6364620D01*
X1053160Y6371180D01*
X1051210Y6380370D01*
X1054140Y6389550D01*
X1060950Y6396120D01*
X1068740Y6398740D01*
X1076530Y6396120D01*
X1083340Y6389550D01*
X1086270Y6380370D01*
X1084320Y6371180D01*
X1079450Y6364620D01*
X1073610Y6362000D01*
X1063870Y6362000D02*
X1055110Y6358060D01*
X1049270Y6350180D01*
X1047320Y6341000D01*
X1049270Y6331810D01*
X1054140Y6325250D01*
X1061920Y6321310D01*
X1068740Y6320000D01*
X886920Y7510040D02*
X911260Y7431300D01*
X935600Y7510040D01*
X968580Y7447050D02*
X974420Y7437860D01*
X982210Y7432610D01*
X990970Y7431300D01*
X998760Y7432610D01*
X1006550Y7439170D01*
X1011420Y7447050D01*
X1012390Y7454920D01*
X1010450Y7464110D01*
X1003630Y7470670D01*
X996820Y7473300D01*
X988050D01*
X996820Y7473300D02*
X1002660Y7477230D01*
X1007530Y7483790D01*
X1009470Y7491670D01*
X1007530Y7499540D01*
X1002660Y7506100D01*
X993890Y7510040D01*
X985130Y7508730D01*
X976370Y7503480D01*
X1050240Y7464110D02*
X1057060Y7473300D01*
X1062900Y7478540D01*
X1070690Y7481170D01*
X1077500Y7478540D01*
X1082370Y7473300D01*
X1086270Y7465420D01*
X1087240Y7456230D01*
X1086270Y7448360D01*
X1082370Y7440480D01*
X1076530Y7433920D01*
X1069710Y7431300D01*
X1061920Y7433920D01*
X1055110Y7441800D01*
X1051210Y7453610D01*
X1050240Y7466730D01*
X1052190Y7483790D01*
X1055110Y7492980D01*
X1059980Y7502170D01*
X1066790Y7508730D01*
X1073610Y7510040D01*
X1080420Y7507420D01*
X1085290Y7500850D01*
X962820Y2333310D02*
X958880Y2327470D01*
X956260Y2320650D01*
Y2312860D01*
X960200Y2304100D01*
X966760Y2297290D01*
X974630Y2292420D01*
X987760Y2288520D01*
X999570Y2287550D01*
X1011380Y2289500D01*
X1019250Y2292420D01*
X1027130Y2298260D01*
X1032380Y2305070D01*
X1035000Y2311890D01*
Y2318710D01*
X1032380Y2325520D01*
X1028440Y2331360D01*
X1023190Y2336230D01*
X1035000Y2390630D02*
X956260D01*
X972010Y2378950D01*
X1035000Y2378950D02*
Y2402310D01*
X1035000Y2481050D02*
X956260D01*
X1012690Y2445030D01*
Y2493710D01*
X1035000Y2546160D02*
X1017940Y2548110D01*
X1003510Y2551030D01*
X990380Y2554930D01*
X975950Y2559790D01*
X956260Y2567580D01*
Y2528640D01*
X922820Y2938310D02*
X918880Y2932470D01*
X916260Y2925650D01*
Y2917860D01*
X920200Y2909100D01*
X926760Y2902290D01*
X934630Y2897420D01*
X947760Y2893520D01*
X959570Y2892550D01*
X971380Y2894500D01*
X979250Y2897420D01*
X987130Y2903260D01*
X992380Y2910070D01*
X995000Y2916890D01*
Y2923710D01*
X992380Y2930520D01*
X988440Y2936360D01*
X983190Y2941230D01*
X995000Y2995630D02*
X916260D01*
X932010Y2983950D01*
X995000Y2983950D02*
Y3007310D01*
X995000Y3086050D02*
X916260D01*
X972690Y3050030D01*
Y3098710D01*
X929380Y3134610D02*
X921510Y3140450D01*
X917570Y3147270D01*
X916260Y3155060D01*
X918880Y3164790D01*
X925450Y3171610D01*
X933320Y3173560D01*
X941200Y3172580D01*
X947760Y3168690D01*
X960880Y3149220D01*
X970070Y3140450D01*
X983190Y3134610D01*
X995000Y3132660D01*
Y3173560D01*
X1241260Y726920D02*
X1320000Y751260D01*
X1241260Y775600D01*
X1254380Y811500D02*
X1246510Y817340D01*
X1242570Y824160D01*
X1241260Y831950D01*
X1243880Y841680D01*
X1250450Y848500D01*
X1258320Y850450D01*
X1266200Y849470D01*
X1272760Y845580D01*
X1285880Y826110D01*
X1295070Y817340D01*
X1308190Y811500D01*
X1320000Y809550D01*
Y850450D01*
X1320000Y906790D02*
X1302940Y908740D01*
X1288510Y911660D01*
X1275380Y915560D01*
X1260950Y920420D01*
X1241260Y928210D01*
Y889270D01*
X1221920Y6398740D02*
X1246260Y6320000D01*
X1270600Y6398740D01*
X1303580Y6335750D02*
X1309420Y6326560D01*
X1317210Y6321310D01*
X1325970Y6320000D01*
X1333760Y6321310D01*
X1341550Y6327870D01*
X1346420Y6335750D01*
X1347390Y6343620D01*
X1345450Y6352810D01*
X1338630Y6359370D01*
X1331820Y6362000D01*
X1323050D01*
X1331820Y6362000D02*
X1337660Y6365930D01*
X1342530Y6372490D01*
X1344470Y6380370D01*
X1342530Y6388240D01*
X1337660Y6394800D01*
X1328890Y6398740D01*
X1320130Y6397430D01*
X1311370Y6392180D01*
X1401790Y6320000D02*
X1403740Y6337060D01*
X1406660Y6351490D01*
X1410560Y6364620D01*
X1415420Y6379050D01*
X1423210Y6398740D01*
X1384270D01*
X1221260Y7436920D02*
X1300000Y7461260D01*
X1221260Y7485600D01*
X1300000Y7540000D02*
X1221260D01*
X1237010Y7528320D01*
X1300000Y7528320D02*
Y7551680D01*
X1290820Y7602190D02*
X1297380Y7609000D01*
X1300000Y7616790D01*
X1297380Y7624580D01*
X1289500Y7631400D01*
X1277690Y7636270D01*
X1265880Y7638210D01*
X1251440D01*
X1239630Y7636270D01*
X1229130Y7631400D01*
X1223880Y7625560D01*
X1221260Y7618740D01*
X1223880Y7610950D01*
X1229130Y7605110D01*
X1237010Y7601210D01*
X1247510Y7599270D01*
X1256690Y7601210D01*
X1265880Y7606080D01*
X1271130Y7611920D01*
X1272440Y7618740D01*
X1269820Y7626530D01*
X1263260Y7632370D01*
X1251440Y7638210D01*
X1481830Y3990000D02*
Y4068700D01*
X1505190D01*
X1512980Y4064760D01*
X1518820Y4055580D01*
X1520770Y4045090D01*
X1518820Y4034600D01*
X1513950Y4026730D01*
X1505190Y4022790D01*
X1481830D01*
X1591680Y3990000D02*
Y4068700D01*
X1555670Y4012300D01*
X1604330D01*
X1658700Y3990000D02*
X1665510Y3991310D01*
X1673300Y3995250D01*
X1678170Y4001800D01*
X1680110Y4010990D01*
X1678170Y4020170D01*
X1672330Y4028040D01*
X1663570Y4031970D01*
X1653830D01*
X1647990Y4034600D01*
X1643130Y4041150D01*
X1641180Y4050340D01*
X1644100Y4059520D01*
X1650910Y4066080D01*
X1658700Y4068700D01*
X1666490Y4066080D01*
X1673300Y4059520D01*
X1676220Y4050340D01*
X1674270Y4041150D01*
X1669410Y4034600D01*
X1663570Y4031970D01*
X1653830Y4031970D02*
X1645070Y4028040D01*
X1639230Y4020170D01*
X1637290Y4010990D01*
X1639230Y4001800D01*
X1644100Y3995250D01*
X1651890Y3991310D01*
X1658700Y3990000D01*
X1641830Y4275000D02*
Y4353700D01*
X1665190D01*
X1672980Y4349760D01*
X1678820Y4340580D01*
X1680770Y4330090D01*
X1678820Y4319600D01*
X1673950Y4311730D01*
X1665190Y4307790D01*
X1641830D01*
X1740000Y4275000D02*
Y4353700D01*
X1728320Y4337960D01*
X1728320Y4275000D02*
X1751680D01*
X1830380Y4275000D02*
Y4353700D01*
X1794370Y4297300D01*
X1843030D01*
X1671830Y6480000D02*
Y6558700D01*
X1695190D01*
X1702980Y6554760D01*
X1708820Y6545580D01*
X1710770Y6535090D01*
X1708820Y6524600D01*
X1703950Y6516730D01*
X1695190Y6512790D01*
X1671830D01*
X1770000Y6480000D02*
Y6558700D01*
X1758320Y6542960D01*
X1758320Y6480000D02*
X1781680D01*
X1848700Y6480000D02*
Y6558700D01*
X1837020Y6542960D01*
X1837020Y6480000D02*
X1860380D01*
X1671830Y6620000D02*
Y6698700D01*
X1695190D01*
X1702980Y6694760D01*
X1708820Y6685580D01*
X1710770Y6675090D01*
X1708820Y6664600D01*
X1703950Y6656730D01*
X1695190Y6652790D01*
X1671830D01*
X1770000Y6620000D02*
Y6698700D01*
X1758320Y6682960D01*
X1758320Y6620000D02*
X1781680D01*
X1848700Y6698700D02*
X1840910Y6696080D01*
X1835070Y6689520D01*
X1831180Y6681650D01*
X1828260Y6671150D01*
X1827290Y6659350D01*
X1828260Y6647540D01*
X1831180Y6637050D01*
X1835070Y6629180D01*
X1840910Y6622620D01*
X1848700Y6620000D01*
X1856490Y6622620D01*
X1862330Y6629180D01*
X1866220Y6637050D01*
X1869140Y6647540D01*
X1870110Y6659350D01*
X1869140Y6671150D01*
X1866220Y6681650D01*
X1862330Y6689520D01*
X1856490Y6696080D01*
X1848700Y6698700D01*
X1671830Y7020000D02*
Y7098700D01*
X1695190D01*
X1702980Y7094760D01*
X1708820Y7085580D01*
X1710770Y7075090D01*
X1708820Y7064600D01*
X1703950Y7056730D01*
X1695190Y7052790D01*
X1671830D01*
X1770000Y7020000D02*
Y7098700D01*
X1758320Y7082960D01*
X1758320Y7020000D02*
X1781680D01*
X1830210Y7085580D02*
X1836050Y7093450D01*
X1842860Y7097390D01*
X1850650Y7098700D01*
X1860380Y7096080D01*
X1867190Y7089520D01*
X1869140Y7081650D01*
X1868170Y7073780D01*
X1864270Y7067220D01*
X1844810Y7054100D01*
X1836050Y7044920D01*
X1830210Y7031800D01*
X1828260Y7020000D01*
X1869140D01*
X1459240Y7501800D02*
X1465080Y7495250D01*
X1471890Y7491310D01*
X1480650Y7490000D01*
X1489410Y7492620D01*
X1496220Y7497870D01*
X1501090Y7507050D01*
X1502060Y7517540D01*
X1500120Y7528040D01*
X1495250Y7534600D01*
X1488440Y7539840D01*
X1481620Y7541150D01*
X1474810Y7539840D01*
X1466050Y7534600D01*
X1468970Y7568700D01*
X1495250D01*
X1559350Y7568700D02*
X1551560Y7566080D01*
X1545720Y7559520D01*
X1541830Y7551650D01*
X1538910Y7541150D01*
X1537940Y7529350D01*
X1538910Y7517540D01*
X1541830Y7507050D01*
X1545720Y7499180D01*
X1551560Y7492620D01*
X1559350Y7490000D01*
X1567140Y7492620D01*
X1572980Y7499180D01*
X1576870Y7507050D01*
X1579790Y7517540D01*
X1580760Y7529350D01*
X1579790Y7541150D01*
X1576870Y7551650D01*
X1572980Y7559520D01*
X1567140Y7566080D01*
X1559350Y7568700D01*
X1746830Y3905000D02*
Y3983700D01*
X1770190D01*
X1777980Y3979760D01*
X1783820Y3970580D01*
X1785770Y3960090D01*
X1783820Y3949600D01*
X1778950Y3941730D01*
X1770190Y3937790D01*
X1746830D01*
X1823590Y3920740D02*
X1829430Y3911560D01*
X1837210Y3906310D01*
X1845970Y3905000D01*
X1853760Y3906310D01*
X1861550Y3912870D01*
X1866410Y3920740D01*
X1867390Y3928610D01*
X1865440Y3937790D01*
X1858630Y3944350D01*
X1851810Y3946970D01*
X1843050D01*
X1851810Y3946970D02*
X1857650Y3950910D01*
X1862520Y3957470D01*
X1864470Y3965340D01*
X1862520Y3973210D01*
X1857650Y3979760D01*
X1848890Y3983700D01*
X1840130Y3982390D01*
X1831370Y3977140D01*
X1923700Y3905000D02*
Y3983700D01*
X1912020Y3967960D01*
X1912020Y3905000D02*
X1935380D01*
X1876530Y4274500D02*
Y4353200D01*
X1899890D01*
X1907680Y4349260D01*
X1913520Y4340080D01*
X1915470Y4329590D01*
X1913520Y4319100D01*
X1908650Y4311230D01*
X1899890Y4307290D01*
X1876530D01*
X1974700Y4274500D02*
Y4353200D01*
X1963020Y4337460D01*
X1963020Y4274500D02*
X1986380D01*
X2031990Y4286300D02*
X2037830Y4279750D01*
X2044640Y4275810D01*
X2053400Y4274500D01*
X2062160Y4277120D01*
X2068970Y4282370D01*
X2073840Y4291550D01*
X2074810Y4302040D01*
X2072870Y4312540D01*
X2068000Y4319100D01*
X2061190Y4324340D01*
X2054370Y4325650D01*
X2047560Y4324340D01*
X2038800Y4319100D01*
X2041720Y4353200D01*
X2068000D01*
X1736180Y6820000D02*
Y6898700D01*
X1759540D01*
X1767330Y6894760D01*
X1773170Y6885580D01*
X1775120Y6875090D01*
X1773170Y6864600D01*
X1768300Y6856730D01*
X1759540Y6852790D01*
X1736180D01*
X1817800Y6829180D02*
X1824620Y6822620D01*
X1832400Y6820000D01*
X1840190Y6822620D01*
X1847000Y6830490D01*
X1851870Y6842300D01*
X1853820Y6854100D01*
Y6868530D01*
X1851870Y6880340D01*
X1847000Y6890830D01*
X1841160Y6896080D01*
X1834350Y6898700D01*
X1826560Y6896080D01*
X1820720Y6890830D01*
X1816830Y6882960D01*
X1814880Y6872470D01*
X1816830Y6863290D01*
X1821700Y6854100D01*
X1827540Y6848860D01*
X1834350Y6847540D01*
X1842140Y6850170D01*
X1847980Y6856730D01*
X1853820Y6868530D01*
X2046920Y1278740D02*
X2071260Y1200000D01*
X2095600Y1278740D01*
X2150000Y1200000D02*
Y1278740D01*
X2138320Y1262990D01*
X2138320Y1200000D02*
X2161680D01*
X2207320Y1211810D02*
X2213160Y1205250D01*
X2219980Y1201310D01*
X2228740Y1200000D01*
X2237500Y1202620D01*
X2244320Y1207870D01*
X2249190Y1217060D01*
X2250160Y1227560D01*
X2248210Y1238060D01*
X2243340Y1244620D01*
X2236530Y1249870D01*
X2229710Y1251180D01*
X2222900Y1249870D01*
X2214140Y1244620D01*
X2217060Y1278740D01*
X2243340D01*
X2126830Y4075000D02*
Y4153700D01*
X2150190D01*
X2157980Y4149760D01*
X2163820Y4140580D01*
X2165770Y4130090D01*
X2163820Y4119600D01*
X2158950Y4111730D01*
X2150190Y4107790D01*
X2126830D01*
X2206510Y4140580D02*
X2212350Y4148450D01*
X2219160Y4152390D01*
X2226950Y4153700D01*
X2236680Y4151080D01*
X2243490Y4144520D01*
X2245440Y4136650D01*
X2244470Y4128780D01*
X2240570Y4122220D01*
X2221110Y4109100D01*
X2212350Y4099920D01*
X2206510Y4086800D01*
X2204560Y4075000D01*
X2245440D01*
X2287150Y4084180D02*
X2293970Y4077620D01*
X2301750Y4075000D01*
X2309540Y4077620D01*
X2316350Y4085490D01*
X2321220Y4097300D01*
X2323170Y4109100D01*
Y4123530D01*
X2321220Y4135340D01*
X2316350Y4145830D01*
X2310510Y4151080D01*
X2303700Y4153700D01*
X2295910Y4151080D01*
X2290070Y4145830D01*
X2286180Y4137960D01*
X2284230Y4127470D01*
X2286180Y4118290D01*
X2291050Y4109100D01*
X2296890Y4103860D01*
X2303700Y4102540D01*
X2311490Y4105170D01*
X2317330Y4111730D01*
X2323170Y4123530D01*
X2500000Y1175000D02*
Y1253700D01*
X2488320Y1237960D01*
X2488320Y1175000D02*
X2511680D01*
X2361830Y3795000D02*
Y3873700D01*
X2385190D01*
X2392980Y3869760D01*
X2398820Y3860580D01*
X2400770Y3850090D01*
X2398820Y3839600D01*
X2393950Y3831730D01*
X2385190Y3827790D01*
X2361830D01*
X2441510Y3860580D02*
X2447350Y3868450D01*
X2454160Y3872390D01*
X2461950Y3873700D01*
X2471680Y3871080D01*
X2478490Y3864520D01*
X2480440Y3856650D01*
X2479470Y3848780D01*
X2475570Y3842220D01*
X2456110Y3829100D01*
X2447350Y3819920D01*
X2441510Y3806800D01*
X2439560Y3795000D01*
X2480440D01*
X2538700Y3795000D02*
Y3873700D01*
X2527020Y3857960D01*
X2527020Y3795000D02*
X2550380D01*
X2507530Y4069250D02*
Y4147950D01*
X2530890D01*
X2538680Y4144010D01*
X2544520Y4134830D01*
X2546470Y4124340D01*
X2544520Y4113850D01*
X2539650Y4105980D01*
X2530890Y4102040D01*
X2507530D01*
X2587210Y4134830D02*
X2593050Y4142700D01*
X2599860Y4146640D01*
X2607650Y4147950D01*
X2617380Y4145330D01*
X2624190Y4138770D01*
X2626140Y4130900D01*
X2625170Y4123030D01*
X2621270Y4116470D01*
X2601810Y4103350D01*
X2593050Y4094170D01*
X2587210Y4081050D01*
X2585260Y4069250D01*
X2626140D01*
X2665910Y4102040D02*
X2672720Y4111220D01*
X2678560Y4116470D01*
X2686350Y4119090D01*
X2693160Y4116470D01*
X2698030Y4111220D01*
X2701920Y4103350D01*
X2702890Y4094170D01*
X2701920Y4086300D01*
X2698030Y4078430D01*
X2692190Y4071870D01*
X2685370Y4069250D01*
X2677590Y4071870D01*
X2670770Y4079740D01*
X2666880Y4091550D01*
X2665910Y4104660D01*
X2667850Y4121720D01*
X2670770Y4130900D01*
X2675640Y4140080D01*
X2682450Y4146640D01*
X2689270Y4147950D01*
X2696080Y4145330D01*
X2700950Y4138770D01*
X2741830Y4115000D02*
Y4193700D01*
X2765190D01*
X2772980Y4189760D01*
X2778820Y4180580D01*
X2780770Y4170090D01*
X2778820Y4159600D01*
X2773950Y4151730D01*
X2765190Y4147790D01*
X2741830D01*
X2821510Y4180580D02*
X2827350Y4188450D01*
X2834160Y4192390D01*
X2841950Y4193700D01*
X2851680Y4191080D01*
X2858490Y4184520D01*
X2860440Y4176650D01*
X2859470Y4168780D01*
X2855570Y4162220D01*
X2836110Y4149100D01*
X2827350Y4139920D01*
X2821510Y4126800D01*
X2819560Y4115000D01*
X2860440D01*
X2918700Y4115000D02*
X2925510Y4116310D01*
X2933300Y4120250D01*
X2938170Y4126800D01*
X2940110Y4135990D01*
X2938170Y4145170D01*
X2932330Y4153040D01*
X2923570Y4156970D01*
X2913830D01*
X2907990Y4159600D01*
X2903130Y4166150D01*
X2901180Y4175340D01*
X2904100Y4184520D01*
X2910910Y4191080D01*
X2918700Y4193700D01*
X2926490Y4191080D01*
X2933300Y4184520D01*
X2936220Y4175340D01*
X2934270Y4166150D01*
X2929410Y4159600D01*
X2923570Y4156970D01*
X2913830Y4156970D02*
X2905070Y4153040D01*
X2899230Y4145170D01*
X2897290Y4135990D01*
X2899230Y4126800D01*
X2904100Y4120250D01*
X2911890Y4116310D01*
X2918700Y4115000D01*
X2901180Y1560000D02*
Y1638700D01*
X2924540D01*
X2932330Y1634760D01*
X2938170Y1625580D01*
X2940120Y1615090D01*
X2938170Y1604600D01*
X2933300Y1596730D01*
X2924540Y1592790D01*
X2901180D01*
X3011030Y1560000D02*
Y1638700D01*
X2975020Y1582300D01*
X3023680D01*
X2961830Y3810000D02*
Y3888700D01*
X2986170D01*
X2993950Y3884760D01*
X2998820Y3879520D01*
X3000770Y3869020D01*
X2998820Y3858530D01*
X2992980Y3851970D01*
X2986170Y3848040D01*
X2961830D01*
X2986170Y3848040D02*
X3000770Y3810000D01*
X3071680Y3810000D02*
Y3888700D01*
X3035670Y3832300D01*
X3084330D01*
X3138700Y3810000D02*
Y3888700D01*
X3127020Y3872960D01*
X3127020Y3810000D02*
X3150380D01*
X3195000Y1170000D02*
X3201810Y1171310D01*
X3209600Y1175250D01*
X3214470Y1181800D01*
X3216410Y1190990D01*
X3214470Y1200170D01*
X3208630Y1208040D01*
X3199870Y1211970D01*
X3190130D01*
X3184290Y1214600D01*
X3179430Y1221150D01*
X3177480Y1230340D01*
X3180400Y1239520D01*
X3187210Y1246080D01*
X3195000Y1248700D01*
X3202790Y1246080D01*
X3209600Y1239520D01*
X3212520Y1230340D01*
X3210570Y1221150D01*
X3205710Y1214600D01*
X3199870Y1211970D01*
X3190130Y1211970D02*
X3181370Y1208040D01*
X3175530Y1200170D01*
X3173590Y1190990D01*
X3175530Y1181800D01*
X3180400Y1175250D01*
X3188190Y1171310D01*
X3195000Y1170000D01*
X3211830Y1255000D02*
Y1333700D01*
X3235190D01*
X3242980Y1329760D01*
X3248820Y1320580D01*
X3250770Y1310090D01*
X3248820Y1299600D01*
X3243950Y1291730D01*
X3235190Y1287790D01*
X3211830D01*
X3288590Y1270740D02*
X3294430Y1261560D01*
X3302210Y1256310D01*
X3310970Y1255000D01*
X3318760Y1256310D01*
X3326550Y1262870D01*
X3331410Y1270740D01*
X3332390Y1278610D01*
X3330440Y1287790D01*
X3323630Y1294350D01*
X3316810Y1296970D01*
X3308050D01*
X3316810Y1296970D02*
X3322650Y1300910D01*
X3327520Y1307470D01*
X3329470Y1315340D01*
X3327520Y1323210D01*
X3322650Y1329760D01*
X3313890Y1333700D01*
X3305130Y1332390D01*
X3296370Y1327140D01*
X3367290Y1270740D02*
X3373130Y1261560D01*
X3380910Y1256310D01*
X3389670Y1255000D01*
X3397460Y1256310D01*
X3405250Y1262870D01*
X3410110Y1270740D01*
X3411090Y1278610D01*
X3409140Y1287790D01*
X3402330Y1294350D01*
X3395510Y1296970D01*
X3386750D01*
X3395510Y1296970D02*
X3401350Y1300910D01*
X3406220Y1307470D01*
X3408170Y1315340D01*
X3406220Y1323210D01*
X3401350Y1329760D01*
X3392590Y1333700D01*
X3383830Y1332390D01*
X3375070Y1327140D01*
X3286180Y4070000D02*
Y4148700D01*
X3309540D01*
X3317330Y4144760D01*
X3323170Y4135580D01*
X3325120Y4125090D01*
X3323170Y4114600D01*
X3318300Y4106730D01*
X3309540Y4102790D01*
X3286180D01*
X3362940Y4085740D02*
X3368780Y4076560D01*
X3376560Y4071310D01*
X3385320Y4070000D01*
X3393110Y4071310D01*
X3400900Y4077870D01*
X3405760Y4085740D01*
X3406740Y4093610D01*
X3404790Y4102790D01*
X3397980Y4109350D01*
X3391160Y4111970D01*
X3382400D01*
X3391160Y4111970D02*
X3397000Y4115910D01*
X3401870Y4122470D01*
X3403820Y4130340D01*
X3401870Y4138210D01*
X3397000Y4144760D01*
X3388240Y4148700D01*
X3379480Y4147390D01*
X3370720Y4142140D01*
X3322050Y7517180D02*
X3316210Y7521120D01*
X3309390Y7523740D01*
X3301600D01*
X3292840Y7519800D01*
X3286030Y7513240D01*
X3281160Y7505370D01*
X3277260Y7492240D01*
X3276290Y7480430D01*
X3278240Y7468620D01*
X3281160Y7460750D01*
X3287000Y7452870D01*
X3293810Y7447620D01*
X3300630Y7445000D01*
X3307450D01*
X3314260Y7447620D01*
X3320100Y7451560D01*
X3324970Y7456810D01*
X3391050Y7445000D02*
Y7523740D01*
X3355030Y7467310D01*
X3403710D01*
X3511830Y1260000D02*
Y1338700D01*
X3535190D01*
X3542980Y1334760D01*
X3548820Y1325580D01*
X3550770Y1315090D01*
X3548820Y1304600D01*
X3543950Y1296730D01*
X3535190Y1292790D01*
X3511830D01*
X3588590Y1275740D02*
X3594430Y1266560D01*
X3602210Y1261310D01*
X3610970Y1260000D01*
X3618760Y1261310D01*
X3626550Y1267870D01*
X3631410Y1275740D01*
X3632390Y1283610D01*
X3630440Y1292790D01*
X3623630Y1299350D01*
X3616810Y1301970D01*
X3608050D01*
X3616810Y1301970D02*
X3622650Y1305910D01*
X3627520Y1312470D01*
X3629470Y1320340D01*
X3627520Y1328210D01*
X3622650Y1334760D01*
X3613890Y1338700D01*
X3605130Y1337390D01*
X3596370Y1332140D01*
X3700380Y1260000D02*
Y1338700D01*
X3664370Y1282300D01*
X3713030D01*
X3461830Y1755000D02*
Y1833700D01*
X3485190D01*
X3492980Y1829760D01*
X3498820Y1820580D01*
X3500770Y1810090D01*
X3498820Y1799600D01*
X3493950Y1791730D01*
X3485190Y1787790D01*
X3461830D01*
X3538590Y1770740D02*
X3544430Y1761560D01*
X3552210Y1756310D01*
X3560970Y1755000D01*
X3568760Y1756310D01*
X3576550Y1762870D01*
X3581410Y1770740D01*
X3582390Y1778610D01*
X3580440Y1787790D01*
X3573630Y1794350D01*
X3566810Y1796970D01*
X3558050D01*
X3566810Y1796970D02*
X3572650Y1800910D01*
X3577520Y1807470D01*
X3579470Y1815340D01*
X3577520Y1823210D01*
X3572650Y1829760D01*
X3563890Y1833700D01*
X3555130Y1832390D01*
X3546370Y1827140D01*
X3620210Y1820580D02*
X3626050Y1828450D01*
X3632860Y1832390D01*
X3640650Y1833700D01*
X3650380Y1831080D01*
X3657190Y1824520D01*
X3659140Y1816650D01*
X3658170Y1808780D01*
X3654270Y1802220D01*
X3634810Y1789100D01*
X3626050Y1779920D01*
X3620210Y1766800D01*
X3618260Y1755000D01*
X3659140D01*
X3400000Y1716830D02*
X3321300D01*
Y1740190D01*
X3325240Y1747980D01*
X3334420Y1753820D01*
X3344910Y1755770D01*
X3355400Y1753820D01*
X3363270Y1748950D01*
X3367210Y1740190D01*
Y1716830D01*
X3384260Y1793590D02*
X3393440Y1799430D01*
X3398690Y1807210D01*
X3400000Y1815970D01*
X3398690Y1823760D01*
X3392130Y1831550D01*
X3384260Y1836410D01*
X3376390Y1837390D01*
X3367210Y1835440D01*
X3360650Y1828630D01*
X3358030Y1821810D01*
Y1813050D01*
X3358030Y1821810D02*
X3354090Y1827650D01*
X3347530Y1832520D01*
X3339660Y1834470D01*
X3331790Y1832520D01*
X3325240Y1827650D01*
X3321300Y1818890D01*
X3322610Y1810130D01*
X3327860Y1801370D01*
X3390820Y1877150D02*
X3397380Y1883970D01*
X3400000Y1891750D01*
X3397380Y1899540D01*
X3389510Y1906350D01*
X3377700Y1911220D01*
X3365900Y1913170D01*
X3351470D01*
X3339660Y1911220D01*
X3329170Y1906350D01*
X3323920Y1900510D01*
X3321300Y1893700D01*
X3323920Y1885910D01*
X3329170Y1880070D01*
X3337040Y1876180D01*
X3347530Y1874230D01*
X3356710Y1876180D01*
X3365900Y1881050D01*
X3371140Y1886890D01*
X3372460Y1893700D01*
X3369830Y1901490D01*
X3363270Y1907330D01*
X3351470Y1913170D01*
X3436180Y3795000D02*
Y3873700D01*
X3459540D01*
X3467330Y3869760D01*
X3473170Y3860580D01*
X3475120Y3850090D01*
X3473170Y3839600D01*
X3468300Y3831730D01*
X3459540Y3827790D01*
X3436180D01*
X3534350Y3795000D02*
Y3873700D01*
X3522670Y3857960D01*
X3522670Y3795000D02*
X3546030D01*
X3788310Y437180D02*
X3782470Y441120D01*
X3775650Y443740D01*
X3767860D01*
X3759100Y439800D01*
X3752290Y433240D01*
X3747420Y425370D01*
X3743520Y412240D01*
X3742550Y400430D01*
X3744500Y388620D01*
X3747420Y380750D01*
X3753260Y372870D01*
X3760070Y367620D01*
X3766890Y365000D01*
X3773710D01*
X3780520Y367620D01*
X3786360Y371560D01*
X3791230Y376810D01*
X3845630Y365000D02*
Y443740D01*
X3833950Y427990D01*
X3833950Y365000D02*
X3857310D01*
X3902950Y376810D02*
X3908790Y370250D01*
X3915610Y366310D01*
X3924370Y365000D01*
X3933130Y367620D01*
X3939950Y372870D01*
X3944820Y382060D01*
X3945790Y392560D01*
X3943840Y403060D01*
X3938970Y409620D01*
X3932160Y414870D01*
X3925340Y416180D01*
X3918530Y414870D01*
X3909770Y409620D01*
X3912690Y443740D01*
X3938970D01*
X3981690Y376810D02*
X3987530Y370250D01*
X3994350Y366310D01*
X4003110Y365000D01*
X4011870Y367620D01*
X4018690Y372870D01*
X4023560Y382060D01*
X4024530Y392560D01*
X4022580Y403060D01*
X4017710Y409620D01*
X4010900Y414870D01*
X4004080Y416180D01*
X3997270Y414870D01*
X3988510Y409620D01*
X3991430Y443740D01*
X4017710D01*
X3799960Y1518880D02*
X3794120Y1522820D01*
X3787300Y1525440D01*
X3779510D01*
X3770750Y1521500D01*
X3763940Y1514940D01*
X3759070Y1507070D01*
X3755170Y1493940D01*
X3754200Y1482130D01*
X3756150Y1470320D01*
X3759070Y1462450D01*
X3764910Y1454570D01*
X3771720Y1449320D01*
X3778540Y1446700D01*
X3785360D01*
X3792170Y1449320D01*
X3798010Y1453260D01*
X3802880Y1458510D01*
X3857280Y1446700D02*
Y1525440D01*
X3845600Y1509690D01*
X3845600Y1446700D02*
X3868960D01*
X3914600Y1458510D02*
X3920440Y1451950D01*
X3927260Y1448010D01*
X3936020Y1446700D01*
X3944780Y1449320D01*
X3951600Y1454570D01*
X3956470Y1463760D01*
X3957440Y1474260D01*
X3955490Y1484760D01*
X3950620Y1491320D01*
X3943810Y1496570D01*
X3936990Y1497880D01*
X3930180Y1496570D01*
X3921420Y1491320D01*
X3924340Y1525440D01*
X3950620D01*
X4012810Y1446700D02*
X4014760Y1463760D01*
X4017680Y1478190D01*
X4021580Y1491320D01*
X4026440Y1505750D01*
X4034230Y1525440D01*
X3995290D01*
X3795000Y1716830D02*
X3716300D01*
Y1740190D01*
X3720240Y1747980D01*
X3729420Y1753820D01*
X3739910Y1755770D01*
X3750400Y1753820D01*
X3758270Y1748950D01*
X3762210Y1740190D01*
Y1716830D01*
X3795000Y1826680D02*
X3716300D01*
X3772700Y1790670D01*
Y1839330D01*
X3795000Y1893700D02*
X3716300D01*
X3732040Y1882020D01*
X3795000Y1882020D02*
Y1905380D01*
X3781830Y3780000D02*
Y3858700D01*
X3805190D01*
X3812980Y3854760D01*
X3818820Y3845580D01*
X3820770Y3835090D01*
X3818820Y3824600D01*
X3813950Y3816730D01*
X3805190Y3812790D01*
X3781830D01*
X3861510Y3845580D02*
X3867350Y3853450D01*
X3874160Y3857390D01*
X3881950Y3858700D01*
X3891680Y3856080D01*
X3898490Y3849520D01*
X3900440Y3841650D01*
X3899470Y3833780D01*
X3895570Y3827220D01*
X3876110Y3814100D01*
X3867350Y3804920D01*
X3861510Y3791800D01*
X3859560Y3780000D01*
X3900440D01*
X3937290Y3791800D02*
X3943130Y3785250D01*
X3949940Y3781310D01*
X3958700Y3780000D01*
X3967460Y3782620D01*
X3974270Y3787870D01*
X3979140Y3797050D01*
X3980110Y3807540D01*
X3978170Y3818040D01*
X3973300Y3824600D01*
X3966490Y3829840D01*
X3959670Y3831150D01*
X3952860Y3829840D01*
X3944100Y3824600D01*
X3947020Y3858700D01*
X3973300D01*
X3587030Y4069250D02*
Y4147950D01*
X3610390D01*
X3618180Y4144010D01*
X3624020Y4134830D01*
X3625970Y4124340D01*
X3624020Y4113850D01*
X3619150Y4105980D01*
X3610390Y4102040D01*
X3587030D01*
X3666710Y4134830D02*
X3672550Y4142700D01*
X3679360Y4146640D01*
X3687150Y4147950D01*
X3696880Y4145330D01*
X3703690Y4138770D01*
X3705640Y4130900D01*
X3704670Y4123030D01*
X3700770Y4116470D01*
X3681310Y4103350D01*
X3672550Y4094170D01*
X3666710Y4081050D01*
X3664760Y4069250D01*
X3705640D01*
X3761950Y4069250D02*
X3763900Y4086300D01*
X3766820Y4100730D01*
X3770710Y4113850D01*
X3775580Y4128270D01*
X3783370Y4147950D01*
X3744430D01*
X3990000Y1711830D02*
X3911300D01*
Y1735190D01*
X3915240Y1742980D01*
X3924420Y1748820D01*
X3934910Y1750770D01*
X3945400Y1748820D01*
X3953270Y1743950D01*
X3957210Y1735190D01*
Y1711830D01*
X3990000Y1821680D02*
X3911300D01*
X3967700Y1785670D01*
Y1834330D01*
X3974260Y1867290D02*
X3983440Y1873130D01*
X3988690Y1880910D01*
X3990000Y1889670D01*
X3988690Y1897460D01*
X3982130Y1905250D01*
X3974260Y1910110D01*
X3966390Y1911090D01*
X3957210Y1909140D01*
X3950650Y1902330D01*
X3948030Y1895510D01*
Y1886750D01*
X3948030Y1895510D02*
X3944090Y1901350D01*
X3937530Y1906220D01*
X3929660Y1908170D01*
X3921790Y1906220D01*
X3915240Y1901350D01*
X3911300Y1892590D01*
X3912610Y1883830D01*
X3917860Y1875070D01*
X3991970Y3763700D02*
X4016300Y3685000D01*
X4040630Y3763700D01*
X4095000Y3685000D02*
Y3763700D01*
X4083320Y3747960D01*
X4083320Y3685000D02*
X4106680D01*
X4173700Y3685000D02*
Y3763700D01*
X4162020Y3747960D01*
X4162020Y3685000D02*
X4185380D01*
X3968030Y4069250D02*
Y4147950D01*
X3991390D01*
X3999180Y4144010D01*
X4005020Y4134830D01*
X4006970Y4124340D01*
X4005020Y4113850D01*
X4000150Y4105980D01*
X3991390Y4102040D01*
X3968030D01*
X4047710Y4134830D02*
X4053550Y4142700D01*
X4060360Y4146640D01*
X4068150Y4147950D01*
X4077880Y4145330D01*
X4084690Y4138770D01*
X4086640Y4130900D01*
X4085670Y4123030D01*
X4081770Y4116470D01*
X4062310Y4103350D01*
X4053550Y4094170D01*
X4047710Y4081050D01*
X4045760Y4069250D01*
X4086640D01*
X4126410Y4134830D02*
X4132250Y4142700D01*
X4139060Y4146640D01*
X4146850Y4147950D01*
X4156580Y4145330D01*
X4163390Y4138770D01*
X4165340Y4130900D01*
X4164370Y4123030D01*
X4160470Y4116470D01*
X4141010Y4103350D01*
X4132250Y4094170D01*
X4126410Y4081050D01*
X4124460Y4069250D01*
X4165340D01*
X3972050Y7192180D02*
X3966210Y7196120D01*
X3959390Y7198740D01*
X3951600D01*
X3942840Y7194800D01*
X3936030Y7188240D01*
X3931160Y7180370D01*
X3927260Y7167240D01*
X3926290Y7155430D01*
X3928240Y7143620D01*
X3931160Y7135750D01*
X3937000Y7127870D01*
X3943810Y7122620D01*
X3950630Y7120000D01*
X3957450D01*
X3964260Y7122620D01*
X3970100Y7126560D01*
X3974970Y7131810D01*
X4012820Y7129180D02*
X4019630Y7122620D01*
X4027420Y7120000D01*
X4035210Y7122620D01*
X4042030Y7130500D01*
X4046900Y7142310D01*
X4048840Y7154120D01*
Y7168560D01*
X4046900Y7180370D01*
X4042030Y7190870D01*
X4036190Y7196120D01*
X4029370Y7198740D01*
X4021580Y7196120D01*
X4015740Y7190870D01*
X4011840Y7182990D01*
X4009900Y7172490D01*
X4011840Y7163310D01*
X4016710Y7154120D01*
X4022550Y7148870D01*
X4029370Y7147560D01*
X4037160Y7150180D01*
X4043000Y7156740D01*
X4048840Y7168560D01*
X3975000Y7495000D02*
Y7573700D01*
X3963320Y7557960D01*
X3963320Y7495000D02*
X3986680D01*
X4168310Y592180D02*
X4162470Y596120D01*
X4155650Y598740D01*
X4147860D01*
X4139100Y594800D01*
X4132290Y588240D01*
X4127420Y580370D01*
X4123520Y567240D01*
X4122550Y555430D01*
X4124500Y543620D01*
X4127420Y535750D01*
X4133260Y527870D01*
X4140070Y522620D01*
X4146890Y520000D01*
X4153710D01*
X4160520Y522620D01*
X4166360Y526560D01*
X4171230Y531810D01*
X4225630Y520000D02*
Y598740D01*
X4213950Y582990D01*
X4213950Y520000D02*
X4237310D01*
X4282950Y531810D02*
X4288790Y525250D01*
X4295610Y521310D01*
X4304370Y520000D01*
X4313130Y522620D01*
X4319950Y527870D01*
X4324820Y537060D01*
X4325790Y547560D01*
X4323840Y558060D01*
X4318970Y564620D01*
X4312160Y569870D01*
X4305340Y571180D01*
X4298530Y569870D01*
X4289770Y564620D01*
X4292690Y598740D01*
X4318970D01*
X4364610Y552810D02*
X4371430Y562000D01*
X4377270Y567240D01*
X4385060Y569870D01*
X4391870Y567240D01*
X4396740Y562000D01*
X4400640Y554120D01*
X4401610Y544930D01*
X4400640Y537060D01*
X4396740Y529180D01*
X4390900Y522620D01*
X4384080Y520000D01*
X4376290Y522620D01*
X4369480Y530500D01*
X4365580Y542310D01*
X4364610Y555430D01*
X4366560Y572490D01*
X4369480Y581680D01*
X4374350Y590870D01*
X4381160Y597430D01*
X4387980Y598740D01*
X4394790Y596120D01*
X4399660Y589550D01*
X4261830Y1435000D02*
Y1513700D01*
X4285190D01*
X4292980Y1509760D01*
X4298820Y1500580D01*
X4300770Y1490090D01*
X4298820Y1479600D01*
X4293950Y1471730D01*
X4285190Y1467790D01*
X4261830D01*
X4338590Y1450740D02*
X4344430Y1441560D01*
X4352210Y1436310D01*
X4360970Y1435000D01*
X4368760Y1436310D01*
X4376550Y1442870D01*
X4381410Y1450740D01*
X4382390Y1458610D01*
X4380440Y1467790D01*
X4373630Y1474350D01*
X4366810Y1476970D01*
X4358050D01*
X4366810Y1476970D02*
X4372650Y1480910D01*
X4377520Y1487470D01*
X4379470Y1495340D01*
X4377520Y1503210D01*
X4372650Y1509760D01*
X4363890Y1513700D01*
X4355130Y1512390D01*
X4346370Y1507140D01*
X4438700Y1513700D02*
X4430910Y1511080D01*
X4425070Y1504520D01*
X4421180Y1496650D01*
X4418260Y1486150D01*
X4417290Y1474350D01*
X4418260Y1462540D01*
X4421180Y1452050D01*
X4425070Y1444180D01*
X4430910Y1437620D01*
X4438700Y1435000D01*
X4446490Y1437620D01*
X4452330Y1444180D01*
X4456220Y1452050D01*
X4459140Y1462540D01*
X4460110Y1474350D01*
X4459140Y1486150D01*
X4456220Y1496650D01*
X4452330Y1504520D01*
X4446490Y1511080D01*
X4438700Y1513700D01*
X4215000Y1417480D02*
X4136300D01*
Y1441820D01*
X4140240Y1449600D01*
X4145480Y1454470D01*
X4155980Y1456420D01*
X4166470Y1454470D01*
X4173030Y1448630D01*
X4176960Y1441820D01*
Y1417480D01*
X4176960Y1441820D02*
X4215000Y1456420D01*
X4215000Y1515650D02*
X4136300D01*
X4152040Y1503970D01*
X4215000Y1503970D02*
Y1527330D01*
X4215000Y1594350D02*
X4213690Y1601160D01*
X4209750Y1608950D01*
X4203200Y1613820D01*
X4194010Y1615760D01*
X4184830Y1613820D01*
X4176960Y1607980D01*
X4173030Y1599220D01*
Y1589480D01*
X4170400Y1583640D01*
X4163850Y1578780D01*
X4154660Y1576830D01*
X4145480Y1579750D01*
X4138920Y1586560D01*
X4136300Y1594350D01*
X4138920Y1602140D01*
X4145480Y1608950D01*
X4154660Y1611870D01*
X4163850Y1609920D01*
X4170400Y1605060D01*
X4173030Y1599220D01*
X4173030Y1589480D02*
X4176960Y1580720D01*
X4184830Y1574880D01*
X4194010Y1572940D01*
X4203200Y1574880D01*
X4209750Y1579750D01*
X4213690Y1587540D01*
X4215000Y1594350D01*
X4203200Y1651640D02*
X4209750Y1657480D01*
X4213690Y1664290D01*
X4215000Y1673050D01*
X4212380Y1681810D01*
X4207130Y1688620D01*
X4197950Y1693490D01*
X4187460Y1694460D01*
X4176960Y1692520D01*
X4170400Y1687650D01*
X4165160Y1680840D01*
X4163850Y1674020D01*
X4165160Y1667210D01*
X4170400Y1658450D01*
X4136300Y1661370D01*
Y1687650D01*
X4181830Y3790000D02*
Y3868700D01*
X4205190D01*
X4212980Y3864760D01*
X4218820Y3855580D01*
X4220770Y3845090D01*
X4218820Y3834600D01*
X4213950Y3826730D01*
X4205190Y3822790D01*
X4181830D01*
X4261510Y3855580D02*
X4267350Y3863450D01*
X4274160Y3867390D01*
X4281950Y3868700D01*
X4291680Y3866080D01*
X4298490Y3859520D01*
X4300440Y3851650D01*
X4299470Y3843780D01*
X4295570Y3837220D01*
X4276110Y3824100D01*
X4267350Y3814920D01*
X4261510Y3801800D01*
X4259560Y3790000D01*
X4300440D01*
X4370380Y3790000D02*
Y3868700D01*
X4334370Y3812300D01*
X4383030D01*
X4341530Y4069500D02*
Y4148200D01*
X4364890D01*
X4372680Y4144260D01*
X4378520Y4135080D01*
X4380470Y4124590D01*
X4378520Y4114100D01*
X4373650Y4106230D01*
X4364890Y4102290D01*
X4341530D01*
X4439700Y4069500D02*
Y4148200D01*
X4428020Y4132460D01*
X4428020Y4069500D02*
X4451380D01*
X4499910Y4102290D02*
X4506720Y4111470D01*
X4512560Y4116720D01*
X4520350Y4119340D01*
X4527160Y4116720D01*
X4532030Y4111470D01*
X4535920Y4103600D01*
X4536890Y4094420D01*
X4535920Y4086550D01*
X4532030Y4078680D01*
X4526190Y4072120D01*
X4519370Y4069500D01*
X4511590Y4072120D01*
X4504770Y4079990D01*
X4500880Y4091800D01*
X4499910Y4104910D01*
X4501850Y4121970D01*
X4504770Y4131150D01*
X4509640Y4140330D01*
X4516450Y4146890D01*
X4523270Y4148200D01*
X4530080Y4145580D01*
X4534950Y4139020D01*
X4256180Y7055000D02*
Y7133700D01*
X4279540D01*
X4287330Y7129760D01*
X4293170Y7120580D01*
X4295120Y7110090D01*
X4293170Y7099600D01*
X4288300Y7091730D01*
X4279540Y7087790D01*
X4256180D01*
X4354350Y7055000D02*
X4361160Y7056310D01*
X4368950Y7060250D01*
X4373820Y7066800D01*
X4375760Y7075990D01*
X4373820Y7085170D01*
X4367980Y7093040D01*
X4359220Y7096970D01*
X4349480D01*
X4343640Y7099600D01*
X4338780Y7106150D01*
X4336830Y7115340D01*
X4339750Y7124520D01*
X4346560Y7131080D01*
X4354350Y7133700D01*
X4362140Y7131080D01*
X4368950Y7124520D01*
X4371870Y7115340D01*
X4369920Y7106150D01*
X4365060Y7099600D01*
X4359220Y7096970D01*
X4349480Y7096970D02*
X4340720Y7093040D01*
X4334880Y7085170D01*
X4332940Y7075990D01*
X4334880Y7066800D01*
X4339750Y7060250D01*
X4347540Y7056310D01*
X4354350Y7055000D01*
X4495000Y1112420D02*
X4416260D01*
Y1136760D01*
X4420200Y1144550D01*
X4425450Y1149420D01*
X4435950Y1151360D01*
X4446440Y1149420D01*
X4453000Y1143570D01*
X4456940Y1136760D01*
Y1112420D01*
X4456940Y1136760D02*
X4495000Y1151360D01*
X4495000Y1210630D02*
X4416260D01*
X4432010Y1198950D01*
X4495000Y1198950D02*
Y1222310D01*
X4495000Y1289370D02*
X4493690Y1296190D01*
X4489750Y1303970D01*
X4483190Y1308840D01*
X4474000Y1310790D01*
X4464820Y1308840D01*
X4456940Y1303000D01*
X4453000Y1294240D01*
Y1284500D01*
X4450380Y1278660D01*
X4443820Y1273790D01*
X4434630Y1271840D01*
X4425450Y1274770D01*
X4418880Y1281580D01*
X4416260Y1289370D01*
X4418880Y1297160D01*
X4425450Y1303970D01*
X4434630Y1306900D01*
X4443820Y1304950D01*
X4450380Y1300080D01*
X4453000Y1294240D01*
X4453000Y1284500D02*
X4456940Y1275740D01*
X4464820Y1269900D01*
X4474000Y1267950D01*
X4483190Y1269900D01*
X4489750Y1274770D01*
X4493690Y1282550D01*
X4495000Y1289370D01*
X4495000Y1379790D02*
X4416260D01*
X4472690Y1343770D01*
Y1392450D01*
X4636830Y1435000D02*
Y1513700D01*
X4660190D01*
X4667980Y1509760D01*
X4673820Y1500580D01*
X4675770Y1490090D01*
X4673820Y1479600D01*
X4668950Y1471730D01*
X4660190Y1467790D01*
X4636830D01*
X4746680Y1435000D02*
Y1513700D01*
X4710670Y1457300D01*
X4759330D01*
X4795210Y1500580D02*
X4801050Y1508450D01*
X4807860Y1512390D01*
X4815650Y1513700D01*
X4825380Y1511080D01*
X4832190Y1504520D01*
X4834140Y1496650D01*
X4833170Y1488780D01*
X4829270Y1482220D01*
X4809810Y1469100D01*
X4801050Y1459920D01*
X4795210Y1446800D01*
X4793260Y1435000D01*
X4834140D01*
X4431180Y1720000D02*
Y1798700D01*
X4454540D01*
X4462330Y1794760D01*
X4468170Y1785580D01*
X4470120Y1775090D01*
X4468170Y1764600D01*
X4463300Y1756730D01*
X4454540Y1752790D01*
X4431180D01*
X4507940Y1731800D02*
X4513780Y1725250D01*
X4520590Y1721310D01*
X4529350Y1720000D01*
X4538110Y1722620D01*
X4544920Y1727870D01*
X4549790Y1737050D01*
X4550760Y1747540D01*
X4548820Y1758040D01*
X4543950Y1764600D01*
X4537140Y1769840D01*
X4530320Y1771150D01*
X4523510Y1769840D01*
X4514750Y1764600D01*
X4517670Y1798700D01*
X4543950D01*
X4586830Y3790000D02*
Y3868700D01*
X4610190D01*
X4617980Y3864760D01*
X4623820Y3855580D01*
X4625770Y3845090D01*
X4623820Y3834600D01*
X4618950Y3826730D01*
X4610190Y3822790D01*
X4586830D01*
X4666510Y3855580D02*
X4672350Y3863450D01*
X4679160Y3867390D01*
X4686950Y3868700D01*
X4696680Y3866080D01*
X4703490Y3859520D01*
X4705440Y3851650D01*
X4704470Y3843780D01*
X4700570Y3837220D01*
X4681110Y3824100D01*
X4672350Y3814920D01*
X4666510Y3801800D01*
X4664560Y3790000D01*
X4705440D01*
X4763700Y3868700D02*
X4755910Y3866080D01*
X4750070Y3859520D01*
X4746180Y3851650D01*
X4743260Y3841150D01*
X4742290Y3829350D01*
X4743260Y3817540D01*
X4746180Y3807050D01*
X4750070Y3799180D01*
X4755910Y3792620D01*
X4763700Y3790000D01*
X4771490Y3792620D01*
X4777330Y3799180D01*
X4781220Y3807050D01*
X4784140Y3817540D01*
X4785110Y3829350D01*
X4784140Y3841150D01*
X4781220Y3851650D01*
X4777330Y3859520D01*
X4771490Y3866080D01*
X4763700Y3868700D01*
X4466790Y7075000D02*
Y7153740D01*
X4491130D01*
X4498920Y7149800D01*
X4503790Y7144550D01*
X4505730Y7134050D01*
X4503790Y7123560D01*
X4497940Y7117000D01*
X4491130Y7113060D01*
X4466790D01*
X4491130Y7113060D02*
X4505730Y7075000D01*
X4546500Y7140620D02*
X4552340Y7148490D01*
X4559160Y7152430D01*
X4566950Y7153740D01*
X4576680Y7151120D01*
X4583500Y7144550D01*
X4585450Y7136680D01*
X4584470Y7128800D01*
X4580580Y7122240D01*
X4561110Y7109120D01*
X4552340Y7099930D01*
X4546500Y7086810D01*
X4544550Y7075000D01*
X4585450D01*
X4622320Y7090750D02*
X4628160Y7081560D01*
X4635950Y7076310D01*
X4644710Y7075000D01*
X4652500Y7076310D01*
X4660290Y7082870D01*
X4665160Y7090750D01*
X4666130Y7098620D01*
X4664190Y7107810D01*
X4657370Y7114370D01*
X4650560Y7117000D01*
X4641790D01*
X4650560Y7117000D02*
X4656400Y7120930D01*
X4661270Y7127490D01*
X4663210Y7135370D01*
X4661270Y7143240D01*
X4656400Y7149800D01*
X4647630Y7153740D01*
X4638870Y7152430D01*
X4630110Y7147180D01*
X4551320Y7408700D02*
X4575650Y7330000D01*
X4599980Y7408700D01*
X4654350Y7330000D02*
Y7408700D01*
X4642670Y7392960D01*
X4642670Y7330000D02*
X4666030D01*
X4486790Y8195000D02*
Y8273740D01*
X4511130D01*
X4518920Y8269800D01*
X4523790Y8264550D01*
X4525730Y8254050D01*
X4523790Y8243560D01*
X4517940Y8237000D01*
X4511130Y8233060D01*
X4486790D01*
X4511130Y8233060D02*
X4525730Y8195000D01*
X4585000Y8195000D02*
Y8273740D01*
X4573320Y8257990D01*
X4573320Y8195000D02*
X4596680D01*
X4661790Y8195000D02*
X4663740Y8212060D01*
X4666660Y8226490D01*
X4670560Y8239620D01*
X4675420Y8254050D01*
X4683210Y8273740D01*
X4644270D01*
X4825280Y1719750D02*
Y1798450D01*
X4848640D01*
X4856430Y1794510D01*
X4862270Y1785330D01*
X4864220Y1774840D01*
X4862270Y1764350D01*
X4857400Y1756480D01*
X4848640Y1752540D01*
X4825280D01*
X4935130Y1719750D02*
Y1798450D01*
X4899120Y1742050D01*
X4947780D01*
X5000200Y1719750D02*
X5002150Y1736800D01*
X5005070Y1751230D01*
X5008960Y1764350D01*
X5013830Y1778770D01*
X5021620Y1798450D01*
X4982680D01*
X4730030Y4069250D02*
Y4147950D01*
X4753390D01*
X4761180Y4144010D01*
X4767020Y4134830D01*
X4768970Y4124340D01*
X4767020Y4113850D01*
X4762150Y4105980D01*
X4753390Y4102040D01*
X4730030D01*
X4828200Y4069250D02*
Y4147950D01*
X4816520Y4132210D01*
X4816520Y4069250D02*
X4839880D01*
X4904950Y4069250D02*
X4906900Y4086300D01*
X4909820Y4100730D01*
X4913710Y4113850D01*
X4918580Y4128270D01*
X4926370Y4147950D01*
X4887430D01*
X5005000Y1185000D02*
Y1263700D01*
X4993320Y1247960D01*
X4993320Y1185000D02*
X5016680D01*
X4991830Y1430000D02*
Y1508700D01*
X5015190D01*
X5022980Y1504760D01*
X5028820Y1495580D01*
X5030770Y1485090D01*
X5028820Y1474600D01*
X5023950Y1466730D01*
X5015190Y1462790D01*
X4991830D01*
X5101680Y1430000D02*
Y1508700D01*
X5065670Y1452300D01*
X5114330D01*
X5168700Y1508700D02*
X5160910Y1506080D01*
X5155070Y1499520D01*
X5151180Y1491650D01*
X5148260Y1481150D01*
X5147290Y1469350D01*
X5148260Y1457540D01*
X5151180Y1447050D01*
X5155070Y1439180D01*
X5160910Y1432620D01*
X5168700Y1430000D01*
X5176490Y1432620D01*
X5182330Y1439180D01*
X5186220Y1447050D01*
X5189140Y1457540D01*
X5190110Y1469350D01*
X5189140Y1481150D01*
X5186220Y1491650D01*
X5182330Y1499520D01*
X5176490Y1506080D01*
X5168700Y1508700D01*
X5011830Y1975000D02*
Y2053700D01*
X5035190D01*
X5042980Y2049760D01*
X5048820Y2040580D01*
X5050770Y2030090D01*
X5048820Y2019600D01*
X5043950Y2011730D01*
X5035190Y2007790D01*
X5011830D01*
X5121680Y1975000D02*
Y2053700D01*
X5085670Y1997300D01*
X5134330D01*
X5167290Y1986800D02*
X5173130Y1980250D01*
X5179940Y1976310D01*
X5188700Y1975000D01*
X5197460Y1977620D01*
X5204270Y1982870D01*
X5209140Y1992050D01*
X5210110Y2002540D01*
X5208170Y2013040D01*
X5203300Y2019600D01*
X5196490Y2024840D01*
X5189670Y2026150D01*
X5182860Y2024840D01*
X5174100Y2019600D01*
X5177020Y2053700D01*
X5203300D01*
X5006830Y2120000D02*
Y2198700D01*
X5030190D01*
X5037980Y2194760D01*
X5043820Y2185580D01*
X5045770Y2175090D01*
X5043820Y2164600D01*
X5038950Y2156730D01*
X5030190Y2152790D01*
X5006830D01*
X5116680Y2120000D02*
Y2198700D01*
X5080670Y2142300D01*
X5129330D01*
X5195380Y2120000D02*
Y2198700D01*
X5159370Y2142300D01*
X5208030D01*
X5056180Y2275000D02*
Y2353700D01*
X5079540D01*
X5087330Y2349760D01*
X5093170Y2340580D01*
X5095120Y2330090D01*
X5093170Y2319600D01*
X5088300Y2311730D01*
X5079540Y2307790D01*
X5056180D01*
X5135860Y2307790D02*
X5142670Y2316970D01*
X5148510Y2322220D01*
X5156300Y2324840D01*
X5163110Y2322220D01*
X5167980Y2316970D01*
X5171870Y2309100D01*
X5172840Y2299920D01*
X5171870Y2292050D01*
X5167980Y2284180D01*
X5162140Y2277620D01*
X5155320Y2275000D01*
X5147540Y2277620D01*
X5140720Y2285490D01*
X5136830Y2297300D01*
X5135860Y2310410D01*
X5137800Y2327470D01*
X5140720Y2336650D01*
X5145590Y2345830D01*
X5152400Y2352390D01*
X5159220Y2353700D01*
X5166030Y2351080D01*
X5170900Y2344520D01*
X5131830Y3970000D02*
Y4048700D01*
X5155190D01*
X5162980Y4044760D01*
X5168820Y4035580D01*
X5170770Y4025090D01*
X5168820Y4014600D01*
X5163950Y4006730D01*
X5155190Y4002790D01*
X5131830D01*
X5230000Y3970000D02*
Y4048700D01*
X5218320Y4032960D01*
X5218320Y3970000D02*
X5241680D01*
X5292150Y3979180D02*
X5298970Y3972620D01*
X5306750Y3970000D01*
X5314540Y3972620D01*
X5321350Y3980490D01*
X5326220Y3992300D01*
X5328170Y4004100D01*
Y4018530D01*
X5326220Y4030340D01*
X5321350Y4040830D01*
X5315510Y4046080D01*
X5308700Y4048700D01*
X5300910Y4046080D01*
X5295070Y4040830D01*
X5291180Y4032960D01*
X5289230Y4022470D01*
X5291180Y4013290D01*
X5296050Y4004100D01*
X5301890Y3998860D01*
X5308700Y3997540D01*
X5316490Y4000170D01*
X5322330Y4006730D01*
X5328170Y4018530D01*
X5095000Y4656180D02*
X5016300D01*
Y4680520D01*
X5020240Y4688300D01*
X5025480Y4693170D01*
X5035980Y4695120D01*
X5046470Y4693170D01*
X5053030Y4687330D01*
X5056960Y4680520D01*
Y4656180D01*
X5056960Y4680520D02*
X5095000Y4695120D01*
X5095000Y4754350D02*
X5016300D01*
X5032040Y4742670D01*
X5095000Y4742670D02*
Y4766030D01*
X5085000Y4916180D02*
X5006300D01*
Y4940520D01*
X5010240Y4948300D01*
X5015480Y4953170D01*
X5025980Y4955120D01*
X5036470Y4953170D01*
X5043030Y4947330D01*
X5046960Y4940520D01*
Y4916180D01*
X5046960Y4940520D02*
X5085000Y4955120D01*
X5019420Y4995860D02*
X5011550Y5001700D01*
X5007610Y5008510D01*
X5006300Y5016300D01*
X5008920Y5026030D01*
X5015480Y5032840D01*
X5023350Y5034790D01*
X5031220Y5033820D01*
X5037780Y5029920D01*
X5050900Y5010460D01*
X5060080Y5001700D01*
X5073200Y4995860D01*
X5085000Y4993910D01*
Y5034790D01*
X5095000Y5211180D02*
X5016300D01*
Y5235520D01*
X5020240Y5243300D01*
X5025480Y5248170D01*
X5035980Y5250120D01*
X5046470Y5248170D01*
X5053030Y5242330D01*
X5056960Y5235520D01*
Y5211180D01*
X5056960Y5235520D02*
X5095000Y5250120D01*
X5095000Y5321030D02*
X5016300D01*
X5072700Y5285020D01*
Y5333680D01*
X5085000Y5456180D02*
X5006300D01*
Y5480520D01*
X5010240Y5488300D01*
X5015480Y5493170D01*
X5025980Y5495120D01*
X5036470Y5493170D01*
X5043030Y5487330D01*
X5046960Y5480520D01*
Y5456180D01*
X5046960Y5480520D02*
X5085000Y5495120D01*
X5069260Y5532940D02*
X5078440Y5538780D01*
X5083690Y5546560D01*
X5085000Y5555320D01*
X5083690Y5563110D01*
X5077130Y5570900D01*
X5069260Y5575760D01*
X5061390Y5576740D01*
X5052210Y5574790D01*
X5045650Y5567980D01*
X5043030Y5561160D01*
Y5552400D01*
X5043030Y5561160D02*
X5039090Y5567000D01*
X5032530Y5571870D01*
X5024660Y5573820D01*
X5016790Y5571870D01*
X5010240Y5567000D01*
X5006300Y5558240D01*
X5007610Y5549480D01*
X5012860Y5540720D01*
X5085000Y5641830D02*
X5006300D01*
Y5666170D01*
X5010240Y5673950D01*
X5015480Y5678820D01*
X5025980Y5680770D01*
X5036470Y5678820D01*
X5043030Y5672980D01*
X5046960Y5666170D01*
Y5641830D01*
X5046960Y5666170D02*
X5085000Y5680770D01*
X5085000Y5740000D02*
X5006300D01*
X5022040Y5728320D01*
X5085000Y5728320D02*
Y5751680D01*
X5085000Y5830380D02*
X5006300D01*
X5062700Y5794370D01*
Y5843030D01*
X5130000Y5906790D02*
X5051260D01*
Y5931130D01*
X5055200Y5938920D01*
X5060450Y5943790D01*
X5070950Y5945730D01*
X5081440Y5943790D01*
X5088000Y5937940D01*
X5091940Y5931130D01*
Y5906790D01*
X5091940Y5931130D02*
X5130000Y5945730D01*
X5120820Y5988450D02*
X5127380Y5995260D01*
X5130000Y6003050D01*
X5127380Y6010840D01*
X5119500Y6017660D01*
X5107690Y6022530D01*
X5095880Y6024470D01*
X5081440D01*
X5069630Y6022530D01*
X5059130Y6017660D01*
X5053880Y6011820D01*
X5051260Y6005000D01*
X5053880Y5997210D01*
X5059130Y5991370D01*
X5067010Y5987470D01*
X5077510Y5985530D01*
X5086690Y5987470D01*
X5095880Y5992340D01*
X5101130Y5998180D01*
X5102440Y6005000D01*
X5099820Y6012790D01*
X5093260Y6018630D01*
X5081440Y6024470D01*
X5064380Y6065240D02*
X5056510Y6071080D01*
X5052570Y6077900D01*
X5051260Y6085690D01*
X5053880Y6095420D01*
X5060450Y6102240D01*
X5068320Y6104190D01*
X5076200Y6103210D01*
X5082760Y6099320D01*
X5095880Y6079850D01*
X5105070Y6071080D01*
X5118190Y6065240D01*
X5130000Y6063290D01*
Y6104190D01*
X5120000Y6576180D02*
X5041300D01*
Y6600520D01*
X5045240Y6608300D01*
X5050480Y6613170D01*
X5060980Y6615120D01*
X5071470Y6613170D01*
X5078030Y6607330D01*
X5081960Y6600520D01*
Y6576180D01*
X5081960Y6600520D02*
X5120000Y6615120D01*
X5110820Y6657800D02*
X5117380Y6664620D01*
X5120000Y6672400D01*
X5117380Y6680190D01*
X5109510Y6687000D01*
X5097700Y6691870D01*
X5085900Y6693820D01*
X5071470D01*
X5059660Y6691870D01*
X5049170Y6687000D01*
X5043920Y6681160D01*
X5041300Y6674350D01*
X5043920Y6666560D01*
X5049170Y6660720D01*
X5057040Y6656830D01*
X5067530Y6654880D01*
X5076710Y6656830D01*
X5085900Y6661700D01*
X5091140Y6667540D01*
X5092460Y6674350D01*
X5089830Y6682140D01*
X5083270Y6687980D01*
X5071470Y6693820D01*
X5120000Y6791830D02*
X5041300D01*
Y6816170D01*
X5045240Y6823950D01*
X5050480Y6828820D01*
X5060980Y6830770D01*
X5071470Y6828820D01*
X5078030Y6822980D01*
X5081960Y6816170D01*
Y6791830D01*
X5081960Y6816170D02*
X5120000Y6830770D01*
X5120000Y6890000D02*
X5041300D01*
X5057040Y6878320D01*
X5120000Y6878320D02*
Y6901680D01*
X5041300Y6968700D02*
X5043920Y6960910D01*
X5050480Y6955070D01*
X5058350Y6951180D01*
X5068850Y6948260D01*
X5080650Y6947290D01*
X5092460Y6948260D01*
X5102950Y6951180D01*
X5110820Y6955070D01*
X5117380Y6960910D01*
X5120000Y6968700D01*
X5117380Y6976490D01*
X5110820Y6982330D01*
X5102950Y6986220D01*
X5092460Y6989140D01*
X5080650Y6990110D01*
X5068850Y6989140D01*
X5058350Y6986220D01*
X5050480Y6982330D01*
X5043920Y6976490D01*
X5041300Y6968700D01*
X4941830Y7200000D02*
Y7278700D01*
X4965190D01*
X4972980Y7274760D01*
X4978820Y7265580D01*
X4980770Y7255090D01*
X4978820Y7244600D01*
X4973950Y7236730D01*
X4965190Y7232790D01*
X4941830D01*
X5040000Y7200000D02*
Y7278700D01*
X5028320Y7262960D01*
X5028320Y7200000D02*
X5051680D01*
X5097290Y7215740D02*
X5103130Y7206560D01*
X5110910Y7201310D01*
X5119670Y7200000D01*
X5127460Y7201310D01*
X5135250Y7207870D01*
X5140110Y7215740D01*
X5141090Y7223610D01*
X5139140Y7232790D01*
X5132330Y7239350D01*
X5125510Y7241970D01*
X5116750D01*
X5125510Y7241970D02*
X5131350Y7245910D01*
X5136220Y7252470D01*
X5138170Y7260340D01*
X5136220Y7268210D01*
X5131350Y7274760D01*
X5122590Y7278700D01*
X5113830Y7277390D01*
X5105070Y7272140D01*
X5031160Y7778740D02*
Y7700000D01*
X5070100D01*
X5110870Y7765620D02*
X5116710Y7773490D01*
X5123530Y7777430D01*
X5131320Y7778740D01*
X5141050Y7776120D01*
X5147870Y7769550D01*
X5149820Y7761680D01*
X5148840Y7753800D01*
X5144950Y7747240D01*
X5125480Y7734120D01*
X5116710Y7724930D01*
X5110870Y7711810D01*
X5108920Y7700000D01*
X5149820D01*
X5062050Y8122180D02*
X5056210Y8126120D01*
X5049390Y8128740D01*
X5041600D01*
X5032840Y8124800D01*
X5026030Y8118240D01*
X5021160Y8110370D01*
X5017260Y8097240D01*
X5016290Y8085430D01*
X5018240Y8073620D01*
X5021160Y8065750D01*
X5027000Y8057870D01*
X5033810Y8052620D01*
X5040630Y8050000D01*
X5047450D01*
X5054260Y8052620D01*
X5060100Y8056560D01*
X5064970Y8061810D01*
X5097950Y8061810D02*
X5103790Y8055250D01*
X5110610Y8051310D01*
X5119370Y8050000D01*
X5128130Y8052620D01*
X5134950Y8057870D01*
X5139820Y8067060D01*
X5140790Y8077560D01*
X5138840Y8088060D01*
X5133970Y8094620D01*
X5127160Y8099870D01*
X5120340Y8101180D01*
X5113530Y8099870D01*
X5104770Y8094620D01*
X5107690Y8128740D01*
X5133970D01*
X5431830Y1770000D02*
Y1848700D01*
X5455190D01*
X5462980Y1844760D01*
X5468820Y1835580D01*
X5470770Y1825090D01*
X5468820Y1814600D01*
X5463950Y1806730D01*
X5455190Y1802790D01*
X5431830D01*
X5541680Y1770000D02*
Y1848700D01*
X5505670Y1792300D01*
X5554330D01*
X5590210Y1802790D02*
X5597020Y1811970D01*
X5602860Y1817220D01*
X5610650Y1819840D01*
X5617460Y1817220D01*
X5622330Y1811970D01*
X5626220Y1804100D01*
X5627190Y1794920D01*
X5626220Y1787050D01*
X5622330Y1779180D01*
X5616490Y1772620D01*
X5609670Y1770000D01*
X5601890Y1772620D01*
X5595070Y1780490D01*
X5591180Y1792300D01*
X5590210Y1805410D01*
X5592150Y1822470D01*
X5595070Y1831650D01*
X5599940Y1840830D01*
X5606750Y1847390D01*
X5613570Y1848700D01*
X5620380Y1846080D01*
X5625250Y1839520D01*
X5392480Y2665000D02*
Y2743700D01*
X5416820D01*
X5424600Y2739760D01*
X5429470Y2734520D01*
X5431420Y2724020D01*
X5429470Y2713530D01*
X5423630Y2706970D01*
X5416820Y2703040D01*
X5392480D01*
X5416820Y2703040D02*
X5431420Y2665000D01*
X5490650Y2665000D02*
Y2743700D01*
X5478970Y2727960D01*
X5478970Y2665000D02*
X5502330D01*
X5569350Y2665000D02*
Y2743700D01*
X5557670Y2727960D01*
X5557670Y2665000D02*
X5581030D01*
X5631500Y2674180D02*
X5638320Y2667620D01*
X5646100Y2665000D01*
X5653890Y2667620D01*
X5660700Y2675490D01*
X5665570Y2687300D01*
X5667520Y2699100D01*
Y2713530D01*
X5665570Y2725340D01*
X5660700Y2735830D01*
X5654860Y2741080D01*
X5648050Y2743700D01*
X5640260Y2741080D01*
X5634420Y2735830D01*
X5630530Y2727960D01*
X5628580Y2717470D01*
X5630530Y2708290D01*
X5635400Y2699100D01*
X5641240Y2693860D01*
X5648050Y2692540D01*
X5655840Y2695170D01*
X5661680Y2701730D01*
X5667520Y2713530D01*
X5411180Y2825000D02*
Y2903700D01*
X5434540D01*
X5442330Y2899760D01*
X5448170Y2890580D01*
X5450120Y2880090D01*
X5448170Y2869600D01*
X5443300Y2861730D01*
X5434540Y2857790D01*
X5411180D01*
X5490860Y2890580D02*
X5496700Y2898450D01*
X5503510Y2902390D01*
X5511300Y2903700D01*
X5521030Y2901080D01*
X5527840Y2894520D01*
X5529790Y2886650D01*
X5528820Y2878780D01*
X5524920Y2872220D01*
X5505460Y2859100D01*
X5496700Y2849920D01*
X5490860Y2836800D01*
X5488910Y2825000D01*
X5529790D01*
X5426830Y3475000D02*
Y3553700D01*
X5450190D01*
X5457980Y3549760D01*
X5463820Y3540580D01*
X5465770Y3530090D01*
X5463820Y3519600D01*
X5458950Y3511730D01*
X5450190Y3507790D01*
X5426830D01*
X5506510Y3540580D02*
X5512350Y3548450D01*
X5519160Y3552390D01*
X5526950Y3553700D01*
X5536680Y3551080D01*
X5543490Y3544520D01*
X5545440Y3536650D01*
X5544470Y3528780D01*
X5540570Y3522220D01*
X5521110Y3509100D01*
X5512350Y3499920D01*
X5506510Y3486800D01*
X5504560Y3475000D01*
X5545440D01*
X5582290Y3490740D02*
X5588130Y3481560D01*
X5595910Y3476310D01*
X5604670Y3475000D01*
X5612460Y3476310D01*
X5620250Y3482870D01*
X5625110Y3490740D01*
X5626090Y3498610D01*
X5624140Y3507790D01*
X5617330Y3514350D01*
X5610510Y3516970D01*
X5601750D01*
X5610510Y3516970D02*
X5616350Y3520910D01*
X5621220Y3527470D01*
X5623170Y3535340D01*
X5621220Y3543210D01*
X5616350Y3549760D01*
X5607590Y3553700D01*
X5598830Y3552390D01*
X5590070Y3547140D01*
X5211530Y3814500D02*
Y3893200D01*
X5234890D01*
X5242680Y3889260D01*
X5248520Y3880080D01*
X5250470Y3869590D01*
X5248520Y3859100D01*
X5243650Y3851230D01*
X5234890Y3847290D01*
X5211530D01*
X5309700Y3814500D02*
Y3893200D01*
X5298020Y3877460D01*
X5298020Y3814500D02*
X5321380D01*
X5388400Y3814500D02*
X5395210Y3815810D01*
X5403000Y3819750D01*
X5407870Y3826300D01*
X5409810Y3835490D01*
X5407870Y3844670D01*
X5402030Y3852540D01*
X5393270Y3856470D01*
X5383530D01*
X5377690Y3859100D01*
X5372830Y3865650D01*
X5370880Y3874840D01*
X5373800Y3884020D01*
X5380610Y3890580D01*
X5388400Y3893200D01*
X5396190Y3890580D01*
X5403000Y3884020D01*
X5405920Y3874840D01*
X5403970Y3865650D01*
X5399110Y3859100D01*
X5393270Y3856470D01*
X5383530Y3856470D02*
X5374770Y3852540D01*
X5368930Y3844670D01*
X5366990Y3835490D01*
X5368930Y3826300D01*
X5373800Y3819750D01*
X5381590Y3815810D01*
X5388400Y3814500D01*
X5485000Y6071790D02*
X5406260D01*
Y6096130D01*
X5410200Y6103920D01*
X5415450Y6108790D01*
X5425950Y6110730D01*
X5436440Y6108790D01*
X5443000Y6102940D01*
X5446940Y6096130D01*
Y6071790D01*
X5446940Y6096130D02*
X5485000Y6110730D01*
X5475820Y6153450D02*
X5482380Y6160260D01*
X5485000Y6168050D01*
X5482380Y6175840D01*
X5474500Y6182660D01*
X5462690Y6187530D01*
X5450880Y6189470D01*
X5436440D01*
X5424630Y6187530D01*
X5414130Y6182660D01*
X5408880Y6176820D01*
X5406260Y6170000D01*
X5408880Y6162210D01*
X5414130Y6156370D01*
X5422010Y6152470D01*
X5432510Y6150530D01*
X5441690Y6152470D01*
X5450880Y6157340D01*
X5456130Y6163180D01*
X5457440Y6170000D01*
X5454820Y6177790D01*
X5448260Y6183630D01*
X5436440Y6189470D01*
X5485000Y6248740D02*
X5406260D01*
X5422010Y6237060D01*
X5485000Y6237060D02*
Y6260420D01*
X5581320Y2053700D02*
X5605650Y1975000D01*
X5629980Y2053700D01*
X5684350Y1975000D02*
X5691160Y1976310D01*
X5698950Y1980250D01*
X5703820Y1986800D01*
X5705760Y1995990D01*
X5703820Y2005170D01*
X5697980Y2013040D01*
X5689220Y2016970D01*
X5679480D01*
X5673640Y2019600D01*
X5668780Y2026150D01*
X5666830Y2035340D01*
X5669750Y2044520D01*
X5676560Y2051080D01*
X5684350Y2053700D01*
X5692140Y2051080D01*
X5698950Y2044520D01*
X5701870Y2035340D01*
X5699920Y2026150D01*
X5695060Y2019600D01*
X5689220Y2016970D01*
X5679480Y2016970D02*
X5670720Y2013040D01*
X5664880Y2005170D01*
X5662940Y1995990D01*
X5664880Y1986800D01*
X5669750Y1980250D01*
X5677540Y1976310D01*
X5684350Y1975000D01*
X5496180Y3300000D02*
Y3378700D01*
X5519540D01*
X5527330Y3374760D01*
X5533170Y3365580D01*
X5535120Y3355090D01*
X5533170Y3344600D01*
X5528300Y3336730D01*
X5519540Y3332790D01*
X5496180D01*
X5592400Y3300000D02*
X5594350Y3317050D01*
X5597270Y3331480D01*
X5601160Y3344600D01*
X5606030Y3359020D01*
X5613820Y3378700D01*
X5574880D01*
X5530000Y6376830D02*
X5451300D01*
Y6401170D01*
X5455240Y6408950D01*
X5460480Y6413820D01*
X5470980Y6415770D01*
X5481470Y6413820D01*
X5488030Y6407980D01*
X5491960Y6401170D01*
Y6376830D01*
X5491960Y6401170D02*
X5530000Y6415770D01*
X5530000Y6475000D02*
X5451300D01*
X5467040Y6463320D01*
X5530000Y6463320D02*
Y6486680D01*
X5514260Y6532290D02*
X5523440Y6538130D01*
X5528690Y6545910D01*
X5530000Y6554670D01*
X5528690Y6562460D01*
X5522130Y6570250D01*
X5514260Y6575110D01*
X5506390Y6576090D01*
X5497210Y6574140D01*
X5490650Y6567330D01*
X5488030Y6560510D01*
Y6551750D01*
X5488030Y6560510D02*
X5484090Y6566350D01*
X5477530Y6571220D01*
X5469660Y6573170D01*
X5461790Y6571220D01*
X5455240Y6566350D01*
X5451300Y6557590D01*
X5452610Y6548830D01*
X5457860Y6540070D01*
X5596160Y8398740D02*
Y8320000D01*
X5635100D01*
X5677820Y8329180D02*
X5684630Y8322620D01*
X5692420Y8320000D01*
X5700210Y8322620D01*
X5707030Y8330500D01*
X5711900Y8342310D01*
X5713840Y8354120D01*
Y8368560D01*
X5711900Y8380370D01*
X5707030Y8390870D01*
X5701190Y8396120D01*
X5694370Y8398740D01*
X5686580Y8396120D01*
X5680740Y8390870D01*
X5676840Y8382990D01*
X5674900Y8372490D01*
X5676840Y8363310D01*
X5681710Y8354120D01*
X5687550Y8348870D01*
X5694370Y8347560D01*
X5702160Y8350180D01*
X5708000Y8356740D01*
X5713840Y8368560D01*
X6323310Y7432180D02*
X6317470Y7436120D01*
X6310650Y7438740D01*
X6302860D01*
X6294100Y7434800D01*
X6287290Y7428240D01*
X6282420Y7420370D01*
X6278520Y7407240D01*
X6277550Y7395430D01*
X6279500Y7383620D01*
X6282420Y7375750D01*
X6288260Y7367870D01*
X6295070Y7362620D01*
X6301890Y7360000D01*
X6308710D01*
X6315520Y7362620D01*
X6321360Y7366560D01*
X6326230Y7371810D01*
X6380630Y7360000D02*
Y7438740D01*
X6368950Y7422990D01*
X6368950Y7360000D02*
X6392310D01*
X6440870Y7392810D02*
X6447690Y7402000D01*
X6453530Y7407240D01*
X6461320Y7409870D01*
X6468130Y7407240D01*
X6473000Y7402000D01*
X6476900Y7394120D01*
X6477870Y7384930D01*
X6476900Y7377060D01*
X6473000Y7369180D01*
X6467160Y7362620D01*
X6460340Y7360000D01*
X6452550Y7362620D01*
X6445740Y7370500D01*
X6441840Y7382310D01*
X6440870Y7395430D01*
X6442820Y7412490D01*
X6445740Y7421680D01*
X6450610Y7430870D01*
X6457420Y7437430D01*
X6464240Y7438740D01*
X6471050Y7436120D01*
X6475920Y7429550D01*
X6536160Y7360000D02*
X6538110Y7377060D01*
X6541030Y7391490D01*
X6544930Y7404620D01*
X6549790Y7419050D01*
X6557580Y7438740D01*
X6518640D01*
X6342420Y8215000D02*
Y8293740D01*
X6366760D01*
X6374550Y8289800D01*
X6379420Y8284550D01*
X6381360Y8274050D01*
X6379420Y8263560D01*
X6373570Y8257000D01*
X6366760Y8253060D01*
X6342420D01*
X6366760Y8253060D02*
X6381360Y8215000D01*
X6440630Y8215000D02*
Y8293740D01*
X6428950Y8277990D01*
X6428950Y8215000D02*
X6452310D01*
X6502820Y8224180D02*
X6509630Y8217620D01*
X6517420Y8215000D01*
X6525210Y8217620D01*
X6532030Y8225500D01*
X6536900Y8237310D01*
X6538840Y8249120D01*
Y8263560D01*
X6536900Y8275370D01*
X6532030Y8285870D01*
X6526190Y8291120D01*
X6519370Y8293740D01*
X6511580Y8291120D01*
X6505740Y8285870D01*
X6501840Y8277990D01*
X6499900Y8267490D01*
X6501840Y8258310D01*
X6506710Y8249120D01*
X6512550Y8243870D01*
X6519370Y8242560D01*
X6527160Y8245180D01*
X6533000Y8251740D01*
X6538840Y8263560D01*
X6576690Y8226810D02*
X6582530Y8220250D01*
X6589350Y8216310D01*
X6598110Y8215000D01*
X6606870Y8217620D01*
X6613690Y8222870D01*
X6618560Y8232060D01*
X6619530Y8242560D01*
X6617580Y8253060D01*
X6612710Y8259620D01*
X6605900Y8264870D01*
X6599080Y8266180D01*
X6592270Y8264870D01*
X6583510Y8259620D01*
X6586430Y8293740D01*
X6612710D01*
X6730710Y7431380D02*
X6724870Y7435320D01*
X6718050Y7437940D01*
X6710260D01*
X6701500Y7434000D01*
X6694690Y7427440D01*
X6689820Y7419570D01*
X6685920Y7406440D01*
X6684950Y7394630D01*
X6686900Y7382820D01*
X6689820Y7374950D01*
X6695660Y7367070D01*
X6702470Y7361820D01*
X6709290Y7359200D01*
X6716110D01*
X6722920Y7361820D01*
X6728760Y7365760D01*
X6733630Y7371010D01*
X6788030Y7359200D02*
Y7437940D01*
X6776350Y7422190D01*
X6776350Y7359200D02*
X6799710D01*
X6848270Y7392010D02*
X6855090Y7401200D01*
X6860930Y7406440D01*
X6868720Y7409070D01*
X6875530Y7406440D01*
X6880400Y7401200D01*
X6884300Y7393320D01*
X6885270Y7384130D01*
X6884300Y7376260D01*
X6880400Y7368380D01*
X6874560Y7361820D01*
X6867740Y7359200D01*
X6859950Y7361820D01*
X6853140Y7369700D01*
X6849240Y7381510D01*
X6848270Y7394630D01*
X6850220Y7411690D01*
X6853140Y7420880D01*
X6858010Y7430070D01*
X6864820Y7436630D01*
X6871640Y7437940D01*
X6878450Y7435320D01*
X6883320Y7428750D01*
X6924090Y7371010D02*
X6929930Y7364450D01*
X6936750Y7360510D01*
X6945510Y7359200D01*
X6954270Y7361820D01*
X6961090Y7367070D01*
X6965960Y7376260D01*
X6966930Y7386760D01*
X6964980Y7397260D01*
X6960110Y7403820D01*
X6953300Y7409070D01*
X6946480Y7410380D01*
X6939670Y7409070D01*
X6930910Y7403820D01*
X6933830Y7437940D01*
X6960110D01*
X6917330Y1180000D02*
Y1258700D01*
X6881320Y1202300D01*
X6929980D01*
X6984350Y1258700D02*
X6976560Y1256080D01*
X6970720Y1249520D01*
X6966830Y1241650D01*
X6963910Y1231150D01*
X6962940Y1219350D01*
X6963910Y1207540D01*
X6966830Y1197050D01*
X6970720Y1189180D01*
X6976560Y1182620D01*
X6984350Y1180000D01*
X6992140Y1182620D01*
X6997980Y1189180D01*
X7001870Y1197050D01*
X7004790Y1207540D01*
X7005760Y1219350D01*
X7004790Y1231150D01*
X7001870Y1241650D01*
X6997980Y1249520D01*
X6992140Y1256080D01*
X6984350Y1258700D01*
X7197420Y3920000D02*
Y3998740D01*
X7221760D01*
X7229550Y3994800D01*
X7234420Y3989550D01*
X7236360Y3979050D01*
X7234420Y3968560D01*
X7228570Y3962000D01*
X7221760Y3958060D01*
X7197420D01*
X7221760Y3958060D02*
X7236360Y3920000D01*
X7295630Y3920000D02*
Y3998740D01*
X7283950Y3982990D01*
X7283950Y3920000D02*
X7307310D01*
X7352950Y3931810D02*
X7358790Y3925250D01*
X7365610Y3921310D01*
X7374370Y3920000D01*
X7383130Y3922620D01*
X7389950Y3927870D01*
X7394820Y3937060D01*
X7395790Y3947560D01*
X7393840Y3958060D01*
X7388970Y3964620D01*
X7382160Y3969870D01*
X7375340Y3971180D01*
X7368530Y3969870D01*
X7359770Y3964620D01*
X7362690Y3998740D01*
X7388970D01*
X7464790Y3920000D02*
Y3998740D01*
X7428770Y3942310D01*
X7477450D01*
X7568310Y3997180D02*
X7562470Y4001120D01*
X7555650Y4003740D01*
X7547860D01*
X7539100Y3999800D01*
X7532290Y3993240D01*
X7527420Y3985370D01*
X7523520Y3972240D01*
X7522550Y3960430D01*
X7524500Y3948620D01*
X7527420Y3940750D01*
X7533260Y3932870D01*
X7540070Y3927620D01*
X7546890Y3925000D01*
X7553710D01*
X7560520Y3927620D01*
X7566360Y3931560D01*
X7571230Y3936810D01*
X7625630Y3925000D02*
Y4003740D01*
X7613950Y3987990D01*
X7613950Y3925000D02*
X7637310D01*
X7685870Y3990620D02*
X7691710Y3998490D01*
X7698530Y4002430D01*
X7706320Y4003740D01*
X7716050Y4001120D01*
X7722870Y3994550D01*
X7724820Y3986680D01*
X7723840Y3978800D01*
X7719950Y3972240D01*
X7700480Y3959120D01*
X7691710Y3949930D01*
X7685870Y3936810D01*
X7683920Y3925000D01*
X7724820D01*
X7766560Y3934180D02*
X7773370Y3927620D01*
X7781160Y3925000D01*
X7788950Y3927620D01*
X7795770Y3935500D01*
X7800640Y3947310D01*
X7802580Y3959120D01*
Y3973560D01*
X7800640Y3985370D01*
X7795770Y3995870D01*
X7789930Y4001120D01*
X7783110Y4003740D01*
X7775320Y4001120D01*
X7769480Y3995870D01*
X7765580Y3987990D01*
X7763640Y3977490D01*
X7765580Y3968310D01*
X7770450Y3959120D01*
X7776290Y3953870D01*
X7783110Y3952560D01*
X7790900Y3955180D01*
X7796740Y3961740D01*
X7802580Y3973560D01*
X7531160Y8403740D02*
Y8325000D01*
X7570100D01*
X7629370Y8325000D02*
X7636190Y8326310D01*
X7643970Y8330250D01*
X7648840Y8336810D01*
X7650790Y8346000D01*
X7648840Y8355180D01*
X7643000Y8363060D01*
X7634240Y8367000D01*
X7624500D01*
X7618660Y8369620D01*
X7613790Y8376180D01*
X7611840Y8385370D01*
X7614770Y8394550D01*
X7621580Y8401120D01*
X7629370Y8403740D01*
X7637160Y8401120D01*
X7643970Y8394550D01*
X7646900Y8385370D01*
X7644950Y8376180D01*
X7640080Y8369620D01*
X7634240Y8367000D01*
X7624500Y8367000D02*
X7615740Y8363060D01*
X7609900Y8355180D01*
X7607950Y8346000D01*
X7609900Y8336810D01*
X7614770Y8330250D01*
X7622550Y8326310D01*
X7629370Y8325000D01*
X8138310Y2577180D02*
X8132470Y2581120D01*
X8125650Y2583740D01*
X8117860D01*
X8109100Y2579800D01*
X8102290Y2573240D01*
X8097420Y2565370D01*
X8093520Y2552240D01*
X8092550Y2540430D01*
X8094500Y2528620D01*
X8097420Y2520750D01*
X8103260Y2512870D01*
X8110070Y2507620D01*
X8116890Y2505000D01*
X8123710D01*
X8130520Y2507620D01*
X8136360Y2511560D01*
X8141230Y2516810D01*
X8195630Y2505000D02*
Y2583740D01*
X8183950Y2567990D01*
X8183950Y2505000D02*
X8207310D01*
X8252950Y2520750D02*
X8258790Y2511560D01*
X8266580Y2506310D01*
X8275340Y2505000D01*
X8283130Y2506310D01*
X8290920Y2512870D01*
X8295790Y2520750D01*
X8296760Y2528620D01*
X8294820Y2537810D01*
X8288000Y2544370D01*
X8281190Y2547000D01*
X8272420D01*
X8281190Y2547000D02*
X8287030Y2550930D01*
X8291900Y2557490D01*
X8293840Y2565370D01*
X8291900Y2573240D01*
X8287030Y2579800D01*
X8278260Y2583740D01*
X8269500Y2582430D01*
X8260740Y2577180D01*
X8353110Y2583740D02*
X8345320Y2581120D01*
X8339480Y2574550D01*
X8335580Y2566680D01*
X8332660Y2556180D01*
X8331690Y2544370D01*
X8332660Y2532560D01*
X8335580Y2522060D01*
X8339480Y2514180D01*
X8345320Y2507620D01*
X8353110Y2505000D01*
X8360900Y2507620D01*
X8366740Y2514180D01*
X8370640Y2522060D01*
X8373560Y2532560D01*
X8374530Y2544370D01*
X8373560Y2556180D01*
X8370640Y2566680D01*
X8366740Y2574550D01*
X8360900Y2581120D01*
X8353110Y2583740D01*
X8188310Y1647180D02*
X8182470Y1651120D01*
X8175650Y1653740D01*
X8167860D01*
X8159100Y1649800D01*
X8152290Y1643240D01*
X8147420Y1635370D01*
X8143520Y1622240D01*
X8142550Y1610430D01*
X8144500Y1598620D01*
X8147420Y1590750D01*
X8153260Y1582870D01*
X8160070Y1577620D01*
X8166890Y1575000D01*
X8173710D01*
X8180520Y1577620D01*
X8186360Y1581560D01*
X8191230Y1586810D01*
X8245630Y1575000D02*
Y1653740D01*
X8233950Y1637990D01*
X8233950Y1575000D02*
X8257310D01*
X8302950Y1590750D02*
X8308790Y1581560D01*
X8316580Y1576310D01*
X8325340Y1575000D01*
X8333130Y1576310D01*
X8340920Y1582870D01*
X8345790Y1590750D01*
X8346760Y1598620D01*
X8344820Y1607810D01*
X8338000Y1614370D01*
X8331190Y1617000D01*
X8322420D01*
X8331190Y1617000D02*
X8337030Y1620930D01*
X8341900Y1627490D01*
X8343840Y1635370D01*
X8341900Y1643240D01*
X8337030Y1649800D01*
X8328260Y1653740D01*
X8319500Y1652430D01*
X8310740Y1647180D01*
X8403110Y1575000D02*
Y1653740D01*
X8391430Y1637990D01*
X8391430Y1575000D02*
X8414790D01*
X8222420Y3685000D02*
Y3763740D01*
X8246760D01*
X8254550Y3759800D01*
X8259420Y3754550D01*
X8261360Y3744050D01*
X8259420Y3733560D01*
X8253570Y3727000D01*
X8246760Y3723060D01*
X8222420D01*
X8246760Y3723060D02*
X8261360Y3685000D01*
X8320630Y3685000D02*
Y3763740D01*
X8308950Y3747990D01*
X8308950Y3685000D02*
X8332310D01*
X8411050Y3685000D02*
Y3763740D01*
X8375030Y3707310D01*
X8423710D01*
X8478110Y3685000D02*
X8484930Y3686310D01*
X8492710Y3690250D01*
X8497580Y3696810D01*
X8499530Y3706000D01*
X8497580Y3715180D01*
X8491740Y3723060D01*
X8482980Y3727000D01*
X8473240D01*
X8467400Y3729620D01*
X8462530Y3736180D01*
X8460580Y3745370D01*
X8463510Y3754550D01*
X8470320Y3761120D01*
X8478110Y3763740D01*
X8485900Y3761120D01*
X8492710Y3754550D01*
X8495640Y3745370D01*
X8493690Y3736180D01*
X8488820Y3729620D01*
X8482980Y3727000D01*
X8473240Y3727000D02*
X8464480Y3723060D01*
X8458640Y3715180D01*
X8456690Y3706000D01*
X8458640Y3696810D01*
X8463510Y3690250D01*
X8471290Y3686310D01*
X8478110Y3685000D01*
X8283310Y7312180D02*
X8277470Y7316120D01*
X8270650Y7318740D01*
X8262860D01*
X8254100Y7314800D01*
X8247290Y7308240D01*
X8242420Y7300370D01*
X8238520Y7287240D01*
X8237550Y7275430D01*
X8239500Y7263620D01*
X8242420Y7255750D01*
X8248260Y7247870D01*
X8255070Y7242620D01*
X8261890Y7240000D01*
X8268710D01*
X8275520Y7242620D01*
X8281360Y7246560D01*
X8286230Y7251810D01*
X8340630Y7240000D02*
Y7318740D01*
X8328950Y7302990D01*
X8328950Y7240000D02*
X8352310D01*
X8400870Y7272810D02*
X8407690Y7282000D01*
X8413530Y7287240D01*
X8421320Y7289870D01*
X8428130Y7287240D01*
X8433000Y7282000D01*
X8436900Y7274120D01*
X8437870Y7264930D01*
X8436900Y7257060D01*
X8433000Y7249180D01*
X8427160Y7242620D01*
X8420340Y7240000D01*
X8412550Y7242620D01*
X8405740Y7250500D01*
X8401840Y7262310D01*
X8400870Y7275430D01*
X8402820Y7292490D01*
X8405740Y7301680D01*
X8410610Y7310870D01*
X8417420Y7317430D01*
X8424240Y7318740D01*
X8431050Y7316120D01*
X8435920Y7309550D01*
X8509790Y7240000D02*
Y7318740D01*
X8473770Y7262310D01*
X8522450D01*
X8222420Y8060000D02*
Y8138740D01*
X8246760D01*
X8254550Y8134800D01*
X8259420Y8129550D01*
X8261360Y8119050D01*
X8259420Y8108560D01*
X8253570Y8102000D01*
X8246760Y8098060D01*
X8222420D01*
X8246760Y8098060D02*
X8261360Y8060000D01*
X8320630Y8060000D02*
Y8138740D01*
X8308950Y8122990D01*
X8308950Y8060000D02*
X8332310D01*
X8382820Y8069180D02*
X8389630Y8062620D01*
X8397420Y8060000D01*
X8405210Y8062620D01*
X8412030Y8070500D01*
X8416900Y8082310D01*
X8418840Y8094120D01*
Y8108560D01*
X8416900Y8120370D01*
X8412030Y8130870D01*
X8406190Y8136120D01*
X8399370Y8138740D01*
X8391580Y8136120D01*
X8385740Y8130870D01*
X8381840Y8122990D01*
X8379900Y8112490D01*
X8381840Y8103310D01*
X8386710Y8094120D01*
X8392550Y8088870D01*
X8399370Y8087560D01*
X8407160Y8090180D01*
X8413000Y8096740D01*
X8418840Y8108560D01*
X8489790Y8060000D02*
Y8138740D01*
X8453770Y8082310D01*
X8502450D01*
X8827420Y4320000D02*
Y4398740D01*
X8851760D01*
X8859550Y4394800D01*
X8864420Y4389550D01*
X8866360Y4379050D01*
X8864420Y4368560D01*
X8858570Y4362000D01*
X8851760Y4358060D01*
X8827420D01*
X8851760Y4358060D02*
X8866360Y4320000D01*
X8925630Y4320000D02*
Y4398740D01*
X8913950Y4382990D01*
X8913950Y4320000D02*
X8937310D01*
X9004370Y4398740D02*
X8996580Y4396120D01*
X8990740Y4389550D01*
X8986840Y4381680D01*
X8983920Y4371180D01*
X8982950Y4359370D01*
X8983920Y4347560D01*
X8986840Y4337060D01*
X8990740Y4329180D01*
X8996580Y4322620D01*
X9004370Y4320000D01*
X9012160Y4322620D01*
X9018000Y4329180D01*
X9021900Y4337060D01*
X9024820Y4347560D01*
X9025790Y4359370D01*
X9024820Y4371180D01*
X9021900Y4381680D01*
X9018000Y4389550D01*
X9012160Y4396120D01*
X9004370Y4398740D01*
X9083110Y4320000D02*
Y4398740D01*
X9071430Y4382990D01*
X9071430Y4320000D02*
X9094790D01*
X8868310Y7867180D02*
X8862470Y7871120D01*
X8855650Y7873740D01*
X8847860D01*
X8839100Y7869800D01*
X8832290Y7863240D01*
X8827420Y7855370D01*
X8823520Y7842240D01*
X8822550Y7830430D01*
X8824500Y7818620D01*
X8827420Y7810750D01*
X8833260Y7802870D01*
X8840070Y7797620D01*
X8846890Y7795000D01*
X8853710D01*
X8860520Y7797620D01*
X8866360Y7801560D01*
X8871230Y7806810D01*
X8925630Y7795000D02*
Y7873740D01*
X8913950Y7857990D01*
X8913950Y7795000D02*
X8937310D01*
X8985870Y7827810D02*
X8992690Y7837000D01*
X8998530Y7842240D01*
X9006320Y7844870D01*
X9013130Y7842240D01*
X9018000Y7837000D01*
X9021900Y7829120D01*
X9022870Y7819930D01*
X9021900Y7812060D01*
X9018000Y7804180D01*
X9012160Y7797620D01*
X9005340Y7795000D01*
X8997550Y7797620D01*
X8990740Y7805500D01*
X8986840Y7817310D01*
X8985870Y7830430D01*
X8987820Y7847490D01*
X8990740Y7856680D01*
X8995610Y7865870D01*
X9002420Y7872430D01*
X9009240Y7873740D01*
X9016050Y7871120D01*
X9020920Y7864550D01*
X9064610Y7827810D02*
X9071430Y7837000D01*
X9077270Y7842240D01*
X9085060Y7844870D01*
X9091870Y7842240D01*
X9096740Y7837000D01*
X9100640Y7829120D01*
X9101610Y7819930D01*
X9100640Y7812060D01*
X9096740Y7804180D01*
X9090900Y7797620D01*
X9084080Y7795000D01*
X9076290Y7797620D01*
X9069480Y7805500D01*
X9065580Y7817310D01*
X9064610Y7830430D01*
X9066560Y7847490D01*
X9069480Y7856680D01*
X9074350Y7865870D01*
X9081160Y7872430D01*
X9087980Y7873740D01*
X9094790Y7871120D01*
X9099660Y7864550D01*
X9102420Y4605000D02*
Y4683740D01*
X9126760D01*
X9134550Y4679800D01*
X9139420Y4674550D01*
X9141360Y4664050D01*
X9139420Y4653560D01*
X9133570Y4647000D01*
X9126760Y4643060D01*
X9102420D01*
X9126760Y4643060D02*
X9141360Y4605000D01*
X9200630Y4605000D02*
Y4683740D01*
X9188950Y4667990D01*
X9188950Y4605000D02*
X9212310D01*
X9279370Y4683740D02*
X9271580Y4681120D01*
X9265740Y4674550D01*
X9261840Y4666680D01*
X9258920Y4656180D01*
X9257950Y4644370D01*
X9258920Y4632560D01*
X9261840Y4622060D01*
X9265740Y4614180D01*
X9271580Y4607620D01*
X9279370Y4605000D01*
X9287160Y4607620D01*
X9293000Y4614180D01*
X9296900Y4622060D01*
X9299820Y4632560D01*
X9300790Y4644370D01*
X9299820Y4656180D01*
X9296900Y4666680D01*
X9293000Y4674550D01*
X9287160Y4681120D01*
X9279370Y4683740D01*
X9356160Y4605000D02*
X9358110Y4622060D01*
X9361030Y4636490D01*
X9364930Y4649620D01*
X9369790Y4664050D01*
X9377580Y4683740D01*
X9338640D01*
X9092420Y4940000D02*
Y5018740D01*
X9116760D01*
X9124550Y5014800D01*
X9129420Y5009550D01*
X9131360Y4999050D01*
X9129420Y4988560D01*
X9123570Y4982000D01*
X9116760Y4978060D01*
X9092420D01*
X9116760Y4978060D02*
X9131360Y4940000D01*
X9190630Y4940000D02*
Y5018740D01*
X9178950Y5002990D01*
X9178950Y4940000D02*
X9202310D01*
X9269370Y5018740D02*
X9261580Y5016120D01*
X9255740Y5009550D01*
X9251840Y5001680D01*
X9248920Y4991180D01*
X9247950Y4979370D01*
X9248920Y4967560D01*
X9251840Y4957060D01*
X9255740Y4949180D01*
X9261580Y4942620D01*
X9269370Y4940000D01*
X9277160Y4942620D01*
X9283000Y4949180D01*
X9286900Y4957060D01*
X9289820Y4967560D01*
X9290790Y4979370D01*
X9289820Y4991180D01*
X9286900Y5001680D01*
X9283000Y5009550D01*
X9277160Y5016120D01*
X9269370Y5018740D01*
X9329610Y4972810D02*
X9336430Y4982000D01*
X9342270Y4987240D01*
X9350060Y4989870D01*
X9356870Y4987240D01*
X9361740Y4982000D01*
X9365640Y4974120D01*
X9366610Y4964930D01*
X9365640Y4957060D01*
X9361740Y4949180D01*
X9355900Y4942620D01*
X9349080Y4940000D01*
X9341290Y4942620D01*
X9334480Y4950500D01*
X9330580Y4962310D01*
X9329610Y4975430D01*
X9331560Y4992490D01*
X9334480Y5001680D01*
X9339350Y5010870D01*
X9346160Y5017430D01*
X9352980Y5018740D01*
X9359790Y5016120D01*
X9364660Y5009550D01*
X9097420Y5105000D02*
Y5183740D01*
X9121760D01*
X9129550Y5179800D01*
X9134420Y5174550D01*
X9136360Y5164050D01*
X9134420Y5153560D01*
X9128570Y5147000D01*
X9121760Y5143060D01*
X9097420D01*
X9121760Y5143060D02*
X9136360Y5105000D01*
X9195630Y5105000D02*
Y5183740D01*
X9183950Y5167990D01*
X9183950Y5105000D02*
X9207310D01*
X9274370Y5183740D02*
X9266580Y5181120D01*
X9260740Y5174550D01*
X9256840Y5166680D01*
X9253920Y5156180D01*
X9252950Y5144370D01*
X9253920Y5132560D01*
X9256840Y5122060D01*
X9260740Y5114180D01*
X9266580Y5107620D01*
X9274370Y5105000D01*
X9282160Y5107620D01*
X9288000Y5114180D01*
X9291900Y5122060D01*
X9294820Y5132560D01*
X9295790Y5144370D01*
X9294820Y5156180D01*
X9291900Y5166680D01*
X9288000Y5174550D01*
X9282160Y5181120D01*
X9274370Y5183740D01*
X9331690Y5120750D02*
X9337530Y5111560D01*
X9345320Y5106310D01*
X9354080Y5105000D01*
X9361870Y5106310D01*
X9369660Y5112870D01*
X9374530Y5120750D01*
X9375500Y5128620D01*
X9373560Y5137810D01*
X9366740Y5144370D01*
X9359930Y5147000D01*
X9351160D01*
X9359930Y5147000D02*
X9365770Y5150930D01*
X9370640Y5157490D01*
X9372580Y5165370D01*
X9370640Y5173240D01*
X9365770Y5179800D01*
X9357000Y5183740D01*
X9348240Y5182430D01*
X9339480Y5177180D01*
X9097420Y6155000D02*
Y6233740D01*
X9121760D01*
X9129550Y6229800D01*
X9134420Y6224550D01*
X9136360Y6214050D01*
X9134420Y6203560D01*
X9128570Y6197000D01*
X9121760Y6193060D01*
X9097420D01*
X9121760Y6193060D02*
X9136360Y6155000D01*
X9195630Y6155000D02*
Y6233740D01*
X9183950Y6217990D01*
X9183950Y6155000D02*
X9207310D01*
X9274370Y6233740D02*
X9266580Y6231120D01*
X9260740Y6224550D01*
X9256840Y6216680D01*
X9253920Y6206180D01*
X9252950Y6194370D01*
X9253920Y6182560D01*
X9256840Y6172060D01*
X9260740Y6164180D01*
X9266580Y6157620D01*
X9274370Y6155000D01*
X9282160Y6157620D01*
X9288000Y6164180D01*
X9291900Y6172060D01*
X9294820Y6182560D01*
X9295790Y6194370D01*
X9294820Y6206180D01*
X9291900Y6216680D01*
X9288000Y6224550D01*
X9282160Y6231120D01*
X9274370Y6233740D01*
X9353110Y6233740D02*
X9345320Y6231120D01*
X9339480Y6224550D01*
X9335580Y6216680D01*
X9332660Y6206180D01*
X9331690Y6194370D01*
X9332660Y6182560D01*
X9335580Y6172060D01*
X9339480Y6164180D01*
X9345320Y6157620D01*
X9353110Y6155000D01*
X9360900Y6157620D01*
X9366740Y6164180D01*
X9370640Y6172060D01*
X9373560Y6182560D01*
X9374530Y6194370D01*
X9373560Y6206180D01*
X9370640Y6216680D01*
X9366740Y6224550D01*
X9360900Y6231120D01*
X9353110Y6233740D01*
X9097420Y6325000D02*
Y6403740D01*
X9121760D01*
X9129550Y6399800D01*
X9134420Y6394550D01*
X9136360Y6384050D01*
X9134420Y6373560D01*
X9128570Y6367000D01*
X9121760Y6363060D01*
X9097420D01*
X9121760Y6363060D02*
X9136360Y6325000D01*
X9195630Y6325000D02*
Y6403740D01*
X9183950Y6387990D01*
X9183950Y6325000D02*
X9207310D01*
X9274370Y6403740D02*
X9266580Y6401120D01*
X9260740Y6394550D01*
X9256840Y6386680D01*
X9253920Y6376180D01*
X9252950Y6364370D01*
X9253920Y6352560D01*
X9256840Y6342060D01*
X9260740Y6334180D01*
X9266580Y6327620D01*
X9274370Y6325000D01*
X9282160Y6327620D01*
X9288000Y6334180D01*
X9291900Y6342060D01*
X9294820Y6352560D01*
X9295790Y6364370D01*
X9294820Y6376180D01*
X9291900Y6386680D01*
X9288000Y6394550D01*
X9282160Y6401120D01*
X9274370Y6403740D01*
X9331690Y6336810D02*
X9337530Y6330250D01*
X9344350Y6326310D01*
X9353110Y6325000D01*
X9361870Y6327620D01*
X9368690Y6332870D01*
X9373560Y6342060D01*
X9374530Y6352560D01*
X9372580Y6363060D01*
X9367710Y6369620D01*
X9360900Y6374870D01*
X9354080Y6376180D01*
X9347270Y6374870D01*
X9338510Y6369620D01*
X9341430Y6403740D01*
X9367710D01*
X9092420Y6655000D02*
Y6733740D01*
X9116760D01*
X9124550Y6729800D01*
X9129420Y6724550D01*
X9131360Y6714050D01*
X9129420Y6703560D01*
X9123570Y6697000D01*
X9116760Y6693060D01*
X9092420D01*
X9116760Y6693060D02*
X9131360Y6655000D01*
X9190630Y6655000D02*
Y6733740D01*
X9178950Y6717990D01*
X9178950Y6655000D02*
X9202310D01*
X9269370Y6733740D02*
X9261580Y6731120D01*
X9255740Y6724550D01*
X9251840Y6716680D01*
X9248920Y6706180D01*
X9247950Y6694370D01*
X9248920Y6682560D01*
X9251840Y6672060D01*
X9255740Y6664180D01*
X9261580Y6657620D01*
X9269370Y6655000D01*
X9277160Y6657620D01*
X9283000Y6664180D01*
X9286900Y6672060D01*
X9289820Y6682560D01*
X9290790Y6694370D01*
X9289820Y6706180D01*
X9286900Y6716680D01*
X9283000Y6724550D01*
X9277160Y6731120D01*
X9269370Y6733740D01*
X9359790Y6655000D02*
Y6733740D01*
X9323770Y6677310D01*
X9372450D01*
X9092420Y6820000D02*
Y6898740D01*
X9116760D01*
X9124550Y6894800D01*
X9129420Y6889550D01*
X9131360Y6879050D01*
X9129420Y6868560D01*
X9123570Y6862000D01*
X9116760Y6858060D01*
X9092420D01*
X9116760Y6858060D02*
X9131360Y6820000D01*
X9190630Y6820000D02*
Y6898740D01*
X9178950Y6882990D01*
X9178950Y6820000D02*
X9202310D01*
X9269370Y6898740D02*
X9261580Y6896120D01*
X9255740Y6889550D01*
X9251840Y6881680D01*
X9248920Y6871180D01*
X9247950Y6859370D01*
X9248920Y6847560D01*
X9251840Y6837060D01*
X9255740Y6829180D01*
X9261580Y6822620D01*
X9269370Y6820000D01*
X9277160Y6822620D01*
X9283000Y6829180D01*
X9286900Y6837060D01*
X9289820Y6847560D01*
X9290790Y6859370D01*
X9289820Y6871180D01*
X9286900Y6881680D01*
X9283000Y6889550D01*
X9277160Y6896120D01*
X9269370Y6898740D01*
X9329610Y6885620D02*
X9335450Y6893490D01*
X9342270Y6897430D01*
X9350060Y6898740D01*
X9359790Y6896120D01*
X9366610Y6889550D01*
X9368560Y6881680D01*
X9367580Y6873800D01*
X9363690Y6867240D01*
X9344220Y6854120D01*
X9335450Y6844930D01*
X9329610Y6831810D01*
X9327660Y6820000D01*
X9368560D01*
X634700Y5664080D02*
Y4587900D01*
X716200Y6690800D02*
X563800D01*
X716200Y7240800D02*
X563800D01*
X694700Y4527900D02*
X1246630D01*
X1214550Y5827900D02*
X694700D01*
X1066200Y6690800D02*
X913800D01*
X1066200Y7240800D02*
X913800D01*
X1637460Y1008550D02*
X1367450D01*
Y703750D01*
X1383550D01*
X1335700Y2395790D02*
Y1649900D01*
X1812250D01*
X1335700Y2764980D02*
Y2615280D01*
X1335700Y2958230D02*
Y2894820D01*
X1335700Y3375160D02*
Y3087570D01*
X1332770Y4527900D02*
X1624700D01*
X1375410Y5827900D02*
X1329850D01*
X1405900Y6693700D02*
X1253500D01*
X1405900Y7243700D02*
X1253500D01*
X1345000Y7880390D02*
Y7920000D01*
X1563880Y7615000D02*
X1470000D01*
Y7810000D01*
X1378400D01*
X1345000Y8220000D02*
Y8330000D01*
X1478350Y703750D02*
X1875450D01*
Y775280D01*
X1761030Y3554900D02*
X1462700D01*
X1674700Y5827900D02*
X1486490D01*
X1940000Y7615000D02*
X1686120D01*
X1762530Y1008550D02*
X1732440D01*
X1875450Y832520D02*
Y1008550D01*
X1857470D01*
X1937150Y1649900D02*
X2605700D01*
Y1682310D01*
X1734700Y4642900D02*
Y4985750D01*
X1734700Y5108530D02*
Y5433140D01*
X1734700Y5542660D02*
Y5767900D01*
X2188130Y3554900D02*
X2039790D01*
X2079000Y7615000D02*
X2010000D01*
X2230700Y7615000D02*
X2171000D01*
X2270000Y420000D02*
Y530000D01*
X2440000Y954640D02*
Y1140000D01*
X3260000D01*
Y940000D01*
X3430000D01*
Y830000D01*
X2270000Y830000D02*
Y940000D01*
X2374920D01*
X2605700Y3528870D02*
Y3554900D01*
X2301270D01*
X2319200Y4240700D02*
X4029460D01*
X2254200Y5232070D02*
Y4300700D01*
X2254200Y5680790D02*
Y5333730D01*
X2254200Y6825700D02*
Y5765010D01*
X2542290Y6940700D02*
X2369200D01*
X2553030Y7615000D02*
X2319300D01*
X2605700Y1863180D02*
Y2046890D01*
X2605700Y1767490D02*
Y1782620D01*
X2605700Y2410880D02*
Y2462310D01*
X2605700Y2207550D02*
Y2241920D01*
X2605700Y2643040D02*
Y2865310D01*
X2605700Y3185870D02*
Y3314380D01*
X2605700Y2997510D02*
Y3123930D01*
X2605700Y3401420D02*
Y3466930D01*
X2678790Y6940700D02*
X2637110D01*
X2671340Y7615000D02*
X2596970D01*
X2852240Y6940700D02*
X2773610D01*
X4894200Y6940700D02*
X2947160D01*
X3091340Y7615000D02*
X2872380D01*
X3279700Y2120800D02*
Y2055000D01*
X3279700Y2612300D02*
Y2185000D01*
X3279700Y3090800D02*
Y2663500D01*
X3279700Y3582900D02*
Y3155000D01*
X3285150Y7306330D02*
Y7256950D01*
X3739730Y7615000D02*
X3272460D01*
X3430000Y530000D02*
Y420000D01*
X3339700Y1942900D02*
X3829640D01*
X3649940Y3642900D02*
X3339700D01*
X3750680Y3642900D02*
X3740060D01*
X4030000Y7615000D02*
X3810270D01*
X3919760Y1942900D02*
X4053270D01*
X4366630Y3642900D02*
X3843460D01*
X4039940Y4240700D02*
X4317320D01*
X3920150Y7300020D02*
Y7256950D01*
X4155000Y7850410D02*
Y7810000D01*
X4030000D01*
Y7711110D01*
X4371510Y1942900D02*
X4595280D01*
X4146130Y1942900D02*
X4297890D01*
X4347260Y4240700D02*
X4894200D01*
X4616320Y1942900D02*
X4919700D01*
X4642890Y3642900D02*
X4516510D01*
X4469450Y7462400D02*
Y7447400D01*
X4749450D01*
Y7462400D01*
X4469450Y7716910D02*
Y7687890D01*
X4749450Y7942400D02*
Y7962400D01*
X4469450D01*
Y7942400D01*
X4825000Y420000D02*
Y530000D01*
X4825000Y830000D02*
Y940000D01*
X4955000D01*
Y1135000D01*
X6407870D01*
X4864700Y3642900D02*
X4716510D01*
X4749450Y7716910D02*
Y7687890D01*
X4979700Y2002900D02*
Y2045670D01*
X4979700Y2179710D02*
Y2349830D01*
X4979700Y2619330D02*
Y2771690D01*
X4979700Y2435970D02*
Y2526470D01*
X4979700Y3188280D02*
Y3202520D01*
X4979700Y2985970D02*
Y3006470D01*
X4979700Y3283280D02*
Y3409830D01*
X4979700Y3495970D02*
Y3527900D01*
X4954200Y4300700D02*
Y5274700D01*
X4954200Y5362800D02*
Y6343150D01*
X4954200Y6370350D02*
Y6880700D01*
X5690080Y7510950D02*
X5298100D01*
Y7625250D01*
X5298100Y8057050D02*
Y8171350D01*
X5981850D01*
X5503700Y2108400D02*
Y2088400D01*
X5683390D01*
X5503700Y2333890D02*
Y2362910D01*
X5685100Y2603400D02*
X5503700D01*
Y2588400D01*
X5783700Y2088400D02*
Y2108400D01*
X5783700Y2333890D02*
Y2362910D01*
X6009300Y7625250D02*
Y7510950D01*
X5819320D01*
X6207950Y5315200D02*
Y4235200D01*
X6207950Y6997950D02*
Y5917950D01*
X6467100Y2039900D02*
X6485610Y2021390D01*
X6415000Y2226410D02*
Y2092000D01*
X6415000Y2613090D02*
Y2319390D01*
X6415000Y3065410D02*
Y2706910D01*
X6942620Y3235000D02*
X6415000D01*
Y3160390D01*
X6499990Y4170200D02*
X6578490D01*
X6272950Y4170200D02*
X6301480D01*
X6392410Y5380200D02*
X6272950D01*
X6318950Y5852950D02*
X6394830D01*
X6272950Y5852950D02*
X6294950D01*
X6364200Y7062950D02*
X6272950D01*
X6620330Y7062950D02*
X6399700D01*
X6601910Y1135000D02*
X6708090D01*
X6550400Y1965000D02*
X6782580D01*
X6645410Y4170200D02*
X6788300D01*
X6800820Y5380200D02*
X6559330D01*
X6554020Y5852950D02*
X6797900D01*
X6761000Y7062950D02*
X6713570D01*
X6801910Y1135000D02*
X7005000D01*
Y940000D01*
X7135000D01*
Y830000D01*
X6960070Y1965000D02*
X7041380D01*
X6877420Y1965000D02*
X6919330D01*
X7383170Y3235000D02*
X7037380D01*
X7040120Y4170200D02*
X7107950D01*
X6875600Y4170200D02*
X6949880D01*
X7152950Y5380200D02*
X6967420D01*
X6846000Y5852950D02*
X7024920D01*
X7015330Y7062950D02*
X6842900D01*
X7135000Y530000D02*
Y420000D01*
X7217950Y4280200D02*
Y4422700D01*
X7217950Y4515100D02*
Y5315200D01*
X7078980Y5852950D02*
X7107950D01*
X7217950Y5962950D02*
Y6997950D01*
X7152950Y7062950D02*
X7108570D01*
X7946050Y7657000D02*
Y7542700D01*
X7234850D01*
Y7657000D01*
X7234850Y8088800D02*
Y8191550D01*
X7685000Y3235000D02*
X7566210D01*
X7658620Y1965000D02*
X7685000D01*
Y2027810D01*
X7685000Y2234250D02*
Y2245430D01*
X7685000Y2824190D02*
Y3054160D01*
X7604950Y5315200D02*
Y4235200D01*
X7802250Y4170200D02*
X7855430D01*
X7669950Y4170200D02*
X7707750D01*
X7762410Y5380200D02*
X7669950D01*
X8169010Y5380200D02*
X7784390D01*
X7669950Y5852950D02*
X7822440D01*
X7604950Y6997950D02*
Y5917950D01*
X7708430Y7062950D02*
X7669950D01*
X8065910Y4170200D02*
X8264880D01*
X7884570Y4170200D02*
X8014090D01*
X7914860Y5852950D02*
X8304130D01*
X8549950Y7062950D02*
X7912880D01*
X7907660Y8203100D02*
X7946050D01*
Y8088800D01*
X8355120Y4170200D02*
X8504950D01*
X8549950Y5380200D02*
X8274890D01*
X8423500Y2697920D02*
Y1765000D01*
X8995000D01*
X8995000Y3188010D02*
Y3543000D01*
X8423500D01*
Y2827880D01*
X8614950Y4280200D02*
Y5315200D01*
X8477350Y5852950D02*
X8504950D01*
X8614950Y5962950D02*
Y6997950D01*
X8995000Y1765000D02*
Y2170320D01*
X8995000Y2208980D02*
Y2628710D01*
X8995000Y2703090D02*
Y3096290D01*
X510200Y1198900D02*
X536988Y1204228D01*
X559697Y1219402D01*
X574871Y1242112D01*
X580200Y1268900D01*
X440200Y1268900D02*
X445528Y1242112D01*
X460702Y1219402D01*
X483412Y1204228D01*
X510200Y1198900D01*
X468620Y1325210D02*
X453358Y1309752D01*
X443571Y1290359D01*
X440200Y1268900D01*
X580200Y1268900D02*
X576829Y1290359D01*
X567041Y1309752D01*
X551780Y1325210D01*
X630700Y1332400D02*
X636028Y1305612D01*
X651202Y1282902D01*
X673912Y1267728D01*
X700700Y1262400D01*
X700700Y1402400D02*
X673912Y1397071D01*
X651202Y1381897D01*
X636028Y1359188D01*
X630700Y1332400D01*
X630700Y1554650D02*
X633869Y1533825D01*
X643091Y1514887D01*
X657530Y1499550D01*
X700700Y1624650D02*
X673912Y1619321D01*
X651202Y1604147D01*
X636028Y1581438D01*
X630700Y1554650D01*
X510200Y1389400D02*
X536988Y1394728D01*
X559697Y1409902D01*
X574871Y1432612D01*
X580200Y1459400D01*
X440200Y1459400D02*
X445528Y1432612D01*
X460702Y1409902D01*
X483412Y1394728D01*
X510200Y1389400D01*
X468780Y1515830D02*
X453435Y1500361D01*
X443591Y1480923D01*
X440200Y1459400D01*
X580200Y1459400D02*
X576809Y1480923D01*
X566964Y1500361D01*
X551620Y1515830D01*
X510200Y1579900D02*
X536988Y1585228D01*
X559697Y1600402D01*
X574871Y1623112D01*
X580200Y1649900D01*
X440200Y1649900D02*
X445528Y1623112D01*
X460702Y1600402D01*
X483412Y1585228D01*
X510200Y1579900D01*
X510200Y1802150D02*
X536988Y1807478D01*
X559697Y1822652D01*
X574871Y1845362D01*
X580200Y1872150D01*
X440200Y1872150D02*
X445528Y1845362D01*
X460702Y1822652D01*
X483412Y1807478D01*
X510200Y1802150D01*
X464360Y1925050D02*
X451312Y1909993D01*
X443035Y1891870D01*
X440200Y1872150D01*
X580200Y1872150D02*
X575416Y1897583D01*
X561719Y1919540D01*
X540980Y1935020D01*
X630700Y1745150D02*
X634060Y1723719D01*
X643819Y1704346D01*
X659040Y1688890D01*
X700700Y1815150D02*
X673912Y1809821D01*
X651202Y1794647D01*
X636028Y1771938D01*
X630700Y1745150D01*
X470190Y1707340D02*
X454119Y1691793D01*
X443771Y1671972D01*
X440200Y1649900D01*
X580200Y1649900D02*
X576629Y1671972D01*
X566280Y1691793D01*
X550210Y1707340D01*
X519550Y1993280D02*
X550467Y2005393D01*
X572323Y2030392D01*
X580200Y2062650D01*
X440200Y2062650D02*
X446152Y2034403D01*
X462997Y2010961D01*
X487870Y1996310D01*
X458820Y2110190D02*
X448693Y2096070D01*
X442356Y2079891D01*
X440200Y2062650D01*
X580200Y2062650D02*
X575703Y2087336D01*
X562790Y2108851D01*
X543120Y2124430D01*
X566350Y2211350D02*
X573926Y2224184D01*
X578613Y2238331D01*
X580200Y2253150D01*
X440200Y2253150D02*
X445806Y2225702D01*
X461726Y2202652D01*
X485410Y2187690D01*
X510200Y2323150D02*
X483412Y2317821D01*
X460702Y2302647D01*
X445528Y2279938D01*
X440200Y2253150D01*
X580200Y2253150D02*
X574871Y2279938D01*
X559697Y2302647D01*
X536988Y2317821D01*
X510200Y2323150D01*
X510200Y2373650D02*
X536988Y2378978D01*
X559697Y2394152D01*
X574871Y2416862D01*
X580200Y2443650D01*
X440200Y2443650D02*
X445528Y2416862D01*
X460702Y2394152D01*
X483412Y2378978D01*
X510200Y2373650D01*
X510200Y2513650D02*
X483412Y2508321D01*
X460702Y2493147D01*
X445528Y2470438D01*
X440200Y2443650D01*
X580200Y2443650D02*
X574871Y2470438D01*
X559697Y2493147D01*
X536988Y2508321D01*
X510200Y2513650D01*
X509700Y2552900D02*
X536488Y2558228D01*
X559197Y2573402D01*
X574371Y2596112D01*
X579700Y2622900D01*
X439700Y2622900D02*
X445028Y2596112D01*
X460202Y2573402D01*
X482912Y2558228D01*
X509700Y2552900D01*
X509700Y2692900D02*
X482912Y2687571D01*
X460202Y2672397D01*
X445028Y2649688D01*
X439700Y2622900D01*
X579700Y2622900D02*
X574371Y2649688D01*
X559197Y2672397D01*
X536488Y2687571D01*
X509700Y2692900D01*
X509700Y2732900D02*
X536488Y2738228D01*
X559197Y2753402D01*
X574371Y2776112D01*
X579700Y2802900D01*
X439700Y2802900D02*
X445028Y2776112D01*
X460202Y2753402D01*
X482912Y2738228D01*
X509700Y2732900D01*
X476870Y2864730D02*
X457154Y2849153D01*
X444209Y2827618D01*
X439700Y2802900D01*
X579700Y2802900D02*
X575191Y2827618D01*
X562245Y2849153D01*
X542530Y2864730D01*
X546540Y2968380D02*
X564230Y2984010D01*
X575719Y3004632D01*
X579700Y3027900D01*
X439700Y3027900D02*
X443680Y3004632D01*
X455169Y2984010D01*
X472860Y2968380D01*
X509700Y3097900D02*
X482912Y3092571D01*
X460202Y3077397D01*
X445028Y3054688D01*
X439700Y3027900D01*
X579700Y3027900D02*
X574371Y3054688D01*
X559197Y3077397D01*
X536488Y3092571D01*
X509700Y3097900D01*
X509700Y3142900D02*
X536488Y3148228D01*
X559197Y3163402D01*
X574371Y3186112D01*
X579700Y3212900D01*
X439700Y3212900D02*
X445028Y3186112D01*
X460202Y3163402D01*
X482912Y3148228D01*
X509700Y3142900D01*
X510200Y3326150D02*
X536988Y3331478D01*
X559697Y3346652D01*
X574871Y3369362D01*
X580200Y3396150D01*
X440200Y3396150D02*
X445528Y3369362D01*
X460702Y3346652D01*
X483412Y3331478D01*
X510200Y3326150D01*
X510200Y3466150D02*
X483412Y3460821D01*
X460702Y3445647D01*
X445528Y3422938D01*
X440200Y3396150D01*
X580200Y3396150D02*
X574871Y3422938D01*
X559697Y3445647D01*
X536988Y3460821D01*
X510200Y3466150D01*
X509700Y3282900D02*
X482912Y3277571D01*
X460202Y3262397D01*
X445028Y3239688D01*
X439700Y3212900D01*
X579700Y3212900D02*
X574371Y3239688D01*
X559197Y3262397D01*
X536488Y3277571D01*
X509700Y3282900D01*
X510200Y3516650D02*
X536988Y3521978D01*
X559697Y3537152D01*
X574871Y3559862D01*
X580200Y3586650D01*
X440200Y3586650D02*
X445528Y3559862D01*
X460702Y3537152D01*
X483412Y3521978D01*
X510200Y3516650D01*
X510200Y3656650D02*
X483412Y3651321D01*
X460702Y3636147D01*
X445528Y3613438D01*
X440200Y3586650D01*
X580200Y3586650D02*
X574871Y3613438D01*
X559697Y3636147D01*
X536988Y3651321D01*
X510200Y3656650D01*
X510200Y3707150D02*
X536988Y3712478D01*
X559697Y3727652D01*
X574871Y3750362D01*
X580200Y3777150D01*
X440200Y3777150D02*
X445528Y3750362D01*
X460702Y3727652D01*
X483412Y3712478D01*
X510200Y3707150D01*
X510200Y3847150D02*
X483412Y3841821D01*
X460702Y3826647D01*
X445528Y3803938D01*
X440200Y3777150D01*
X580200Y3777150D02*
X574871Y3803938D01*
X559697Y3826647D01*
X536988Y3841821D01*
X510200Y3847150D01*
X510200Y3897650D02*
X536988Y3902978D01*
X559697Y3918152D01*
X574871Y3940862D01*
X580200Y3967650D01*
X440200Y3967650D02*
X445528Y3940862D01*
X460702Y3918152D01*
X483412Y3902978D01*
X510200Y3897650D01*
X510200Y4037650D02*
X483412Y4032321D01*
X460702Y4017147D01*
X445528Y3994438D01*
X440200Y3967650D01*
X580200Y3967650D02*
X574871Y3994438D01*
X559697Y4017147D01*
X536988Y4032321D01*
X510200Y4037650D01*
X700700Y1262400D02*
X727488Y1267728D01*
X750197Y1282902D01*
X765371Y1305612D01*
X770700Y1332400D01*
X765371Y1359188D01*
X750197Y1381897D01*
X727488Y1397071D01*
X700700Y1402400D01*
X743870Y1499550D02*
X758308Y1514887D01*
X767530Y1533825D01*
X770700Y1554650D01*
X765371Y1581438D01*
X750197Y1604147D01*
X727488Y1619321D01*
X700700Y1624650D01*
X742360Y1688890D02*
X757580Y1704346D01*
X767339Y1723719D01*
X770700Y1745150D01*
X765371Y1771938D01*
X750197Y1794647D01*
X727488Y1809821D01*
X700700Y1815150D01*
X700700Y2087900D02*
X727488Y2093228D01*
X750197Y2108402D01*
X765371Y2131112D01*
X770700Y2157900D01*
X643780Y2117160D02*
X659288Y2101465D01*
X678911Y2091378D01*
X700700Y2087900D01*
X700700Y1897400D02*
X727488Y1902728D01*
X750197Y1917902D01*
X765371Y1940612D01*
X770700Y1967400D01*
X645250Y1924680D02*
X660625Y1910008D01*
X679694Y1900626D01*
X700700Y1897400D01*
X700700Y2037400D02*
X679379Y2034073D01*
X660084Y2024411D01*
X644650Y2009330D01*
X770700Y1967400D02*
X765371Y1994188D01*
X750197Y2016897D01*
X727488Y2032071D01*
X700700Y2037400D01*
X700700Y2227900D02*
X678911Y2224422D01*
X659288Y2214335D01*
X643780Y2198640D01*
X770700Y2157900D02*
X765371Y2184688D01*
X750197Y2207397D01*
X727488Y2222571D01*
X700700Y2227900D01*
X700700Y2278400D02*
X727488Y2283728D01*
X750197Y2298902D01*
X765371Y2321612D01*
X770700Y2348400D01*
X644050Y2307280D02*
X659538Y2291781D01*
X679059Y2281829D01*
X700700Y2278400D01*
X700700Y2418400D02*
X678766Y2414875D01*
X659040Y2404655D01*
X643510Y2388770D01*
X770700Y2348400D02*
X765371Y2375188D01*
X750197Y2397897D01*
X727488Y2413071D01*
X700700Y2418400D01*
X1584700Y4102900D02*
X1611488Y4108228D01*
X1634197Y4123402D01*
X1649371Y4146112D01*
X1654700Y4172900D01*
X1514700Y4172900D02*
X1520028Y4146112D01*
X1535202Y4123402D01*
X1557912Y4108228D01*
X1584700Y4102900D01*
X1584700Y4242900D02*
X1557912Y4237571D01*
X1535202Y4222397D01*
X1520028Y4199688D01*
X1514700Y4172900D01*
X1654700Y4172900D02*
X1649371Y4199688D01*
X1634197Y4222397D01*
X1611488Y4237571D01*
X1584700Y4242900D01*
X1964200Y3967650D02*
X1969528Y3940862D01*
X1984702Y3918152D01*
X2007412Y3902978D01*
X2034200Y3897650D01*
X1965350Y3980260D02*
X1964713Y3976082D01*
X1964329Y3971874D01*
X1964200Y3967650D01*
X1904700Y4172900D02*
X1910028Y4146112D01*
X1925202Y4123402D01*
X1947912Y4108228D01*
X1974700Y4102900D01*
X1974700Y4242900D02*
X1947912Y4237571D01*
X1925202Y4222397D01*
X1910028Y4199688D01*
X1904700Y4172900D01*
X1784700Y4102900D02*
X1811488Y4108228D01*
X1834197Y4123402D01*
X1849371Y4146112D01*
X1854700Y4172900D01*
X1714700Y4172900D02*
X1720028Y4146112D01*
X1735202Y4123402D01*
X1757912Y4108228D01*
X1784700Y4102900D01*
X1784700Y4242900D02*
X1757912Y4237571D01*
X1735202Y4222397D01*
X1720028Y4199688D01*
X1714700Y4172900D01*
X1854700Y4172900D02*
X1849371Y4199688D01*
X1834197Y4222397D01*
X1811488Y4237571D01*
X1784700Y4242900D01*
X1910700Y6470150D02*
X1916028Y6443362D01*
X1931202Y6420652D01*
X1953912Y6405478D01*
X1980700Y6400150D01*
X1980700Y6540150D02*
X1953912Y6534821D01*
X1931202Y6519647D01*
X1916028Y6496938D01*
X1910700Y6470150D01*
X1910700Y6660650D02*
X1916028Y6633862D01*
X1931202Y6611152D01*
X1953912Y6595978D01*
X1980700Y6590650D01*
X1980700Y6730650D02*
X1953912Y6725321D01*
X1931202Y6710147D01*
X1916028Y6687438D01*
X1910700Y6660650D01*
X1910700Y6851150D02*
X1916028Y6824362D01*
X1931202Y6801652D01*
X1953912Y6786478D01*
X1980700Y6781150D01*
X1980700Y6921150D02*
X1953912Y6915821D01*
X1931202Y6900647D01*
X1916028Y6877938D01*
X1910700Y6851150D01*
X1910700Y7041650D02*
X1916028Y7014862D01*
X1931202Y6992152D01*
X1953912Y6976978D01*
X1980700Y6971650D01*
X1980700Y7111650D02*
X1953912Y7106321D01*
X1931202Y7091147D01*
X1916028Y7068438D01*
X1910700Y7041650D01*
X2034200Y3897650D02*
X2060988Y3902978D01*
X2083697Y3918152D01*
X2098871Y3940862D01*
X2104200Y3967650D01*
X2098871Y3994438D01*
X2083697Y4017147D01*
X2060988Y4032321D01*
X2034200Y4037650D01*
X2224700Y3897650D02*
X2251488Y3902978D01*
X2274197Y3918152D01*
X2289371Y3940862D01*
X2294700Y3967650D01*
X2154700Y3967650D02*
X2160028Y3940862D01*
X2175202Y3918152D01*
X2197912Y3902978D01*
X2224700Y3897650D01*
X2224700Y4037650D02*
X2197912Y4032321D01*
X2175202Y4017147D01*
X2160028Y3994438D01*
X2154700Y3967650D01*
X2034200Y4037650D02*
X2030294Y4037541D01*
X2026399Y4037214D01*
X2022530Y4036670D01*
X1974700Y4102900D02*
X2001488Y4108228D01*
X2024197Y4123402D01*
X2039371Y4146112D01*
X2044700Y4172900D01*
X2039371Y4199688D01*
X2024197Y4222397D01*
X2001488Y4237571D01*
X1974700Y4242900D01*
X1980700Y6400150D02*
X2007488Y6405478D01*
X2030197Y6420652D01*
X2045371Y6443362D01*
X2050700Y6470150D01*
X2045371Y6496938D01*
X2030197Y6519647D01*
X2007488Y6534821D01*
X1980700Y6540150D01*
X1980700Y6590650D02*
X2007488Y6595978D01*
X2030197Y6611152D01*
X2045371Y6633862D01*
X2050700Y6660650D01*
X2045371Y6687438D01*
X2030197Y6710147D01*
X2007488Y6725321D01*
X1980700Y6730650D01*
X1980700Y6781150D02*
X2007488Y6786478D01*
X2030197Y6801652D01*
X2045371Y6824362D01*
X2050700Y6851150D01*
X2045371Y6877938D01*
X2030197Y6900647D01*
X2007488Y6915821D01*
X1980700Y6921150D01*
X1980700Y6971650D02*
X2003950Y6975624D01*
X2024560Y6987095D01*
X2040190Y7004760D01*
X2040190Y7078540D02*
X2024560Y7096205D01*
X2003950Y7107676D01*
X1980700Y7111650D01*
X2294700Y3967650D02*
X2294478Y3973223D01*
X2293813Y3978762D01*
X2292710Y3984230D01*
X2415200Y3897650D02*
X2441988Y3902978D01*
X2464697Y3918152D01*
X2479871Y3940862D01*
X2485200Y3967650D01*
X2345200Y3967650D02*
X2350528Y3940862D01*
X2365702Y3918152D01*
X2388412Y3902978D01*
X2415200Y3897650D01*
X2415200Y4037650D02*
X2388412Y4032321D01*
X2365702Y4017147D01*
X2350528Y3994438D01*
X2345200Y3967650D01*
X2485200Y3967650D02*
X2479871Y3994438D01*
X2464697Y4017147D01*
X2441988Y4032321D01*
X2415200Y4037650D01*
X2726200Y3967650D02*
X2731528Y3940862D01*
X2746702Y3918152D01*
X2769412Y3902978D01*
X2796200Y3897650D01*
X2742460Y4012510D02*
X2733591Y3998960D01*
X2728073Y3983735D01*
X2726200Y3967650D01*
X2605700Y3897650D02*
X2632488Y3902978D01*
X2655197Y3918152D01*
X2670371Y3940862D01*
X2675700Y3967650D01*
X2535700Y3967650D02*
X2541028Y3940862D01*
X2556202Y3918152D01*
X2578912Y3902978D01*
X2605700Y3897650D01*
X2605700Y4037650D02*
X2578912Y4032321D01*
X2556202Y4017147D01*
X2541028Y3994438D01*
X2535700Y3967650D01*
X2675700Y3967650D02*
X2670371Y3994438D01*
X2655197Y4017147D01*
X2632488Y4032321D01*
X2605700Y4037650D01*
X2862540Y3945330D02*
X2864564Y3952623D01*
X2865789Y3960092D01*
X2866200Y3967650D01*
X2859523Y3997486D01*
X2840767Y4021631D01*
X2813510Y4035480D01*
X3355850Y1504400D02*
X3332741Y1500475D01*
X3312225Y1489141D01*
X3296600Y1471670D01*
X3152750Y1554900D02*
X3179538Y1560228D01*
X3202247Y1575402D01*
X3217421Y1598112D01*
X3222750Y1624900D01*
X3082750Y1624900D02*
X3088078Y1598112D01*
X3103252Y1575402D01*
X3125962Y1560228D01*
X3152750Y1554900D01*
X3152750Y1694900D02*
X3125962Y1689571D01*
X3103252Y1674397D01*
X3088078Y1651688D01*
X3082750Y1624900D01*
X3222750Y1624900D02*
X3217421Y1651688D01*
X3202247Y1674397D01*
X3179538Y1689571D01*
X3152750Y1694900D01*
X3355550Y1694900D02*
X3328762Y1689571D01*
X3306052Y1674397D01*
X3290878Y1651688D01*
X3285550Y1624900D01*
X3234200Y3967650D02*
X3239528Y3940862D01*
X3254702Y3918152D01*
X3277412Y3902978D01*
X3304200Y3897650D01*
X3258720Y4020860D02*
X3245484Y4005759D01*
X3237080Y3987522D01*
X3234200Y3967650D01*
X3304200Y4037650D02*
X3297005Y4037280D01*
X3289887Y4036173D01*
X3282920Y4034340D01*
X3558650Y1364400D02*
X3585438Y1369728D01*
X3608147Y1384902D01*
X3623321Y1407612D01*
X3628650Y1434400D01*
X3522940Y1374190D02*
X3534194Y1368809D01*
X3546225Y1365510D01*
X3558650Y1364400D01*
X3558650Y1504400D02*
X3526069Y1496356D01*
X3500977Y1474072D01*
X3489140Y1442670D01*
X3628650Y1434400D02*
X3623321Y1461188D01*
X3608147Y1483897D01*
X3585438Y1499071D01*
X3558650Y1504400D01*
X3355850Y1364400D02*
X3382638Y1369728D01*
X3405347Y1384902D01*
X3420521Y1407612D01*
X3425850Y1434400D01*
X3304520Y1386810D02*
X3319335Y1374680D01*
X3336883Y1367019D01*
X3355850Y1364400D01*
X3425850Y1434400D02*
X3420521Y1461188D01*
X3405347Y1483897D01*
X3382638Y1499071D01*
X3355850Y1504400D01*
X3558350Y1554900D02*
X3585138Y1560228D01*
X3607847Y1575402D01*
X3623021Y1598112D01*
X3628350Y1624900D01*
X3488350Y1624900D02*
X3493678Y1598112D01*
X3508852Y1575402D01*
X3531562Y1560228D01*
X3558350Y1554900D01*
X3355550Y1554900D02*
X3376497Y1558107D01*
X3395525Y1567435D01*
X3410890Y1582030D01*
X3336940Y1557420D02*
X3343059Y1556024D01*
X3349279Y1555181D01*
X3355550Y1554900D01*
X3499220Y1662370D02*
X3493252Y1650640D01*
X3489586Y1638002D01*
X3488350Y1624900D01*
X3385860Y1688000D02*
X3376139Y1691805D01*
X3365960Y1694122D01*
X3355550Y1694900D01*
X3304200Y3897650D02*
X3330988Y3902978D01*
X3353697Y3918152D01*
X3368871Y3940862D01*
X3374200Y3967650D01*
X3368871Y3994438D01*
X3353697Y4017147D01*
X3330988Y4032321D01*
X3304200Y4037650D01*
X3494700Y3897650D02*
X3521488Y3902978D01*
X3544197Y3918152D01*
X3559371Y3940862D01*
X3564700Y3967650D01*
X3424700Y3967650D02*
X3430028Y3940862D01*
X3445202Y3918152D01*
X3467912Y3902978D01*
X3494700Y3897650D01*
X3494700Y4037650D02*
X3467912Y4032321D01*
X3445202Y4017147D01*
X3430028Y3994438D01*
X3424700Y3967650D01*
X3564700Y3967650D02*
X3559371Y3994438D01*
X3544197Y4017147D01*
X3521488Y4032321D01*
X3494700Y4037650D01*
X3748700Y1548150D02*
X3766268Y1550390D01*
X3782712Y1556967D01*
X3796980Y1567460D01*
X3678700Y1618150D02*
X3684028Y1591362D01*
X3699202Y1568652D01*
X3721912Y1553478D01*
X3748700Y1548150D01*
X3628350Y1624900D02*
X3622970Y1651809D01*
X3607659Y1674583D01*
X3584770Y1689720D01*
X3748700Y1688150D02*
X3721912Y1682821D01*
X3699202Y1667647D01*
X3684028Y1644938D01*
X3678700Y1618150D01*
X3812800Y1646290D02*
X3797502Y1668336D01*
X3775036Y1683007D01*
X3748700Y1688150D01*
X3685200Y3897650D02*
X3711988Y3902978D01*
X3734697Y3918152D01*
X3749871Y3940862D01*
X3755200Y3967650D01*
X3615200Y3967650D02*
X3620528Y3940862D01*
X3635702Y3918152D01*
X3658412Y3902978D01*
X3685200Y3897650D01*
X3685200Y4037650D02*
X3658412Y4032321D01*
X3635702Y4017147D01*
X3620528Y3994438D01*
X3615200Y3967650D01*
X3755200Y3967650D02*
X3749871Y3994438D01*
X3734697Y4017147D01*
X3711988Y4032321D01*
X3685200Y4037650D01*
X3805700Y3967650D02*
X3811028Y3940862D01*
X3826202Y3918152D01*
X3848912Y3902978D01*
X3875700Y3897650D01*
X3875700Y4037650D02*
X3848912Y4032321D01*
X3826202Y4017147D01*
X3811028Y3994438D01*
X3805700Y3967650D01*
X3939200Y1548150D02*
X3965988Y1553478D01*
X3988697Y1568652D01*
X4003871Y1591362D01*
X4009200Y1618150D01*
X3869200Y1618150D02*
X3874528Y1591362D01*
X3889702Y1568652D01*
X3912412Y1553478D01*
X3939200Y1548150D01*
X3939200Y1688150D02*
X3912412Y1682821D01*
X3889702Y1667647D01*
X3874528Y1644938D01*
X3869200Y1618150D01*
X3972890Y1679510D02*
X3962197Y1684265D01*
X3950861Y1687172D01*
X3939200Y1688150D01*
X3875700Y3897650D02*
X3902488Y3902978D01*
X3925197Y3918152D01*
X3940371Y3940862D01*
X3945700Y3967650D01*
X3940371Y3994438D01*
X3925197Y4017147D01*
X3902488Y4032321D01*
X3875700Y4037650D01*
X4066200Y3897650D02*
X4092988Y3902978D01*
X4115697Y3918152D01*
X4130871Y3940862D01*
X4136200Y3967650D01*
X3996200Y3967650D02*
X4001528Y3940862D01*
X4016702Y3918152D01*
X4039412Y3902978D01*
X4066200Y3897650D01*
X4066200Y4037650D02*
X4039412Y4032321D01*
X4016702Y4017147D01*
X4001528Y3994438D01*
X3996200Y3967650D01*
X4136200Y3967650D02*
X4130871Y3994438D01*
X4115697Y4017147D01*
X4092988Y4032321D01*
X4066200Y4037650D01*
X4351950Y1548150D02*
X4372749Y1551312D01*
X4391669Y1560512D01*
X4407000Y1574920D01*
X4281950Y1618150D02*
X4287278Y1591362D01*
X4302452Y1568652D01*
X4325162Y1553478D01*
X4351950Y1548150D01*
X4351950Y1688150D02*
X4325162Y1682821D01*
X4302452Y1667647D01*
X4287278Y1644938D01*
X4281950Y1618150D01*
X4407000Y1661380D02*
X4391669Y1675787D01*
X4372749Y1684988D01*
X4351950Y1688150D01*
X4256700Y3897650D02*
X4283488Y3902978D01*
X4306197Y3918152D01*
X4321371Y3940862D01*
X4326700Y3967650D01*
X4186700Y3967650D02*
X4192028Y3940862D01*
X4207202Y3918152D01*
X4229912Y3902978D01*
X4256700Y3897650D01*
X4256700Y4037650D02*
X4229912Y4032321D01*
X4207202Y4017147D01*
X4192028Y3994438D01*
X4186700Y3967650D01*
X4326700Y3967650D02*
X4321371Y3994438D01*
X4306197Y4017147D01*
X4283488Y4032321D01*
X4256700Y4037650D01*
X4369700Y3967900D02*
X4375028Y3941112D01*
X4390202Y3918402D01*
X4412912Y3903228D01*
X4439700Y3897900D01*
X4439700Y4037900D02*
X4412912Y4032571D01*
X4390202Y4017397D01*
X4375028Y3994688D01*
X4369700Y3967900D01*
X4320200Y7167900D02*
X4346988Y7173228D01*
X4369697Y7188402D01*
X4384871Y7211112D01*
X4390200Y7237900D01*
X4250200Y7237900D02*
X4255528Y7211112D01*
X4270702Y7188402D01*
X4293412Y7173228D01*
X4320200Y7167900D01*
X4261110Y7275430D02*
X4255121Y7263685D01*
X4251441Y7251025D01*
X4250200Y7237900D01*
X4390200Y7237900D02*
X4384871Y7264688D01*
X4369697Y7287397D01*
X4346988Y7302571D01*
X4320200Y7307900D01*
X4542450Y1548150D02*
X4573701Y1555513D01*
X4598378Y1576053D01*
X4611290Y1605450D01*
X4483670Y1580130D02*
X4499285Y1563040D01*
X4519619Y1551977D01*
X4542450Y1548150D01*
X4542450Y1688150D02*
X4522515Y1685253D01*
X4504230Y1676800D01*
X4489110Y1663490D01*
X4611290Y1630850D02*
X4598378Y1660246D01*
X4573701Y1680787D01*
X4542450Y1688150D01*
X4584820Y3941620D02*
X4599944Y3918662D01*
X4622743Y3903299D01*
X4649700Y3897900D01*
X4439700Y3897900D02*
X4465706Y3902910D01*
X4487989Y3917223D01*
X4503360Y3938790D01*
X4649700Y4037900D02*
X4630725Y4035281D01*
X4613170Y4027616D01*
X4598350Y4015480D01*
X4488130Y4018440D02*
X4473834Y4029012D01*
X4457336Y4035641D01*
X4439700Y4037900D01*
X4867140Y1576570D02*
X4882598Y1561308D01*
X4901990Y1551521D01*
X4923450Y1548150D01*
X4732950Y1548150D02*
X4759738Y1553478D01*
X4782447Y1568652D01*
X4797621Y1591362D01*
X4802950Y1618150D01*
X4675380Y1578330D02*
X4690934Y1562162D01*
X4710804Y1551745D01*
X4732950Y1548150D01*
X4923450Y1688150D02*
X4901990Y1684779D01*
X4882598Y1674991D01*
X4867140Y1659730D01*
X4732950Y1688150D02*
X4710804Y1684554D01*
X4690934Y1674138D01*
X4675380Y1657970D01*
X4802950Y1618150D02*
X4797621Y1644938D01*
X4782447Y1667647D01*
X4759738Y1682821D01*
X4732950Y1688150D01*
X4649700Y3897900D02*
X4676488Y3903228D01*
X4699197Y3918402D01*
X4714371Y3941112D01*
X4719700Y3967900D01*
X4714371Y3994688D01*
X4699197Y4017397D01*
X4676488Y4032571D01*
X4649700Y4037900D01*
X4828200Y3897650D02*
X4854988Y3902978D01*
X4877697Y3918152D01*
X4892871Y3940862D01*
X4898200Y3967650D01*
X4758200Y3967650D02*
X4763528Y3940862D01*
X4778702Y3918152D01*
X4801412Y3902978D01*
X4828200Y3897650D01*
X4828200Y4037650D02*
X4801412Y4032321D01*
X4778702Y4017147D01*
X4763528Y3994438D01*
X4758200Y3967650D01*
X4898200Y3967650D02*
X4892871Y3994438D01*
X4877697Y4017147D01*
X4854988Y4032321D01*
X4828200Y4037650D01*
X4828200Y7167900D02*
X4854988Y7173228D01*
X4877697Y7188402D01*
X4892871Y7211112D01*
X4898200Y7237900D01*
X4758200Y7237900D02*
X4763528Y7211112D01*
X4778702Y7188402D01*
X4801412Y7173228D01*
X4828200Y7167900D01*
X4828200Y7307900D02*
X4801412Y7302571D01*
X4778702Y7287397D01*
X4763528Y7264688D01*
X4758200Y7237900D01*
X4898200Y7237900D02*
X4892871Y7264688D01*
X4877697Y7287397D01*
X4854988Y7302571D01*
X4828200Y7307900D01*
X4923450Y1548150D02*
X4947823Y1552530D01*
X4969145Y1565122D01*
X4984750Y1584350D01*
X5082200Y1548150D02*
X5105005Y1551969D01*
X5125320Y1563011D01*
X5140930Y1580070D01*
X5027100Y1574980D02*
X5042437Y1560541D01*
X5061375Y1551319D01*
X5082200Y1548150D01*
X4984750Y1651950D02*
X4969145Y1671178D01*
X4947823Y1683770D01*
X4923450Y1688150D01*
X5082200Y1688150D02*
X5061375Y1684980D01*
X5042437Y1675758D01*
X5027100Y1661320D01*
X5103940Y1684690D02*
X5096828Y1686605D01*
X5089555Y1687763D01*
X5082200Y1688150D01*
X5149760Y1636480D02*
X5147996Y1642049D01*
X5145774Y1647451D01*
X5143110Y1652650D01*
X5018700Y3897650D02*
X5045488Y3902978D01*
X5068197Y3918152D01*
X5083371Y3940862D01*
X5088700Y3967650D01*
X4948700Y3967650D02*
X4954028Y3940862D01*
X4969202Y3918152D01*
X4991912Y3902978D01*
X5018700Y3897650D01*
X5018700Y4037650D02*
X4991912Y4032321D01*
X4969202Y4017147D01*
X4954028Y3994438D01*
X4948700Y3967650D01*
X5088700Y3967650D02*
X5083371Y3994438D01*
X5068197Y4017147D01*
X5045488Y4032321D01*
X5018700Y4037650D01*
X5304700Y1752900D02*
X5327070Y1756571D01*
X5347093Y1767199D01*
X5362670Y1783670D01*
X5234700Y1822900D02*
X5240028Y1796112D01*
X5255202Y1773402D01*
X5277912Y1758228D01*
X5304700Y1752900D01*
X5304700Y1892900D02*
X5277912Y1887571D01*
X5255202Y1872397D01*
X5240028Y1849688D01*
X5234700Y1822900D01*
X5362670Y1862130D02*
X5347093Y1878600D01*
X5327070Y1889229D01*
X5304700Y1892900D01*
X5304700Y1932900D02*
X5324181Y1935663D01*
X5342124Y1943739D01*
X5357110Y1956490D01*
X5234700Y2002900D02*
X5240028Y1976112D01*
X5255202Y1953402D01*
X5277912Y1938228D01*
X5304700Y1932900D01*
X5304700Y2072900D02*
X5277912Y2067571D01*
X5255202Y2052397D01*
X5240028Y2029688D01*
X5234700Y2002900D01*
X5363170Y2041390D02*
X5347568Y2058239D01*
X5327352Y2069133D01*
X5304700Y2072900D01*
X5304450Y2119650D02*
X5331238Y2124978D01*
X5353947Y2140152D01*
X5369121Y2162862D01*
X5374450Y2189650D01*
X5247420Y2149070D02*
X5262936Y2133294D01*
X5282601Y2123149D01*
X5304450Y2119650D01*
X5304450Y2310150D02*
X5331238Y2315478D01*
X5353947Y2330652D01*
X5369121Y2353362D01*
X5374450Y2380150D01*
X5234450Y2380150D02*
X5239778Y2353362D01*
X5254952Y2330652D01*
X5277662Y2315478D01*
X5304450Y2310150D01*
X5304450Y2450150D02*
X5277662Y2444821D01*
X5254952Y2429647D01*
X5239778Y2406938D01*
X5234450Y2380150D01*
X5374450Y2380150D02*
X5369121Y2406938D01*
X5353947Y2429647D01*
X5331238Y2444821D01*
X5304450Y2450150D01*
X5304450Y2259650D02*
X5281629Y2255825D01*
X5261301Y2244769D01*
X5245690Y2227690D01*
X5374450Y2189650D02*
X5369121Y2216438D01*
X5353947Y2239147D01*
X5331238Y2254321D01*
X5304450Y2259650D01*
X5340070Y2805710D02*
X5355955Y2821240D01*
X5366175Y2840965D01*
X5369700Y2862900D01*
X5229700Y2862900D02*
X5234135Y2838377D01*
X5246881Y2816963D01*
X5266320Y2801370D01*
X5299700Y2932900D02*
X5272912Y2927571D01*
X5250202Y2912397D01*
X5235028Y2889688D01*
X5229700Y2862900D01*
X5369700Y2862900D02*
X5364371Y2889688D01*
X5349197Y2912397D01*
X5326488Y2927571D01*
X5299700Y2932900D01*
X5349970Y3470650D02*
X5365906Y3486181D01*
X5376162Y3505930D01*
X5379700Y3527900D01*
X5239700Y3527900D02*
X5243294Y3505759D01*
X5253707Y3485892D01*
X5269870Y3470340D01*
X5309700Y3272900D02*
X5336488Y3278228D01*
X5359197Y3293402D01*
X5374371Y3316112D01*
X5379700Y3342900D01*
X5239700Y3342900D02*
X5245028Y3316112D01*
X5260202Y3293402D01*
X5282912Y3278228D01*
X5309700Y3272900D01*
X5289540Y3409930D02*
X5263629Y3395600D01*
X5245962Y3371839D01*
X5239700Y3342900D01*
X5379700Y3342900D02*
X5373492Y3371720D01*
X5355969Y3395428D01*
X5330240Y3409820D01*
X5309700Y3597900D02*
X5282912Y3592571D01*
X5260202Y3577397D01*
X5245028Y3554688D01*
X5239700Y3527900D01*
X5379700Y3527900D02*
X5374371Y3554688D01*
X5359197Y3577397D01*
X5336488Y3592571D01*
X5309700Y3597900D01*
X5309700Y3642900D02*
X5336488Y3648228D01*
X5359197Y3663402D01*
X5374371Y3686112D01*
X5379700Y3712900D01*
X5239700Y3712900D02*
X5245028Y3686112D01*
X5260202Y3663402D01*
X5282912Y3648228D01*
X5309700Y3642900D01*
X5309700Y3782900D02*
X5282912Y3777571D01*
X5260202Y3762397D01*
X5245028Y3739688D01*
X5239700Y3712900D01*
X5379700Y3712900D02*
X5374371Y3739688D01*
X5359197Y3762397D01*
X5336488Y3777571D01*
X5309700Y3782900D01*
X1107100Y3745400D02*
X1112204Y3726350D01*
X1126150Y3712404D01*
X1145200Y3707300D01*
X1145200Y3783500D02*
X1126150Y3778395D01*
X1112204Y3764450D01*
X1107100Y3745400D01*
X1183300Y3745400D02*
X1178195Y3764450D01*
X1164250Y3778395D01*
X1145200Y3783500D01*
X1814400Y4414500D02*
X1833450Y4419604D01*
X1847395Y4433550D01*
X1852500Y4452600D01*
X1776300Y4452600D02*
X1781404Y4433550D01*
X1795350Y4419604D01*
X1814400Y4414500D01*
X1814400Y4490700D02*
X1795350Y4485595D01*
X1781404Y4471650D01*
X1776300Y4452600D01*
X1852500Y4452600D02*
X1847395Y4471650D01*
X1833450Y4485595D01*
X1814400Y4490700D01*
X2179500Y6977900D02*
X2198550Y6983004D01*
X2212495Y6996950D01*
X2217600Y7016000D01*
X2141400Y7016000D02*
X2146504Y6996950D01*
X2160450Y6983004D01*
X2179500Y6977900D01*
X2179500Y7054100D02*
X2160450Y7048995D01*
X2146504Y7035050D01*
X2141400Y7016000D01*
X2217600Y7016000D02*
X2212495Y7035050D01*
X2198550Y7048995D01*
X2179500Y7054100D01*
X4364750Y7991200D02*
X4366017Y7986270D01*
X4369505Y7982563D01*
X4374349Y7980998D01*
X4379346Y7981963D01*
X4383259Y7985219D01*
X4385116Y7989958D01*
X4384457Y7995005D01*
X4381445Y7999109D01*
X4376828Y8001251D01*
X4371750Y8000900D01*
X5055000Y3684500D02*
X5074050Y3689604D01*
X5087995Y3703550D01*
X5093100Y3722600D01*
X5016900Y3722600D02*
X5022004Y3703550D01*
X5035950Y3689604D01*
X5055000Y3684500D01*
X5055000Y3760700D02*
X5035950Y3755595D01*
X5022004Y3741650D01*
X5016900Y3722600D01*
X5093100Y3722600D02*
X5087995Y3741650D01*
X5074050Y3755595D01*
X5055000Y3760700D01*
X5888400Y2059600D02*
X5887132Y2064530D01*
X5883644Y2068237D01*
X5878801Y2069802D01*
X5873803Y2068837D01*
X5869890Y2065581D01*
X5868033Y2060842D01*
X5868693Y2055794D01*
X5871704Y2051691D01*
X5876322Y2049549D01*
X5881400Y2049900D01*
X6237200Y1825300D02*
X6241056Y1808597D01*
X6251844Y1795275D01*
X6267380Y1788030D01*
X6275300Y1863400D02*
X6256250Y1858295D01*
X6242304Y1844350D01*
X6237200Y1825300D01*
X6304850Y1849360D02*
X6296552Y1856927D01*
X6286408Y1861746D01*
X6275300Y1863400D01*
X7292650Y4138000D02*
X7273600Y4132895D01*
X7259654Y4118950D01*
X7254550Y4099900D01*
X7259654Y4080850D01*
X7273600Y4066904D01*
X7292650Y4061800D01*
X7311700Y4066904D01*
X7325645Y4080850D01*
X7330750Y4099900D01*
X7325645Y4118950D01*
X7311700Y4132895D01*
X7292650Y4138000D01*
X7292650Y5744550D02*
X7311700Y5749654D01*
X7325645Y5763600D01*
X7330750Y5782650D01*
X7254550Y5782650D02*
X7259654Y5763600D01*
X7273600Y5749654D01*
X7292650Y5744550D01*
X7292650Y5820750D02*
X7273600Y5815645D01*
X7259654Y5801700D01*
X7254550Y5782650D01*
X7330750Y5782650D02*
X7325645Y5801700D01*
X7311700Y5815645D01*
X7292650Y5820750D01*
X8689650Y4138000D02*
X8670600Y4132895D01*
X8656654Y4118950D01*
X8651550Y4099900D01*
X8656654Y4080850D01*
X8670600Y4066904D01*
X8689650Y4061800D01*
X8708700Y4066904D01*
X8722645Y4080850D01*
X8727750Y4099900D01*
X8722645Y4118950D01*
X8708700Y4132895D01*
X8689650Y4138000D01*
X8689650Y5820750D02*
X8670600Y5815645D01*
X8656654Y5801700D01*
X8651550Y5782650D01*
X8656654Y5763600D01*
X8670600Y5749654D01*
X8689650Y5744550D01*
X8708700Y5749654D01*
X8722645Y5763600D01*
X8727750Y5782650D01*
X8722645Y5801700D01*
X8708700Y5815645D01*
X8689650Y5820750D01*
X1367450Y792650D02*
X1399200Y801157D01*
X1422442Y824400D01*
X1430950Y856150D01*
X1422442Y887900D01*
X1399200Y911142D01*
X1367450Y919650D01*
X6016900Y4094000D02*
X6015198Y4100350D01*
X6010550Y4104998D01*
X6004200Y4106700D01*
X5997850Y4104998D01*
X5993201Y4100350D01*
X5991500Y4094000D01*
X5993201Y4087650D01*
X5997850Y4083001D01*
X6004200Y4081300D01*
X6010550Y4083001D01*
X6015198Y4087650D01*
X6016900Y4094000D01*
X6015198Y4087650D01*
X6010550Y4083001D01*
X6004200Y4081300D01*
X5997850Y4083001D01*
X5993201Y4087650D01*
X5991500Y4094000D01*
X5993201Y4100350D01*
X5997850Y4104998D01*
X6004200Y4106700D01*
X6010550Y4104998D01*
X6015198Y4100350D01*
X6016900Y4094000D01*
M02*