G04 PCB Fabrication Data in Gerber – Example 1, created by Karel Tavernier, Filip Vermeire and Thomas Weyn*
G04 Ucamco copyright*
%TF.GenerationSoftware,Ucamco,UcamX,1.1.0-140320*%
%TF.CreationDate,2014-06-18T00:00;00+01:00*%
%FSLAX35Y35*%
%MOMM*%
%TF.FileFunction,Copper,L3,Inr,Plane*%
%TF.FilePolarity,Positive*%
%TF.Part,Single*%
%TF.SameCoordinates,f8d53b1f8c81977d8c3d0dffcc4c4bd6e6770c0f*%
%TA.AperFunction,Profile*%
%ADD10C,1.00000*%
%TA.AperFunction,AntiPad*%
%ADD11C,1.15000*%
%ADD12C,1.75000*%
%ADD13C,1.85000*%
%ADD14C,5.35000*%
%TA.AperFunction,ThermalReliefPad*%
%AMTHERS4*1,1-$6,$1,0,0*1,$6,$2,0,0*21,$6,$1,$3,0,0,$4+$5*21,$6,$3,$1,0,0,$4+$5*%
%ADD15THERS4,1.25000X0.85000X0.20000X0.00X0.00X0*%
%ADD16THERS4,1.85000X1.45000X0.20000X0.00X0.00X0*%
%ADD17THERS4,1.95000X1.55000X0.20000X0.00X0.00X0*%
%TA.AperFunction,Conductor*%
%ADD18C,0*%
G01*
G75*
%LPD*%
D18*
G36*
X11500000Y0D02*
G3X12000000Y500000I0J500000D01*
G1Y10500000D01*
X10500000Y12000000D01*
X500000D01*
G3X0Y11500000I0J-500000D01*
G1Y500000D01*
G3X500000Y0I500000J0D01*
G1X11500000D01*
G37*
%LPC*%
D10*
G1X10500000Y12000000D02*
X12000000Y10500000D01*
X12000000Y500000D02*
Y10500000D01*
X10500000Y12000000D02*
X500000D01*
G3X0Y11500000I0J-500000D01*
G1Y500000D01*
G3X500000Y0I500000J0D01*
G1X11500000D01*
G3X12000000Y500000I0J500000D01*
D11*
G1X7664999Y3689998D03*
X8359999Y1874998D03*
X9882998Y3650498D03*
X9034999Y1450000D03*
X9299997Y795000D03*
X9234998Y1299998D03*
X9764997D03*
X8964999Y2379998D03*
X9494998D03*
X7754998Y3515000D03*
X9882998Y3396498D03*
X7209999Y1934997D03*
X7484999Y3943497D03*
X7754998Y3294997D03*
X9885815Y3015498D03*
X7844999Y3429998D03*
X9882998Y3142498D03*
X7854998Y3599998D03*
X9882998Y3523498D03*
X5009998Y1044999D03*
X5674997Y3029999D03*
X7759738Y3883497D03*
X9882998Y3777498D03*
X5009998Y9569999D03*
X5694997Y3485000D03*
X4704999Y3779998D03*
Y4834999D03*
X3369999Y260000D03*
Y839999D03*
X4919998Y260000D03*
X5328499Y3353499D03*
X5284999Y3515000D03*
X6144999Y4004999D03*
X5410000Y919998D03*
X6529997Y2524999D03*
X2474999Y1889999D03*
X2539997Y4806137D03*
Y6885999D03*
Y8917998D03*
Y10949999D03*
X3104998Y2381819D03*
X3144998Y1889999D03*
X4499998Y6254999D03*
Y6761998D03*
X5410000Y1299998D03*
X5733248Y2796289D03*
X7094995Y4063500D03*
X7344994Y599999D03*
X7840896Y4263499D03*
X8626818Y4125308D03*
X7484999Y729998D03*
X7564999Y4134998D03*
X4974999Y6129998D03*
X5249997Y9809998D03*
X6535047Y2246559D03*
X6919999Y2964998D03*
X7844999Y3204997D03*
X9885815Y2888498D03*
X304998Y1490000D03*
Y3810998D03*
Y5842998D03*
Y7874998D03*
Y9909998D03*
X2897385Y9559999D03*
X3634999Y354998D03*
Y774997D03*
X5410000Y1174999D03*
X5618996Y5745998D03*
Y7269998D03*
X6264999Y2924998D03*
X7264997Y5579999D03*
X8857495Y5745998D03*
X8924499Y7269998D03*
X3964999Y6889999D03*
X4349999Y5975000D03*
X8584997Y5219997D03*
X9492496Y5618998D03*
X3239999Y3972499D03*
X3409999Y6499997D03*
X5089998Y6509997D03*
X5204999Y11334999D03*
X7644996Y6734998D03*
X7859997Y7139999D03*
X4584995Y6379997D03*
Y6954997D03*
X2852738Y8144259D03*
X3214997Y6379997D03*
X3304995Y6254999D03*
X3479998Y10009998D03*
X3784999Y6509997D03*
X4246210Y3227499D03*
X7646205Y3796218D03*
X8326138Y4664698D03*
X3990000Y360002D03*
Y2065000D03*
X4557698Y5145979D03*
X7629997Y2474999D03*
X7754998Y364998D03*
X10254998D03*
X10714058Y1789059D03*
X1432446Y3892499D03*
Y5924499D03*
Y7956497D03*
X1581569Y9920509D03*
X3683706Y1394048D03*
X4498549Y5490819D03*
X5685120Y9982337D03*
X6463498Y5242748D03*
X180000Y3650998D03*
Y5682999D03*
Y7714999D03*
Y9749999D03*
X1144999Y388480D03*
X2594998Y959998D03*
X4769998Y9234998D03*
X2534996Y2019998D03*
X2599998Y4974999D03*
Y6965998D03*
Y8997998D03*
Y9604997D03*
Y11029998D03*
X3404999Y2019998D03*
X3469998Y835000D03*
X1914997Y3893998D03*
Y5114747D03*
Y7143298D03*
Y9165308D03*
Y9604997D03*
X2090618Y10955007D03*
X3314995Y9754997D03*
X1849999Y3813998D03*
Y5845998D03*
Y7877998D03*
Y9909998D03*
X2914998Y2159998D03*
X2944998Y2739999D03*
X1789999Y3733998D03*
Y5765998D03*
Y7797998D03*
Y9829998D03*
X1724998Y3653999D03*
Y5685998D03*
Y7717999D03*
Y9749999D03*
X1664998Y3573999D03*
Y5605999D03*
Y7637999D03*
Y9669999D03*
X2876799Y7636498D03*
X2898048Y9834618D03*
X2975869Y3572498D03*
X2979870Y2375809D03*
X3204997Y1527419D03*
Y2379998D03*
X3694999Y3404999D03*
X3791738Y6126998D03*
X3041150Y1817728D03*
X3148668Y3086979D03*
X3624999Y3314997D03*
X3788418Y6253998D03*
X3973630Y6380998D03*
X5505788Y3595010D03*
X244998Y2359998D03*
Y3730999D03*
Y5762999D03*
Y7794999D03*
Y9829998D03*
X2514999Y889998D03*
X6290818Y5211358D03*
X6334999Y4749998D03*
X875000Y2724999D03*
Y3732499D03*
Y5448318D03*
Y5759100D03*
Y7796497D03*
Y9828497D03*
X1414999Y10931908D03*
X2444999Y815000D03*
X3859998Y11264999D03*
X935000Y2809999D03*
Y5015999D03*
Y7047997D03*
Y9079997D03*
X1480000Y11109998D03*
X2584998Y2754999D03*
X2594998Y1454999D03*
X3769998Y11324999D03*
X1005000Y2884998D03*
Y5090998D03*
Y7122998D03*
Y9154998D03*
X1550000Y11189998D03*
X2699997Y1530000D03*
Y2409997D03*
X3669995Y11389998D03*
X1069998Y2984998D03*
Y5170998D03*
Y7202998D03*
Y9234998D03*
X1620000Y11269998D03*
X2769999Y1604998D03*
X2804996Y2739999D03*
X3083088Y4458109D03*
X3569998Y11449998D03*
X2784995Y5541379D03*
Y7205998D03*
Y8849997D03*
Y9237998D03*
X2785277Y11596796D03*
X2854998Y1669999D03*
Y2404999D03*
X3164997Y4366588D03*
X2657658Y1737218D03*
X2719999Y5174998D03*
Y7129978D03*
Y8729998D03*
Y9157998D03*
Y11189998D03*
X3299998Y1635069D03*
X3354999Y2724999D03*
X2654999Y1949999D03*
X2659995Y5074998D03*
Y7045998D03*
Y9077998D03*
Y11109998D03*
X3404999Y2379998D03*
X3499998Y1949999D03*
X1239998Y969998D03*
X1974998Y4053998D03*
Y6085998D03*
Y8117998D03*
Y10149997D03*
X2609997Y244998D03*
X2834998Y1274998D03*
X7694999Y5144999D03*
X9428995Y5872998D03*
Y7396998D03*
Y8793998D03*
Y10317998D03*
Y11344999D03*
X1470000Y825000D03*
X2039998Y4133998D03*
Y6165998D03*
Y8197998D03*
Y10229997D03*
X2724999Y304998D03*
X2914998Y1209998D03*
X7634996Y4754999D03*
X9364998Y11429998D03*
X9365496Y5999998D03*
Y7523998D03*
Y8920998D03*
Y10444998D03*
X689998Y1409997D03*
Y4690999D03*
Y6722999D03*
Y8754999D03*
X845000Y10864998D03*
X1564998Y10704998D03*
X6063496Y6126998D03*
Y7650998D03*
Y9047998D03*
Y10571998D03*
X6919999Y4754999D03*
X629996Y1504999D03*
Y4610999D03*
Y6642999D03*
Y8674999D03*
X729998Y10854998D03*
X1630000Y10624998D03*
X5999995Y6253998D03*
Y7777998D03*
Y9174998D03*
Y10698998D03*
X6854995Y5144999D03*
X569999Y1600000D03*
Y4205999D03*
Y6237999D03*
Y8269999D03*
Y10249997D03*
X1689996Y10389997D03*
X5936495Y6380998D03*
Y7904998D03*
Y9301998D03*
Y10825998D03*
X6789999Y4754999D03*
X509999Y1694998D03*
Y4125999D03*
Y6157999D03*
Y8189999D03*
Y10169998D03*
X1749999Y10309997D03*
X5872996Y6507998D03*
Y8031998D03*
Y9428998D03*
Y10952998D03*
X6724998Y5144999D03*
X444998Y1794998D03*
Y4040998D03*
Y6072998D03*
Y8104998D03*
Y10089998D03*
X1814997Y10229997D03*
X5809496Y6634998D03*
Y8158998D03*
Y9555998D03*
Y11079998D03*
X6659997Y4754999D03*
X369999Y1884997D03*
Y3965999D03*
Y5997999D03*
Y8029997D03*
Y10004999D03*
X1814396Y10129997D03*
X5745996Y6761998D03*
Y8285998D03*
Y9682998D03*
Y11206998D03*
X6594995Y5144999D03*
X1570000Y1024999D03*
X2105000Y4213997D03*
Y6245997D03*
Y8277997D03*
Y10309997D03*
X2850000Y334998D03*
X2984998Y1134999D03*
X7569998Y5144999D03*
X9301996Y6126998D03*
Y7650998D03*
Y9047998D03*
Y10571998D03*
Y11509998D03*
X1669996Y825000D03*
X2169996Y4294000D03*
Y6325997D03*
Y8357997D03*
Y10389997D03*
X2979999Y364998D03*
X3059999Y1064999D03*
X3079999Y11354999D03*
X7504999Y4754999D03*
X9238495Y6253998D03*
Y7777998D03*
Y9174998D03*
Y10698998D03*
Y11824998D03*
X1819999Y1024999D03*
X2014995Y4533999D03*
Y6565999D03*
Y8597999D03*
Y10629999D03*
X3104998Y394998D03*
X3134997Y995000D03*
X7439998Y5144999D03*
X9174996Y6380998D03*
Y7904998D03*
Y9301998D03*
Y10825998D03*
Y11574999D03*
X1919996Y825000D03*
X2074997Y4613999D03*
Y6645999D03*
Y8677999D03*
Y10709999D03*
X3204997Y919998D03*
X3254997Y11024997D03*
X3269998Y384998D03*
X7374994Y4754999D03*
X9111496Y6507998D03*
Y8031998D03*
Y9428998D03*
Y10952998D03*
Y11664999D03*
X2019998Y1024999D03*
X2135000Y4693999D03*
Y6725999D03*
Y8757999D03*
Y10789999D03*
X3269998Y485000D03*
Y839999D03*
X3354999Y11084997D03*
X7309998Y5144999D03*
X9047996Y6634998D03*
Y8158998D03*
Y9555998D03*
Y11079998D03*
Y11754998D03*
X2119998Y825000D03*
X2205000Y4773999D03*
Y6805999D03*
Y8837998D03*
Y10869999D03*
X3454999Y11144997D03*
X7244997Y4754999D03*
X8984496Y6761998D03*
Y8285998D03*
Y9682998D03*
Y11206998D03*
Y11834998D03*
X815000Y1204999D03*
Y4850998D03*
Y6882999D03*
Y8914999D03*
X1079998Y10869999D03*
X1679997Y11009999D03*
X6190496Y5872998D03*
Y7396998D03*
Y8793998D03*
Y10317998D03*
X7079998Y5144999D03*
X749999Y4770999D03*
Y6802999D03*
Y8834999D03*
X754995Y1309997D03*
X969998Y10864998D03*
X1679997Y10909999D03*
X6126996Y5999998D03*
Y7523998D03*
Y8920998D03*
Y10444998D03*
X7049999Y4754999D03*
X769998Y4298999D03*
Y6330999D03*
Y8362998D03*
Y10394999D03*
X1269998Y509999D03*
X1439997Y2889999D03*
X2219998Y509999D03*
X2836997Y2889999D03*
X2850000Y4528998D03*
Y6560998D03*
Y8592998D03*
Y10624998D03*
X3054995Y825000D03*
X3314995Y4644999D03*
X3444999Y5489999D03*
Y5809999D03*
Y6634998D03*
X3449996Y7334997D03*
X3784999Y7014998D03*
X3904999Y1729999D03*
X4050000Y2314999D03*
X4589999Y5809999D03*
X4864997Y5654997D03*
X4924999Y6889999D03*
X5069998Y1554998D03*
X5174496Y5987298D03*
Y7511298D03*
Y9035298D03*
Y10559298D03*
X5404998Y4019999D03*
X5593595Y2579899D03*
X5709996Y3224998D03*
Y4589999D03*
X6049998Y855000D03*
X6219995Y729998D03*
X6399997Y2529998D03*
X6529997Y4744999D03*
X6622296Y6761998D03*
Y8285998D03*
Y9809998D03*
Y11333998D03*
X6749994Y1364999D03*
X7062999Y8793998D03*
Y10317998D03*
X7194997Y2225000D03*
Y5454998D03*
X7209999Y2065000D03*
X7699997Y2954998D03*
X7764999Y4754999D03*
X7929997Y4329999D03*
X7968495Y10190998D03*
X7981196Y7142998D03*
Y8666998D03*
X8073898Y5618998D03*
X8329998Y3354999D03*
X8589998Y1684998D03*
Y2065000D03*
X8624994Y3659998D03*
X8964999Y1044999D03*
X9860795Y6761998D03*
Y8285998D03*
Y9809998D03*
Y11333998D03*
X10104999Y1044999D03*
Y2125000D03*
X10334999Y10954997D03*
X10394999Y11269998D03*
X10759999Y1059998D03*
X5320000Y154999D03*
X6253996Y8666998D03*
Y10190998D03*
X6464999Y2419998D03*
X7464999Y9924997D03*
X7879595Y10190998D03*
X9492496Y8666998D03*
Y10190998D03*
X1525377Y3972499D03*
Y6004499D03*
Y8036499D03*
X1705219Y10013699D03*
X1730939Y3493498D03*
X4234998Y2639997D03*
X4429999Y1679999D03*
X4635000Y324998D03*
X8319999Y4394998D03*
X9474997Y4160000D03*
X5872996Y2579899D03*
X6098497Y3158497D03*
X6712189Y3765629D03*
X5999229Y2607740D03*
X6024575Y2033278D03*
X6593497Y2950269D03*
X5234999Y225001D03*
X5284999Y2634998D03*
X5410000Y2189998D03*
X7929997Y4459999D03*
X9474997Y4284998D03*
X4234998Y2889999D03*
X4529999Y1809999D03*
X4735000Y465001D03*
X10174996D03*
X2851839Y5771517D03*
D12*
X4602996Y7841498D03*
Y8095498D03*
Y8349498D03*
Y8603498D03*
Y8857498D03*
Y9111498D03*
Y9365498D03*
Y9619498D03*
Y9873498D03*
Y10127498D03*
Y10381498D03*
Y10635498D03*
Y10889498D03*
Y11143498D03*
X3078995D03*
Y10889498D03*
Y10635498D03*
Y10381498D03*
Y10127498D03*
Y9873498D03*
Y9619498D03*
Y9365498D03*
Y9111498D03*
Y8857498D03*
Y8603498D03*
Y8349498D03*
Y8095498D03*
D13*
X11237999Y2316998D03*
Y2570998D03*
Y2824998D03*
Y3078998D03*
Y3586998D03*
Y3840998D03*
Y4094998D03*
Y4348998D03*
Y4856998D03*
Y5110998D03*
Y5364998D03*
Y5618998D03*
Y5872998D03*
Y6126998D03*
Y6380998D03*
Y6634998D03*
Y6888998D03*
Y7142998D03*
Y7650998D03*
Y7904998D03*
Y8158998D03*
Y8412998D03*
Y8920998D03*
Y9174998D03*
Y9428998D03*
Y9682998D03*
X10983999Y2062998D03*
Y2316998D03*
Y2570998D03*
Y2824998D03*
Y3078998D03*
Y3332998D03*
Y3586998D03*
Y3840998D03*
Y4094998D03*
Y4348998D03*
Y4602998D03*
Y4856998D03*
Y5110998D03*
Y5364998D03*
Y5618998D03*
Y5872998D03*
Y6126998D03*
Y6380998D03*
Y6634998D03*
Y6888998D03*
Y7142998D03*
Y7396998D03*
Y7650998D03*
Y7904998D03*
Y8158998D03*
Y8412998D03*
Y8666998D03*
Y8920998D03*
Y9174998D03*
Y9428998D03*
Y9682998D03*
Y9936998D03*
X10729999Y2062998D03*
Y2316998D03*
Y2570998D03*
Y2824998D03*
Y3078998D03*
Y3332998D03*
Y3586998D03*
Y3840998D03*
Y4094998D03*
Y4348998D03*
Y4602998D03*
Y4856998D03*
Y5110998D03*
Y5364998D03*
Y5618998D03*
Y5872998D03*
Y6126998D03*
Y6380998D03*
Y6634998D03*
Y6888998D03*
Y7142998D03*
Y7396998D03*
Y7650998D03*
Y7904998D03*
Y8158998D03*
Y8412998D03*
Y8666998D03*
Y8920998D03*
Y9174998D03*
Y9428998D03*
Y9682998D03*
Y9936998D03*
D14*
X11499998Y499999D03*
X499999Y11499998D03*
Y499999D03*
D15*
X769998Y4528998D03*
Y6560998D03*
Y8592998D03*
Y10624998D03*
X1769999Y509999D03*
X1923996Y2887000D03*
X2850000Y4298999D03*
Y6330999D03*
Y8362998D03*
Y10394999D03*
X2964998Y7334997D03*
X3089999Y4644999D03*
X3320996Y2887000D03*
X3395460Y5367168D03*
X3439996Y6759997D03*
X3909998Y1259998D03*
X4024998Y6509997D03*
Y6759997D03*
X4050000Y1934997D03*
X4110000Y5809999D03*
X4124998Y4694999D03*
X4364998Y6379997D03*
Y6889999D03*
X4765000Y2639997D03*
Y2889999D03*
X4809998Y3139999D03*
Y3394999D03*
Y3649998D03*
Y3904999D03*
X5069998Y2065000D03*
X5174496Y5504698D03*
Y7028698D03*
Y8552698D03*
Y10076698D03*
X5404998Y3789998D03*
X5872996Y2104898D03*
X6152396D03*
X6269997Y1049998D03*
Y1364999D03*
X6964998Y2225000D03*
Y5450000D03*
X7067388Y7269998D03*
X7068289Y5745998D03*
X7254997Y1044999D03*
X7374994Y2954998D03*
X7599997Y1049998D03*
X7894995Y2954998D03*
X8324997Y2964998D03*
X8589998Y1044999D03*
X8624994Y3889998D03*
X8832497Y10190998D03*
X8833655Y8666998D03*
X8836096Y7139999D03*
X8847618Y5618998D03*
X8847998Y2888498D03*
Y4158498D03*
X10874998Y11269998D03*
X10934995Y10954997D03*
X2964998Y5809999D03*
D16*
X3078995Y7841498D03*
D17*
X11237999Y2062998D03*
Y3332998D03*
Y4602998D03*
Y7396998D03*
Y8666998D03*
Y9936998D03*
M02*