G04 PCB Fabrication Data in Gerber – Example 1, created by Karel Tavernier, Filip Vermeire and Thomas Weyn*
G04 Ucamco copyright*
%TF.GenerationSoftware,Ucamco,UcamX,1.1.0-140320*%
%TF.CreationDate,2014-06-18T00:00;00+01:00*%
%FSLAX35Y35*%
%MOMM*%
%TF.FileFunction,Legend,Top*%
%TF.FilePolarity,Positive*%
%TF.Part,Single*%
%TF.SameCoordinates,f8d53b1f8c81977d8c3d0dffcc4c4bd6e6770c0f*%
%ADD10C,0.20000*%
G01*
G75*
%LPD*%
D10*
X3404499Y4475498D02*
X4404497D01*
X4602498Y4277497D01*
Y3277499D01*
X4404497Y3079499D01*
X3404499D01*
X3206499Y3277499D01*
Y4277497D01*
X3404499Y4475498D01*
X4554500Y3777498D02*
G2X3904498Y3127496I-650002J0D01*
G2X4554500Y3777498I0J650002D01*
G1X3804499Y3277499D02*
X4004498D01*
X4004498Y3777498D02*
G2X3904498Y3677498I-100000J0D01*
G2X4004498Y3777498I0J100000D01*
G1X3804499Y4277497D02*
X4004498D01*
X3904498Y4377500D02*
Y4177498D01*
X9865497Y1626499D02*
X8865499D01*
X9365498Y2251499D02*
G2X9490499Y2126498I0J-125001D01*
G2X9365498Y2251499I-125001J0D01*
G1X9865497Y2626497D02*
X8865499D01*
X9865497Y546999D02*
X8865499D01*
X9365498Y1171999D02*
G2X9490499Y1046998I0J-125001D01*
G2X9365498Y1171999I-125001J0D01*
G1X9865497Y1546997D02*
X8865499D01*
X6015998Y4840999D02*
X7915999D01*
X8015999Y4740999D01*
Y2840998D01*
X6015998D01*
Y4840999D01*
X9684997Y5538999D02*
G2X9709996Y5514000I0J-24999D01*
G2X9684997Y5538999I-24999J0D01*
G1X9274998Y5540500D02*
Y5590500D01*
X9074999D01*
Y5540500D01*
X8814999D01*
Y6840497D01*
X9534998D01*
Y5540500D01*
X9274998D01*
X6446497Y5538999D02*
G2X6471496Y5514000I0J-24999D01*
G2X6446497Y5538999I-24999J0D01*
G1X6036498Y5540500D02*
Y5590500D01*
X5836499D01*
Y5540500D01*
X5576499D01*
Y6840497D01*
X6296498D01*
Y5540500D01*
X6036498D01*
X9684997Y7062999D02*
G2X9709999Y7037997I0J-25002D01*
G2X9684997Y7062999I-25002J0D01*
G1X9274998Y7064497D02*
Y7114497D01*
X9074999D01*
Y7064497D01*
X8814999D01*
Y8364497D01*
X9534998D01*
Y7064497D01*
X9274998D01*
X6446497Y7062999D02*
G2X6471499Y7037997I0J-25002D01*
G2X6446497Y7062999I-25002J0D01*
G1X6036498Y7064497D02*
Y7114497D01*
X5836499D01*
Y7064497D01*
X5576499D01*
Y8364497D01*
X6296498D01*
Y7064497D01*
X6036498D01*
X9684997Y8586999D02*
G2X9709999Y8561997I0J-25002D01*
G2X9684997Y8586999I-25002J0D01*
G1X9274998Y8588497D02*
Y8638497D01*
X9074999D01*
Y8588497D01*
X8814999D01*
Y9888497D01*
X9534998D01*
Y8588497D01*
X9274998D01*
X6446497Y8586999D02*
G2X6471499Y8561997I0J-25002D01*
G2X6446497Y8586999I-25002J0D01*
G1X6036498Y8588497D02*
Y8638497D01*
X5836499D01*
Y8588497D01*
X5576499D01*
Y9888497D01*
X6296498D01*
Y8588497D01*
X6036498D01*
X9684997Y10110999D02*
G2X9709999Y10085997I0J-25002D01*
G2X9684997Y10110999I-25002J0D01*
G1X9274998Y10112497D02*
Y10162497D01*
X9074999D01*
Y10112497D01*
X8814999D01*
Y11412497D01*
X9534998D01*
Y10112497D01*
X9274998D01*
X6446497Y10110999D02*
G2X6471499Y10085997I0J-25002D01*
G2X6446497Y10110999I-25002J0D01*
G1X6036498Y10112497D02*
Y10162497D01*
X5836499D01*
Y10112497D01*
X5576499D01*
Y11412497D01*
X6296498D01*
Y10112497D01*
X6036498D01*
X4725998Y6056999D02*
G2X4755998Y6026999I0J-30000D01*
G2X4725998Y6056999I-30000J0D01*
G1X4525998Y6127999D02*
Y6077999D01*
X4605998D01*
Y6937998D01*
X4345999D01*
Y6077999D01*
X4425999D01*
Y6127999D01*
X4525998D01*
X3612998Y5036000D02*
G2X3642998Y5006000I0J-30000D01*
G2X3612998Y5036000I-30000J0D01*
G1X3382998Y5051499D02*
Y5101499D01*
X3282999D01*
Y5051499D01*
X3202999D01*
Y5551498D01*
X3462998D01*
Y5051499D01*
X3382998D01*
X3612998Y6051997D02*
G2X3642998Y6021997I0J-30000D01*
G2X3612998Y6051997I-30000J0D01*
G1X3382998Y6121499D02*
X3282999D01*
Y6071499D01*
X3202999D01*
Y7071497D01*
X3462998D01*
Y6071499D01*
X3382998D01*
Y6121499D01*
X7041998Y1607000D02*
G2X7071998Y1577000I0J-30000D01*
G2X7041998Y1607000I-30000J0D01*
G1X6811998Y1622499D02*
Y1672499D01*
X6711999D01*
Y1622499D01*
X6631999D01*
Y2122498D01*
X6891998D01*
Y1622499D01*
X6811998D01*
X2395500Y2588499D02*
G2X2425500Y2618499I30000J0D01*
G2X2395500Y2588499I0J-30000D01*
G1X2355500Y788498D02*
X1135500D01*
Y2448499D01*
X2355500D01*
Y1668498D01*
X2305500D01*
Y1568499D01*
X2355500D01*
Y788498D01*
X2371499Y9590997D02*
G2X2396498Y9565998I0J-24999D01*
G2X2371499Y9590997I-24999J0D01*
G1X1443998Y9583499D02*
Y11433498D01*
X2173999D01*
Y9583499D01*
X1858998D01*
Y9633499D01*
X1758999D01*
Y9583499D01*
X1443998D01*
X2371499Y7558997D02*
G2X2396498Y7533998I0J-24999D01*
G2X2371499Y7558997I-24999J0D01*
G1X1443998Y7551499D02*
Y9401498D01*
X2173999D01*
Y7551499D01*
X1858998D01*
Y7601499D01*
X1758999D01*
Y7551499D01*
X1443998D01*
X2371499Y5527000D02*
G2X2396501Y5501998I0J-25002D01*
G2X2371499Y5527000I-25002J0D01*
G1X1443998Y5519499D02*
Y7369498D01*
X2173999D01*
Y5519499D01*
X1858998D01*
Y5569499D01*
X1758999D01*
Y5519499D01*
X1443998D01*
X2371499Y3495000D02*
G2X2396501Y3469998I0J-25002D01*
G2X2371499Y3495000I-25002J0D01*
G1X1443998Y3487499D02*
Y5337498D01*
X2173999D01*
Y3487499D01*
X1858998D01*
Y3537499D01*
X1758999D01*
Y3487499D01*
X1443998D01*
X3629000Y2588499D02*
G2X3659000Y2618499I30000J0D01*
G2X3629000Y2588499I0J-30000D01*
G1X3583999Y1668498D02*
X3533999D01*
Y1568499D01*
X3583999D01*
Y788498D01*
X2573998D01*
Y2448499D01*
X3583999D01*
Y1668498D01*
X4475998Y11492497D02*
Y7492497D01*
X3940998D01*
G3X3740999Y7492497I-100000J0D01*
G1X3205998D01*
Y11492497D01*
X4475998D01*
X4602998Y7731499D02*
G2X4652998Y7681499I0J-50000D01*
G2X4602998Y7731499I-50000J0D01*
G1X5240000Y585999D02*
G2X5264999Y561000I0J-24999D01*
G2X5240000Y585999I-24999J0D01*
G1X4629999Y581498D02*
X4369999D01*
Y2401499D01*
X5089998D01*
Y581498D01*
X4829998D01*
Y681497D01*
X4629999D01*
Y581498D01*
X7917498Y5660499D02*
G2X7947497Y5630500I0J-29999D01*
G2X7917498Y5660499I-29999J0D01*
G1X7537499Y5630500D02*
X7457499D01*
Y6750497D01*
X7717498D01*
Y5630500D01*
X7637498D01*
Y5680499D01*
X7537499D01*
Y5630500D01*
X9695498Y2802999D02*
G2X9725497Y2773000I0J-29999D01*
G2X9695498Y2802999I-29999J0D01*
G1X9315499Y2773000D02*
X9235499D01*
Y3893000D01*
X9495498D01*
Y2773000D01*
X9415498D01*
Y2822999D01*
X9315499D01*
Y2773000D01*
X7917498Y7184497D02*
G2X7947498Y7154497I0J-30000D01*
G2X7917498Y7184497I-30000J0D01*
G1X7537499Y7154497D02*
X7457499D01*
Y8274497D01*
X7717498D01*
Y7154497D01*
X7637498D01*
Y7204497D01*
X7537499D01*
Y7154497D01*
X9695498Y4072999D02*
G2X9725497Y4043000I0J-29999D01*
G2X9695498Y4072999I-29999J0D01*
G1X9315499Y4043000D02*
X9235499D01*
Y5163000D01*
X9495498D01*
Y4043000D01*
X9415498D01*
Y4092999D01*
X9315499D01*
Y4043000D01*
X7917498Y8708497D02*
G2X7947498Y8678497I0J-30000D01*
G2X7917498Y8708497I-30000J0D01*
G1X7537499Y8678497D02*
X7457499D01*
Y9798497D01*
X7717498D01*
Y8678497D01*
X7637498D01*
Y8728497D01*
X7537499D01*
Y8678497D01*
X7917498Y10232497D02*
G2X7947498Y10202497I0J-30000D01*
G2X7917498Y10232497I-30000J0D01*
G1X7537499Y10202497D02*
X7457499D01*
Y11322497D01*
X7717498D01*
Y10202497D01*
X7637498D01*
Y10252497D01*
X7537499D01*
Y10202497D01*
X4112499Y5001499D02*
Y5601498D01*
X4712498D01*
Y5001499D01*
X4112499D01*
X4587499Y5301498D02*
G2X4412498Y5126497I-175001J0D01*
G2X4587499Y5301498I0J175001D01*
G1X10868498Y859999D02*
Y559999D01*
X10148499D01*
Y859999D01*
X10508498Y559999D02*
Y459999D01*
X10358499D01*
Y559999D01*
X10508498D01*
X7964498Y2359000D02*
X7464499D01*
X7964498Y1259000D02*
X7464499D01*
X6059498Y2105000D02*
X5559499D01*
X6059498Y1005000D02*
X5559499D01*
X10148500Y860000D02*
X10868500D01*
X9865500Y2626500D02*
Y1626500D01*
X8865500Y2626500D02*
Y1626500D01*
X8865500Y1547000D02*
Y547000D01*
X9865500Y1547000D02*
Y547000D01*
X5559500Y2105000D02*
Y1005000D01*
X6059500Y2105000D02*
Y1005000D01*
X7464500Y2359000D02*
Y1259000D01*
X7964500Y2359000D02*
Y1259000D01*
X3142498Y3577971D02*
X3009479D01*
Y3660046D01*
X3026461Y3677026D01*
X3060423D01*
X3075989Y3660046D01*
X3092971Y3677026D01*
X3126933D01*
X3142498Y3660046D01*
Y3577971D01*
X3075989Y3577971D02*
Y3660046D01*
X3009479Y3710989D02*
Y3810046D01*
X3142498Y3710989D01*
Y3810046D01*
X3142498Y3844008D02*
Y3943066D01*
X3142498Y3893536D02*
X3009479D01*
X3043441Y3859573D01*
X8210926Y5317064D02*
X8193946Y5301498D01*
X8127436D01*
X8111871Y5317064D01*
Y5417536D01*
X8127436Y5434518D01*
X8193946D01*
X8210926Y5417536D01*
X8244889Y5301498D02*
X8343946D01*
X8294416Y5301498D02*
Y5434518D01*
X8260454Y5400556D01*
X8377908Y5317064D02*
Y5417536D01*
X8393473Y5434518D01*
X8459983D01*
X8476963Y5417536D01*
Y5317064D01*
X8459983Y5301498D01*
X8393473D01*
X8377908Y5317064D01*
X8377908Y5301498D02*
X8476963Y5434518D01*
X5222433Y5201026D02*
X5237998Y5184046D01*
Y5117536D01*
X5222433Y5101971D01*
X5121961D01*
X5104979Y5117536D01*
Y5184046D01*
X5121961Y5201026D01*
X5237998Y5234989D02*
Y5334046D01*
X5237998Y5284519D02*
X5104979D01*
X5138941Y5250556D01*
X5237998Y5368008D02*
Y5467066D01*
X5237998Y5417536D02*
X5104979D01*
X5138941Y5383573D01*
X8210926Y6841064D02*
X8193946Y6825498D01*
X8127436D01*
X8111871Y6841064D01*
Y6941536D01*
X8127436Y6958518D01*
X8193946D01*
X8210926Y6941536D01*
X8244889Y6825498D02*
X8343946D01*
X8294416Y6825498D02*
Y6958518D01*
X8260454Y6924556D01*
X8377908Y6941536D02*
X8393473Y6958518D01*
X8459983D01*
X8476963Y6941536D01*
Y6907573D01*
X8459983Y6892008D01*
X8377908Y6841064D01*
Y6825498D01*
X8476963D01*
X5222433Y6725026D02*
X5237998Y6708046D01*
Y6641536D01*
X5222433Y6625971D01*
X5121961D01*
X5104979Y6641536D01*
Y6708046D01*
X5121961Y6725026D01*
X5237998Y6758989D02*
Y6858046D01*
X5237998Y6808516D02*
X5104979D01*
X5138941Y6774554D01*
X5121961Y6892008D02*
X5104979Y6907573D01*
Y6974083D01*
X5121961Y6991063D01*
X5155923D01*
X5171489Y6958518D01*
X5188471Y6991063D01*
X5222433D01*
X5237998Y6974083D01*
Y6907573D01*
X5222433Y6892008D01*
X5171489Y6924556D02*
Y6958518D01*
X8210926Y8365064D02*
X8193946Y8349498D01*
X8127436D01*
X8111871Y8365064D01*
Y8465536D01*
X8127436Y8482518D01*
X8193946D01*
X8210926Y8465536D01*
X8244889Y8349498D02*
X8343946D01*
X8294416Y8349498D02*
Y8482518D01*
X8260454Y8448556D01*
X8377908Y8482518D02*
Y8416008D01*
X8476963D01*
X8459983Y8482518D02*
Y8349498D01*
X5222433Y8249026D02*
X5237998Y8232046D01*
Y8165536D01*
X5222433Y8149971D01*
X5121961D01*
X5104979Y8165536D01*
Y8232046D01*
X5121961Y8249026D01*
X5237998Y8282989D02*
Y8382046D01*
X5237998Y8332516D02*
X5104979D01*
X5138941Y8298554D01*
X5222433Y8416008D02*
X5237998Y8431573D01*
Y8498083D01*
X5222433Y8515063D01*
X5171489D01*
X5155923Y8498083D01*
Y8416008D01*
X5104979D01*
Y8515063D01*
X8210926Y9889064D02*
X8193946Y9873498D01*
X8127436D01*
X8111871Y9889064D01*
Y9989536D01*
X8127436Y10006518D01*
X8193946D01*
X8210926Y9989536D01*
X8244889Y9873498D02*
X8343946D01*
X8294416Y9873498D02*
Y10006518D01*
X8260454Y9972556D01*
X8476963Y9989536D02*
X8459983Y10006518D01*
X8393473D01*
X8377908Y9989536D01*
Y9889064D01*
X8393473Y9873498D01*
X8459983D01*
X8476963Y9889064D01*
Y9923026D01*
X8459983Y9940008D01*
X8393473D01*
X8377908Y9923026D01*
X5222433Y9773026D02*
X5237998Y9756046D01*
Y9689536D01*
X5222433Y9673971D01*
X5121961D01*
X5104979Y9689536D01*
Y9756046D01*
X5121961Y9773026D01*
X5237998Y9806989D02*
Y9906046D01*
X5237998Y9856516D02*
X5104979D01*
X5138941Y9822554D01*
X5121961Y9940008D02*
X5104979D01*
Y10039063D01*
X5138941D01*
X5237998Y9972556D01*
X4693026Y5761564D02*
X4676046Y5745998D01*
X4609536D01*
X4593971Y5761564D01*
Y5862036D01*
X4609536Y5879018D01*
X4676046D01*
X4693026Y5862036D01*
X4726989Y5745998D02*
X4826046D01*
X4776519Y5745998D02*
Y5879018D01*
X4742556Y5845056D01*
X4875573Y5812508D02*
X4860008Y5795526D01*
Y5761564D01*
X4875573Y5745998D01*
X4942083D01*
X4959066Y5761564D01*
Y5795526D01*
X4942083Y5812508D01*
X4875573D01*
X4860008Y5828073D01*
Y5862036D01*
X4875573Y5879018D01*
X4942083D01*
X4959066Y5862036D01*
Y5828073D01*
X4942083Y5812508D01*
X2724526Y4745564D02*
X2707546Y4729998D01*
X2641036D01*
X2625471Y4745564D01*
Y4846036D01*
X2641036Y4863018D01*
X2707546D01*
X2724526Y4846036D01*
X2758489Y4729998D02*
X2857546D01*
X2808019Y4729998D02*
Y4863018D01*
X2774056Y4829056D01*
X2891508Y4745564D02*
X2907073Y4729998D01*
X2973583D01*
X2990566Y4745564D01*
Y4846036D01*
X2973583Y4863018D01*
X2907073D01*
X2891508Y4846036D01*
Y4812073D01*
X2907073Y4796508D01*
X2973583D01*
X2990566Y4812073D01*
X6598026Y2396064D02*
X6581046Y2380498D01*
X6514536D01*
X6498971Y2396064D01*
Y2496536D01*
X6514536Y2513518D01*
X6581046D01*
X6598026Y2496536D01*
X6631989Y2380498D02*
X6731046D01*
X6681516Y2380498D02*
Y2513518D01*
X6647554Y2479556D01*
X6765008Y2380498D02*
X6780573Y2430026D01*
X6814536Y2513518D01*
X6847083Y2430026D01*
X6864063Y2380498D01*
X6847083Y2430026D02*
X6780573D01*
X8524433Y3232526D02*
X8539998Y3215546D01*
Y3149036D01*
X8524433Y3133471D01*
X8423961D01*
X8406979Y3149036D01*
Y3215546D01*
X8423961Y3232526D01*
X8539998Y3266489D02*
Y3365546D01*
X8539998Y3316019D02*
X8406979D01*
X8440941Y3282056D01*
X8539998Y3399508D02*
X8406979D01*
Y3481583D01*
X8423961Y3498566D01*
X8457923D01*
X8473489Y3481583D01*
X8490471Y3498566D01*
X8524433D01*
X8539998Y3481583D01*
Y3399508D01*
X8473489Y3399508D02*
Y3481583D01*
X6534526Y5253564D02*
X6517546Y5237998D01*
X6451036D01*
X6435471Y5253564D01*
Y5354036D01*
X6451036Y5371018D01*
X6517546D01*
X6534526Y5354036D01*
X6568489Y5237998D02*
X6667546D01*
X6618016Y5237998D02*
Y5371018D01*
X6584054Y5337056D01*
X6800563Y5253564D02*
X6783583Y5237998D01*
X6717073D01*
X6701508Y5253564D01*
Y5354036D01*
X6717073Y5371018D01*
X6783583D01*
X6800563Y5354036D01*
X5603433Y4248526D02*
X5618998Y4231546D01*
Y4165036D01*
X5603433Y4149471D01*
X5502961D01*
X5485979Y4165036D01*
Y4231546D01*
X5502961Y4248526D01*
X5618998Y4282489D02*
Y4381546D01*
X5618998Y4332019D02*
X5485979D01*
X5519941Y4298056D01*
X5618998Y4415508D02*
X5485979D01*
Y4482018D01*
X5502961Y4497583D01*
X5536923Y4514566D01*
X5569471D01*
X5603433Y4497583D01*
X5618998Y4482018D01*
Y4415508D01*
X3553036Y5761564D02*
X3536056Y5745998D01*
X3469546D01*
X3453979Y5761564D01*
Y5862036D01*
X3469546Y5879018D01*
X3536056D01*
X3553036Y5862036D01*
X3586998Y5862036D02*
X3602564Y5879018D01*
X3669073D01*
X3686056Y5862036D01*
Y5828073D01*
X3669073Y5812508D01*
X3586998Y5761564D01*
Y5745998D01*
X3686056D01*
X1137026Y2840564D02*
X1120046Y2824998D01*
X1053536D01*
X1037971Y2840564D01*
Y2941036D01*
X1053536Y2958018D01*
X1120046D01*
X1137026Y2941036D01*
X1170989Y2941036D02*
X1186556Y2958018D01*
X1253064D01*
X1270046Y2941036D01*
Y2907073D01*
X1253064Y2891508D01*
X1170989Y2840564D01*
Y2824998D01*
X1270046D01*
X1304008Y2824998D02*
X1403066D01*
X1353536Y2824998D02*
Y2958018D01*
X1319573Y2924056D01*
X5582026Y592664D02*
X5565046Y577098D01*
X5498536D01*
X5482971Y592664D01*
Y693136D01*
X5498536Y710118D01*
X5565046D01*
X5582026Y693136D01*
X5615989Y693136D02*
X5631556Y710118D01*
X5698064D01*
X5715046Y693136D01*
Y659173D01*
X5698064Y643608D01*
X5615989Y592664D01*
Y577098D01*
X5715046D01*
X5749008Y693136D02*
X5764573Y710118D01*
X5831083D01*
X5848066Y693136D01*
Y659173D01*
X5831083Y643608D01*
X5749008Y592664D01*
Y577098D01*
X5848066D01*
X5505826Y2573864D02*
X5488846Y2558298D01*
X5422336D01*
X5406771Y2573864D01*
Y2674336D01*
X5422336Y2691318D01*
X5488846D01*
X5505826Y2674336D01*
X5539789Y2674336D02*
X5555356Y2691318D01*
X5621864D01*
X5638846Y2674336D01*
Y2640373D01*
X5621864Y2624808D01*
X5539789Y2573864D01*
Y2558298D01*
X5638846D01*
X5672808Y2674336D02*
X5688373Y2691318D01*
X5754883D01*
X5771866Y2674336D01*
Y2640373D01*
X5739318Y2624808D01*
X5771866Y2607826D01*
Y2573864D01*
X5754883Y2558298D01*
X5688373D01*
X5672808Y2573864D01*
X5705356Y2624808D02*
X5739318D01*
X8249026Y2205564D02*
X8232046Y2189998D01*
X8165536D01*
X8149971Y2205564D01*
Y2306036D01*
X8165536Y2323018D01*
X8232046D01*
X8249026Y2306036D01*
X8282989Y2306036D02*
X8298554Y2323018D01*
X8365064D01*
X8382046Y2306036D01*
Y2272073D01*
X8365064Y2256508D01*
X8282989Y2205564D01*
Y2189998D01*
X8382046D01*
X8416008Y2323018D02*
Y2256508D01*
X8515063D01*
X8498083Y2323018D02*
Y2189998D01*
X8249026Y1824564D02*
X8232046Y1808998D01*
X8165536D01*
X8149971Y1824564D01*
Y1925036D01*
X8165536Y1942018D01*
X8232046D01*
X8249026Y1925036D01*
X8282989Y1925036D02*
X8298554Y1942018D01*
X8365064D01*
X8382046Y1925036D01*
Y1891073D01*
X8365064Y1875508D01*
X8282989Y1824564D01*
Y1808998D01*
X8382046D01*
X8416008Y1824564D02*
X8431573Y1808998D01*
X8498083D01*
X8515063Y1824564D01*
Y1875508D01*
X8498083Y1891073D01*
X8416008D01*
Y1942018D01*
X8515063D01*
X10535026Y11476564D02*
X10518046Y11460998D01*
X10451536D01*
X10435971Y11476564D01*
Y11577036D01*
X10451536Y11594018D01*
X10518046D01*
X10535026Y11577036D01*
X10568989Y11577036D02*
X10584554Y11594018D01*
X10651064D01*
X10668046Y11577036D01*
Y11543073D01*
X10651064Y11527508D01*
X10568989Y11476564D01*
Y11460998D01*
X10668046D01*
X10801063Y11577036D02*
X10784083Y11594018D01*
X10717573D01*
X10702008Y11577036D01*
Y11476564D01*
X10717573Y11460998D01*
X10784083D01*
X10801063Y11476564D01*
Y11510526D01*
X10784083Y11527508D01*
X10717573D01*
X10702008Y11510526D01*
X10027026Y10905064D02*
X10010046Y10889498D01*
X9943536D01*
X9927971Y10905064D01*
Y11005536D01*
X9943536Y11022518D01*
X10010046D01*
X10027026Y11005536D01*
X10060989Y11005536D02*
X10076554Y11022518D01*
X10143064D01*
X10160046Y11005536D01*
Y10971573D01*
X10143064Y10956008D01*
X10060989Y10905064D01*
Y10889498D01*
X10160046D01*
X10194008Y11005536D02*
Y11022518D01*
X10293063D01*
Y10988556D01*
X10226556Y10889498D01*
X2745933Y9963526D02*
X2761498Y9946546D01*
Y9880036D01*
X2745933Y9864471D01*
X2645461D01*
X2628479Y9880036D01*
Y9946546D01*
X2645461Y9963526D01*
X2645461Y9997489D02*
X2628479Y10013054D01*
Y10079564D01*
X2645461Y10096546D01*
X2679423D01*
X2694989Y10063998D01*
X2711971Y10096546D01*
X2745933D01*
X2761498Y10079564D01*
Y10013054D01*
X2745933Y9997489D01*
X2694989Y10030036D02*
Y10063998D01*
X2761498Y10130508D02*
X2711971Y10146073D01*
X2628479Y10180036D01*
X2711971Y10212583D01*
X2761498Y10229563D01*
X2711971Y10212583D02*
Y10146073D01*
X967933Y9963526D02*
X983498Y9946546D01*
Y9880036D01*
X967933Y9864471D01*
X867461D01*
X850479Y9880036D01*
Y9946546D01*
X867461Y9963526D01*
X867461Y9997489D02*
X850479Y10013054D01*
Y10079564D01*
X867461Y10096546D01*
X901423D01*
X916989Y10063998D01*
X933971Y10096546D01*
X967933D01*
X983498Y10079564D01*
Y10013054D01*
X967933Y9997489D01*
X916989Y10030036D02*
Y10063998D01*
X983498Y10130508D02*
X850479D01*
Y10212583D01*
X867461Y10229563D01*
X901423D01*
X916989Y10212583D01*
X933971Y10229563D01*
X967933D01*
X983498Y10212583D01*
Y10130508D01*
X916989Y10130508D02*
Y10212583D01*
X2745933Y7931526D02*
X2761498Y7914546D01*
Y7848036D01*
X2745933Y7832471D01*
X2645461D01*
X2628479Y7848036D01*
Y7914546D01*
X2645461Y7931526D01*
X2628479Y7965489D02*
X2694989D01*
Y8064546D01*
X2628479Y8047564D02*
X2761498D01*
X2761498Y8098508D02*
X2711971Y8114073D01*
X2628479Y8148036D01*
X2711971Y8180583D01*
X2761498Y8197563D01*
X2711971Y8180583D02*
Y8114073D01*
X967933Y7931526D02*
X983498Y7914546D01*
Y7848036D01*
X967933Y7832471D01*
X867461D01*
X850479Y7848036D01*
Y7914546D01*
X867461Y7931526D01*
X850479Y7965489D02*
X916989D01*
Y8064546D01*
X850479Y8047564D02*
X983498D01*
X983498Y8098508D02*
X850479D01*
Y8180583D01*
X867461Y8197563D01*
X901423D01*
X916989Y8180583D01*
X933971Y8197563D01*
X967933D01*
X983498Y8180583D01*
Y8098508D01*
X916989Y8098508D02*
Y8180583D01*
X2745933Y5899526D02*
X2761498Y5882546D01*
Y5816036D01*
X2745933Y5800471D01*
X2645461D01*
X2628479Y5816036D01*
Y5882546D01*
X2645461Y5899526D01*
X2745933Y5933489D02*
X2761498Y5949056D01*
Y6015564D01*
X2745933Y6032546D01*
X2694989D01*
X2679423Y6015564D01*
Y5933489D01*
X2628479D01*
Y6032546D01*
X2761498Y6066508D02*
X2711971Y6082073D01*
X2628479Y6116036D01*
X2711971Y6148583D01*
X2761498Y6165563D01*
X2711971Y6148583D02*
Y6082073D01*
X967933Y5899526D02*
X983498Y5882546D01*
Y5816036D01*
X967933Y5800471D01*
X867461D01*
X850479Y5816036D01*
Y5882546D01*
X867461Y5899526D01*
X967933Y5933489D02*
X983498Y5949056D01*
Y6015564D01*
X967933Y6032546D01*
X916989D01*
X901423Y6015564D01*
Y5933489D01*
X850479D01*
Y6032546D01*
X983498Y6066508D02*
X850479D01*
Y6148583D01*
X867461Y6165563D01*
X901423D01*
X916989Y6148583D01*
X933971Y6165563D01*
X967933D01*
X983498Y6148583D01*
Y6066508D01*
X916989Y6066508D02*
Y6148583D01*
X2745933Y3867526D02*
X2761498Y3850546D01*
Y3784036D01*
X2745933Y3768471D01*
X2645461D01*
X2628479Y3784036D01*
Y3850546D01*
X2645461Y3867526D01*
X2645461Y4000546D02*
X2628479Y3983564D01*
Y3917056D01*
X2645461Y3901489D01*
X2745933D01*
X2761498Y3917056D01*
Y3983564D01*
X2745933Y4000546D01*
X2711971D01*
X2694989Y3983564D01*
Y3917056D01*
X2711971Y3901489D01*
X2761498Y4034508D02*
X2711971Y4050073D01*
X2628479Y4084036D01*
X2711971Y4116583D01*
X2761498Y4133566D01*
X2711971Y4116583D02*
Y4050073D01*
X967933Y3867526D02*
X983498Y3850546D01*
Y3784036D01*
X967933Y3768471D01*
X867461D01*
X850479Y3784036D01*
Y3850546D01*
X867461Y3867526D01*
X867461Y4000546D02*
X850479Y3983564D01*
Y3917056D01*
X867461Y3901489D01*
X967933D01*
X983498Y3917056D01*
Y3983564D01*
X967933Y4000546D01*
X933971D01*
X916989Y3983564D01*
Y3917056D01*
X933971Y3901489D01*
X983498Y4034508D02*
X850479D01*
Y4116583D01*
X867461Y4133566D01*
X901423D01*
X916989Y4116583D01*
X933971Y4133566D01*
X967933D01*
X983498Y4116583D01*
Y4034508D01*
X916989Y4034508D02*
Y4116583D01*
X2664036Y2840564D02*
X2647056Y2824998D01*
X2580546D01*
X2564979Y2840564D01*
Y2941036D01*
X2580546Y2958018D01*
X2647056D01*
X2664036Y2941036D01*
X2697998Y2941036D02*
Y2958018D01*
X2797056D01*
Y2924056D01*
X2730546Y2824998D01*
X2791036Y7285564D02*
X2774056Y7269998D01*
X2707546D01*
X2691979Y7285564D01*
Y7386036D01*
X2707546Y7403018D01*
X2774056D01*
X2791036Y7386036D01*
X2840564Y7336508D02*
X2824998Y7319526D01*
Y7285564D01*
X2840564Y7269998D01*
X2907073D01*
X2924056Y7285564D01*
Y7319526D01*
X2907073Y7336508D01*
X2840564D01*
X2824998Y7352073D01*
Y7386036D01*
X2840564Y7403018D01*
X2907073D01*
X2924056Y7386036D01*
Y7352073D01*
X2907073Y7336508D01*
X3952433Y1076536D02*
X3967998Y1059556D01*
Y993046D01*
X3952433Y977479D01*
X3851961D01*
X3834979Y993046D01*
Y1059556D01*
X3851961Y1076536D01*
X3952433Y1110498D02*
X3967998Y1126064D01*
Y1192573D01*
X3952433Y1209556D01*
X3851961D01*
X3834979Y1192573D01*
Y1126064D01*
X3851961Y1110498D01*
X3885923D01*
X3901489Y1126064D01*
Y1192573D01*
X3885923Y1209556D01*
X8022971Y4856998D02*
X8122026D01*
X8022971Y4990018D02*
X8122026D01*
X8072499Y4990018D02*
Y4856998D01*
X8255046Y4872564D02*
X8238064Y4856998D01*
X8171554D01*
X8155989Y4872564D01*
Y4973036D01*
X8171554Y4990018D01*
X8238064D01*
X8255046Y4973036D01*
X8289008Y4856998D02*
X8388063D01*
X8338536Y4856998D02*
Y4990018D01*
X8304573Y4956056D01*
X8908961Y5364998D02*
X9008016D01*
X8908961Y5498018D02*
X9008016D01*
X8958489Y5498018D02*
Y5364998D01*
X9141036Y5380564D02*
X9124054Y5364998D01*
X9057546D01*
X9041979Y5380564D01*
Y5481036D01*
X9057546Y5498018D01*
X9124054D01*
X9141036Y5481036D01*
X9174998Y5364998D02*
X9274056D01*
X9224526Y5364998D02*
Y5498018D01*
X9190564Y5464056D01*
X9308018Y5380564D02*
Y5481036D01*
X9323583Y5498018D01*
X9390093D01*
X9407073Y5481036D01*
Y5380564D01*
X9390093Y5364998D01*
X9323583D01*
X9308018Y5380564D01*
X9308018Y5364998D02*
X9407073Y5498018D01*
X5733961Y5364998D02*
X5833019D01*
X5733961Y5498018D02*
X5833019D01*
X5783489Y5498018D02*
Y5364998D01*
X5966036Y5380564D02*
X5949056Y5364998D01*
X5882546D01*
X5866979Y5380564D01*
Y5481036D01*
X5882546Y5498018D01*
X5949056D01*
X5966036Y5481036D01*
X5999998Y5364998D02*
X6099056D01*
X6049526Y5364998D02*
Y5498018D01*
X6015564Y5464056D01*
X6133018Y5364998D02*
X6232073D01*
X6182546Y5364998D02*
Y5498018D01*
X6148583Y5464056D01*
X8908961Y6888998D02*
X9008016D01*
X8908961Y7022018D02*
X9008016D01*
X8958489Y7022018D02*
Y6888998D01*
X9141036Y6904564D02*
X9124054Y6888998D01*
X9057546D01*
X9041979Y6904564D01*
Y7005036D01*
X9057546Y7022018D01*
X9124054D01*
X9141036Y7005036D01*
X9174998Y6888998D02*
X9274056D01*
X9224526Y6888998D02*
Y7022018D01*
X9190564Y6988056D01*
X9308018Y7005036D02*
X9323583Y7022018D01*
X9390093D01*
X9407073Y7005036D01*
Y6971073D01*
X9390093Y6955508D01*
X9308018Y6904564D01*
Y6888998D01*
X9407073D01*
X5670461Y6888998D02*
X5769519D01*
X5670461Y7022018D02*
X5769519D01*
X5719989Y7022018D02*
Y6888998D01*
X5902536Y6904564D02*
X5885556Y6888998D01*
X5819046D01*
X5803479Y6904564D01*
Y7005036D01*
X5819046Y7022018D01*
X5885556D01*
X5902536Y7005036D01*
X5936498Y6888998D02*
X6035556D01*
X5986028Y6888998D02*
Y7022018D01*
X5952064Y6988056D01*
X6069518Y7005036D02*
X6085083Y7022018D01*
X6151593D01*
X6168573Y7005036D01*
Y6971073D01*
X6136026Y6955508D01*
X6168573Y6938526D01*
Y6904564D01*
X6151593Y6888998D01*
X6085083D01*
X6069518Y6904564D01*
X6102066Y6955508D02*
X6136026D01*
X8908961Y8412998D02*
X9008016D01*
X8908961Y8546018D02*
X9008016D01*
X8958489Y8546018D02*
Y8412998D01*
X9141036Y8428564D02*
X9124054Y8412998D01*
X9057546D01*
X9041979Y8428564D01*
Y8529036D01*
X9057546Y8546018D01*
X9124054D01*
X9141036Y8529036D01*
X9174998Y8412998D02*
X9274056D01*
X9224526Y8412998D02*
Y8546018D01*
X9190564Y8512056D01*
X9308018Y8546018D02*
Y8479508D01*
X9407073D01*
X9390093Y8546018D02*
Y8412998D01*
X5670461Y8412998D02*
X5769519D01*
X5670461Y8546018D02*
X5769519D01*
X5719989Y8546018D02*
Y8412998D01*
X5902536Y8428564D02*
X5885556Y8412998D01*
X5819046D01*
X5803479Y8428564D01*
Y8529036D01*
X5819046Y8546018D01*
X5885556D01*
X5902536Y8529036D01*
X5936498Y8412998D02*
X6035556D01*
X5986028Y8412998D02*
Y8546018D01*
X5952064Y8512056D01*
X6069518Y8428564D02*
X6085083Y8412998D01*
X6151593D01*
X6168573Y8428564D01*
Y8479508D01*
X6151593Y8495073D01*
X6069518D01*
Y8546018D01*
X6168573D01*
X8908961Y9936998D02*
X9008016D01*
X8908961Y10070018D02*
X9008016D01*
X8958489Y10070018D02*
Y9936998D01*
X9141036Y9952564D02*
X9124054Y9936998D01*
X9057546D01*
X9041979Y9952564D01*
Y10053036D01*
X9057546Y10070018D01*
X9124054D01*
X9141036Y10053036D01*
X9174998Y9936998D02*
X9274056D01*
X9224526Y9936998D02*
Y10070018D01*
X9190564Y10036056D01*
X9407073Y10053036D02*
X9390093Y10070018D01*
X9323583D01*
X9308018Y10053036D01*
Y9952564D01*
X9323583Y9936998D01*
X9390093D01*
X9407073Y9952564D01*
Y9986526D01*
X9390093Y10003508D01*
X9323583D01*
X9308018Y9986526D01*
X5670461Y9936998D02*
X5769519D01*
X5670461Y10070018D02*
X5769519D01*
X5719989Y10070018D02*
Y9936998D01*
X5902536Y9952564D02*
X5885556Y9936998D01*
X5819046D01*
X5803479Y9952564D01*
Y10053036D01*
X5819046Y10070018D01*
X5885556D01*
X5902536Y10053036D01*
X5936498Y9936998D02*
X6035556D01*
X5986028Y9936998D02*
Y10070018D01*
X5952064Y10036056D01*
X6069518Y10053036D02*
Y10070018D01*
X6168573D01*
Y10036056D01*
X6102066Y9936998D01*
X5047498Y6241961D02*
Y6341016D01*
X4914479Y6241961D02*
Y6341016D01*
X4914479Y6291489D02*
X5047498D01*
X5031933Y6474036D02*
X5047498Y6457054D01*
Y6390546D01*
X5031933Y6374979D01*
X4931461D01*
X4914479Y6390546D01*
Y6457054D01*
X4931461Y6474036D01*
X5047498Y6507998D02*
Y6607056D01*
X5047498Y6557526D02*
X4914479D01*
X4948441Y6523564D01*
X4980989Y6656583D02*
X4997971Y6641018D01*
X5031933D01*
X5047498Y6656583D01*
Y6723093D01*
X5031933Y6740073D01*
X4997971D01*
X4980989Y6723093D01*
Y6656583D01*
X4965423Y6641018D01*
X4931461D01*
X4914479Y6656583D01*
Y6723093D01*
X4931461Y6740073D01*
X4965423D01*
X4980989Y6723093D01*
X2888498Y5035461D02*
Y5134519D01*
X2755479Y5035461D02*
Y5134519D01*
X2755479Y5084989D02*
X2888498D01*
X2872933Y5267536D02*
X2888498Y5250556D01*
Y5184046D01*
X2872933Y5168479D01*
X2772461D01*
X2755479Y5184046D01*
Y5250556D01*
X2772461Y5267536D01*
X2888498Y5301498D02*
Y5400556D01*
X2888498Y5351028D02*
X2755479D01*
X2789441Y5317064D01*
X2872933Y5434518D02*
X2888498Y5450083D01*
Y5516593D01*
X2872933Y5533573D01*
X2772461D01*
X2755479Y5516593D01*
Y5450083D01*
X2772461Y5434518D01*
X2806423D01*
X2821989Y5450083D01*
Y5516593D01*
X2806423Y5533573D01*
X3904498Y6371971D02*
Y6471026D01*
X3771479Y6371971D02*
Y6471026D01*
X3771479Y6421499D02*
X3904498D01*
X3888933Y6604046D02*
X3904498Y6587064D01*
Y6520554D01*
X3888933Y6504989D01*
X3788461D01*
X3771479Y6520554D01*
Y6587064D01*
X3788461Y6604046D01*
X3788461Y6638008D02*
X3771479Y6653573D01*
Y6720083D01*
X3788461Y6737063D01*
X3822423D01*
X3837989Y6720083D01*
X3888933Y6638008D01*
X3904498D01*
Y6737063D01*
X6495961Y2139198D02*
X6595016D01*
X6495961Y2272218D02*
X6595016D01*
X6545489Y2272218D02*
Y2139198D01*
X6728036Y2154764D02*
X6711054Y2139198D01*
X6644546D01*
X6628979Y2154764D01*
Y2255236D01*
X6644546Y2272218D01*
X6711054D01*
X6728036Y2255236D01*
X6761998Y2255236D02*
X6777564Y2272218D01*
X6844073D01*
X6861056Y2255236D01*
Y2221273D01*
X6844073Y2205708D01*
X6761998Y2154764D01*
Y2139198D01*
X6861056D01*
X6895018Y2154764D02*
Y2255236D01*
X6910583Y2272218D01*
X6977093D01*
X6994073Y2255236D01*
Y2154764D01*
X6977093Y2139198D01*
X6910583D01*
X6895018Y2154764D01*
X6895018Y2139198D02*
X6994073Y2272218D01*
X1479461Y348498D02*
X1578519D01*
X1479461Y481518D02*
X1578519D01*
X1528989Y481518D02*
Y348498D01*
X1711536Y364064D02*
X1694556Y348498D01*
X1628046D01*
X1612479Y364064D01*
Y464536D01*
X1628046Y481518D01*
X1694556D01*
X1711536Y464536D01*
X1745498Y464536D02*
X1761064Y481518D01*
X1827573D01*
X1844556Y464536D01*
Y430573D01*
X1827573Y415008D01*
X1745498Y364064D01*
Y348498D01*
X1844556D01*
X1878518Y348498D02*
X1977573D01*
X1928046Y348498D02*
Y481518D01*
X1894083Y447556D01*
X1609471Y9428998D02*
X1708526D01*
X1609471Y9562018D02*
X1708526D01*
X1658999Y9562018D02*
Y9428998D01*
X1841546Y9444564D02*
X1824564Y9428998D01*
X1758056D01*
X1742489Y9444564D01*
Y9545036D01*
X1758056Y9562018D01*
X1824564D01*
X1841546Y9545036D01*
X1875508Y9545036D02*
X1891073Y9562018D01*
X1957583D01*
X1974566Y9545036D01*
Y9511073D01*
X1942018Y9495508D01*
X1974566Y9478526D01*
Y9444564D01*
X1957583Y9428998D01*
X1891073D01*
X1875508Y9444564D01*
X1908056Y9495508D02*
X1942018D01*
X1609471Y7396998D02*
X1708526D01*
X1609471Y7530018D02*
X1708526D01*
X1658999Y7530018D02*
Y7396998D01*
X1841546Y7412564D02*
X1824564Y7396998D01*
X1758056D01*
X1742489Y7412564D01*
Y7513036D01*
X1758056Y7530018D01*
X1824564D01*
X1841546Y7513036D01*
X1875508Y7530018D02*
Y7463508D01*
X1974566D01*
X1957583Y7530018D02*
Y7396998D01*
X1609471Y5364998D02*
X1708526D01*
X1609471Y5498018D02*
X1708526D01*
X1658999Y5498018D02*
Y5364998D01*
X1841546Y5380564D02*
X1824564Y5364998D01*
X1758056D01*
X1742489Y5380564D01*
Y5481036D01*
X1758056Y5498018D01*
X1824564D01*
X1841546Y5481036D01*
X1875508Y5380564D02*
X1891073Y5364998D01*
X1957583D01*
X1974566Y5380564D01*
Y5431508D01*
X1957583Y5447073D01*
X1875508D01*
Y5498018D01*
X1974566D01*
X1609471Y3332998D02*
X1708526D01*
X1609471Y3466018D02*
X1708526D01*
X1658999Y3466018D02*
Y3332998D01*
X1841546Y3348564D02*
X1824564Y3332998D01*
X1758056D01*
X1742489Y3348564D01*
Y3449036D01*
X1758056Y3466018D01*
X1824564D01*
X1841546Y3449036D01*
X1974566Y3449036D02*
X1957583Y3466018D01*
X1891073D01*
X1875508Y3449036D01*
Y3348564D01*
X1891073Y3332998D01*
X1957583D01*
X1974566Y3348564D01*
Y3382526D01*
X1957583Y3399508D01*
X1891073D01*
X1875508Y3382526D01*
X2879471Y348498D02*
X2978526D01*
X2879471Y481518D02*
X2978526D01*
X2928999Y481518D02*
Y348498D01*
X3111546Y364064D02*
X3094564Y348498D01*
X3028056D01*
X3012489Y364064D01*
Y464536D01*
X3028056Y481518D01*
X3094564D01*
X3111546Y464536D01*
X3145508Y464536D02*
Y481518D01*
X3244566D01*
Y447556D01*
X3178056Y348498D01*
X3641471Y7269998D02*
X3740526D01*
X3641471Y7403018D02*
X3740526D01*
X3690999Y7403018D02*
Y7269998D01*
X3873546Y7285564D02*
X3856564Y7269998D01*
X3790056D01*
X3774489Y7285564D01*
Y7386036D01*
X3790056Y7403018D01*
X3856564D01*
X3873546Y7386036D01*
X3923073Y7336508D02*
X3907508Y7319526D01*
Y7285564D01*
X3923073Y7269998D01*
X3989583D01*
X4006566Y7285564D01*
Y7319526D01*
X3989583Y7336508D01*
X3923073D01*
X3907508Y7352073D01*
Y7386036D01*
X3923073Y7403018D01*
X3989583D01*
X4006566Y7386036D01*
Y7352073D01*
X3989583Y7336508D01*
X4530471Y348498D02*
X4629526D01*
X4530471Y481518D02*
X4629526D01*
X4579999Y481518D02*
Y348498D01*
X4762546Y364064D02*
X4745564Y348498D01*
X4679056D01*
X4663489Y364064D01*
Y464536D01*
X4679056Y481518D01*
X4745564D01*
X4762546Y464536D01*
X4796508Y364064D02*
X4812073Y348498D01*
X4878583D01*
X4895566Y364064D01*
Y464536D01*
X4878583Y481518D01*
X4812073D01*
X4796508Y464536D01*
Y430573D01*
X4812073Y415008D01*
X4878583D01*
X4895566Y430573D01*
X4276471Y4809064D02*
X4292036Y4793498D01*
X4358546D01*
X4375526Y4809064D01*
Y4843026D01*
X4358546Y4860008D01*
X4292036D01*
X4276471Y4875573D01*
Y4909536D01*
X4292036Y4926518D01*
X4358546D01*
X4375526Y4909536D01*
X4409489Y4926518D02*
X4425056Y4793498D01*
X4459019Y4860008D01*
X4491564Y4793498D01*
X4508546Y4926518D01*
X4542508Y4793498D02*
X4641566D01*
X4592036Y4793498D02*
Y4926518D01*
X4558073Y4892556D01*
X10308971Y1062564D02*
X10324536Y1046998D01*
X10391046D01*
X10408026Y1062564D01*
Y1096526D01*
X10391046Y1113508D01*
X10324536D01*
X10308971Y1129073D01*
Y1163036D01*
X10324536Y1180018D01*
X10391046D01*
X10408026Y1163036D01*
X10441989Y1180018D02*
X10457554Y1046998D01*
X10491516Y1113508D01*
X10524064Y1046998D01*
X10541046Y1180018D01*
X10575008Y1163036D02*
X10590573Y1180018D01*
X10657083D01*
X10674063Y1163036D01*
Y1129073D01*
X10657083Y1113508D01*
X10575008Y1062564D01*
Y1046998D01*
X10674063D01*
X7594179Y2405898D02*
X7693236Y2538918D01*
X7594179Y2538918D02*
X7693236Y2405898D01*
X7727198Y2405898D02*
X7826256D01*
X7776726Y2405898D02*
Y2538918D01*
X7742764Y2504956D01*
X5917779Y843798D02*
X6016836Y976818D01*
X5917779Y976818D02*
X6016836Y843798D01*
X6050798Y959836D02*
X6066364Y976818D01*
X6132873D01*
X6149856Y959836D01*
Y925873D01*
X6132873Y910308D01*
X6050798Y859364D01*
Y843798D01*
X6149856D01*
X9043282Y317498D02*
Y494858D01*
X9131961D01*
X9152715Y472217D01*
X9175357Y426931D01*
Y383535D01*
X9152715Y338252D01*
X9131961Y317498D01*
X9043282D01*
X9220640Y317498D02*
X9352715D01*
X9220640Y494858D02*
X9352715D01*
X9286677Y494858D02*
Y317498D01*
X9397998Y317498D02*
Y494858D01*
X9507431D01*
X9530073Y472217D01*
Y426931D01*
X9507431Y406177D01*
X9397998D01*
X9575356Y317498D02*
Y494858D01*
X9707433Y494858D02*
Y317498D01*
X9575356Y406177D02*
X9707433D01*
X9043282Y63498D02*
Y240858D01*
X9131961D01*
X9152715Y218217D01*
X9175357Y172931D01*
Y129535D01*
X9152715Y84252D01*
X9131961Y63498D01*
X9043282D01*
X9220640Y63498D02*
X9352715D01*
X9220640Y240858D02*
X9352715D01*
X9286677Y240858D02*
Y63498D01*
X9397998Y63498D02*
Y240858D01*
X9507431D01*
X9530073Y218217D01*
Y172931D01*
X9507431Y152177D01*
X9397998D01*
X9575356Y240858D02*
Y63498D01*
X9707433D01*
X6241961Y462356D02*
Y284998D01*
X6374036D01*
X6419319Y284998D02*
Y462356D01*
X6507998D01*
X6528753Y439715D01*
X6551394Y394432D01*
Y351036D01*
X6528753Y305753D01*
X6507998Y284998D01*
X6419319D01*
X6596677Y284998D02*
X6728752D01*
X6662715Y284998D02*
Y462356D01*
X6617432Y417073D01*
X7575461Y462356D02*
Y284998D01*
X7707536D01*
X7752819Y284998D02*
Y462356D01*
X7841498D01*
X7862253Y439715D01*
X7884894Y394432D01*
Y351036D01*
X7862253Y305753D01*
X7841498Y284998D01*
X7752819D01*
X7930177Y439715D02*
X7950932Y462356D01*
X8039611D01*
X8062252Y439715D01*
Y394432D01*
X8039611Y373677D01*
X7930177Y305753D01*
Y284998D01*
X8062252D01*
X7477750Y5466598D02*
Y5601747D01*
X7561141D01*
X7578393Y5584493D01*
Y5549987D01*
X7561141Y5534173D01*
X7477750D01*
X7528073Y5534173D02*
X7578393Y5466598D01*
X7612898Y5466598D02*
X7713541D01*
X7663218Y5466598D02*
Y5601747D01*
X7628712Y5567241D01*
X5289278Y2723398D02*
Y2858547D01*
X5372667D01*
X5389918Y2841293D01*
Y2806787D01*
X5372667Y2790973D01*
X5289278D01*
X5339598Y2790973D02*
X5389918Y2723398D01*
X5424424Y2723398D02*
X5525067D01*
X5474747Y2723398D02*
Y2858547D01*
X5440241Y2824041D01*
X5559573Y2739212D02*
Y2841293D01*
X5575387Y2858547D01*
X5642961D01*
X5660212Y2841293D01*
Y2739212D01*
X5642961Y2723398D01*
X5575387D01*
X5559573Y2739212D01*
X5559573Y2723398D02*
X5660212Y2858547D01*
X10025898Y3168378D02*
X9890750D01*
Y3251767D01*
X9908004Y3269018D01*
X9942510D01*
X9958324Y3251767D01*
Y3168378D01*
X9958324Y3218698D02*
X10025898Y3269018D01*
X10025898Y3303524D02*
Y3404167D01*
X10025898Y3353847D02*
X9890750D01*
X9925256Y3319341D01*
X10025898Y3438673D02*
Y3539312D01*
X10025898Y3488993D02*
X9890750D01*
X9925256Y3454487D01*
X5289278Y3332998D02*
Y3468147D01*
X5372667D01*
X5389918Y3450893D01*
Y3416387D01*
X5372667Y3400573D01*
X5289278D01*
X5339598Y3400573D02*
X5389918Y3332998D01*
X5424424Y3332998D02*
X5525067D01*
X5474747Y3332998D02*
Y3468147D01*
X5440241Y3433641D01*
X5559573Y3450893D02*
X5575387Y3468147D01*
X5642961D01*
X5660212Y3450893D01*
Y3416387D01*
X5642961Y3400573D01*
X5559573Y3348812D01*
Y3332998D01*
X5660212D01*
X5289278Y3523498D02*
Y3658647D01*
X5372667D01*
X5389918Y3641393D01*
Y3606887D01*
X5372667Y3591073D01*
X5289278D01*
X5339598Y3591073D02*
X5389918Y3523498D01*
X5424424Y3523498D02*
X5525067D01*
X5474747Y3523498D02*
Y3658647D01*
X5440241Y3624141D01*
X5559573Y3641393D02*
X5575387Y3658647D01*
X5642961D01*
X5660212Y3641393D01*
Y3606887D01*
X5627147Y3591073D01*
X5660212Y3573818D01*
Y3539312D01*
X5642961Y3523498D01*
X5575387D01*
X5559573Y3539312D01*
X5592641Y3591073D02*
X5627147D01*
X4844778Y4031498D02*
Y4166647D01*
X4928167D01*
X4945418Y4149393D01*
Y4114887D01*
X4928167Y4099073D01*
X4844778D01*
X4895098Y4099073D02*
X4945418Y4031498D01*
X4979924Y4031498D02*
X5080567D01*
X5030247Y4031498D02*
Y4166647D01*
X4995741Y4132141D01*
X5115073Y4166647D02*
Y4099073D01*
X5215712D01*
X5198461Y4166647D02*
Y4031498D01*
X5289278Y2901198D02*
Y3036347D01*
X5372667D01*
X5389918Y3019093D01*
Y2984587D01*
X5372667Y2968773D01*
X5289278D01*
X5339598Y2968773D02*
X5389918Y2901198D01*
X5424424Y2901198D02*
X5525067D01*
X5474747Y2901198D02*
Y3036347D01*
X5440241Y3001841D01*
X5559573Y2917012D02*
X5575387Y2901198D01*
X5642961D01*
X5660212Y2917012D01*
Y2968773D01*
X5642961Y2984587D01*
X5559573D01*
Y3036347D01*
X5660212D01*
X5289278Y3078998D02*
Y3214147D01*
X5372667D01*
X5389918Y3196893D01*
Y3162387D01*
X5372667Y3146573D01*
X5289278D01*
X5339598Y3146573D02*
X5389918Y3078998D01*
X5424424Y3078998D02*
X5525067D01*
X5474747Y3078998D02*
Y3214147D01*
X5440241Y3179641D01*
X5660212Y3196893D02*
X5642961Y3214147D01*
X5575387D01*
X5559573Y3196893D01*
Y3094812D01*
X5575387Y3078998D01*
X5642961D01*
X5660212Y3094812D01*
Y3129318D01*
X5642961Y3146573D01*
X5575387D01*
X5559573Y3129318D01*
X7477750Y6965198D02*
Y7100344D01*
X7561141D01*
X7578393Y7083093D01*
Y7048587D01*
X7561141Y7032773D01*
X7477750D01*
X7528073Y7032773D02*
X7578393Y6965198D01*
X7612898Y7083093D02*
X7628712Y7100344D01*
X7696287D01*
X7713541Y7083093D01*
Y7048587D01*
X7696287Y7032773D01*
X7612898Y6981012D01*
Y6965198D01*
X7713541D01*
X6622778Y7460498D02*
Y7595644D01*
X6706167D01*
X6723418Y7578393D01*
Y7543887D01*
X6706167Y7528073D01*
X6622778D01*
X6673098Y7528073D02*
X6723418Y7460498D01*
X6757924Y7578393D02*
X6773741Y7595644D01*
X6841312D01*
X6858567Y7578393D01*
Y7543887D01*
X6841312Y7528073D01*
X6757924Y7476312D01*
Y7460498D01*
X6858567D01*
X6893073Y7476312D02*
X6908887Y7460498D01*
X6976461D01*
X6993712Y7476312D01*
Y7528073D01*
X6976461Y7543887D01*
X6893073D01*
Y7595644D01*
X6993712D01*
X6622778Y5936498D02*
Y6071644D01*
X6706167D01*
X6723418Y6054393D01*
Y6019887D01*
X6706167Y6004073D01*
X6622778D01*
X6673098Y6004073D02*
X6723418Y5936498D01*
X6757924Y6054393D02*
X6773741Y6071644D01*
X6841312D01*
X6858567Y6054393D01*
Y6019887D01*
X6841312Y6004073D01*
X6757924Y5952312D01*
Y5936498D01*
X6858567D01*
X6993712Y6054393D02*
X6976461Y6071644D01*
X6908887D01*
X6893073Y6054393D01*
Y5952312D01*
X6908887Y5936498D01*
X6976461D01*
X6993712Y5952312D01*
Y5986818D01*
X6976461Y6004073D01*
X6908887D01*
X6893073Y5986818D01*
X5949198Y2546078D02*
X5814053D01*
Y2629467D01*
X5831304Y2646718D01*
X5865810D01*
X5881624Y2629467D01*
Y2546078D01*
X5881624Y2596398D02*
X5949198Y2646718D01*
X5831304Y2681224D02*
X5814053Y2697041D01*
Y2764612D01*
X5831304Y2781867D01*
X5865810D01*
X5881624Y2764612D01*
X5933384Y2681224D01*
X5949198D01*
Y2781867D01*
X5831304Y2816373D02*
X5814053D01*
Y2917012D01*
X5848556D01*
X5949198Y2849441D01*
X6431798Y2165078D02*
X6296650D01*
Y2248467D01*
X6313904Y2265718D01*
X6348410D01*
X6364224Y2248467D01*
Y2165078D01*
X6364224Y2215398D02*
X6431798Y2265718D01*
X6313904Y2300224D02*
X6296650Y2316041D01*
Y2383612D01*
X6313904Y2400867D01*
X6348410D01*
X6364224Y2383612D01*
X6415984Y2300224D01*
X6431798D01*
Y2400867D01*
X6364224Y2451187D02*
X6381478Y2435373D01*
X6415984D01*
X6431798Y2451187D01*
Y2518761D01*
X6415984Y2536012D01*
X6381478D01*
X6364224Y2518761D01*
Y2451187D01*
X6348410Y2435373D01*
X6313904D01*
X6296650Y2451187D01*
Y2518761D01*
X6313904Y2536012D01*
X6348410D01*
X6364224Y2518761D01*
X10013198Y4505953D02*
X9878050D01*
Y4589341D01*
X9895304Y4606593D01*
X9929810D01*
X9945624Y4589341D01*
Y4505953D01*
X9945624Y4556273D02*
X10013198Y4606593D01*
X9895304Y4641098D02*
X9878050Y4656915D01*
Y4724487D01*
X9895304Y4741741D01*
X9929810D01*
X9945624Y4708673D01*
X9962878Y4741741D01*
X9997384D01*
X10013198Y4724487D01*
Y4656915D01*
X9997384Y4641098D01*
X9945624Y4674167D02*
Y4708673D01*
X7465050Y8501898D02*
Y8637044D01*
X7548441D01*
X7565693Y8619793D01*
Y8585287D01*
X7548441Y8569473D01*
X7465050D01*
X7515373Y8569473D02*
X7565693Y8501898D01*
X7600198Y8637044D02*
Y8569473D01*
X7700841D01*
X7683587Y8637044D02*
Y8501898D01*
X7465050Y10025898D02*
Y10161044D01*
X7548441D01*
X7565693Y10143793D01*
Y10109287D01*
X7548441Y10093473D01*
X7465050D01*
X7515373Y10093473D02*
X7565693Y10025898D01*
X7600198Y10041712D02*
X7616012Y10025898D01*
X7683587D01*
X7700841Y10041712D01*
Y10093473D01*
X7683587Y10109287D01*
X7600198D01*
Y10161044D01*
X7700841D01*
X6690350Y10508498D02*
Y10643644D01*
X6773741D01*
X6790993Y10626393D01*
Y10591887D01*
X6773741Y10576073D01*
X6690350D01*
X6740673Y10576073D02*
X6790993Y10508498D01*
X6926141Y10626393D02*
X6908887Y10643644D01*
X6841312D01*
X6825498Y10626393D01*
Y10524312D01*
X6841312Y10508498D01*
X6908887D01*
X6926141Y10524312D01*
Y10558818D01*
X6908887Y10576073D01*
X6841312D01*
X6825498Y10558818D01*
X6690350Y8984498D02*
Y9119644D01*
X6773741D01*
X6790993Y9102393D01*
Y9067887D01*
X6773741Y9052073D01*
X6690350D01*
X6740673Y9052073D02*
X6790993Y8984498D01*
X6825498Y9102393D02*
Y9119644D01*
X6926141D01*
Y9085141D01*
X6858567Y8984498D01*
X4467853Y3015498D02*
Y3150647D01*
X4551241D01*
X4568493Y3133393D01*
Y3098887D01*
X4551241Y3083073D01*
X4467853D01*
X4518173Y3083073D02*
X4568493Y3015498D01*
X4618815Y3083073D02*
X4602998Y3065818D01*
Y3031312D01*
X4618815Y3015498D01*
X4686387D01*
X4703641Y3031312D01*
Y3065818D01*
X4686387Y3083073D01*
X4618815D01*
X4602998Y3098887D01*
Y3133393D01*
X4618815Y3150647D01*
X4686387D01*
X4703641Y3133393D01*
Y3098887D01*
X4686387Y3083073D01*
X4247398Y2499353D02*
X4112253D01*
Y2582741D01*
X4129504Y2599993D01*
X4164010D01*
X4179824Y2582741D01*
Y2499353D01*
X4179824Y2549673D02*
X4247398Y2599993D01*
X4231584Y2634498D02*
X4247398Y2650315D01*
Y2717887D01*
X4231584Y2735141D01*
X4129504D01*
X4112253Y2717887D01*
Y2650315D01*
X4129504Y2634498D01*
X4164010D01*
X4179824Y2650315D01*
Y2717887D01*
X4164010Y2735141D01*
X9115499Y1097001D02*
Y997001D01*
X9615500Y1097001D02*
Y997001D01*
X9115499Y2176049D02*
Y2076049D01*
X9615500Y2176049D02*
Y2076049D01*
X10500000Y12000000D02*
X12000000Y10500000D01*
X12000000Y500000D02*
Y10500000D01*
X10500000Y12000000D02*
X500000D01*
G3X0Y11500000I0J-500000D01*
G1Y500000D01*
G3X500000Y0I500000J0D01*
G1X11500000D01*
G3X12000000Y500000I0J500000D01*
M02*