G04 PCB Fabrication Data in Gerber – Example 1, created by Karel Tavernier, Filip Vermeire and Thomas Weyn*
G04 Ucamco copyright*
%TF.GenerationSoftware,Ucamco,UcamX,1.1.0-140320*%
%TF.CreationDate,2014-06-18T00:00;00+01:00*%
%FSLAX35Y35*%
%MOMM*%
%TF.FileFunction,Soldermask,Top*%
%TF.FilePolarity,Negative*%
%TF.Part,Single*%
%TF.SameCoordinates,f8d53b1f8c81977d8c3d0dffcc4c4bd6e6770c0f*%
%ADD10C,0.85000*%
%ADD11C,1.70000*%
%ADD12C,1.80000*%
%ADD13R,1.70000X1.70000*%
%ADD14R,1.80000X1.80000*%
%ADD15R,0.40000X1.70000*%
%ADD16R,0.45000X2.60000*%
%ADD17R,1.20000X1.70000*%
%ADD18R,1.10000X1.30000*%
%ADD19R,1.40000X2.60000*%
%ADD20R,1.70000X1.20000*%
%ADD21R,1.70000X2.60000*%
%ADD22R,2.05000X0.65000*%
%ADD23R,2.10000X0.70000*%
%ADD24R,2.20000X1.50000*%
%ADD25R,2.10000X1.60000*%
%ADD26R,2.30000X2.50000*%
%ADD27R,2.60000X0.45000*%
%ADD28R,2.80000X0.75000*%
%ADD29R,3.10000X4.80000*%
G01*
D10*
%LPD*%
X7664999Y3689998D03*
X8359999Y1874998D03*
X9882998Y3650498D03*
X9034999Y1450000D03*
X9299997Y795000D03*
X9234998Y1299998D03*
X9764997D03*
X8964999Y2379998D03*
X9494998D03*
X7754998Y3515000D03*
X9882998Y3396498D03*
X7209999Y1934997D03*
X7484999Y3943497D03*
X7754998Y3294997D03*
X9885817Y3015498D03*
X7844999Y3429998D03*
X9882998Y3142498D03*
X7854998Y3599998D03*
X9882998Y3523498D03*
X5009998Y1044999D03*
X5674997Y3029999D03*
X7759738Y3883497D03*
X9882998Y3777498D03*
X5009998Y9569999D03*
X5694997Y3485000D03*
X4704999Y3779998D03*
Y4834999D03*
X3369999Y260000D03*
Y839999D03*
X4919998Y260000D03*
X5328499Y3353499D03*
X5284999Y3515000D03*
X6144999Y4004999D03*
X5410000Y919998D03*
X6529997Y2524999D03*
X2474999Y1889999D03*
X2539997Y4806137D03*
Y6885999D03*
Y8917998D03*
Y10949999D03*
X3104998Y2381819D03*
X3144998Y1889999D03*
X4499998Y6254999D03*
Y6761998D03*
X5410000Y1299998D03*
X5733248Y2796289D03*
X7094997Y4063500D03*
X7344997Y599999D03*
X7840898Y4263499D03*
X8626818Y4125308D03*
X7484999Y729998D03*
X7564999Y4134998D03*
X4974999Y6129998D03*
X5250000Y9809998D03*
X6535049Y2246559D03*
X6919999Y2964998D03*
X7844999Y3204997D03*
X9885817Y2888498D03*
X304998Y1490000D03*
Y3810998D03*
Y5842998D03*
Y7874998D03*
Y9909998D03*
X2897388Y9559999D03*
X3634999Y354998D03*
Y774997D03*
X5410000Y1174999D03*
X5618998Y5745998D03*
Y7269998D03*
X6264999Y2924998D03*
X7264997Y5579999D03*
X8857498Y5745998D03*
X8924499Y7269998D03*
X3964999Y6889999D03*
X4349999Y5975000D03*
X8584997Y5219997D03*
X9492498Y5618998D03*
X3239999Y3972499D03*
X3409999Y6499997D03*
X5089998Y6509997D03*
X5204999Y11334999D03*
X7644999Y6734998D03*
X7859997Y7139999D03*
X4584997Y6379997D03*
Y6954997D03*
X2852738Y8144259D03*
X3214997Y6379997D03*
X3304997Y6254999D03*
X3479998Y10009998D03*
X3784999Y6509997D03*
X4246210Y3227499D03*
X7646207Y3796218D03*
X8326138Y4664698D03*
X3990000Y359999D03*
Y2065000D03*
X4557698Y5145979D03*
X7629997Y2474999D03*
X7754998Y364998D03*
X10254998D03*
X10714058Y1789059D03*
X1432448Y3892499D03*
Y5924499D03*
Y7956497D03*
X1581569Y9920509D03*
X3683708Y1394048D03*
X4498549Y5490819D03*
X5685120Y9982337D03*
X6463498Y5242748D03*
X180000Y3650998D03*
Y5682999D03*
Y7714999D03*
Y9749999D03*
X1144999Y388478D03*
X2594998Y959998D03*
X4769998Y9234998D03*
X2534998Y2019998D03*
X2599998Y4974999D03*
Y6965998D03*
Y8997998D03*
Y9604997D03*
Y11029998D03*
X3404999Y2019998D03*
X3469998Y835000D03*
X1914997Y3893998D03*
Y5114747D03*
Y7143298D03*
Y9165308D03*
Y9604997D03*
X2090618Y10955007D03*
X3314997Y9754997D03*
X1849999Y3813998D03*
Y5845998D03*
Y7877998D03*
Y9909998D03*
X2914998Y2159998D03*
X2944998Y2739999D03*
X1789999Y3733998D03*
Y5765998D03*
Y7797998D03*
Y9829998D03*
X1724998Y3653999D03*
Y5685998D03*
Y7717999D03*
Y9749999D03*
X1664998Y3573999D03*
Y5605999D03*
Y7637999D03*
Y9669999D03*
X2851839Y5771517D03*
X2876799Y7636498D03*
X2898048Y9834618D03*
X2975869Y3572498D03*
X2979870Y2375809D03*
X3204997Y1527419D03*
Y2379998D03*
X3694999Y3404999D03*
X3791738Y6126998D03*
X3041150Y1817728D03*
X3148668Y3086979D03*
X3624999Y3314997D03*
X3788418Y6253998D03*
X3973630Y6380998D03*
X5505788Y3595010D03*
X244998Y2359998D03*
Y3730999D03*
Y5762999D03*
Y7794999D03*
Y9829998D03*
X2514999Y889998D03*
X6290818Y5211358D03*
X6334999Y4749998D03*
X875000Y2724999D03*
Y3732499D03*
Y5448318D03*
Y5759100D03*
Y7796497D03*
Y9828497D03*
X1414999Y10931908D03*
X2444999Y815000D03*
X3859998Y11264999D03*
X935000Y2809999D03*
Y5015999D03*
Y7047997D03*
Y9079997D03*
X1480000Y11109998D03*
X2584998Y2754999D03*
X2594998Y1454999D03*
X3769998Y11324999D03*
X1005000Y2884998D03*
Y5090998D03*
Y7122998D03*
Y9154998D03*
X1550000Y11189998D03*
X2700000Y1530000D03*
Y2409997D03*
X3669998Y11389998D03*
X1069998Y2984998D03*
Y5170998D03*
Y7202998D03*
Y9234998D03*
X1620000Y11269998D03*
X2769999Y1604998D03*
X2804998Y2739999D03*
X3083088Y4458109D03*
X3569998Y11449998D03*
X2784998Y5541379D03*
Y7205998D03*
Y8849997D03*
Y9237998D03*
X2785277Y11596796D03*
X2854998Y1669999D03*
Y2404999D03*
X3164997Y4366588D03*
X2657658Y1737218D03*
X2719999Y5174998D03*
Y7129978D03*
Y8729998D03*
Y9157998D03*
Y11189998D03*
X3299998Y1635069D03*
X3354999Y2724999D03*
X2654999Y1949999D03*
X2659997Y5074998D03*
Y7045998D03*
Y9077998D03*
Y11109998D03*
X3404999Y2379998D03*
X3499998Y1949999D03*
X1239998Y969998D03*
X1974998Y4053998D03*
Y6085998D03*
Y8117998D03*
Y10149997D03*
X2609997Y244998D03*
X2834998Y1274998D03*
X7694999Y5144999D03*
X9428998Y5872998D03*
Y7396998D03*
Y8793998D03*
Y10317998D03*
Y11344999D03*
X1470000Y825000D03*
X2039998Y4133998D03*
Y6165998D03*
Y8197998D03*
Y10229997D03*
X2724999Y304998D03*
X2914998Y1209998D03*
X7634999Y4754999D03*
X9364998Y11429998D03*
X9365498Y5999998D03*
Y7523998D03*
Y8920998D03*
Y10444998D03*
X689998Y1409997D03*
Y4690999D03*
Y6722999D03*
Y8754999D03*
X845000Y10864998D03*
X1564998Y10704998D03*
X6063498Y6126998D03*
Y7650998D03*
Y9047998D03*
Y10571998D03*
X6919999Y4754999D03*
X629999Y1504999D03*
Y4610999D03*
Y6642999D03*
Y8674999D03*
X729998Y10854998D03*
X1630000Y10624998D03*
X5999998Y6253998D03*
Y7777998D03*
Y9174998D03*
Y10698998D03*
X6854997Y5144999D03*
X569999Y1600000D03*
Y4205999D03*
Y6237999D03*
Y8269999D03*
Y10249997D03*
X1689999Y10389997D03*
X5936498Y6380998D03*
Y7904998D03*
Y9301998D03*
Y10825998D03*
X6789999Y4754999D03*
X509999Y1694998D03*
Y4125999D03*
Y6157999D03*
Y8189999D03*
Y10169998D03*
X1749999Y10309997D03*
X5872998Y6507998D03*
Y8031998D03*
Y9428998D03*
Y10952998D03*
X6724998Y5144999D03*
X444998Y1794998D03*
Y4040998D03*
Y6072998D03*
Y8104998D03*
Y10089998D03*
X1814997Y10229997D03*
X5809498Y6634998D03*
Y8158998D03*
Y9555998D03*
Y11079998D03*
X6659997Y4754999D03*
X369999Y1884997D03*
Y3965999D03*
Y5997999D03*
Y8029997D03*
Y10004999D03*
X1814398Y10129997D03*
X5745998Y6761998D03*
Y8285998D03*
Y9682998D03*
Y11206998D03*
X6594998Y5144999D03*
X1570000Y1024999D03*
X2105000Y4213997D03*
Y6245997D03*
Y8277997D03*
Y10309997D03*
X2850000Y334998D03*
X2984998Y1134999D03*
X7569998Y5144999D03*
X9301998Y6126998D03*
Y7650998D03*
Y9047998D03*
Y10571998D03*
Y11509998D03*
X1669999Y825000D03*
X2169998Y4294000D03*
Y6325997D03*
Y8357997D03*
Y10389997D03*
X2979999Y364998D03*
X3059999Y1064999D03*
X3079999Y11354999D03*
X7504999Y4754999D03*
X9238498Y6253998D03*
Y7777998D03*
Y9174998D03*
Y10698998D03*
Y11824998D03*
X1819999Y1024999D03*
X2014997Y4533999D03*
Y6565999D03*
Y8597999D03*
Y10629999D03*
X3104998Y394998D03*
X3134997Y995000D03*
X7439998Y5144999D03*
X9174998Y6380998D03*
Y7904998D03*
Y9301998D03*
Y10825998D03*
Y11574999D03*
X1919998Y825000D03*
X2075000Y4613999D03*
Y6645999D03*
Y8677999D03*
Y10709999D03*
X3204997Y919998D03*
X3254997Y11024997D03*
X3269998Y384998D03*
X7374997Y4754999D03*
X9111498Y6507998D03*
Y8031998D03*
Y9428998D03*
Y10952998D03*
Y11664999D03*
X2019998Y1024999D03*
X2135000Y4693999D03*
Y6725999D03*
Y8757999D03*
Y10789999D03*
X3269998Y484998D03*
Y839999D03*
X3354999Y11084997D03*
X7309998Y5144999D03*
X9047998Y6634998D03*
Y8158998D03*
Y9555998D03*
Y11079998D03*
Y11754998D03*
X2119998Y825000D03*
X2205000Y4773999D03*
Y6805999D03*
Y8837998D03*
Y10869999D03*
X3454999Y11144997D03*
X7244997Y4754999D03*
X8984498Y6761998D03*
Y8285998D03*
Y9682998D03*
Y11206998D03*
Y11834998D03*
X815000Y1204999D03*
Y4850998D03*
Y6882999D03*
Y8914999D03*
X1079998Y10869999D03*
X1679999Y11009999D03*
X6190498Y5872998D03*
Y7396998D03*
Y8793998D03*
Y10317998D03*
X7079998Y5144999D03*
X749999Y4770999D03*
Y6802999D03*
Y8834999D03*
X754997Y1309997D03*
X969998Y10864998D03*
X1679999Y10909999D03*
X6126998Y5999998D03*
Y7523998D03*
Y8920998D03*
Y10444998D03*
X7049999Y4754999D03*
X769998Y4298999D03*
Y6330999D03*
Y8362998D03*
Y10394999D03*
X1269998Y509999D03*
X1440000Y2889999D03*
X2219998Y509999D03*
X2837000Y2889999D03*
X2850000Y4528998D03*
Y6560998D03*
Y8592998D03*
Y10624998D03*
X3054998Y825000D03*
X3314997Y4644999D03*
X3444999Y5489999D03*
Y5809999D03*
Y6634998D03*
X3449998Y7334997D03*
X3784999Y7014998D03*
X3904999Y1729999D03*
X4050000Y2314999D03*
X4589999Y5809999D03*
X4864999Y5654997D03*
X4924999Y6889999D03*
X5069998Y1554998D03*
X5174498Y5987298D03*
Y7511298D03*
Y9035298D03*
Y10559298D03*
X5404998Y4019999D03*
X5593598Y2579899D03*
X5709999Y3224998D03*
Y4589999D03*
X6049998Y855000D03*
X6219997Y729998D03*
X6399997Y2529998D03*
X6529997Y4744999D03*
X6622298Y6761998D03*
Y8285998D03*
Y9809998D03*
Y11333998D03*
X6749997Y1364999D03*
X7062999Y8793998D03*
Y10317998D03*
X7194997Y2225000D03*
Y5454998D03*
X7209999Y2065000D03*
X7699997Y2954998D03*
X7764999Y4754999D03*
X7929997Y4329999D03*
X7968498Y10190998D03*
X7981198Y7142998D03*
Y8666998D03*
X8073898Y5618998D03*
X8329998Y3354999D03*
X8589998Y1684998D03*
Y2065000D03*
X8624997Y3659998D03*
X8964999Y1044999D03*
X9860798Y6761998D03*
Y8285998D03*
Y9809998D03*
Y11333998D03*
X10104999Y1044999D03*
Y2125000D03*
X10334999Y10954997D03*
X10394999Y11269998D03*
X10759999Y1059998D03*
X5320000Y154999D03*
X6253998Y8666998D03*
Y10190998D03*
X6464999Y2419998D03*
X7464999Y9924997D03*
X7879598Y10190998D03*
X9492498Y8666998D03*
Y10190998D03*
X1525379Y3972499D03*
Y6004499D03*
Y8036499D03*
X1705219Y10013699D03*
X1730939Y3493498D03*
X4234998Y2639997D03*
X4429999Y1679999D03*
X4635000Y324998D03*
X8319999Y4394998D03*
X9474997Y4160000D03*
X5872998Y2579899D03*
X6098497Y3158497D03*
X6712189Y3765629D03*
X5999229Y2607740D03*
X6024578Y2033278D03*
X6593497Y2950269D03*
X5234999Y224998D03*
X5284999Y2634998D03*
X5410000Y2189998D03*
X7929997Y4459999D03*
X9474997Y4284998D03*
X769998Y4528998D03*
Y6560998D03*
Y8592998D03*
Y10624998D03*
X1769999Y509999D03*
X1923999Y2887000D03*
X2850000Y4298999D03*
Y6330999D03*
Y8362998D03*
Y10394999D03*
X2964998Y5809999D03*
Y7334997D03*
X3089999Y4644999D03*
X3320999Y2887000D03*
X3395460Y5367168D03*
X3439998Y6759997D03*
X3909998Y1259998D03*
X4024998Y6509997D03*
Y6759997D03*
X4050000Y1934997D03*
X4110000Y5809999D03*
X4124998Y4694999D03*
X4364998Y6379997D03*
Y6889999D03*
X4765000Y2639997D03*
Y2889999D03*
X4809998Y3139999D03*
Y3394999D03*
Y3649998D03*
Y3904999D03*
X5069998Y2065000D03*
X5174498Y5504698D03*
Y7028698D03*
Y8552698D03*
Y10076698D03*
X5404998Y3789998D03*
X5872998Y2104898D03*
X6152398D03*
X6269997Y1049998D03*
Y1364999D03*
X6964998Y2225000D03*
Y5450000D03*
X7067388Y7269998D03*
X7068289Y5745998D03*
X7254997Y1044999D03*
X7374997Y2954998D03*
X7599997Y1049998D03*
X7894998Y2954998D03*
X8324997Y2964998D03*
X8589998Y1044999D03*
X8624997Y3889998D03*
X8832497Y10190998D03*
X8833658Y8666998D03*
X8836099Y7139999D03*
X8847618Y5618998D03*
X8847998Y2888498D03*
Y4158498D03*
X10874998Y11269998D03*
X10934997Y10954997D03*
X4234998Y2889999D03*
X4529999Y1809999D03*
X4735000Y464998D03*
X10174999D03*
D11*
X4602998Y8095498D03*
Y8349498D03*
Y8603498D03*
Y8857498D03*
Y9111498D03*
Y9365498D03*
Y9619498D03*
Y9873498D03*
Y10127498D03*
Y10381498D03*
Y10635498D03*
Y10889498D03*
Y11143498D03*
X3078998D03*
Y10889498D03*
Y10635498D03*
Y10381498D03*
Y10127498D03*
Y9873498D03*
Y9619498D03*
Y9365498D03*
Y9111498D03*
Y8857498D03*
Y8603498D03*
Y8349498D03*
Y8095498D03*
Y7841498D03*
X5491998Y4983998D03*
X8476498Y2507498D03*
D12*
X11237999Y2316998D03*
Y2570998D03*
Y2824998D03*
Y3078998D03*
Y3332998D03*
Y3586998D03*
Y3840998D03*
Y4094998D03*
Y4348998D03*
Y4602998D03*
Y4856998D03*
Y5110998D03*
Y5364998D03*
Y5618998D03*
Y5872998D03*
Y6126998D03*
Y6380998D03*
Y6634998D03*
Y6888998D03*
Y7142998D03*
Y7396998D03*
Y7650998D03*
Y7904998D03*
Y8158998D03*
Y8412998D03*
Y8666998D03*
Y8920998D03*
Y9174998D03*
Y9428998D03*
Y9682998D03*
Y9936998D03*
X10983999Y2316998D03*
Y2570998D03*
Y2824998D03*
Y3078998D03*
Y3332998D03*
Y3586998D03*
Y3840998D03*
Y4094998D03*
Y4348998D03*
Y4602998D03*
Y4856998D03*
Y5110998D03*
Y5364998D03*
Y5618998D03*
Y5872998D03*
Y6126998D03*
Y6380998D03*
Y6634998D03*
Y6888998D03*
Y7142998D03*
Y7396998D03*
Y7650998D03*
Y7904998D03*
Y8158998D03*
Y8412998D03*
Y8666998D03*
Y8920998D03*
Y9174998D03*
Y9428998D03*
Y9682998D03*
Y9936998D03*
X10729999Y2316998D03*
Y2570998D03*
Y2824998D03*
Y3078998D03*
Y3332998D03*
Y3586998D03*
Y3840998D03*
Y4094998D03*
Y4348998D03*
Y4602998D03*
Y4856998D03*
Y5110998D03*
Y5364998D03*
Y5618998D03*
Y5872998D03*
Y6126998D03*
Y6380998D03*
Y6634998D03*
Y6888998D03*
Y7142998D03*
Y7396998D03*
Y7650998D03*
Y7904998D03*
Y8158998D03*
Y8412998D03*
Y8666998D03*
Y8920998D03*
Y9174998D03*
Y9428998D03*
Y9682998D03*
Y9936998D03*
D13*
X4602988Y7841488D03*
D14*
X10729976Y2062988D03*
X10983976D03*
X11237976D03*
D15*
X2320500Y2578500D03*
X2270500D03*
X2220500D03*
X2170500D03*
X2120500D03*
X2070500D03*
X2020500D03*
X1970500D03*
X1920500D03*
X1870500D03*
X1820500D03*
X1770500D03*
X1720500D03*
X1670500D03*
X1620500D03*
X1570500D03*
X1520500D03*
X1470500D03*
X1420500D03*
X1370500D03*
X1320500D03*
X1270500D03*
X1220500D03*
X1170500D03*
Y658499D03*
X1220500D03*
X1270500D03*
X1320500D03*
X1370500D03*
X1420500D03*
X1470500D03*
X1520500D03*
X1570500D03*
X1620500D03*
X1670500D03*
X1720500D03*
X1770500D03*
X1820500D03*
X1870500D03*
X1920500D03*
X1970500D03*
X2020500D03*
X2070500D03*
X2120500D03*
X2170500D03*
X2220500D03*
X2270500D03*
X2320500D03*
X3554000Y2578500D03*
X3504000D03*
X3454000D03*
X3404000D03*
X3354000D03*
X3304000D03*
X3254000D03*
X3204000D03*
X3154000D03*
X3104000D03*
X3054000D03*
X3004000D03*
X2954000D03*
X2904000D03*
X2854000D03*
X2804000D03*
X2754000D03*
X2704000D03*
X2654000D03*
X2604000D03*
Y658499D03*
X2654000D03*
X2704000D03*
X2754000D03*
X2804000D03*
X2854000D03*
X2904000D03*
X2954000D03*
X3004000D03*
X3054000D03*
X3104000D03*
X3154000D03*
X3204000D03*
X3254000D03*
X3304000D03*
X3354000D03*
X3404000D03*
X3454000D03*
X3504000D03*
X3554000D03*
D16*
X7893500Y4951000D03*
X7828500D03*
X7763500D03*
X7698500D03*
X7633500D03*
X7568500D03*
X7503500D03*
X7438500D03*
X7373500D03*
X7308500D03*
X7243500D03*
X7178500D03*
X7113500D03*
X7048500D03*
X6983500D03*
X6918500D03*
X6853500D03*
X6788500D03*
X6723500D03*
X6658500D03*
X6593500D03*
X6528500D03*
X6463500D03*
X6398500D03*
X6333500D03*
X6268500D03*
X6203500D03*
X6138500D03*
Y2731000D03*
X6203500D03*
X6268500D03*
X6333500D03*
X6398500D03*
X6463500D03*
X6528500D03*
X6593500D03*
X6658500D03*
X6723500D03*
X6788500D03*
X6853500D03*
X6918500D03*
X6983500D03*
X7048500D03*
X7113500D03*
X7178500D03*
X7243500D03*
X7308500D03*
X7373500D03*
X7438500D03*
X7503500D03*
X7568500D03*
X7633500D03*
X7698500D03*
X7763500D03*
X7828500D03*
X7893500D03*
D17*
X10750423Y11270488D03*
X10520553D03*
X6710553Y10317988D03*
X6940423D03*
X8196453Y10190988D03*
X8426323D03*
X6710553Y8793988D03*
X6940423D03*
X8196453Y8666988D03*
X8426323D03*
X3091053Y7333488D03*
X3320923D03*
X6710553Y7269988D03*
X6940423D03*
X8196453Y7142988D03*
X8426323D03*
X3091053Y5809488D03*
X3320923D03*
X4234053D03*
X4463923D03*
X6710553Y5745988D03*
X6940423D03*
X8196453Y5618988D03*
X8426323D03*
X6964553Y5301488D03*
X7194423D03*
X3091053Y4793488D03*
X3320923D03*
X4932553Y3904488D03*
X5162423D03*
X4932553Y3650488D03*
X5162423D03*
X4932553Y3396488D03*
X5162423D03*
X4932553Y3142488D03*
X5162423D03*
X1567053Y2888488D03*
X1796923D03*
X2964053D03*
X3193923D03*
X4361053D03*
X4590923D03*
X4932553D03*
X5162423D03*
X4361053Y2634488D03*
X4590923D03*
X4932553D03*
X5162423D03*
X6964553Y2380488D03*
X7194423D03*
X8234553Y2062988D03*
X8464423D03*
X8234553Y1681988D03*
X8464423D03*
X6393053Y1364488D03*
X6622923D03*
X6901053D03*
X7130923D03*
X8234553D03*
X8464423D03*
X6393053Y1046988D03*
X6622923D03*
X6901053D03*
X7130923D03*
X7726553D03*
X7956423D03*
X8234553D03*
X8464423D03*
X5567553Y856488D03*
X5797423D03*
X6901053Y729488D03*
X7130923D03*
X8234553D03*
X8464423D03*
D18*
X10258552Y919988D03*
X10508488D03*
X10758424D03*
D19*
X10800588Y10952988D03*
X10470642D03*
D20*
X919988Y10623423D03*
X2697988D03*
X5174488Y10432923D03*
X919988Y10393553D03*
X2697988D03*
X5174488Y10203053D03*
Y8908923D03*
Y8679053D03*
X919988Y8591423D03*
X2697988D03*
X919988Y8361553D03*
X2697988D03*
X5174488Y7384923D03*
Y7155053D03*
X919988Y6559423D03*
X2697988D03*
X919988Y6329553D03*
X2697988D03*
X5174488Y5860923D03*
Y5631053D03*
X919988Y4527423D03*
X2697988D03*
X919988Y4297553D03*
X2697988D03*
X5555488Y4019423D03*
X8476488Y3892423D03*
X5555488Y3789553D03*
X8476488Y3662553D03*
X5593588Y2457323D03*
X5872988D03*
X6152388D03*
X5593588Y2227453D03*
X5872988D03*
X6152388D03*
X3904488Y1606423D03*
Y1376553D03*
D21*
X6368034Y729488D03*
X6647942D03*
X7701534D03*
X7981442D03*
D22*
X2371500Y9668500D03*
Y9748500D03*
Y9828500D03*
Y9908500D03*
Y9988500D03*
Y10068500D03*
Y10148500D03*
Y10228500D03*
Y10308500D03*
Y10388500D03*
Y10468500D03*
Y10548500D03*
Y10628500D03*
Y10708500D03*
Y10788500D03*
Y10868500D03*
Y10948500D03*
Y11028500D03*
Y11108500D03*
Y11188500D03*
Y11268500D03*
Y11348500D03*
X1246500D03*
Y11268500D03*
Y11188500D03*
Y11108500D03*
Y11028500D03*
Y10948500D03*
Y10868500D03*
Y10788500D03*
Y10708500D03*
Y10628500D03*
Y10548500D03*
Y10468500D03*
Y10388500D03*
Y10308500D03*
Y10228500D03*
Y10148500D03*
Y10068500D03*
Y9988500D03*
Y9908500D03*
Y9828500D03*
Y9748500D03*
Y9668500D03*
X2371500Y7636500D03*
Y7716499D03*
Y7796499D03*
Y7876500D03*
Y7956500D03*
Y8036500D03*
Y8116499D03*
Y8196499D03*
Y8276500D03*
Y8356500D03*
Y8436500D03*
Y8516499D03*
Y8596499D03*
Y8676500D03*
Y8756500D03*
Y8836500D03*
Y8916499D03*
Y8996499D03*
Y9076500D03*
Y9156500D03*
Y9236500D03*
Y9316499D03*
X1246500D03*
Y9236500D03*
Y9156500D03*
Y9076500D03*
Y8996499D03*
Y8916499D03*
Y8836500D03*
Y8756500D03*
Y8676500D03*
Y8596499D03*
Y8516499D03*
Y8436500D03*
Y8356500D03*
Y8276500D03*
Y8196499D03*
Y8116499D03*
Y8036500D03*
Y7956500D03*
Y7876500D03*
Y7796499D03*
Y7716499D03*
Y7636500D03*
X2371500Y5604500D03*
Y5684500D03*
Y5764500D03*
Y5844500D03*
Y5924499D03*
Y6004500D03*
Y6084500D03*
Y6164500D03*
Y6244500D03*
Y6324499D03*
Y6404500D03*
Y6484500D03*
Y6564499D03*
Y6644499D03*
Y6724500D03*
Y6804500D03*
Y6884500D03*
Y6964500D03*
Y7044499D03*
Y7124500D03*
Y7204500D03*
Y7284500D03*
X1246500D03*
Y7204500D03*
Y7124500D03*
Y7044499D03*
Y6964500D03*
Y6884500D03*
Y6804500D03*
Y6724500D03*
Y6644499D03*
Y6564499D03*
Y6484500D03*
Y6404500D03*
Y6324499D03*
Y6244500D03*
Y6164500D03*
Y6084500D03*
Y6004500D03*
Y5924499D03*
Y5844500D03*
Y5764500D03*
Y5684500D03*
Y5604500D03*
X2371500Y3572500D03*
Y3652500D03*
Y3732499D03*
Y3812500D03*
Y3892499D03*
Y3972500D03*
Y4052500D03*
Y4132499D03*
Y4212500D03*
Y4292499D03*
Y4372500D03*
Y4452500D03*
Y4532499D03*
Y4612500D03*
Y4692499D03*
Y4772500D03*
Y4852500D03*
Y4932499D03*
Y5012500D03*
Y5092499D03*
Y5172500D03*
Y5252500D03*
X1246500D03*
Y5172500D03*
Y5092499D03*
Y5012500D03*
Y4932499D03*
Y4852500D03*
Y4772500D03*
Y4692499D03*
Y4612500D03*
Y4532499D03*
Y4452500D03*
Y4372500D03*
Y4292499D03*
Y4212500D03*
Y4132499D03*
Y4052500D03*
Y3972500D03*
Y3892499D03*
Y3812500D03*
Y3732499D03*
Y3652500D03*
Y3572500D03*
D23*
X9685000Y5618999D03*
Y5746000D03*
Y5872999D03*
Y6000000D03*
Y6127000D03*
Y6253999D03*
Y6381000D03*
Y6508000D03*
Y6634999D03*
Y6762000D03*
X8665000D03*
Y6634999D03*
Y6508000D03*
Y6381000D03*
Y6253999D03*
Y6127000D03*
Y6000000D03*
Y5872999D03*
Y5746000D03*
Y5618999D03*
X6446500D03*
Y5746000D03*
Y5872999D03*
Y6000000D03*
Y6127000D03*
Y6253999D03*
Y6381000D03*
Y6508000D03*
Y6634999D03*
Y6762000D03*
X5426500D03*
Y6634999D03*
Y6508000D03*
Y6381000D03*
Y6253999D03*
Y6127000D03*
Y6000000D03*
Y5872999D03*
Y5746000D03*
Y5618999D03*
X9685000Y7142999D03*
Y7269999D03*
Y7397000D03*
Y7524000D03*
Y7651000D03*
Y7778000D03*
Y7905000D03*
Y8031999D03*
Y8158999D03*
Y8286000D03*
X8665000D03*
Y8158999D03*
Y8031999D03*
Y7905000D03*
Y7778000D03*
Y7651000D03*
Y7524000D03*
Y7397000D03*
Y7269999D03*
Y7142999D03*
X6446500D03*
Y7269999D03*
Y7397000D03*
Y7524000D03*
Y7651000D03*
Y7778000D03*
Y7905000D03*
Y8031999D03*
Y8158999D03*
Y8286000D03*
X5426500D03*
Y8158999D03*
Y8031999D03*
Y7905000D03*
Y7778000D03*
Y7651000D03*
Y7524000D03*
Y7397000D03*
Y7269999D03*
Y7142999D03*
X9685000Y8667000D03*
Y8794000D03*
Y8921000D03*
Y9048000D03*
Y9175000D03*
Y9302000D03*
Y9428999D03*
Y9556000D03*
Y9683000D03*
Y9810000D03*
X8665000D03*
Y9683000D03*
Y9556000D03*
Y9428999D03*
Y9302000D03*
Y9175000D03*
Y9048000D03*
Y8921000D03*
Y8794000D03*
Y8667000D03*
X6446500D03*
Y8794000D03*
Y8921000D03*
Y9048000D03*
Y9175000D03*
Y9302000D03*
Y9428999D03*
Y9556000D03*
Y9683000D03*
Y9810000D03*
X5426500D03*
Y9683000D03*
Y9556000D03*
Y9428999D03*
Y9302000D03*
Y9175000D03*
Y9048000D03*
Y8921000D03*
Y8794000D03*
Y8667000D03*
X9685000Y10191000D03*
Y10317999D03*
Y10444999D03*
Y10571999D03*
Y10699000D03*
Y10826000D03*
Y10953000D03*
Y11080000D03*
Y11206999D03*
Y11334000D03*
X8665000D03*
Y11206999D03*
Y11080000D03*
Y10953000D03*
Y10826000D03*
Y10699000D03*
Y10571999D03*
Y10444999D03*
Y10317999D03*
Y10191000D03*
X6446500D03*
Y10317999D03*
Y10444999D03*
Y10571999D03*
Y10699000D03*
Y10826000D03*
Y10953000D03*
Y11080000D03*
Y11206999D03*
Y11334000D03*
X5426500D03*
Y11206999D03*
Y11080000D03*
Y10953000D03*
Y10826000D03*
Y10699000D03*
Y10571999D03*
Y10444999D03*
Y10317999D03*
Y10191000D03*
X4756000Y6127000D03*
Y6253999D03*
Y6381000D03*
Y6508000D03*
Y6634999D03*
Y6762000D03*
Y6889000D03*
X4196000D03*
Y6762000D03*
Y6634999D03*
Y6508000D03*
Y6381000D03*
Y6253999D03*
Y6127000D03*
X3613000Y5111000D03*
Y5237999D03*
Y5365000D03*
Y5492000D03*
X3053000D03*
Y5365000D03*
Y5237999D03*
Y5111000D03*
X3613000Y6127000D03*
Y6253999D03*
Y6381000D03*
Y6508000D03*
Y6634999D03*
Y6762000D03*
Y6889000D03*
Y7016000D03*
X3053000D03*
Y6889000D03*
Y6762000D03*
Y6634999D03*
Y6508000D03*
Y6381000D03*
Y6253999D03*
Y6127000D03*
X7042000Y1682000D03*
Y1809000D03*
Y1935999D03*
Y2062999D03*
X6482000D03*
Y1935999D03*
Y1809000D03*
Y1682000D03*
X5240000Y665999D03*
Y792999D03*
Y920000D03*
Y1047000D03*
Y1174000D03*
Y1301000D03*
Y1428000D03*
Y1555000D03*
Y1682000D03*
Y1809000D03*
Y1935999D03*
Y2062999D03*
Y2190000D03*
Y2317000D03*
X4220000D03*
Y2190000D03*
Y2062999D03*
Y1935999D03*
Y1809000D03*
Y1682000D03*
Y1555000D03*
Y1428000D03*
Y1301000D03*
Y1174000D03*
Y1047000D03*
Y920000D03*
Y792999D03*
Y665999D03*
D24*
X3957447Y5526405D03*
X4867529D03*
X3957447Y5076571D03*
X4867529D03*
D25*
X8795385Y2380361D03*
X9935337D03*
X8795385Y2126361D03*
X9935337D03*
X8795385Y1872361D03*
X9935337D03*
X8795385Y1300861D03*
X9935337D03*
X8795385Y1046861D03*
X9935337D03*
X8795385Y792861D03*
X9935337D03*
D26*
X7494524Y2059051D03*
X7934452D03*
X5589524Y1805051D03*
X6029452D03*
X7494524Y1558925D03*
X7934452D03*
X5589524Y1304925D03*
X6029452D03*
D27*
X5906000Y4718500D03*
Y4653500D03*
Y4588500D03*
Y4523500D03*
Y4458500D03*
Y4393500D03*
Y4328500D03*
Y4263500D03*
Y4198500D03*
Y4133500D03*
Y4068500D03*
Y4003500D03*
Y3938500D03*
Y3873500D03*
Y3808500D03*
Y3743500D03*
Y3678500D03*
Y3613500D03*
Y3548500D03*
Y3483500D03*
Y3418500D03*
Y3353500D03*
Y3288500D03*
Y3223499D03*
Y3158500D03*
Y3093500D03*
Y3028500D03*
Y2963500D03*
X8126000D03*
Y3028500D03*
Y3093500D03*
Y3158500D03*
Y3223499D03*
Y3288500D03*
Y3353500D03*
Y3418500D03*
Y3483500D03*
Y3548500D03*
Y3613500D03*
Y3678500D03*
Y3743500D03*
Y3808500D03*
Y3873500D03*
Y3938500D03*
Y4003500D03*
Y4068500D03*
Y4133500D03*
Y4198500D03*
Y4263500D03*
Y4328500D03*
Y4393500D03*
Y4458500D03*
Y4523500D03*
Y4588500D03*
Y4653500D03*
Y4718500D03*
D28*
X7902500Y5746000D03*
Y5872999D03*
Y6000000D03*
Y6127000D03*
Y6253999D03*
Y6381000D03*
Y6508000D03*
Y6634999D03*
X7272500D03*
Y6508000D03*
Y6381000D03*
Y6253999D03*
Y6127000D03*
Y6000000D03*
Y5872999D03*
Y5746000D03*
X9680500Y2888500D03*
Y3015499D03*
Y3142500D03*
Y3269500D03*
Y3396500D03*
Y3523500D03*
Y3650499D03*
Y3777500D03*
X9050500D03*
Y3650499D03*
Y3523500D03*
Y3396500D03*
Y3269500D03*
Y3142500D03*
Y3015499D03*
Y2888500D03*
X7902500Y7269999D03*
Y7397000D03*
Y7524000D03*
Y7651000D03*
Y7778000D03*
Y7905000D03*
Y8031999D03*
Y8158999D03*
X7272500D03*
Y8031999D03*
Y7905000D03*
Y7778000D03*
Y7651000D03*
Y7524000D03*
Y7397000D03*
Y7269999D03*
X9680500Y4158500D03*
Y4285499D03*
Y4412500D03*
Y4539500D03*
Y4666500D03*
Y4793500D03*
Y4920500D03*
Y5047500D03*
X9050500D03*
Y4920500D03*
Y4793500D03*
Y4666500D03*
Y4539500D03*
Y4412500D03*
Y4285499D03*
Y4158500D03*
X7902500Y8794000D03*
Y8921000D03*
Y9048000D03*
Y9175000D03*
Y9302000D03*
Y9428999D03*
Y9556000D03*
Y9683000D03*
X7272500D03*
Y9556000D03*
Y9428999D03*
Y9302000D03*
Y9175000D03*
Y9048000D03*
Y8921000D03*
Y8794000D03*
X7902500Y10317999D03*
Y10444999D03*
Y10571999D03*
Y10699000D03*
Y10826000D03*
Y10953000D03*
Y11080000D03*
Y11206999D03*
X7272500D03*
Y11080000D03*
Y10953000D03*
Y10826000D03*
Y10699000D03*
Y10571999D03*
Y10444999D03*
Y10317999D03*
D29*
X3904361Y4664964D03*
Y2890012D03*
M02*